<svg xmlns="http://www.w3.org/2000/svg" xmlns:xlink="http://www.w3.org/1999/xlink" width="400" height="796" viewBox="0 0 400 796">
  <defs>
    <clipPath id="clip-path">
      <rect id="Rectángulo_378866" data-name="Rectángulo 378866" width="710.412" height="337.92" fill="none"/>
    </clipPath>
    <clipPath id="clip-path-4">
      <rect id="Rectángulo_378871" data-name="Rectángulo 378871" width="16.69" height="16.691" fill="none"/>
    </clipPath>
  </defs>
  <g id="Grupo_1099639" data-name="Grupo 1099639" transform="translate(8714 8476)">
    <g id="Grupo_1074944" data-name="Grupo 1074944" transform="translate(-40 1131)">
      <rect id="Rectángulo_378860" data-name="Rectángulo 378860" width="400" height="796" transform="translate(-8674 -9607)" fill="#defdff"/>
    </g>
    <line id="Línea_3191" data-name="Línea 3191" y1="81.914" x2="209.13" transform="translate(-8518.026 -7947.104) rotate(-90)" fill="none" stroke="#b9daff" stroke-miterlimit="10" stroke-width="3"/>
    <line id="Línea_3192" data-name="Línea 3192" y1="81.914" x2="155.403" transform="translate(-8518.026 -8181.702) rotate(-90)" fill="none" stroke="#b9daff" stroke-miterlimit="10" stroke-width="3"/>
    <path id="Trazado_615665" data-name="Trazado 615665" d="M209.13,81.914,0,0" transform="translate(-8518.026 -7972.572) rotate(-90)" fill="none" stroke="#b9daff" stroke-width="3"/>
    <line id="Línea_3194" data-name="Línea 3194" x1="155.403" y1="81.914" transform="translate(-8518.026 -7791.701) rotate(-90)" fill="none" stroke="#b9daff" stroke-miterlimit="10" stroke-width="3"/>
    <path id="Trazado_615647" data-name="Trazado 615647" d="M154.8,0H7.427C3.325,0,0,3.972,0,8.871V115.689c0,4.9,3.325,8.873,7.427,8.873H66.461l2.452,5.07,12.2,25.24,12.2-25.24,2.45-5.07H154.8c4.1,0,7.429-3.974,7.429-8.873V8.871C162.227,3.972,158.9,0,154.8,0" transform="translate(-8701.544 -8259.185) rotate(-90)" fill="#b9daff"/>
    <path id="Trazado_615649" data-name="Trazado 615649" d="M6.685,0h153.3a6.948,6.948,0,0,1,6.685,7.183,6.948,6.948,0,0,1-6.685,7.183H6.685A6.948,6.948,0,0,1,0,7.183,6.948,6.948,0,0,1,6.685,0" transform="translate(-8524.169 -7711) rotate(-90)" fill="#3656b3"/>
    <path id="Trazado_615650" data-name="Trazado 615650" d="M6.685,0h163.69a6.948,6.948,0,0,1,6.685,7.183,6.948,6.948,0,0,1-6.685,7.183H6.685A6.948,6.948,0,0,1,0,7.183,6.948,6.948,0,0,1,6.685,0" transform="translate(-8524.169 -7884.828) rotate(-90)" fill="#315884"/>
    <path id="Trazado_615651" data-name="Trazado 615651" d="M176.651,7.183h0a6.948,6.948,0,0,1-6.685,7.183H6.685A6.948,6.948,0,0,1,0,7.183,6.948,6.948,0,0,1,6.685,0h163.28a6.948,6.948,0,0,1,6.685,7.183" transform="translate(-8524.169 -8069.019) rotate(-90)" fill="#59c4c8"/>
    <path id="Trazado_615652" data-name="Trazado 615652" d="M168.612,7.183h0a6.948,6.948,0,0,1-6.685,7.183H6.687A6.948,6.948,0,0,1,0,7.183,6.948,6.948,0,0,1,6.687,0H161.926a6.948,6.948,0,0,1,6.685,7.183" transform="translate(-8524.169 -8252.799) rotate(-90)" fill="#fe9b4f"/>
    <path id="Trazado_615653" data-name="Trazado 615653" d="M56.555,30.383c0,16.78-12.66,30.383-28.276,30.383S0,47.162,0,30.383,12.66,0,28.278,0,56.555,13.6,56.555,30.383" transform="translate(-8547.61 -7766.059) rotate(-90)" fill="#3656b3"/>
    <path id="Trazado_615718" data-name="Trazado 615718" d="M154.8,0H7.427C3.325,0,0,3.972,0,8.871V115.689c0,4.9,3.325,8.873,7.427,8.873H66.461l2.452,5.07,12.2,25.24,12.2-25.24,2.45-5.07H154.8c4.1,0,7.429-3.974,7.429-8.873V8.871C162.227,3.972,158.9,0,154.8,0" transform="translate(-8701.544 -8076.23) rotate(-90)" fill="#b9daff"/>
    <path id="Trazado_615719" data-name="Trazado 615719" d="M154.8,0H7.427C3.325,0,0,3.972,0,8.871V115.689c0,4.9,3.325,8.873,7.427,8.873H66.461l2.452,5.07,12.2,25.24,12.2-25.24,2.45-5.07H154.8c4.1,0,7.429-3.974,7.429-8.873V8.871C162.227,3.972,158.9,0,154.8,0" transform="translate(-8701.544 -7893.276) rotate(-90)" fill="#b9daff"/>
    <path id="Trazado_615720" data-name="Trazado 615720" d="M154.8,0H7.427C3.325,0,0,3.972,0,8.871V115.689c0,4.9,3.325,8.873,7.427,8.873H66.461l2.452,5.07,12.2,25.24,12.2-25.24,2.45-5.07H154.8c4.1,0,7.429-3.974,7.429-8.873V8.871C162.227,3.972,158.9,0,154.8,0" transform="translate(-8701.544 -7710.322) rotate(-90)" fill="#b9daff"/>
    <rect id="Rectángulo_378865" data-name="Rectángulo 378865" width="710.412" height="363.089" transform="translate(-8708.544 -7711) rotate(-90)" fill="none"/>
    <g id="Grupo_1074907" data-name="Grupo 1074907" transform="translate(-8679.502 -7711) rotate(-90)">
      <g id="Grupo_1074906" data-name="Grupo 1074906" clip-path="url(#clip-path)">
        <path id="Trazado_615655" data-name="Trazado 615655" d="M56.555,28.276A28.277,28.277,0,1,1,28.278,0,28.277,28.277,0,0,1,56.555,28.276" transform="translate(234.081 133.199)" fill="#315884"/>
        <path id="Trazado_615656" data-name="Trazado 615656" d="M46.979,23.49A23.489,23.489,0,1,1,23.488,0a23.49,23.49,0,0,1,23.49,23.49" transform="translate(238.869 137.985)" fill="#315884"/>
      </g>
    </g>
    <g id="Grupo_1074909" data-name="Grupo 1074909" transform="translate(-8679.502 -7711) rotate(-90)">
      <g id="Grupo_1074908" data-name="Grupo 1074908" clip-path="url(#clip-path)">
        <path id="Trazado_615657" data-name="Trazado 615657" d="M56.555,28.276A28.277,28.277,0,1,1,28.278,0,28.277,28.277,0,0,1,56.555,28.276" transform="translate(418.067 133.199)" fill="#59c4c8"/>
        <path id="Trazado_615658" data-name="Trazado 615658" d="M46.979,23.49A23.489,23.489,0,1,1,23.488,0a23.49,23.49,0,0,1,23.49,23.49" transform="translate(422.856 137.985)" fill="#59c4c8"/>
      </g>
    </g>
    <g id="Grupo_1074911" data-name="Grupo 1074911" transform="translate(-8679.502 -7711) rotate(-90)">
      <g id="Grupo_1074910" data-name="Grupo 1074910" clip-path="url(#clip-path)">
        <path id="Trazado_615659" data-name="Trazado 615659" d="M56.555,28.276A28.277,28.277,0,1,1,28.278,0,28.277,28.277,0,0,1,56.555,28.276" transform="translate(597.829 133.199)" fill="#fe9b4f"/>
        <path id="Trazado_615660" data-name="Trazado 615660" d="M46.978,23.49A23.489,23.489,0,1,1,23.488,0a23.49,23.49,0,0,1,23.49,23.49" transform="translate(602.617 137.985)" fill="#fe9b4f"/>
      </g>
    </g>
    <path id="Trazado_615661" data-name="Trazado 615661" d="M213.224,108.811H8.337c-4.6,0-8.337-4.356-8.337-9.727V9.727C0,4.353,3.733,0,8.337,0H213.224c4.6,0,8.337,4.353,8.337,9.727V99.083c0,5.372-3.733,9.727-8.337,9.727" transform="translate(-8434.841 -7836.323) rotate(-90)" fill="#b9daff"/>
    <path id="Trazado_615662" data-name="Trazado 615662" d="M25.152,12.576A12.576,12.576,0,1,1,12.576,0,12.576,12.576,0,0,1,25.152,12.576" transform="translate(-8448.688 -7934.527) rotate(-90)" fill="#b9daff"/>
    <g id="Grupo_1074917" data-name="Grupo 1074917" transform="translate(-8444.458 -7938.758) rotate(-90)" style="mix-blend-mode: multiply;isolation: isolate">
      <g id="Grupo_1074916" data-name="Grupo 1074916">
        <g id="Grupo_1074915" data-name="Grupo 1074915" clip-path="url(#clip-path-4)">
          <ellipse id="Elipse_6027" data-name="Elipse 6027" cx="7.833" cy="7.833" rx="7.833" ry="7.833" transform="translate(0.512 0.513)" fill="none" stroke="#b9daff" stroke-miterlimit="10" stroke-width="0.5"/>
        </g>
      </g>
    </g>
    <path id="Trazado_615663" data-name="Trazado 615663" d="M213.224,108.811H8.337c-4.6,0-8.337-4.356-8.337-9.727V9.727C0,4.353,3.733,0,8.337,0H213.224c4.6,0,8.337,4.353,8.337,9.727V99.083c0,5.372-3.733,9.727-8.337,9.727" transform="translate(-8434.841 -8070.923) rotate(-90)" fill="#b9daff"/>
    <path id="Trazado_615664" data-name="Trazado 615664" d="M25.152,12.576A12.576,12.576,0,1,1,12.576,0,12.576,12.576,0,0,1,25.152,12.576" transform="translate(-8448.688 -8169.127) rotate(-90)" fill="#b9daff"/>
    <g id="Grupo_1074923" data-name="Grupo 1074923" transform="translate(-8444.458 -8173.358) rotate(-90)" style="mix-blend-mode: multiply;isolation: isolate">
      <g id="Grupo_1074922" data-name="Grupo 1074922">
        <g id="Grupo_1074921" data-name="Grupo 1074921" clip-path="url(#clip-path-4)">
          <ellipse id="Elipse_6028" data-name="Elipse 6028" cx="7.833" cy="7.833" rx="7.833" ry="7.833" transform="translate(0.512 0.513)" fill="none" stroke="#b9daff" stroke-miterlimit="10" stroke-width="0.5"/>
        </g>
      </g>
    </g>
    <rect id="Rectángulo_378875" data-name="Rectángulo 378875" width="710.412" height="337.92" transform="translate(-8679.502 -7711) rotate(-90)" fill="none"/>
    <rect id="Rectángulo_378876" data-name="Rectángulo 378876" width="710.412" height="337.92" transform="translate(-8679.502 -7711) rotate(-90)" fill="none"/>
    <path id="Trazado_873513" data-name="Trazado 873513" d="M-26.133,0h-2.344V-11.375h2.344Zm4.1-8.453.07.977a2.951,2.951,0,0,1,2.43-1.133,2.453,2.453,0,0,1,2,.789,3.682,3.682,0,0,1,.672,2.359V0h-2.258V-5.406a1.465,1.465,0,0,0-.312-1.043,1.4,1.4,0,0,0-1.039-.324,1.553,1.553,0,0,0-1.43.813V0h-2.258V-8.453Zm9.586-2.078v2.078H-11V-6.8h-1.445v4.219a1.007,1.007,0,0,0,.18.672.9.9,0,0,0,.688.2,3.6,3.6,0,0,0,.664-.055V-.047a4.648,4.648,0,0,1-1.367.2,2.156,2.156,0,0,1-2.422-2.4V-6.8h-1.234V-8.453H-14.7v-2.078ZM-5.852.156A4.15,4.15,0,0,1-8.879-.984a4.054,4.054,0,0,1-1.168-3.039v-.219A5.106,5.106,0,0,1-9.555-6.52,3.612,3.612,0,0,1-8.16-8.066,3.914,3.914,0,0,1-6.1-8.609a3.508,3.508,0,0,1,2.73,1.094,4.444,4.444,0,0,1,1,3.1v.922H-7.758A2.1,2.1,0,0,0-7.1-2.164a2,2,0,0,0,1.395.5,2.437,2.437,0,0,0,2.039-.945l1.109,1.242A3.389,3.389,0,0,1-3.93-.246,4.511,4.511,0,0,1-5.852.156Zm-.258-6.945a1.411,1.411,0,0,0-1.09.455,2.357,2.357,0,0,0-.535,1.3h3.141v-.181A1.681,1.681,0,0,0-5-6.377,1.456,1.456,0,0,0-6.109-6.789Zm9.766.453A6.134,6.134,0,0,0,2.844-6.4a1.654,1.654,0,0,0-1.68.867V0H-1.094V-8.453H1.039L1.1-7.445A2.092,2.092,0,0,1,2.984-8.609a2.366,2.366,0,0,1,.7.1ZM6.82-8.453l.07.977A2.951,2.951,0,0,1,9.32-8.609a2.453,2.453,0,0,1,2,.789,3.682,3.682,0,0,1,.672,2.359V0H9.734V-5.406a1.465,1.465,0,0,0-.312-1.043,1.4,1.4,0,0,0-1.039-.324,1.553,1.553,0,0,0-1.43.813V0H4.7V-8.453ZM18.6,0a2.507,2.507,0,0,1-.227-.758,2.732,2.732,0,0,1-2.133.914,3,3,0,0,1-2.059-.719,2.312,2.312,0,0,1-.816-1.812,2.389,2.389,0,0,1,1-2.062,4.915,4.915,0,0,1,2.879-.727h1.039v-.484a1.393,1.393,0,0,0-.3-.937,1.183,1.183,0,0,0-.949-.352,1.345,1.345,0,0,0-.895.273.929.929,0,0,0-.324.75H13.555a2.268,2.268,0,0,1,.453-1.359,3,3,0,0,1,1.281-.98,4.669,4.669,0,0,1,1.859-.355,3.689,3.689,0,0,1,2.48.785,2.747,2.747,0,0,1,.918,2.207v3.664a4.041,4.041,0,0,0,.336,1.82V0ZM16.734-1.57a1.945,1.945,0,0,0,.922-.223,1.462,1.462,0,0,0,.625-.6V-3.844h-.844q-1.7,0-1.8,1.172l-.008.133a.9.9,0,0,0,.3.7A1.153,1.153,0,0,0,16.734-1.57Zm10.125-.766a.727.727,0,0,0-.41-.652,4.659,4.659,0,0,0-1.316-.426q-3.016-.633-3.016-2.562a2.323,2.323,0,0,1,.934-1.879,3.766,3.766,0,0,1,2.441-.754,4.053,4.053,0,0,1,2.574.758,2.388,2.388,0,0,1,.965,1.969H26.773a1.092,1.092,0,0,0-.312-.8A1.322,1.322,0,0,0,25.484-7a1.351,1.351,0,0,0-.883.258.814.814,0,0,0-.312.656.7.7,0,0,0,.355.605,3.657,3.657,0,0,0,1.2.4,9.8,9.8,0,0,1,1.422.379A2.336,2.336,0,0,1,29.055-2.43a2.2,2.2,0,0,1-.992,1.871A4.28,4.28,0,0,1,25.5.156a4.47,4.47,0,0,1-1.887-.379A3.166,3.166,0,0,1,22.32-1.262a2.414,2.414,0,0,1-.469-1.426h2.141a1.179,1.179,0,0,0,.445.922,1.766,1.766,0,0,0,1.109.32,1.635,1.635,0,0,0,.98-.246A.766.766,0,0,0,26.859-2.336ZM-28.687,32.742h-4.93v4.031h5.727V38h-7.227V26.625h7.148v1.227h-5.648v3.664h4.93Zm7.359,3.016a1.064,1.064,0,0,0-.441-.91,4.249,4.249,0,0,0-1.539-.559,7.277,7.277,0,0,1-1.742-.562A2.479,2.479,0,0,1-26,32.945a1.869,1.869,0,0,1-.309-1.078,2.193,2.193,0,0,1,.879-1.758,3.432,3.432,0,0,1,2.246-.719,3.532,3.532,0,0,1,2.332.742,2.357,2.357,0,0,1,.895,1.9h-1.453a1.3,1.3,0,0,0-.5-1.023,1.888,1.888,0,0,0-1.27-.43,1.976,1.976,0,0,0-1.234.344,1.082,1.082,0,0,0-.445.9.877.877,0,0,0,.414.789,5.1,5.1,0,0,0,1.5.508A7.8,7.8,0,0,1-21.2,33.7a2.558,2.558,0,0,1,1,.809,1.988,1.988,0,0,1,.324,1.152,2.163,2.163,0,0,1-.906,1.816,3.8,3.8,0,0,1-2.352.684,4.257,4.257,0,0,1-1.8-.359,2.922,2.922,0,0,1-1.223-1A2.42,2.42,0,0,1-26.6,35.4h1.445a1.5,1.5,0,0,0,.582,1.152,2.258,2.258,0,0,0,1.434.426,2.331,2.331,0,0,0,1.316-.332A1.02,1.02,0,0,0-21.328,35.758ZM-6.9,33.867a5.062,5.062,0,0,1-.883,3.109,2.829,2.829,0,0,1-2.391,1.18,3.1,3.1,0,0,1-2.422-.977v4.07h-1.445v-11.7h1.32l.07.938A2.977,2.977,0,0,1-10.2,29.391a2.882,2.882,0,0,1,2.41,1.148,5.117,5.117,0,0,1,.887,3.2ZM-8.344,33.7a3.735,3.735,0,0,0-.609-2.258,1.963,1.963,0,0,0-1.672-.828,2.125,2.125,0,0,0-1.969,1.164V35.82a2.129,2.129,0,0,0,1.984,1.156,1.954,1.954,0,0,0,1.652-.824A4.077,4.077,0,0,0-8.344,33.7Zm2.9-.008a4.993,4.993,0,0,1,.488-2.234A3.643,3.643,0,0,1-3.6,29.93a3.7,3.7,0,0,1,1.988-.539,3.565,3.565,0,0,1,2.793,1.2,4.6,4.6,0,0,1,1.066,3.18v.1a5.036,5.036,0,0,1-.473,2.215A3.589,3.589,0,0,1,.426,37.609a3.743,3.743,0,0,1-2.02.547,3.556,3.556,0,0,1-2.785-1.2A4.575,4.575,0,0,1-5.445,33.8Zm1.453.172a3.616,3.616,0,0,0,.652,2.258,2.088,2.088,0,0,0,1.746.852,2.075,2.075,0,0,0,1.75-.863A3.955,3.955,0,0,0,.8,33.7a3.61,3.61,0,0,0-.66-2.254,2.1,2.1,0,0,0-1.754-.863,2.075,2.075,0,0,0-1.727.852A3.925,3.925,0,0,0-3.992,33.867ZM8.984,35.758a1.064,1.064,0,0,0-.441-.91A4.249,4.249,0,0,0,7,34.289a7.277,7.277,0,0,1-1.742-.562,2.479,2.479,0,0,1-.953-.781A1.869,1.869,0,0,1,4,31.867a2.193,2.193,0,0,1,.879-1.758,3.432,3.432,0,0,1,2.246-.719,3.532,3.532,0,0,1,2.332.742,2.357,2.357,0,0,1,.895,1.9H8.9a1.3,1.3,0,0,0-.5-1.023,1.888,1.888,0,0,0-1.27-.43,1.976,1.976,0,0,0-1.234.344,1.082,1.082,0,0,0-.445.9.877.877,0,0,0,.414.789,5.1,5.1,0,0,0,1.5.508,7.8,7.8,0,0,1,1.754.578,2.558,2.558,0,0,1,1,.809,1.988,1.988,0,0,1,.324,1.152,2.163,2.163,0,0,1-.906,1.816,3.8,3.8,0,0,1-2.352.684,4.257,4.257,0,0,1-1.8-.359,2.922,2.922,0,0,1-1.223-1A2.42,2.42,0,0,1,3.711,35.4H5.156a1.5,1.5,0,0,0,.582,1.152,2.258,2.258,0,0,0,1.434.426,2.331,2.331,0,0,0,1.316-.332A1.02,1.02,0,0,0,8.984,35.758ZM13.883,38H12.438V29.547h1.445ZM12.32,27.3a.863.863,0,0,1,.215-.594.807.807,0,0,1,.637-.242.819.819,0,0,1,.641.242.854.854,0,0,1,.219.594.826.826,0,0,1-.219.586.834.834,0,0,1-.641.234.821.821,0,0,1-.637-.234A.834.834,0,0,1,12.32,27.3Zm11.031,6.563a5.026,5.026,0,0,1-.891,3.113,2.846,2.846,0,0,1-2.391,1.176,2.947,2.947,0,0,1-2.477-1.133l-.07.977H16.2V26h1.445v4.477a2.93,2.93,0,0,1,2.414-1.086,2.863,2.863,0,0,1,2.418,1.164,5.177,5.177,0,0,1,.879,3.188ZM21.906,33.7a3.906,3.906,0,0,0-.57-2.281,1.888,1.888,0,0,0-1.641-.8,2.122,2.122,0,0,0-2.055,1.328V35.6a2.181,2.181,0,0,0,2.07,1.328,1.878,1.878,0,0,0,1.617-.8A4.153,4.153,0,0,0,21.906,33.7ZM26.742,38H25.3V26h1.445Zm5.82.156a3.693,3.693,0,0,1-2.8-1.129,4.19,4.19,0,0,1-1.078-3.02v-.266a5.073,5.073,0,0,1,.48-2.246,3.748,3.748,0,0,1,1.344-1.547,3.378,3.378,0,0,1,1.871-.559,3.166,3.166,0,0,1,2.563,1.086,4.7,4.7,0,0,1,.914,3.109v.6H30.133a3,3,0,0,0,.73,2.02,2.3,2.3,0,0,0,1.777.77,2.517,2.517,0,0,0,1.3-.312,3.258,3.258,0,0,0,.93-.828l.883.688A3.55,3.55,0,0,1,32.563,38.156Zm-.18-7.578a1.928,1.928,0,0,0-1.469.637A3.1,3.1,0,0,0,30.18,33h4.234v-.109a2.753,2.753,0,0,0-.594-1.707A1.815,1.815,0,0,0,32.383,30.578ZM-16.309,57a3.036,3.036,0,0,1-.2-.891,3.225,3.225,0,0,1-2.406,1.047,2.984,2.984,0,0,1-2.051-.707,2.287,2.287,0,0,1-.8-1.793,2.39,2.39,0,0,1,1-2.051,4.733,4.733,0,0,1,2.824-.73h1.406v-.664A1.623,1.623,0,0,0-16.988,50a1.821,1.821,0,0,0-1.336-.449,2.107,2.107,0,0,0-1.3.391,1.151,1.151,0,0,0-.523.945H-21.6a2,2,0,0,1,.449-1.223,3.066,3.066,0,0,1,1.219-.934,4.1,4.1,0,0,1,1.691-.344,3.342,3.342,0,0,1,2.289.73,2.635,2.635,0,0,1,.859,2.012v3.891a4.757,4.757,0,0,0,.3,1.852V57Zm-2.4-1.1a2.54,2.54,0,0,0,1.289-.352,2.127,2.127,0,0,0,.883-.914V52.9h-1.133q-2.656,0-2.656,1.555a1.316,1.316,0,0,0,.453,1.063A1.742,1.742,0,0,0-18.707,55.9Zm9.273.078a2.082,2.082,0,0,0,1.352-.469,1.649,1.649,0,0,0,.641-1.172h1.367a2.621,2.621,0,0,1-.5,1.383A3.293,3.293,0,0,1-7.8,56.766a3.55,3.55,0,0,1-1.629.391A3.482,3.482,0,0,1-12.18,56a4.59,4.59,0,0,1-1.02-3.152v-.242a5.089,5.089,0,0,1,.453-2.2,3.451,3.451,0,0,1,1.3-1.492,3.7,3.7,0,0,1,2-.531,3.39,3.39,0,0,1,2.363.852,3.043,3.043,0,0,1,1,2.211H-7.441a1.992,1.992,0,0,0-.621-1.348,1.932,1.932,0,0,0-1.379-.527,2.023,2.023,0,0,0-1.707.793,3.724,3.724,0,0,0-.605,2.293v.273a3.65,3.65,0,0,0,.6,2.25A2.033,2.033,0,0,0-9.434,55.977ZM-2.488,46.5v2.047H-.91v1.117H-2.488v5.249a1.173,1.173,0,0,0,.211.763.888.888,0,0,0,.719.254,3.5,3.5,0,0,0,.688-.094V57a4.215,4.215,0,0,1-1.109.155,1.8,1.8,0,0,1-1.461-.586,2.517,2.517,0,0,1-.492-1.664V49.664H-5.473V48.547h1.539V46.5ZM6,56.164a3.07,3.07,0,0,1-2.477.992,2.628,2.628,0,0,1-2.059-.785,3.4,3.4,0,0,1-.715-2.324v-5.5H2.191v5.461q0,1.922,1.563,1.922a2.163,2.163,0,0,0,2.2-1.234V48.547H7.4V57H6.027Zm8.82.836a3.036,3.036,0,0,1-.2-.891,3.225,3.225,0,0,1-2.406,1.047,2.984,2.984,0,0,1-2.051-.707,2.287,2.287,0,0,1-.8-1.793,2.39,2.39,0,0,1,1-2.051,4.733,4.733,0,0,1,2.824-.73H14.59v-.664A1.623,1.623,0,0,0,14.137,50a1.821,1.821,0,0,0-1.336-.449,2.107,2.107,0,0,0-1.3.391,1.151,1.151,0,0,0-.523.945H9.527a2,2,0,0,1,.449-1.223,3.066,3.066,0,0,1,1.219-.934,4.1,4.1,0,0,1,1.691-.344,3.342,3.342,0,0,1,2.289.73,2.635,2.635,0,0,1,.859,2.012v3.891a4.757,4.757,0,0,0,.3,1.852V57Zm-2.4-1.1a2.54,2.54,0,0,0,1.289-.352,2.127,2.127,0,0,0,.883-.914V52.9H13.457q-2.656,0-2.656,1.555a1.316,1.316,0,0,0,.453,1.063A1.742,1.742,0,0,0,12.418,55.9Zm9.969-6.055a4.331,4.331,0,0,0-.711-.055A1.9,1.9,0,0,0,19.746,51v6H18.3V48.547h1.406l.023.977a2.251,2.251,0,0,1,2.016-1.133,1.477,1.477,0,0,1,.641.109Zm-55,23.914a1.064,1.064,0,0,0-.441-.91,4.249,4.249,0,0,0-1.539-.559,7.277,7.277,0,0,1-1.742-.562,2.479,2.479,0,0,1-.953-.781,1.869,1.869,0,0,1-.309-1.078,2.193,2.193,0,0,1,.879-1.758,3.432,3.432,0,0,1,2.246-.719,3.532,3.532,0,0,1,2.332.742,2.357,2.357,0,0,1,.895,1.9H-32.7a1.3,1.3,0,0,0-.5-1.023,1.888,1.888,0,0,0-1.27-.43,1.976,1.976,0,0,0-1.234.344,1.082,1.082,0,0,0-.445.9.877.877,0,0,0,.414.789,5.1,5.1,0,0,0,1.5.508,7.8,7.8,0,0,1,1.754.578,2.558,2.558,0,0,1,1,.809,1.988,1.988,0,0,1,.324,1.152,2.163,2.163,0,0,1-.906,1.816,3.8,3.8,0,0,1-2.352.684,4.257,4.257,0,0,1-1.8-.359,2.922,2.922,0,0,1-1.223-1,2.42,2.42,0,0,1-.441-1.395h1.445a1.5,1.5,0,0,0,.582,1.152,2.258,2.258,0,0,0,1.434.426,2.331,2.331,0,0,0,1.316-.332A1.02,1.02,0,0,0-32.609,73.758Zm2.945-2.062a4.993,4.993,0,0,1,.488-2.234,3.643,3.643,0,0,1,1.359-1.531,3.7,3.7,0,0,1,1.988-.539,3.565,3.565,0,0,1,2.793,1.2,4.6,4.6,0,0,1,1.066,3.18v.1a5.036,5.036,0,0,1-.473,2.215,3.589,3.589,0,0,1-1.352,1.527,3.743,3.743,0,0,1-2.02.547,3.556,3.556,0,0,1-2.785-1.2A4.575,4.575,0,0,1-29.664,71.8Zm1.453.172a3.616,3.616,0,0,0,.652,2.258,2.088,2.088,0,0,0,1.746.852,2.075,2.075,0,0,0,1.75-.863,3.955,3.955,0,0,0,.648-2.418,3.61,3.61,0,0,0-.66-2.254,2.1,2.1,0,0,0-1.754-.863,2.075,2.075,0,0,0-1.727.852A3.925,3.925,0,0,0-28.211,71.867Zm15.211,0a5.026,5.026,0,0,1-.891,3.113,2.846,2.846,0,0,1-2.391,1.176,2.947,2.947,0,0,1-2.477-1.133l-.07.977h-1.328V64h1.445v4.477A2.93,2.93,0,0,1-16.3,67.391a2.863,2.863,0,0,1,2.418,1.164A5.177,5.177,0,0,1-13,71.742Zm-1.445-.164a3.906,3.906,0,0,0-.57-2.281,1.888,1.888,0,0,0-1.641-.8,2.122,2.122,0,0,0-2.055,1.328V73.6a2.181,2.181,0,0,0,2.07,1.328,1.878,1.878,0,0,0,1.617-.8A4.153,4.153,0,0,0-14.445,71.7Zm7.352-2.859a4.331,4.331,0,0,0-.711-.055A1.9,1.9,0,0,0-9.734,70v6H-11.18V67.547h1.406l.023.977a2.251,2.251,0,0,1,2.016-1.133,1.477,1.477,0,0,1,.641.109Zm4.688,7.313a3.693,3.693,0,0,1-2.8-1.129,4.19,4.19,0,0,1-1.078-3.02v-.266A5.073,5.073,0,0,1-5.8,69.5a3.748,3.748,0,0,1,1.344-1.547,3.378,3.378,0,0,1,1.871-.559A3.166,3.166,0,0,1-.023,68.477a4.7,4.7,0,0,1,.914,3.109v.6H-4.836a3,3,0,0,0,.73,2.02,2.3,2.3,0,0,0,1.777.77,2.517,2.517,0,0,0,1.3-.312,3.259,3.259,0,0,0,.93-.828l.883.688A3.55,3.55,0,0,1-2.406,76.156Zm-.18-7.578a1.928,1.928,0,0,0-1.469.637A3.1,3.1,0,0,0-4.789,71H-.555v-.109a2.753,2.753,0,0,0-.594-1.707A1.815,1.815,0,0,0-2.586,68.578Zm12.617,7.578a3.693,3.693,0,0,1-2.8-1.129,4.19,4.19,0,0,1-1.078-3.02v-.266a5.073,5.073,0,0,1,.48-2.246A3.748,3.748,0,0,1,7.98,67.949a3.378,3.378,0,0,1,1.871-.559,3.166,3.166,0,0,1,2.563,1.086,4.7,4.7,0,0,1,.914,3.109v.6H7.6a3,3,0,0,0,.73,2.02,2.3,2.3,0,0,0,1.777.77,2.517,2.517,0,0,0,1.3-.312,3.259,3.259,0,0,0,.93-.828l.883.688A3.55,3.55,0,0,1,10.031,76.156Zm-.18-7.578a1.928,1.928,0,0,0-1.469.637A3.1,3.1,0,0,0,7.648,71h4.234v-.109a2.753,2.753,0,0,0-.594-1.707A1.815,1.815,0,0,0,9.852,68.578ZM16.57,76H15.125V64H16.57Zm3.883,0H19.008V64h1.445Zm7.531,0a3.036,3.036,0,0,1-.2-.891,3.225,3.225,0,0,1-2.406,1.047,2.984,2.984,0,0,1-2.051-.707,2.287,2.287,0,0,1-.8-1.793,2.39,2.39,0,0,1,1-2.051,4.733,4.733,0,0,1,2.824-.73h1.406v-.664A1.623,1.623,0,0,0,27.3,69a1.821,1.821,0,0,0-1.336-.449,2.108,2.108,0,0,0-1.3.391,1.151,1.151,0,0,0-.523.945H22.7a2,2,0,0,1,.449-1.223,3.066,3.066,0,0,1,1.219-.934,4.1,4.1,0,0,1,1.691-.344,3.342,3.342,0,0,1,2.289.73,2.635,2.635,0,0,1,.859,2.012v3.891a4.757,4.757,0,0,0,.3,1.852V76Zm-2.4-1.1a2.54,2.54,0,0,0,1.289-.352,2.127,2.127,0,0,0,.883-.914V71.9H26.625q-2.656,0-2.656,1.555a1.316,1.316,0,0,0,.453,1.063A1.742,1.742,0,0,0,25.586,74.9Zm10.8-1.141a1.064,1.064,0,0,0-.441-.91,4.249,4.249,0,0,0-1.539-.559,7.277,7.277,0,0,1-1.742-.562,2.478,2.478,0,0,1-.953-.781,1.869,1.869,0,0,1-.309-1.078,2.193,2.193,0,0,1,.879-1.758,3.432,3.432,0,0,1,2.246-.719,3.532,3.532,0,0,1,2.332.742,2.357,2.357,0,0,1,.895,1.9H36.3a1.3,1.3,0,0,0-.5-1.023,1.888,1.888,0,0,0-1.27-.43,1.976,1.976,0,0,0-1.234.344,1.082,1.082,0,0,0-.445.9.877.877,0,0,0,.414.789,5.1,5.1,0,0,0,1.5.508,7.8,7.8,0,0,1,1.754.578,2.558,2.558,0,0,1,1,.809,1.988,1.988,0,0,1,.324,1.152,2.163,2.163,0,0,1-.906,1.816,3.8,3.8,0,0,1-2.352.684,4.257,4.257,0,0,1-1.8-.359,2.922,2.922,0,0,1-1.223-1,2.42,2.42,0,0,1-.441-1.395h1.445a1.5,1.5,0,0,0,.582,1.152,2.258,2.258,0,0,0,1.434.426,2.331,2.331,0,0,0,1.316-.332A1.02,1.02,0,0,0,36.391,73.758Z" transform="translate(-8380.436 -8214.202)" fill="#12263f"/>
    <path id="Trazado_873509" data-name="Trazado 873509" d="M14.3-18.408v4.576H7.072v2.548h5.2v4.342h-5.2V0H1.3V-18.408Z" transform="translate(-8525 -8329.702)" fill="#f9fbfc"/>
    <path id="Trazado_873510" data-name="Trazado 873510" d="M10.665.189A9.928,9.928,0,0,1,5.711-1.08,9.5,9.5,0,0,1,2.133-4.59,9.743,9.743,0,0,1,.81-9.639a9.743,9.743,0,0,1,1.323-5.049,9.4,9.4,0,0,1,3.578-3.5,10.011,10.011,0,0,1,4.954-1.255,9.936,9.936,0,0,1,4.941,1.255,9.327,9.327,0,0,1,3.55,3.5,9.821,9.821,0,0,1,1.309,5.049A9.821,9.821,0,0,1,19.156-4.59a9.4,9.4,0,0,1-3.564,3.51A9.875,9.875,0,0,1,10.665.189Zm0-5.589a3.41,3.41,0,0,0,2.754-1.148,4.627,4.627,0,0,0,.972-3.092,4.67,4.67,0,0,0-.972-3.118,3.41,3.41,0,0,0-2.754-1.148,3.443,3.443,0,0,0-2.781,1.148,4.67,4.67,0,0,0-.972,3.118,4.627,4.627,0,0,0,.972,3.092A3.443,3.443,0,0,0,10.665-5.4Z" transform="translate(-8528 -8146.733)" fill="#f9fbfc"/>
    <path id="Trazado_873511" data-name="Trazado 873511" d="M9.315-19.116A10.9,10.9,0,0,1,14.566-17.9a8.529,8.529,0,0,1,3.47,3.375,9.849,9.849,0,0,1,1.215,4.914A9.945,9.945,0,0,1,18.036-4.7a8.746,8.746,0,0,1-3.47,3.443A10.617,10.617,0,0,1,9.315,0H1.35V-19.116Zm-.54,13.77a4.526,4.526,0,0,0,3.213-1.107,4.106,4.106,0,0,0,1.188-3.159,4.106,4.106,0,0,0-1.188-3.159,4.526,4.526,0,0,0-3.213-1.107H7.344v8.532Z" transform="translate(-8527 -7963.072)" fill="#f9fbfc"/>
    <path id="Trazado_873512" data-name="Trazado 873512" d="M13.608-2.889H7.236L6.291,0H0L6.993-19.116h6.912L20.871,0H14.553ZM12.15-7.4l-1.728-5.319L8.694-7.4Z" transform="translate(-8528 -7784.124)" fill="#f9fbfc"/>
    <path id="Trazado_873505" data-name="Trazado 873505" d="M7.859-4.648h-4.5V0H1.016V-11.375H8.422v1.9H3.359v2.938h4.5ZM9.117-4.3A5.013,5.013,0,0,1,9.6-6.547,3.546,3.546,0,0,1,11-8.07a4.069,4.069,0,0,1,2.113-.539A3.849,3.849,0,0,1,15.9-7.562a4.2,4.2,0,0,1,1.207,2.844l.016.578A4.418,4.418,0,0,1,16.039-1.02,3.775,3.775,0,0,1,13.125.156a3.793,3.793,0,0,1-2.918-1.172A4.5,4.5,0,0,1,9.117-4.2Zm2.258.16A3.16,3.16,0,0,0,11.828-2.3a1.5,1.5,0,0,0,1.3.638,1.5,1.5,0,0,0,1.281-.63,3.457,3.457,0,0,0,.461-2.015,3.128,3.128,0,0,0-.461-1.831,1.5,1.5,0,0,0-1.3-.649,1.474,1.474,0,0,0-1.281.646A3.516,3.516,0,0,0,11.375-4.144ZM23.266-6.336a6.134,6.134,0,0,0-.812-.062,1.654,1.654,0,0,0-1.68.867V0H18.516V-8.453h2.133l.063,1.008a2.092,2.092,0,0,1,1.883-1.164,2.366,2.366,0,0,1,.7.1Zm4.18-4.2v2.078h1.445V-6.8H27.445v4.219a1.007,1.007,0,0,0,.18.672.9.9,0,0,0,.688.2,3.6,3.6,0,0,0,.664-.055V-.047a4.648,4.648,0,0,1-1.367.2,2.156,2.156,0,0,1-2.422-2.4V-6.8H23.953V-8.453h1.234v-2.078ZM35.047,0a2.507,2.507,0,0,1-.227-.758,2.732,2.732,0,0,1-2.133.914,3,3,0,0,1-2.059-.719,2.312,2.312,0,0,1-.816-1.812,2.389,2.389,0,0,1,1-2.062,4.915,4.915,0,0,1,2.879-.727h1.039v-.484a1.393,1.393,0,0,0-.3-.937,1.183,1.183,0,0,0-.949-.352,1.345,1.345,0,0,0-.895.273.929.929,0,0,0-.324.75H30a2.268,2.268,0,0,1,.453-1.359,3,3,0,0,1,1.281-.98,4.669,4.669,0,0,1,1.859-.355,3.689,3.689,0,0,1,2.48.785,2.747,2.747,0,0,1,.918,2.207v3.664a4.041,4.041,0,0,0,.336,1.82V0ZM33.18-1.57a1.945,1.945,0,0,0,.922-.223,1.462,1.462,0,0,0,.625-.6V-3.844h-.844q-1.7,0-1.8,1.172l-.008.133a.9.9,0,0,0,.3.7A1.153,1.153,0,0,0,33.18-1.57ZM41.109,0H38.844V-12h2.266Zm5.75.156A4.15,4.15,0,0,1,43.832-.984a4.054,4.054,0,0,1-1.168-3.039v-.219a5.106,5.106,0,0,1,.492-2.277,3.612,3.612,0,0,1,1.395-1.547,3.914,3.914,0,0,1,2.059-.543,3.508,3.508,0,0,1,2.73,1.094,4.444,4.444,0,0,1,1,3.1v.922H44.953a2.1,2.1,0,0,0,.66,1.328,2,2,0,0,0,1.395.5,2.437,2.437,0,0,0,2.039-.945l1.109,1.242A3.389,3.389,0,0,1,48.781-.246,4.511,4.511,0,0,1,46.859.156ZM46.6-6.789a1.411,1.411,0,0,0-1.09.455,2.357,2.357,0,0,0-.535,1.3h3.141v-.181a1.681,1.681,0,0,0-.406-1.165A1.456,1.456,0,0,0,46.6-6.789ZM54.211-1.82h4.133V0H51.328V-1.375L55.3-6.633H51.445v-1.82h6.773v1.33ZM64.656,0a2.507,2.507,0,0,1-.227-.758A2.732,2.732,0,0,1,62.3.156a3,3,0,0,1-2.059-.719,2.312,2.312,0,0,1-.816-1.812,2.389,2.389,0,0,1,1-2.062A4.915,4.915,0,0,1,63.3-5.164h1.039v-.484a1.393,1.393,0,0,0-.3-.937,1.183,1.183,0,0,0-.949-.352,1.345,1.345,0,0,0-.895.273.929.929,0,0,0-.324.75H59.609a2.268,2.268,0,0,1,.453-1.359,3,3,0,0,1,1.281-.98A4.669,4.669,0,0,1,63.2-8.609a3.689,3.689,0,0,1,2.48.785A2.747,2.747,0,0,1,66.6-5.617v3.664a4.041,4.041,0,0,0,.336,1.82V0ZM62.789-1.57a1.945,1.945,0,0,0,.922-.223,1.462,1.462,0,0,0,.625-.6V-3.844h-.844q-1.7,0-1.8,1.172l-.008.133a.9.9,0,0,0,.3.7A1.153,1.153,0,0,0,62.789-1.57Zm10.125-.766a.727.727,0,0,0-.41-.652,4.659,4.659,0,0,0-1.316-.426q-3.016-.633-3.016-2.562a2.323,2.323,0,0,1,.934-1.879,3.766,3.766,0,0,1,2.441-.754,4.053,4.053,0,0,1,2.574.758,2.388,2.388,0,0,1,.965,1.969H72.828a1.092,1.092,0,0,0-.312-.8A1.322,1.322,0,0,0,71.539-7a1.351,1.351,0,0,0-.883.258.814.814,0,0,0-.312.656.7.7,0,0,0,.355.605,3.657,3.657,0,0,0,1.2.4A9.8,9.8,0,0,1,73.32-4.7,2.336,2.336,0,0,1,75.109-2.43a2.2,2.2,0,0,1-.992,1.871,4.28,4.28,0,0,1-2.562.715,4.47,4.47,0,0,1-1.887-.379,3.166,3.166,0,0,1-1.293-1.039,2.414,2.414,0,0,1-.469-1.426h2.141a1.179,1.179,0,0,0,.445.922,1.766,1.766,0,0,0,1.109.32,1.635,1.635,0,0,0,.98-.246A.766.766,0,0,0,72.914-2.336Z" transform="translate(-8676 -8340)" fill="#12263f"/>
    <path id="Trazado_873506" data-name="Trazado 873506" d="M10.359-5.43a6.867,6.867,0,0,1-.594,2.945,4.472,4.472,0,0,1-1.7,1.953A4.7,4.7,0,0,1,5.531.156a4.732,4.732,0,0,1-2.523-.68A4.515,4.515,0,0,1,1.289-2.465a6.67,6.67,0,0,1-.617-2.9V-5.93a6.831,6.831,0,0,1,.605-2.957,4.508,4.508,0,0,1,1.711-1.961,4.706,4.706,0,0,1,2.527-.684,4.706,4.706,0,0,1,2.527.684A4.508,4.508,0,0,1,9.754-8.887a6.811,6.811,0,0,1,.605,2.949ZM7.984-5.945a4.787,4.787,0,0,0-.641-2.719,2.088,2.088,0,0,0-1.828-.93,2.088,2.088,0,0,0-1.82.918,4.732,4.732,0,0,0-.648,2.691v.555a4.847,4.847,0,0,0,.641,2.7,2.082,2.082,0,0,0,1.844.961,2.064,2.064,0,0,0,1.813-.926,4.819,4.819,0,0,0,.641-2.7Zm11.539,1.8a5.07,5.07,0,0,1-.887,3.129A2.843,2.843,0,0,1,16.242.156a2.633,2.633,0,0,1-2.07-.891V3.25H11.914v-11.7h2.094l.078.828a2.654,2.654,0,0,1,2.141-.984,2.862,2.862,0,0,1,2.43,1.156,5.207,5.207,0,0,1,.867,3.188Zm-2.258-.164a3.327,3.327,0,0,0-.418-1.82,1.361,1.361,0,0,0-1.215-.641,1.478,1.478,0,0,0-1.461.813V-2.5a1.5,1.5,0,0,0,1.477.836Q17.266-1.664,17.266-4.312Zm3.3.008a5.013,5.013,0,0,1,.484-2.242A3.546,3.546,0,0,1,22.449-8.07a4.069,4.069,0,0,1,2.113-.539,3.849,3.849,0,0,1,2.793,1.047,4.2,4.2,0,0,1,1.207,2.844l.016.578A4.418,4.418,0,0,1,27.492-1.02,3.775,3.775,0,0,1,24.578.156,3.793,3.793,0,0,1,21.66-1.016,4.5,4.5,0,0,1,20.57-4.2Zm2.258.16A3.16,3.16,0,0,0,23.281-2.3a1.5,1.5,0,0,0,1.3.638,1.5,1.5,0,0,0,1.281-.63,3.457,3.457,0,0,0,.461-2.015,3.128,3.128,0,0,0-.461-1.831,1.5,1.5,0,0,0-1.3-.649,1.474,1.474,0,0,0-1.281.646A3.516,3.516,0,0,0,22.828-4.144ZM34.719-6.336a6.134,6.134,0,0,0-.812-.062,1.654,1.654,0,0,0-1.68.867V0H29.969V-8.453H32.1l.063,1.008a2.092,2.092,0,0,1,1.883-1.164,2.366,2.366,0,0,1,.7.1Zm4.18-4.2v2.078h1.445V-6.8H38.9v4.219a1.007,1.007,0,0,0,.18.672.9.9,0,0,0,.688.2,3.6,3.6,0,0,0,.664-.055V-.047a4.648,4.648,0,0,1-1.367.2,2.156,2.156,0,0,1-2.422-2.4V-6.8H35.406V-8.453h1.234v-2.078ZM46.664-.859A2.831,2.831,0,0,1,44.352.156a2.67,2.67,0,0,1-2.074-.781,3.335,3.335,0,0,1-.73-2.289V-8.453H43.8v5.467q0,1.322,1.2,1.322a1.63,1.63,0,0,0,1.578-.8V-8.453h2.266V0H46.727Zm5.969-7.594.07.977a2.951,2.951,0,0,1,2.43-1.133,2.453,2.453,0,0,1,2,.789A3.682,3.682,0,0,1,57.8-5.461V0H55.547V-5.406a1.465,1.465,0,0,0-.312-1.043A1.4,1.4,0,0,0,54.2-6.773a1.553,1.553,0,0,0-1.43.813V0H50.508V-8.453ZM61.9,0H59.633V-8.453H61.9ZM59.5-10.641a1.112,1.112,0,0,1,.34-.836,1.277,1.277,0,0,1,.926-.328,1.28,1.28,0,0,1,.922.328,1.105,1.105,0,0,1,.344.836,1.108,1.108,0,0,1-.348.844,1.283,1.283,0,0,1-.918.328,1.283,1.283,0,0,1-.918-.328A1.108,1.108,0,0,1,59.5-10.641Zm3.906,6.352a5.094,5.094,0,0,1,.887-3.148,2.877,2.877,0,0,1,2.426-1.172,2.589,2.589,0,0,1,2.039.922V-12h2.266V0H68.984l-.109-.9A2.657,2.657,0,0,1,66.7.156,2.869,2.869,0,0,1,64.309-1.02,5.258,5.258,0,0,1,63.406-4.289Zm2.258.168A3.337,3.337,0,0,0,66.078-2.3a1.349,1.349,0,0,0,1.2.634,1.511,1.511,0,0,0,1.477-.884V-5.889A1.489,1.489,0,0,0,67.3-6.773Q65.664-6.773,65.664-4.121ZM77.672,0a2.507,2.507,0,0,1-.227-.758,2.732,2.732,0,0,1-2.133.914,3,3,0,0,1-2.059-.719,2.312,2.312,0,0,1-.816-1.812,2.389,2.389,0,0,1,1-2.062,4.915,4.915,0,0,1,2.879-.727h1.039v-.484a1.393,1.393,0,0,0-.3-.937,1.183,1.183,0,0,0-.949-.352,1.345,1.345,0,0,0-.895.273.929.929,0,0,0-.324.75H72.625a2.268,2.268,0,0,1,.453-1.359,3,3,0,0,1,1.281-.98,4.669,4.669,0,0,1,1.859-.355,3.689,3.689,0,0,1,2.48.785,2.747,2.747,0,0,1,.918,2.207v3.664a4.041,4.041,0,0,0,.336,1.82V0ZM75.8-1.57a1.945,1.945,0,0,0,.922-.223,1.462,1.462,0,0,0,.625-.6V-3.844h-.844q-1.7,0-1.8,1.172l-.008.133a.9.9,0,0,0,.3.7A1.153,1.153,0,0,0,75.8-1.57ZM81-4.289a5.094,5.094,0,0,1,.887-3.148,2.877,2.877,0,0,1,2.426-1.172,2.589,2.589,0,0,1,2.039.922V-12h2.266V0H86.578l-.109-.9A2.657,2.657,0,0,1,84.3.156,2.869,2.869,0,0,1,81.9-1.02,5.258,5.258,0,0,1,81-4.289Zm2.258.168A3.337,3.337,0,0,0,83.672-2.3a1.349,1.349,0,0,0,1.2.634,1.511,1.511,0,0,0,1.477-.884V-5.889a1.489,1.489,0,0,0-1.461-.884Q83.258-6.773,83.258-4.121Zm11,4.277A4.15,4.15,0,0,1,91.23-.984a4.054,4.054,0,0,1-1.168-3.039v-.219a5.106,5.106,0,0,1,.492-2.277,3.612,3.612,0,0,1,1.395-1.547,3.914,3.914,0,0,1,2.059-.543,3.508,3.508,0,0,1,2.73,1.094,4.444,4.444,0,0,1,1,3.1v.922H92.352a2.1,2.1,0,0,0,.66,1.328,2,2,0,0,0,1.395.5,2.437,2.437,0,0,0,2.039-.945l1.109,1.242A3.389,3.389,0,0,1,96.18-.246,4.511,4.511,0,0,1,94.258.156ZM94-6.789a1.411,1.411,0,0,0-1.09.455,2.357,2.357,0,0,0-.535,1.3h3.141v-.181a1.681,1.681,0,0,0-.406-1.165A1.456,1.456,0,0,0,94-6.789Zm9.594,4.453a.727.727,0,0,0-.41-.652,4.659,4.659,0,0,0-1.316-.426q-3.016-.633-3.016-2.562a2.323,2.323,0,0,1,.934-1.879,3.766,3.766,0,0,1,2.441-.754,4.053,4.053,0,0,1,2.574.758,2.388,2.388,0,0,1,.965,1.969h-2.258a1.092,1.092,0,0,0-.312-.8A1.322,1.322,0,0,0,102.219-7a1.351,1.351,0,0,0-.883.258.814.814,0,0,0-.312.656.7.7,0,0,0,.355.605,3.657,3.657,0,0,0,1.2.4A9.8,9.8,0,0,1,104-4.7a2.336,2.336,0,0,1,1.789,2.273A2.2,2.2,0,0,1,104.8-.559a4.28,4.28,0,0,1-2.562.715,4.47,4.47,0,0,1-1.887-.379,3.166,3.166,0,0,1-1.293-1.039,2.414,2.414,0,0,1-.469-1.426h2.141a1.179,1.179,0,0,0,.445.922,1.766,1.766,0,0,0,1.109.32,1.635,1.635,0,0,0,.98-.246A.766.766,0,0,0,103.594-2.336Z" transform="translate(-8691 -8156)" fill="#12263f"/>
    <path id="Trazado_873507" data-name="Trazado 873507" d="M1.016,0V-11.375h3.5A5.315,5.315,0,0,1,7.2-10.7,4.712,4.712,0,0,1,9.047-8.777a5.928,5.928,0,0,1,.664,2.832v.523A5.945,5.945,0,0,1,9.059-2.6,4.672,4.672,0,0,1,7.219-.687,5.355,5.355,0,0,1,4.539,0ZM3.359-9.477v7.594H4.492a2.545,2.545,0,0,0,2.1-.9,4.06,4.06,0,0,0,.742-2.57v-.6a4.124,4.124,0,0,0-.719-2.629,2.537,2.537,0,0,0-2.1-.895ZM15.156.156A4.15,4.15,0,0,1,12.129-.984a4.054,4.054,0,0,1-1.168-3.039v-.219a5.106,5.106,0,0,1,.492-2.277,3.612,3.612,0,0,1,1.395-1.547,3.914,3.914,0,0,1,2.059-.543,3.508,3.508,0,0,1,2.73,1.094,4.444,4.444,0,0,1,1,3.1v.922H13.25a2.1,2.1,0,0,0,.66,1.328,2,2,0,0,0,1.395.5,2.437,2.437,0,0,0,2.039-.945l1.109,1.242A3.389,3.389,0,0,1,17.078-.246,4.511,4.511,0,0,1,15.156.156ZM14.9-6.789a1.411,1.411,0,0,0-1.09.455,2.357,2.357,0,0,0-.535,1.3h3.141v-.181a1.681,1.681,0,0,0-.406-1.165A1.456,1.456,0,0,0,14.9-6.789ZM27.531-4.148A5.119,5.119,0,0,1,26.664-.98,2.872,2.872,0,0,1,24.242.156,2.639,2.639,0,0,1,22.047-.9l-.1.9H19.914V-12h2.258v4.3a2.571,2.571,0,0,1,2.055-.914,2.9,2.9,0,0,1,2.426,1.137,5.126,5.126,0,0,1,.879,3.2Zm-2.258-.164a3.363,3.363,0,0,0-.406-1.871,1.374,1.374,0,0,0-1.211-.59,1.489,1.489,0,0,0-1.484.883v3.336a1.509,1.509,0,0,0,1.5.891,1.394,1.394,0,0,0,1.438-1.078A5.562,5.562,0,0,0,25.273-4.312ZM31.3,0H29.039V-8.453H31.3Zm-2.4-10.641a1.112,1.112,0,0,1,.34-.836,1.277,1.277,0,0,1,.926-.328,1.28,1.28,0,0,1,.922.328,1.105,1.105,0,0,1,.344.836,1.108,1.108,0,0,1-.348.844,1.283,1.283,0,0,1-.918.328,1.283,1.283,0,0,1-.918-.328A1.108,1.108,0,0,1,28.906-10.641ZM35.547,0H33.281V-12h2.266Zm4.242,0H37.523V-8.453h2.266Zm-2.4-10.641a1.112,1.112,0,0,1,.34-.836,1.277,1.277,0,0,1,.926-.328,1.28,1.28,0,0,1,.922.328,1.105,1.105,0,0,1,.344.836,1.108,1.108,0,0,1-.348.844,1.283,1.283,0,0,1-.918.328,1.283,1.283,0,0,1-.918-.328A1.108,1.108,0,0,1,37.391-10.641ZM41.3-4.289a5.094,5.094,0,0,1,.887-3.148,2.877,2.877,0,0,1,2.426-1.172,2.589,2.589,0,0,1,2.039.922V-12h2.266V0H46.875l-.109-.9A2.657,2.657,0,0,1,44.594.156,2.869,2.869,0,0,1,42.2-1.02,5.258,5.258,0,0,1,41.3-4.289Zm2.258.168A3.337,3.337,0,0,0,43.969-2.3a1.349,1.349,0,0,0,1.2.634,1.511,1.511,0,0,0,1.477-.884V-5.889a1.489,1.489,0,0,0-1.461-.884Q43.555-6.773,43.555-4.121ZM55.563,0a2.507,2.507,0,0,1-.227-.758A2.732,2.732,0,0,1,53.2.156a3,3,0,0,1-2.059-.719,2.312,2.312,0,0,1-.816-1.812,2.389,2.389,0,0,1,1-2.062A4.915,4.915,0,0,1,54.2-5.164h1.039v-.484a1.393,1.393,0,0,0-.3-.937,1.183,1.183,0,0,0-.949-.352,1.345,1.345,0,0,0-.895.273.929.929,0,0,0-.324.75H50.516a2.268,2.268,0,0,1,.453-1.359,3,3,0,0,1,1.281-.98,4.669,4.669,0,0,1,1.859-.355,3.689,3.689,0,0,1,2.48.785,2.747,2.747,0,0,1,.918,2.207v3.664a4.041,4.041,0,0,0,.336,1.82V0ZM53.7-1.57a1.945,1.945,0,0,0,.922-.223,1.462,1.462,0,0,0,.625-.6V-3.844H54.4q-1.7,0-1.8,1.172l-.008.133a.9.9,0,0,0,.3.7A1.153,1.153,0,0,0,53.7-1.57Zm5.2-2.719a5.094,5.094,0,0,1,.887-3.148A2.877,2.877,0,0,1,62.2-8.609a2.589,2.589,0,0,1,2.039.922V-12h2.266V0H64.469l-.109-.9A2.657,2.657,0,0,1,62.188.156,2.869,2.869,0,0,1,59.793-1.02,5.258,5.258,0,0,1,58.891-4.289Zm2.258.168A3.337,3.337,0,0,0,61.563-2.3a1.349,1.349,0,0,0,1.2.634,1.511,1.511,0,0,0,1.477-.884V-5.889a1.489,1.489,0,0,0-1.461-.884Q61.148-6.773,61.148-4.121Zm11,4.277A4.15,4.15,0,0,1,69.121-.984a4.054,4.054,0,0,1-1.168-3.039v-.219a5.106,5.106,0,0,1,.492-2.277A3.612,3.612,0,0,1,69.84-8.066,3.914,3.914,0,0,1,71.9-8.609a3.508,3.508,0,0,1,2.73,1.094,4.444,4.444,0,0,1,1,3.1v.922H70.242a2.1,2.1,0,0,0,.66,1.328,2,2,0,0,0,1.395.5,2.437,2.437,0,0,0,2.039-.945l1.109,1.242A3.389,3.389,0,0,1,74.07-.246,4.511,4.511,0,0,1,72.148.156Zm-.258-6.945a1.411,1.411,0,0,0-1.09.455,2.357,2.357,0,0,0-.535,1.3h3.141v-.181A1.681,1.681,0,0,0,73-6.377,1.456,1.456,0,0,0,71.891-6.789Zm9.594,4.453a.727.727,0,0,0-.41-.652,4.659,4.659,0,0,0-1.316-.426q-3.016-.633-3.016-2.562a2.323,2.323,0,0,1,.934-1.879,3.766,3.766,0,0,1,2.441-.754,4.053,4.053,0,0,1,2.574.758,2.388,2.388,0,0,1,.965,1.969H81.4a1.092,1.092,0,0,0-.312-.8A1.322,1.322,0,0,0,80.109-7a1.351,1.351,0,0,0-.883.258.814.814,0,0,0-.312.656.7.7,0,0,0,.355.605,3.657,3.657,0,0,0,1.2.4,9.8,9.8,0,0,1,1.422.379A2.336,2.336,0,0,1,83.68-2.43a2.2,2.2,0,0,1-.992,1.871,4.28,4.28,0,0,1-2.562.715,4.47,4.47,0,0,1-1.887-.379,3.166,3.166,0,0,1-1.293-1.039,2.414,2.414,0,0,1-.469-1.426h2.141a1.179,1.179,0,0,0,.445.922,1.766,1.766,0,0,0,1.109.32,1.635,1.635,0,0,0,.98-.246A.766.766,0,0,0,81.484-2.336Z" transform="translate(-8680 -7972)" fill="#12263f"/>
    <path id="Trazado_873508" data-name="Trazado 873508" d="M7.438-2.344H3.328L2.547,0H.055L4.289-11.375H6.461L10.719,0H8.227Zm-3.477-1.9H6.8L5.375-8.5Zm9.414-4.211.07.945a2.971,2.971,0,0,1,2.43-1.1A2.255,2.255,0,0,1,18.117-7.32a2.9,2.9,0,0,1,2.539-1.289,2.521,2.521,0,0,1,2.047.8,3.681,3.681,0,0,1,.672,2.41V0H21.109V-5.391a1.61,1.61,0,0,0-.281-1.051,1.246,1.246,0,0,0-.992-.332A1.409,1.409,0,0,0,18.43-5.8L18.438,0H16.18V-5.383a1.59,1.59,0,0,0-.289-1.062,1.259,1.259,0,0,0-.984-.328,1.463,1.463,0,0,0-1.391.8V0H11.258V-8.453ZM29,.156A4.15,4.15,0,0,1,25.973-.984,4.054,4.054,0,0,1,24.8-4.023v-.219A5.106,5.106,0,0,1,25.3-6.52a3.612,3.612,0,0,1,1.395-1.547,3.914,3.914,0,0,1,2.059-.543,3.508,3.508,0,0,1,2.73,1.094,4.444,4.444,0,0,1,1,3.1v.922H27.094a2.1,2.1,0,0,0,.66,1.328,2,2,0,0,0,1.395.5,2.437,2.437,0,0,0,2.039-.945L32.3-1.367A3.389,3.389,0,0,1,30.922-.246,4.511,4.511,0,0,1,29,.156Zm-.258-6.945a1.411,1.411,0,0,0-1.09.455,2.357,2.357,0,0,0-.535,1.3h3.141v-.181a1.681,1.681,0,0,0-.406-1.165A1.456,1.456,0,0,0,28.742-6.789Zm7.094-1.664.07.977a2.951,2.951,0,0,1,2.43-1.133,2.453,2.453,0,0,1,2,.789,3.682,3.682,0,0,1,.672,2.359V0H38.75V-5.406a1.465,1.465,0,0,0-.312-1.043A1.4,1.4,0,0,0,37.4-6.773a1.553,1.553,0,0,0-1.43.813V0H33.711V-8.453ZM47.617,0a2.507,2.507,0,0,1-.227-.758,2.732,2.732,0,0,1-2.133.914A3,3,0,0,1,43.2-.562a2.312,2.312,0,0,1-.816-1.812,2.389,2.389,0,0,1,1-2.062,4.915,4.915,0,0,1,2.879-.727H47.3v-.484a1.393,1.393,0,0,0-.3-.937,1.183,1.183,0,0,0-.949-.352,1.345,1.345,0,0,0-.895.273.929.929,0,0,0-.324.75H42.57a2.268,2.268,0,0,1,.453-1.359,3,3,0,0,1,1.281-.98,4.669,4.669,0,0,1,1.859-.355,3.689,3.689,0,0,1,2.48.785,2.747,2.747,0,0,1,.918,2.207v3.664A4.041,4.041,0,0,0,49.9-.133V0ZM45.75-1.57a1.945,1.945,0,0,0,.922-.223,1.462,1.462,0,0,0,.625-.6V-3.844h-.844q-1.7,0-1.8,1.172l-.008.133a.9.9,0,0,0,.3.7A1.153,1.153,0,0,0,45.75-1.57Zm8.141-.25h4.133V0H51.008V-1.375l3.977-5.258H51.125v-1.82H57.9v1.33ZM64.336,0a2.507,2.507,0,0,1-.227-.758,2.732,2.732,0,0,1-2.133.914,3,3,0,0,1-2.059-.719A2.312,2.312,0,0,1,59.1-2.375a2.389,2.389,0,0,1,1-2.062,4.915,4.915,0,0,1,2.879-.727h1.039v-.484a1.393,1.393,0,0,0-.3-.937,1.183,1.183,0,0,0-.949-.352,1.345,1.345,0,0,0-.895.273.929.929,0,0,0-.324.75H59.289a2.268,2.268,0,0,1,.453-1.359,3,3,0,0,1,1.281-.98,4.669,4.669,0,0,1,1.859-.355,3.689,3.689,0,0,1,2.48.785,2.747,2.747,0,0,1,.918,2.207v3.664a4.041,4.041,0,0,0,.336,1.82V0ZM62.469-1.57a1.945,1.945,0,0,0,.922-.223,1.462,1.462,0,0,0,.625-.6V-3.844h-.844q-1.7,0-1.8,1.172l-.008.133a.9.9,0,0,0,.3.7A1.153,1.153,0,0,0,62.469-1.57Zm10.125-.766a.727.727,0,0,0-.41-.652,4.659,4.659,0,0,0-1.316-.426q-3.016-.633-3.016-2.562a2.323,2.323,0,0,1,.934-1.879,3.766,3.766,0,0,1,2.441-.754,4.053,4.053,0,0,1,2.574.758,2.388,2.388,0,0,1,.965,1.969H72.508a1.092,1.092,0,0,0-.312-.8A1.322,1.322,0,0,0,71.219-7a1.351,1.351,0,0,0-.883.258.814.814,0,0,0-.312.656.7.7,0,0,0,.355.605,3.657,3.657,0,0,0,1.2.4A9.8,9.8,0,0,1,73-4.7,2.336,2.336,0,0,1,74.789-2.43,2.2,2.2,0,0,1,73.8-.559a4.28,4.28,0,0,1-2.562.715,4.47,4.47,0,0,1-1.887-.379,3.166,3.166,0,0,1-1.293-1.039,2.414,2.414,0,0,1-.469-1.426h2.141a1.179,1.179,0,0,0,.445.922,1.766,1.766,0,0,0,1.109.32,1.635,1.635,0,0,0,.98-.246A.766.766,0,0,0,72.594-2.336Z" transform="translate(-8675 -7789)" fill="#12263f"/>
    <path id="Trazado_873514" data-name="Trazado 873514" d="M-24.491-4.93h-4.5v3.047h5.281V0h-7.625V-11.375h7.609v1.9h-5.266v2.711h4.5Zm5.5-1,1.422-2.523h2.414l-2.406,4.141L-15.055,0h-2.422l-1.508-2.656L-20.485,0h-2.43l2.508-4.312-2.4-4.141h2.422Zm7.9-4.6v2.078H-9.65V-6.8H-11.1v4.219a1.007,1.007,0,0,0,.18.672.9.9,0,0,0,.688.2,3.6,3.6,0,0,0,.664-.055V-.047a4.648,4.648,0,0,1-1.367.2,2.156,2.156,0,0,1-2.422-2.4V-6.8h-1.234V-8.453h1.234v-2.078ZM-4.23.156A4.15,4.15,0,0,1-7.257-.984,4.054,4.054,0,0,1-8.425-4.023v-.219A5.106,5.106,0,0,1-7.933-6.52,3.612,3.612,0,0,1-6.538-8.066,3.914,3.914,0,0,1-4.48-8.609a3.508,3.508,0,0,1,2.73,1.094,4.444,4.444,0,0,1,1,3.1v.922H-6.136a2.1,2.1,0,0,0,.66,1.328,2,2,0,0,0,1.395.5,2.437,2.437,0,0,0,2.039-.945L-.933-1.367A3.389,3.389,0,0,1-2.308-.246,4.511,4.511,0,0,1-4.23.156Zm-.258-6.945a1.411,1.411,0,0,0-1.09.455,2.357,2.357,0,0,0-.535,1.3h3.141v-.181a1.681,1.681,0,0,0-.406-1.165A1.456,1.456,0,0,0-4.488-6.789ZM5.55-6.336A6.134,6.134,0,0,0,4.738-6.4a1.654,1.654,0,0,0-1.68.867V0H.8V-8.453H2.933L3-7.445A2.092,2.092,0,0,1,4.878-8.609a2.366,2.366,0,0,1,.7.1ZM8.986-8.453l.07.977a2.951,2.951,0,0,1,2.43-1.133,2.453,2.453,0,0,1,2,.789,3.682,3.682,0,0,1,.672,2.359V0H11.9V-5.406a1.465,1.465,0,0,0-.312-1.043,1.4,1.4,0,0,0-1.039-.324,1.553,1.553,0,0,0-1.43.813V0H6.861V-8.453ZM21.039,0a2.507,2.507,0,0,1-.227-.758A2.732,2.732,0,0,1,18.68.156a3,3,0,0,1-2.059-.719,2.312,2.312,0,0,1-.816-1.812,2.389,2.389,0,0,1,1-2.062,4.915,4.915,0,0,1,2.879-.727h1.039v-.484a1.393,1.393,0,0,0-.3-.937,1.183,1.183,0,0,0-.949-.352,1.345,1.345,0,0,0-.895.273.929.929,0,0,0-.324.75H15.993a2.268,2.268,0,0,1,.453-1.359,3,3,0,0,1,1.281-.98,4.669,4.669,0,0,1,1.859-.355,3.689,3.689,0,0,1,2.48.785,2.747,2.747,0,0,1,.918,2.207v3.664a4.041,4.041,0,0,0,.336,1.82V0ZM19.172-1.57a1.945,1.945,0,0,0,.922-.223,1.462,1.462,0,0,0,.625-.6V-3.844h-.844q-1.7,0-1.8,1.172l-.008.133a.9.9,0,0,0,.3.7A1.153,1.153,0,0,0,19.172-1.57Zm10.4-.766a.727.727,0,0,0-.41-.652,4.659,4.659,0,0,0-1.316-.426q-3.016-.633-3.016-2.562a2.323,2.323,0,0,1,.934-1.879A3.766,3.766,0,0,1,28.2-8.609a4.053,4.053,0,0,1,2.574.758,2.388,2.388,0,0,1,.965,1.969H29.483a1.092,1.092,0,0,0-.312-.8A1.322,1.322,0,0,0,28.194-7a1.351,1.351,0,0,0-.883.258A.814.814,0,0,0,27-6.086a.7.7,0,0,0,.355.605,3.657,3.657,0,0,0,1.2.4,9.8,9.8,0,0,1,1.422.379A2.336,2.336,0,0,1,31.764-2.43a2.2,2.2,0,0,1-.992,1.871A4.28,4.28,0,0,1,28.21.156a4.47,4.47,0,0,1-1.887-.379A3.166,3.166,0,0,1,25.03-1.262a2.414,2.414,0,0,1-.469-1.426H26.7a1.179,1.179,0,0,0,.445.922,1.766,1.766,0,0,0,1.109.32,1.635,1.635,0,0,0,.98-.246A.766.766,0,0,0,29.569-2.336ZM-23.4,32.742h-4.93v4.031h5.727V38h-7.227V26.625h7.148v1.227h-5.648v3.664h4.93Zm7.631,3.016a1.064,1.064,0,0,0-.441-.91,4.249,4.249,0,0,0-1.539-.559,7.277,7.277,0,0,1-1.742-.562,2.479,2.479,0,0,1-.953-.781,1.869,1.869,0,0,1-.309-1.078,2.193,2.193,0,0,1,.879-1.758,3.432,3.432,0,0,1,2.246-.719,3.532,3.532,0,0,1,2.332.742,2.357,2.357,0,0,1,.895,1.9h-1.453a1.3,1.3,0,0,0-.5-1.023,1.888,1.888,0,0,0-1.27-.43,1.976,1.976,0,0,0-1.234.344,1.082,1.082,0,0,0-.445.9.877.877,0,0,0,.414.789,5.1,5.1,0,0,0,1.5.508,7.8,7.8,0,0,1,1.754.578,2.558,2.558,0,0,1,1,.809,1.988,1.988,0,0,1,.324,1.152,2.163,2.163,0,0,1-.906,1.816,3.8,3.8,0,0,1-2.352.684,4.257,4.257,0,0,1-1.8-.359,2.922,2.922,0,0,1-1.223-1,2.42,2.42,0,0,1-.441-1.395H-19.6a1.5,1.5,0,0,0,.582,1.152,2.258,2.258,0,0,0,1.434.426,2.331,2.331,0,0,0,1.316-.332A1.02,1.02,0,0,0-15.772,35.758ZM-8.291,33.7a4.952,4.952,0,0,1,.922-3.129,2.915,2.915,0,0,1,2.414-1.184A2.932,2.932,0,0,1-2.6,30.406V26h1.445V38H-2.486l-.07-.906A2.943,2.943,0,0,1-4.97,38.156a2.887,2.887,0,0,1-2.395-1.2,5.008,5.008,0,0,1-.926-3.141Zm1.445.164a3.749,3.749,0,0,0,.594,2.25,1.92,1.92,0,0,0,1.641.813A2.108,2.108,0,0,0-2.6,35.7V31.813a2.125,2.125,0,0,0-1.992-1.2,1.929,1.929,0,0,0-1.656.82A4.128,4.128,0,0,0-6.845,33.867ZM2.927,38H1.481V29.547H2.927ZM1.364,27.3a.863.863,0,0,1,.215-.594.807.807,0,0,1,.637-.242.819.819,0,0,1,.641.242.854.854,0,0,1,.219.594.826.826,0,0,1-.219.586.834.834,0,0,1-.641.234.821.821,0,0,1-.637-.234A.834.834,0,0,1,1.364,27.3ZM6.222,38V30.664H4.886V29.547H6.222V28.68a2.878,2.878,0,0,1,.727-2.1A2.745,2.745,0,0,1,9,25.836a3.816,3.816,0,0,1,.992.132l-.078,1.165a4.151,4.151,0,0,0-.781-.07,1.41,1.41,0,0,0-1.086.411,1.669,1.669,0,0,0-.383,1.18v.893h1.8v1.117h-1.8V38Zm6.686,0H11.455V29.547h1.453Zm.016-11.992h1.75L12.58,28.3l-1.164,0Zm6.03,10.969a2.082,2.082,0,0,0,1.352-.469,1.649,1.649,0,0,0,.641-1.172h1.367a2.621,2.621,0,0,1-.5,1.383,3.293,3.293,0,0,1-1.23,1.047,3.55,3.55,0,0,1-1.629.391A3.482,3.482,0,0,1,16.207,37a4.59,4.59,0,0,1-1.02-3.152v-.242a5.089,5.089,0,0,1,.453-2.2,3.451,3.451,0,0,1,1.3-1.492,3.7,3.7,0,0,1,2-.531,3.39,3.39,0,0,1,2.363.852,3.043,3.043,0,0,1,1,2.211H20.946a1.992,1.992,0,0,0-.621-1.348,1.932,1.932,0,0,0-1.379-.527,2.023,2.023,0,0,0-1.707.793,3.724,3.724,0,0,0-.605,2.293v.273a3.65,3.65,0,0,0,.6,2.25A2.033,2.033,0,0,0,18.953,36.977ZM25.78,38H24.335V29.547H25.78ZM24.218,27.3a.863.863,0,0,1,.215-.594.807.807,0,0,1,.637-.242.819.819,0,0,1,.641.242.854.854,0,0,1,.219.594.826.826,0,0,1-.219.586.834.834,0,0,1-.641.234.821.821,0,0,1-.637-.234A.834.834,0,0,1,24.218,27.3ZM29.935,38H28.49V26h1.445ZM-12.817,52.867a5.062,5.062,0,0,1-.883,3.109,2.829,2.829,0,0,1-2.391,1.18,3.1,3.1,0,0,1-2.422-.977v4.07h-1.445v-11.7h1.32l.07.938a2.977,2.977,0,0,1,2.453-1.094,2.882,2.882,0,0,1,2.41,1.148,5.117,5.117,0,0,1,.887,3.2Zm-1.445-.164a3.735,3.735,0,0,0-.609-2.258,1.963,1.963,0,0,0-1.672-.828,2.125,2.125,0,0,0-1.969,1.164V54.82a2.129,2.129,0,0,0,1.984,1.156,1.954,1.954,0,0,0,1.652-.824A4.077,4.077,0,0,0-14.263,52.7Zm3.17-.008a4.993,4.993,0,0,1,.488-2.234A3.643,3.643,0,0,1-9.245,48.93a3.7,3.7,0,0,1,1.988-.539,3.565,3.565,0,0,1,2.793,1.2A4.6,4.6,0,0,1-3.4,52.766v.1a5.036,5.036,0,0,1-.473,2.215,3.589,3.589,0,0,1-1.352,1.527,3.743,3.743,0,0,1-2.02.547,3.556,3.556,0,0,1-2.785-1.2A4.575,4.575,0,0,1-11.092,52.8Zm1.453.172a3.616,3.616,0,0,0,.652,2.258,2.088,2.088,0,0,0,1.746.852,2.075,2.075,0,0,0,1.75-.863A3.955,3.955,0,0,0-4.842,52.7a3.61,3.61,0,0,0-.66-2.254,2.1,2.1,0,0,0-1.754-.863,2.075,2.075,0,0,0-1.727.852A3.925,3.925,0,0,0-9.639,52.867Zm7.975-.164a4.952,4.952,0,0,1,.922-3.129,2.915,2.915,0,0,1,2.414-1.184,2.932,2.932,0,0,1,2.352,1.016V45H5.469V57H4.141l-.07-.906a2.943,2.943,0,0,1-2.414,1.063,2.887,2.887,0,0,1-2.395-1.2,5.008,5.008,0,0,1-.926-3.141Zm1.445.164a3.749,3.749,0,0,0,.594,2.25,1.92,1.92,0,0,0,1.641.813A2.108,2.108,0,0,0,4.023,54.7V50.813a2.125,2.125,0,0,0-1.992-1.2,1.929,1.929,0,0,0-1.656.82A4.128,4.128,0,0,0-.219,52.867Zm11.71,4.289a3.693,3.693,0,0,1-2.8-1.129,4.19,4.19,0,0,1-1.078-3.02v-.266A5.073,5.073,0,0,1,8.1,50.5,3.748,3.748,0,0,1,9.44,48.949a3.378,3.378,0,0,1,1.871-.559,3.166,3.166,0,0,1,2.563,1.086,4.7,4.7,0,0,1,.914,3.109v.6H9.061a3,3,0,0,0,.73,2.02,2.3,2.3,0,0,0,1.777.77,2.517,2.517,0,0,0,1.3-.312,3.258,3.258,0,0,0,.93-.828l.883.688A3.55,3.55,0,0,1,11.491,57.156Zm-.18-7.578a1.928,1.928,0,0,0-1.469.637A3.1,3.1,0,0,0,9.108,52h4.234v-.109a2.753,2.753,0,0,0-.594-1.707A1.815,1.815,0,0,0,11.311,49.578Zm9.506.266a4.331,4.331,0,0,0-.711-.055A1.9,1.9,0,0,0,18.177,51v6H16.732V48.547h1.406l.023.977a2.251,2.251,0,0,1,2.016-1.133,1.477,1.477,0,0,1,.641.109Zm-63.845,17.7.039.938a3.122,3.122,0,0,1,2.508-1.094,2.417,2.417,0,0,1,2.414,1.359,3.2,3.2,0,0,1,1.1-.984,3.242,3.242,0,0,1,1.6-.375q2.781,0,2.828,2.945V76h-1.445V70.422a1.941,1.941,0,0,0-.414-1.355,1.823,1.823,0,0,0-1.391-.449,1.916,1.916,0,0,0-1.336.48,1.949,1.949,0,0,0-.617,1.293V76H-39.2V70.461A1.613,1.613,0,0,0-41,68.617a1.934,1.934,0,0,0-1.945,1.211V76H-44.4V67.547ZM-30.475,71.7a4.993,4.993,0,0,1,.488-2.234,3.643,3.643,0,0,1,1.359-1.531,3.7,3.7,0,0,1,1.988-.539,3.565,3.565,0,0,1,2.793,1.2,4.6,4.6,0,0,1,1.066,3.18v.1a5.036,5.036,0,0,1-.473,2.215A3.589,3.589,0,0,1-24.6,75.609a3.743,3.743,0,0,1-2.02.547,3.556,3.556,0,0,1-2.785-1.2A4.575,4.575,0,0,1-30.475,71.8Zm1.453.172a3.616,3.616,0,0,0,.652,2.258,2.088,2.088,0,0,0,1.746.852,2.075,2.075,0,0,0,1.75-.863,3.955,3.955,0,0,0,.648-2.418,3.61,3.61,0,0,0-.66-2.254,2.1,2.1,0,0,0-1.754-.863,2.075,2.075,0,0,0-1.727.852A3.925,3.925,0,0,0-29.022,71.867Zm7.975-.164a4.952,4.952,0,0,1,.922-3.129,2.915,2.915,0,0,1,2.414-1.184,2.932,2.932,0,0,1,2.352,1.016V64h1.445V76h-1.328l-.07-.906a2.943,2.943,0,0,1-2.414,1.063,2.887,2.887,0,0,1-2.395-1.2,5.008,5.008,0,0,1-.926-3.141Zm1.445.164a3.749,3.749,0,0,0,.594,2.25,1.92,1.92,0,0,0,1.641.813A2.109,2.109,0,0,0-15.359,73.7V69.813a2.125,2.125,0,0,0-1.992-1.2,1.929,1.929,0,0,0-1.656.82A4.128,4.128,0,0,0-19.6,71.867ZM-9.829,76h-1.445V67.547h1.445Zm-1.562-10.7a.863.863,0,0,1,.215-.594.807.807,0,0,1,.637-.242.819.819,0,0,1,.641.242.854.854,0,0,1,.219.594.826.826,0,0,1-.219.586.834.834,0,0,1-.641.234.821.821,0,0,1-.637-.234A.834.834,0,0,1-11.392,65.3ZM-6.76,76V68.664H-8.1V67.547H-6.76v-.719a2.937,2.937,0,0,1,.809-2.2,3.136,3.136,0,0,1,2.285-.789,6.881,6.881,0,0,1,2.211.477L-1.7,65.531a5.008,5.008,0,0,0-1.859-.391,1.819,1.819,0,0,0-1.34.418,1.723,1.723,0,0,0-.41,1.254v.734h1.727v1.117H-5.307V76Zm6.023,0H-2.19V67.547H-.737Zm6.014-1.023a2.082,2.082,0,0,0,1.352-.469,1.649,1.649,0,0,0,.641-1.172H8.637a2.621,2.621,0,0,1-.5,1.383,3.293,3.293,0,0,1-1.23,1.047,3.55,3.55,0,0,1-1.629.391A3.482,3.482,0,0,1,2.531,75a4.59,4.59,0,0,1-1.02-3.152v-.242a5.089,5.089,0,0,1,.453-2.2,3.451,3.451,0,0,1,1.3-1.492,3.7,3.7,0,0,1,2-.531,3.39,3.39,0,0,1,2.363.852,3.043,3.043,0,0,1,1,2.211H7.27a1.992,1.992,0,0,0-.621-1.348,1.932,1.932,0,0,0-1.379-.527,2.023,2.023,0,0,0-1.707.793,3.724,3.724,0,0,0-.605,2.293v.273a3.65,3.65,0,0,0,.6,2.25A2.033,2.033,0,0,0,5.277,74.977ZM15.752,76a3.036,3.036,0,0,1-.2-.891,3.225,3.225,0,0,1-2.406,1.047,2.984,2.984,0,0,1-2.051-.707,2.287,2.287,0,0,1-.8-1.793,2.39,2.39,0,0,1,1-2.051,4.733,4.733,0,0,1,2.824-.73h1.406v-.664A1.623,1.623,0,0,0,15.073,69a1.821,1.821,0,0,0-1.336-.449,2.108,2.108,0,0,0-1.3.391,1.151,1.151,0,0,0-.523.945H10.463a2,2,0,0,1,.449-1.223,3.066,3.066,0,0,1,1.219-.934,4.1,4.1,0,0,1,1.691-.344,3.342,3.342,0,0,1,2.289.73,2.635,2.635,0,0,1,.859,2.012v3.891a4.757,4.757,0,0,0,.3,1.852V76Zm-2.4-1.1a2.54,2.54,0,0,0,1.289-.352,2.127,2.127,0,0,0,.883-.914V71.9H14.393q-2.656,0-2.656,1.555a1.316,1.316,0,0,0,.453,1.063A1.742,1.742,0,0,0,13.354,74.9Zm10.241-6.055a4.331,4.331,0,0,0-.711-.055A1.9,1.9,0,0,0,20.954,70v6H19.509V67.547h1.406l.023.977a2.251,2.251,0,0,1,2.016-1.133,1.477,1.477,0,0,1,.641.109ZM26.765,76H25.32V64h1.445Zm7.8,0a3.036,3.036,0,0,1-.2-.891,3.225,3.225,0,0,1-2.406,1.047,2.984,2.984,0,0,1-2.051-.707,2.287,2.287,0,0,1-.8-1.793,2.39,2.39,0,0,1,1-2.051,4.733,4.733,0,0,1,2.824-.73h1.406v-.664A1.623,1.623,0,0,0,33.889,69a1.821,1.821,0,0,0-1.336-.449,2.108,2.108,0,0,0-1.3.391,1.151,1.151,0,0,0-.523.945H29.279a2,2,0,0,1,.449-1.223,3.066,3.066,0,0,1,1.219-.934,4.1,4.1,0,0,1,1.691-.344,3.342,3.342,0,0,1,2.289.73,2.635,2.635,0,0,1,.859,2.012v3.891a4.757,4.757,0,0,0,.3,1.852V76Zm-2.4-1.1a2.54,2.54,0,0,0,1.289-.352,2.127,2.127,0,0,0,.883-.914V71.9H33.209q-2.656,0-2.656,1.555a1.316,1.316,0,0,0,.453,1.063A1.742,1.742,0,0,0,32.17,74.9Zm11.077-1.141a1.064,1.064,0,0,0-.441-.91,4.249,4.249,0,0,0-1.539-.559,7.277,7.277,0,0,1-1.742-.562,2.479,2.479,0,0,1-.953-.781,1.869,1.869,0,0,1-.309-1.078,2.193,2.193,0,0,1,.879-1.758,3.432,3.432,0,0,1,2.246-.719,3.532,3.532,0,0,1,2.332.742,2.357,2.357,0,0,1,.895,1.9H43.161a1.3,1.3,0,0,0-.5-1.023,1.888,1.888,0,0,0-1.27-.43,1.976,1.976,0,0,0-1.234.344,1.082,1.082,0,0,0-.445.9.877.877,0,0,0,.414.789,5.1,5.1,0,0,0,1.5.508,7.8,7.8,0,0,1,1.754.578,2.558,2.558,0,0,1,1,.809,1.988,1.988,0,0,1,.324,1.152,2.163,2.163,0,0,1-.906,1.816,3.8,3.8,0,0,1-2.352.684,4.257,4.257,0,0,1-1.8-.359,2.922,2.922,0,0,1-1.223-1,2.42,2.42,0,0,1-.441-1.395h1.445A1.5,1.5,0,0,0,40,74.551a2.258,2.258,0,0,0,1.434.426,2.331,2.331,0,0,0,1.316-.332A1.02,1.02,0,0,0,43.247,73.758Z" transform="translate(-8380.436 -7979.604)" fill="#12263f"/>
    <path id="Trazado_873504" data-name="Trazado 873504" d="M5.871-3.173l2.9-9.624h2.936L7.251,0H4.5L.062-12.8H2.988ZM17.851,0A2.821,2.821,0,0,1,17.6-.853,3.073,3.073,0,0,1,15.2.176,3.376,3.376,0,0,1,12.88-.633a2.6,2.6,0,0,1-.918-2.039,2.687,2.687,0,0,1,1.121-2.32,5.529,5.529,0,0,1,3.239-.817H17.49v-.545a1.567,1.567,0,0,0-.338-1.055,1.331,1.331,0,0,0-1.068-.4,1.513,1.513,0,0,0-1.006.308,1.045,1.045,0,0,0-.365.844h-2.54a2.551,2.551,0,0,1,.51-1.529,3.37,3.37,0,0,1,1.441-1.1,5.253,5.253,0,0,1,2.092-.4,4.15,4.15,0,0,1,2.791.883,3.09,3.09,0,0,1,1.033,2.483V-2.2a4.546,4.546,0,0,0,.378,2.048V0Zm-2.1-1.767a2.188,2.188,0,0,0,1.037-.25,1.645,1.645,0,0,0,.7-.672V-4.324h-.949q-1.907,0-2.03,1.318l-.009.149a1.017,1.017,0,0,0,.334.782A1.3,1.3,0,0,0,15.75-1.767ZM27.334-7.128a6.9,6.9,0,0,0-.914-.07,1.86,1.86,0,0,0-1.89.976V0H21.99V-9.51h2.4l.07,1.134a2.354,2.354,0,0,1,2.118-1.31,2.662,2.662,0,0,1,.791.114ZM31.236,0H28.688V-9.51h2.549Zm-2.7-11.971a1.251,1.251,0,0,1,.382-.94,1.436,1.436,0,0,1,1.042-.369A1.44,1.44,0,0,1,31-12.911a1.244,1.244,0,0,1,.387.94,1.247,1.247,0,0,1-.391.949,1.443,1.443,0,0,1-1.033.369,1.443,1.443,0,0,1-1.033-.369A1.247,1.247,0,0,1,28.538-11.971ZM38.839,0a2.821,2.821,0,0,1-.255-.853,3.073,3.073,0,0,1-2.4,1.028,3.376,3.376,0,0,1-2.316-.809,2.6,2.6,0,0,1-.918-2.039,2.687,2.687,0,0,1,1.121-2.32A5.529,5.529,0,0,1,37.31-5.81h1.169v-.545a1.567,1.567,0,0,0-.338-1.055,1.331,1.331,0,0,0-1.068-.4,1.513,1.513,0,0,0-1.006.308,1.045,1.045,0,0,0-.365.844h-2.54a2.551,2.551,0,0,1,.51-1.529,3.37,3.37,0,0,1,1.441-1.1,5.253,5.253,0,0,1,2.092-.4,4.15,4.15,0,0,1,2.791.883,3.09,3.09,0,0,1,1.033,2.483V-2.2a4.546,4.546,0,0,0,.378,2.048V0Zm-2.1-1.767a2.188,2.188,0,0,0,1.037-.25,1.645,1.645,0,0,0,.7-.672V-4.324h-.949q-1.907,0-2.03,1.318l-.009.149a1.017,1.017,0,0,0,.334.782A1.3,1.3,0,0,0,36.738-1.767Zm14.81-2.9A5.758,5.758,0,0,1,50.572-1.1,3.231,3.231,0,0,1,47.848.176a2.969,2.969,0,0,1-2.47-1.187L45.264,0H42.979V-13.5h2.54v4.843A2.893,2.893,0,0,1,47.83-9.686a3.258,3.258,0,0,1,2.729,1.279,5.767,5.767,0,0,1,.989,3.6Zm-2.54-.185a3.783,3.783,0,0,0-.457-2.1,1.545,1.545,0,0,0-1.362-.664,1.676,1.676,0,0,0-1.67.993v3.753a1.7,1.7,0,0,0,1.688,1,1.568,1.568,0,0,0,1.617-1.213A6.257,6.257,0,0,0,49.008-4.852ZM55.793,0H53.244V-13.5h2.549Zm6.469.176a4.668,4.668,0,0,1-3.406-1.283,4.561,4.561,0,0,1-1.314-3.419v-.246A5.745,5.745,0,0,1,58.1-7.334a4.064,4.064,0,0,1,1.569-1.74,4.4,4.4,0,0,1,2.316-.611,3.947,3.947,0,0,1,3.072,1.23,5,5,0,0,1,1.121,3.489v1.037H60.117a2.36,2.36,0,0,0,.743,1.494,2.245,2.245,0,0,0,1.569.563,2.742,2.742,0,0,0,2.294-1.063l1.248,1.4A3.813,3.813,0,0,1,64.424-.277,5.075,5.075,0,0,1,62.262.176Zm-.29-7.813a1.587,1.587,0,0,0-1.226.512,2.651,2.651,0,0,0-.6,1.466h3.533v-.2a1.891,1.891,0,0,0-.457-1.311A1.638,1.638,0,0,0,61.972-7.638Zm10.793,5.01a.818.818,0,0,0-.461-.734,5.241,5.241,0,0,0-1.481-.479Q67.43-4.553,67.43-6.724a2.613,2.613,0,0,1,1.05-2.114,4.237,4.237,0,0,1,2.747-.848,4.56,4.56,0,0,1,2.9.853,2.687,2.687,0,0,1,1.085,2.215h-2.54a1.229,1.229,0,0,0-.352-.9,1.488,1.488,0,0,0-1.1-.356,1.52,1.52,0,0,0-.993.29.916.916,0,0,0-.352.738.783.783,0,0,0,.4.681,4.114,4.114,0,0,0,1.349.448,11.019,11.019,0,0,1,1.6.426,2.628,2.628,0,0,1,2.013,2.558,2.481,2.481,0,0,1-1.116,2.1,4.815,4.815,0,0,1-2.883.8A5.029,5.029,0,0,1,69.113-.25a3.561,3.561,0,0,1-1.455-1.169,2.716,2.716,0,0,1-.527-1.6h2.408a1.326,1.326,0,0,0,.5,1.037,1.987,1.987,0,0,0,1.248.36,1.839,1.839,0,0,0,1.1-.277A.861.861,0,0,0,72.765-2.628Z" transform="translate(-8668 -8442)" fill="#12263f"/>
  </g>
</svg>
