<svg xmlns="http://www.w3.org/2000/svg" width="121" height="121" viewBox="0 0 121 121">
  <g id="img3" transform="translate(-391 -1537.081)">
    <g id="Grupo_1074340" data-name="Grupo 1074340" transform="translate(5.332 -4475.919)">
      <rect id="Rect치ngulo_378643" data-name="Rect치ngulo 378643" width="121" height="26" rx="13" transform="translate(385.668 6108)" fill="#315884"/>
      <g id="Grupo_1073527" data-name="Grupo 1073527" transform="translate(-3 -36)">
        <g id="Grupo_1073526" data-name="Grupo 1073526" transform="translate(391.668 6049)">
          <g id="Grupo_1072785" data-name="Grupo 1072785" transform="translate(0 0)">
            <path id="Trazado_608385" data-name="Trazado 608385" d="M57.014,0A57.014,57.014,0,1,1,0,57.014,57.014,57.014,0,0,1,57.014,0Z" fill="none"/>
          </g>
          <g id="Grupo_1073383" data-name="Grupo 1073383" transform="translate(0 0)">
            <path id="Trazado_608385-2" data-name="Trazado 608385" d="M57.014,0A57.014,57.014,0,1,1,0,57.014,57.014,57.014,0,0,1,57.014,0Z" fill="#fff"/>
          </g>
        </g>
      </g>
    </g>
    <g id="Grupo_1074339" data-name="Grupo 1074339" transform="translate(413.398 1556.979)">
      <rect id="Rect치ngulo_378411" data-name="Rect치ngulo 378411" width="73.906" height="73.906" fill="none"/>
      <g id="Grupo_1100375" data-name="Grupo 1100375" transform="translate(-35.503 -32.104)">
        <path id="Trazado_874539" data-name="Trazado 874539" d="M206.279,36.6a2.052,2.052,0,0,0-1.451-.6h-7.067a1.2,1.2,0,0,0-.85,2.052l2.258,2.258L188.849,50.631l-7.917-7.917a2.4,2.4,0,0,0-3.4,0L160.7,59.544a2.4,2.4,0,1,0,3.4,3.4l15.129-15.129,7.917,7.917a2.4,2.4,0,0,0,3.4,0L202.57,43.71l2.258,2.258a1.2,1.2,0,0,0,2.052-.85V38.052A2.053,2.053,0,0,0,206.279,36.6Z" transform="translate(-101.968)" fill="#555a6e"/>
        <g id="Grupo_1100366" data-name="Grupo 1100366" transform="translate(40 40.808)">
          <path id="Trazado_874540" data-name="Trazado 874540" d="M59.233,96.85H54.425a14.425,14.425,0,0,1,0-28.85h4.808a14.425,14.425,0,1,1,0,28.85Z" transform="translate(-40 -68)" fill="#3cb44b"/>
        </g>
        <g id="Grupo_1100367" data-name="Grupo 1100367" transform="translate(40 40.808)">
          <circle id="Elipse_11527" data-name="Elipse 11527" cx="14.5" cy="14.5" r="14.5" transform="translate(0 0.306)" fill="#d7e123"/>
        </g>
        <path id="Trazado_874541" data-name="Trazado 874541" d="M106.819,93.617a1.2,1.2,0,0,0,1.2-1.2v-.231a4.582,4.582,0,0,0-4.577-4.577h-.231V85.2a1.2,1.2,0,1,0-2.4,0v2.4h-.231a4.577,4.577,0,0,0-1.11,9.018l4.5,1.126a2.173,2.173,0,0,1-.527,4.281h-2.866A2.176,2.176,0,0,1,98.4,99.858v-.231a1.2,1.2,0,0,0-2.4,0v.231a4.582,4.582,0,0,0,4.577,4.577h.231v2.4a1.2,1.2,0,1,0,2.4,0v-2.4h.231a4.577,4.577,0,0,0,1.11-9.018l-4.5-1.126a2.173,2.173,0,0,1,.527-4.281h2.866a2.176,2.176,0,0,1,2.173,2.173v.231a1.2,1.2,0,0,0,1.2,1.2Z" transform="translate(-47.585 -40.788)" fill="#3cb44b"/>
        <g id="Grupo_1100374" data-name="Grupo 1100374" transform="translate(47.212 57.637)">
          <g id="Grupo_1100368" data-name="Grupo 1100368" transform="translate(0 19.233)">
            <path id="Trazado_874542" data-name="Trazado 874542" d="M90.4,308h19.233a2.4,2.4,0,0,1,2.4,2.4v20.435a2.4,2.4,0,0,1-2.4,2.4H90.4a2.4,2.4,0,0,1-2.4-2.4V310.4A2.4,2.4,0,0,1,90.4,308Z" transform="translate(-88 -308)" fill="#3cb44b"/>
          </g>
          <g id="Grupo_1100369" data-name="Grupo 1100369" transform="translate(0 19.233)">
            <path id="Trazado_874543" data-name="Trazado 874543" d="M90.4,308h7.212a2.4,2.4,0,0,1,2.4,2.4v20.435a2.4,2.4,0,0,1-2.4,2.4H90.4a2.4,2.4,0,0,1-2.4-2.4V310.4A2.4,2.4,0,0,1,90.4,308Z" transform="translate(-88 -308)" fill="#d7e123"/>
          </g>
          <g id="Grupo_1100370" data-name="Grupo 1100370" transform="translate(16.829 9.617)">
            <path id="Trazado_874544" data-name="Trazado 874544" d="M202.4,244h19.233a2.4,2.4,0,0,1,2.4,2.4v30.052a2.4,2.4,0,0,1-2.4,2.4H202.4a2.4,2.4,0,0,1-2.4-2.4V246.4A2.4,2.4,0,0,1,202.4,244Z" transform="translate(-200 -244)" fill="#2387c3"/>
          </g>
          <g id="Grupo_1100371" data-name="Grupo 1100371" transform="translate(16.829 9.617)">
            <path id="Trazado_874545" data-name="Trazado 874545" d="M202.4,244h7.212a2.4,2.4,0,0,1,2.4,2.4v30.052a2.4,2.4,0,0,1-2.4,2.4H202.4a2.4,2.4,0,0,1-2.4-2.4V246.4A2.4,2.4,0,0,1,202.4,244Z" transform="translate(-200 -244)" fill="#5ad7ff"/>
          </g>
          <g id="Grupo_1100372" data-name="Grupo 1100372" transform="translate(33.658)">
            <path id="Trazado_874546" data-name="Trazado 874546" d="M314.4,180h19.233a2.4,2.4,0,0,1,2.4,2.4v39.669a2.4,2.4,0,0,1-2.4,2.4H314.4a2.4,2.4,0,0,1-2.4-2.4V182.4A2.4,2.4,0,0,1,314.4,180Z" transform="translate(-312 -180)" fill="#3cb44b"/>
          </g>
          <g id="Grupo_1100373" data-name="Grupo 1100373" transform="translate(33.658)">
            <path id="Trazado_874547" data-name="Trazado 874547" d="M314.4,180h7.212a2.4,2.4,0,0,1,2.4,2.4v39.669a2.4,2.4,0,0,1-2.4,2.4H314.4a2.4,2.4,0,0,1-2.4-2.4V182.4A2.4,2.4,0,0,1,314.4,180Z" transform="translate(-312 -180)" fill="#d7e123"/>
          </g>
        </g>
      </g>
    </g>
  </g>
</svg>
