<svg xmlns="http://www.w3.org/2000/svg" width="121" height="121" viewBox="0 0 121 121">
  <g id="img5" transform="translate(-1094 -1537)">
    <g id="Grupo_1074343" data-name="Grupo 1074343" transform="translate(708.332 -4476)">
      <rect id="Rectángulo_378643" data-name="Rectángulo 378643" width="121" height="26" rx="13" transform="translate(385.668 6108)" fill="#315884"/>
      <g id="Grupo_1073527" data-name="Grupo 1073527" transform="translate(-3 -36)">
        <g id="Grupo_1073526" data-name="Grupo 1073526" transform="translate(391.668 6049)">
          <g id="Grupo_1072785" data-name="Grupo 1072785" transform="translate(0 0)">
            <path id="Trazado_608385" data-name="Trazado 608385" d="M57.014,0A57.014,57.014,0,1,1,0,57.014,57.014,57.014,0,0,1,57.014,0Z" fill="none"/>
          </g>
          <g id="Grupo_1073383" data-name="Grupo 1073383" transform="translate(0 0)">
            <path id="Trazado_608385-2" data-name="Trazado 608385" d="M57.014,0A57.014,57.014,0,1,1,0,57.014,57.014,57.014,0,0,1,57.014,0Z" fill="#fff"/>
          </g>
        </g>
      </g>
    </g>
    <g id="Grupo_1100382" data-name="Grupo 1100382" transform="translate(1111.736 1550.898)">
      <path id="Trazado_874556" data-name="Trazado 874556" d="M26.387,26.063A24.252,24.252,0,1,0,67.306,45.118a1.6,1.6,0,0,1,1.6-1.478H75.26a1.611,1.611,0,0,1,1.611,1.693A33.824,33.824,0,1,1,19.956,19a31.043,31.043,0,0,1,2.957-2.5L20.7,10.282a1.6,1.6,0,0,1,1.84-2.114l18.02,3.8a1.6,1.6,0,0,1,.924,2.565L30.031,28.953a1.611,1.611,0,0,1-2.772-.458Z" transform="translate(0 -0.008)" fill="#66d4f1"/>
      <g id="Grupo_1100381" data-name="Grupo 1100381" transform="translate(11.87 8.102)" opacity="0.1">
        <path id="Trazado_874557" data-name="Trazado 874557" d="M40.538,67.624a23.437,23.437,0,0,1-3.474.251A24.244,24.244,0,0,1,20.337,26.054l.872,2.439a1.611,1.611,0,0,0,2.824.451l11.42-14.421a1.6,1.6,0,0,0-.924-2.565L21.6,9.217a1.6,1.6,0,0,1,1.863-1.079l18.013,3.821a1.6,1.6,0,0,1,.924,2.565L30.951,28.944a1.611,1.611,0,0,1-2.772-.451l-.872-2.439a24.244,24.244,0,0,0,13.231,41.57Z" transform="translate(-12.79 -8.102)" fill="#434a54"/>
        <path id="Trazado_874558" data-name="Trazado 874558" d="M87.581,57.843a33.809,33.809,0,0,1-33.8,32.131A33.451,33.451,0,0,1,50.32,89.8,33.8,33.8,0,0,0,80.625,57.843a1.6,1.6,0,0,0-1.308-1.656,1.271,1.271,0,0,1,.288,0h6.364a1.611,1.611,0,0,1,1.611,1.656Z" transform="translate(-22.58 -20.643)" fill="#434a54"/>
      </g>
      <path id="Trazado_874559" data-name="Trazado 874559" d="M63.21,52.822A11.59,11.59,0,1,1,51.622,41.24,11.59,11.59,0,0,1,63.21,52.822Z" transform="translate(-8.025 -8.644)" fill="#fdcd56"/>
      <path id="Trazado_874560" data-name="Trazado 874560" d="M66.713,52.828a11.59,11.59,0,0,1-11.59,11.59,10.3,10.3,0,0,1-1.663-.126,11.582,11.582,0,0,0,0-22.914,11.22,11.22,0,0,1,1.663-.118,11.59,11.59,0,0,1,11.59,11.568Z" transform="translate(-11.529 -8.649)" opacity="0.1"/>
      <path id="Trazado_874561" data-name="Trazado 874561" d="M49.971,67.413A16.261,16.261,0,1,1,66.233,51.151,16.261,16.261,0,0,1,49.971,67.413Z" transform="translate(-6.377 -6.988)" fill="#fbd277"/>
      <path id="Trazado_874562" data-name="Trazado 874562" d="M63.21,52.822A11.59,11.59,0,1,1,51.622,41.24,11.59,11.59,0,0,1,63.21,52.822Z" transform="translate(-8.025 -8.644)" fill="#fdcd56"/>
      <path id="Trazado_874563" data-name="Trazado 874563" d="M66.517,52.82a11.59,11.59,0,0,1-11.59,11.59A11.434,11.434,0,0,1,52.71,64.2a11.59,11.59,0,0,0,0-22.751,11.434,11.434,0,0,1,2.217-.214A11.6,11.6,0,0,1,66.517,52.82Z" transform="translate(-11.333 -8.641)" opacity="0.1"/>
      <path id="Trazado_874564" data-name="Trazado 874564" d="M58.1,58.578a3.4,3.4,0,0,1-1.375,1.168,5.433,5.433,0,0,1-2.07.5v1.2a.5.5,0,0,1-.14.37.577.577,0,0,1-.739,0,.5.5,0,0,1-.148-.377v-1.2a10.488,10.488,0,0,1-3.43-.8.85.85,0,0,1-.347-.281.739.739,0,0,1-.133-.421.7.7,0,0,1,.2-.5.621.621,0,0,1,.5-.214.8.8,0,0,1,.325.067,7.953,7.953,0,0,0,2.89.68v-3.91a12.292,12.292,0,0,1-1.944-.665A3.444,3.444,0,0,1,50.37,53.2a2.528,2.528,0,0,1-.532-1.656,3.215,3.215,0,0,1,.436-1.634,3.437,3.437,0,0,1,1.294-1.242,4.93,4.93,0,0,1,2.062-.591v-1.19a.54.54,0,0,1,.148-.377.466.466,0,0,1,.362-.148.5.5,0,0,1,.525.525V48.06a9.232,9.232,0,0,1,2.957.562.658.658,0,0,1,.473.68.739.739,0,0,1-.185.488.614.614,0,0,1-.5.222.8.8,0,0,1-.273-.067,8.182,8.182,0,0,0-2.484-.458V53.53a13.475,13.475,0,0,1,2.033.628,3.474,3.474,0,0,1,1.367,1.013,2.757,2.757,0,0,1,.547,1.781,2.861,2.861,0,0,1-.5,1.626Zm-6.15-6a5.049,5.049,0,0,0,1.67.7v-3.74a3.245,3.245,0,0,0-1.634.621,1.53,1.53,0,0,0-.584,1.264,1.308,1.308,0,0,0,.547,1.153Zm5.108,4.272a1.138,1.138,0,0,0-.606-1.027,7.125,7.125,0,0,0-1.8-.687v3.651C56.261,58.659,57.06,58.024,57.06,56.848Z" transform="translate(-10.553 -9.979)" fill="#434a54"/>
    </g>
  </g>
</svg>
