<svg xmlns="http://www.w3.org/2000/svg" width="121" height="121" viewBox="0 0 121 121">
  <g id="img7" transform="translate(-18467 10162.919)">
    <g id="Grupo_1100361" data-name="Grupo 1100361" transform="translate(18081.332 -16175.919)">
      <rect id="Rectángulo_378643" data-name="Rectángulo 378643" width="121" height="26" rx="13" transform="translate(385.668 6108)" fill="#315884"/>
      <g id="Grupo_1073527" data-name="Grupo 1073527" transform="translate(-3 -36)">
        <g id="Grupo_1073526" data-name="Grupo 1073526" transform="translate(391.668 6049)">
          <g id="Grupo_1072785" data-name="Grupo 1072785" transform="translate(0 0)">
            <path id="Trazado_608385" data-name="Trazado 608385" d="M57.014,0A57.014,57.014,0,1,1,0,57.014,57.014,57.014,0,0,1,57.014,0Z" fill="none"/>
          </g>
          <g id="Grupo_1073383" data-name="Grupo 1073383" transform="translate(0 0)">
            <path id="Trazado_608385-2" data-name="Trazado 608385" d="M57.014,0A57.014,57.014,0,1,1,0,57.014,57.014,57.014,0,0,1,57.014,0Z" fill="#fff"/>
          </g>
        </g>
      </g>
    </g>
    <g id="Grupo_1100386" data-name="Grupo 1100386" transform="translate(18565.273 -10064.7)">
      <g id="Grupo_1100384" data-name="Grupo 1100384" transform="translate(-83.414 -83.359)">
        <ellipse id="Elipse_11532" data-name="Elipse 11532" cx="32.278" cy="32.278" rx="32.278" ry="32.278" transform="translate(0 45.641) rotate(-45)" fill="#8ac9fe"/>
        <path id="Trazado_874569" data-name="Trazado 874569" d="M48.278,16c1,0,1.981.048,2.954.136A39.147,39.147,0,0,1,62.872,28.52a43.734,43.734,0,0,0,7.944-3.346q.793.774,1.533,1.6a45.644,45.644,0,0,1-8.413,3.659A38.47,38.47,0,0,1,68.254,47.2H80.536c.012.357.02.716.02,1.076s-.008.719-.02,1.076H68.251a38.919,38.919,0,0,1-4.317,16.768,45.648,45.648,0,0,1,8.413,3.66q-.739.826-1.533,1.6a43.732,43.732,0,0,0-7.94-3.345A38.838,38.838,0,0,1,51.234,80.42c-.974.088-1.959.136-2.956.136s-1.983-.048-2.957-.136A38.837,38.837,0,0,1,33.68,68.037a43.74,43.74,0,0,0-7.94,3.344q-.793-.774-1.533-1.6a45.647,45.647,0,0,1,8.413-3.66A38.919,38.919,0,0,1,28.3,49.354H16.02C16.008,49,16,48.638,16,48.278s.008-.718.02-1.076H28.3a38.471,38.471,0,0,1,4.32-16.768,45.654,45.654,0,0,1-8.413-3.659q.739-.826,1.533-1.6a43.741,43.741,0,0,0,7.943,3.346,39.148,39.148,0,0,1,11.64-12.384C46.3,16.048,47.282,16,48.278,16Zm1.076,63.091A36.729,36.729,0,0,0,60.735,67.427a49.511,49.511,0,0,0-11.381-1.563ZM47.2,65.864A49.523,49.523,0,0,0,35.82,67.427,36.726,36.726,0,0,0,47.2,79.091Zm0-48.4A36.991,36.991,0,0,0,35.825,29.13,49.525,49.525,0,0,0,47.2,30.692Zm2.152,13.227A49.517,49.517,0,0,0,60.73,29.13,36.99,36.99,0,0,0,49.354,17.465ZM47.2,63.711V49.354H30.457A36.766,36.766,0,0,0,34.72,65.5,51.5,51.5,0,0,1,47.2,63.711Zm0-16.509V32.844A51.5,51.5,0,0,1,34.72,31.058,36.338,36.338,0,0,0,30.453,47.2H47.2Zm2.152-14.358V47.2H66.1a36.337,36.337,0,0,0-4.267-16.144A51.5,51.5,0,0,1,49.354,32.844Zm0,16.509V63.711A51.492,51.492,0,0,1,61.836,65.5,36.764,36.764,0,0,0,66.1,49.354H49.354Z" transform="translate(-2.63 -2.637)" fill="#60b7ff" fill-rule="evenodd"/>
      </g>
      <g id="Grupo_1100385" data-name="Grupo 1100385" transform="translate(-63.1 -48.73)">
        <path id="Trazado_874570" data-name="Trazado 874570" d="M114.8,196.15H71.139c-1.935,0-3.5-4.93-3.5-11.011s1.569-11.011,3.5-11.011H114.8c1.936,0,3.5,4.93,3.5,11.011S116.732,196.15,114.8,196.15Z" transform="translate(-67.634 -174.127)" fill="#8d9ca8" fill-rule="evenodd"/>
        <path id="Trazado_874571" data-name="Trazado 874571" d="M114.8,262.685H71.139c-1.935,0-3.5-4.93-3.5-11.011q0-.339.007-.672c.111,5.768,1.634,10.339,3.5,10.339H114.8c1.864,0,3.387-4.571,3.5-10.339q.006.334.007.672C118.3,257.755,116.732,262.685,114.8,262.685Z" transform="translate(-67.634 -240.662)" fill="#8192a5" fill-rule="evenodd"/>
        <path id="Trazado_874572" data-name="Trazado 874572" d="M392.248,185.136a27.414,27.414,0,0,0,.936,7.49c.64,2.166,1.554,3.522,2.569,3.522,1.82,0,3.316-4.359,3.488-9.935q.016-.531.017-1.076t-.017-1.076c-.172-5.577-1.668-9.936-3.488-9.936-1.01,0-1.921,1.344-2.561,3.493A27.358,27.358,0,0,0,392.248,185.136Z" transform="translate(-348.59 -174.125)" fill="#8192a5" fill-rule="evenodd"/>
        <path id="Trazado_874573" data-name="Trazado 874573" d="M405.818,261.338c.5.857,1.071,1.345,1.68,1.345,1.82,0,3.316-4.359,3.488-9.935q.016-.531.017-1.076,0-.338-.006-.672h0c-.111,5.768-1.634,10.339-3.5,10.339h-1.68Z" transform="translate(-360.335 -240.66)" fill="#65788e" fill-rule="evenodd"/>
        <path id="Trazado_874574" data-name="Trazado 874574" d="M125.375,202a1.071,1.071,0,0,1-1.2,1.774l-3.923-2.662a1.072,1.072,0,0,1,.019-1.786l3.9-2.649a1.071,1.071,0,0,1,1.2,1.774l-1.031.7h24a1.076,1.076,0,0,1,0,2.152H124.345Z" transform="translate(-112.767 -193.488)" fill="#ffe177" fill-rule="evenodd"/>
        <path id="Trazado_874575" data-name="Trazado 874575" d="M144.988,267.27a1.071,1.071,0,1,1-1.2-1.774l1.03-.7h-24a1.076,1.076,0,0,1,0-2.152h24l-1.031-.7a1.071,1.071,0,1,1,1.2-1.774l3.9,2.649a1.072,1.072,0,0,1,.019,1.786Z" transform="translate(-112.737 -248.44)" fill="#6cf5c2" fill-rule="evenodd"/>
      </g>
    </g>
  </g>
</svg>
