<svg xmlns="http://www.w3.org/2000/svg" width="121" height="121" viewBox="0 0 121 121">
  <g id="img9" transform="translate(-19170 10162.919)">
    <g id="Grupo_1100364" data-name="Grupo 1100364" transform="translate(18784.332 -16175.919)">
      <rect id="Rectángulo_378643" data-name="Rectángulo 378643" width="121" height="26" rx="13" transform="translate(385.668 6108)" fill="#315884"/>
      <g id="Grupo_1073527" data-name="Grupo 1073527" transform="translate(-3 -36)">
        <g id="Grupo_1073526" data-name="Grupo 1073526" transform="translate(391.668 6049)">
          <g id="Grupo_1072785" data-name="Grupo 1072785" transform="translate(0 0)">
            <path id="Trazado_608385" data-name="Trazado 608385" d="M57.014,0A57.014,57.014,0,1,1,0,57.014,57.014,57.014,0,0,1,57.014,0Z" fill="none"/>
          </g>
          <g id="Grupo_1073383" data-name="Grupo 1073383" transform="translate(0 0)">
            <path id="Trazado_608385-2" data-name="Trazado 608385" d="M57.014,0A57.014,57.014,0,1,1,0,57.014,57.014,57.014,0,0,1,57.014,0Z" fill="#fff"/>
          </g>
        </g>
      </g>
    </g>
    <g id="Grupo_1100428" data-name="Grupo 1100428" transform="translate(19198.492 -10139.54)">
      <g id="Grupo_1100415" data-name="Grupo 1100415" transform="translate(12.728 2.779)">
        <g id="Grupo_1100414" data-name="Grupo 1100414">
          <g id="Grupo_1100413" data-name="Grupo 1100413">
            <g id="Grupo_1100412" data-name="Grupo 1100412">
              <g id="Grupo_1100411" data-name="Grupo 1100411">
                <path id="Trazado_874586" data-name="Trazado 874586" d="M137.058,66.106H108.007a5.1,5.1,0,0,1-5.1-5.1V7.876a5.1,5.1,0,0,1,5.1-5.1h29.051a5.1,5.1,0,0,1,5.1,5.1V61.009A5.1,5.1,0,0,1,137.058,66.106Z" transform="translate(-102.91 -2.779)" fill="#3d6d93"/>
                <path id="Trazado_874587" data-name="Trazado 874587" d="M351.915,2.779h-3.823a5.1,5.1,0,0,1,5.1,5.1V61.009a5.1,5.1,0,0,1-5.1,5.1h3.823a5.1,5.1,0,0,0,5.1-5.1V7.876a5.1,5.1,0,0,0-5.1-5.1Z" transform="translate(-317.767 -2.779)" fill="#335e80"/>
                <path id="Trazado_874588" data-name="Trazado 874588" d="M158.974,34.7a1.723,1.723,0,0,1-1.723,1.723H141.978a1.723,1.723,0,0,1-1.723-1.723,1.019,1.019,0,0,0-1.019-1.019h-3.51a1.911,1.911,0,0,0-1.911,1.911V87.455a1.911,1.911,0,0,0,1.911,1.911H163.5a1.911,1.911,0,0,0,1.911-1.911V35.6a1.911,1.911,0,0,0-1.911-1.911h-3.51a1.019,1.019,0,0,0-1.019,1.019Z" transform="translate(-129.992 -29.862)" fill="#f9f7f8"/>
              </g>
              <circle id="Elipse_11543" data-name="Elipse 11543" cx="0.956" cy="0.956" r="0.956" transform="translate(18.667 2.327)" fill="#335e80"/>
            </g>
          </g>
        </g>
      </g>
      <g id="Grupo_1100418" data-name="Grupo 1100418" transform="translate(0.687 9.737)">
        <g id="Grupo_1100416" data-name="Grupo 1100416">
          <circle id="Elipse_11544" data-name="Elipse 11544" cx="11.018" cy="11.018" r="11.018" fill="#ffe179"/>
          <path id="Trazado_874589" data-name="Trazado 874589" d="M81.093,59.032a11.084,11.084,0,0,0-1.911.169,11.016,11.016,0,0,1,0,21.7,11.017,11.017,0,1,0,1.911-21.866Z" transform="translate(-70.076 -59.032)" fill="#fbd268"/>
        </g>
        <g id="Grupo_1100417" data-name="Grupo 1100417" transform="translate(5.284 5.284)">
          <path id="Trazado_874590" data-name="Trazado 874590" d="M57.833,113.219H50.188a1.911,1.911,0,0,1-1.911-1.911v-7.645a1.911,1.911,0,0,1,1.911-1.911h7.645a1.911,1.911,0,0,1,1.911,1.911v7.645A1.911,1.911,0,0,1,57.833,113.219Z" transform="translate(-48.277 -101.751)" fill="#f58a97"/>
          <path id="Trazado_874591" data-name="Trazado 874591" d="M98.458,101.751H94.635a1.911,1.911,0,0,1,1.911,1.911v7.645a1.911,1.911,0,0,1-1.911,1.911h3.822a1.911,1.911,0,0,0,1.911-1.911v-7.645A1.911,1.911,0,0,0,98.458,101.751Z" transform="translate(-88.901 -101.751)" fill="#f07281"/>
          <circle id="Elipse_11545" data-name="Elipse 11545" cx="1.911" cy="1.911" r="1.911" transform="translate(3.822 3.823)" fill="#fff"/>
        </g>
      </g>
      <g id="Grupo_1100420" data-name="Grupo 1100420" transform="translate(0 35.738)">
        <g id="Grupo_1100419" data-name="Grupo 1100419">
          <circle id="Elipse_11546" data-name="Elipse 11546" cx="11.018" cy="11.018" r="11.018" transform="translate(0 0)" fill="#8fd8fa"/>
          <path id="Trazado_874592" data-name="Trazado 874592" d="M74.634,269.255a11.069,11.069,0,0,0-2.038.191,11.016,11.016,0,0,1,0,21.653,11.017,11.017,0,1,0,2.038-21.844Z" transform="translate(-63.617 -269.255)" fill="#6bcdfe"/>
        </g>
        <g id="Shape_2_" transform="translate(4.883 5.956)">
          <path id="Trazado_874593" data-name="Trazado 874593" d="M49.121,318.244a2.435,2.435,0,0,0-4.271,1.63v.543a5.793,5.793,0,0,1-4.532-2,.325.325,0,0,0-.56.116,5.057,5.057,0,0,0,2.919,6.489,6.324,6.324,0,0,1-2.544,1.011c-.235.038-.119.473-.06.628.41,1.07,5.036,1.514,7.869-.816a7.431,7.431,0,0,0,2.449-4.558,5.011,5.011,0,0,0,1.347-2.648.581.581,0,0,0-.833-.618,2.8,2.8,0,0,1-.611.213A2.849,2.849,0,0,1,49.121,318.244Z" transform="translate(-39.477 -317.407)" fill="#fff"/>
        </g>
      </g>
      <g id="Grupo_1100423" data-name="Grupo 1100423" transform="translate(41.979 35.738)">
        <g id="Grupo_1100421" data-name="Grupo 1100421">
          <circle id="Elipse_11547" data-name="Elipse 11547" cx="11.018" cy="11.018" r="11.018" fill="#f58a97"/>
          <path id="Trazado_874594" data-name="Trazado 874594" d="M414.938,269.255a11.086,11.086,0,0,0-1.911.169,11.016,11.016,0,0,1,0,21.7,11.017,11.017,0,1,0,1.911-21.866Z" transform="translate(-403.921 -269.255)" fill="#f07281"/>
        </g>
        <g id="Grupo_1100422" data-name="Grupo 1100422" transform="translate(8.313 6.9)">
          <path id="Trazado_874595" data-name="Trazado 874595" d="M406.609,325.409a.37.37,0,0,1,.555-.321l6.7,3.871a.37.37,0,0,1,0,.641l-6.7,3.871a.37.37,0,0,1-.555-.321Z" transform="translate(-406.609 -325.039)" fill="#fff"/>
        </g>
      </g>
      <g id="Grupo_1100425" data-name="Grupo 1100425" transform="translate(41.979 9.737)">
        <g id="Grupo_1100424" data-name="Grupo 1100424">
          <circle id="Elipse_11548" data-name="Elipse 11548" cx="11.018" cy="11.018" r="11.018" fill="#8fd8fa"/>
          <path id="Trazado_874596" data-name="Trazado 874596" d="M414.938,59.032a11.085,11.085,0,0,0-1.911.169,11.016,11.016,0,0,1,0,21.7,11.017,11.017,0,1,0,1.911-21.866Z" transform="translate(-403.921 -59.032)" fill="#6bcdfe"/>
        </g>
        <path id="Trazado_874597" data-name="Trazado 874597" d="M401.377,92.226h-2.265a2.882,2.882,0,0,0-2.879,2.879v2.776h-1.539a.956.956,0,1,0,0,1.911h1.539v6.074a.956.956,0,1,0,1.911,0V99.793h1.539a.956.956,0,1,0,0-1.911h-1.539V95.1a.969.969,0,0,1,.968-.968h2.265a.956.956,0,0,0,0-1.911Z" transform="translate(-387.018 -88.12)" fill="#fff"/>
      </g>
      <path id="Trazado_874598" data-name="Trazado 874598" d="M202.189,196.519a7.7,7.7,0,0,0-7.083,10.181.879.879,0,0,1-.005.575l-1.025,2.917a.51.51,0,0,0,.65.65l2.052-.721a.9.9,0,0,1,.857.148,7.7,7.7,0,1,0,4.555-13.749Z" transform="translate(-170.045 -169.775)" fill="#aee69c"/>
      <g id="Grupo_1100426" data-name="Grupo 1100426" transform="translate(30.434 26.741)">
        <path id="Trazado_874599" data-name="Trazado 874599" d="M247.768,196.519a7.605,7.605,0,0,0-1.7.24,7.7,7.7,0,0,1-.01,14.917,7.7,7.7,0,1,0,1.71-15.157Z" transform="translate(-246.058 -196.516)" fill="#89daa4"/>
      </g>
      <g id="Grupo_1100427" data-name="Grupo 1100427" transform="translate(29.154 31.08)">
        <path id="Trazado_874600" data-name="Trazado 874600" d="M239.914,237.733a2.772,2.772,0,0,1-1.439-.4l-1.43-.868a2.79,2.79,0,0,1-1.321-2.636l0-.019a4.17,4.17,0,0,1,.583-1.759.956.956,0,0,1,1.634.992,2.243,2.243,0,0,0-.314.945l0,.019a.868.868,0,0,0,.411.823l1.43.868a.867.867,0,0,0,.917-.013l.02-.013a2.242,2.242,0,0,0,.694-.714.956.956,0,0,1,1.634.992,4.164,4.164,0,0,1-1.289,1.326l-.02.013A2.775,2.775,0,0,1,239.914,237.733Z" transform="translate(-235.71 -231.591)" fill="#fff"/>
      </g>
    </g>
  </g>
</svg>
