<svg xmlns="http://www.w3.org/2000/svg" width="121" height="121" viewBox="0 0 121 121">
  <g id="img7" transform="translate(-274 -5279.582)">
    <g id="Grupo_1074472" data-name="Grupo 1074472" transform="translate(274 5279.582)">
      <rect id="Rectángulo_378651" data-name="Rectángulo 378651" width="121" height="26" rx="13" transform="translate(0 95)" fill="#315884"/>
      <g id="Grupo_1074381" data-name="Grupo 1074381" transform="translate(2.628 0)">
        <g id="Grupo_1073526" data-name="Grupo 1073526" transform="translate(0 0)">
          <g id="Grupo_1072785" data-name="Grupo 1072785" transform="translate(0)">
            <path id="Trazado_608385" data-name="Trazado 608385" d="M57.17,0A57.17,57.17,0,1,1,0,57.17,57.17,57.17,0,0,1,57.17,0Z" transform="translate(0 0)" fill="none"/>
          </g>
          <g id="Grupo_1073383" data-name="Grupo 1073383" transform="translate(0)">
            <g id="Trazado_608385-2" data-name="Trazado 608385" transform="translate(0 0)" fill="#fff">
              <path d="M 57.16980743408203 113.3396224975586 C 49.58648300170898 113.3396224975586 42.23054504394531 111.8546371459961 35.3062858581543 108.9259338378906 C 31.97820663452148 107.5182723999023 28.76820755004883 105.7759323120117 25.76543807983398 103.7472991943359 C 22.79092979431152 101.7377624511719 19.99380683898926 99.42991638183594 17.45176124572754 96.88787078857422 C 14.9097146987915 94.3458251953125 12.60186862945557 91.54869842529297 10.59233093261719 88.57419586181641 C 8.563699722290039 85.57142639160156 6.821361064910889 82.36140441894531 5.413699626922607 79.03333282470703 C 2.484992027282715 72.10908508300781 1.000007390975952 64.75312805175781 1.000007390975952 57.16980743408203 C 1.000007390975952 49.58648300170898 2.484992027282715 42.23054504394531 5.413699626922607 35.3062858581543 C 6.821361064910889 31.97820663452148 8.563699722290039 28.76820755004883 10.59233093261719 25.76543807983398 C 12.60186862945557 22.79092979431152 14.9097146987915 19.99380683898926 17.45176124572754 17.45176124572754 C 19.99380683898926 14.9097146987915 22.79092979431152 12.60186862945557 25.76543807983398 10.59233093261719 C 28.76820755004883 8.563699722290039 31.97820663452148 6.821361064910889 35.3062858581543 5.413699626922607 C 42.23054504394531 2.484992027282715 49.58648300170898 1.000007390975952 57.16980743408203 1.000007390975952 C 64.75312805175781 1.000007390975952 72.10908508300781 2.484992027282715 79.03333282470703 5.413699626922607 C 82.36140441894531 6.821361064910889 85.57142639160156 8.563699722290039 88.57419586181641 10.59233093261719 C 91.54869842529297 12.60186862945557 94.3458251953125 14.9097146987915 96.88787078857422 17.45176124572754 C 99.42991638183594 19.99380683898926 101.7377624511719 22.79092979431152 103.7472991943359 25.76543807983398 C 105.7759323120117 28.76820755004883 107.5182723999023 31.97820663452148 108.9259338378906 35.3062858581543 C 111.8546371459961 42.23054504394531 113.3396224975586 49.58648300170898 113.3396224975586 57.16980743408203 C 113.3396224975586 64.75312805175781 111.8546371459961 72.10908508300781 108.9259338378906 79.03333282470703 C 107.5182723999023 82.36140441894531 105.7759323120117 85.57142639160156 103.7472991943359 88.57419586181641 C 101.7377624511719 91.54869842529297 99.42991638183594 94.3458251953125 96.88787078857422 96.88787078857422 C 94.3458251953125 99.42991638183594 91.54869842529297 101.7377624511719 88.57419586181641 103.7472991943359 C 85.57142639160156 105.7759323120117 82.36140441894531 107.5182723999023 79.03333282470703 108.9259338378906 C 72.10908508300781 111.8546371459961 64.75312805175781 113.3396224975586 57.16980743408203 113.3396224975586 Z" stroke="none"/>
              <path d="M 57.16980743408203 1.999992370605469 C 49.72103881835938 1.999992370605469 42.49615478515625 3.458389282226562 35.69583892822266 6.334693908691406 C 32.42722320556641 7.717193603515625 29.27450561523438 9.428459167480469 26.32524108886719 11.42094421386719 C 23.40347290039062 13.39485931396484 20.65590667724609 15.66180419921875 18.15885925292969 18.15885925292969 C 15.66180419921875 20.65590667724609 13.39485931396484 23.40347290039062 11.42094421386719 26.32524108886719 C 9.428459167480469 29.27450561523438 7.717193603515625 32.42722320556641 6.334693908691406 35.69583892822266 C 3.458389282226562 42.49615478515625 1.999992370605469 49.72103881835938 1.999992370605469 57.16980743408203 C 1.999992370605469 64.61857604980469 3.458389282226562 71.84346008300781 6.334693908691406 78.64377593994141 C 7.717193603515625 81.91239166259766 9.428459167480469 85.06510925292969 11.42094421386719 88.01438903808594 C 13.39485931396484 90.93614196777344 15.66180419921875 93.68370819091797 18.15885925292969 96.18075561523438 C 20.65590667724609 98.67778778076172 23.40347290039062 100.9447555541992 26.32524108886719 102.9186553955078 C 29.27450561523438 104.9111557006836 32.42722320556641 106.6224060058594 35.69583892822266 108.0049057006836 C 42.49615478515625 110.8812103271484 49.72103881835938 112.3396072387695 57.16980743408203 112.3396072387695 C 64.61857604980469 112.3396072387695 71.84346008300781 110.8812103271484 78.64377593994141 108.0049057006836 C 81.91239166259766 106.6224060058594 85.06510925292969 104.9111557006836 88.01438903808594 102.9186553955078 C 90.93614196777344 100.9447555541992 93.68370819091797 98.67778778076172 96.18075561523438 96.18075561523438 C 98.67778778076172 93.68370819091797 100.9447555541992 90.93614196777344 102.9186553955078 88.01438903808594 C 104.9111557006836 85.06510925292969 106.6224060058594 81.91239166259766 108.0049057006836 78.64377593994141 C 110.8812103271484 71.84346008300781 112.3396072387695 64.61857604980469 112.3396072387695 57.16980743408203 C 112.3396072387695 49.72103881835938 110.8812103271484 42.49615478515625 108.0049057006836 35.69583892822266 C 106.6224060058594 32.42722320556641 104.9111557006836 29.27450561523438 102.9186553955078 26.32524108886719 C 100.9447555541992 23.40347290039062 98.67778778076172 20.65590667724609 96.18075561523438 18.15885925292969 C 93.68370819091797 15.66180419921875 90.93614196777344 13.39485931396484 88.01438903808594 11.42094421386719 C 85.06510925292969 9.428459167480469 81.91239166259766 7.717193603515625 78.64377593994141 6.334693908691406 C 71.84346008300781 3.458389282226562 64.61857604980469 1.999992370605469 57.16980743408203 1.999992370605469 M 57.16980743408203 -7.62939453125e-06 C 88.74384307861328 -7.62939453125e-06 114.3396072387695 25.59578704833984 114.3396072387695 57.16980743408203 C 114.3396072387695 88.74384307861328 88.74384307861328 114.3396072387695 57.16980743408203 114.3396072387695 C 25.59578704833984 114.3396072387695 -7.62939453125e-06 88.74384307861328 -7.62939453125e-06 57.16980743408203 C -7.62939453125e-06 25.59578704833984 25.59578704833984 -7.62939453125e-06 57.16980743408203 -7.62939453125e-06 Z" stroke="none" fill="#85b6ec"/>
            </g>
          </g>
        </g>
      </g>
      <path id="Trazado_615556" data-name="Trazado 615556" d="M751.571,142.1l4.414-4.414a1.248,1.248,0,0,0-1.765-1.765l-4.414,4.414-4.414-4.414a1.248,1.248,0,0,0-1.765,1.765l4.415,4.414-4.415,4.414a1.248,1.248,0,1,0,1.765,1.765l4.414-4.414,4.414,4.414a1.248,1.248,0,0,0,1.765-1.765Z" transform="translate(-643.607 -125.574)" fill="#ff7c48"/>
      <path id="Trazado_615557" data-name="Trazado 615557" d="M0,13.9,8.852,0,17.7,13.9Z" transform="translate(15.274 75.974) rotate(90)" fill="#ffb850"/>
      <path id="Trazado_615559" data-name="Trazado 615559" d="M158.251,311.652a3.638,3.638,0,1,1-3.638-3.638,3.638,3.638,0,0,1,3.638,3.638" transform="translate(-63.06 -206.003)" fill="#ffb850"/>
      <path id="Trazado_615560" data-name="Trazado 615560" d="M76,311.652a3.638,3.638,0,1,1-3.638-3.638A3.638,3.638,0,0,1,76,311.652" transform="translate(4.052 -206.003)" fill="#3656b3"/>
      <path id="Trazado_615561" data-name="Trazado 615561" d="M240.505,311.652a3.638,3.638,0,1,1-3.638-3.638,3.638,3.638,0,0,1,3.638,3.638" transform="translate(-130.169 -206.003)" fill="#29c7cc"/>
    </g>
    <g id="Grupo_1099778" data-name="Grupo 1099778" transform="translate(300.871 5306.518)">
      <path id="Trazado_873685" data-name="Trazado 873685" d="M60.384,6.745a23.03,23.03,0,0,0-32.569,0L.577,33.983a1.967,1.967,0,0,0,0,2.781L30.365,66.553a1.966,1.966,0,0,0,2.781,0L60.384,39.314a23.03,23.03,0,0,0,0-32.569Zm-5.959,14.7a6.181,6.181,0,1,1,0-8.741A6.181,6.181,0,0,1,54.425,21.445Z" fill="#ff405c"/>
      <path id="Trazado_873686" data-name="Trazado 873686" d="M156.948,66.147a6.181,6.181,0,0,1-8.741,0L117.993,96.36l14.894,14.894a1.966,1.966,0,0,0,2.781,0l27.238-27.239a23.03,23.03,0,0,0,0-32.569l-5.959,5.958a6.181,6.181,0,0,1,0,8.741Z" transform="translate(-102.522 -44.702)" fill="#d01273"/>
      <path id="Trazado_873687" data-name="Trazado 873687" d="M390.112,15.486a1.967,1.967,0,0,1,0-2.781L402.234.576a1.967,1.967,0,1,1,2.782,2.781L392.893,15.485A1.967,1.967,0,0,1,390.112,15.486Z" transform="translate(-338.462 0)" fill="#23232d"/>
      <path id="Trazado_873688" data-name="Trazado 873688" d="M205.682,315.36a6.18,6.18,0,1,0,0,8.739A6.187,6.187,0,0,0,205.682,315.36Zm-2.781,5.958a2.246,2.246,0,1,1,0-3.177A2.249,2.249,0,0,1,202.9,321.318Z" transform="translate(-169.551 -272.443)" fill="#e6e6e6"/>
      <path id="Trazado_873689" data-name="Trazado 873689" d="M205.682,133.586a6.18,6.18,0,1,0,0,8.739A6.187,6.187,0,0,0,205.682,133.586Zm-2.781,5.958a2.246,2.246,0,1,1,0-3.177A2.249,2.249,0,0,1,202.9,139.545Z" transform="translate(-169.551 -114.502)" fill="#fff"/>
      <path id="Trazado_873690" data-name="Trazado 873690" d="M155.73,245.165a1.967,1.967,0,0,0-2.172-1.737l-26.812,2.979a1.967,1.967,0,0,0,.434,3.909l26.812-2.979a1.967,1.967,0,0,0,1.738-2.172Z" transform="translate(-108.608 -211.501)" fill="#fff"/>
      <path id="Trazado_873691" data-name="Trazado 873691" d="M242.727,245.165a1.967,1.967,0,0,0-2.172-1.737l-10.965,1.218-4.469,4.454,15.868-1.763A1.967,1.967,0,0,0,242.727,245.165Z" transform="translate(-195.605 -211.501)" fill="#e6e6e6"/>
    </g>
  </g>
</svg>
