<svg xmlns="http://www.w3.org/2000/svg" width="121" height="121" viewBox="0 0 121 121">
  <g id="img8" transform="translate(-274 -5279.582)">
    <g id="Grupo_1074472" data-name="Grupo 1074472" transform="translate(274 5279.582)">
      <rect id="Rectángulo_378651" data-name="Rectángulo 378651" width="121" height="26" rx="13" transform="translate(0 95)" fill="#315884"/>
      <g id="Grupo_1074381" data-name="Grupo 1074381" transform="translate(2.628 0)">
        <g id="Grupo_1073526" data-name="Grupo 1073526" transform="translate(0 0)">
          <g id="Grupo_1072785" data-name="Grupo 1072785" transform="translate(0)">
            <path id="Trazado_608385" data-name="Trazado 608385" d="M57.17,0A57.17,57.17,0,1,1,0,57.17,57.17,57.17,0,0,1,57.17,0Z" transform="translate(0 0)" fill="none"/>
          </g>
          <g id="Grupo_1073383" data-name="Grupo 1073383" transform="translate(0)">
            <g id="Trazado_608385-2" data-name="Trazado 608385" transform="translate(0 0)" fill="#fff">
              <path d="M 57.16980743408203 113.3396224975586 C 49.58648300170898 113.3396224975586 42.23054504394531 111.8546371459961 35.3062858581543 108.9259338378906 C 31.97820663452148 107.5182723999023 28.76820755004883 105.7759323120117 25.76543807983398 103.7472991943359 C 22.79092979431152 101.7377624511719 19.99380683898926 99.42991638183594 17.45176124572754 96.88787078857422 C 14.9097146987915 94.3458251953125 12.60186862945557 91.54869842529297 10.59233093261719 88.57419586181641 C 8.563699722290039 85.57142639160156 6.821361064910889 82.36140441894531 5.413699626922607 79.03333282470703 C 2.484992027282715 72.10908508300781 1.000007390975952 64.75312805175781 1.000007390975952 57.16980743408203 C 1.000007390975952 49.58648300170898 2.484992027282715 42.23054504394531 5.413699626922607 35.3062858581543 C 6.821361064910889 31.97820663452148 8.563699722290039 28.76820755004883 10.59233093261719 25.76543807983398 C 12.60186862945557 22.79092979431152 14.9097146987915 19.99380683898926 17.45176124572754 17.45176124572754 C 19.99380683898926 14.9097146987915 22.79092979431152 12.60186862945557 25.76543807983398 10.59233093261719 C 28.76820755004883 8.563699722290039 31.97820663452148 6.821361064910889 35.3062858581543 5.413699626922607 C 42.23054504394531 2.484992027282715 49.58648300170898 1.000007390975952 57.16980743408203 1.000007390975952 C 64.75312805175781 1.000007390975952 72.10908508300781 2.484992027282715 79.03333282470703 5.413699626922607 C 82.36140441894531 6.821361064910889 85.57142639160156 8.563699722290039 88.57419586181641 10.59233093261719 C 91.54869842529297 12.60186862945557 94.3458251953125 14.9097146987915 96.88787078857422 17.45176124572754 C 99.42991638183594 19.99380683898926 101.7377624511719 22.79092979431152 103.7472991943359 25.76543807983398 C 105.7759323120117 28.76820755004883 107.5182723999023 31.97820663452148 108.9259338378906 35.3062858581543 C 111.8546371459961 42.23054504394531 113.3396224975586 49.58648300170898 113.3396224975586 57.16980743408203 C 113.3396224975586 64.75312805175781 111.8546371459961 72.10908508300781 108.9259338378906 79.03333282470703 C 107.5182723999023 82.36140441894531 105.7759323120117 85.57142639160156 103.7472991943359 88.57419586181641 C 101.7377624511719 91.54869842529297 99.42991638183594 94.3458251953125 96.88787078857422 96.88787078857422 C 94.3458251953125 99.42991638183594 91.54869842529297 101.7377624511719 88.57419586181641 103.7472991943359 C 85.57142639160156 105.7759323120117 82.36140441894531 107.5182723999023 79.03333282470703 108.9259338378906 C 72.10908508300781 111.8546371459961 64.75312805175781 113.3396224975586 57.16980743408203 113.3396224975586 Z" stroke="none"/>
              <path d="M 57.16980743408203 1.999992370605469 C 49.72103881835938 1.999992370605469 42.49615478515625 3.458389282226562 35.69583892822266 6.334693908691406 C 32.42722320556641 7.717193603515625 29.27450561523438 9.428459167480469 26.32524108886719 11.42094421386719 C 23.40347290039062 13.39485931396484 20.65590667724609 15.66180419921875 18.15885925292969 18.15885925292969 C 15.66180419921875 20.65590667724609 13.39485931396484 23.40347290039062 11.42094421386719 26.32524108886719 C 9.428459167480469 29.27450561523438 7.717193603515625 32.42722320556641 6.334693908691406 35.69583892822266 C 3.458389282226562 42.49615478515625 1.999992370605469 49.72103881835938 1.999992370605469 57.16980743408203 C 1.999992370605469 64.61857604980469 3.458389282226562 71.84346008300781 6.334693908691406 78.64377593994141 C 7.717193603515625 81.91239166259766 9.428459167480469 85.06510925292969 11.42094421386719 88.01438903808594 C 13.39485931396484 90.93614196777344 15.66180419921875 93.68370819091797 18.15885925292969 96.18075561523438 C 20.65590667724609 98.67778778076172 23.40347290039062 100.9447555541992 26.32524108886719 102.9186553955078 C 29.27450561523438 104.9111557006836 32.42722320556641 106.6224060058594 35.69583892822266 108.0049057006836 C 42.49615478515625 110.8812103271484 49.72103881835938 112.3396072387695 57.16980743408203 112.3396072387695 C 64.61857604980469 112.3396072387695 71.84346008300781 110.8812103271484 78.64377593994141 108.0049057006836 C 81.91239166259766 106.6224060058594 85.06510925292969 104.9111557006836 88.01438903808594 102.9186553955078 C 90.93614196777344 100.9447555541992 93.68370819091797 98.67778778076172 96.18075561523438 96.18075561523438 C 98.67778778076172 93.68370819091797 100.9447555541992 90.93614196777344 102.9186553955078 88.01438903808594 C 104.9111557006836 85.06510925292969 106.6224060058594 81.91239166259766 108.0049057006836 78.64377593994141 C 110.8812103271484 71.84346008300781 112.3396072387695 64.61857604980469 112.3396072387695 57.16980743408203 C 112.3396072387695 49.72103881835938 110.8812103271484 42.49615478515625 108.0049057006836 35.69583892822266 C 106.6224060058594 32.42722320556641 104.9111557006836 29.27450561523438 102.9186553955078 26.32524108886719 C 100.9447555541992 23.40347290039062 98.67778778076172 20.65590667724609 96.18075561523438 18.15885925292969 C 93.68370819091797 15.66180419921875 90.93614196777344 13.39485931396484 88.01438903808594 11.42094421386719 C 85.06510925292969 9.428459167480469 81.91239166259766 7.717193603515625 78.64377593994141 6.334693908691406 C 71.84346008300781 3.458389282226562 64.61857604980469 1.999992370605469 57.16980743408203 1.999992370605469 M 57.16980743408203 -7.62939453125e-06 C 88.74384307861328 -7.62939453125e-06 114.3396072387695 25.59578704833984 114.3396072387695 57.16980743408203 C 114.3396072387695 88.74384307861328 88.74384307861328 114.3396072387695 57.16980743408203 114.3396072387695 C 25.59578704833984 114.3396072387695 -7.62939453125e-06 88.74384307861328 -7.62939453125e-06 57.16980743408203 C -7.62939453125e-06 25.59578704833984 25.59578704833984 -7.62939453125e-06 57.16980743408203 -7.62939453125e-06 Z" stroke="none" fill="#85b6ec"/>
            </g>
          </g>
        </g>
      </g>
      <path id="Trazado_615556" data-name="Trazado 615556" d="M751.571,142.1l4.414-4.414a1.248,1.248,0,0,0-1.765-1.765l-4.414,4.414-4.414-4.414a1.248,1.248,0,0,0-1.765,1.765l4.415,4.414-4.415,4.414a1.248,1.248,0,1,0,1.765,1.765l4.414-4.414,4.414,4.414a1.248,1.248,0,0,0,1.765-1.765Z" transform="translate(-643.607 -125.574)" fill="#ff7c48"/>
      <path id="Trazado_615557" data-name="Trazado 615557" d="M0,13.9,8.852,0,17.7,13.9Z" transform="translate(15.274 75.974) rotate(90)" fill="#ffb850"/>
      <path id="Trazado_615559" data-name="Trazado 615559" d="M158.251,311.652a3.638,3.638,0,1,1-3.638-3.638,3.638,3.638,0,0,1,3.638,3.638" transform="translate(-63.06 -206.003)" fill="#ffb850"/>
      <path id="Trazado_615560" data-name="Trazado 615560" d="M76,311.652a3.638,3.638,0,1,1-3.638-3.638A3.638,3.638,0,0,1,76,311.652" transform="translate(4.052 -206.003)" fill="#3656b3"/>
      <path id="Trazado_615561" data-name="Trazado 615561" d="M240.505,311.652a3.638,3.638,0,1,1-3.638-3.638,3.638,3.638,0,0,1,3.638,3.638" transform="translate(-130.169 -206.003)" fill="#29c7cc"/>
    </g>
    <g id="Grupo_1099776" data-name="Grupo 1099776" transform="translate(237.092 5297.311)">
      <g id="Grupo_1099767" data-name="Grupo 1099767" transform="translate(71.436 47.24)">
        <path id="Trazado_873675" data-name="Trazado 873675" d="M105.208,341.439l-7.736,16.6a1.965,1.965,0,0,1-1.778,1.132c-.041,0-.081,0-.123,0a1.96,1.96,0,0,1-1.744-1.358l-2.617-8.156L83.283,352.9a1.961,1.961,0,0,1-2.52-2.642l7.047-15.126a1.962,1.962,0,0,1,2.4-1.031l13.842,4.651a1.964,1.964,0,0,1,1.153,2.688Z" transform="translate(-80.579 -333.998)" fill="#f66"/>
      </g>
      <g id="Grupo_1099768" data-name="Grupo 1099768" transform="translate(96.247 47.24)">
        <path id="Trazado_873676" data-name="Trazado 873676" d="M256.183,341.439l7.736,16.6a1.965,1.965,0,0,0,1.778,1.132c.04,0,.081,0,.123,0a1.96,1.96,0,0,0,1.744-1.358l2.617-8.156,7.927,3.243a1.961,1.961,0,0,0,2.52-2.642l-7.047-15.126a1.962,1.962,0,0,0-2.4-1.031l-13.842,4.651a1.964,1.964,0,0,0-1.153,2.688Z" transform="translate(-256 -333.998)" fill="#e62e6b"/>
      </g>
      <g id="Grupo_1099769" data-name="Grupo 1099769" transform="translate(69.93 0)">
        <path id="Trazado_873677" data-name="Trazado 873677" d="M96.247,0,105.3,15.134l-9.052,39.32a8.527,8.527,0,0,1-6.013-2.461,4.355,4.355,0,0,0-3.68-1.2,8.576,8.576,0,0,1-9.73-7.069,4.352,4.352,0,0,0-2.273-3.13,8.575,8.575,0,0,1-3.717-11.437,4.359,4.359,0,0,0,0-3.87,8.575,8.575,0,0,1,3.717-11.437,4.352,4.352,0,0,0,2.273-3.13,8.576,8.576,0,0,1,9.73-7.069,4.355,4.355,0,0,0,3.68-1.2A8.527,8.527,0,0,1,96.247,0Z" transform="translate(-69.93 0)" fill="#ffe14d"/>
      </g>
      <path id="Trazado_873678" data-name="Trazado 873678" d="M281.412,29.162A8.575,8.575,0,0,1,277.7,40.6a4.352,4.352,0,0,0-2.273,3.13,8.576,8.576,0,0,1-9.73,7.069,4.355,4.355,0,0,0-3.68,1.2A8.527,8.527,0,0,1,256,54.454V0a8.527,8.527,0,0,1,6.013,2.461A4.358,4.358,0,0,0,265.058,3.7a4.361,4.361,0,0,0,.635-.047,8.576,8.576,0,0,1,9.73,7.069,4.352,4.352,0,0,0,2.273,3.13,8.575,8.575,0,0,1,3.717,11.437A4.359,4.359,0,0,0,281.412,29.162Z" transform="translate(-159.753 0)" fill="#ffc34d"/>
      <g id="Grupo_1099771" data-name="Grupo 1099771" transform="translate(81.467 12.447)">
        <g id="Grupo_1099770" data-name="Grupo 1099770">
          <path id="Trazado_873679" data-name="Trazado 873679" d="M166.28,88v29.561a14.78,14.78,0,1,1,0-29.561Z" transform="translate(-151.5 -88)" fill="#00cf6b"/>
        </g>
      </g>
      <path id="Trazado_873680" data-name="Trazado 873680" d="M270.78,102.78A14.8,14.8,0,0,1,256,117.561V88A14.8,14.8,0,0,1,270.78,102.78Z" transform="translate(-159.753 -75.553)" fill="#00aa8d"/>
      <g id="Grupo_1099773" data-name="Grupo 1099773" transform="translate(89.594 25.379)">
        <g id="Grupo_1099772" data-name="Grupo 1099772">
          <path id="Trazado_873681" data-name="Trazado 873681" d="M215.618,180.48l2.829,2.006-2.829,3.972a2.121,2.121,0,0,1-2.8-.173l-3.228-3.228a2.121,2.121,0,0,1,3-3l1.727,1.727Z" transform="translate(-208.965 -179.435)" fill="#e6e9f2"/>
        </g>
      </g>
      <path id="Trazado_873682" data-name="Trazado 873682" d="M261.72,166.824l-5.523,5.523a1.882,1.882,0,0,1-.2.173v-5.977l2.72-2.72a2.122,2.122,0,0,1,3,3Z" transform="translate(-159.753 -140.119)" fill="#cfd7e6"/>
      <g id="Grupo_1099775" data-name="Grupo 1099775" transform="translate(80.123 11.103)">
        <g id="Grupo_1099774" data-name="Grupo 1099774" transform="translate(0)">
          <path id="Trazado_873683" data-name="Trazado 873683" d="M158.124,82.743l1.7-2.051-1.7-2.192a16.124,16.124,0,0,0,0,32.248l2.122-2.192-2.122-2.051a11.881,11.881,0,0,1,0-23.762Z" transform="translate(-142 -78.5)" fill="#6fe557"/>
        </g>
      </g>
      <path id="Trazado_873684" data-name="Trazado 873684" d="M272.124,94.624A16.142,16.142,0,0,1,256,110.748V106.5a11.881,11.881,0,0,0,0-23.762V78.5A16.142,16.142,0,0,1,272.124,94.624Z" transform="translate(-159.753 -67.397)" fill="#00cf6b"/>
    </g>
  </g>
</svg>
