<svg xmlns="http://www.w3.org/2000/svg" xmlns:xlink="http://www.w3.org/1999/xlink" width="1030" height="236" viewBox="0 0 1030 236">
  <defs>
    <linearGradient id="linear-gradient" x1="0.5" x2="0.5" y2="1" gradientUnits="objectBoundingBox">
      <stop offset="0" stop-color="#cce4ff"/>
      <stop offset="1" stop-color="#d1f3f5"/>
    </linearGradient>
    <clipPath id="clip-path">
      <rect id="Rectángulo_401147" data-name="Rectángulo 401147" width="698.997" height="162.635" fill="none"/>
    </clipPath>
    <clipPath id="clip-path-2">
      <rect id="Rectángulo_401138" data-name="Rectángulo 401138" width="157.802" height="140.022" transform="translate(0 22.613)" fill="none"/>
    </clipPath>
    <clipPath id="clip-path-3">
      <path id="Trazado_874206" data-name="Trazado 874206" d="M157.8,92.624c0,38.666-35.325,70.011-78.9,70.011S0,131.29,0,92.624,35.325,22.613,78.9,22.613s78.9,31.345,78.9,70.011" fill="none"/>
    </clipPath>
    <radialGradient id="radial-gradient" cx="0.5" cy="0.5" r="0.563" gradientTransform="matrix(0.887, 0, 0, -0.887, 0, 1.887)" gradientUnits="objectBoundingBox">
      <stop offset="0" stop-color="#0066b8"/>
      <stop offset="0.248" stop-color="#0066b8"/>
      <stop offset="0.255" stop-color="#0468b9"/>
      <stop offset="0.379" stop-color="#458fcb"/>
      <stop offset="0.501" stop-color="#7eb1db"/>
      <stop offset="0.618" stop-color="#accde7"/>
      <stop offset="0.729" stop-color="#d0e2f1"/>
      <stop offset="0.833" stop-color="#eaf2f9"/>
      <stop offset="0.926" stop-color="#f9fbfd"/>
      <stop offset="1" stop-color="#fff"/>
    </radialGradient>
    <clipPath id="clip-path-4">
      <rect id="Rectángulo_401140" data-name="Rectángulo 401140" width="157.802" height="140.022" transform="translate(137.243 22.613)" fill="none"/>
    </clipPath>
    <clipPath id="clip-path-5">
      <path id="Trazado_874207" data-name="Trazado 874207" d="M295.045,92.624c0,38.666-35.325,70.011-78.9,70.011s-78.9-31.345-78.9-70.011,35.326-70.011,78.9-70.011,78.9,31.345,78.9,70.011" fill="none"/>
    </clipPath>
    <radialGradient id="radial-gradient-2" cx="0.5" cy="0.5" r="0.563" gradientTransform="matrix(0.887, 0, 0, -0.887, -0.098, 1.887)" gradientUnits="objectBoundingBox">
      <stop offset="0" stop-color="#ff9932"/>
      <stop offset="0.248" stop-color="#ff9932"/>
      <stop offset="0.293" stop-color="#ffa346"/>
      <stop offset="0.431" stop-color="#ffbe7d"/>
      <stop offset="0.564" stop-color="#ffd5ac"/>
      <stop offset="0.691" stop-color="#ffe7d0"/>
      <stop offset="0.809" stop-color="#fff4e9"/>
      <stop offset="0.916" stop-color="#fffcf9"/>
      <stop offset="1" stop-color="#fff"/>
    </radialGradient>
    <clipPath id="clip-path-6">
      <rect id="Rectángulo_401142" data-name="Rectángulo 401142" width="157.802" height="140.022" transform="translate(267.263 22.613)" fill="none"/>
    </clipPath>
    <clipPath id="clip-path-7">
      <path id="Trazado_874208" data-name="Trazado 874208" d="M425.065,92.624c0,38.666-35.325,70.011-78.9,70.011s-78.9-31.345-78.9-70.011,35.326-70.011,78.9-70.011,78.9,31.345,78.9,70.011" fill="none"/>
    </clipPath>
    <radialGradient id="radial-gradient-3" cx="0.5" cy="0.5" r="0.563" gradientTransform="matrix(0.887, 0, 0, -0.887, -0.191, 1.887)" gradientUnits="objectBoundingBox">
      <stop offset="0" stop-color="#ff6d3f"/>
      <stop offset="0.248" stop-color="#ff6d3f"/>
      <stop offset="0.265" stop-color="#ff7246"/>
      <stop offset="0.408" stop-color="#ff9c7d"/>
      <stop offset="0.547" stop-color="#ffc0ac"/>
      <stop offset="0.679" stop-color="#ffdbd0"/>
      <stop offset="0.802" stop-color="#ffeee9"/>
      <stop offset="0.912" stop-color="#fffaf9"/>
      <stop offset="1" stop-color="#fff"/>
    </radialGradient>
    <clipPath id="clip-path-8">
      <rect id="Rectángulo_401144" data-name="Rectángulo 401144" width="157.802" height="140.022" transform="translate(404.507 22.613)" fill="none"/>
    </clipPath>
    <clipPath id="clip-path-9">
      <path id="Trazado_874209" data-name="Trazado 874209" d="M562.309,92.624c0,38.666-35.325,70.011-78.9,70.011s-78.9-31.345-78.9-70.011,35.325-70.011,78.9-70.011,78.9,31.345,78.9,70.011" fill="none"/>
    </clipPath>
    <radialGradient id="radial-gradient-4" cx="0.5" cy="0.5" r="0.563" gradientTransform="matrix(0.887, 0, 0, -0.887, -0.289, 1.887)" gradientUnits="objectBoundingBox">
      <stop offset="0" stop-color="#00bfa1"/>
      <stop offset="0.248" stop-color="#00bfa1"/>
      <stop offset="0.254" stop-color="#03bfa2"/>
      <stop offset="0.378" stop-color="#45d0ba"/>
      <stop offset="0.5" stop-color="#7ddecf"/>
      <stop offset="0.618" stop-color="#aceae0"/>
      <stop offset="0.729" stop-color="#d0f3ed"/>
      <stop offset="0.833" stop-color="#e9f9f7"/>
      <stop offset="0.926" stop-color="#f9fdfc"/>
      <stop offset="1" stop-color="#fff"/>
    </radialGradient>
    <clipPath id="clip-path-10">
      <rect id="Rectángulo_401146" data-name="Rectángulo 401146" width="157.803" height="140.022" transform="translate(541.194 22.613)" fill="none"/>
    </clipPath>
    <clipPath id="clip-path-11">
      <path id="Trazado_874210" data-name="Trazado 874210" d="M699,92.624c0,38.666-35.326,70.011-78.9,70.011s-78.9-31.345-78.9-70.011,35.326-70.011,78.9-70.011S699,53.958,699,92.624" fill="none"/>
    </clipPath>
    <radialGradient id="radial-gradient-5" cx="0.5" cy="0.5" r="0.563" gradientTransform="matrix(0.887, 0, 0, -0.887, -0.386, 1.887)" gradientUnits="objectBoundingBox">
      <stop offset="0" stop-color="#002f46"/>
      <stop offset="0.248" stop-color="#002f46"/>
      <stop offset="0.254" stop-color="#033248"/>
      <stop offset="0.379" stop-color="#456778"/>
      <stop offset="0.501" stop-color="#7d95a1"/>
      <stop offset="0.618" stop-color="#acbbc2"/>
      <stop offset="0.729" stop-color="#d0d8dd"/>
      <stop offset="0.833" stop-color="#e9edef"/>
      <stop offset="0.926" stop-color="#f9fafb"/>
      <stop offset="1" stop-color="#fff"/>
    </radialGradient>
    <clipPath id="clip-path-12">
      <rect id="Rectángulo_401154" data-name="Rectángulo 401154" width="253.326" height="224.706" fill="none"/>
    </clipPath>
    <clipPath id="clip-path-14">
      <rect id="Rectángulo_401152" data-name="Rectángulo 401152" width="150.642" height="179.206" fill="none"/>
    </clipPath>
    <clipPath id="clip-path-15">
      <path id="Trazado_874235" data-name="Trazado 874235" d="M217.165,190.264V42.947A15.945,15.945,0,0,0,201.219,27H82.469A15.945,15.945,0,0,0,66.523,42.947V190.264a15.945,15.945,0,0,0,15.946,15.945h118.75a15.945,15.945,0,0,0,15.946-15.945" transform="translate(-66.523 -27.002)" fill="none"/>
    </clipPath>
    <linearGradient id="linear-gradient-2" x1="-0.547" y1="1.067" x2="-0.539" y2="1.067" gradientUnits="objectBoundingBox">
      <stop offset="0" stop-color="#939598"/>
      <stop offset="1" stop-color="#231f20"/>
    </linearGradient>
  </defs>
  <g id="Grupo_1100491" data-name="Grupo 1100491" transform="translate(-285 -854.59)">
    <rect id="Rectángulo_401000" data-name="Rectángulo 401000" width="1030" height="236" transform="translate(285 854.59)" fill="url(#linear-gradient)"/>
    <g id="Grupo_1100120" data-name="Grupo 1100120" transform="translate(321.003 922.772)">
      <g id="Grupo_1100119" data-name="Grupo 1100119" clip-path="url(#clip-path)">
        <g id="Grupo_1100098" data-name="Grupo 1100098" opacity="0.5" style="mix-blend-mode: multiply;isolation: isolate">
          <g id="Grupo_1100097" data-name="Grupo 1100097">
            <g id="Grupo_1100096" data-name="Grupo 1100096" clip-path="url(#clip-path-2)">
              <g id="Grupo_1100095" data-name="Grupo 1100095">
                <g id="Grupo_1100094" data-name="Grupo 1100094" clip-path="url(#clip-path-3)">
                  <rect id="Rectángulo_401137" data-name="Rectángulo 401137" width="157.802" height="140.022" transform="translate(0 22.613)" fill="url(#radial-gradient)"/>
                </g>
              </g>
            </g>
          </g>
        </g>
        <g id="Grupo_1100103" data-name="Grupo 1100103" opacity="0.5" style="mix-blend-mode: multiply;isolation: isolate">
          <g id="Grupo_1100102" data-name="Grupo 1100102">
            <g id="Grupo_1100101" data-name="Grupo 1100101" clip-path="url(#clip-path-4)">
              <g id="Grupo_1100100" data-name="Grupo 1100100">
                <g id="Grupo_1100099" data-name="Grupo 1100099" clip-path="url(#clip-path-5)">
                  <rect id="Rectángulo_401139" data-name="Rectángulo 401139" width="157.802" height="140.022" transform="translate(137.243 22.613)" fill="url(#radial-gradient-2)"/>
                </g>
              </g>
            </g>
          </g>
        </g>
        <g id="Grupo_1100108" data-name="Grupo 1100108" opacity="0.5" style="mix-blend-mode: multiply;isolation: isolate">
          <g id="Grupo_1100107" data-name="Grupo 1100107">
            <g id="Grupo_1100106" data-name="Grupo 1100106" clip-path="url(#clip-path-6)">
              <g id="Grupo_1100105" data-name="Grupo 1100105">
                <g id="Grupo_1100104" data-name="Grupo 1100104" clip-path="url(#clip-path-7)">
                  <rect id="Rectángulo_401141" data-name="Rectángulo 401141" width="157.802" height="140.022" transform="translate(267.263 22.613)" fill="url(#radial-gradient-3)"/>
                </g>
              </g>
            </g>
          </g>
        </g>
        <g id="Grupo_1100113" data-name="Grupo 1100113" opacity="0.5" style="mix-blend-mode: multiply;isolation: isolate">
          <g id="Grupo_1100112" data-name="Grupo 1100112">
            <g id="Grupo_1100111" data-name="Grupo 1100111" clip-path="url(#clip-path-8)">
              <g id="Grupo_1100110" data-name="Grupo 1100110">
                <g id="Grupo_1100109" data-name="Grupo 1100109" clip-path="url(#clip-path-9)">
                  <rect id="Rectángulo_401143" data-name="Rectángulo 401143" width="157.802" height="140.022" transform="translate(404.507 22.613)" fill="url(#radial-gradient-4)"/>
                </g>
              </g>
            </g>
          </g>
        </g>
        <g id="Grupo_1100118" data-name="Grupo 1100118" opacity="0.5" style="mix-blend-mode: multiply;isolation: isolate">
          <g id="Grupo_1100117" data-name="Grupo 1100117">
            <g id="Grupo_1100116" data-name="Grupo 1100116" clip-path="url(#clip-path-10)">
              <g id="Grupo_1100115" data-name="Grupo 1100115">
                <g id="Grupo_1100114" data-name="Grupo 1100114" clip-path="url(#clip-path-11)">
                  <rect id="Rectángulo_401145" data-name="Rectángulo 401145" width="157.803" height="140.022" transform="translate(541.194 22.613)" fill="url(#radial-gradient-5)"/>
                </g>
              </g>
            </g>
          </g>
        </g>
        <path id="Trazado_874211" data-name="Trazado 874211" d="M697.33,50.9l-10.4-8.828V12.991A12.254,12.254,0,0,0,674.672.736H563.759A12.255,12.255,0,0,0,551.5,12.991V88.813a12.255,12.255,0,0,0,12.255,12.255H674.672a12.254,12.254,0,0,0,12.254-12.255V59.73Z" fill="#315884"/>
        <path id="Trazado_874212" data-name="Trazado 874212" d="M674.671,101.8H563.759a13,13,0,0,1-12.99-12.99V12.991A13,13,0,0,1,563.759,0H674.671a13,13,0,0,1,12.991,12.99V41.735l10.8,9.167-10.8,9.168V88.813a13,13,0,0,1-12.991,12.99M563.759,1.471a11.533,11.533,0,0,0-11.52,11.52V88.813a11.533,11.533,0,0,0,11.52,11.52H674.671a11.533,11.533,0,0,0,11.521-11.52V59.39l10-8.488-10-8.487V12.991a11.533,11.533,0,0,0-11.521-11.52Z" fill="#fff"/>
        <path id="Trazado_874213" data-name="Trazado 874213" d="M562.26,50.9l-10.4-8.828V12.991A12.254,12.254,0,0,0,539.6.736H428.689a12.255,12.255,0,0,0-12.255,12.255V88.813a12.255,12.255,0,0,0,12.255,12.255H539.6a12.254,12.254,0,0,0,12.254-12.255V59.73Z" fill="#59c4c8"/>
        <path id="Trazado_874214" data-name="Trazado 874214" d="M539.6,101.8H428.689a13,13,0,0,1-12.99-12.99V12.991A13,13,0,0,1,428.689,0H539.6a13,13,0,0,1,12.99,12.99V41.735L563.4,50.9l-10.8,9.168V88.813A13,13,0,0,1,539.6,101.8M428.689,1.471a11.534,11.534,0,0,0-11.52,11.52V88.813a11.533,11.533,0,0,0,11.52,11.52H539.6a11.533,11.533,0,0,0,11.52-11.52V59.39l10-8.488-10-8.487V12.991A11.533,11.533,0,0,0,539.6,1.471Z" fill="#fff"/>
        <path id="Trazado_874215" data-name="Trazado 874215" d="M427.19,50.9l-10.4-8.828V12.991A12.254,12.254,0,0,0,404.532.736H293.619a12.255,12.255,0,0,0-12.255,12.255V88.813a12.255,12.255,0,0,0,12.255,12.255H404.532a12.254,12.254,0,0,0,12.254-12.255V59.73Z" fill="#fe9b4f"/>
        <path id="Trazado_874216" data-name="Trazado 874216" d="M404.532,101.8H293.62a13,13,0,0,1-12.99-12.99V12.991A13,13,0,0,1,293.62,0H404.532a13,13,0,0,1,12.99,12.99V41.735l10.8,9.167-10.8,9.168V88.813a13,13,0,0,1-12.99,12.99M293.62,1.471a11.534,11.534,0,0,0-11.52,11.52V88.813a11.533,11.533,0,0,0,11.52,11.52H404.532a11.533,11.533,0,0,0,11.52-11.52V59.39l10-8.488-10-8.487V12.991a11.534,11.534,0,0,0-11.52-11.52Z" fill="#fff"/>
        <path id="Trazado_874217" data-name="Trazado 874217" d="M292.121,50.9l-10.4-8.828V12.991A12.255,12.255,0,0,0,269.462.736H158.55a12.255,12.255,0,0,0-12.255,12.255V88.813a12.255,12.255,0,0,0,12.255,12.255H269.462a12.255,12.255,0,0,0,12.255-12.255V59.73Z" fill="#ffb074"/>
        <path id="Trazado_874218" data-name="Trazado 874218" d="M269.462,101.8H158.55a13,13,0,0,1-12.99-12.99V12.991A13,13,0,0,1,158.55,0H269.462a13,13,0,0,1,12.99,12.99V41.735l10.8,9.167-10.8,9.168V88.813a13,13,0,0,1-12.99,12.99M158.55,1.471a11.534,11.534,0,0,0-11.52,11.52V88.813a11.533,11.533,0,0,0,11.52,11.52H269.462a11.533,11.533,0,0,0,11.52-11.52V59.39l10-8.488-10-8.487V12.991a11.534,11.534,0,0,0-11.52-11.52Z" fill="#fff"/>
        <path id="Trazado_874219" data-name="Trazado 874219" d="M157.051,50.9l-10.4-8.828V12.991A12.255,12.255,0,0,0,134.392.736H23.48A12.255,12.255,0,0,0,11.225,12.991V88.813A12.255,12.255,0,0,0,23.48,101.068H134.392a12.255,12.255,0,0,0,12.255-12.255V59.73Z" fill="#3656b3"/>
        <path id="Trazado_874220" data-name="Trazado 874220" d="M134.393,101.8H23.48a13,13,0,0,1-12.99-12.99V12.991A13,13,0,0,1,23.48,0H134.393a13,13,0,0,1,12.99,12.99V41.735l10.8,9.167-10.8,9.168V88.813a13,13,0,0,1-12.99,12.99M23.48,1.471a11.533,11.533,0,0,0-11.52,11.52V88.813a11.533,11.533,0,0,0,11.52,11.52H134.393a11.533,11.533,0,0,0,11.52-11.52V59.39l10-8.488-10-8.487V12.991a11.533,11.533,0,0,0-11.52-11.52Z" fill="#fff"/>
      </g>
    </g>
    <g id="Grupo_1100487" data-name="Grupo 1100487" transform="translate(0 -1.184)">
      <path id="Trazado_874808" data-name="Trazado 874808" d="M8.257,12.491V17H5.621V4.2h4.992a5.776,5.776,0,0,1,2.536.527,3.886,3.886,0,0,1,1.683,1.5,4.178,4.178,0,0,1,.589,2.21,3.674,3.674,0,0,1-1.288,2.966,5.363,5.363,0,0,1-3.564,1.085Zm0-2.136h2.355a2.316,2.316,0,0,0,1.6-.492,1.79,1.79,0,0,0,.549-1.406A2.111,2.111,0,0,0,12.2,6.937a2.068,2.068,0,0,0-1.529-.6H8.257Zm14.15-.483a6.9,6.9,0,0,0-.914-.07,1.86,1.86,0,0,0-1.89.976V17h-2.54V7.49h2.4l.07,1.134a2.354,2.354,0,0,1,2.118-1.31,2.662,2.662,0,0,1,.791.114Zm.51,2.285a5.64,5.64,0,0,1,.545-2.522,3.989,3.989,0,0,1,1.569-1.714,4.577,4.577,0,0,1,2.377-.606,4.33,4.33,0,0,1,3.142,1.178,4.727,4.727,0,0,1,1.358,3.2l.018.65A4.97,4.97,0,0,1,30.7,15.853a4.247,4.247,0,0,1-3.278,1.323,4.268,4.268,0,0,1-3.283-1.318,5.058,5.058,0,0,1-1.226-3.586Zm2.54.18a3.555,3.555,0,0,0,.51,2.073,1.831,1.831,0,0,0,2.9.009,3.89,3.89,0,0,0,.519-2.267,3.519,3.519,0,0,0-.519-2.06,1.686,1.686,0,0,0-1.459-.731,1.658,1.658,0,0,0-1.441.726A3.955,3.955,0,0,0,25.458,12.338Zm11.988,2.79a1.666,1.666,0,0,0,1.143-.387,1.355,1.355,0,0,0,.457-1.028h2.382a3.258,3.258,0,0,1-.527,1.771,3.48,3.48,0,0,1-1.419,1.248,4.442,4.442,0,0,1-1.991.444,4.129,4.129,0,0,1-3.217-1.3A5.13,5.13,0,0,1,33.1,12.3v-.167a5.071,5.071,0,0,1,1.169-3.507,4.08,4.08,0,0,1,3.208-1.31A4,4,0,0,1,40.333,8.33a3.594,3.594,0,0,1,1.094,2.7H39.045a1.745,1.745,0,0,0-.457-1.206,1.7,1.7,0,0,0-2.5.183,3.749,3.749,0,0,0-.453,2.1v.264a3.8,3.8,0,0,0,.448,2.113A1.549,1.549,0,0,0,37.446,15.128Zm9.809,2.048a4.668,4.668,0,0,1-3.406-1.283,4.561,4.561,0,0,1-1.314-3.419v-.246a5.745,5.745,0,0,1,.554-2.562,4.064,4.064,0,0,1,1.569-1.74,4.4,4.4,0,0,1,2.316-.611,3.947,3.947,0,0,1,3.072,1.23,5,5,0,0,1,1.121,3.489v1.037H45.11a2.36,2.36,0,0,0,.743,1.494,2.245,2.245,0,0,0,1.569.563,2.742,2.742,0,0,0,2.294-1.063l1.248,1.4a3.813,3.813,0,0,1-1.547,1.261A5.075,5.075,0,0,1,47.254,17.176Zm-.29-7.813a1.587,1.587,0,0,0-1.226.512,2.651,2.651,0,0,0-.6,1.466h3.533v-.2a1.891,1.891,0,0,0-.457-1.311A1.638,1.638,0,0,0,46.964,9.362Zm10.793,5.01a.818.818,0,0,0-.461-.734,5.241,5.241,0,0,0-1.481-.479q-3.393-.712-3.393-2.883a2.613,2.613,0,0,1,1.05-2.114,4.237,4.237,0,0,1,2.747-.848,4.56,4.56,0,0,1,2.9.853A2.687,2.687,0,0,1,60.2,10.382h-2.54a1.229,1.229,0,0,0-.352-.9,1.488,1.488,0,0,0-1.1-.356,1.52,1.52,0,0,0-.993.29.916.916,0,0,0-.352.738.783.783,0,0,0,.4.681,4.114,4.114,0,0,0,1.349.448,11.019,11.019,0,0,1,1.6.426,2.628,2.628,0,0,1,2.013,2.558,2.481,2.481,0,0,1-1.116,2.1,4.815,4.815,0,0,1-2.883.8,5.029,5.029,0,0,1-2.123-.426,3.561,3.561,0,0,1-1.455-1.169,2.716,2.716,0,0,1-.527-1.6h2.408a1.326,1.326,0,0,0,.5,1.037,1.987,1.987,0,0,0,1.248.36,1.839,1.839,0,0,0,1.1-.277A.861.861,0,0,0,57.757,14.372Zm3.709-2.215a5.64,5.64,0,0,1,.545-2.522A3.989,3.989,0,0,1,63.58,7.921a4.577,4.577,0,0,1,2.377-.606A4.33,4.33,0,0,1,69.1,8.492a4.727,4.727,0,0,1,1.358,3.2l.018.65a4.97,4.97,0,0,1-1.222,3.511,4.735,4.735,0,0,1-6.561,0,5.058,5.058,0,0,1-1.226-3.586Zm2.54.18a3.555,3.555,0,0,0,.51,2.073,1.831,1.831,0,0,0,2.9.009,3.89,3.89,0,0,0,.519-2.267,3.519,3.519,0,0,0-.519-2.06,1.686,1.686,0,0,0-1.459-.731,1.658,1.658,0,0,0-1.441.726A3.955,3.955,0,0,0,64.006,12.338Zm12.12-.163a5.731,5.731,0,0,1,1-3.542,3.237,3.237,0,0,1,2.729-1.318,2.913,2.913,0,0,1,2.294,1.037V3.5H84.7V17H82.4l-.123-1.011a2.989,2.989,0,0,1-2.443,1.187,3.228,3.228,0,0,1-2.694-1.323A5.916,5.916,0,0,1,76.126,12.175Zm2.54.189a3.754,3.754,0,0,0,.466,2.051,1.517,1.517,0,0,0,1.354.713,1.7,1.7,0,0,0,1.661-.995V10.375A1.675,1.675,0,0,0,80.5,9.38Q78.667,9.38,78.667,12.364Zm12.375,4.812a4.668,4.668,0,0,1-3.406-1.283,4.561,4.561,0,0,1-1.314-3.419v-.246a5.745,5.745,0,0,1,.554-2.562,4.064,4.064,0,0,1,1.569-1.74,4.4,4.4,0,0,1,2.316-.611,3.947,3.947,0,0,1,3.072,1.23,5,5,0,0,1,1.121,3.489v1.037H88.9a2.36,2.36,0,0,0,.743,1.494,2.245,2.245,0,0,0,1.569.563A2.742,2.742,0,0,0,93.5,14.064l1.248,1.4A3.813,3.813,0,0,1,93.2,16.723,5.075,5.075,0,0,1,91.042,17.176Zm-.29-7.813a1.587,1.587,0,0,0-1.226.512,2.651,2.651,0,0,0-.6,1.466h3.533v-.2A1.891,1.891,0,0,0,92,9.826,1.638,1.638,0,0,0,90.751,9.362ZM103.557,17h-2.549V3.5h2.549Zm7.6,0a2.821,2.821,0,0,1-.255-.853,3.073,3.073,0,0,1-2.4,1.028,3.376,3.376,0,0,1-2.316-.809,2.6,2.6,0,0,1-.918-2.039,2.687,2.687,0,0,1,1.121-2.32,5.529,5.529,0,0,1,3.239-.817H110.8v-.545a1.567,1.567,0,0,0-.338-1.055,1.331,1.331,0,0,0-1.068-.4,1.513,1.513,0,0,0-1.006.308,1.045,1.045,0,0,0-.365.844h-2.54a2.551,2.551,0,0,1,.51-1.529,3.37,3.37,0,0,1,1.441-1.1,5.253,5.253,0,0,1,2.092-.4,4.15,4.15,0,0,1,2.791.883,3.09,3.09,0,0,1,1.033,2.483V14.8a4.546,4.546,0,0,0,.378,2.048V17Zm-2.1-1.767a2.188,2.188,0,0,0,1.037-.25,1.645,1.645,0,0,0,.7-.672V12.676h-.949q-1.907,0-2.03,1.318l-.009.149a1.017,1.017,0,0,0,.334.782A1.3,1.3,0,0,0,109.059,15.233Zm15.1,1.942a4.668,4.668,0,0,1-3.406-1.283,4.561,4.561,0,0,1-1.314-3.419v-.246a5.745,5.745,0,0,1,.554-2.562,4.064,4.064,0,0,1,1.569-1.74,4.4,4.4,0,0,1,2.316-.611,3.947,3.947,0,0,1,3.072,1.23,5,5,0,0,1,1.121,3.489v1.037h-6.056a2.36,2.36,0,0,0,.743,1.494,2.245,2.245,0,0,0,1.569.563,2.742,2.742,0,0,0,2.294-1.063l1.248,1.4a3.813,3.813,0,0,1-1.547,1.261A5.075,5.075,0,0,1,124.159,17.176Zm-.29-7.813a1.587,1.587,0,0,0-1.226.512,2.651,2.651,0,0,0-.6,1.466h3.533v-.2a1.891,1.891,0,0,0-.457-1.311A1.638,1.638,0,0,0,123.869,9.362ZM132.192,17h-2.549V3.5h2.549Zm7.6,0a2.821,2.821,0,0,1-.255-.853,3.073,3.073,0,0,1-2.4,1.028,3.376,3.376,0,0,1-2.316-.809,2.6,2.6,0,0,1-.918-2.039,2.687,2.687,0,0,1,1.121-2.32,5.529,5.529,0,0,1,3.239-.817h1.169v-.545a1.567,1.567,0,0,0-.338-1.055,1.331,1.331,0,0,0-1.068-.4,1.513,1.513,0,0,0-1.006.308,1.045,1.045,0,0,0-.365.844h-2.54a2.551,2.551,0,0,1,.51-1.529,3.37,3.37,0,0,1,1.441-1.1,5.253,5.253,0,0,1,2.092-.4,4.15,4.15,0,0,1,2.791.883,3.09,3.09,0,0,1,1.033,2.483V14.8a4.546,4.546,0,0,0,.378,2.048V17Zm-2.1-1.767a2.188,2.188,0,0,0,1.037-.25,1.645,1.645,0,0,0,.7-.672V12.676h-.949q-1.907,0-2.03,1.318l-.009.149a1.017,1.017,0,0,0,.334.782A1.3,1.3,0,0,0,137.694,15.233Zm14.81-2.9a5.758,5.758,0,0,1-.976,3.564,3.231,3.231,0,0,1-2.725,1.279,2.969,2.969,0,0,1-2.47-1.187L146.219,17h-2.285V3.5h2.54V8.343a2.893,2.893,0,0,1,2.312-1.028,3.258,3.258,0,0,1,2.729,1.279,5.767,5.767,0,0,1,.989,3.6Zm-2.54-.185a3.783,3.783,0,0,0-.457-2.1,1.545,1.545,0,0,0-1.362-.664,1.676,1.676,0,0,0-1.67.993v3.753a1.7,1.7,0,0,0,1.688,1,1.568,1.568,0,0,0,1.617-1.213A6.257,6.257,0,0,0,149.963,12.148Zm3.709.009a5.64,5.64,0,0,1,.545-2.522,3.989,3.989,0,0,1,1.569-1.714,4.577,4.577,0,0,1,2.377-.606,4.33,4.33,0,0,1,3.142,1.178,4.727,4.727,0,0,1,1.358,3.2l.018.65a4.97,4.97,0,0,1-1.222,3.511,4.735,4.735,0,0,1-6.561,0,5.058,5.058,0,0,1-1.226-3.586Zm2.54.18a3.555,3.555,0,0,0,.51,2.073,1.831,1.831,0,0,0,2.9.009,3.89,3.89,0,0,0,.519-2.267,3.519,3.519,0,0,0-.519-2.06,1.686,1.686,0,0,0-1.459-.731,1.658,1.658,0,0,0-1.441.726A3.955,3.955,0,0,0,156.212,12.338Zm13.377-2.465a6.9,6.9,0,0,0-.914-.07,1.86,1.86,0,0,0-1.89.976V17h-2.54V7.49h2.4l.07,1.134a2.354,2.354,0,0,1,2.118-1.31,2.662,2.662,0,0,1,.791.114ZM176.058,17a2.821,2.821,0,0,1-.255-.853,3.073,3.073,0,0,1-2.4,1.028,3.376,3.376,0,0,1-2.316-.809,2.6,2.6,0,0,1-.918-2.039,2.687,2.687,0,0,1,1.121-2.32,5.529,5.529,0,0,1,3.239-.817H175.7v-.545a1.567,1.567,0,0,0-.338-1.055,1.331,1.331,0,0,0-1.068-.4,1.513,1.513,0,0,0-1.006.308,1.045,1.045,0,0,0-.365.844h-2.54a2.551,2.551,0,0,1,.51-1.529,3.37,3.37,0,0,1,1.441-1.1,5.253,5.253,0,0,1,2.092-.4,4.15,4.15,0,0,1,2.791.883,3.09,3.09,0,0,1,1.033,2.483V14.8a4.546,4.546,0,0,0,.378,2.048V17Zm-2.1-1.767a2.188,2.188,0,0,0,1.037-.25,1.645,1.645,0,0,0,.7-.672V12.676h-.949q-1.907,0-2.03,1.318l-.009.149a1.017,1.017,0,0,0,.334.782A1.3,1.3,0,0,0,173.958,15.233Zm10.2-.105a1.666,1.666,0,0,0,1.143-.387,1.355,1.355,0,0,0,.457-1.028h2.382a3.258,3.258,0,0,1-.527,1.771,3.48,3.48,0,0,1-1.419,1.248,4.442,4.442,0,0,1-1.991.444,4.129,4.129,0,0,1-3.217-1.3A5.13,5.13,0,0,1,179.8,12.3v-.167a5.071,5.071,0,0,1,1.169-3.507,4.08,4.08,0,0,1,3.208-1.31A4,4,0,0,1,187.04,8.33a3.594,3.594,0,0,1,1.094,2.7h-2.382a1.745,1.745,0,0,0-.457-1.206,1.7,1.7,0,0,0-2.5.183,3.749,3.749,0,0,0-.453,2.1v.264a3.8,3.8,0,0,0,.448,2.113A1.549,1.549,0,0,0,184.153,15.128ZM192.265,17h-2.549V7.49h2.549Zm-2.7-11.971a1.251,1.251,0,0,1,.382-.94,1.648,1.648,0,0,1,2.079,0,1.244,1.244,0,0,1,.387.94,1.247,1.247,0,0,1-.391.949,1.629,1.629,0,0,1-2.065,0A1.247,1.247,0,0,1,189.567,5.029Zm4.395,7.128a5.64,5.64,0,0,1,.545-2.522,3.989,3.989,0,0,1,1.569-1.714,4.577,4.577,0,0,1,2.377-.606,4.33,4.33,0,0,1,3.142,1.178,4.727,4.727,0,0,1,1.358,3.2l.018.65a4.97,4.97,0,0,1-1.222,3.511,4.735,4.735,0,0,1-6.561,0,5.058,5.058,0,0,1-1.226-3.586Zm2.54.18a3.555,3.555,0,0,0,.51,2.073,1.831,1.831,0,0,0,2.9.009,3.89,3.89,0,0,0,.519-2.267,3.519,3.519,0,0,0-.519-2.06,1.686,1.686,0,0,0-1.459-.731,1.658,1.658,0,0,0-1.441.726A3.955,3.955,0,0,0,196.5,12.338ZM198.954,3.5h2.769l-2.435,2.725h-2.065Zm7.919,3.99.079,1.1a3.32,3.32,0,0,1,2.733-1.274,2.759,2.759,0,0,1,2.25.888,4.142,4.142,0,0,1,.756,2.654V17h-2.54V10.918a1.648,1.648,0,0,0-.352-1.173,1.574,1.574,0,0,0-1.169-.365,1.747,1.747,0,0,0-1.608.914V17h-2.54V7.49Zm11.83,4.685a5.731,5.731,0,0,1,1-3.542,3.237,3.237,0,0,1,2.729-1.318,2.913,2.913,0,0,1,2.294,1.037V3.5h2.549V17h-2.294l-.123-1.011a2.989,2.989,0,0,1-2.443,1.187,3.228,3.228,0,0,1-2.694-1.323A5.916,5.916,0,0,1,218.7,12.175Zm2.54.189a3.754,3.754,0,0,0,.466,2.051,1.517,1.517,0,0,0,1.354.713,1.7,1.7,0,0,0,1.661-.995V10.375a1.675,1.675,0,0,0-1.644-.995Q221.243,9.38,221.243,12.364Zm12.375,4.812a4.668,4.668,0,0,1-3.406-1.283,4.561,4.561,0,0,1-1.314-3.419v-.246a5.745,5.745,0,0,1,.554-2.562,4.064,4.064,0,0,1,1.569-1.74,4.4,4.4,0,0,1,2.316-.611,3.947,3.947,0,0,1,3.072,1.23,5,5,0,0,1,1.121,3.489v1.037h-6.056a2.36,2.36,0,0,0,.743,1.494,2.245,2.245,0,0,0,1.569.563,2.742,2.742,0,0,0,2.294-1.063l1.248,1.4a3.813,3.813,0,0,1-1.547,1.261A5.075,5.075,0,0,1,233.618,17.176Zm-.29-7.813a1.587,1.587,0,0,0-1.226.512,2.651,2.651,0,0,0-.6,1.466h3.533v-.2a1.891,1.891,0,0,0-.457-1.311A1.638,1.638,0,0,0,233.328,9.362ZM241.651,17H239.1V3.5h2.549Zm15.135-4.667a5.7,5.7,0,0,1-1,3.52,3.2,3.2,0,0,1-2.694,1.323,2.963,2.963,0,0,1-2.329-1v4.482h-2.54V7.49h2.355l.088.932a2.985,2.985,0,0,1,2.408-1.107,3.22,3.22,0,0,1,2.733,1.3,5.858,5.858,0,0,1,.976,3.586Zm-2.54-.185a3.743,3.743,0,0,0-.47-2.048,1.532,1.532,0,0,0-1.367-.721,1.663,1.663,0,0,0-1.644.914v3.894a1.692,1.692,0,0,0,1.661.94Q254.246,15.128,254.246,12.148ZM261.04,17h-2.549V3.5h2.549Zm7.6,0a2.821,2.821,0,0,1-.255-.853,3.073,3.073,0,0,1-2.4,1.028,3.376,3.376,0,0,1-2.316-.809,2.6,2.6,0,0,1-.918-2.039,2.687,2.687,0,0,1,1.121-2.32,5.529,5.529,0,0,1,3.239-.817h1.169v-.545a1.567,1.567,0,0,0-.338-1.055,1.331,1.331,0,0,0-1.068-.4,1.513,1.513,0,0,0-1.006.308,1.045,1.045,0,0,0-.365.844h-2.54a2.551,2.551,0,0,1,.51-1.529,3.37,3.37,0,0,1,1.441-1.1,5.253,5.253,0,0,1,2.092-.4A4.15,4.15,0,0,1,269.8,8.2a3.09,3.09,0,0,1,1.033,2.483V14.8a4.546,4.546,0,0,0,.378,2.048V17Zm-2.1-1.767a2.188,2.188,0,0,0,1.037-.25,1.645,1.645,0,0,0,.7-.672V12.676h-.949q-1.907,0-2.03,1.318l-.009.149a1.017,1.017,0,0,0,.334.782A1.3,1.3,0,0,0,266.542,15.233ZM275.12,7.49l.079,1.1a3.32,3.32,0,0,1,2.733-1.274,2.759,2.759,0,0,1,2.25.888,4.142,4.142,0,0,1,.756,2.654V17H278.4V10.918a1.648,1.648,0,0,0-.352-1.173,1.574,1.574,0,0,0-1.169-.365,1.747,1.747,0,0,0-1.608.914V17h-2.54V7.49Zm11.83,4.685a5.731,5.731,0,0,1,1-3.542,3.237,3.237,0,0,1,2.729-1.318,2.913,2.913,0,0,1,2.294,1.037V3.5h2.549V17h-2.294l-.123-1.011a2.989,2.989,0,0,1-2.443,1.187,3.228,3.228,0,0,1-2.694-1.323A5.916,5.916,0,0,1,286.95,12.175Zm2.54.189a3.754,3.754,0,0,0,.466,2.051,1.517,1.517,0,0,0,1.354.713,1.7,1.7,0,0,0,1.661-.995V10.375a1.675,1.675,0,0,0-1.644-.995Q289.49,9.38,289.49,12.364Zm12.375,4.812a4.668,4.668,0,0,1-3.406-1.283,4.561,4.561,0,0,1-1.314-3.419v-.246a5.745,5.745,0,0,1,.554-2.562,4.064,4.064,0,0,1,1.569-1.74,4.4,4.4,0,0,1,2.316-.611,3.947,3.947,0,0,1,3.072,1.23,5,5,0,0,1,1.121,3.489v1.037H299.72a2.36,2.36,0,0,0,.743,1.494,2.245,2.245,0,0,0,1.569.563,2.742,2.742,0,0,0,2.294-1.063l1.248,1.4a3.813,3.813,0,0,1-1.547,1.261A5.075,5.075,0,0,1,301.865,17.176Zm-.29-7.813a1.587,1.587,0,0,0-1.226.512,2.651,2.651,0,0,0-.6,1.466h3.533v-.2a1.891,1.891,0,0,0-.457-1.311A1.638,1.638,0,0,0,301.575,9.362ZM314.082,7.49l.079,1.063a3.342,3.342,0,0,1,2.733-1.239,2.536,2.536,0,0,1,2.522,1.45,3.265,3.265,0,0,1,2.856-1.45,2.836,2.836,0,0,1,2.3.9,4.141,4.141,0,0,1,.756,2.711V17h-2.549V10.936a1.811,1.811,0,0,0-.316-1.182,1.4,1.4,0,0,0-1.116-.374,1.585,1.585,0,0,0-1.582,1.09l.009,6.53h-2.54V10.944a1.789,1.789,0,0,0-.325-1.2A1.416,1.416,0,0,0,315.8,9.38a1.646,1.646,0,0,0-1.564.9V17H311.7V7.49Zm17.578,9.686a4.668,4.668,0,0,1-3.406-1.283,4.561,4.561,0,0,1-1.314-3.419v-.246a5.745,5.745,0,0,1,.554-2.562,4.064,4.064,0,0,1,1.569-1.74,4.4,4.4,0,0,1,2.316-.611,3.947,3.947,0,0,1,3.072,1.23,5,5,0,0,1,1.121,3.489v1.037h-6.056a2.36,2.36,0,0,0,.743,1.494,2.245,2.245,0,0,0,1.569.563,2.742,2.742,0,0,0,2.294-1.063l1.248,1.4a3.813,3.813,0,0,1-1.547,1.261A5.075,5.075,0,0,1,331.66,17.176Zm-.29-7.813a1.587,1.587,0,0,0-1.226.512,2.651,2.651,0,0,0-.6,1.466h3.533v-.2a1.891,1.891,0,0,0-.457-1.311A1.638,1.638,0,0,0,331.37,9.362Zm10.986.51a6.9,6.9,0,0,0-.914-.07,1.86,1.86,0,0,0-1.89.976V17h-2.54V7.49h2.4l.07,1.134a2.354,2.354,0,0,1,2.118-1.31,2.662,2.662,0,0,1,.791.114Zm5.01,5.256a1.666,1.666,0,0,0,1.143-.387,1.355,1.355,0,0,0,.457-1.028h2.382a3.258,3.258,0,0,1-.527,1.771,3.48,3.48,0,0,1-1.419,1.248,4.442,4.442,0,0,1-1.991.444,4.129,4.129,0,0,1-3.217-1.3,5.13,5.13,0,0,1-1.178-3.582v-.167a5.071,5.071,0,0,1,1.169-3.507,4.08,4.08,0,0,1,3.208-1.31,4,4,0,0,1,2.861,1.015,3.594,3.594,0,0,1,1.094,2.7h-2.382a1.745,1.745,0,0,0-.457-1.206,1.7,1.7,0,0,0-2.5.183,3.749,3.749,0,0,0-.453,2.1v.264A3.8,3.8,0,0,0,346,14.485,1.549,1.549,0,0,0,347.366,15.128ZM358.308,17a2.821,2.821,0,0,1-.255-.853,3.073,3.073,0,0,1-2.4,1.028,3.376,3.376,0,0,1-2.316-.809,2.6,2.6,0,0,1-.918-2.039,2.687,2.687,0,0,1,1.121-2.32,5.529,5.529,0,0,1,3.239-.817h1.169v-.545a1.567,1.567,0,0,0-.338-1.055,1.331,1.331,0,0,0-1.068-.4,1.513,1.513,0,0,0-1.006.308,1.045,1.045,0,0,0-.365.844h-2.54a2.551,2.551,0,0,1,.51-1.529,3.37,3.37,0,0,1,1.441-1.1,5.253,5.253,0,0,1,2.092-.4,4.15,4.15,0,0,1,2.791.883,3.09,3.09,0,0,1,1.033,2.483V14.8a4.546,4.546,0,0,0,.378,2.048V17Zm-2.1-1.767a2.188,2.188,0,0,0,1.037-.25,1.645,1.645,0,0,0,.7-.672V12.676H357q-1.907,0-2.03,1.318l-.009.149a1.017,1.017,0,0,0,.334.782A1.3,1.3,0,0,0,356.208,15.233Zm5.845-3.059a5.731,5.731,0,0,1,1-3.542,3.237,3.237,0,0,1,2.729-1.318,2.913,2.913,0,0,1,2.294,1.037V3.5h2.549V17h-2.294l-.123-1.011a2.989,2.989,0,0,1-2.443,1.187,3.228,3.228,0,0,1-2.694-1.323A5.916,5.916,0,0,1,362.052,12.175Zm2.54.189a3.754,3.754,0,0,0,.466,2.051,1.517,1.517,0,0,0,1.354.713,1.7,1.7,0,0,0,1.661-.995V10.375a1.675,1.675,0,0,0-1.644-.995Q364.592,9.38,364.592,12.364Zm12.375,4.812a4.668,4.668,0,0,1-3.406-1.283,4.561,4.561,0,0,1-1.314-3.419v-.246a5.745,5.745,0,0,1,.554-2.562,4.064,4.064,0,0,1,1.569-1.74,4.4,4.4,0,0,1,2.316-.611,3.947,3.947,0,0,1,3.072,1.23,5,5,0,0,1,1.121,3.489v1.037h-6.056a2.36,2.36,0,0,0,.743,1.494,2.245,2.245,0,0,0,1.569.563,2.742,2.742,0,0,0,2.294-1.063l1.248,1.4a3.813,3.813,0,0,1-1.547,1.261A5.075,5.075,0,0,1,376.967,17.176Zm-.29-7.813a1.587,1.587,0,0,0-1.226.512,2.651,2.651,0,0,0-.6,1.466h3.533v-.2a1.891,1.891,0,0,0-.457-1.311A1.638,1.638,0,0,0,376.677,9.362Zm5.247,2.795a5.64,5.64,0,0,1,.545-2.522,3.989,3.989,0,0,1,1.569-1.714,4.577,4.577,0,0,1,2.377-.606,4.33,4.33,0,0,1,3.142,1.178,4.727,4.727,0,0,1,1.358,3.2l.018.65a4.97,4.97,0,0,1-1.222,3.511,4.735,4.735,0,0,1-6.561,0,5.058,5.058,0,0,1-1.226-3.586Zm2.54.18a3.555,3.555,0,0,0,.51,2.073,1.831,1.831,0,0,0,2.9.009,3.89,3.89,0,0,0,.519-2.267,3.519,3.519,0,0,0-.519-2.06,1.686,1.686,0,0,0-1.459-.731,1.658,1.658,0,0,0-1.441.726A3.955,3.955,0,0,0,384.464,12.338Z" transform="translate(330 882)" fill="#12263f"/>
      <text id="Objetivos" transform="translate(356.677 971.551)" fill="#fff" font-size="16" font-family="Roboto-Bold, Roboto" font-weight="700"><tspan x="0" y="0">Objeti</tspan><tspan y="0" letter-spacing="-0.007em">v</tspan><tspan y="0">os</tspan></text>
      <text id="comerciales" transform="translate(356.677 989.551)" fill="#fff" font-size="16" font-family="Roboto-Bold, Roboto" font-weight="700"><tspan x="0" y="0">come</tspan><tspan y="0" letter-spacing="-0.009em">r</tspan><tspan y="0">ciales</tspan></text>
      <text id="Oportunidades" transform="translate(487.253 971.551)" fill="#12263f" font-size="16" font-family="Roboto-Bold, Roboto" font-weight="700"><tspan x="0" y="0">Opo</tspan><tspan y="0" letter-spacing="0.025em">r</tspan><tspan y="0">tunidades</tspan></text>
      <text id="de_mercado" data-name="de mercado" transform="translate(487.253 989.551)" fill="#12263f" font-size="16" font-family="Roboto-Bold, Roboto" font-weight="700"><tspan x="0" y="0">de me</tspan><tspan y="0" letter-spacing="-0.01em">r</tspan><tspan y="0">cado</tspan></text>
      <text id="Alineación" transform="translate(636.341 971.551)" fill="#12263f" font-size="16" font-family="Roboto-Bold, Roboto" font-weight="700"><tspan x="0" y="0">Alineación</tspan></text>
      <text id="de_recursos" data-name="de recursos" transform="translate(636.341 989.551)" fill="#12263f" font-size="16" font-family="Roboto-Bold, Roboto" font-weight="700"><tspan x="0" y="0">de </tspan><tspan y="0" letter-spacing="-0.009em">r</tspan><tspan y="0">ecursos</tspan></text>
      <text id="Planificación" transform="translate(763.669 971.551)" fill="#12263f" font-size="16" font-family="Roboto-Bold, Roboto" font-weight="700"><tspan x="0" y="0">Planificaci</tspan><tspan y="0" letter-spacing="0.002em">ó</tspan><tspan y="0">n</tspan></text>
      <text id="estratégica" transform="translate(763.669 989.551)" fill="#12263f" font-size="16" font-family="Roboto-Bold, Roboto" font-weight="700"><tspan x="0" y="0">est</tspan><tspan y="0" letter-spacing="-0.015em">r</tspan><tspan y="0">atégica</tspan></text>
      <text id="Definición" transform="translate(900.229 971.551)" fill="#fff" font-size="16" font-family="Roboto-Bold, Roboto" font-weight="700"><tspan x="0" y="0">Definición</tspan></text>
      <text id="de_acciones" data-name="de acciones" transform="translate(900.229 989.551)" fill="#fff" font-size="16" font-family="Roboto-Bold, Roboto" font-weight="700"><tspan x="0" y="0">de acciones</tspan></text>
    </g>
    <rect id="Rectángulo_401148" data-name="Rectángulo 401148" width="698.997" height="162.635" transform="translate(321.003 922.772)" fill="none"/>
    <g id="Grupo_1100130" data-name="Grupo 1100130" transform="translate(1037.052 859.527)">
      <g id="Grupo_1100137" data-name="Grupo 1100137" clip-path="url(#clip-path-12)">
        <g id="Grupo_1100136" data-name="Grupo 1100136">
          <g id="Grupo_1100135" data-name="Grupo 1100135" clip-path="url(#clip-path-12)">
            <path id="Trazado_874231" data-name="Trazado 874231" d="M3.1,177.481C-11.791,125.631,31.82,105.5,31.82,105.5,23.175,7.754,104.529-6.5,148.436,2.141c54.409,10.7,72.085,52.5,72.085,140.908,0,50.958-6.142,66.721-69.556,66.721C59.3,209.77,13.13,212.411,3.1,177.481" transform="translate(0 0)" fill="#85b6ec"/>
            <path id="Trazado_874232" data-name="Trazado 874232" d="M217.165,190.264V42.947A15.945,15.945,0,0,0,201.22,27H82.469A15.945,15.945,0,0,0,66.523,42.947V190.264a15.945,15.945,0,0,0,15.946,15.945H201.22a15.945,15.945,0,0,0,15.945-15.945" transform="translate(15.932 6.467)" fill="#3180b5"/>
            <path id="Trazado_874233" data-name="Trazado 874233" d="M196.366,42.947V186.864C147.132,121.143,153.656,27,153.656,27h26.764a15.945,15.945,0,0,1,15.945,15.945" transform="translate(36.732 6.467)" fill="#0dba98"/>
            <path id="Trazado_874234" data-name="Trazado 874234" d="M175.075,108.556a.841.841,0,0,1-.832-.721c-1.195-8.3-1.208-24.807-1.208-25.506a.84.84,0,0,1,1.681,0c0,.171.014,17.083,1.192,25.267a.841.841,0,0,1-.713.952.784.784,0,0,1-.12.009" transform="translate(41.441 19.516)" fill="#068970"/>
            <g id="Grupo_1100134" data-name="Grupo 1100134" transform="translate(82.455 33.469)" opacity="0.5" style="mix-blend-mode: soft-light;isolation: isolate">
              <g id="Grupo_1100133" data-name="Grupo 1100133">
                <g id="Grupo_1100132" data-name="Grupo 1100132" clip-path="url(#clip-path-14)">
                  <g id="Grupo_1100131" data-name="Grupo 1100131" transform="translate(0 0)">
                    <g id="Grupo_1100130-2" data-name="Grupo 1100130" clip-path="url(#clip-path-15)">
                      <rect id="Rectángulo_401151" data-name="Rectángulo 401151" width="150.642" height="179.206" transform="translate(0 0)" fill="url(#linear-gradient-2)"/>
                    </g>
                  </g>
                </g>
              </g>
            </g>
            <path id="Trazado_874236" data-name="Trazado 874236" d="M137.716,130.934c-21.128,20.4-39.453,32.532-70.675,26.671-29.362-5.512-42.335-40.25-42.2-76.09l31.76-1.59c1.567,16.308,8.773,33.866,21.009,36.1,15.4,2.811,31.015-7.865,41.754-18.852Z" transform="translate(5.949 19.142)" fill="#315884"/>
            <path id="Trazado_874237" data-name="Trazado 874237" d="M86.923,120.834a47.626,47.626,0,0,1,1.544-14.114A80.658,80.658,0,0,0,104.5,93.84L122.852,127.6c-10.134,9.786-19.624,17.667-30.2,22.574l-.164-10.746S87.213,133,86.923,120.834" transform="translate(20.813 22.474)" fill="#85b6ec"/>
            <path id="Trazado_874238" data-name="Trazado 874238" d="M53.977,175.32H237.42a3.917,3.917,0,0,0,3.917-3.917V159.892a3.917,3.917,0,0,0-3.917-3.917H53.977a3.917,3.917,0,0,0-3.917,3.917V171.4a3.917,3.917,0,0,0,3.917,3.917" transform="translate(11.989 37.356)" fill="#28121f"/>
            <path id="Trazado_874239" data-name="Trazado 874239" d="M107.385,84.132a10.632,10.632,0,1,0,12.076-8.957,10.633,10.633,0,0,0-12.076,8.957" transform="translate(25.69 17.976)" fill="#28121f"/>
            <path id="Trazado_874240" data-name="Trazado 874240" d="M128.7,89.1a13.992,13.992,0,1,0,15.894-11.788A13.991,13.991,0,0,0,128.7,89.1" transform="translate(30.786 18.479)" fill="#28121f"/>
            <path id="Trazado_874241" data-name="Trazado 874241" d="M143.882,105.2A14.834,14.834,0,0,1,129.2,88.193l.832.124-.832-.124A14.833,14.833,0,1,1,143.882,105.2m-.017-27.987a13.16,13.16,0,1,0,1.939.144,13.172,13.172,0,0,0-1.939-.144" transform="translate(30.904 18.09)" fill="#28121f"/>
            <path id="Trazado_874242" data-name="Trazado 874242" d="M95.437,77.456a9.677,9.677,0,0,1-4.48-1.081,11.645,11.645,0,0,1-3.823-3.309,9.255,9.255,0,0,1-2.3.164c-3.844-.213-7.07-2.733-9.719-5.169a56.3,56.3,0,0,1-6.9-8.432.841.841,0,1,1,1.4-.933,55.739,55.739,0,0,0,6.636,8.129c2.552,2.346,5.369,4.544,8.674,4.727a7.43,7.43,0,0,0,1.15-.026q-.543-.885-1.044-1.906c-1.7-3.473-2.175-6.558-1.414-9.171A7.377,7.377,0,0,1,87.163,56.1a5.478,5.478,0,0,1,4.243-.483c2.853.9,4.14,3.864,4.377,6.129a10.328,10.328,0,0,1-2.976,8.124,11.139,11.139,0,0,1-3.925,2.685,9.644,9.644,0,0,0,2.856,2.335,8.309,8.309,0,0,0,8.657-.759.841.841,0,1,1,1.025,1.332,9.832,9.832,0,0,1-5.981,2m-5.549-20.4a4.152,4.152,0,0,0-1.932.518,5.747,5.747,0,0,0-2.722,3.339c-.64,2.2-.2,4.877,1.311,7.961a20.183,20.183,0,0,0,1.283,2.267,9.327,9.327,0,0,0,3.761-2.441,8.651,8.651,0,0,0,2.521-6.79c-.2-1.9-1.267-4.087-3.21-4.7a3.334,3.334,0,0,0-1.011-.156" transform="translate(16.304 13.264)" fill="#fffeeb"/>
            <path id="Trazado_874243" data-name="Trazado 874243" d="M99.9,171.336l-.449-29.486s-5.277-6.424-5.567-18.595c-.5-20.892,8.938-27.884,16.956-33.406,10.417-7.172,37.657-9.88,53.388,2.243,23.987,18.486,34.152,50.884,32.932,73.855-1.191,22.429-19.71,37.319-40.715,38.583-23.083,1.389-36.648-9.425-57.684-22.146Z" transform="translate(22.481 20.054)" fill="#315884"/>
            <path id="Trazado_874244" data-name="Trazado 874244" d="M181.7,164.518a24.215,24.215,0,0,0-40.814,22.508c1.446.011,2.929-.025,4.454-.118,15.414-.927,29.489-9.193,36.361-22.39" transform="translate(33.589 37.677)" fill="#0dba98"/>
            <path id="Trazado_874245" data-name="Trazado 874245" d="M124.4,105.728a17.036,17.036,0,0,1-3.058-.274,18.282,18.282,0,0,1-7.964-3.533,18.732,18.732,0,0,1-5.441-6.815,22.641,22.641,0,0,1-1.719-5.133.84.84,0,1,1,1.645-.346,20.975,20.975,0,0,0,1.592,4.753,17.071,17.071,0,0,0,4.954,6.211,16.611,16.611,0,0,0,7.237,3.208,15.263,15.263,0,0,0,2.753.247c4.6,0,9.718-1.994,15.65-6.1a83.861,83.861,0,0,0,8.906-7.21l4.462-4.142a.841.841,0,0,1,1.144,1.233L150.1,91.972a85.662,85.662,0,0,1-9.093,7.361c-6.222,4.3-11.654,6.395-16.6,6.395" transform="translate(25.435 20.686)" fill="#85b6ec"/>
            <path id="Trazado_874246" data-name="Trazado 874246" d="M110.691,87.717a17.548,17.548,0,0,0,1.538,5.456,12.408,12.408,0,0,0,9.117,7.064,11.01,11.01,0,0,0,1.979.176c3.7,0,8.028-1.746,13.224-5.34a79.386,79.386,0,0,0,8.43-6.828l2.568-2.384c-12.88-3.761-27.854-2.157-36.856,1.856" transform="translate(26.51 20.054)" fill="#fffeeb"/>
            <path id="Trazado_874247" data-name="Trazado 874247" d="M114.7,85.921c.084,2.137.834,8.23,6.607,9.294,5.972,1.1,16.283-7.974,19.235-10.713A60.926,60.926,0,0,0,114.7,85.921" transform="translate(27.471 20.054)" fill="#ffa194"/>
            <path id="Trazado_874248" data-name="Trazado 874248" d="M134.54,53.62c-15.264-2.389-21.29,2.6-22.939,13.139-1.247,7.969,6.129,13.146,14.108,14.33a15.7,15.7,0,0,0,4.545,1.425A14.605,14.605,0,0,0,134.54,53.62" transform="translate(26.695 12.701)" fill="#28121f"/>
            <path id="Trazado_874249" data-name="Trazado 874249" d="M123.1,93.16V84.85c-11.049-1.639-11.56-6.442-9.706-15.656.786-3.906,2.165-9.258,8.089-12.476a13.214,13.214,0,0,1,19.341,9.217q.03.164.056.331c.91,5.652.73,10.676-3.065,13.616l-2.189,14.761Z" transform="translate(26.959 13.195)" fill="#ffa194"/>
            <path id="Trazado_874250" data-name="Trazado 874250" d="M127.593,80.985c-.8,1.143-2.649,3.007-6.531,3.738V79.1l6.055.808a.689.689,0,0,1,.476,1.075" transform="translate(28.994 18.945)" fill="#db5349"/>
            <path id="Trazado_874251" data-name="Trazado 874251" d="M143.021,66.378l-3.453,27.55a8.668,8.668,0,0,1-11.64-9.469l1.922-12.054Z" transform="translate(30.611 15.897)" fill="#28121f"/>
            <path id="Trazado_874252" data-name="Trazado 874252" d="M116.842,73.915a4.1,4.1,0,0,1-2.961-1.37.841.841,0,0,1,1.266-1.107,2.228,2.228,0,0,0,3.062.3.841.841,0,0,1,.979,1.367,3.984,3.984,0,0,1-2.345.811" transform="translate(27.225 17.041)" fill="#db5349"/>
            <path id="Trazado_874253" data-name="Trazado 874253" d="M120.588,66.669a.841.841,0,0,1-.635-1.392,2.636,2.636,0,0,1,4.332.72l-1.559.627a.964.964,0,0,0-1.5-.245.835.835,0,0,1-.635.29" transform="translate(28.679 15.433)" fill="#28121f"/>
            <path id="Trazado_874254" data-name="Trazado 874254" d="M131.274,73.923s-11.039-5.661-10.4-17.512c0,0,3.137-5.625,13.713-.818,4.891,2.225,6.46,13.739,6.112,16.855s-9.429,1.475-9.429,1.475" transform="translate(28.944 12.849)" fill="#28121f"/>
            <path id="Trazado_874255" data-name="Trazado 874255" d="M133.63,73.36a4.065,4.065,0,1,1-2.132-5.339,4.065,4.065,0,0,1,2.132,5.339" transform="translate(30.136 16.212)" fill="#ffa194"/>
            <path id="Trazado_874256" data-name="Trazado 874256" d="M131.88,72.435a2.491,2.491,0,1,1-1.306-3.272,2.491,2.491,0,0,1,1.306,3.272" transform="translate(30.44 16.516)" fill="#db5349"/>
            <path id="Trazado_874257" data-name="Trazado 874257" d="M120.6,67.972a.844.844,0,1,0,1.059-.553.843.843,0,0,0-1.059.553" transform="translate(28.873 16.137)" fill="#28121f"/>
            <path id="Trazado_874258" data-name="Trazado 874258" d="M114.017,66.942a.844.844,0,1,0,1.057-.553.842.842,0,0,0-1.057.553" transform="translate(27.297 15.891)" fill="#28121f"/>
            <path id="Trazado_874259" data-name="Trazado 874259" d="M116.011,72.634a.838.838,0,0,1-.705-.382l-1.153-1.768a1.3,1.3,0,0,1,1.134-2l.653.025a5.149,5.149,0,0,0-.286-2.8.84.84,0,1,1,1.451-.848c.977,1.668.436,4.39.372,4.7a.842.842,0,0,1-.854.664l-.656-.024.747,1.145a.841.841,0,0,1-.7,1.3" transform="translate(27.289 15.432)" fill="#db5349"/>
            <path id="Trazado_874260" data-name="Trazado 874260" d="M113.717,65.834a.84.84,0,0,1-.635-1.392,2.635,2.635,0,0,1,4.331.72l-1.558.627a.963.963,0,0,0-1.5-.244.84.84,0,0,1-.635.289" transform="translate(27.034 15.233)" fill="#28121f"/>
            <path id="Trazado_874261" data-name="Trazado 874261" d="M120.423,71.63a2.491,2.491,0,1,0,2.763-2.186,2.491,2.491,0,0,0-2.763,2.186" transform="translate(28.837 16.627)" fill="#f4756e"/>
            <path id="Trazado_874262" data-name="Trazado 874262" d="M147.58,89.9a11.038,11.038,0,1,1-9.2-12.613,11.039,11.039,0,0,1,9.2,12.613" transform="translate(30.089 18.479)" fill="#28121f"/>
            <path id="Trazado_874263" data-name="Trazado 874263" d="M122.824,52.149a10.711,10.711,0,1,0,12.239-8.927,10.711,10.711,0,0,0-12.239,8.927" transform="translate(29.385 10.32)" fill="#28121f"/>
            <path id="Trazado_874264" data-name="Trazado 874264" d="M120.8,64.181a.839.839,0,0,1-.754-.467c-2.541-5.127.648-8.059.786-8.181a.841.841,0,0,1,1.124,1.251c-.108.1-2.354,2.25-.4,6.184a.841.841,0,0,1-.752,1.213" transform="translate(28.517 13.249)" fill="#28121f"/>
            <path id="Trazado_874265" data-name="Trazado 874265" d="M58.327,74.26c-.641-4.377-1.635-10.215-8.618-12.552,0,0-2.9-6.613-3.95-9.622-1.921-5.523-10.166-3.842-8,3.078,1.125,3.586,1.956,6.448,1.956,6.448s-5.748-7.162-8.063-9.685c-4.45-4.85-7.115-.824-7.115-.824a3.779,3.779,0,0,0-4.88-1.939,2.5,2.5,0,0,0-1.681,3.323,4.036,4.036,0,0,0-3.633.585c-2.252,1.894-2,5.674,2.681,10.19,0,0-5.132,1.553-.971,6.437C19.1,73.268,27.232,80.978,27.232,80.978l.451,7.995,31.76-1.59s-.477-8.746-1.116-13.123" transform="translate(3.106 11.685)" fill="#ffa194"/>
            <path id="Trazado_874266" data-name="Trazado 874266" d="M145.65,127.084A204.691,204.691,0,0,1,111.7,124c-10.668-1.841-17.833-3.859-17.9-3.878a.841.841,0,0,1,.459-1.618c.071.02,7.167,2.018,17.755,3.844A194.585,194.585,0,0,0,151.7,125.28a.841.841,0,1,1,.069,1.681c-2.051.083-4.1.123-6.124.123" transform="translate(22.318 28.373)" fill="#deecfb"/>
            <path id="Trazado_874267" data-name="Trazado 874267" d="M147.182,138.869a212.987,212.987,0,0,1-32.02-2.562c-10.134-1.574-16.758-3.322-16.824-3.339a.84.84,0,1,1,.433-1.624c.064.016,6.623,1.746,16.675,3.306a204.385,204.385,0,0,0,38.625,2.4.84.84,0,0,1,.067,1.68c-2.344.1-4.669.14-6.956.14" transform="translate(23.402 31.45)" fill="#deecfb"/>
            <path id="Trazado_874268" data-name="Trazado 874268" d="M111.232,125.556,82.141,178.172a4.173,4.173,0,0,1-5.672,1.634L41.775,160.623a4.173,4.173,0,0,1-1.634-5.671l29.091-52.617A4.173,4.173,0,0,1,74.9,100.7L109.6,119.884a4.174,4.174,0,0,1,1.632,5.672" transform="translate(9.489 23.993)" fill="#fffeeb"/>
            <path id="Trazado_874269" data-name="Trazado 874269" d="M109.918,140.176s-5.869-12.888-7.82-16.24l-5.076,9.18a1.511,1.511,0,0,1-2.086.574c-1.606-.941-4.378-2.537-6.688-3.731-9.868-5.1-11.928-3.681-13.079-1.791-1.077,1.766-1.133,4.067,2.588,6.18,1.031.585,2.488,1.4,4.6,2.733-8.236-4.876-10.919-2.815-11.971-1.34-1.14,1.6-2,4.5,1.657,6.733.439.267.94.492,1.437.749-2.51-.4-3.7.607-4.446,1.8-1.283,2.045-.918,4.514,2.853,7.019.637.423,1.354.874,2.1,1.334a2.758,2.758,0,0,0-3.121,2.045c-1.175,4.072,3.809,5.495,10.045,8.167s23.957,9.167,23.957,9.167l13.814-26.834Z" transform="translate(16.373 29.682)" fill="#ffa194"/>
            <path id="Trazado_874270" data-name="Trazado 874270" d="M93.181,142.338a.834.834,0,0,1-.394-.1L78.224,134.47a.841.841,0,0,1,.791-1.484l14.563,7.769a.841.841,0,0,1-.4,1.583" transform="translate(18.628 31.826)" fill="#db5349"/>
            <path id="Trazado_874271" data-name="Trazado 874271" d="M90.713,149.654a.834.834,0,0,1-.379-.092l-18.061-9.155a.841.841,0,1,1,.76-1.5l18.061,9.155a.841.841,0,0,1-.381,1.592" transform="translate(17.199 33.246)" fill="#db5349"/>
            <path id="Trazado_874272" data-name="Trazado 874272" d="M87.154,154.954a.829.829,0,0,1-.343-.074l-14.5-6.519A.841.841,0,1,1,73,146.828l14.5,6.519a.84.84,0,0,1-.345,1.608" transform="translate(17.198 35.147)" fill="#db5349"/>
            <path id="Trazado_874273" data-name="Trazado 874273" d="M97.978,176.846a.841.841,0,0,1-.746-1.226l13.734-26.57a.839.839,0,0,1,1.031-.4c1.706.615,3.769,1.508,5.955,2.457,5.14,2.227,11.536,5,17.541,6.028,6.848,1.171,11.809-.145,15.163-4.026,4.647-5.374,2.551-16.3-.025-24.515A119.46,119.46,0,0,0,143.7,111.6a.841.841,0,0,1,1.492-.775,121.4,121.4,0,0,1,7.039,17.239,57.376,57.376,0,0,1,2.837,14.29c.228,5.191-.827,9.177-3.137,11.848a14.023,14.023,0,0,1-7.64,4.561,22.975,22.975,0,0,1-9.077.022c-6.2-1.061-12.7-3.878-17.927-6.143-1.869-.809-3.648-1.58-5.166-2.16L98.726,176.391a.839.839,0,0,1-.747.455" transform="translate(23.264 26.434)" fill="#85b6ec"/>
            <path id="Trazado_874274" data-name="Trazado 874274" d="M127.963,67.247a.836.836,0,0,1-.638-.294c-2.51-2.924-3.758-8.137-3.81-8.358a.84.84,0,1,1,1.636-.385c.012.05,1.208,5.037,3.45,7.649a.84.84,0,0,1-.637,1.388" transform="translate(29.576 13.786)" fill="#70529e"/>
            <path id="Trazado_874275" data-name="Trazado 874275" d="M129.583,63.749a.84.84,0,0,1-.741-.444,29.615,29.615,0,0,1-1.662-3.986.841.841,0,0,1,1.6-.527,28.421,28.421,0,0,0,1.547,3.718.841.841,0,0,1-.74,1.238" transform="translate(30.449 13.943)" fill="#70529e"/>
            <path id="Trazado_874276" data-name="Trazado 874276" d="M101.054,12.288a4.224,4.224,0,0,1,1.537.289,5.775,5.775,0,0,1,10.665.384,4.23,4.23,0,1,1,2.289,7.787H101.054a4.23,4.23,0,0,1,0-8.46" transform="translate(23.189 2.204)" fill="#fff"/>
            <path id="Trazado_874277" data-name="Trazado 874277" d="M15.72,129.379a4.214,4.214,0,0,1,1.537.288,5.775,5.775,0,0,1,10.665.385,4.23,4.23,0,1,1,2.289,7.787H15.72a4.23,4.23,0,0,1,0-8.46" transform="translate(2.752 30.247)" fill="#fff"/>
            <path id="Trazado_874278" data-name="Trazado 874278" d="M46.089,72.892a.841.841,0,0,1-.807-.607,7.8,7.8,0,0,0-4.2-5.3c-4.9-2.209-11.93,1.07-12,1.1a.841.841,0,0,1-.923-.136c-8.4-7.593-11.46-6.545-11.49-6.533.041-.02-.731-1.513-.731-1.513.186-.1,1.22-.537,3.391.164,2.605.84,5.817,2.949,9.55,6.272,1.829-.772,8.052-3.067,12.89-.89A9.4,9.4,0,0,1,46.9,71.817a.843.843,0,0,1-.808,1.075" transform="translate(3.816 14.293)" fill="#db5349"/>
            <path id="Trazado_874279" data-name="Trazado 874279" d="M29.662,66.506a.841.841,0,0,1-.622-.275L16.552,52.5A.841.841,0,0,1,17.8,51.367L30.285,65.1a.841.841,0,0,1-.622,1.406" transform="translate(3.912 12.236)" fill="#db5349"/>
            <path id="Trazado_874280" data-name="Trazado 874280" d="M32.957,64.249a.84.84,0,0,1-.646-.3L21.822,51.353a.839.839,0,1,1,1.289-1.075L33.6,62.871a.84.84,0,0,1-.646,1.378" transform="translate(5.179 11.969)" fill="#db5349"/>
            <path id="Trazado_874281" data-name="Trazado 874281" d="M34.713,62.818a.841.841,0,0,1-.84-.84V59.3a.84.84,0,0,1,1.681,0v2.682a.84.84,0,0,1-.84.84" transform="translate(8.112 14)" fill="#db5349"/>
            <path id="Trazado_874282" data-name="Trazado 874282" d="M35.023,87.74a3.565,3.565,0,1,1-3.566-3.566,3.566,3.566,0,0,1,3.566,3.566" transform="translate(6.68 20.159)" fill="#fffeeb"/>
            <path id="Trazado_874283" data-name="Trazado 874283" d="M110.339,163.091a3.566,3.566,0,1,1-3.566-3.566,3.566,3.566,0,0,1,3.566,3.566" transform="translate(24.718 38.206)" fill="#fffeeb"/>
            <path id="Trazado_874284" data-name="Trazado 874284" d="M25,82.518a.84.84,0,0,1-.041-1.68l31.76-1.592a.84.84,0,1,1,.083,1.678L25.045,82.517H25" transform="translate(5.787 18.979)" fill="#85b6ec"/>
          </g>
        </g>
      </g>
    </g>
  </g>
</svg>
