<svg xmlns="http://www.w3.org/2000/svg" width="121" height="121" viewBox="0 0 121 121">
  <g id="img3" transform="translate(-275 -1427)">
    <g id="Grupo_1074475" data-name="Grupo 1074475" transform="translate(1 -3852.582)">
      <g id="Grupo_1074472" data-name="Grupo 1074472" transform="translate(274 5279.582)">
        <rect id="Rectángulo_378651" data-name="Rectángulo 378651" width="121" height="26" rx="13" transform="translate(0 95)" fill="#315884"/>
        <g id="Grupo_1074381" data-name="Grupo 1074381" transform="translate(2.628 0)">
          <g id="Grupo_1073526" data-name="Grupo 1073526" transform="translate(0 0)">
            <g id="Grupo_1072785" data-name="Grupo 1072785" transform="translate(0)">
              <path id="Trazado_608385" data-name="Trazado 608385" d="M57.17,0A57.17,57.17,0,1,1,0,57.17,57.17,57.17,0,0,1,57.17,0Z" transform="translate(0 0)" fill="none"/>
            </g>
            <g id="Grupo_1073383" data-name="Grupo 1073383" transform="translate(0)">
              <g id="Trazado_608385-2" data-name="Trazado 608385" transform="translate(0 0)" fill="#fff">
                <path d="M 57.16980743408203 113.3396224975586 C 49.58648300170898 113.3396224975586 42.23054504394531 111.8546371459961 35.3062858581543 108.9259338378906 C 31.97820663452148 107.5182723999023 28.76820755004883 105.7759323120117 25.76543807983398 103.7472991943359 C 22.79092979431152 101.7377624511719 19.99380683898926 99.42991638183594 17.45176124572754 96.88787078857422 C 14.9097146987915 94.3458251953125 12.60186862945557 91.54869842529297 10.59233093261719 88.57419586181641 C 8.563699722290039 85.57142639160156 6.821361064910889 82.36140441894531 5.413699626922607 79.03333282470703 C 2.484992027282715 72.10908508300781 1.000007390975952 64.75312805175781 1.000007390975952 57.16980743408203 C 1.000007390975952 49.58648300170898 2.484992027282715 42.23054504394531 5.413699626922607 35.3062858581543 C 6.821361064910889 31.97820663452148 8.563699722290039 28.76820755004883 10.59233093261719 25.76543807983398 C 12.60186862945557 22.79092979431152 14.9097146987915 19.99380683898926 17.45176124572754 17.45176124572754 C 19.99380683898926 14.9097146987915 22.79092979431152 12.60186862945557 25.76543807983398 10.59233093261719 C 28.76820755004883 8.563699722290039 31.97820663452148 6.821361064910889 35.3062858581543 5.413699626922607 C 42.23054504394531 2.484992027282715 49.58648300170898 1.000007390975952 57.16980743408203 1.000007390975952 C 64.75312805175781 1.000007390975952 72.10908508300781 2.484992027282715 79.03333282470703 5.413699626922607 C 82.36140441894531 6.821361064910889 85.57142639160156 8.563699722290039 88.57419586181641 10.59233093261719 C 91.54869842529297 12.60186862945557 94.3458251953125 14.9097146987915 96.88787078857422 17.45176124572754 C 99.42991638183594 19.99380683898926 101.7377624511719 22.79092979431152 103.7472991943359 25.76543807983398 C 105.7759323120117 28.76820755004883 107.5182723999023 31.97820663452148 108.9259338378906 35.3062858581543 C 111.8546371459961 42.23054504394531 113.3396224975586 49.58648300170898 113.3396224975586 57.16980743408203 C 113.3396224975586 64.75312805175781 111.8546371459961 72.10908508300781 108.9259338378906 79.03333282470703 C 107.5182723999023 82.36140441894531 105.7759323120117 85.57142639160156 103.7472991943359 88.57419586181641 C 101.7377624511719 91.54869842529297 99.42991638183594 94.3458251953125 96.88787078857422 96.88787078857422 C 94.3458251953125 99.42991638183594 91.54869842529297 101.7377624511719 88.57419586181641 103.7472991943359 C 85.57142639160156 105.7759323120117 82.36140441894531 107.5182723999023 79.03333282470703 108.9259338378906 C 72.10908508300781 111.8546371459961 64.75312805175781 113.3396224975586 57.16980743408203 113.3396224975586 Z" stroke="none"/>
                <path d="M 57.16980743408203 1.999992370605469 C 49.72103881835938 1.999992370605469 42.49615478515625 3.458389282226562 35.69583892822266 6.334693908691406 C 32.42722320556641 7.717193603515625 29.27450561523438 9.428459167480469 26.32524108886719 11.42094421386719 C 23.40347290039062 13.39485931396484 20.65590667724609 15.66180419921875 18.15885925292969 18.15885925292969 C 15.66180419921875 20.65590667724609 13.39485931396484 23.40347290039062 11.42094421386719 26.32524108886719 C 9.428459167480469 29.27450561523438 7.717193603515625 32.42722320556641 6.334693908691406 35.69583892822266 C 3.458389282226562 42.49615478515625 1.999992370605469 49.72103881835938 1.999992370605469 57.16980743408203 C 1.999992370605469 64.61857604980469 3.458389282226562 71.84346008300781 6.334693908691406 78.64377593994141 C 7.717193603515625 81.91239166259766 9.428459167480469 85.06510925292969 11.42094421386719 88.01438903808594 C 13.39485931396484 90.93614196777344 15.66180419921875 93.68370819091797 18.15885925292969 96.18075561523438 C 20.65590667724609 98.67778778076172 23.40347290039062 100.9447555541992 26.32524108886719 102.9186553955078 C 29.27450561523438 104.9111557006836 32.42722320556641 106.6224060058594 35.69583892822266 108.0049057006836 C 42.49615478515625 110.8812103271484 49.72103881835938 112.3396072387695 57.16980743408203 112.3396072387695 C 64.61857604980469 112.3396072387695 71.84346008300781 110.8812103271484 78.64377593994141 108.0049057006836 C 81.91239166259766 106.6224060058594 85.06510925292969 104.9111557006836 88.01438903808594 102.9186553955078 C 90.93614196777344 100.9447555541992 93.68370819091797 98.67778778076172 96.18075561523438 96.18075561523438 C 98.67778778076172 93.68370819091797 100.9447555541992 90.93614196777344 102.9186553955078 88.01438903808594 C 104.9111557006836 85.06510925292969 106.6224060058594 81.91239166259766 108.0049057006836 78.64377593994141 C 110.8812103271484 71.84346008300781 112.3396072387695 64.61857604980469 112.3396072387695 57.16980743408203 C 112.3396072387695 49.72103881835938 110.8812103271484 42.49615478515625 108.0049057006836 35.69583892822266 C 106.6224060058594 32.42722320556641 104.9111557006836 29.27450561523438 102.9186553955078 26.32524108886719 C 100.9447555541992 23.40347290039062 98.67778778076172 20.65590667724609 96.18075561523438 18.15885925292969 C 93.68370819091797 15.66180419921875 90.93614196777344 13.39485931396484 88.01438903808594 11.42094421386719 C 85.06510925292969 9.428459167480469 81.91239166259766 7.717193603515625 78.64377593994141 6.334693908691406 C 71.84346008300781 3.458389282226562 64.61857604980469 1.999992370605469 57.16980743408203 1.999992370605469 M 57.16980743408203 -7.62939453125e-06 C 88.74384307861328 -7.62939453125e-06 114.3396072387695 25.59578704833984 114.3396072387695 57.16980743408203 C 114.3396072387695 88.74384307861328 88.74384307861328 114.3396072387695 57.16980743408203 114.3396072387695 C 25.59578704833984 114.3396072387695 -7.62939453125e-06 88.74384307861328 -7.62939453125e-06 57.16980743408203 C -7.62939453125e-06 25.59578704833984 25.59578704833984 -7.62939453125e-06 57.16980743408203 -7.62939453125e-06 Z" stroke="none" fill="#85b6ec"/>
              </g>
            </g>
          </g>
        </g>
        <path id="Trazado_615556" data-name="Trazado 615556" d="M751.571,142.1l4.414-4.414a1.248,1.248,0,0,0-1.765-1.765l-4.414,4.414-4.414-4.414a1.248,1.248,0,0,0-1.765,1.765l4.415,4.414-4.415,4.414a1.248,1.248,0,1,0,1.765,1.765l4.414-4.414,4.414,4.414a1.248,1.248,0,0,0,1.765-1.765Z" transform="translate(-643.607 -125.574)" fill="#ff7c48"/>
        <path id="Trazado_615557" data-name="Trazado 615557" d="M0,13.9,8.852,0,17.7,13.9Z" transform="translate(15.274 75.974) rotate(90)" fill="#ffb850"/>
        <path id="Trazado_615559" data-name="Trazado 615559" d="M158.251,311.652a3.638,3.638,0,1,1-3.638-3.638,3.638,3.638,0,0,1,3.638,3.638" transform="translate(-63.06 -206.003)" fill="#ffb850"/>
        <path id="Trazado_615560" data-name="Trazado 615560" d="M76,311.652a3.638,3.638,0,1,1-3.638-3.638A3.638,3.638,0,0,1,76,311.652" transform="translate(4.052 -206.003)" fill="#3656b3"/>
        <path id="Trazado_615561" data-name="Trazado 615561" d="M240.505,311.652a3.638,3.638,0,1,1-3.638-3.638,3.638,3.638,0,0,1,3.638,3.638" transform="translate(-130.169 -206.003)" fill="#29c7cc"/>
      </g>
      <g id="Grupo_1100148" data-name="Grupo 1100148" transform="translate(281.873 5294.595)">
        <path id="Trazado_874287" data-name="Trazado 874287" d="M94.914,249.7v38.064L64.6,284.836V258.557l22.87-1.413Z" transform="translate(-40.068 -212.482)" fill="#fece66"/>
        <g id="Grupo_1100139" data-name="Grupo 1100139" transform="translate(28.502 66.391)">
          <g id="Grupo_1100138" data-name="Grupo 1100138" transform="translate(0)">
            <path id="Trazado_874288" data-name="Trazado 874288" d="M101.793,453.235h-.117l-8.726-.845a1.2,1.2,0,0,1-1.093-1.326,1.221,1.221,0,0,1,1.326-1.093l8.726.845A1.2,1.2,0,0,1,103,452.142,1.216,1.216,0,0,1,101.793,453.235Z" transform="translate(-91.851 -449.967)" fill="#70c9e9"/>
          </g>
        </g>
        <g id="Grupo_1100141" data-name="Grupo 1100141" transform="translate(28.502 61.348)">
          <g id="Grupo_1100140" data-name="Grupo 1100140">
            <path id="Trazado_874289" data-name="Trazado 874289" d="M97.19,418.184h-.117l-4.123-.408a1.215,1.215,0,0,1,.233-2.418l4.122.393a1.2,1.2,0,0,1,1.093,1.326A1.218,1.218,0,0,1,97.19,418.184Z" transform="translate(-91.851 -415.351)" fill="#70c9e9"/>
          </g>
        </g>
        <path id="Trazado_874290" data-name="Trazado 874290" d="M297.77,257.843v12.382a8.764,8.764,0,0,0-1.4-.117,8.621,8.621,0,0,0-5.2,15.5L272.7,287.764V249.7l6.919,6.919c6.06.408,12.105.83,18.151,1.224Z" transform="translate(-217.854 -212.482)" fill="#f5b540"/>
        <path id="Trazado_874291" data-name="Trazado 874291" d="M54.846,249.7,47.4,257.144l-22.87,1.413-6.832.422,6.832-6.832Z" transform="translate(0 -212.482)" fill="#ffd88a"/>
        <path id="Trazado_874292" data-name="Trazado 874292" d="M303.845,258.251c-2.025-.131-4.05-.262-6.074-.408-6.045-.393-12.105-.816-18.151-1.224L272.7,249.7l25.07,2.506C299.795,254.216,301.82,256.241,303.845,258.251Z" transform="translate(-217.854 -212.482)" fill="#ffd88a"/>
        <g id="Grupo_1100142" data-name="Grupo 1100142" transform="translate(25.178 0.987)">
          <path id="Trazado_874293" data-name="Trazado 874293" d="M196.193,1.237l2.622,5.3a.448.448,0,0,0,.335.248l5.856.845a.452.452,0,0,1,.248.772l-4.239,4.137a.455.455,0,0,0-.131.408l1.005,5.827a.455.455,0,0,1-.656.481L196,16.5a.436.436,0,0,0-.422,0l-5.23,2.753a.452.452,0,0,1-.656-.481l1.005-5.827a.482.482,0,0,0-.131-.408l-4.254-4.122a.456.456,0,0,1,.248-.772L192.42,6.8a.425.425,0,0,0,.335-.248l2.622-5.3a.452.452,0,0,1,.816-.015Z" transform="translate(-169.118 -0.987)" fill="#ea6552"/>
          <path id="Trazado_874294" data-name="Trazado 874294" d="M74.828,64l1.53,3.074a.3.3,0,0,0,.2.146l3.394.5a.262.262,0,0,1,.146.452l-2.476,2.374a.269.269,0,0,0-.073.233l.583,3.38a.259.259,0,0,1-.379.277l-3.03-1.588a.25.25,0,0,0-.248,0l-3.03,1.588a.259.259,0,0,1-.379-.277l.583-3.38a.269.269,0,0,0-.073-.233l-2.462-2.389a.264.264,0,0,1,.146-.452l3.38-.481a.3.3,0,0,0,.2-.146L74.362,64A.254.254,0,0,1,74.828,64Z" transform="translate(-69.035 -54.693)" fill="#ea6552"/>
          <path id="Trazado_874295" data-name="Trazado 874295" d="M364.8,64l1.515,3.074a.3.3,0,0,0,.2.146l3.394.5a.262.262,0,0,1,.146.452l-2.447,2.389a.269.269,0,0,0-.073.233l.583,3.38a.259.259,0,0,1-.379.277l-3.03-1.588a.25.25,0,0,0-.248,0l-3.03,1.588a.259.259,0,0,1-.379-.277l.583-3.38a.269.269,0,0,0-.073-.233l-2.447-2.389a.264.264,0,0,1,.146-.452l3.394-.5a.3.3,0,0,0,.2-.146L364.376,64c.044-.2.32-.2.422,0Z" transform="translate(-316.791 -54.693)" fill="#ea6552"/>
        </g>
        <g id="Grupo_1100143" data-name="Grupo 1100143" transform="translate(50.636 23.437)">
          <path id="Trazado_874296" data-name="Trazado 874296" d="M245.009,165.661a1.206,1.206,0,0,1-1.209-1.209v-8.143a1.209,1.209,0,1,1,2.418,0v8.143a1.215,1.215,0,0,1-1.209,1.209Z" transform="translate(-243.8 -155.1)" fill="#70c9e9"/>
        </g>
        <g id="Grupo_1100144" data-name="Grupo 1100144" transform="translate(67.421 24.169)">
          <path id="Trazado_874297" data-name="Trazado 874297" d="M360.242,171.539a1.208,1.208,0,0,1-.5-.1,1.23,1.23,0,0,1-.626-1.6l3.977-8.988a1.217,1.217,0,1,1,2.229.976l-3.977,9A1.206,1.206,0,0,1,360.242,171.539Z" transform="translate(-359.022 -160.122)" fill="#70c9e9"/>
        </g>
        <g id="Grupo_1100145" data-name="Grupo 1100145" transform="translate(59.765 20.591)">
          <path id="Trazado_874298" data-name="Trazado 874298" d="M307.679,149.947a1.322,1.322,0,0,1-.335-.044,1.214,1.214,0,0,1-.83-1.5l3.438-11.96a1.213,1.213,0,0,1,2.331.67l-3.438,11.96a1.2,1.2,0,0,1-1.165.874Z" transform="translate(-306.465 -135.565)" fill="#70c9e9"/>
        </g>
        <g id="Grupo_1100146" data-name="Grupo 1100146" transform="translate(38.395 20.999)">
          <path id="Trazado_874299" data-name="Trazado 874299" d="M164.329,152.442a1.215,1.215,0,0,1-1.165-.874l-3.35-11.654a1.213,1.213,0,0,1,2.331-.67l3.35,11.654a1.208,1.208,0,0,1-.83,1.5A1.241,1.241,0,0,1,164.329,152.442Z" transform="translate(-159.765 -138.365)" fill="#70c9e9"/>
        </g>
        <g id="Grupo_1100147" data-name="Grupo 1100147" transform="translate(29.931 24.32)">
          <path id="Trazado_874300" data-name="Trazado 874300" d="M106.782,172.43a1.2,1.2,0,0,1-1.107-.728l-3.9-8.828A1.217,1.217,0,1,1,104,161.9l3.9,8.828a1.2,1.2,0,0,1-.626,1.6A1.162,1.162,0,0,1,106.782,172.43Z" transform="translate(-101.664 -161.164)" fill="#70c9e9"/>
        </g>
        <path id="Trazado_874301" data-name="Trazado 874301" d="M391.368,414.791A8.612,8.612,0,1,1,379.263,402.7a8.6,8.6,0,0,0,6.73,13.955A8.621,8.621,0,0,0,391.368,414.791Z" transform="translate(-306.106 -343.195)" fill="#58b4d9"/>
        <path id="Trazado_874302" data-name="Trazado 874302" d="M401.52,398.424a6.511,6.511,0,0,1-7.211,7.211,8.6,8.6,0,0,1-8.609-8.609,6.549,6.549,0,0,1,7.225-7.225,8.764,8.764,0,0,1,1.4.117A8.619,8.619,0,0,1,401.52,398.424Z" transform="translate(-314.393 -332.174)" fill="#70c9e9"/>
        <path id="Trazado_874303" data-name="Trazado 874303" d="M406.808,414.714h-3.19v-3.2a1.209,1.209,0,0,0-2.418,0v3.2h-3.19a1.209,1.209,0,1,0,0,2.418h3.19v3.2a1.209,1.209,0,0,0,2.418,0v-3.2h3.19a1.209,1.209,0,0,0,0-2.418Z" transform="translate(-323.876 -349.688)" fill="#ea6552"/>
      </g>
    </g>
  </g>
</svg>
