<svg xmlns="http://www.w3.org/2000/svg" width="121" height="121" viewBox="0 0 121 121">
  <g id="img5" transform="translate(-906 -1427)">
    <g id="Grupo_1074479" data-name="Grupo 1074479" transform="translate(632 -3852.582)">
      <g id="Grupo_1074472" data-name="Grupo 1074472" transform="translate(274 5279.582)">
        <rect id="Rectángulo_378651" data-name="Rectángulo 378651" width="121" height="26" rx="13" transform="translate(0 95)" fill="#315884"/>
        <g id="Grupo_1074381" data-name="Grupo 1074381" transform="translate(2.628 0)">
          <g id="Grupo_1073526" data-name="Grupo 1073526" transform="translate(0 0)">
            <g id="Grupo_1072785" data-name="Grupo 1072785" transform="translate(0)">
              <path id="Trazado_608385" data-name="Trazado 608385" d="M57.17,0A57.17,57.17,0,1,1,0,57.17,57.17,57.17,0,0,1,57.17,0Z" transform="translate(0 0)" fill="none"/>
            </g>
            <g id="Grupo_1073383" data-name="Grupo 1073383" transform="translate(0)">
              <g id="Trazado_608385-2" data-name="Trazado 608385" transform="translate(0 0)" fill="#fff">
                <path d="M 57.16980743408203 113.3396224975586 C 49.58648300170898 113.3396224975586 42.23054504394531 111.8546371459961 35.3062858581543 108.9259338378906 C 31.97820663452148 107.5182723999023 28.76820755004883 105.7759323120117 25.76543807983398 103.7472991943359 C 22.79092979431152 101.7377624511719 19.99380683898926 99.42991638183594 17.45176124572754 96.88787078857422 C 14.9097146987915 94.3458251953125 12.60186862945557 91.54869842529297 10.59233093261719 88.57419586181641 C 8.563699722290039 85.57142639160156 6.821361064910889 82.36140441894531 5.413699626922607 79.03333282470703 C 2.484992027282715 72.10908508300781 1.000007390975952 64.75312805175781 1.000007390975952 57.16980743408203 C 1.000007390975952 49.58648300170898 2.484992027282715 42.23054504394531 5.413699626922607 35.3062858581543 C 6.821361064910889 31.97820663452148 8.563699722290039 28.76820755004883 10.59233093261719 25.76543807983398 C 12.60186862945557 22.79092979431152 14.9097146987915 19.99380683898926 17.45176124572754 17.45176124572754 C 19.99380683898926 14.9097146987915 22.79092979431152 12.60186862945557 25.76543807983398 10.59233093261719 C 28.76820755004883 8.563699722290039 31.97820663452148 6.821361064910889 35.3062858581543 5.413699626922607 C 42.23054504394531 2.484992027282715 49.58648300170898 1.000007390975952 57.16980743408203 1.000007390975952 C 64.75312805175781 1.000007390975952 72.10908508300781 2.484992027282715 79.03333282470703 5.413699626922607 C 82.36140441894531 6.821361064910889 85.57142639160156 8.563699722290039 88.57419586181641 10.59233093261719 C 91.54869842529297 12.60186862945557 94.3458251953125 14.9097146987915 96.88787078857422 17.45176124572754 C 99.42991638183594 19.99380683898926 101.7377624511719 22.79092979431152 103.7472991943359 25.76543807983398 C 105.7759323120117 28.76820755004883 107.5182723999023 31.97820663452148 108.9259338378906 35.3062858581543 C 111.8546371459961 42.23054504394531 113.3396224975586 49.58648300170898 113.3396224975586 57.16980743408203 C 113.3396224975586 64.75312805175781 111.8546371459961 72.10908508300781 108.9259338378906 79.03333282470703 C 107.5182723999023 82.36140441894531 105.7759323120117 85.57142639160156 103.7472991943359 88.57419586181641 C 101.7377624511719 91.54869842529297 99.42991638183594 94.3458251953125 96.88787078857422 96.88787078857422 C 94.3458251953125 99.42991638183594 91.54869842529297 101.7377624511719 88.57419586181641 103.7472991943359 C 85.57142639160156 105.7759323120117 82.36140441894531 107.5182723999023 79.03333282470703 108.9259338378906 C 72.10908508300781 111.8546371459961 64.75312805175781 113.3396224975586 57.16980743408203 113.3396224975586 Z" stroke="none"/>
                <path d="M 57.16980743408203 1.999992370605469 C 49.72103881835938 1.999992370605469 42.49615478515625 3.458389282226562 35.69583892822266 6.334693908691406 C 32.42722320556641 7.717193603515625 29.27450561523438 9.428459167480469 26.32524108886719 11.42094421386719 C 23.40347290039062 13.39485931396484 20.65590667724609 15.66180419921875 18.15885925292969 18.15885925292969 C 15.66180419921875 20.65590667724609 13.39485931396484 23.40347290039062 11.42094421386719 26.32524108886719 C 9.428459167480469 29.27450561523438 7.717193603515625 32.42722320556641 6.334693908691406 35.69583892822266 C 3.458389282226562 42.49615478515625 1.999992370605469 49.72103881835938 1.999992370605469 57.16980743408203 C 1.999992370605469 64.61857604980469 3.458389282226562 71.84346008300781 6.334693908691406 78.64377593994141 C 7.717193603515625 81.91239166259766 9.428459167480469 85.06510925292969 11.42094421386719 88.01438903808594 C 13.39485931396484 90.93614196777344 15.66180419921875 93.68370819091797 18.15885925292969 96.18075561523438 C 20.65590667724609 98.67778778076172 23.40347290039062 100.9447555541992 26.32524108886719 102.9186553955078 C 29.27450561523438 104.9111557006836 32.42722320556641 106.6224060058594 35.69583892822266 108.0049057006836 C 42.49615478515625 110.8812103271484 49.72103881835938 112.3396072387695 57.16980743408203 112.3396072387695 C 64.61857604980469 112.3396072387695 71.84346008300781 110.8812103271484 78.64377593994141 108.0049057006836 C 81.91239166259766 106.6224060058594 85.06510925292969 104.9111557006836 88.01438903808594 102.9186553955078 C 90.93614196777344 100.9447555541992 93.68370819091797 98.67778778076172 96.18075561523438 96.18075561523438 C 98.67778778076172 93.68370819091797 100.9447555541992 90.93614196777344 102.9186553955078 88.01438903808594 C 104.9111557006836 85.06510925292969 106.6224060058594 81.91239166259766 108.0049057006836 78.64377593994141 C 110.8812103271484 71.84346008300781 112.3396072387695 64.61857604980469 112.3396072387695 57.16980743408203 C 112.3396072387695 49.72103881835938 110.8812103271484 42.49615478515625 108.0049057006836 35.69583892822266 C 106.6224060058594 32.42722320556641 104.9111557006836 29.27450561523438 102.9186553955078 26.32524108886719 C 100.9447555541992 23.40347290039062 98.67778778076172 20.65590667724609 96.18075561523438 18.15885925292969 C 93.68370819091797 15.66180419921875 90.93614196777344 13.39485931396484 88.01438903808594 11.42094421386719 C 85.06510925292969 9.428459167480469 81.91239166259766 7.717193603515625 78.64377593994141 6.334693908691406 C 71.84346008300781 3.458389282226562 64.61857604980469 1.999992370605469 57.16980743408203 1.999992370605469 M 57.16980743408203 -7.62939453125e-06 C 88.74384307861328 -7.62939453125e-06 114.3396072387695 25.59578704833984 114.3396072387695 57.16980743408203 C 114.3396072387695 88.74384307861328 88.74384307861328 114.3396072387695 57.16980743408203 114.3396072387695 C 25.59578704833984 114.3396072387695 -7.62939453125e-06 88.74384307861328 -7.62939453125e-06 57.16980743408203 C -7.62939453125e-06 25.59578704833984 25.59578704833984 -7.62939453125e-06 57.16980743408203 -7.62939453125e-06 Z" stroke="none" fill="#85b6ec"/>
              </g>
            </g>
          </g>
        </g>
        <path id="Trazado_615556" data-name="Trazado 615556" d="M751.571,142.1l4.414-4.414a1.248,1.248,0,0,0-1.765-1.765l-4.414,4.414-4.414-4.414a1.248,1.248,0,0,0-1.765,1.765l4.415,4.414-4.415,4.414a1.248,1.248,0,1,0,1.765,1.765l4.414-4.414,4.414,4.414a1.248,1.248,0,0,0,1.765-1.765Z" transform="translate(-643.607 -125.574)" fill="#ff7c48"/>
        <path id="Trazado_615557" data-name="Trazado 615557" d="M0,13.9,8.852,0,17.7,13.9Z" transform="translate(15.274 75.974) rotate(90)" fill="#ffb850"/>
        <path id="Trazado_615559" data-name="Trazado 615559" d="M158.251,311.652a3.638,3.638,0,1,1-3.638-3.638,3.638,3.638,0,0,1,3.638,3.638" transform="translate(-63.06 -206.003)" fill="#ffb850"/>
        <path id="Trazado_615560" data-name="Trazado 615560" d="M76,311.652a3.638,3.638,0,1,1-3.638-3.638A3.638,3.638,0,0,1,76,311.652" transform="translate(4.052 -206.003)" fill="#3656b3"/>
        <path id="Trazado_615561" data-name="Trazado 615561" d="M240.505,311.652a3.638,3.638,0,1,1-3.638-3.638,3.638,3.638,0,0,1,3.638,3.638" transform="translate(-130.169 -206.003)" fill="#29c7cc"/>
      </g>
      <g id="Grupo_1100156" data-name="Grupo 1100156" transform="translate(302.493 5305.03)">
        <path id="Trazado_874335" data-name="Trazado 874335" d="M381.58,266.044a1.988,1.988,0,0,1-.795.662l1.257.395a1.993,1.993,0,0,0,1.35-.357l8.8-6.236a3.388,3.388,0,0,1,1.76-.62,3.863,3.863,0,0,0-1.417-3.488,3.406,3.406,0,0,0-4.747.824Zm0,0" transform="translate(-332.066 -222.616)" fill="#f0a479"/>
        <path id="Trazado_874336" data-name="Trazado 874336" d="M391.569,257.227a3.4,3.4,0,0,1,.9-.873,3.406,3.406,0,0,0-4.673.873l-6.212,8.822a1.993,1.993,0,0,1-.8.662l1.257.395a1.993,1.993,0,0,0,1.35-.357l2.937-2.08Zm0,0" transform="translate(-332.066 -222.62)" fill="#e5966e"/>
        <path id="Trazado_874337" data-name="Trazado 874337" d="M167.466,264.591a3.406,3.406,0,0,0-4.749-.811l-8.8,6.236a1.993,1.993,0,0,1-1.35.357l-5.626-.563a.192.192,0,0,1-.052-.369,3.749,3.749,0,0,0-.792-7.2l-15.138-2.327a6.677,6.677,0,0,0-4.873,1.15l-8.444,5.981,9.278,13.1a21.107,21.107,0,0,1,11.123-3.01l13.641.167a10.866,10.866,0,0,0,6.552-2l8.425-5.967A3.407,3.407,0,0,0,167.466,264.591Zm0,0" transform="translate(-102.586 -226.158)" fill="#f7b594"/>
        <path id="Trazado_874338" data-name="Trazado 874338" d="M123.83,265.73l6.583-4.663a6.673,6.673,0,0,1,1.92-.939l-1.379-.212a6.676,6.676,0,0,0-4.873,1.15l-8.444,5.981,9.278,13.1a21.073,21.073,0,0,1,3.216-1.576l-6.844-9.662A2.28,2.28,0,0,1,123.83,265.73Zm0,0" transform="translate(-102.586 -226.158)" fill="#f0a479"/>
        <path id="Trazado_874339" data-name="Trazado 874339" d="M265.279,313.63a3.763,3.763,0,0,0,1.794-1.471l-12.531-1.639a1.009,1.009,0,1,0-.262,2l10.943,1.431A.191.191,0,0,1,265.279,313.63Zm0,0" transform="translate(-220.98 -270.346)" fill="#f0a479"/>
        <path id="Trazado_874340" data-name="Trazado 874340" d="M83.494,314.791l-11.261-15.9a1.548,1.548,0,0,0-2.161-.355l-3.467,2.456L79.644,319.4l3.467-2.456A1.548,1.548,0,0,0,83.494,314.791Zm0,0" transform="translate(-58.084 -259.653)" fill="#e4eaf8"/>
        <path id="Trazado_874341" data-name="Trazado 874341" d="M70.681,300.963l2.008-1.422-.459-.648a1.548,1.548,0,0,0-2.16-.355L66.6,300.994l1.348,1.9Zm0,0" transform="translate(-58.08 -259.653)" fill="#d8dce5"/>
        <path id="Trazado_874342" data-name="Trazado 874342" d="M8.565,319.469l-7.9,5.594a1.552,1.552,0,0,0-.389,2.16l11.261,15.9a1.552,1.552,0,0,0,2.167.35l7.9-5.594Zm0,0" transform="translate(0 -278.159)" fill="#00aaf0"/>
        <path id="Trazado_874343" data-name="Trazado 874343" d="M4.314,327.222a1.552,1.552,0,0,1,.389-2.16l5.21-3.69-1.348-1.9-7.9,5.594a1.552,1.552,0,0,0-.389,2.16l11.261,15.9a1.552,1.552,0,0,0,2.167.35l1.409-1Zm0,0" transform="translate(0 -278.159)" fill="#059adb"/>
        <path id="Trazado_874344" data-name="Trazado 874344" d="M344.241,132.679l-2.43-.941c-.593.655-1.233,1.355-1.847,2.023a3.873,3.873,0,0,1-5.7,0c-.6-.655-1.23-1.342-1.814-1.987l-2.465.956a5.072,5.072,0,0,0-3.238,4.729v2.177a.894.894,0,0,0,.894.895h18.947a.894.894,0,0,0,.894-.895v-2.227A5.072,5.072,0,0,0,344.241,132.679Zm0,0" transform="translate(-284.941 -114.447)" fill="#f25c5c"/>
        <path id="Trazado_874345" data-name="Trazado 874345" d="M338.545,134.987a3.872,3.872,0,0,1-4.282-.977c-.6-.655-1.23-1.342-1.814-1.987l-2.465.956a5.071,5.071,0,0,0-3.238,4.729v2.177a.894.894,0,0,0,.894.895h14.065A9.35,9.35,0,0,0,338.545,134.987Zm0,0" transform="translate(-284.941 -114.696)" fill="#e54a4a"/>
        <path id="Trazado_874346" data-name="Trazado 874346" d="M378.361,108.393a.611.611,0,0,1-.39-.57v-2.28a5.153,5.153,0,0,1-2.937.915,5.448,5.448,0,0,1-2.962-.837v2.2a.611.611,0,0,1-.39.57l-1.538.6c.624.691,1.31,1.442,1.964,2.153a3.873,3.873,0,0,0,5.7,0c.666-.723,1.364-1.488,2-2.189Zm0,0" transform="translate(-322.787 -91.603)" fill="#f0a479"/>
        <path id="Trazado_874347" data-name="Trazado 874347" d="M376.364,112.4a1.427,1.427,0,0,1-.5-1.089v-4.394a5.156,5.156,0,0,1-.834.068,5.444,5.444,0,0,1-2.962-.837v2.2a.611.611,0,0,1-.39.57l-.6.233-.938.363c1.848,2.047,3.051,3.939,5.724,3.3v0a3.823,3.823,0,0,0,.693-.235C376.5,112.519,376.431,112.461,376.364,112.4Zm0,0" transform="translate(-322.787 -92.135)" fill="#e5966e"/>
        <path id="Trazado_874348" data-name="Trazado 874348" d="M371.924.5h-.063a5.277,5.277,0,0,0-5.2,5.294V8.133a.481.481,0,0,1,.516-.479,12.637,12.637,0,0,0,7.605-2.043.481.481,0,0,1,.616.075c1.794,1.929,1.784,1.854,1.784,2.106v-2A5.277,5.277,0,0,0,371.987.5Zm0,0" transform="translate(-319.751)" fill="#5e6377"/>
        <path id="Trazado_874349" data-name="Trazado 874349" d="M370.591,5.794a5.3,5.3,0,0,1,3.3-4.914,5.17,5.17,0,0,0-1.9-.38h-.125a5.277,5.277,0,0,0-5.2,5.294V8.133a.481.481,0,0,1,.515-.479,11.68,11.68,0,0,0,3.412-.277Zm0,0" transform="translate(-319.751)" fill="#52586d"/>
        <path id="Trazado_874350" data-name="Trazado 874350" d="M375.4,39.113a.482.482,0,0,0-.615-.075,12.63,12.63,0,0,1-7.605,2.043.481.481,0,0,0-.516.48v1.873a5.261,5.261,0,0,0,10.52,0V41.22C377.184,40.967,377.195,41.042,375.4,39.113Zm0,0" transform="translate(-319.751 -33.539)" fill="#f7b594"/>
        <path id="Trazado_874351" data-name="Trazado 874351" d="M370.591,56V53.375a11.678,11.678,0,0,1-3.411.276.481.481,0,0,0-.516.48V56a5.309,5.309,0,0,0,7.24,4.821A5.151,5.151,0,0,1,370.591,56Zm0,0" transform="translate(-319.751 -46.11)" fill="#f0a479"/>
        <path id="Trazado_874352" data-name="Trazado 874352" d="M179.061,132.679l-2.43-.941c-.593.655-1.233,1.355-1.847,2.023a3.873,3.873,0,0,1-5.7,0c-.6-.655-1.23-1.342-1.814-1.987l-2.464.956c-1.952.757-2.711,2.635-2.711,4.729v2.177a.894.894,0,0,0,.894.895h18.42a.894.894,0,0,0,.894-.895v-2.227A5.072,5.072,0,0,0,179.061,132.679Zm0,0" transform="translate(-141.355 -114.447)" fill="#ffc850"/>
        <path id="Trazado_874353" data-name="Trazado 874353" d="M164.733,142.671V138.8a5.07,5.07,0,0,1,1.478-3.579l-1.41.547c-1.952.757-2.711,2.635-2.711,4.728v2.177a.9.9,0,0,0,.895.894h2.643A.894.894,0,0,1,164.733,142.671Zm0,0" transform="translate(-141.351 -117.482)" fill="#feb644"/>
        <path id="Trazado_874354" data-name="Trazado 874354" d="M209.588,108.393a.611.611,0,0,1-.39-.57v-2.28a5.153,5.153,0,0,1-2.937.915,5.448,5.448,0,0,1-2.962-.837v2.2a.611.611,0,0,1-.39.57l-1.538.6c.624.691,1.31,1.442,1.964,2.153a3.873,3.873,0,0,0,5.7,0c.665-.723,1.364-1.488,2-2.189Zm0,0" transform="translate(-175.607 -91.603)" fill="#f0a479"/>
        <path id="Trazado_874355" data-name="Trazado 874355" d="M207.1,106.925a5.163,5.163,0,0,1-.835.068,5.448,5.448,0,0,1-2.962-.837v2.2a.611.611,0,0,1-.39.57l-1.538.6c.624.691,1.31,1.442,1.965,2.153a3.869,3.869,0,0,0,3.76,1.143Zm0,0" transform="translate(-175.607 -92.138)" fill="#e5966e"/>
        <path id="Trazado_874356" data-name="Trazado 874356" d="M203.151.5h-.063a5.277,5.277,0,0,0-5.2,5.294V8.133a.481.481,0,0,1,.516-.479,12.639,12.639,0,0,0,7.606-2.043.481.481,0,0,1,.615.075c1.794,1.929,1.784,1.854,1.784,2.106v-2A5.277,5.277,0,0,0,203.214.5Zm0,0" transform="translate(-172.572)" fill="#5e6377"/>
        <path id="Trazado_874357" data-name="Trazado 874357" d="M201.818,5.794a5.3,5.3,0,0,1,3.3-4.914,5.17,5.17,0,0,0-1.9-.38h-.126a5.277,5.277,0,0,0-5.2,5.294V8.133a.481.481,0,0,1,.515-.479,11.68,11.68,0,0,0,3.412-.277Zm0,0" transform="translate(-172.572)" fill="#52586d"/>
        <path id="Trazado_874358" data-name="Trazado 874358" d="M206.627,39.113a.482.482,0,0,0-.615-.075,12.63,12.63,0,0,1-7.605,2.043.481.481,0,0,0-.516.48v1.873a5.261,5.261,0,0,0,10.52,0V41.22C208.411,40.967,208.422,41.042,206.627,39.113Zm0,0" transform="translate(-172.572 -33.539)" fill="#f7b594"/>
        <path id="Trazado_874359" data-name="Trazado 874359" d="M201.818,56V53.375a11.678,11.678,0,0,1-3.412.276.481.481,0,0,0-.516.48V56a5.309,5.309,0,0,0,7.24,4.821A5.151,5.151,0,0,1,201.818,56Zm0,0" transform="translate(-172.572 -46.11)" fill="#f0a479"/>
        <path id="Trazado_874360" data-name="Trazado 874360" d="M248.751,159.156l-2.855-1.106c-.7.769-1.448,1.592-2.169,2.376a4.549,4.549,0,0,1-6.7,0c-.708-.769-1.445-1.576-2.131-2.333l-2.9,1.122a5.958,5.958,0,0,0-3.8,5.555v2.557a1.051,1.051,0,0,0,1.051,1.051h22.257a1.051,1.051,0,0,0,1.051-1.051v-2.616A5.958,5.958,0,0,0,248.751,159.156Zm0,0" transform="translate(-199.002 -137.393)" fill="#00aaf0"/>
        <path id="Trazado_874361" data-name="Trazado 874361" d="M231.923,170.895v-4.551a5.956,5.956,0,0,1,1.736-4.2l-1.656.642a5.958,5.958,0,0,0-3.8,5.555v2.557a1.051,1.051,0,0,0,1.051,1.051h3.723A1.05,1.05,0,0,1,231.923,170.895Zm0,0" transform="translate(-199.002 -140.96)" fill="#059adb"/>
        <path id="Trazado_874362" data-name="Trazado 874362" d="M288.836,130.629a.719.719,0,0,1-.459-.67v-2.678a6.053,6.053,0,0,1-3.449,1.075,6.393,6.393,0,0,1-3.479-.983v2.587a.718.718,0,0,1-.458.669l-1.807.7c.733.812,1.539,1.694,2.307,2.529a4.549,4.549,0,0,0,6.7,0c.782-.85,1.6-1.748,2.346-2.571Zm0,0" transform="translate(-243.464 -110.56)" fill="#f0a479"/>
        <path id="Trazado_874363" data-name="Trazado 874363" d="M285.908,128.9a6.145,6.145,0,0,1-.98.079,6.393,6.393,0,0,1-3.479-.983v2.587a.719.719,0,0,1-.458.669l-1.807.7c.733.812,1.539,1.693,2.307,2.529a4.544,4.544,0,0,0,4.417,1.342Zm0,0" transform="translate(-243.464 -111.184)" fill="#e5966e"/>
        <path id="Trazado_874364" data-name="Trazado 874364" d="M281.273,3.883H281.2a6.2,6.2,0,0,0-6.106,6.218V12.85a.565.565,0,0,1,.606-.563,14.847,14.847,0,0,0,8.935-2.4.565.565,0,0,1,.723.089c2.108,2.266,2.1,2.179,2.1,2.474V10.1a6.2,6.2,0,0,0-6.105-6.218Zm0,0" transform="translate(-239.897 -2.95)" fill="#5e6377"/>
        <path id="Trazado_874365" data-name="Trazado 874365" d="M279.711,10.1a6.232,6.232,0,0,1,3.872-5.772,6.072,6.072,0,0,0-2.233-.445H281.2A6.2,6.2,0,0,0,275.1,10.1V12.85a.565.565,0,0,1,.605-.563,13.737,13.737,0,0,0,4.008-.325Zm0,0" transform="translate(-239.9 -2.95)" fill="#52586d"/>
        <path id="Trazado_874366" data-name="Trazado 874366" d="M285.356,49.241a.565.565,0,0,0-.723-.088,14.841,14.841,0,0,1-8.934,2.4.565.565,0,0,0-.606.563v2.2a6.18,6.18,0,0,0,12.359,0v-2.6C287.452,51.42,287.465,51.508,285.356,49.241Zm0,0" transform="translate(-239.897 -42.348)" fill="#f7b594"/>
        <path id="Trazado_874367" data-name="Trazado 874367" d="M279.711,69.085V66a13.72,13.72,0,0,1-4.008.325.565.565,0,0,0-.605.563v2.2a6.236,6.236,0,0,0,8.5,5.663A6.051,6.051,0,0,1,279.711,69.085Zm0,0" transform="translate(-239.9 -57.116)" fill="#f0a479"/>
      </g>
    </g>
  </g>
</svg>
