<svg xmlns="http://www.w3.org/2000/svg" width="121" height="121" viewBox="0 0 121 121">
  <g id="img6" transform="translate(-1221 -1427)">
    <g id="Grupo_1099760" data-name="Grupo 1099760" transform="translate(947 -3852.582)">
      <g id="Grupo_1074472" data-name="Grupo 1074472" transform="translate(274 5279.582)">
        <rect id="Rectángulo_378651" data-name="Rectángulo 378651" width="121" height="26" rx="13" transform="translate(0 95)" fill="#315884"/>
        <g id="Grupo_1074381" data-name="Grupo 1074381" transform="translate(2.628 0)">
          <g id="Grupo_1073526" data-name="Grupo 1073526" transform="translate(0 0)">
            <g id="Grupo_1072785" data-name="Grupo 1072785" transform="translate(0)">
              <path id="Trazado_608385" data-name="Trazado 608385" d="M57.17,0A57.17,57.17,0,1,1,0,57.17,57.17,57.17,0,0,1,57.17,0Z" transform="translate(0 0)" fill="none"/>
            </g>
            <g id="Grupo_1073383" data-name="Grupo 1073383" transform="translate(0)">
              <g id="Trazado_608385-2" data-name="Trazado 608385" transform="translate(0 0)" fill="#fff">
                <path d="M 57.16980743408203 113.3396224975586 C 49.58648300170898 113.3396224975586 42.23054504394531 111.8546371459961 35.3062858581543 108.9259338378906 C 31.97820663452148 107.5182723999023 28.76820755004883 105.7759323120117 25.76543807983398 103.7472991943359 C 22.79092979431152 101.7377624511719 19.99380683898926 99.42991638183594 17.45176124572754 96.88787078857422 C 14.9097146987915 94.3458251953125 12.60186862945557 91.54869842529297 10.59233093261719 88.57419586181641 C 8.563699722290039 85.57142639160156 6.821361064910889 82.36140441894531 5.413699626922607 79.03333282470703 C 2.484992027282715 72.10908508300781 1.000007390975952 64.75312805175781 1.000007390975952 57.16980743408203 C 1.000007390975952 49.58648300170898 2.484992027282715 42.23054504394531 5.413699626922607 35.3062858581543 C 6.821361064910889 31.97820663452148 8.563699722290039 28.76820755004883 10.59233093261719 25.76543807983398 C 12.60186862945557 22.79092979431152 14.9097146987915 19.99380683898926 17.45176124572754 17.45176124572754 C 19.99380683898926 14.9097146987915 22.79092979431152 12.60186862945557 25.76543807983398 10.59233093261719 C 28.76820755004883 8.563699722290039 31.97820663452148 6.821361064910889 35.3062858581543 5.413699626922607 C 42.23054504394531 2.484992027282715 49.58648300170898 1.000007390975952 57.16980743408203 1.000007390975952 C 64.75312805175781 1.000007390975952 72.10908508300781 2.484992027282715 79.03333282470703 5.413699626922607 C 82.36140441894531 6.821361064910889 85.57142639160156 8.563699722290039 88.57419586181641 10.59233093261719 C 91.54869842529297 12.60186862945557 94.3458251953125 14.9097146987915 96.88787078857422 17.45176124572754 C 99.42991638183594 19.99380683898926 101.7377624511719 22.79092979431152 103.7472991943359 25.76543807983398 C 105.7759323120117 28.76820755004883 107.5182723999023 31.97820663452148 108.9259338378906 35.3062858581543 C 111.8546371459961 42.23054504394531 113.3396224975586 49.58648300170898 113.3396224975586 57.16980743408203 C 113.3396224975586 64.75312805175781 111.8546371459961 72.10908508300781 108.9259338378906 79.03333282470703 C 107.5182723999023 82.36140441894531 105.7759323120117 85.57142639160156 103.7472991943359 88.57419586181641 C 101.7377624511719 91.54869842529297 99.42991638183594 94.3458251953125 96.88787078857422 96.88787078857422 C 94.3458251953125 99.42991638183594 91.54869842529297 101.7377624511719 88.57419586181641 103.7472991943359 C 85.57142639160156 105.7759323120117 82.36140441894531 107.5182723999023 79.03333282470703 108.9259338378906 C 72.10908508300781 111.8546371459961 64.75312805175781 113.3396224975586 57.16980743408203 113.3396224975586 Z" stroke="none"/>
                <path d="M 57.16980743408203 1.999992370605469 C 49.72103881835938 1.999992370605469 42.49615478515625 3.458389282226562 35.69583892822266 6.334693908691406 C 32.42722320556641 7.717193603515625 29.27450561523438 9.428459167480469 26.32524108886719 11.42094421386719 C 23.40347290039062 13.39485931396484 20.65590667724609 15.66180419921875 18.15885925292969 18.15885925292969 C 15.66180419921875 20.65590667724609 13.39485931396484 23.40347290039062 11.42094421386719 26.32524108886719 C 9.428459167480469 29.27450561523438 7.717193603515625 32.42722320556641 6.334693908691406 35.69583892822266 C 3.458389282226562 42.49615478515625 1.999992370605469 49.72103881835938 1.999992370605469 57.16980743408203 C 1.999992370605469 64.61857604980469 3.458389282226562 71.84346008300781 6.334693908691406 78.64377593994141 C 7.717193603515625 81.91239166259766 9.428459167480469 85.06510925292969 11.42094421386719 88.01438903808594 C 13.39485931396484 90.93614196777344 15.66180419921875 93.68370819091797 18.15885925292969 96.18075561523438 C 20.65590667724609 98.67778778076172 23.40347290039062 100.9447555541992 26.32524108886719 102.9186553955078 C 29.27450561523438 104.9111557006836 32.42722320556641 106.6224060058594 35.69583892822266 108.0049057006836 C 42.49615478515625 110.8812103271484 49.72103881835938 112.3396072387695 57.16980743408203 112.3396072387695 C 64.61857604980469 112.3396072387695 71.84346008300781 110.8812103271484 78.64377593994141 108.0049057006836 C 81.91239166259766 106.6224060058594 85.06510925292969 104.9111557006836 88.01438903808594 102.9186553955078 C 90.93614196777344 100.9447555541992 93.68370819091797 98.67778778076172 96.18075561523438 96.18075561523438 C 98.67778778076172 93.68370819091797 100.9447555541992 90.93614196777344 102.9186553955078 88.01438903808594 C 104.9111557006836 85.06510925292969 106.6224060058594 81.91239166259766 108.0049057006836 78.64377593994141 C 110.8812103271484 71.84346008300781 112.3396072387695 64.61857604980469 112.3396072387695 57.16980743408203 C 112.3396072387695 49.72103881835938 110.8812103271484 42.49615478515625 108.0049057006836 35.69583892822266 C 106.6224060058594 32.42722320556641 104.9111557006836 29.27450561523438 102.9186553955078 26.32524108886719 C 100.9447555541992 23.40347290039062 98.67778778076172 20.65590667724609 96.18075561523438 18.15885925292969 C 93.68370819091797 15.66180419921875 90.93614196777344 13.39485931396484 88.01438903808594 11.42094421386719 C 85.06510925292969 9.428459167480469 81.91239166259766 7.717193603515625 78.64377593994141 6.334693908691406 C 71.84346008300781 3.458389282226562 64.61857604980469 1.999992370605469 57.16980743408203 1.999992370605469 M 57.16980743408203 -7.62939453125e-06 C 88.74384307861328 -7.62939453125e-06 114.3396072387695 25.59578704833984 114.3396072387695 57.16980743408203 C 114.3396072387695 88.74384307861328 88.74384307861328 114.3396072387695 57.16980743408203 114.3396072387695 C 25.59578704833984 114.3396072387695 -7.62939453125e-06 88.74384307861328 -7.62939453125e-06 57.16980743408203 C -7.62939453125e-06 25.59578704833984 25.59578704833984 -7.62939453125e-06 57.16980743408203 -7.62939453125e-06 Z" stroke="none" fill="#85b6ec"/>
              </g>
            </g>
          </g>
        </g>
        <path id="Trazado_615556" data-name="Trazado 615556" d="M751.571,142.1l4.414-4.414a1.248,1.248,0,0,0-1.765-1.765l-4.414,4.414-4.414-4.414a1.248,1.248,0,0,0-1.765,1.765l4.415,4.414-4.415,4.414a1.248,1.248,0,1,0,1.765,1.765l4.414-4.414,4.414,4.414a1.248,1.248,0,0,0,1.765-1.765Z" transform="translate(-643.607 -125.574)" fill="#ff7c48"/>
        <path id="Trazado_615557" data-name="Trazado 615557" d="M0,13.9,8.852,0,17.7,13.9Z" transform="translate(15.274 75.974) rotate(90)" fill="#ffb850"/>
        <path id="Trazado_615559" data-name="Trazado 615559" d="M158.251,311.652a3.638,3.638,0,1,1-3.638-3.638,3.638,3.638,0,0,1,3.638,3.638" transform="translate(-63.06 -206.003)" fill="#ffb850"/>
        <path id="Trazado_615560" data-name="Trazado 615560" d="M76,311.652a3.638,3.638,0,1,1-3.638-3.638A3.638,3.638,0,0,1,76,311.652" transform="translate(4.052 -206.003)" fill="#3656b3"/>
        <path id="Trazado_615561" data-name="Trazado 615561" d="M240.505,311.652a3.638,3.638,0,1,1-3.638-3.638,3.638,3.638,0,0,1,3.638,3.638" transform="translate(-130.169 -206.003)" fill="#29c7cc"/>
      </g>
      <g id="Grupo_1100159" data-name="Grupo 1100159" transform="translate(285.382 5301.877)">
        <path id="Trazado_874368" data-name="Trazado 874368" d="M235.9,325.874l-2.761,2.761a1.952,1.952,0,1,1-2.761-2.761l2.761-2.761a1.954,1.954,0,0,0,0-2.761l-2.539-2.539a1.952,1.952,0,0,1,2.761-2.761l2.539,2.539A5.863,5.863,0,0,1,235.9,325.874Z" transform="translate(-179.824 -274.738)" fill="#713708"/>
        <path id="Trazado_874369" data-name="Trazado 874369" d="M177.2,369.345h0a3.9,3.9,0,0,1-5.522,0l-13.8-13.8,5.522-5.522,13.8,13.8A3.9,3.9,0,0,1,177.2,369.345Z" transform="translate(-116.977 -305.784)" fill="#994c0f"/>
        <path id="Trazado_874370" data-name="Trazado 874370" d="M40.784,261.753l8.559,8.559-.166,5.356-9.663,9.664a5.916,5.916,0,0,1-8.338-.055l-5.522-5.522a5.808,5.808,0,0,1,.055-8.228l9.663-9.663Z" transform="translate(0 -228.674)" fill="#fe318f"/>
        <path id="Trazado_874371" data-name="Trazado 874371" d="M76.124,295.4l4.307,4.307-.166,5.356L70.6,314.727a5.916,5.916,0,0,1-8.338-.055l-2.706-2.706Z" transform="translate(-31.088 -258.068)" fill="#fd0f7f"/>
        <g id="Grupo_1100158" data-name="Grupo 1100158" transform="translate(63.095 0)">
          <path id="Trazado_874372" data-name="Trazado 874372" d="M335.491,7.81a1.952,1.952,0,0,1-1.952-1.952V1.952a1.952,1.952,0,1,1,3.9,0V5.858A1.951,1.951,0,0,1,335.491,7.81Z" transform="translate(-333.538 0)" fill="#1bd9de"/>
          <path id="Trazado_874373" data-name="Trazado 874373" d="M432.088,127.493h-3.906a1.952,1.952,0,0,1,0-3.9h3.906a1.952,1.952,0,0,1,0,3.9Z" transform="translate(-414.516 -107.969)" fill="#1bd9de"/>
          <path id="Trazado_874374" data-name="Trazado 874374" d="M401.088,29.221a1.933,1.933,0,0,1,0,2.761l-4.141,4.141a1.952,1.952,0,0,1-2.761-2.761l4.141-4.141A1.933,1.933,0,0,1,401.088,29.221Z" transform="translate(-386.014 -25.022)" fill="#1bd9de"/>
        </g>
        <path id="Trazado_874375" data-name="Trazado 874375" d="M133.5,50.35,152.83,69.677c.552.552,1.242,6.378,1.96,6.488L149.351,77.3a42.337,42.337,0,0,0-20.9,11.237l-.469.469L114.176,75.2l.469-.469A41.029,41.029,0,0,0,125.8,53.746l1.132-5.66Z" transform="translate(-78.803 -42.009)" fill="#cae8f9"/>
        <path id="Trazado_874376" data-name="Trazado 874376" d="M104.766,335.086a1.933,1.933,0,0,1,0,2.761l-2.761,2.761a1.952,1.952,0,1,1-2.761-2.761l2.761-2.761A1.933,1.933,0,0,1,104.766,335.086Z" transform="translate(-65.252 -292.233)" fill="#e1e4fb"/>
        <path id="Trazado_874377" data-name="Trazado 874377" d="M190.884,142.467l9.663,9.663c.552.552,1.242,6.378,1.96,6.488l-5.439,1.132a42.337,42.337,0,0,0-20.9,11.237l-.469.469-6.9-6.9Z" transform="translate(-126.521 -124.463)" fill="#b7e0f6"/>
        <path id="Trazado_874378" data-name="Trazado 874378" d="M108.775,339.094a1.933,1.933,0,0,1,0,2.761l-2.761,2.761a1.933,1.933,0,0,1-2.761,0Z" transform="translate(-69.261 -296.241)" fill="#c5c9f7"/>
        <path id="Trazado_874379" data-name="Trazado 874379" d="M221.451,14.434,246.3,39.283a3.916,3.916,0,0,1,0,5.522,2.279,2.279,0,0,1-.608.386,3.648,3.648,0,0,1-2.954.58,3.478,3.478,0,0,1-1.96-.966L215.929,19.956a4.007,4.007,0,0,1-.58-4.666,4.653,4.653,0,0,1,.58-.856A3.916,3.916,0,0,1,221.451,14.434Z" transform="translate(-166.752 -11.615)" fill="#fe318f"/>
        <path id="Trazado_874380" data-name="Trazado 874380" d="M327.248,120.62l12.424,12.424a3.916,3.916,0,0,1,0,5.522,2.279,2.279,0,0,1-.608.386,3.648,3.648,0,0,1-2.954.58,3.478,3.478,0,0,1-1.96-.966l-12.424-12.424Z" transform="translate(-260.124 -105.377)" fill="#fd0f7f"/>
      </g>
    </g>
  </g>
</svg>
