<svg xmlns="http://www.w3.org/2000/svg" width="139" height="139" viewBox="0 0 139 139">
  <g id="img9" transform="translate(-731 -2234.881)">
    <g id="Grupo_1074468" data-name="Grupo 1074468" transform="translate(731 2234.881)">
      <rect id="Rectángulo_378651" data-name="Rectángulo 378651" width="139" height="30" rx="15" transform="translate(0 109)" fill="#315884"/>
      <g id="Grupo_1074381" data-name="Grupo 1074381" transform="translate(3.475 0)">
        <g id="Grupo_1073526" data-name="Grupo 1073526" transform="translate(0 0)">
          <g id="Grupo_1072785" data-name="Grupo 1072785" transform="translate(0 0)">
            <path id="Trazado_608385" data-name="Trazado 608385" d="M65.462,0A65.462,65.462,0,1,1,0,65.462,65.462,65.462,0,0,1,65.462,0Z" transform="translate(0 0)" fill="none"/>
          </g>
          <g id="Grupo_1073383" data-name="Grupo 1073383" transform="translate(0 0)">
            <g id="Trazado_608385-2" data-name="Trazado 608385" transform="translate(0 0)" fill="#fff">
              <path d="M 65.46222686767578 129.9244689941406 C 56.75944519042969 129.9244689941406 48.3175163269043 128.2202301025391 40.37093734741211 124.8591156005859 C 36.55149841308594 123.2436294555664 32.86757278442383 121.2440414428711 29.42148208618164 118.9159164428711 C 26.00788116455078 116.609733581543 22.7978458404541 113.9612121582031 19.88055419921875 111.0439147949219 C 16.9632625579834 108.1266098022461 14.31473636627197 104.9165878295898 12.00855445861816 101.5029754638672 C 9.680426597595215 98.05690002441406 7.680845260620117 94.37297058105469 6.065354347229004 90.55353546142578 C 2.704245090484619 82.60695648193359 1.000008702278137 74.16500854492188 1.000008702278137 65.46222686767578 C 1.000008702278137 56.75944519042969 2.704245090484619 48.3175163269043 6.065354347229004 40.37093734741211 C 7.680845260620117 36.55149841308594 9.680426597595215 32.86757278442383 12.00855445861816 29.42148208618164 C 14.31473636627197 26.00788116455078 16.9632625579834 22.7978458404541 19.88055419921875 19.88055419921875 C 22.7978458404541 16.9632625579834 26.00788116455078 14.31473636627197 29.42148208618164 12.00855445861816 C 32.86757278442383 9.680426597595215 36.55149841308594 7.680845260620117 40.37093734741211 6.065354347229004 C 48.3175163269043 2.704245090484619 56.75944519042969 1.000008702278137 65.46222686767578 1.000008702278137 C 74.16500854492188 1.000008702278137 82.60695648193359 2.704245090484619 90.55353546142578 6.065354347229004 C 94.37297058105469 7.680845260620117 98.05690002441406 9.680426597595215 101.5029754638672 12.00855445861816 C 104.9165878295898 14.31473636627197 108.1266098022461 16.9632625579834 111.0439147949219 19.88055419921875 C 113.9612121582031 22.7978458404541 116.609733581543 26.00788116455078 118.9159164428711 29.42148208618164 C 121.2440414428711 32.86757278442383 123.2436294555664 36.55149841308594 124.8591156005859 40.37093734741211 C 128.2202301025391 48.3175163269043 129.9244689941406 56.75944519042969 129.9244689941406 65.46222686767578 C 129.9244689941406 74.16500854492188 128.2202301025391 82.60695648193359 124.8591156005859 90.55353546142578 C 123.2436294555664 94.37297058105469 121.2440414428711 98.05690002441406 118.9159164428711 101.5029754638672 C 116.609733581543 104.9165878295898 113.9612121582031 108.1266098022461 111.0439147949219 111.0439147949219 C 108.1266098022461 113.9612121582031 104.9165878295898 116.609733581543 101.5029754638672 118.9159164428711 C 98.05690002441406 121.2440414428711 94.37297058105469 123.2436294555664 90.55353546142578 124.8591156005859 C 82.60695648193359 128.2202301025391 74.16500854492188 129.9244689941406 65.46222686767578 129.9244689941406 Z" stroke="none"/>
              <path d="M 65.46222686767578 1.999984741210938 C 56.89401245117188 1.999984741210938 48.58313751220703 3.677642822265625 40.76048278808594 6.986351013183594 C 37.00051879882812 8.576683044433594 33.37386322021484 10.54517364501953 29.98128509521484 12.83715057373047 C 26.62042999267578 15.10771942138672 23.45995330810547 17.71535491943359 20.587646484375 20.587646484375 C 17.71535491943359 23.45995330810547 15.10771942138672 26.62042999267578 12.83715057373047 29.98128509521484 C 10.54517364501953 33.37386322021484 8.576683044433594 37.00051879882812 6.986351013183594 40.76048278808594 C 3.677642822265625 48.58313751220703 1.999984741210938 56.89401245117188 1.999984741210938 65.46222686767578 C 1.999984741210938 74.03046417236328 3.677642822265625 82.34131622314453 6.986351013183594 90.16397094726562 C 8.576683044433594 93.9239501953125 10.54517364501953 97.55059051513672 12.83715057373047 100.9431762695312 C 15.10771942138672 104.3040313720703 17.71535491943359 107.4645004272461 20.587646484375 110.3367919921875 C 23.45995330810547 113.2090835571289 26.62042999267578 115.8167343139648 29.98128509521484 118.0872802734375 C 33.37386322021484 120.379264831543 37.00051879882812 122.3477554321289 40.76048278808594 123.938102722168 C 48.58313751220703 127.2467880249023 56.89401245117188 128.9244384765625 65.46222686767578 128.9244384765625 C 74.03046417236328 128.9244384765625 82.34133911132812 127.2467880249023 90.16397094726562 123.938102722168 C 93.9239501953125 122.3477554321289 97.55059051513672 120.379264831543 100.9431762695312 118.0872802734375 C 104.3040313720703 115.8167343139648 107.4645004272461 113.2090835571289 110.3367919921875 110.3367919921875 C 113.2090835571289 107.4645004272461 115.8167343139648 104.3040313720703 118.0872802734375 100.9431762695312 C 120.379264831543 97.55059051513672 122.3477554321289 93.9239501953125 123.938102722168 90.16397094726562 C 127.2467880249023 82.34133911132812 128.9244384765625 74.03046417236328 128.9244384765625 65.46222686767578 C 128.9244384765625 56.89401245117188 127.2467880249023 48.58313751220703 123.938102722168 40.76048278808594 C 122.3477554321289 37.00051879882812 120.379264831543 33.37386322021484 118.0872802734375 29.98128509521484 C 115.8167343139648 26.62042999267578 113.2090835571289 23.45995330810547 110.3367919921875 20.587646484375 C 107.4645004272461 17.71535491943359 104.3040313720703 15.10771942138672 100.9431762695312 12.83715057373047 C 97.55059051513672 10.54517364501953 93.9239501953125 8.576683044433594 90.16397094726562 6.986351013183594 C 82.34131622314453 3.677642822265625 74.03046417236328 1.999984741210938 65.46222686767578 1.999984741210938 M 65.46222686767578 -1.52587890625e-05 C 101.6160278320312 -1.52587890625e-05 130.9244384765625 29.30844879150391 130.9244384765625 65.46222686767578 C 130.9244384765625 101.6160278320312 101.6160278320312 130.9244384765625 65.46222686767578 130.9244384765625 C 29.30844879150391 130.9244384765625 -1.52587890625e-05 101.6160278320312 -1.52587890625e-05 65.46222686767578 C -1.52587890625e-05 29.30844879150391 29.30844879150391 -1.52587890625e-05 65.46222686767578 -1.52587890625e-05 Z" stroke="none" fill="#85b6ec"/>
            </g>
          </g>
        </g>
      </g>
      <path id="Trazado_615556" data-name="Trazado 615556" d="M752.741,143.019l5.036-5.036a1.424,1.424,0,1,0-2.013-2.013l-5.036,5.036-5.036-5.036a1.424,1.424,0,1,0-2.013,2.013l5.036,5.036-5.036,5.036a1.424,1.424,0,1,0,2.013,2.013l5.036-5.036,5.036,5.036a1.424,1.424,0,0,0,2.013-2.013Z" transform="translate(-629.091 -124.169)" fill="#ff7c48"/>
      <path id="Trazado_615557" data-name="Trazado 615557" d="M0,15.861,10.1,0,20.2,15.861Z" transform="translate(17.903 87.028) rotate(90)" fill="#ffb850"/>
      <path id="Trazado_615559" data-name="Trazado 615559" d="M159.276,312.164a4.15,4.15,0,1,1-4.15-4.15,4.15,4.15,0,0,1,4.15,4.15" transform="translate(-50.197 -191.155)" fill="#ffb850"/>
      <path id="Trazado_615560" data-name="Trazado 615560" d="M77.022,312.164a4.15,4.15,0,1,1-4.15-4.15,4.15,4.15,0,0,1,4.15,4.15" transform="translate(14.781 -191.155)" fill="#3656b3"/>
      <path id="Trazado_615561" data-name="Trazado 615561" d="M241.53,312.164a4.15,4.15,0,1,1-4.15-4.15,4.15,4.15,0,0,1,4.15,4.15" transform="translate(-115.173 -191.155)" fill="#29c7cc"/>
    </g>
    <g id="Grupo_1074469" data-name="Grupo 1074469" transform="translate(757.922 2256.088)">
      <rect id="Rectángulo_378646" data-name="Rectángulo 378646" width="84.023" height="84.023" fill="#fff"/>
      <g id="Grupo_1100162" data-name="Grupo 1100162" transform="translate(-17.388 -10.921)">
        <path id="Trazado_874396" data-name="Trazado 874396" d="M85.319,120v3.607l-9.495,12.946A12.455,12.455,0,0,1,61.539,140.9a12.584,12.584,0,0,1-1.509-.663,12.421,12.421,0,0,1-2.225-1.481l-2.6-2.163-1.154-.962v19.239H26.4V140.332A11.045,11.045,0,0,1,35.04,122.4H52.95a5.891,5.891,0,0,1,1.1.1,6.009,6.009,0,0,1,2.917,1.44l4.856,4.371L66.14,132.2l1.142,1.028L78.1,120Z" transform="translate(0 -81.571)" fill="#ffceb6"/>
        <path id="Trazado_874397" data-name="Trazado 874397" d="M236.085,146.38l-6.11,8.038a12.422,12.422,0,0,1-2.225-1.481l-2.6-2.163L224,149.813V136.69a6.009,6.009,0,0,1,2.917,1.44l4.856,4.371Z" transform="translate(-169.945 -95.752)" fill="#ffbfa1"/>
        <path id="Trazado_874398" data-name="Trazado 874398" d="M61.829,141.915l-6.619,8.274-1.154-.962v19.239H26.4V153.927A11.045,11.045,0,0,1,35.04,136H52.95a6.014,6.014,0,0,1,4.021,1.543Z" transform="translate(0 -95.166)" fill="#ffb401"/>
        <path id="Trazado_874399" data-name="Trazado 874399" d="M137.2,172.81l-1.2-2.4,2.4-2.4,2.4,2.4-1.2,2.4Z" transform="translate(-95.172 -122.356)" fill="#e04f2b"/>
        <path id="Trazado_874400" data-name="Trazado 874400" d="M128,206.012,130.4,200h2.4l1.985,4.964-3.188,3.454Z" transform="translate(-88.374 -149.546)" fill="#ef5e3b"/>
        <path id="Trazado_874401" data-name="Trazado 874401" d="M43.823,258.351a1.2,1.2,0,0,1-1.673.3l-2.758-1.91a12.244,12.244,0,0,1-1.728-1.449,1.2,1.2,0,0,1,.111-1.783h0a1.2,1.2,0,0,1,1.6.09,9.844,9.844,0,0,0,1.388,1.164l2.758,1.909A1.2,1.2,0,0,1,43.823,258.351Z" transform="translate(-11.324 -194.793)" fill="#ffa100"/>
        <rect id="Rectángulo_401155" data-name="Rectángulo 401155" width="2.405" height="6.993" rx="1.202" transform="matrix(0.555, -0.832, 0.832, 0.555, 31.747, 52.666)" fill="#ffa100"/>
        <path id="Trazado_874402" data-name="Trazado 874402" d="M240,56h9.62v7.215H240Z" transform="translate(-183.54 -27.19)" fill="#4976f2"/>
        <path id="Trazado_874403" data-name="Trazado 874403" d="M304,40h21.644V52.025H304Z" transform="translate(-237.92 -13.595)" fill="#548aff"/>
        <circle id="Elipse_11515" data-name="Elipse 11515" cx="5.627" cy="5.627" r="5.627" transform="translate(81.999 26.549)" fill="#8be0e8"/>
        <path id="Trazado_874404" data-name="Trazado 874404" d="M407.215,46.429a7.215,7.215,0,1,1,7.215-7.215,7.215,7.215,0,0,1-7.215,7.215Zm0-12.025a4.81,4.81,0,1,0,4.81,4.81A4.81,4.81,0,0,0,407.215,34.4Z" transform="translate(-319.491 -6.798)" fill="#4976f2"/>
        <path id="Trazado_874405" data-name="Trazado 874405" d="M86.318,103.118l-5.73,8.022,4.07,2.818a11.9,11.9,0,0,0,6.773,2.116h0a11.9,11.9,0,0,0,9.474-4.7l17.37-22.855a3.607,3.607,0,0,0-.321-4.734L114.168,80l-4.81,4.81-.792-1.583a1.486,1.486,0,0,0-2.816.665v6.931L91.322,106.454l-5-3.336Z" transform="translate(-48.089 -47.583)" fill="#ffceb6"/>
        <path id="Trazado_874406" data-name="Trazado 874406" d="M67.656,373.644V352H40v21.644H50.822l4.81-12.025v12.025Z" transform="translate(-13.601 -278.7)" fill="#718799"/>
        <path id="Trazado_874407" data-name="Trazado 874407" d="M117.227,146.822a1.2,1.2,0,0,1-.851-.352l-5.162-5.162-5.162,5.162a1.2,1.2,0,0,1-2.053-.85V136h2.4v6.717l3.96-3.96a1.2,1.2,0,0,1,1.7,0l3.96,3.96V136h2.4v9.62a1.2,1.2,0,0,1-1.2,1.2Z" transform="translate(-67.982 -95.166)" fill="#ffa100"/>
        <path id="Trazado_874408" data-name="Trazado 874408" d="M135.215,88v7.215l-3.607,3.607L128,95.215V88Z" transform="translate(-88.374 -54.38)" fill="#ffceb6"/>
        <path id="Trazado_874409" data-name="Trazado 874409" d="M142.012,88v7.215h-1.2A4.81,4.81,0,0,1,136,90.406V88Z" transform="translate(-95.172 -54.38)" fill="#ffbfa1"/>
        <path id="Trazado_874410" data-name="Trazado 874410" d="M137.62,62.012a4.81,4.81,0,1,1-9.62,0v-2.4L131.607,56h6.012Z" transform="translate(-88.374 -27.19)" fill="#ffceb6"/>
        <path id="Trazado_874411" data-name="Trazado 874411" d="M137.62,28.81l.455-.455a2.551,2.551,0,0,0-1.8-4.354H132.81A4.81,4.81,0,0,0,128,28.81v3.607l3.607-3.607Z" transform="translate(-88.374 0)" fill="#c47220"/>
        <path id="Trazado_874412" data-name="Trazado 874412" d="M170.4,64h8.417v4.81H170.4a2.4,2.4,0,0,1,0-4.81Z" transform="translate(-122.362 -33.988)" fill="#4367e0"/>
      </g>
    </g>
  </g>
</svg>
