<svg xmlns="http://www.w3.org/2000/svg" width="70" height="70" viewBox="0 0 70 70">
  <g id="img11" transform="translate(-269 -958)">
    <circle id="Elipse_5614" data-name="Elipse 5614" cx="35" cy="35" r="35" transform="translate(269 958)" fill="#fff"/>
    <g id="Grupo_1099870" data-name="Grupo 1099870" transform="translate(282.116 971.131)">
      <path id="Trazado_873921" data-name="Trazado 873921" d="M25.826,1A11.834,11.834,0,0,0,14,12.826a11.648,11.648,0,0,0,1.071,4.87,11.829,11.829,0,0,1,6.205-6,4.8,4.8,0,0,1-.306-1.67,4.87,4.87,0,0,1,9.739,0A5.145,5.145,0,0,1,30.4,11.7a11.777,11.777,0,0,1,6.205,6,11.648,11.648,0,0,0,1.071-4.87A11.834,11.834,0,0,0,25.854,1Z" transform="translate(5.087 0)" fill="#315884"/>
      <circle id="Elipse_11494" data-name="Elipse 11494" cx="2.087" cy="2.087" r="2.087" transform="translate(28.826 7.957)" fill="#315884"/>
      <path id="Trazado_873922" data-name="Trazado 873922" d="M27.75,10.37a4.885,4.885,0,0,1-2.769.877,4.782,4.782,0,0,1-2.769-.877,8.97,8.97,0,0,0-6.052,6.637,11.763,11.763,0,0,0,17.614,0,8.947,8.947,0,0,0-6.052-6.637Z" transform="translate(5.932 3.666)" fill="#315884"/>
      <path id="Trazado_873923" data-name="Trazado 873923" d="M21.068,19.954a1.386,1.386,0,0,0-1.962,0l-2.8,2.8,4.717,4.717,2.8-2.783a1.386,1.386,0,0,0,0-1.962l-2.755-2.755Z" transform="translate(5.991 7.258)" fill="#315884"/>
      <path id="Trazado_873924" data-name="Trazado 873924" d="M14.273,15.121a1.386,1.386,0,0,0,0-1.962L11.518,10.4a1.386,1.386,0,0,0-1.962,0l-2.8,2.8,4.717,4.717Z" transform="translate(2.254 3.521)" fill="#315884"/>
      <path id="Trazado_873925" data-name="Trazado 873925" d="M18.015,29.32a6.06,6.06,0,1,1-8.57-8.57l2.323-2.323L7.052,13.71l-2,2a13.364,13.364,0,0,0-4.021,8.5A12.727,12.727,0,0,0,14.551,37.738a13.3,13.3,0,0,0,8.5-4.021l2-2L20.339,27Z" transform="translate(0 4.973)" fill="#315884"/>
    </g>
  </g>
</svg>
