<svg id="img13" xmlns="http://www.w3.org/2000/svg" xmlns:xlink="http://www.w3.org/1999/xlink" width="400" height="295.303" viewBox="0 0 400 295.303">
  <defs>
    <clipPath id="clip-path">
      <rect id="Rectángulo_401122" data-name="Rectángulo 401122" width="283.716" height="276.597" fill="none"/>
    </clipPath>
    <clipPath id="clip-path-2">
      <rect id="Rectángulo_401114" data-name="Rectángulo 401114" width="283.714" height="276.596" fill="none"/>
    </clipPath>
    <clipPath id="clip-path-3">
      <rect id="Rectángulo_401113" data-name="Rectángulo 401113" width="89.057" height="51.417" fill="none"/>
    </clipPath>
    <clipPath id="clip-path-4">
      <path id="Trazado_874019" data-name="Trazado 874019" d="M57.749,43.433c-3.429,2.749-6.964,3.913-9.927,3.286l15.523,8.626c2.97.628,6.5-.536,9.934-3.286A28.485,28.485,0,0,0,81.5,40.87L65.975,32.244a28.408,28.408,0,0,1-8.226,11.189" transform="translate(-47.822 -32.244)" fill="#2a5f61"/>
    </clipPath>
    <clipPath id="clip-path-5">
      <path id="Trazado_874021" data-name="Trazado 874021" d="M56.544,32.159a19.654,19.654,0,0,1-.558,9.222,29.389,29.389,0,0,1-1.157,3.331l15.53,8.622a29.076,29.076,0,0,0,1.154-3.328,19.673,19.673,0,0,0,.561-9.226A8.364,8.364,0,0,0,68.2,34.929L52.673,26.3a8.36,8.36,0,0,1,3.871,5.856" transform="translate(-52.673 -26.303)" fill="none"/>
    </clipPath>
    <clipPath id="clip-path-7">
      <path id="Trazado_874024" data-name="Trazado 874024" d="M72.18,23.9a22.519,22.519,0,0,1,6.273,2.325l-15.53-8.626a22.532,22.532,0,0,0-6.27-2.321Z" transform="translate(-56.653 -15.273)" fill="none"/>
    </clipPath>
    <clipPath id="clip-path-9">
      <path id="Trazado_874039" data-name="Trazado 874039" d="M26.328,33.45a7.877,7.877,0,0,1,3.948,1.091H36.29a7.889,7.889,0,0,0-3.952-1.091Z" transform="translate(-26.328 -33.45)" fill="none"/>
    </clipPath>
    <clipPath id="clip-path-10">
      <path id="Trazado_874041" data-name="Trazado 874041" d="M27.454,33.761c.137.077.273.161.41.249a12.4,12.4,0,0,1,5.095,8.2h6.014a12.389,12.389,0,0,0-5.1-8.2c-.137-.088-.27-.168-.407-.249Z" transform="translate(-27.454 -33.761)" fill="none"/>
    </clipPath>
    <clipPath id="clip-path-11">
      <path id="Trazado_874043" data-name="Trazado 874043" d="M41.807,35.886a7.863,7.863,0,0,1,3.966,1.094c.126.07.249.144.368.224,4.811,3.124,6.746,10.614,4.337,16.817-2.84,7.276-11.087,12.367-25.033,15h6.01c13.945-2.637,22.2-7.728,25.036-15,2.409-6.2.473-13.693-4.341-16.817-.119-.081-.242-.154-.365-.224a7.869,7.869,0,0,0-3.962-1.094Z" transform="translate(-25.446 -35.886)" fill="none"/>
    </clipPath>
    <clipPath id="clip-path-13">
      <path id="Trazado_874046" data-name="Trazado 874046" d="M33.447,2.477l6.739,3.917c9.061-2.535,15.3-2.718,18.805-.68L52.256,1.8A12.809,12.809,0,0,0,45.8.4,47.79,47.79,0,0,0,33.447,2.477" transform="translate(-33.447 -0.405)" fill="none"/>
    </clipPath>
    <clipPath id="clip-path-14">
      <path id="Trazado_874048" data-name="Trazado 874048" d="M31.77,33.024a4.8,4.8,0,0,0,2.009,2.44l6.736,3.917a4.822,4.822,0,0,1-2.006-2.44c-2.044-5.067.386-15.653,7.63-32.028L39.4,1c-7.248,16.375-9.678,26.961-7.63,32.028" transform="translate(-31.072 -0.996)" fill="none"/>
    </clipPath>
    <clipPath id="clip-path-16">
      <path id="Trazado_874051" data-name="Trazado 874051" d="M5.881,4.782,12.62,8.695c2.339-1.346,4.625-1.609,6.308-.628L12.193,4.151a4.553,4.553,0,0,0-2.311-.593,8.125,8.125,0,0,0-4,1.224" transform="translate(-5.881 -3.558)" fill="none"/>
    </clipPath>
    <clipPath id="clip-path-17">
      <path id="Trazado_874053" data-name="Trazado 874053" d="M7.74,7.712a20.084,20.084,0,0,0-4.33,9.45l6.739,3.92a20.141,20.141,0,0,1,4.327-9.453A16.412,16.412,0,0,1,18.814,7.82L12.074,3.907a16.16,16.16,0,0,0-4.334,3.8" transform="translate(-3.41 -3.907)" fill="none"/>
    </clipPath>
    <clipPath id="clip-path-18">
      <path id="Trazado_874055" data-name="Trazado 874055" d="M8.822,8.851a16,16,0,0,0-4.3,3.783A19.276,19.276,0,0,0,0,24.013v.2a7.607,7.607,0,0,0,1.154,4.26,5.462,5.462,0,0,0,1.785,1.659l6.739,3.917A5.419,5.419,0,0,1,7.9,32.393c-2.423-3.531-.908-10.628,3.363-15.842a15.952,15.952,0,0,1,4.3-3.783A8.977,8.977,0,0,1,18.7,11.607l-6.739-3.92A9.084,9.084,0,0,0,8.822,8.851" transform="translate(0 -7.687)" fill="none"/>
    </clipPath>
    <clipPath id="clip-path-20">
      <path id="Trazado_874058" data-name="Trazado 874058" d="M21.2,2.682l6.273,3.64C32.9,3.191,37.829,2.9,41.381,4.962l-6.27-3.643A10.116,10.116,0,0,0,29.974,0,17.817,17.817,0,0,0,21.2,2.682" transform="translate(-21.201)" fill="none"/>
    </clipPath>
    <clipPath id="clip-path-21">
      <path id="Trazado_874060" data-name="Trazado 874060" d="M15.646,34.508c.014,6.161,2.188,10.5,5.7,12.536l6.27,3.647c-3.506-2.041-5.684-6.375-5.7-12.539C21.877,25.749,30.6,10.639,41.4,4.4L35.124.765C24.328,7,15.608,22.1,15.646,34.508" transform="translate(-15.646 -0.765)" fill="none"/>
    </clipPath>
    <clipPath id="clip-path-23">
      <path id="Trazado_874066" data-name="Trazado 874066" d="M17.342,24.295l6.27,3.64c5.432-3.135,10.355-3.426,13.91-1.361l-6.273-3.643a10.061,10.061,0,0,0-5.133-1.322,17.861,17.861,0,0,0-8.773,2.686" transform="translate(-17.342 -21.609)" fill="none"/>
    </clipPath>
    <clipPath id="clip-path-24">
      <path id="Trazado_874068" data-name="Trazado 874068" d="M11.786,56.114c.018,6.164,2.2,10.5,5.7,12.539l6.27,3.647c-3.51-2.041-5.684-6.375-5.7-12.539-.035-12.406,8.685-27.512,19.482-33.746l-6.27-3.64c-10.8,6.231-19.517,21.337-19.482,33.739" transform="translate(-11.786 -22.375)" fill="none"/>
    </clipPath>
  </defs>
  <g id="Image_Place_Holder" data-name="Image Place Holder" transform="translate(0 24.534)">
    <rect id="Image_Place_Holder-2" data-name="Image Place Holder" width="400" height="270.769" rx="10" fill="#b9daff"/>
  </g>
  <g id="Grupo_1100047" data-name="Grupo 1100047" transform="translate(58.142)">
    <g id="Grupo_1100046" data-name="Grupo 1100046" clip-path="url(#clip-path)">
      <g id="Grupo_1100001" data-name="Grupo 1100001" transform="translate(0 0)">
        <g id="Grupo_1100000" data-name="Grupo 1100000" clip-path="url(#clip-path-2)">
          <g id="Grupo_1099999" data-name="Grupo 1099999" transform="translate(192.831 225.179)" style="mix-blend-mode: multiply;isolation: isolate">
            <g id="Grupo_1099998" data-name="Grupo 1099998">
              <g id="Grupo_1099997" data-name="Grupo 1099997" clip-path="url(#clip-path-3)">
                <path id="Trazado_873995" data-name="Trazado 873995" d="M131.107,108.163c-17.336,10.007-45.528,9.958-62.972-.112S50.6,81.7,67.938,71.692s45.528-9.958,62.972.112,17.532,26.351.2,36.358" transform="translate(-54.992 -64.218)" fill="#c2c2cf"/>
              </g>
            </g>
          </g>
          <path id="Trazado_873996" data-name="Trazado 873996" d="M94.068,12.785c-9.04-3.047-16.529,6.655-19.573,12.539S57.671,54.477,56.7,57.538,62.766,69.064,66.4,68.17,86.077,47.825,85.9,46.563s8.17-33.778,8.17-33.778" transform="translate(141.878 30.596)" fill="#e8ecff"/>
          <path id="Trazado_873997" data-name="Trazado 873997" d="M95.867,64.777c1.652.666,3.191,4.082,3.682,4.734a6.518,6.518,0,0,1-.161,5.575c-1.157,2.058-3.538,5.505-3.538,5.505s-2.276,6.4-5.1,9.6-6.908,5.649-11.073,5.6-5.807-2.332-6.287-3.457.466-2.935.887-3.868,21.589-23.69,21.589-23.69" transform="translate(183.622 162.36)" fill="#2e3442"/>
          <path id="Trazado_873998" data-name="Trazado 873998" d="M85.509,71.379c1.925.056,2.791,1.925,2.963,3.342a13.369,13.369,0,0,1-.309,3.549s-2.451,3.1-5.284,3.384-4.671.34-4.671.34-7.09,5.193-11.277,5.077-9.439-2.511-11.319-5.912-1.55-3.811-1.55-3.811A5.99,5.99,0,0,1,56.844,74.8c1.7-.575,28.665-3.419,28.665-3.419" transform="translate(135.453 178.908)" fill="#2e3442"/>
          <path id="Trazado_873999" data-name="Trazado 873999" d="M85.362,69.023c-.663.964-5.677,11.259-5.677,11.259S73.072,90.3,73.377,92.67s2.791,3.5,5.028,3.759,8.608-2.668,10.446-4.1,6.256-11.61,6.256-11.61,3.7-6.007,3.945-7.77-3.11-8.878-3.11-8.878Z" transform="translate(183.891 160.583)" fill="#40485c"/>
          <path id="Trazado_874000" data-name="Trazado 874000" d="M72.266,69.98c-.245,1.353-3.531,4.72-3.531,4.72S57.847,76.438,56.6,78.185s-2.2,3.864-2.065,4.758,3.875,5.656,9.145,6.22,9.727-2.03,12.6-3.52,10.014-3.3,10.239-5.751.845-10.456.845-10.456Z" transform="translate(136.646 174.038)" fill="#40485c"/>
          <path id="Trazado_874001" data-name="Trazado 874001" d="M73.66,28.54c-4.786,17.876-8.131,25.32-9.937,37.628s-4.555,43.638-3.889,49.935,11.228,6.7,11.228,6.7,11.768-5.33,13.009-12.413,4.225-31.712,6.8-37.817-.838-37.926-.838-37.926Z" transform="translate(149.715 71.534)" fill="#3466d9"/>
          <path id="Trazado_874002" data-name="Trazado 874002" d="M66.195,49.455c-1.213,2.269-3,2.535-4.267,14.226s-3.783,55.767-2.816,58.621,5.954,3.506,8.472,3.741c5.246.491,9.674-1.627,10.33-2.549S80,98.188,82.437,87.181s3.731-29.219,3.731-29.219Z" transform="translate(147.619 123.956)" fill="#3466d9"/>
          <path id="Trazado_874003" data-name="Trazado 874003" d="M63.538,152.7l-.88-.07c.042-.547,4.155-54.876,5.032-60.995.182-1.283.55-4.218,1.034-8.086,3.229-25.874,5.649-43.4,6.943-44.82l.652.6C74.948,40.852,71.2,70.85,69.6,83.663c-.487,3.871-.856,6.813-1.038,8.1-.873,6.091-4.983,60.4-5.025,60.942" transform="translate(157.05 97.077)" fill="#487efa"/>
          <path id="Trazado_874004" data-name="Trazado 874004" d="M66.536,40.6s-2.062,23.4-.035,29.524,4.748,6.171,6.666,8.857,7.609,35.969,9.878,40.934,16.789,5.915,18.977,2.307,1.645-2.062,1.883-7.63-.109-30.145.666-41.117-2.56-38.077-4.555-41.688S66.536,40.6,66.536,40.6" transform="translate(164.445 78.01)" fill="#4070de"/>
          <path id="Trazado_874005" data-name="Trazado 874005" d="M87.37,46.126c-1.206,0-11.982-.025-14.5-.856-2.77-.908-3.492-7.5-3.563-8.244l.877-.088c.182,1.876,1.073,6.876,2.959,7.493,2.416.8,13.612.81,14.292.81h.028l0,.884Z" transform="translate(173.71 92.586)" fill="#487efa"/>
          <path id="Trazado_874006" data-name="Trazado 874006" d="M73.962,64.417s-4.636,6.648-3.177,11.392,15.032,36.015,16.165,37.754,6.708,3.054,10.9.929c7.483-3.794,8.195-7.535,7.4-10.179S95.7,72.6,94.541,68.331,83.976,48.719,83.976,48.719Z" transform="translate(176.708 122.112)" fill="#4070de"/>
          <path id="Trazado_874007" data-name="Trazado 874007" d="M91.977,146.869c-.323-2.185-9.986-38.487-15.327-47.877l-.06-.112,0-.123c.035-1.091-.105-3.552-.284-6.666-.372-6.529-.936-16.4-.487-24.258.652-11.438-1.848-32.445-1.872-32.659l.877-.1c.025.21,2.535,21.295,1.876,32.81-.442,7.812.119,17.648.491,24.156.172,3.03.309,5.439.284,6.624,5.565,9.93,15.046,45.885,15.372,48.077Z" transform="translate(185.352 87.909)" fill="#487efa"/>
          <path id="Trazado_874008" data-name="Trazado 874008" d="M95.779,12.669c.063.032,22.96,14.4,24.156,19.983,1.206,5.635-9.075,36.748-9.075,36.748s.193,12.045-1.213,15.46-17.231,11.722-25.871,11.8-18.213-7.781-18.784-9.787S64.578,69.639,63.6,65.217s-1.676-17.059-1.462-26.74,4.064-21.312,14.6-25.808c3.591-1.532,8.728,1.7,11.831,1.164s7.206-1.164,7.206-1.164" transform="translate(155.648 30.712)" fill="#d3d9f2"/>
          <path id="Trazado_874009" data-name="Trazado 874009" d="M67.8,24.9c-.049-.165-.915,7.448.6,11.908s9.352,1.136,11.88.442,5.957-4.366,5.379-9.075a22.246,22.246,0,0,1,.309-8.829c.5-2.714,3.861-11.733,3.861-11.733L75.677,6.353Z" transform="translate(169.214 15.923)" fill="#ffa698"/>
          <path id="Trazado_874010" data-name="Trazado 874010" d="M81.178,28.349c-3.741-4.814-4-4.064-5.137-4.029s-8.268,4.131-12,4.863-7.847-.266-10.327.4S49.027,36.2,49.5,39.777s4.33,4.362,5.779,4.976,28.676-3.236,29.935-7.181-4.039-9.222-4.039-9.222" transform="translate(123.915 60.802)" fill="#e8ecff"/>
          <path id="Trazado_874011" data-name="Trazado 874011" d="M63.617,45.869C65.2,45.6,67.257,41,67.3,39.744a31.574,31.574,0,0,0-.414-3.994,34.288,34.288,0,0,0-2.079-6.2,15.027,15.027,0,0,1-1.238-2.577A41.43,41.43,0,0,0,60.991,22.4c-.684-.778-1.83.053-2.121,1.066a6.218,6.218,0,0,0,.712,3.58,3.434,3.434,0,0,0,1.143,1.287s.75,3.321.533,3.524-4.025-2.076-4.025-2.076-4.856-4.355-5.554-4.579a15.545,15.545,0,0,0-4.106-.242c-.81.137-.821,1.339-.2,1.774a17,17,0,0,0,3.079,1.108l3.478,3.941-2.22-.975-3.65-1.515s-1.652-.046-2.062.544a3.859,3.859,0,0,0-.207,2.013L51.1,34.74l-3.366-1.35s-2.111.466-1.164,2.3,3.871,2.072,3.871,2.072l.067,1.413s-3.524-1.3-4.036-.975-.442,1.978.9,2.668a21.032,21.032,0,0,0,3.682,1.255,17.486,17.486,0,0,0,5.74,2.619,56,56,0,0,0,6.824,1.129" transform="translate(114.651 55.369)" fill="#ffa698"/>
          <path id="Trazado_874012" data-name="Trazado 874012" d="M70.837,31.565c-.238-.252-2.346-6.091-2.346-6.091l.652-1.21a15.9,15.9,0,0,0,8.871-3.591c4.516-3.556,5.144-6.645,5.144-6.645l-.2-2.185s.544-.21,1.069,1.413,2.048,3.9,2.135,5.705-1.487,7.767-15.327,12.6" transform="translate(171.67 29.665)" fill="#e8ecff"/>
          <path id="Trazado_874013" data-name="Trazado 874013" d="M68.363,27.075c-.649-.182-1.438-2.1-1.634-4.832a28.265,28.265,0,0,1,.957-7.1l2.2-2.5s-.95,3.591-.319,5.635,4.046,3.976,4.046,3.976l-.652,1.21Z" transform="translate(167.197 31.679)" fill="#e8ecff"/>
          <path id="Trazado_874014" data-name="Trazado 874014" d="M91,18.447c-.6,2.111-2.9,12.36-4.751,14s-12.329,5.933-15.975,5.67-4.229-.989-4.53-1.869-.828-9.625-.228-15.555S66.619,10.245,67.786,7.44,69.256,3.663,72.7,3.376,83.541,1.984,87.493,4.985,91,18.447,91,18.447" transform="translate(163.51 7.368)" fill="#ffa698"/>
          <path id="Trazado_874015" data-name="Trazado 874015" d="M82.965,15.879c-.217,2.013-.3,4.348-.3,4.348l1.844,4.306-.347,2.774,2.374.936s.856-3.3,2.77-3.524,2.286,4.155,2.286,4.155-2.753,5.095-1.227,8.033c1.385-3.882,3.612-5.512,5.186-9.18s3.987-10.046,3.037-15.144-6.424-6.389-6.424-6.389S88.5,1.5,80.219,1.106,68.476,4.669,67.5,6.5s-2.633,9.134-1.7,10.586c.842-5.207,2.486-7.4,3.254-7.595s1.62,2.009,13.914,6.392" transform="translate(164.227 2.705)" fill="#202459"/>
          <path id="Trazado_874016" data-name="Trazado 874016" d="M73.041,11.3c-.025-1.091,1.539-4.376,3.7-3.443s1.087,5.081-.06,6.052-2.013,3.71-3.812,3.661-.82-3.787-.82-3.787Z" transform="translate(179.915 19.274)" fill="#ffa698"/>
          <path id="Trazado_874017" data-name="Trazado 874017" d="M68.526,42.6,53,33.976l1.013-2.423,15.527,8.626Z" transform="translate(132.841 79.085)" fill="#2d58ba"/>
        </g>
      </g>
      <g id="Grupo_1100003" data-name="Grupo 1100003" transform="translate(167.686 113.062)">
        <g id="Grupo_1100002" data-name="Grupo 1100002" clip-path="url(#clip-path-4)">
          <path id="Trazado_874018" data-name="Trazado 874018" d="M63.351,55.345l-15.53-8.626c2.966.628,6.5-.536,9.93-3.282a28.487,28.487,0,0,0,8.23-11.193L81.508,40.87a28.493,28.493,0,0,1-8.226,11.189c-3.429,2.749-6.964,3.913-9.93,3.286" transform="translate(-47.825 -32.244)" fill="#2a5f61"/>
        </g>
      </g>
      <g id="Grupo_1100005" data-name="Grupo 1100005" transform="translate(184.696 92.23)">
        <g id="Grupo_1100004" data-name="Grupo 1100004" clip-path="url(#clip-path-5)">
          <path id="Trazado_874020" data-name="Trazado 874020" d="M70.36,53.335,54.833,44.709a28.415,28.415,0,0,0,1.154-3.328,19.673,19.673,0,0,0,.561-9.225A8.364,8.364,0,0,0,52.673,26.3L68.2,34.926a8.371,8.371,0,0,1,3.875,5.852,19.729,19.729,0,0,1-.558,9.229,29.584,29.584,0,0,1-1.157,3.328" transform="translate(-52.673 -26.3)" fill="#2d58ba"/>
        </g>
      </g>
      <g id="Grupo_1100007" data-name="Grupo 1100007" transform="translate(0 0)">
        <g id="Grupo_1100006" data-name="Grupo 1100006" clip-path="url(#clip-path-2)">
          <path id="Trazado_874022" data-name="Trazado 874022" d="M62.923,17.6l15.527,8.626A22.365,22.365,0,0,0,72.183,23.9l-15.53-8.622a22.382,22.382,0,0,1,6.27,2.321" transform="translate(141.998 38.283)" fill="#2d58ba"/>
        </g>
      </g>
      <g id="Grupo_1100009" data-name="Grupo 1100009" transform="translate(198.651 53.554)">
        <g id="Grupo_1100008" data-name="Grupo 1100008" clip-path="url(#clip-path-7)">
          <path id="Trazado_874023" data-name="Trazado 874023" d="M72.183,23.9l-15.53-8.626a22.347,22.347,0,0,1,6.27,2.325L78.449,26.22A22.359,22.359,0,0,0,72.183,23.9" transform="translate(-56.653 -15.273)" fill="#2d58ba"/>
        </g>
      </g>
      <g id="Grupo_1100011" data-name="Grupo 1100011" transform="translate(0 0)">
        <g id="Grupo_1100010" data-name="Grupo 1100010" clip-path="url(#clip-path-2)">
          <path id="Trazado_874025" data-name="Trazado 874025" d="M42.04,79.455,26.514,70.829,42.4,32.868l15.527,8.626Z" transform="translate(66.455 82.382)" fill="#d3d9f2"/>
          <path id="Trazado_874026" data-name="Trazado 874026" d="M46.572,41.494,31.046,32.868,89.866,45.155,105.4,53.78Z" transform="translate(77.814 82.382)" fill="#2a5f61"/>
          <path id="Trazado_874027" data-name="Trazado 874027" d="M31.045,32.868l16.07,3.356,15.527,8.622-16.07-3.352Z" transform="translate(77.814 82.383)" fill="#a0a5b5"/>
          <path id="Trazado_874028" data-name="Trazado 874028" d="M55.4,20.4,39.871,11.769,98.717,24.056l15.527,8.626Z" transform="translate(99.935 29.499)" fill="#3e79ff"/>
          <path id="Trazado_874029" data-name="Trazado 874029" d="M153.717,77.864A93.48,93.48,0,0,1,149.9,88.822l-1.013,2.423c-6.115,14.636-15.642,27.589-26.81,36.527-11.161,8.906-22.61,12.693-32.284,10.688L30.942,126.173,46.833,88.212,105.658,100.5c2.963.628,6.5-.536,9.93-3.286a28.526,28.526,0,0,0,8.226-11.189l1.013-2.423a28.693,28.693,0,0,0,1.154-3.331,19.67,19.67,0,0,0,.561-9.225c-.778-3.615-2.844-5.94-5.807-6.568L61.886,52.19,77.778,14.229l58.849,12.287c9.643,2.041,16.365,9.625,18.868,21.393,1.872,8.808,1.224,19.177-1.778,29.956" transform="translate(77.555 35.664)" fill="#3466d9"/>
          <path id="Trazado_874030" data-name="Trazado 874030" d="M122.075,76.451c10.905-8.728,20.222-21.295,26.348-35.5L123.814,34.7a28.442,28.442,0,0,1-8.226,11.189c-3.433,2.753-6.967,3.917-9.93,3.286L46.833,36.891,30.942,74.852,89.791,87.139c9.674,2.006,21.126-1.778,32.284-10.688" transform="translate(77.555 86.981)" fill="#59c4c8"/>
          <path id="Trazado_874031" data-name="Trazado 874031" d="M30.942,73.289l16.07,3.356L62.9,38.684l-16.07-3.356Z" transform="translate(77.554 88.548)" fill="#b0b6c9"/>
          <path id="Trazado_874032" data-name="Trazado 874032" d="M50.866,58.353,35.339,49.728,51.231,11.77l15.527,8.622Z" transform="translate(88.577 29.501)" fill="#d3d9f2"/>
          <path id="Trazado_874033" data-name="Trazado 874033" d="M39.767,52.19l16.07,3.356L71.729,17.585l-16.07-3.356Z" transform="translate(99.675 35.664)" fill="#b0b6c9"/>
          <path id="Trazado_874034" data-name="Trazado 874034" d="M39.871,11.77l16.07,3.356,15.53,8.622L55.4,20.4Z" transform="translate(99.935 29.5)" fill="#e8ecff"/>
          <path id="Trazado_874035" data-name="Trazado 874035" d="M86.081,18.024c-3.033,1.02-9.976,4.06-11.2,18.581-.827,9.825-.764,30.3-.372,33.129S86.218,81.169,88.89,71.277s2.949-34.809,2.556-41.085-1-9.8-1.792-11.6-3.573-.565-3.573-.565" transform="translate(186.048 44.138)" fill="#e8ecff"/>
          <path id="Trazado_874036" data-name="Trazado 874036" d="M109.535,33.368c-3.4-1.546-5.442-2.142-6.7-1.564S65.8,45.051,64.232,45.051s-2.041,9.576.053,11.824,3.24,1.518,3.612,1.518,41.639-7.967,46.243-14.4a16.7,16.7,0,0,0,2.879-13.03Z" transform="translate(157.604 77.597)" fill="#e8ecff"/>
          <path id="Trazado_874037" data-name="Trazado 874037" d="M81.34,45.114c-.729-4.443-2.553-5.593-2.553-5.593l-4.639-2.265s-2.931-3.089-4.264-3.366a68.455,68.455,0,0,0-8.577-.743c-.817.126-.48,1.273-.1,1.68a3.748,3.748,0,0,0,1.29.694s4.762.715,5.372,1.189a12.151,12.151,0,0,1,1.6,1.858l-5.235-1.511s-4.779-.929-5.53-.9-.933,1.3-.172,1.988a10.207,10.207,0,0,0,2.942,1.287l5.133,1.5,3.57,2.928s-9.874-3.773-10.849-3.8-1.059,1.413-.1,2.318S66.21,45.4,66.21,45.4l2.875,1.992s-7.539-1.55-8.493-1.55-.792,1.406-.063,1.953,5.263,1.357,6.641,2.009a20.541,20.541,0,0,0,5.723,2.1c2.328.361,5.936-.866,5.936-.866a5.837,5.837,0,0,0,2.511-5.922" transform="translate(145.492 83.033)" fill="#ffa698"/>
        </g>
      </g>
      <g id="Grupo_1100013" data-name="Grupo 1100013" transform="translate(92.318 117.291)">
        <g id="Grupo_1100012" data-name="Grupo 1100012" clip-path="url(#clip-path-9)">
          <path id="Trazado_874038" data-name="Trazado 874038" d="M26.327,33.45h6.014a7.831,7.831,0,0,1,3.948,1.091h-6.01a7.844,7.844,0,0,0-3.952-1.091" transform="translate(-26.331 -33.45)" fill="#db0049"/>
        </g>
      </g>
      <g id="Grupo_1100015" data-name="Grupo 1100015" transform="translate(96.266 118.381)">
        <g id="Grupo_1100014" data-name="Grupo 1100014" clip-path="url(#clip-path-10)">
          <path id="Trazado_874040" data-name="Trazado 874040" d="M27.454,33.761h6.014c.137.077.27.161.407.249a12.4,12.4,0,0,1,5.1,8.2H32.959a12.406,12.406,0,0,0-5.095-8.205c-.137-.084-.274-.168-.41-.245" transform="translate(-27.454 -33.761)" fill="#db0049"/>
        </g>
      </g>
      <g id="Grupo_1100017" data-name="Grupo 1100017" transform="translate(89.225 125.833)">
        <g id="Grupo_1100016" data-name="Grupo 1100016" clip-path="url(#clip-path-11)">
          <path id="Trazado_874042" data-name="Trazado 874042" d="M41.811,35.887h6.014a7.891,7.891,0,0,1,3.962,1.091c.126.074.245.147.368.224,4.814,3.128,6.746,10.618,4.337,16.817C53.655,61.295,45.4,66.386,31.456,69.027h-6.01c13.945-2.64,22.2-7.732,25.033-15.008,2.409-6.2.477-13.689-4.337-16.817-.119-.077-.242-.151-.365-.224a7.912,7.912,0,0,0-3.966-1.091" transform="translate(-25.446 -35.883)" fill="#db0049"/>
        </g>
      </g>
      <g id="Grupo_1100019" data-name="Grupo 1100019" transform="translate(0 0)">
        <g id="Grupo_1100018" data-name="Grupo 1100018" clip-path="url(#clip-path-2)">
          <path id="Trazado_874044" data-name="Trazado 874044" d="M37.439,34.54c.137.077.273.161.41.245a12.406,12.406,0,0,1,5.095,8.205,7.766,7.766,0,0,1,7.781.095q.184.105.368.221c4.814,3.128,6.746,10.618,4.337,16.82-2.837,7.276-11.087,12.367-25.036,15-6.7-15.951-8.465-27.487-5.614-34.791,2.353-5.989,7.949-8.517,12.658-5.8" transform="translate(58.827 83.842)" fill="#ff216b"/>
        </g>
      </g>
      <g id="Grupo_1100021" data-name="Grupo 1100021" transform="translate(117.28 1.42)">
        <g id="Grupo_1100020" data-name="Grupo 1100020" clip-path="url(#clip-path-13)">
          <path id="Trazado_874045" data-name="Trazado 874045" d="M40.186,6.391,33.447,2.474C42.508-.057,48.742-.243,52.256,1.8L59,5.714c-3.513-2.041-9.748-1.855-18.809.677" transform="translate(-33.447 -0.402)" fill="#db0049"/>
        </g>
      </g>
      <g id="Grupo_1100023" data-name="Grupo 1100023" transform="translate(108.952 3.492)">
        <g id="Grupo_1100022" data-name="Grupo 1100022" clip-path="url(#clip-path-14)">
          <path id="Trazado_874047" data-name="Trazado 874047" d="M40.517,39.381l-6.739-3.917a4.8,4.8,0,0,1-2.009-2.437C29.725,27.957,32.155,17.371,39.4,1l6.739,3.917c-7.244,16.375-9.674,26.961-7.63,32.031a4.8,4.8,0,0,0,2.009,2.437" transform="translate(-31.071 -0.996)" fill="#db0049"/>
        </g>
      </g>
      <g id="Grupo_1100025" data-name="Grupo 1100025" transform="translate(0 0)">
        <g id="Grupo_1100024" data-name="Grupo 1100024" clip-path="url(#clip-path-2)">
          <path id="Trazado_874049" data-name="Trazado 874049" d="M41.321,3.591C53.772.113,60.887,1.063,62.931,6.133c1.75,4.257-.575,11.487-5.169,16.112a14.72,14.72,0,0,1-3.1,2.455,7.633,7.633,0,0,1-4.313,1.175,21.025,21.025,0,0,1-5.235,9.145,14.687,14.687,0,0,1-3.086,2.426c-3.591,2.076-6.992,1.494-8.335-1.823-2.044-5.07.386-15.656,7.63-32.031" transform="translate(82.699 3.817)" fill="#ff216b"/>
        </g>
      </g>
      <g id="Grupo_1100027" data-name="Grupo 1100027" transform="translate(20.621 12.476)">
        <g id="Grupo_1100026" data-name="Grupo 1100026" clip-path="url(#clip-path-16)">
          <path id="Trazado_874050" data-name="Trazado 874050" d="M12.62,8.7,5.881,4.779c2.339-1.35,4.625-1.609,6.308-.631l6.739,3.917c-1.683-.978-3.969-.719-6.308.631" transform="translate(-5.881 -3.556)" fill="#db0049"/>
        </g>
      </g>
      <g id="Grupo_1100029" data-name="Grupo 1100029" transform="translate(11.957 13.7)">
        <g id="Grupo_1100028" data-name="Grupo 1100028" clip-path="url(#clip-path-17)">
          <path id="Trazado_874052" data-name="Trazado 874052" d="M10.149,21.082,3.41,17.165A20.08,20.08,0,0,1,7.74,7.712a16.16,16.16,0,0,1,4.334-3.8l6.739,3.917a16.213,16.213,0,0,0-4.334,3.8,20.114,20.114,0,0,0-4.33,9.453" transform="translate(-3.41 -3.907)" fill="#db0049"/>
        </g>
      </g>
      <g id="Grupo_1100031" data-name="Grupo 1100031" transform="translate(0 26.954)">
        <g id="Grupo_1100030" data-name="Grupo 1100030" clip-path="url(#clip-path-18)">
          <path id="Trazado_874054" data-name="Trazado 874054" d="M9.68,34.05,2.94,30.133a5.428,5.428,0,0,1-1.785-1.659C-1.267,24.947.247,17.85,4.522,12.629a16.064,16.064,0,0,1,4.3-3.783,9.062,9.062,0,0,1,3.135-1.157L18.695,11.6a8.986,8.986,0,0,0-3.131,1.161,15.952,15.952,0,0,0-4.3,3.783C6.987,21.766,5.472,28.863,7.9,32.391A5.428,5.428,0,0,0,9.68,34.05" transform="translate(0.001 -7.684)" fill="#db0049"/>
        </g>
      </g>
      <g id="Grupo_1100033" data-name="Grupo 1100033" transform="translate(0 0)">
        <g id="Grupo_1100032" data-name="Grupo 1100032" clip-path="url(#clip-path-2)">
          <path id="Trazado_874056" data-name="Trazado 874056" d="M22.544,5.9C25.65,4.1,28.67,4.235,30.3,6.64c2.858,4.159,1.645,14.383-3.885,30.878-12.806,5.915-20.5,6.6-23.335,2.423C.653,36.413,2.168,29.316,6.442,24.1a16,16,0,0,1,4.3-3.783,8.977,8.977,0,0,1,3.135-1.161A20.129,20.129,0,0,1,18.21,9.7a16.213,16.213,0,0,1,4.334-3.8" transform="translate(4.817 11.719)" fill="#ff216b"/>
        </g>
      </g>
      <g id="Grupo_1100035" data-name="Grupo 1100035" transform="translate(74.34)">
        <g id="Grupo_1100034" data-name="Grupo 1100034" clip-path="url(#clip-path-20)">
          <path id="Trazado_874057" data-name="Trazado 874057" d="M27.471,6.326,21.2,2.683C26.633-.455,31.556-.747,35.108,1.319l6.27,3.647C37.825,2.9,32.9,3.191,27.471,6.326" transform="translate(-21.201 0)" fill="#0051bd"/>
        </g>
      </g>
      <g id="Grupo_1100037" data-name="Grupo 1100037" transform="translate(54.862 2.682)">
        <g id="Grupo_1100036" data-name="Grupo 1100036" clip-path="url(#clip-path-21)">
          <path id="Trazado_874059" data-name="Trazado 874059" d="M27.616,50.69l-6.27-3.643c-3.51-2.041-5.684-6.375-5.7-12.539C15.61,22.105,24.331,7,35.127.765L41.4,4.408C30.6,10.639,21.88,25.749,21.915,38.151c.018,6.164,2.192,10.5,5.7,12.539" transform="translate(-15.648 -0.765)" fill="#0051bd"/>
        </g>
      </g>
      <g id="Grupo_1100039" data-name="Grupo 1100039" transform="translate(0 0)">
        <g id="Grupo_1100038" data-name="Grupo 1100038" clip-path="url(#clip-path-2)">
          <path id="Trazado_874061" data-name="Trazado 874061" d="M36.915,3.72C47.711-2.511,56.488,2.489,56.523,14.9S47.838,42.407,37.041,48.641,17.468,49.869,17.433,37.466,26.119,9.955,36.915,3.72" transform="translate(43.695 2.605)" fill="#218bff"/>
          <path id="Trazado_874062" data-name="Trazado 874062" d="M38.1,6.924l1.031-.456a1.366,1.366,0,0,1,2.09,1.189l.8,7.188-4.057,2.342,0-1.771-.379.221-.34.2.025,8.619L24.944,31.568l-.025-8.619-.34.2-.41.235.007,1.771-4.032,2.325.764-8.089a5.378,5.378,0,0,1,2.079-3.6l1.027-.733.54-.312L37.561,7.237Z" transform="translate(50.49 15.755)" fill="#fff"/>
          <path id="Trazado_874063" data-name="Trazado 874063" d="M27.308,4.058c3.152-1.82,5.712-.358,5.723,3.265a12.533,12.533,0,0,1-5.684,9.846c-3.152,1.82-5.712.354-5.723-3.261a12.53,12.53,0,0,1,5.684-9.85" transform="translate(54.2 8.21)" fill="#fff"/>
          <path id="Trazado_874064" data-name="Trazado 874064" d="M31.25,22.929l6.27,3.643c-3.556-2.065-8.475-1.774-13.907,1.364l-6.27-3.643c5.432-3.138,10.351-3.429,13.907-1.364" transform="translate(43.469 54.164)" fill="#ffb504"/>
        </g>
      </g>
      <g id="Grupo_1100041" data-name="Grupo 1100041" transform="translate(60.809 75.771)">
        <g id="Grupo_1100040" data-name="Grupo 1100040" clip-path="url(#clip-path-23)">
          <path id="Trazado_874065" data-name="Trazado 874065" d="M23.612,27.936l-6.27-3.643c5.432-3.138,10.355-3.429,13.907-1.364l6.27,3.647c-3.552-2.065-8.475-1.778-13.907,1.361" transform="translate(-17.342 -21.607)" fill="#ffb504"/>
        </g>
      </g>
      <g id="Grupo_1100043" data-name="Grupo 1100043" transform="translate(41.327 78.457)">
        <g id="Grupo_1100042" data-name="Grupo 1100042" clip-path="url(#clip-path-24)">
          <path id="Trazado_874067" data-name="Trazado 874067" d="M23.757,72.3l-6.27-3.643c-3.51-2.041-5.684-6.375-5.7-12.539-.035-12.4,8.685-27.512,19.482-33.743l6.27,3.643c-10.8,6.234-19.517,21.34-19.482,33.746.018,6.161,2.192,10.5,5.7,12.536" transform="translate(-11.786 -22.375)" fill="#ffb504"/>
        </g>
      </g>
      <g id="Grupo_1100045" data-name="Grupo 1100045" transform="translate(0 0)">
        <g id="Grupo_1100044" data-name="Grupo 1100044" clip-path="url(#clip-path-2)">
          <path id="Trazado_874069" data-name="Trazado 874069" d="M33.056,25.33C43.852,19.1,52.629,24.1,52.664,36.505S43.979,64.017,33.182,70.251,13.609,71.479,13.574,59.076,22.26,31.565,33.056,25.33" transform="translate(34.023 56.77)" fill="#fde100"/>
          <path id="Trazado_874070" data-name="Trazado 874070" d="M19.294,28.274c-1.448.835-2.619,3.9-2.612,6.178s1.189,2.9,2.637,2.058a5.915,5.915,0,0,0,2.612-5.091c0-2.272-1.189-3.983-2.637-3.145" transform="translate(41.813 70.324)" fill="#de6d00"/>
          <path id="Trazado_874071" data-name="Trazado 874071" d="M22.779,26.262c-1.448.835-2.619,3.9-2.612,6.178s1.189,2.9,2.637,2.062a5.926,5.926,0,0,0,2.612-5.095c-.007-2.272-1.189-3.983-2.637-3.145" transform="translate(50.548 65.281)" fill="#de6d00"/>
          <path id="Trazado_874072" data-name="Trazado 874072" d="M41.071,28.95l-1.764,1.017c-1.543,6.161-5.891,12.574-10.9,15.467l-.018.007c-5.007,2.882-9.436,1.536-11.112-2.753L15.5,43.712c1.743,5.361,6.971,7.055,12.886,3.65l.018-.007c5.929-3.426,11.066-11.1,12.665-18.405" transform="translate(38.855 72.562)" fill="#de6d00"/>
        </g>
      </g>
    </g>
  </g>
</svg>
