<svg id="img15" xmlns="http://www.w3.org/2000/svg" xmlns:xlink="http://www.w3.org/1999/xlink" width="400" height="295.304" viewBox="0 0 400 295.304">
  <defs>
    <clipPath id="clip-path">
      <rect id="Rectángulo_401112" data-name="Rectángulo 401112" width="208.515" height="266.167" fill="none"/>
    </clipPath>
    <clipPath id="clip-path-2">
      <rect id="Rectángulo_401108" data-name="Rectángulo 401108" width="208.514" height="266.169" fill="none"/>
    </clipPath>
    <clipPath id="clip-path-3">
      <rect id="Rectángulo_401107" data-name="Rectángulo 401107" width="193.668" height="98.271" fill="none"/>
    </clipPath>
    <clipPath id="clip-path-5">
      <rect id="Rectángulo_401109" data-name="Rectángulo 401109" width="64.58" height="83.062" fill="none"/>
    </clipPath>
    <clipPath id="clip-path-6">
      <rect id="Rectángulo_401110" data-name="Rectángulo 401110" width="23.278" height="24.523" fill="none"/>
    </clipPath>
  </defs>
  <g id="Image_Place_Holder" data-name="Image Place Holder" transform="translate(0 24.534)">
    <rect id="Image_Place_Holder-2" data-name="Image Place Holder" width="400" height="270.77" rx="10" fill="#b9daff"/>
  </g>
  <g id="Grupo_1099996" data-name="Grupo 1099996" transform="translate(100.803 0)">
    <g id="Grupo_1099995" data-name="Grupo 1099995" clip-path="url(#clip-path)">
      <g id="Grupo_1099986" data-name="Grupo 1099986" transform="translate(0 -0.002)">
        <g id="Grupo_1099985" data-name="Grupo 1099985" clip-path="url(#clip-path-2)">
          <g id="Grupo_1099984" data-name="Grupo 1099984" transform="translate(3.238 167.898)" style="mix-blend-mode: multiply;isolation: isolate">
            <g id="Grupo_1099983" data-name="Grupo 1099983">
              <g id="Grupo_1099982" data-name="Grupo 1099982" clip-path="url(#clip-path-3)">
                <path id="Trazado_873964" data-name="Trazado 873964" d="M194.636,65.3l-12.392-7.522L159.437,71.5,124.455,50.265.97,124.6l39.438,23.939,59.179-35.624,7.946,4.817Z" transform="translate(-0.968 -50.266)" fill="#c2c2cf"/>
              </g>
            </g>
          </g>
        </g>
      </g>
      <path id="Trazado_873965" data-name="Trazado 873965" d="M58.167,169.975,27.146,151.948,26.772,19.057,57.789,37.081Z" transform="translate(62.653 44.597)" fill="#2a5f61"/>
      <path id="Trazado_873966" data-name="Trazado 873966" d="M57.792,51.811,26.771,33.783l36.412-21.02L94.2,30.787Z" transform="translate(62.651 29.869)" fill="#d1f3f5"/>
      <path id="Trazado_873967" data-name="Trazado 873967" d="M72.47,18.16l.377,132.894-36.412,21.02L36.058,39.183Z" transform="translate(84.384 42.498)" fill="#59c4c8"/>
      <path id="Trazado_873968" data-name="Trazado 873968" d="M45.845,140.427,14.825,122.4,14.6,41.683,45.618,59.707Z" transform="translate(34.161 97.547)" fill="#2f1988"/>
      <path id="Trazado_873969" data-name="Trazado 873969" d="M45.618,74.429,14.6,56.4l36.392-21.01L82.006,53.419Z" transform="translate(34.16 82.826)" fill="#4424c5"/>
      <path id="Trazado_873970" data-name="Trazado 873970" d="M60.273,40.789l.227,80.72-36.388,21.01L23.884,61.8Z" transform="translate(55.894 95.456)" fill="#4c28db"/>
      <path id="Trazado_873971" data-name="Trazado 873971" d="M33.62,98.125,2.6,80.1,2.372,69.764,33.39,87.787Z" transform="translate(5.552 163.263)" fill="#3a7200"/>
      <path id="Trazado_873972" data-name="Trazado 873972" d="M33.393,102.51,2.372,84.483l36.392-21.01L69.781,81.5Z" transform="translate(5.551 148.541)" fill="#5cb500"/>
      <path id="Trazado_873973" data-name="Trazado 873973" d="M48.048,68.87l.23,10.338-36.392,21.01L11.659,89.88Z" transform="translate(27.285 161.171)" fill="#7ad41b"/>
      <g id="Grupo_1099994" data-name="Grupo 1099994" transform="translate(0 -0.002)">
        <g id="Grupo_1099993" data-name="Grupo 1099993" clip-path="url(#clip-path-2)">
          <path id="Trazado_873974" data-name="Trazado 873974" d="M97,34.458,86.271,28.222c5.8,3.367,9.389,10.528,9.419,20.709C95.748,69.42,81.338,94.378,63.5,104.673c-8.972,5.184-17.105,5.665-22.977,2.251l10.735,6.236c5.869,3.414,14,2.933,22.974-2.248,17.833-10.3,32.243-35.253,32.186-55.742C106.393,44.99,102.8,37.825,97,34.458" transform="translate(94.842 66.047)" fill="#6a66ab"/>
          <g id="Grupo_1099989" data-name="Grupo 1099989" transform="translate(132.769 96.065)" opacity="0.26">
            <g id="Grupo_1099988" data-name="Grupo 1099988">
              <g id="Grupo_1099987" data-name="Grupo 1099987" clip-path="url(#clip-path-5)">
                <path id="Trazado_873975" data-name="Trazado 873975" d="M72.143,107.393c17.833-10.3,32.243-35.253,32.186-55.742S89.766,22.892,71.932,33.19,39.689,68.443,39.749,88.935s14.563,28.753,32.394,18.458" transform="translate(-39.748 -28.759)" fill="#6792d1"/>
              </g>
            </g>
          </g>
          <path id="Trazado_873976" data-name="Trazado 873976" d="M78.111,32.14c21.768-12.569,39.471-2.478,39.542,22.533s-17.516,55.471-39.284,68.04S38.9,125.192,38.826,100.181,56.342,44.706,78.111,32.14m.107,82.256C96.051,104.1,110.461,79.144,110.4,58.655S95.84,29.9,78.007,40.194,45.764,75.446,45.821,95.935s14.567,28.756,32.4,18.461" transform="translate(90.861 62.563)" fill="#4b476e"/>
          <path id="Trazado_873977" data-name="Trazado 873977" d="M102.734,27.4c-7.165-4.165-17.092-3.577-28.045,2.746C52.921,42.72,35.335,73.183,35.405,98.194c.033,12.426,4.422,21.167,11.5,25.279l11.424,6.64C51.251,126,46.865,117.26,46.832,104.834c-.07-25.012,17.516-55.474,39.284-68.044,10.953-6.323,20.876-6.911,28.045-2.746Z" transform="translate(82.856 57.91)" fill="#6a66ab"/>
          <g id="Grupo_1099992" data-name="Grupo 1099992" transform="translate(154.195 108.712)" opacity="0.27" style="mix-blend-mode: screen;isolation: isolate">
            <g id="Grupo_1099991" data-name="Grupo 1099991">
              <g id="Grupo_1099990" data-name="Grupo 1099990" clip-path="url(#clip-path-6)">
                <path id="Trazado_873978" data-name="Trazado 873978" d="M66.927,34.26c3.988,3.45,3.136,10.973-1.9,16.8s-12.359,7.746-16.347,4.3-3.136-10.973,1.9-16.8,12.362-7.746,16.35-4.3" transform="translate(-46.162 -32.546)" fill="#a6b1c7"/>
              </g>
            </g>
          </g>
          <path id="Trazado_873979" data-name="Trazado 873979" d="M32.633,56.034c-.184-.194-.371-.387-.554-.578a8.713,8.713,0,0,0,2,1.58c2.819,1.57,5.074.194,5.034-3.076l2.529.16c.05,4.185-2.836,5.949-6.45,3.935a11.077,11.077,0,0,1-2.559-2.021" transform="translate(75.072 126.28)" fill="#6a66ab"/>
          <path id="Trazado_873980" data-name="Trazado 873980" d="M47.388,56.07,34.371,63.635c1.2-.7,1.934-2.2,1.907-4.329L49.3,51.744c.027,2.124-.7,3.627-1.907,4.326" transform="translate(80.436 121.094)" fill="#4b476e"/>
          <path id="Trazado_873981" data-name="Trazado 873981" d="M31.745,58.974c-.077-.257-.154-.514-.227-.768a11.184,11.184,0,0,1-.491-3.04c-.05-4.185,2.836-5.949,6.447-3.935a14.377,14.377,0,0,1,6.634,11.223l-2.525-.16A11.224,11.224,0,0,0,36.4,53.526c-2.819-1.573-5.077-.2-5.037,3.073a8.85,8.85,0,0,0,.384,2.375" transform="translate(72.607 117.946)" fill="#6a66ab"/>
          <path id="Trazado_873982" data-name="Trazado 873982" d="M31.6,56.14l13.017-7.566c1.162-.675,2.762-.6,4.543.391A14.378,14.378,0,0,1,55.79,60.192L42.77,67.754a14.382,14.382,0,0,0-6.63-11.223c-1.78-.989-3.38-1.066-4.543-.391" transform="translate(73.944 112.646)" fill="#4b476e"/>
          <path id="Trazado_873983" data-name="Trazado 873983" d="M21.7,63.324c.013,1.005-.681,1.43-1.55.945a3.447,3.447,0,0,1-1.6-2.7c-.013-1.009.681-1.43,1.55-.949a3.467,3.467,0,0,1,1.6,2.7" transform="translate(43.425 141.404)" fill="#fb9f53"/>
          <path id="Trazado_873984" data-name="Trazado 873984" d="M30.773,88.862a7.955,7.955,0,0,1-9.272-.935,9.5,9.5,0,0,1-3.163-9.647,7.539,7.539,0,0,1,3.237-4.4c.6-.377,1.446-.795,2.068-1.132q5.767-3.106,11.54-6.2c8.614-4.65,19.143-10.295,28.161-15.1a3.6,3.6,0,0,1,3.474.344A11.235,11.235,0,0,1,72,60.56C70.522,61.465,42.457,78.7,32.51,84.787a11.185,11.185,0,0,1-9.573.257,3.453,3.453,0,0,0-1.6-2.7c-.868-.484-1.563-.06-1.55.945a3.462,3.462,0,0,0,1.6,2.7c.868.484,1.563.06,1.55-.949a11.185,11.185,0,0,0,9.573-.257C42.457,78.7,70.522,61.465,72,60.56a3.678,3.678,0,0,1-1.42,3.337Z" transform="translate(42.191 119.68)" fill="#fb9f53"/>
          <path id="Trazado_873985" data-name="Trazado 873985" d="M16.317,57.356c-1.737-1.012-4.142-.872-6.794.661C4.252,61.06-.013,68.449,0,74.508c.01,3.006,1.072,5.127,2.789,6.119l12.366,7.185c-1.717-.992-2.782-3.113-2.789-6.119-.02-6.059,4.249-13.448,9.52-16.491,2.652-1.533,5.057-1.673,6.8-.661Z" transform="translate(0 132.711)" fill="#b7bbd0"/>
          <path id="Trazado_873986" data-name="Trazado 873986" d="M13.222,60.167c5.271-3.043,9.566-.595,9.583,5.458s-4.252,13.451-9.52,16.494-9.566.595-9.583-5.461,4.249-13.448,9.52-16.491" transform="translate(8.663 137.746)" fill="#dddde2"/>
          <path id="Trazado_873987" data-name="Trazado 873987" d="M5.971,116.454,33.832,33.583a6.121,6.121,0,0,0,4.192-.1L10.236,116.363a6.146,6.146,0,0,0-4.265.09" transform="translate(13.973 78.35)" fill="#a1a4b7"/>
          <path id="Trazado_873988" data-name="Trazado 873988" d="M9.259,118.293l-4.693-2.729L32.427,32.693l4.693,2.729Z" transform="translate(10.685 76.511)" fill="#808291"/>
          <path id="Trazado_873989" data-name="Trazado 873989" d="M27.009,25.409c-1.73-1.009-4.135-.868-6.8.675-5.271,3.043-9.506,10.415-9.49,16.477.007,3.013,1.072,5.137,2.789,6.136l12.362,7.185c-1.717-1-2.779-3.123-2.786-6.136-.02-6.063,4.215-13.434,9.486-16.477,2.666-1.543,5.067-1.683,6.8-.675Z" transform="translate(25.092 57.958)" fill="#b7bbd0"/>
          <path id="Trazado_873990" data-name="Trazado 873990" d="M23.91,28.233c5.3-3.063,9.566-.595,9.583,5.465s-4.219,13.428-9.52,16.487c-5.271,3.043-9.536.578-9.55-5.478s4.215-13.431,9.486-16.474" transform="translate(33.755 62.993)" fill="#dddde2"/>
          <path id="Trazado_873991" data-name="Trazado 873991" d="M46.81,8.45a4.786,4.786,0,0,0,3.668,1.256l-29.5,59.476a4.8,4.8,0,0,0-3.664-1.266Z" transform="translate(40.507 19.777)" fill="#a1a4b7"/>
          <path id="Trazado_873992" data-name="Trazado 873992" d="M20.6,69.829,15.9,67.1,45.4,7.634,50.1,10.363Z" transform="translate(37.217 17.866)" fill="#808291"/>
          <path id="Trazado_873993" data-name="Trazado 873993" d="M39.3.644c-1.737-1.012-4.145-.862-6.8.671-5.271,3.043-9.506,10.375-9.49,16.471.01,3.006,1.066,5.124,2.772,6.116l12.366,7.185c-1.707-.992-2.766-3.11-2.776-6.116-.017-6.1,4.219-13.428,9.49-16.471,2.659-1.533,5.064-1.683,6.8-.671Z" transform="translate(53.846 0.002)" fill="#b7bbd0"/>
          <path id="Trazado_873994" data-name="Trazado 873994" d="M36.2,3.468c5.268-3.046,9.566-.638,9.583,5.458.013,6.059-4.252,13.414-9.523,16.454s-9.536.618-9.55-5.441c-.02-6.1,4.219-13.428,9.49-16.471" transform="translate(62.51 5.035)" fill="#dddde2"/>
        </g>
      </g>
    </g>
  </g>
</svg>
