<svg xmlns="http://www.w3.org/2000/svg" width="109" height="109" viewBox="0 0 109 109">
  <g id="img20" transform="translate(-287.668 -4447.437)">
    <path id="Elipse_5845" data-name="Elipse 5845" d="M53.5,0A53.5,53.5,0,1,1,0,53.5,53.5,53.5,0,0,1,53.5,0Z" transform="translate(288.668 4448.437)" fill="#fff" stroke="#b9daff" stroke-width="2"/>
    <g id="Grupo_1100075" data-name="Grupo 1100075" transform="translate(312.06 4471.132)">
      <path id="Trazado_874173" data-name="Trazado 874173" d="M227.2,270.8h18.385v9.162H227.2Z" transform="translate(-199.858 -238.218)" fill="#ee306a"/>
      <g id="Grupo_1100066" data-name="Grupo 1100066" transform="translate(13.476 5.842)">
        <g id="Grupo_1100062" data-name="Grupo 1100062" transform="translate(0.625 41.327)">
          <path id="Trazado_874174" data-name="Trazado 874174" d="M249.2,392h-5.415v14.439h3.61v-3.61h1.8a5.415,5.415,0,0,0,0-10.83Zm0,7.22h-1.8v-3.61h1.8a1.8,1.8,0,0,1,0,3.61Z" transform="translate(-228.553 -392)" fill="#006094"/>
          <path id="Trazado_874175" data-name="Trazado 874175" d="M124.4,395.61a1.807,1.807,0,0,1-1.8,1.8h-1.8V392h-3.61v14.439h3.61v-5.415h1.8a1.807,1.807,0,0,1,1.8,1.8v3.61h3.61v-3.61a5.392,5.392,0,0,0-1.383-3.61,5.393,5.393,0,0,0,1.383-3.61V392H124.4Z" transform="translate(-117.183 -392)" fill="#006094"/>
          <path id="Trazado_874176" data-name="Trazado 874176" d="M364.817,392h3.61v14.439h-3.61Z" transform="translate(-335.019 -392)" fill="#006094"/>
        </g>
        <g id="Grupo_1100065" data-name="Grupo 1100065" transform="translate(0 0)">
          <g id="Grupo_1100063" data-name="Grupo 1100063" transform="translate(25.031)">
            <path id="Trazado_874177" data-name="Trazado 874177" d="M0,0H10.2V3.61H0Z" transform="translate(0 7.018) rotate(-43.461)" fill="#b0c0d2"/>
          </g>
          <g id="Grupo_1100064" data-name="Grupo 1100064" transform="translate(0 4.653)">
            <path id="Trazado_874178" data-name="Trazado 874178" d="M0,0H9.168V3.61H0Z" transform="translate(0 5.831) rotate(-39.483)" fill="#b0c0d2"/>
          </g>
        </g>
      </g>
      <g id="Grupo_1100069" data-name="Grupo 1100069" transform="translate(0 25.922)">
        <g id="Grupo_1100067" data-name="Grupo 1100067" transform="translate(5.904 2.522)">
          <path id="Trazado_874179" data-name="Trazado 874179" d="M49.063,270.8H64.335v9.162H49.063Z" transform="translate(-49.063 -266.662)" fill="#fa5a5e"/>
          <path id="Trazado_874180" data-name="Trazado 874180" d="M150.487,236.386H162.74v13.3H150.487Z" transform="translate(-138.283 -236.386)" fill="#fd7359"/>
        </g>
        <g id="Grupo_1100068" data-name="Grupo 1100068" transform="translate(42.517)">
          <path id="Trazado_874181" data-name="Trazado 874181" d="M353.337,215.427h12.2v15.826h-12.2Z" transform="translate(-353.337 -215.427)" fill="#fa5a5e"/>
        </g>
        <path id="Trazado_874182" data-name="Trazado 874182" d="M0,331.946v3.61H30.312l2.175-1.927-2.175-1.683Z" transform="translate(0 -317.925)" fill="#b0c0d2"/>
        <path id="Trazado_874183" data-name="Trazado 874183" d="M251.912,331.946h31.3v3.61h-31.3Z" transform="translate(-221.6 -317.925)" fill="#b0c0d2"/>
      </g>
      <g id="Grupo_1100070" data-name="Grupo 1100070" transform="translate(26.749 9.779)">
        <path id="Trazado_874184" data-name="Trazado 874184" d="M224.063,81.266l-1.763,3.15,3.612,2.022,1.325-1.3L225.912,82.3Z" transform="translate(-222.3 -81.266)" fill="#b0c0d2"/>
        <path id="Trazado_874185" data-name="Trazado 874185" d="M256.817,92.383l-4.5-2.517V94l2.735,1.531Z" transform="translate(-248.707 -88.831)" fill="#b0c0d2"/>
      </g>
      <g id="Grupo_1100071" data-name="Grupo 1100071" transform="translate(7.14 15.319)">
        <circle id="Elipse_11498" data-name="Elipse 11498" cx="4.693" cy="4.693" r="4.693" fill="#00c0f1"/>
      </g>
      <g id="Grupo_1100072" data-name="Grupo 1100072" transform="translate(19.788 4.898)">
        <circle id="Elipse_11499" data-name="Elipse 11499" cx="4.693" cy="4.693" r="4.693" fill="#00c0f1"/>
      </g>
      <g id="Grupo_1100073" data-name="Grupo 1100073" transform="translate(32.435 11.976)">
        <circle id="Elipse_11500" data-name="Elipse 11500" cx="4.693" cy="4.693" r="4.693" fill="#0095ff"/>
      </g>
      <g id="Grupo_1100074" data-name="Grupo 1100074" transform="translate(45.082)">
        <circle id="Elipse_11501" data-name="Elipse 11501" cx="4.693" cy="4.693" r="4.693" fill="#0095ff"/>
      </g>
    </g>
  </g>
</svg>
