<svg xmlns="http://www.w3.org/2000/svg" xmlns:xlink="http://www.w3.org/1999/xlink" width="1240" height="565" viewBox="0 0 1240 565">
  <defs>
    <clipPath id="clip-path">
      <rect id="Rectángulo_401049" data-name="Rectángulo 401049" width="542.108" height="543.034" fill="none"/>
    </clipPath>
    <clipPath id="clip-path-2">
      <rect id="Rectángulo_401058" data-name="Rectángulo 401058" width="462.568" height="417.556" fill="none"/>
    </clipPath>
    <clipPath id="clip-path-4">
      <rect id="Rectángulo_401051" data-name="Rectángulo 401051" width="89.569" height="89.566" fill="none"/>
    </clipPath>
    <clipPath id="clip-path-5">
      <path id="Trazado_873829" data-name="Trazado 873829" d="M204.494,5.613c-3.817,0-4.608,2.075-1.755,4.61a13.268,13.268,0,0,1,3.721,9.549,15.7,15.7,0,0,1-31.4,0,13.268,13.268,0,0,1,3.721-9.549c2.853-2.536,2.063-4.61-1.755-4.61H152.518a6.961,6.961,0,0,0-6.941,6.939V36.663c0,3.817,2.077,4.605,4.612,1.755a13.259,13.259,0,0,1,9.547-3.721,15.7,15.7,0,0,1,0,31.4,13.256,13.256,0,0,1-9.547-3.723c-2.535-2.851-4.612-2.063-4.612,1.755v31.05H228.2a6.959,6.959,0,0,0,6.941-6.939V12.552A6.961,6.961,0,0,0,228.2,5.613Z" transform="translate(-145.577 -5.613)" fill="none"/>
    </clipPath>
    <linearGradient id="linear-gradient" x1="-3.823" y1="4.515" x2="-3.797" y2="4.515" gradientUnits="objectBoundingBox">
      <stop offset="0" stop-color="#939598"/>
      <stop offset="1" stop-color="#231f20"/>
    </linearGradient>
    <clipPath id="clip-path-6">
      <path id="Trazado_873858" data-name="Trazado 873858" d="M76.709,75.207c.219,9.192,3.119,57.207,39.844,57.207,40.611,0,44.953-56.231,44.953-56.231-16.41-3.759-32.7-2.147-44.953-2.147-5.657,0-12.151-.343-19.108-.343a123.98,123.98,0,0,0-20.736,1.515" transform="translate(-76.709 -73.692)" fill="none"/>
    </clipPath>
    <clipPath id="clip-path-8">
      <rect id="Rectángulo_401054" data-name="Rectángulo 401054" width="229.557" height="114.779" fill="none"/>
    </clipPath>
    <clipPath id="clip-path-9">
      <path id="Trazado_873867" data-name="Trazado 873867" d="M319.274,128.729h-34.8c-3.817,0-4.605,2.074-1.755,4.61,0,0,6.228,5.539,6.228,13.534a20.121,20.121,0,0,1-40.241,0c0-7.995,6.228-13.534,6.228-13.534,2.853-2.536,2.063-4.61-1.755-4.61h-34.8a6.959,6.959,0,0,0-6.939,6.939,6.959,6.959,0,0,0-6.941-6.939H169.182c-3.817,0-4.608,2.074-1.755,4.61,0,0,6.228,5.539,6.228,13.534a20.121,20.121,0,0,1-40.241,0c0-7.995,6.228-13.534,6.228-13.534,2.853-2.536,2.063-4.61-1.752-4.61h-34.3a6.957,6.957,0,0,0-6.939,6.939v100.9a6.959,6.959,0,0,0,6.939,6.939h100.9a6.959,6.959,0,0,0,6.941-6.939,6.959,6.959,0,0,0,6.939,6.939h100.9a6.96,6.96,0,0,0,6.939-6.939v-100.9a6.959,6.959,0,0,0-6.939-6.939" transform="translate(-96.656 -128.729)" fill="none"/>
    </clipPath>
    <linearGradient id="linear-gradient-2" x1="-0.99" y1="1" x2="-0.98" y2="1" xlink:href="#linear-gradient"/>
    <clipPath id="clip-path-10">
      <rect id="Rectángulo_401056" data-name="Rectángulo 401056" width="119.428" height="89.566" fill="none"/>
    </clipPath>
    <clipPath id="clip-path-11">
      <path id="Trazado_873872" data-name="Trazado 873872" d="M107.737,34.7a13.259,13.259,0,0,0-9.547,3.721c-2.536,2.851-4.612,2.063-4.612-1.755V12.552a6.959,6.959,0,0,0-6.939-6.939H62.528c-3.817,0-4.605,2.075-1.755,4.61a13.268,13.268,0,0,1,3.721,9.549,15.7,15.7,0,0,1-31.4,0,13.268,13.268,0,0,1,3.721-9.549c2.853-2.536,2.063-4.61-1.752-4.61H10.95a6.959,6.959,0,0,0-6.939,6.939V88.241a6.957,6.957,0,0,0,6.939,6.939H86.639a6.957,6.957,0,0,0,6.939-6.939V64.13c0-3.817,2.077-4.605,4.612-1.755a13.256,13.256,0,0,0,9.547,3.723,15.7,15.7,0,0,0,0-31.4" transform="translate(-4.011 -5.613)" fill="none"/>
    </clipPath>
    <linearGradient id="linear-gradient-3" x1="-0.079" y1="4.515" x2="-0.059" y2="4.515" xlink:href="#linear-gradient"/>
  </defs>
  <g id="img2" transform="translate(-180 -1653)">
    <rect id="Rectángulo_401000" data-name="Rectángulo 401000" width="1240" height="565" transform="translate(180 1653)" fill="#f3f9ff"/>
    <path id="Trazado_611353" data-name="Trazado 611353" d="M598.084,807H177.4a1.687,1.687,0,0,1,0-3.364H598.084a1.687,1.687,0,0,1,0,3.364" transform="translate(748.154 1334.805)" fill="#1a1a1a"/>
    <g id="Grupo_1099829" data-name="Grupo 1099829" transform="translate(285 1663.41)">
      <g id="Grupo_1099828" data-name="Grupo 1099828">
        <g id="Grupo_1099827" data-name="Grupo 1099827" clip-path="url(#clip-path)">
          <path id="Trazado_873821" data-name="Trazado 873821" d="M540.3,233.369l-64.737,83.018a8.453,8.453,0,0,1-13.33,0l-49.394-63.339L397.5,233.369a8.448,8.448,0,0,1,6.665-13.646h4.21l-1.181-2.871A148.288,148.288,0,0,0,309.69,130.2l62.457-22.666a12.689,12.689,0,0,0,1.339-.574,12.876,12.876,0,0,0,1.248-.707c.2-.134.392-.267.583-.408a12.927,12.927,0,0,0,1.606-1.4,12.685,12.685,0,0,0,2.921-4.876A12.536,12.536,0,0,0,378.3,88.617L324.027,8.32C428.8,29.622,513.095,113.489,534.613,218.483l.25,1.231,1.207.35a8.443,8.443,0,0,1,5.625,5.542,8.324,8.324,0,0,1-1.39,7.763" fill="#315884"/>
          <path id="Trazado_873822" data-name="Trazado 873822" d="M373.486,106.957a11.391,11.391,0,0,0,1.248-.707,12.876,12.876,0,0,1-1.248.707m0,0a11.391,11.391,0,0,0,1.248-.707,12.876,12.876,0,0,1-1.248.707m0,0a11.391,11.391,0,0,0,1.248-.707,12.876,12.876,0,0,1-1.248.707m0,0a11.391,11.391,0,0,0,1.248-.707,12.876,12.876,0,0,1-1.248.707m0,0a11.391,11.391,0,0,0,1.248-.707,12.876,12.876,0,0,1-1.248.707m0,0a11.391,11.391,0,0,0,1.248-.707,12.876,12.876,0,0,1-1.248.707m0,0a11.391,11.391,0,0,0,1.248-.707,12.876,12.876,0,0,1-1.248.707m0,0a11.391,11.391,0,0,0,1.248-.707,12.876,12.876,0,0,1-1.248.707" fill="#fff"/>
          <path id="Trazado_873823" data-name="Trazado 873823" d="M540.114,272.977a270.845,270.845,0,0,1-136.48,234.759l-1.09.624.041,1.249a8.425,8.425,0,0,1-3.528,7.072,8.313,8.313,0,0,1-7.431,1.207l-.357-.125-98.987-35.922a8.456,8.456,0,0,1-4.118-12.681l44.949-66.509,14-20.7a8.449,8.449,0,0,1,15.036,2.114l1.29,3.977,2.371-2.013a147.983,147.983,0,0,0,52.4-113.049c0-2.147-.05-4.31-.142-6.474l40.9,52.439a12.6,12.6,0,0,0,19.887,0l59.569-76.378a274.785,274.785,0,0,1,1.7,30.413" fill="#8ce2e5"/>
          <path id="Trazado_873824" data-name="Trazado 873824" d="M381.982,518.82A270.312,270.312,0,0,1,88.119,472.547l-.932-.849L86,472.131a8.45,8.45,0,0,1-7.838-1.148,8.326,8.326,0,0,1-3.47-6.807l3.587-105.518a8.453,8.453,0,0,1,10.783-7.838l77.227,22.217.009.008,23.931,6.882a8.454,8.454,0,0,1,2.637,14.961l-3.386,2.463,2.629,1.631a148.416,148.416,0,0,0,129.8,12.8l-37.2,55.044a12.619,12.619,0,0,0,6.157,18.922Z" fill="#59c4c8"/>
          <path id="Trazado_873825" data-name="Trazado 873825" d="M154.129,365.207l-63.9-18.381a12.62,12.62,0,0,0-16.1,11.691L70.836,455.3A270.309,270.309,0,0,1,23.989,161.551l.516-1.14-.766-.99a8.415,8.415,0,0,1-1.273-7.788,8.269,8.269,0,0,1,5.684-5.45l101.166-29.115a8.456,8.456,0,0,1,10.784,7.838l2.729,80.264.849,24.946a8.458,8.458,0,0,1-13.422,7.123l-3.395-2.463-.732,3.012a148.41,148.41,0,0,0,28,127.419" fill="#2a5f61"/>
          <path id="Trazado_873826" data-name="Trazado 873826" d="M166.294,373.037,89.067,350.82,166.3,373.045Zm0,0L89.067,350.82,166.3,373.045Zm0,0L89.067,350.82,166.3,373.045Z" fill="#fff"/>
          <path id="Trazado_873827" data-name="Trazado 873827" d="M375.883,98.287a8.391,8.391,0,0,1-5.159,5.334l-75.488,27.4-23.465,8.512a8.448,8.448,0,0,1-10.917-10.559l1.281-3.961-3.087.225a148.252,148.252,0,0,0-112.532,65.968l-2.264-66.443a12.522,12.522,0,0,0-5.192-9.777c-.133-.1-.275-.2-.416-.291-.283-.183-.566-.358-.857-.524a12.979,12.979,0,0,0-1.331-.649c-.308-.125-.608-.242-.924-.341a12.555,12.555,0,0,0-7.364-.109L35.031,139.867A270.069,270.069,0,0,1,270.057,2.92a275.965,275.965,0,0,1,29.914,1.64l1.248.141.707-1.04A8.283,8.283,0,0,1,304.938.973a8.6,8.6,0,0,1,4-.973A8.283,8.283,0,0,1,315.9,3.728l58.954,87.22a8.382,8.382,0,0,1,1.032,7.339" fill="#fe9b4f"/>
        </g>
      </g>
      <path id="Trazado_874707" data-name="Trazado 874707" d="M8.367-2.637H3.744L2.865,0H.062L4.825-12.8H7.269L12.059,0h-2.8ZM4.456-4.772h3.2L6.047-9.562ZM14.589-9.51l.079,1.1A3.32,3.32,0,0,1,17.4-9.686a2.759,2.759,0,0,1,2.25.888,4.142,4.142,0,0,1,.756,2.654V0h-2.54V-6.082a1.648,1.648,0,0,0-.352-1.173,1.574,1.574,0,0,0-1.169-.365,1.747,1.747,0,0,0-1.608.914V0H12.2V-9.51ZM27.843,0a2.821,2.821,0,0,1-.255-.853,3.073,3.073,0,0,1-2.4,1.028,3.376,3.376,0,0,1-2.316-.809,2.6,2.6,0,0,1-.918-2.039,2.687,2.687,0,0,1,1.121-2.32,5.529,5.529,0,0,1,3.239-.817h1.169v-.545a1.567,1.567,0,0,0-.338-1.055,1.331,1.331,0,0,0-1.068-.4A1.513,1.513,0,0,0,25.07-7.5a1.045,1.045,0,0,0-.365.844h-2.54a2.551,2.551,0,0,1,.51-1.529,3.37,3.37,0,0,1,1.441-1.1,5.253,5.253,0,0,1,2.092-.4A4.15,4.15,0,0,1,29-8.8a3.09,3.09,0,0,1,1.033,2.483V-2.2a4.546,4.546,0,0,0,.378,2.048V0Zm-2.1-1.767a2.188,2.188,0,0,0,1.037-.25,1.645,1.645,0,0,0,.7-.672V-4.324h-.949q-1.907,0-2.03,1.318l-.009.149a1.017,1.017,0,0,0,.334.782A1.3,1.3,0,0,0,25.742-1.767ZM26.709-13.5h2.769l-2.435,2.725H24.978ZM34.663,0H32.114V-13.5h2.549Zm4.772,0H36.887V-9.51h2.549Zm-2.7-11.971a1.251,1.251,0,0,1,.382-.94,1.436,1.436,0,0,1,1.042-.369,1.44,1.44,0,0,1,1.037.369,1.244,1.244,0,0,1,.387.94,1.247,1.247,0,0,1-.391.949,1.443,1.443,0,0,1-1.033.369,1.443,1.443,0,0,1-1.033-.369A1.247,1.247,0,0,1,36.737-11.971Zm9.94,9.343a.818.818,0,0,0-.461-.734,5.241,5.241,0,0,0-1.481-.479q-3.393-.712-3.393-2.883a2.613,2.613,0,0,1,1.05-2.114,4.237,4.237,0,0,1,2.747-.848,4.56,4.56,0,0,1,2.9.853,2.687,2.687,0,0,1,1.085,2.215h-2.54a1.229,1.229,0,0,0-.352-.9,1.488,1.488,0,0,0-1.1-.356,1.52,1.52,0,0,0-.993.29.916.916,0,0,0-.352.738.783.783,0,0,0,.4.681,4.114,4.114,0,0,0,1.349.448,11.019,11.019,0,0,1,1.6.426,2.628,2.628,0,0,1,2.013,2.558,2.481,2.481,0,0,1-1.116,2.1,4.815,4.815,0,0,1-2.883.8A5.029,5.029,0,0,1,43.026-.25a3.561,3.561,0,0,1-1.455-1.169,2.716,2.716,0,0,1-.527-1.6h2.408a1.326,1.326,0,0,0,.5,1.037,1.987,1.987,0,0,0,1.248.36A1.839,1.839,0,0,0,46.3-1.9.861.861,0,0,0,46.678-2.628ZM53.463,0H50.914V-9.51h2.549Zm-2.7-11.971a1.251,1.251,0,0,1,.382-.94,1.436,1.436,0,0,1,1.042-.369,1.44,1.44,0,0,1,1.037.369,1.244,1.244,0,0,1,.387.94,1.247,1.247,0,0,1-.391.949,1.443,1.443,0,0,1-1.033.369,1.443,1.443,0,0,1-1.033-.369A1.247,1.247,0,0,1,50.765-11.971Zm9.94,9.343a.818.818,0,0,0-.461-.734,5.241,5.241,0,0,0-1.481-.479Q55.37-4.553,55.37-6.724a2.613,2.613,0,0,1,1.05-2.114,4.237,4.237,0,0,1,2.747-.848,4.56,4.56,0,0,1,2.9.853,2.687,2.687,0,0,1,1.085,2.215h-2.54a1.229,1.229,0,0,0-.352-.9,1.488,1.488,0,0,0-1.1-.356,1.52,1.52,0,0,0-.993.29.916.916,0,0,0-.352.738.783.783,0,0,0,.4.681,4.114,4.114,0,0,0,1.349.448,11.019,11.019,0,0,1,1.6.426,2.628,2.628,0,0,1,2.013,2.558,2.481,2.481,0,0,1-1.116,2.1,4.815,4.815,0,0,1-2.883.8A5.029,5.029,0,0,1,57.053-.25,3.561,3.561,0,0,1,55.6-1.419a2.716,2.716,0,0,1-.527-1.6H57.48a1.326,1.326,0,0,0,.5,1.037,1.987,1.987,0,0,0,1.248.36,1.839,1.839,0,0,0,1.1-.277A.861.861,0,0,0,60.705-2.628Zm8.191-2.2a5.731,5.731,0,0,1,1-3.542,3.237,3.237,0,0,1,2.729-1.318,2.913,2.913,0,0,1,2.294,1.037V-13.5h2.549V0H75.172l-.123-1.011A2.989,2.989,0,0,1,72.606.176a3.228,3.228,0,0,1-2.694-1.323A5.916,5.916,0,0,1,68.9-4.825Zm2.54.189A3.754,3.754,0,0,0,71.9-2.585a1.517,1.517,0,0,0,1.354.713,1.7,1.7,0,0,0,1.661-.995V-6.625a1.675,1.675,0,0,0-1.644-.995Q71.437-7.62,71.437-4.636ZM83.812.176a4.668,4.668,0,0,1-3.406-1.283,4.561,4.561,0,0,1-1.314-3.419v-.246a5.745,5.745,0,0,1,.554-2.562,4.064,4.064,0,0,1,1.569-1.74,4.4,4.4,0,0,1,2.316-.611A3.947,3.947,0,0,1,86.6-8.455a5,5,0,0,1,1.121,3.489v1.037H81.667a2.36,2.36,0,0,0,.743,1.494,2.245,2.245,0,0,0,1.569.563,2.742,2.742,0,0,0,2.294-1.063l1.248,1.4A3.813,3.813,0,0,1,85.974-.277,5.075,5.075,0,0,1,83.812.176Zm-.29-7.813a1.587,1.587,0,0,0-1.226.512,2.651,2.651,0,0,0-.6,1.466h3.533v-.2a1.891,1.891,0,0,0-.457-1.311A1.638,1.638,0,0,0,83.522-7.638Z" transform="translate(177.18 68.071)" fill="#12263f"/>
      <path id="Trazado_874708" data-name="Trazado 874708" d="M3.656,0H1.107V-13.5H3.656Zm7.6,0A2.821,2.821,0,0,1,11-.853,3.073,3.073,0,0,1,8.6.176,3.376,3.376,0,0,1,6.289-.633,2.6,2.6,0,0,1,5.37-2.672a2.687,2.687,0,0,1,1.121-2.32A5.529,5.529,0,0,1,9.729-5.81H10.9v-.545a1.567,1.567,0,0,0-.338-1.055,1.331,1.331,0,0,0-1.068-.4A1.513,1.513,0,0,0,8.486-7.5a1.045,1.045,0,0,0-.365.844H5.581a2.551,2.551,0,0,1,.51-1.529,3.37,3.37,0,0,1,1.441-1.1,5.253,5.253,0,0,1,2.092-.4,4.15,4.15,0,0,1,2.791.883,3.09,3.09,0,0,1,1.033,2.483V-2.2a4.546,4.546,0,0,0,.378,2.048V0Zm-2.1-1.767a2.188,2.188,0,0,0,1.037-.25,1.645,1.645,0,0,0,.7-.672V-4.324H9.949q-1.907,0-2.03,1.318l-.009.149a1.017,1.017,0,0,0,.334.782A1.3,1.3,0,0,0,9.158-1.767Zm15.873-.861a.818.818,0,0,0-.461-.734,5.241,5.241,0,0,0-1.481-.479Q19.7-4.553,19.7-6.724a2.613,2.613,0,0,1,1.05-2.114,4.237,4.237,0,0,1,2.747-.848,4.56,4.56,0,0,1,2.9.853,2.687,2.687,0,0,1,1.085,2.215h-2.54a1.229,1.229,0,0,0-.352-.9,1.488,1.488,0,0,0-1.1-.356,1.52,1.52,0,0,0-.993.29.916.916,0,0,0-.352.738.783.783,0,0,0,.4.681,4.114,4.114,0,0,0,1.349.448,11.019,11.019,0,0,1,1.6.426A2.628,2.628,0,0,1,27.5-2.733a2.481,2.481,0,0,1-1.116,2.1,4.815,4.815,0,0,1-2.883.8A5.029,5.029,0,0,1,21.379-.25a3.561,3.561,0,0,1-1.455-1.169,2.716,2.716,0,0,1-.527-1.6h2.408a1.326,1.326,0,0,0,.5,1.037,1.987,1.987,0,0,0,1.248.36,1.839,1.839,0,0,0,1.1-.277A.861.861,0,0,0,25.031-2.628ZM31.816,0H29.268V-9.51h2.549Zm-2.7-11.971a1.251,1.251,0,0,1,.382-.94,1.436,1.436,0,0,1,1.042-.369,1.44,1.44,0,0,1,1.037.369,1.244,1.244,0,0,1,.387.94,1.247,1.247,0,0,1-.391.949,1.443,1.443,0,0,1-1.033.369,1.443,1.443,0,0,1-1.033-.369A1.247,1.247,0,0,1,29.118-11.971Zm7.831.123V-9.51h1.626v1.863H36.949V-2.9a1.133,1.133,0,0,0,.2.756,1.015,1.015,0,0,0,.773.229,4.051,4.051,0,0,0,.747-.062V-.053a5.229,5.229,0,0,1-1.538.229,2.425,2.425,0,0,1-2.725-2.7V-7.646H33.021V-9.51h1.389v-2.338ZM45.686-.967a3.185,3.185,0,0,1-2.6,1.143A3,3,0,0,1,40.75-.7a3.752,3.752,0,0,1-.822-2.575V-9.51h2.54v6.151q0,1.487,1.354,1.487a1.834,1.834,0,0,0,1.775-.9V-9.51h2.549V0H45.756ZM55.573,0a2.821,2.821,0,0,1-.255-.853,3.073,3.073,0,0,1-2.4,1.028A3.376,3.376,0,0,1,50.6-.633a2.6,2.6,0,0,1-.918-2.039,2.687,2.687,0,0,1,1.121-2.32,5.529,5.529,0,0,1,3.239-.817h1.169v-.545a1.567,1.567,0,0,0-.338-1.055,1.331,1.331,0,0,0-1.068-.4A1.513,1.513,0,0,0,52.8-7.5a1.045,1.045,0,0,0-.365.844H49.9a2.551,2.551,0,0,1,.51-1.529,3.37,3.37,0,0,1,1.441-1.1,5.253,5.253,0,0,1,2.092-.4,4.15,4.15,0,0,1,2.791.883,3.09,3.09,0,0,1,1.033,2.483V-2.2A4.546,4.546,0,0,0,58.14-.149V0Zm-2.1-1.767a2.188,2.188,0,0,0,1.037-.25,1.645,1.645,0,0,0,.7-.672V-4.324h-.949q-1.907,0-2.03,1.318l-.009.149a1.017,1.017,0,0,0,.334.782A1.3,1.3,0,0,0,53.473-1.767Zm10.2-.105a1.666,1.666,0,0,0,1.143-.387,1.355,1.355,0,0,0,.457-1.028h2.382a3.258,3.258,0,0,1-.527,1.771A3.48,3.48,0,0,1,65.7-.268a4.442,4.442,0,0,1-1.991.444,4.129,4.129,0,0,1-3.217-1.3A5.13,5.13,0,0,1,59.317-4.7v-.167a5.071,5.071,0,0,1,1.169-3.507,4.08,4.08,0,0,1,3.208-1.31A4,4,0,0,1,66.555-8.67a3.594,3.594,0,0,1,1.094,2.7H65.268a1.745,1.745,0,0,0-.457-1.206,1.524,1.524,0,0,0-1.16-.464,1.53,1.53,0,0,0-1.34.647,3.749,3.749,0,0,0-.453,2.1v.264a3.8,3.8,0,0,0,.448,2.113A1.549,1.549,0,0,0,63.668-1.872ZM71.78,0H69.231V-9.51H71.78Zm-2.7-11.971a1.251,1.251,0,0,1,.382-.94,1.436,1.436,0,0,1,1.042-.369,1.44,1.44,0,0,1,1.037.369,1.244,1.244,0,0,1,.387.94,1.247,1.247,0,0,1-.391.949,1.443,1.443,0,0,1-1.033.369,1.443,1.443,0,0,1-1.033-.369A1.247,1.247,0,0,1,69.082-11.971Zm4.395,7.128a5.64,5.64,0,0,1,.545-2.522A3.989,3.989,0,0,1,75.59-9.079a4.577,4.577,0,0,1,2.377-.606A4.33,4.33,0,0,1,81.11-8.508a4.727,4.727,0,0,1,1.358,3.2l.018.65a4.97,4.97,0,0,1-1.222,3.511A4.247,4.247,0,0,1,77.985.176,4.268,4.268,0,0,1,74.7-1.143a5.058,5.058,0,0,1-1.226-3.586Zm2.54.18a3.555,3.555,0,0,0,.51,2.073,1.682,1.682,0,0,0,1.459.717,1.686,1.686,0,0,0,1.441-.709,3.89,3.89,0,0,0,.519-2.267,3.519,3.519,0,0,0-.519-2.06,1.686,1.686,0,0,0-1.459-.731,1.658,1.658,0,0,0-1.441.726A3.955,3.955,0,0,0,76.017-4.662ZM78.469-13.5h2.769L78.8-10.775H76.737Zm7.919,3.99.079,1.1A3.32,3.32,0,0,1,89.2-9.686a2.759,2.759,0,0,1,2.25.888,4.142,4.142,0,0,1,.756,2.654V0h-2.54V-6.082a1.648,1.648,0,0,0-.352-1.173,1.574,1.574,0,0,0-1.169-.365,1.747,1.747,0,0,0-1.608.914V0H84V-9.51Z" transform="translate(174.912 89.671)" fill="#12263f"/>
      <path id="Trazado_874711" data-name="Trazado 874711" d="M11.654-6.108a7.725,7.725,0,0,1-.668,3.313A5.03,5.03,0,0,1,9.075-.6,5.288,5.288,0,0,1,6.223.176,5.324,5.324,0,0,1,3.384-.589,5.08,5.08,0,0,1,1.45-2.773,7.5,7.5,0,0,1,.756-6.038v-.633A7.685,7.685,0,0,1,1.437-10,5.072,5.072,0,0,1,3.362-12.2a5.3,5.3,0,0,1,2.843-.769,5.3,5.3,0,0,1,2.843.769A5.072,5.072,0,0,1,10.973-10a7.663,7.663,0,0,1,.681,3.318Zm-2.672-.58a5.385,5.385,0,0,0-.721-3.059,2.349,2.349,0,0,0-2.057-1.046A2.349,2.349,0,0,0,4.157-9.76a5.324,5.324,0,0,0-.729,3.028v.624a5.453,5.453,0,0,0,.721,3.041A2.342,2.342,0,0,0,6.223-1.986,2.321,2.321,0,0,0,8.262-3.028a5.421,5.421,0,0,0,.721-3.037Zm12.99,2.021A5.758,5.758,0,0,1,21-1.1,3.231,3.231,0,0,1,18.272.176,2.969,2.969,0,0,1,15.8-1.011L15.688,0H13.4V-13.5h2.54v4.843a2.893,2.893,0,0,1,2.312-1.028,3.258,3.258,0,0,1,2.729,1.279,5.767,5.767,0,0,1,.989,3.6Zm-2.54-.185a3.783,3.783,0,0,0-.457-2.1,1.545,1.545,0,0,0-1.362-.664,1.676,1.676,0,0,0-1.67.993v3.753a1.7,1.7,0,0,0,1.688,1,1.568,1.568,0,0,0,1.617-1.213A6.257,6.257,0,0,0,19.433-4.852ZM26.227-9.51V.519a3.4,3.4,0,0,1-.835,2.448,3.174,3.174,0,0,1-2.408.875,5.165,5.165,0,0,1-1.257-.149V1.679a4.768,4.768,0,0,0,.8.079q1.151,0,1.151-1.222V-9.51Zm-2.751-2.461a1.251,1.251,0,0,1,.382-.94A1.436,1.436,0,0,1,24.9-13.28a1.436,1.436,0,0,1,1.042.369,1.251,1.251,0,0,1,.382.94,1.247,1.247,0,0,1-.391.949,1.443,1.443,0,0,1-1.033.369,1.443,1.443,0,0,1-1.033-.369A1.247,1.247,0,0,1,23.476-11.971ZM32.59.176a4.668,4.668,0,0,1-3.406-1.283A4.561,4.561,0,0,1,27.87-4.526v-.246a5.745,5.745,0,0,1,.554-2.562,4.064,4.064,0,0,1,1.569-1.74,4.4,4.4,0,0,1,2.316-.611,3.947,3.947,0,0,1,3.072,1.23A5,5,0,0,1,36.5-4.966v1.037H30.445a2.36,2.36,0,0,0,.743,1.494,2.245,2.245,0,0,0,1.569.563,2.742,2.742,0,0,0,2.294-1.063l1.248,1.4A3.813,3.813,0,0,1,34.752-.277,5.075,5.075,0,0,1,32.59.176ZM32.3-7.638a1.587,1.587,0,0,0-1.226.512,2.651,2.651,0,0,0-.6,1.466H34v-.2a1.891,1.891,0,0,0-.457-1.311A1.638,1.638,0,0,0,32.3-7.638Zm8.684-4.21V-9.51h1.626v1.863H40.983V-2.9a1.133,1.133,0,0,0,.2.756,1.015,1.015,0,0,0,.773.229,4.051,4.051,0,0,0,.747-.062V-.053a5.229,5.229,0,0,1-1.538.229,2.425,2.425,0,0,1-2.725-2.7V-7.646H37.055V-9.51h1.389v-2.338ZM46.705,0H44.156V-9.51h2.549Zm-2.7-11.971a1.251,1.251,0,0,1,.382-.94,1.436,1.436,0,0,1,1.042-.369,1.44,1.44,0,0,1,1.037.369,1.244,1.244,0,0,1,.387.94,1.247,1.247,0,0,1-.391.949,1.443,1.443,0,0,1-1.033.369,1.443,1.443,0,0,1-1.033-.369A1.247,1.247,0,0,1,44.007-11.971ZM52.356-3.1,54.123-9.51h2.654L53.569,0H51.144L47.936-9.51H50.59Zm4.884-1.74a5.64,5.64,0,0,1,.545-2.522,3.989,3.989,0,0,1,1.569-1.714,4.577,4.577,0,0,1,2.377-.606,4.33,4.33,0,0,1,3.142,1.178,4.727,4.727,0,0,1,1.358,3.2l.018.65a4.97,4.97,0,0,1-1.222,3.511A4.247,4.247,0,0,1,61.749.176a4.268,4.268,0,0,1-3.283-1.318A5.058,5.058,0,0,1,57.24-4.729Zm2.54.18a3.555,3.555,0,0,0,.51,2.073,1.682,1.682,0,0,0,1.459.717,1.686,1.686,0,0,0,1.441-.709,3.89,3.89,0,0,0,.519-2.267,3.519,3.519,0,0,0-.519-2.06,1.686,1.686,0,0,0-1.459-.731,1.658,1.658,0,0,0-1.441.726A3.955,3.955,0,0,0,59.78-4.662ZM72.964-2.628a.818.818,0,0,0-.461-.734,5.241,5.241,0,0,0-1.481-.479q-3.393-.712-3.393-2.883a2.613,2.613,0,0,1,1.05-2.114,4.237,4.237,0,0,1,2.747-.848,4.56,4.56,0,0,1,2.9.853,2.687,2.687,0,0,1,1.085,2.215h-2.54a1.229,1.229,0,0,0-.352-.9,1.488,1.488,0,0,0-1.1-.356,1.52,1.52,0,0,0-.993.29.916.916,0,0,0-.352.738.783.783,0,0,0,.4.681,4.114,4.114,0,0,0,1.349.448,11.019,11.019,0,0,1,1.6.426,2.628,2.628,0,0,1,2.013,2.558,2.481,2.481,0,0,1-1.116,2.1,4.815,4.815,0,0,1-2.883.8A5.029,5.029,0,0,1,69.312-.25a3.561,3.561,0,0,1-1.455-1.169,2.716,2.716,0,0,1-.527-1.6h2.408a1.326,1.326,0,0,0,.5,1.037,1.987,1.987,0,0,0,1.248.36,1.839,1.839,0,0,0,1.1-.277A.861.861,0,0,0,72.964-2.628Z" transform="translate(409.901 170.851)" fill="#fff"/>
      <path id="Trazado_874712" data-name="Trazado 874712" d="M8.367-2.637H3.744L2.865,0H.062L4.825-12.8H7.269L12.059,0h-2.8ZM4.456-4.772h3.2L6.047-9.562Zm12.586,2.9a1.666,1.666,0,0,0,1.143-.387,1.355,1.355,0,0,0,.457-1.028h2.382A3.258,3.258,0,0,1,20.5-1.516,3.48,3.48,0,0,1,19.077-.268a4.442,4.442,0,0,1-1.991.444,4.129,4.129,0,0,1-3.217-1.3A5.13,5.13,0,0,1,12.691-4.7v-.167A5.071,5.071,0,0,1,13.86-8.376a4.08,4.08,0,0,1,3.208-1.31A4,4,0,0,1,19.929-8.67a3.594,3.594,0,0,1,1.094,2.7H18.642a1.745,1.745,0,0,0-.457-1.206,1.524,1.524,0,0,0-1.16-.464,1.53,1.53,0,0,0-1.34.647,3.749,3.749,0,0,0-.453,2.1v.264a3.8,3.8,0,0,0,.448,2.113A1.549,1.549,0,0,0,17.042-1.872Zm9.387,0a1.666,1.666,0,0,0,1.143-.387,1.355,1.355,0,0,0,.457-1.028H30.41a3.258,3.258,0,0,1-.527,1.771A3.48,3.48,0,0,1,28.463-.268a4.442,4.442,0,0,1-1.991.444,4.129,4.129,0,0,1-3.217-1.3A5.13,5.13,0,0,1,22.078-4.7v-.167a5.071,5.071,0,0,1,1.169-3.507,4.08,4.08,0,0,1,3.208-1.31A4,4,0,0,1,29.316-8.67a3.594,3.594,0,0,1,1.094,2.7H28.028a1.745,1.745,0,0,0-.457-1.206,1.524,1.524,0,0,0-1.16-.464,1.53,1.53,0,0,0-1.34.647,3.749,3.749,0,0,0-.453,2.1v.264a3.8,3.8,0,0,0,.448,2.113A1.549,1.549,0,0,0,26.429-1.872ZM34.541,0H31.992V-9.51h2.549Zm-2.7-11.971a1.251,1.251,0,0,1,.382-.94,1.436,1.436,0,0,1,1.042-.369,1.44,1.44,0,0,1,1.037.369,1.244,1.244,0,0,1,.387.94,1.247,1.247,0,0,1-.391.949,1.443,1.443,0,0,1-1.033.369,1.443,1.443,0,0,1-1.033-.369A1.247,1.247,0,0,1,31.843-11.971Zm4.395,7.128a5.64,5.64,0,0,1,.545-2.522,3.989,3.989,0,0,1,1.569-1.714,4.577,4.577,0,0,1,2.377-.606,4.33,4.33,0,0,1,3.142,1.178,4.727,4.727,0,0,1,1.358,3.2l.018.65a4.97,4.97,0,0,1-1.222,3.511A4.247,4.247,0,0,1,40.746.176a4.268,4.268,0,0,1-3.283-1.318,5.058,5.058,0,0,1-1.226-3.586Zm2.54.18a3.555,3.555,0,0,0,.51,2.073,1.682,1.682,0,0,0,1.459.717,1.686,1.686,0,0,0,1.441-.709,3.89,3.89,0,0,0,.519-2.267,3.519,3.519,0,0,0-.519-2.06,1.686,1.686,0,0,0-1.459-.731,1.658,1.658,0,0,0-1.441.726A3.955,3.955,0,0,0,38.777-4.662ZM49.148-9.51l.079,1.1a3.32,3.32,0,0,1,2.733-1.274,2.759,2.759,0,0,1,2.25.888,4.142,4.142,0,0,1,.756,2.654V0h-2.54V-6.082a1.648,1.648,0,0,0-.352-1.173,1.574,1.574,0,0,0-1.169-.365,1.747,1.747,0,0,0-1.608.914V0h-2.54V-9.51ZM61.269.176a4.668,4.668,0,0,1-3.406-1.283,4.561,4.561,0,0,1-1.314-3.419v-.246A5.745,5.745,0,0,1,57.1-7.334a4.064,4.064,0,0,1,1.569-1.74,4.4,4.4,0,0,1,2.316-.611,3.947,3.947,0,0,1,3.072,1.23A5,5,0,0,1,65.18-4.966v1.037H59.124a2.36,2.36,0,0,0,.743,1.494,2.245,2.245,0,0,0,1.569.563,2.742,2.742,0,0,0,2.294-1.063l1.248,1.4A3.813,3.813,0,0,1,63.431-.277,5.075,5.075,0,0,1,61.269.176Zm-.29-7.813a1.587,1.587,0,0,0-1.226.512,2.651,2.651,0,0,0-.6,1.466h3.533v-.2a1.891,1.891,0,0,0-.457-1.311A1.638,1.638,0,0,0,60.979-7.638Zm10.793,5.01a.818.818,0,0,0-.461-.734,5.241,5.241,0,0,0-1.481-.479q-3.393-.712-3.393-2.883a2.613,2.613,0,0,1,1.05-2.114,4.237,4.237,0,0,1,2.747-.848,4.56,4.56,0,0,1,2.9.853,2.687,2.687,0,0,1,1.085,2.215h-2.54a1.229,1.229,0,0,0-.352-.9,1.488,1.488,0,0,0-1.1-.356,1.52,1.52,0,0,0-.993.29.916.916,0,0,0-.352.738.783.783,0,0,0,.4.681,4.114,4.114,0,0,0,1.349.448,11.019,11.019,0,0,1,1.6.426,2.628,2.628,0,0,1,2.013,2.558,2.481,2.481,0,0,1-1.116,2.1,4.815,4.815,0,0,1-2.883.8A5.029,5.029,0,0,1,68.12-.25a3.561,3.561,0,0,1-1.455-1.169,2.716,2.716,0,0,1-.527-1.6h2.408a1.326,1.326,0,0,0,.5,1.037,1.987,1.987,0,0,0,1.248.36A1.839,1.839,0,0,0,71.4-1.9.861.861,0,0,0,71.771-2.628Z" transform="translate(398.489 380.407)" fill="#12263f"/>
      <path id="Trazado_874713" data-name="Trazado 874713" d="M.58-4.825a5.731,5.731,0,0,1,1-3.542A3.237,3.237,0,0,1,4.307-9.686,2.913,2.913,0,0,1,6.6-8.648V-13.5H9.149V0H6.855L6.732-1.011A2.989,2.989,0,0,1,4.289.176,3.228,3.228,0,0,1,1.6-1.147,5.916,5.916,0,0,1,.58-4.825Zm2.54.189a3.754,3.754,0,0,0,.466,2.051,1.517,1.517,0,0,0,1.354.713A1.7,1.7,0,0,0,6.6-2.867V-6.625A1.675,1.675,0,0,0,4.957-7.62Q3.12-7.62,3.12-4.636ZM15.5.176a4.668,4.668,0,0,1-3.406-1.283,4.561,4.561,0,0,1-1.314-3.419v-.246a5.745,5.745,0,0,1,.554-2.562A4.064,4.064,0,0,1,12.9-9.075a4.4,4.4,0,0,1,2.316-.611,3.947,3.947,0,0,1,3.072,1.23,5,5,0,0,1,1.121,3.489v1.037H13.351a2.36,2.36,0,0,0,.743,1.494,2.245,2.245,0,0,0,1.569.563,2.742,2.742,0,0,0,2.294-1.063l1.248,1.4A3.813,3.813,0,0,1,17.657-.277,5.075,5.075,0,0,1,15.5.176Zm-.29-7.813a1.587,1.587,0,0,0-1.226.512,2.651,2.651,0,0,0-.6,1.466H16.91v-.2a1.891,1.891,0,0,0-.457-1.311A1.638,1.638,0,0,0,15.205-7.638ZM28.336-9.519l-.2,1.081A3.5,3.5,0,0,1,30.92-9.686a2.676,2.676,0,0,1,1.459.4,1.889,1.889,0,0,1,.782,1.046,3.662,3.662,0,0,1,2.953-1.45,2.391,2.391,0,0,1,1.973.9,3.68,3.68,0,0,1,.558,2.514l-.018.22L37.617,0H35.13l1.011-6.08a4.4,4.4,0,0,0,.026-.607.942.942,0,0,0-1.055-.95,2.093,2.093,0,0,0-1.749,1.091l-.026.2L32.229,0H29.751l1.011-6.056a4.386,4.386,0,0,0,.026-.606.94.94,0,0,0-1.046-.958,2.1,2.1,0,0,0-1.7.888L26.859,0H24.381l1.644-9.51ZM45.088,0a2.566,2.566,0,0,1-.1-.861A3.221,3.221,0,0,1,42.565.176,2.919,2.919,0,0,1,40.5-.637,2.46,2.46,0,0,1,39.727-2.6a2.843,2.843,0,0,1,1.305-2.386,5.924,5.924,0,0,1,3.335-.831l1.16.018.123-.571a1.984,1.984,0,0,0,.026-.554.952.952,0,0,0-.312-.646,1.075,1.075,0,0,0-.708-.242,1.514,1.514,0,0,0-.984.286,1.384,1.384,0,0,0-.519.875l-2.487.009a2.764,2.764,0,0,1,1.252-2.21,4.851,4.851,0,0,1,2.94-.831,3.507,3.507,0,0,1,2.531.962,2.816,2.816,0,0,1,.765,2.386l-.729,4.553-.044.563a2.714,2.714,0,0,0,.149,1.055L47.522,0ZM43.181-1.749a2.27,2.27,0,0,0,1.872-.932l.308-1.644L44.5-4.333a2.406,2.406,0,0,0-1.978.835,1.454,1.454,0,0,0-.272.712.844.844,0,0,0,.2.751A1,1,0,0,0,43.181-1.749ZM55.547-7.128a5.117,5.117,0,0,0-.835-.088,2.4,2.4,0,0,0-2.1.993L51.513,0H49.034l1.652-9.51,2.329-.009-.229,1.16A2.615,2.615,0,0,1,55-9.7a3.615,3.615,0,0,1,.861.123Zm4.061,3.34-1.151,1L57.973,0H55.494l2.338-13.5h2.487L59.036-6.17l.483-.519L62.341-9.51h3.182L61.365-5.423,64.011,0H61.295ZM69.245.176a4.137,4.137,0,0,1-2.21-.611A3.7,3.7,0,0,1,65.6-2.087,4.605,4.605,0,0,1,65.228-4.4l.026-.352A6.148,6.148,0,0,1,66.063-7.3,4.884,4.884,0,0,1,67.8-9.092a4.306,4.306,0,0,1,2.355-.593,3.29,3.29,0,0,1,2.782,1.351A4.631,4.631,0,0,1,73.657-5L73.516-3.92H67.689a2.041,2.041,0,0,0,.448,1.477,1.711,1.711,0,0,0,1.318.571,3.041,3.041,0,0,0,2.373-1.055l1.134,1.406A3.527,3.527,0,0,1,71.416-.259,5.059,5.059,0,0,1,69.245.176Zm.791-7.813a1.761,1.761,0,0,0-1.217.431,3.784,3.784,0,0,0-.954,1.556h3.41l.053-.229a2.33,2.33,0,0,0,.009-.668,1.276,1.276,0,0,0-.431-.8A1.35,1.35,0,0,0,70.036-7.638Zm9.246-4.21L78.869-9.51h1.582l-.325,1.863H78.544l-.809,4.764a1.211,1.211,0,0,0,.07.686q.123.237.6.255.141.009.756-.044L78.983-.044a4.169,4.169,0,0,1-1.424.2A2.234,2.234,0,0,1,75.74-.606a2.763,2.763,0,0,1-.492-2.021l.817-5.019H74.72l.325-1.863H76.39l.4-2.338ZM82.859,0h-2.5l1.652-9.51h2.5Zm-.554-11.927a1.238,1.238,0,0,1,.387-.976,1.36,1.36,0,0,1,.976-.387,1.367,1.367,0,0,1,.976.343,1.233,1.233,0,0,1,.431.932,1.273,1.273,0,0,1-.365.949,1.367,1.367,0,0,1-1,.422,1.39,1.39,0,0,1-.971-.334A1.227,1.227,0,0,1,82.305-11.927ZM88.88-9.519l-.211,1.125a3.422,3.422,0,0,1,2.769-1.292,2.281,2.281,0,0,1,1.986.984,3.966,3.966,0,0,1,.466,2.654L92.887,0H90.409l1.02-6.073a2.844,2.844,0,0,0,.018-.624,1.007,1.007,0,0,0-1.125-.923,2.133,2.133,0,0,0-1.749.905L87.385,0H84.907l1.652-9.51ZM95.3-4.764a6.58,6.58,0,0,1,1.437-3.582A3.647,3.647,0,0,1,99.7-9.694a2.667,2.667,0,0,1,2.268,1.1l.325-.923,2.276.009L103.012-.325A4.481,4.481,0,0,1,101.4,2.681,5.03,5.03,0,0,1,98.02,3.753a4.689,4.689,0,0,1-1.881-.426,4.022,4.022,0,0,1-1.477-1.121L95.893.694a2.642,2.642,0,0,0,2.074,1.081A2.436,2.436,0,0,0,99.62,1.27a2.7,2.7,0,0,0,.932-1.525l.141-.571a3.092,3.092,0,0,1-2.329,1A2.732,2.732,0,0,1,96.157-.857a4.44,4.44,0,0,1-.9-2.641A8.876,8.876,0,0,1,95.3-4.764Zm2.435,1.043A2.273,2.273,0,0,0,98.086-2.4a1.215,1.215,0,0,0,1.006.524,2.219,2.219,0,0,0,1.793-.863l.738-4.031a1.458,1.458,0,0,0-1.4-.863,1.944,1.944,0,0,0-1.608.766,4.006,4.006,0,0,0-.826,2.1A9.241,9.241,0,0,0,97.739-3.721Z" transform="translate(382.668 402.007)" fill="#12263f"/>
      <path id="Trazado_874714" data-name="Trazado 874714" d="M4.017-11.848V-9.51H5.643v1.863H4.017V-2.9a1.133,1.133,0,0,0,.2.756,1.015,1.015,0,0,0,.773.229,4.051,4.051,0,0,0,.747-.062V-.053A5.229,5.229,0,0,1,4.2.176a2.425,2.425,0,0,1-2.725-2.7V-7.646H.088V-9.51H1.477v-2.338ZM12.4-7.128a6.9,6.9,0,0,0-.914-.07,1.86,1.86,0,0,0-1.89.976V0H7.058V-9.51h2.4l.07,1.134a2.354,2.354,0,0,1,2.118-1.31,2.662,2.662,0,0,1,.791.114ZM18.618,0a2.821,2.821,0,0,1-.255-.853,3.073,3.073,0,0,1-2.4,1.028,3.376,3.376,0,0,1-2.316-.809,2.6,2.6,0,0,1-.918-2.039,2.687,2.687,0,0,1,1.121-2.32,5.53,5.53,0,0,1,3.239-.817h1.169v-.545a1.567,1.567,0,0,0-.338-1.055,1.331,1.331,0,0,0-1.068-.4,1.513,1.513,0,0,0-1.006.308,1.045,1.045,0,0,0-.365.844H12.94a2.551,2.551,0,0,1,.51-1.529,3.37,3.37,0,0,1,1.441-1.1,5.253,5.253,0,0,1,2.092-.4,4.15,4.15,0,0,1,2.791.883,3.09,3.09,0,0,1,1.033,2.483V-2.2a4.546,4.546,0,0,0,.378,2.048V0Zm-2.1-1.767a2.188,2.188,0,0,0,1.037-.25,1.645,1.645,0,0,0,.7-.672V-4.324h-.949q-1.907,0-2.03,1.318l-.009.149a1.017,1.017,0,0,0,.334.782A1.3,1.3,0,0,0,16.518-1.767Zm5.845-3.059a5.731,5.731,0,0,1,1-3.542,3.237,3.237,0,0,1,2.729-1.318,2.913,2.913,0,0,1,2.294,1.037V-13.5h2.549V0H28.638l-.123-1.011A2.989,2.989,0,0,1,26.071.176a3.228,3.228,0,0,1-2.694-1.323A5.916,5.916,0,0,1,22.362-4.825Zm2.54.189a3.754,3.754,0,0,0,.466,2.051,1.517,1.517,0,0,0,1.354.713,1.7,1.7,0,0,0,1.661-.995V-6.625a1.675,1.675,0,0,0-1.644-.995Q24.9-7.62,24.9-4.636ZM35.581,0H33.032V-9.51h2.549Zm-2.7-11.971a1.251,1.251,0,0,1,.382-.94,1.436,1.436,0,0,1,1.042-.369,1.44,1.44,0,0,1,1.037.369,1.244,1.244,0,0,1,.387.94,1.247,1.247,0,0,1-.391.949,1.443,1.443,0,0,1-1.033.369,1.443,1.443,0,0,1-1.033-.369A1.247,1.247,0,0,1,32.883-11.971Zm8.745,10.1a1.666,1.666,0,0,0,1.143-.387,1.355,1.355,0,0,0,.457-1.028h2.382a3.258,3.258,0,0,1-.527,1.771A3.48,3.48,0,0,1,43.663-.268a4.442,4.442,0,0,1-1.991.444,4.129,4.129,0,0,1-3.217-1.3A5.13,5.13,0,0,1,37.277-4.7v-.167a5.071,5.071,0,0,1,1.169-3.507,4.08,4.08,0,0,1,3.208-1.31A4,4,0,0,1,44.515-8.67a3.594,3.594,0,0,1,1.094,2.7H43.227a1.745,1.745,0,0,0-.457-1.206,1.524,1.524,0,0,0-1.16-.464,1.53,1.53,0,0,0-1.34.647,3.749,3.749,0,0,0-.453,2.1v.264a3.8,3.8,0,0,0,.448,2.113A1.549,1.549,0,0,0,41.628-1.872ZM49.74,0H47.191V-9.51H49.74Zm-2.7-11.971a1.251,1.251,0,0,1,.382-.94,1.436,1.436,0,0,1,1.042-.369,1.44,1.44,0,0,1,1.037.369,1.244,1.244,0,0,1,.387.94,1.247,1.247,0,0,1-.391.949,1.443,1.443,0,0,1-1.033.369,1.443,1.443,0,0,1-1.033-.369A1.247,1.247,0,0,1,47.042-11.971Zm4.395,7.128a5.64,5.64,0,0,1,.545-2.522A3.989,3.989,0,0,1,53.55-9.079a4.577,4.577,0,0,1,2.377-.606A4.33,4.33,0,0,1,59.07-8.508a4.727,4.727,0,0,1,1.358,3.2l.018.65a4.97,4.97,0,0,1-1.222,3.511A4.247,4.247,0,0,1,55.945.176a4.268,4.268,0,0,1-3.283-1.318,5.058,5.058,0,0,1-1.226-3.586Zm2.54.18a3.555,3.555,0,0,0,.51,2.073,1.682,1.682,0,0,0,1.459.717,1.686,1.686,0,0,0,1.441-.709,3.89,3.89,0,0,0,.519-2.267,3.519,3.519,0,0,0-.519-2.06,1.686,1.686,0,0,0-1.459-.731,1.658,1.658,0,0,0-1.441.726A3.955,3.955,0,0,0,53.977-4.662ZM64.348-9.51l.079,1.1A3.32,3.32,0,0,1,67.16-9.686a2.759,2.759,0,0,1,2.25.888,4.142,4.142,0,0,1,.756,2.654V0h-2.54V-6.082a1.648,1.648,0,0,0-.352-1.173,1.574,1.574,0,0,0-1.169-.365,1.747,1.747,0,0,0-1.608.914V0h-2.54V-9.51ZM77.6,0a2.821,2.821,0,0,1-.255-.853,3.073,3.073,0,0,1-2.4,1.028,3.376,3.376,0,0,1-2.316-.809,2.6,2.6,0,0,1-.918-2.039,2.687,2.687,0,0,1,1.121-2.32,5.529,5.529,0,0,1,3.239-.817h1.169v-.545A1.567,1.567,0,0,0,76.9-7.409a1.331,1.331,0,0,0-1.068-.4,1.513,1.513,0,0,0-1.006.308,1.045,1.045,0,0,0-.365.844h-2.54a2.551,2.551,0,0,1,.51-1.529,3.37,3.37,0,0,1,1.441-1.1,5.253,5.253,0,0,1,2.092-.4,4.15,4.15,0,0,1,2.791.883A3.09,3.09,0,0,1,79.79-6.319V-2.2a4.546,4.546,0,0,0,.378,2.048V0ZM75.5-1.767a2.188,2.188,0,0,0,1.037-.25,1.645,1.645,0,0,0,.7-.672V-4.324h-.949q-1.907,0-2.03,1.318l-.009.149a1.017,1.017,0,0,0,.334.782A1.3,1.3,0,0,0,75.5-1.767ZM84.422,0H81.873V-13.5h2.549Z" transform="translate(393.036 423.607)" fill="#12263f"/>
      <path id="Trazado_874715" data-name="Trazado 874715" d="M8.367-2.637H3.744L2.865,0H.062L4.825-12.8H7.269L12.059,0h-2.8ZM4.456-4.772h3.2L6.047-9.562Zm12.586,2.9a1.666,1.666,0,0,0,1.143-.387,1.355,1.355,0,0,0,.457-1.028h2.382A3.258,3.258,0,0,1,20.5-1.516,3.48,3.48,0,0,1,19.077-.268a4.442,4.442,0,0,1-1.991.444,4.129,4.129,0,0,1-3.217-1.3A5.13,5.13,0,0,1,12.691-4.7v-.167A5.071,5.071,0,0,1,13.86-8.376a4.08,4.08,0,0,1,3.208-1.31A4,4,0,0,1,19.929-8.67a3.594,3.594,0,0,1,1.094,2.7H18.642a1.745,1.745,0,0,0-.457-1.206,1.524,1.524,0,0,0-1.16-.464,1.53,1.53,0,0,0-1.34.647,3.749,3.749,0,0,0-.453,2.1v.264a3.8,3.8,0,0,0,.448,2.113A1.549,1.549,0,0,0,17.042-1.872Zm9.387,0a1.666,1.666,0,0,0,1.143-.387,1.355,1.355,0,0,0,.457-1.028H30.41a3.258,3.258,0,0,1-.527,1.771A3.48,3.48,0,0,1,28.463-.268a4.442,4.442,0,0,1-1.991.444,4.129,4.129,0,0,1-3.217-1.3A5.13,5.13,0,0,1,22.078-4.7v-.167a5.071,5.071,0,0,1,1.169-3.507,4.08,4.08,0,0,1,3.208-1.31A4,4,0,0,1,29.316-8.67a3.594,3.594,0,0,1,1.094,2.7H28.028a1.745,1.745,0,0,0-.457-1.206,1.524,1.524,0,0,0-1.16-.464,1.53,1.53,0,0,0-1.34.647,3.749,3.749,0,0,0-.453,2.1v.264a3.8,3.8,0,0,0,.448,2.113A1.549,1.549,0,0,0,26.429-1.872ZM34.541,0H31.992V-9.51h2.549Zm-2.7-11.971a1.251,1.251,0,0,1,.382-.94,1.436,1.436,0,0,1,1.042-.369,1.44,1.44,0,0,1,1.037.369,1.244,1.244,0,0,1,.387.94,1.247,1.247,0,0,1-.391.949,1.443,1.443,0,0,1-1.033.369,1.443,1.443,0,0,1-1.033-.369A1.247,1.247,0,0,1,31.843-11.971Zm4.395,7.128a5.64,5.64,0,0,1,.545-2.522,3.989,3.989,0,0,1,1.569-1.714,4.577,4.577,0,0,1,2.377-.606,4.33,4.33,0,0,1,3.142,1.178,4.727,4.727,0,0,1,1.358,3.2l.018.65a4.97,4.97,0,0,1-1.222,3.511A4.247,4.247,0,0,1,40.746.176a4.268,4.268,0,0,1-3.283-1.318,5.058,5.058,0,0,1-1.226-3.586Zm2.54.18a3.555,3.555,0,0,0,.51,2.073,1.682,1.682,0,0,0,1.459.717,1.686,1.686,0,0,0,1.441-.709,3.89,3.89,0,0,0,.519-2.267,3.519,3.519,0,0,0-.519-2.06,1.686,1.686,0,0,0-1.459-.731,1.658,1.658,0,0,0-1.441.726A3.955,3.955,0,0,0,38.777-4.662ZM49.148-9.51l.079,1.1a3.32,3.32,0,0,1,2.733-1.274,2.759,2.759,0,0,1,2.25.888,4.142,4.142,0,0,1,.756,2.654V0h-2.54V-6.082a1.648,1.648,0,0,0-.352-1.173,1.574,1.574,0,0,0-1.169-.365,1.747,1.747,0,0,0-1.608.914V0h-2.54V-9.51ZM61.269.176a4.668,4.668,0,0,1-3.406-1.283,4.561,4.561,0,0,1-1.314-3.419v-.246A5.745,5.745,0,0,1,57.1-7.334a4.064,4.064,0,0,1,1.569-1.74,4.4,4.4,0,0,1,2.316-.611,3.947,3.947,0,0,1,3.072,1.23A5,5,0,0,1,65.18-4.966v1.037H59.124a2.36,2.36,0,0,0,.743,1.494,2.245,2.245,0,0,0,1.569.563,2.742,2.742,0,0,0,2.294-1.063l1.248,1.4A3.813,3.813,0,0,1,63.431-.277,5.075,5.075,0,0,1,61.269.176Zm-.29-7.813a1.587,1.587,0,0,0-1.226.512,2.651,2.651,0,0,0-.6,1.466h3.533v-.2a1.891,1.891,0,0,0-.457-1.311A1.638,1.638,0,0,0,60.979-7.638Zm10.793,5.01a.818.818,0,0,0-.461-.734,5.241,5.241,0,0,0-1.481-.479q-3.393-.712-3.393-2.883a2.613,2.613,0,0,1,1.05-2.114,4.237,4.237,0,0,1,2.747-.848,4.56,4.56,0,0,1,2.9.853,2.687,2.687,0,0,1,1.085,2.215h-2.54a1.229,1.229,0,0,0-.352-.9,1.488,1.488,0,0,0-1.1-.356,1.52,1.52,0,0,0-.993.29.916.916,0,0,0-.352.738.783.783,0,0,0,.4.681,4.114,4.114,0,0,0,1.349.448,11.019,11.019,0,0,1,1.6.426,2.628,2.628,0,0,1,2.013,2.558,2.481,2.481,0,0,1-1.116,2.1,4.815,4.815,0,0,1-2.883.8A5.029,5.029,0,0,1,68.12-.25a3.561,3.561,0,0,1-1.455-1.169,2.716,2.716,0,0,1-.527-1.6h2.408a1.326,1.326,0,0,0,.5,1.037,1.987,1.987,0,0,0,1.248.36A1.839,1.839,0,0,0,71.4-1.9.861.861,0,0,0,71.771-2.628Z" transform="translate(155.688 446.737)" fill="#12263f"/>
      <path id="Trazado_874716" data-name="Trazado 874716" d="M.58-4.825a5.731,5.731,0,0,1,1-3.542A3.237,3.237,0,0,1,4.307-9.686,2.913,2.913,0,0,1,6.6-8.648V-13.5H9.149V0H6.855L6.732-1.011A2.989,2.989,0,0,1,4.289.176,3.228,3.228,0,0,1,1.6-1.147,5.916,5.916,0,0,1,.58-4.825Zm2.54.189a3.754,3.754,0,0,0,.466,2.051,1.517,1.517,0,0,0,1.354.713A1.7,1.7,0,0,0,6.6-2.867V-6.625A1.675,1.675,0,0,0,4.957-7.62Q3.12-7.62,3.12-4.636ZM15.5.176a4.668,4.668,0,0,1-3.406-1.283,4.561,4.561,0,0,1-1.314-3.419v-.246a5.745,5.745,0,0,1,.554-2.562A4.064,4.064,0,0,1,12.9-9.075a4.4,4.4,0,0,1,2.316-.611,3.947,3.947,0,0,1,3.072,1.23,5,5,0,0,1,1.121,3.489v1.037H13.351a2.36,2.36,0,0,0,.743,1.494,2.245,2.245,0,0,0,1.569.563,2.742,2.742,0,0,0,2.294-1.063l1.248,1.4A3.813,3.813,0,0,1,17.657-.277,5.075,5.075,0,0,1,15.5.176Zm-.29-7.813a1.587,1.587,0,0,0-1.226.512,2.651,2.651,0,0,0-.6,1.466H16.91v-.2a1.891,1.891,0,0,0-.457-1.311A1.638,1.638,0,0,0,15.205-7.638ZM28.336-9.519l-.2,1.081A3.5,3.5,0,0,1,30.92-9.686a2.676,2.676,0,0,1,1.459.4,1.889,1.889,0,0,1,.782,1.046,3.662,3.662,0,0,1,2.953-1.45,2.391,2.391,0,0,1,1.973.9,3.68,3.68,0,0,1,.558,2.514l-.018.22L37.617,0H35.13l1.011-6.08a4.4,4.4,0,0,0,.026-.607.942.942,0,0,0-1.055-.95,2.093,2.093,0,0,0-1.749,1.091l-.026.2L32.229,0H29.751l1.011-6.056a4.386,4.386,0,0,0,.026-.606.94.94,0,0,0-1.046-.958,2.1,2.1,0,0,0-1.7.888L26.859,0H24.381l1.644-9.51ZM45.088,0a2.566,2.566,0,0,1-.1-.861A3.221,3.221,0,0,1,42.565.176,2.919,2.919,0,0,1,40.5-.637,2.46,2.46,0,0,1,39.727-2.6a2.843,2.843,0,0,1,1.305-2.386,5.924,5.924,0,0,1,3.335-.831l1.16.018.123-.571a1.984,1.984,0,0,0,.026-.554.952.952,0,0,0-.312-.646,1.075,1.075,0,0,0-.708-.242,1.514,1.514,0,0,0-.984.286,1.384,1.384,0,0,0-.519.875l-2.487.009a2.764,2.764,0,0,1,1.252-2.21,4.851,4.851,0,0,1,2.94-.831,3.507,3.507,0,0,1,2.531.962,2.816,2.816,0,0,1,.765,2.386l-.729,4.553-.044.563a2.714,2.714,0,0,0,.149,1.055L47.522,0ZM43.181-1.749a2.27,2.27,0,0,0,1.872-.932l.308-1.644L44.5-4.333a2.406,2.406,0,0,0-1.978.835,1.454,1.454,0,0,0-.272.712.844.844,0,0,0,.2.751A1,1,0,0,0,43.181-1.749ZM55.547-7.128a5.117,5.117,0,0,0-.835-.088,2.4,2.4,0,0,0-2.1.993L51.513,0H49.034l1.652-9.51,2.329-.009-.229,1.16A2.615,2.615,0,0,1,55-9.7a3.615,3.615,0,0,1,.861.123Zm4.061,3.34-1.151,1L57.973,0H55.494l2.338-13.5h2.487L59.036-6.17l.483-.519L62.341-9.51h3.182L61.365-5.423,64.011,0H61.295ZM69.245.176a4.137,4.137,0,0,1-2.21-.611A3.7,3.7,0,0,1,65.6-2.087,4.605,4.605,0,0,1,65.228-4.4l.026-.352A6.148,6.148,0,0,1,66.063-7.3,4.884,4.884,0,0,1,67.8-9.092a4.306,4.306,0,0,1,2.355-.593,3.29,3.29,0,0,1,2.782,1.351A4.631,4.631,0,0,1,73.657-5L73.516-3.92H67.689a2.041,2.041,0,0,0,.448,1.477,1.711,1.711,0,0,0,1.318.571,3.041,3.041,0,0,0,2.373-1.055l1.134,1.406A3.527,3.527,0,0,1,71.416-.259,5.059,5.059,0,0,1,69.245.176Zm.791-7.813a1.761,1.761,0,0,0-1.217.431,3.784,3.784,0,0,0-.954,1.556h3.41l.053-.229a2.33,2.33,0,0,0,.009-.668,1.276,1.276,0,0,0-.431-.8A1.35,1.35,0,0,0,70.036-7.638Zm9.246-4.21L78.869-9.51h1.582l-.325,1.863H78.544l-.809,4.764a1.211,1.211,0,0,0,.07.686q.123.237.6.255.141.009.756-.044L78.983-.044a4.169,4.169,0,0,1-1.424.2A2.234,2.234,0,0,1,75.74-.606a2.763,2.763,0,0,1-.492-2.021l.817-5.019H74.72l.325-1.863H76.39l.4-2.338ZM82.859,0h-2.5l1.652-9.51h2.5Zm-.554-11.927a1.238,1.238,0,0,1,.387-.976,1.36,1.36,0,0,1,.976-.387,1.367,1.367,0,0,1,.976.343,1.233,1.233,0,0,1,.431.932,1.273,1.273,0,0,1-.365.949,1.367,1.367,0,0,1-1,.422,1.39,1.39,0,0,1-.971-.334A1.227,1.227,0,0,1,82.305-11.927ZM88.88-9.519l-.211,1.125a3.422,3.422,0,0,1,2.769-1.292,2.281,2.281,0,0,1,1.986.984,3.966,3.966,0,0,1,.466,2.654L92.887,0H90.409l1.02-6.073a2.844,2.844,0,0,0,.018-.624,1.007,1.007,0,0,0-1.125-.923,2.133,2.133,0,0,0-1.749.905L87.385,0H84.907l1.652-9.51ZM95.3-4.764a6.58,6.58,0,0,1,1.437-3.582A3.647,3.647,0,0,1,99.7-9.694a2.667,2.667,0,0,1,2.268,1.1l.325-.923,2.276.009L103.012-.325A4.481,4.481,0,0,1,101.4,2.681,5.03,5.03,0,0,1,98.02,3.753a4.689,4.689,0,0,1-1.881-.426,4.022,4.022,0,0,1-1.477-1.121L95.893.694a2.642,2.642,0,0,0,2.074,1.081A2.436,2.436,0,0,0,99.62,1.27a2.7,2.7,0,0,0,.932-1.525l.141-.571a3.092,3.092,0,0,1-2.329,1A2.732,2.732,0,0,1,96.157-.857a4.44,4.44,0,0,1-.9-2.641A8.876,8.876,0,0,1,95.3-4.764Zm2.435,1.043A2.273,2.273,0,0,0,98.086-2.4a1.215,1.215,0,0,0,1.006.524,2.219,2.219,0,0,0,1.793-.863l.738-4.031a1.458,1.458,0,0,0-1.4-.863,1.944,1.944,0,0,0-1.608.766,4.006,4.006,0,0,0-.826,2.1A9.241,9.241,0,0,0,97.739-3.721Z" transform="translate(139.866 468.337)" fill="#12263f"/>
      <path id="Trazado_874717" data-name="Trazado 874717" d="M.58-4.825a5.731,5.731,0,0,1,1-3.542A3.237,3.237,0,0,1,4.307-9.686,2.913,2.913,0,0,1,6.6-8.648V-13.5H9.149V0H6.855L6.732-1.011A2.989,2.989,0,0,1,4.289.176,3.228,3.228,0,0,1,1.6-1.147,5.916,5.916,0,0,1,.58-4.825Zm2.54.189a3.754,3.754,0,0,0,.466,2.051,1.517,1.517,0,0,0,1.354.713A1.7,1.7,0,0,0,6.6-2.867V-6.625A1.675,1.675,0,0,0,4.957-7.62Q3.12-7.62,3.12-4.636ZM13.8,0H11.25V-9.51H13.8ZM11.1-11.971a1.251,1.251,0,0,1,.382-.94,1.436,1.436,0,0,1,1.042-.369,1.44,1.44,0,0,1,1.037.369,1.244,1.244,0,0,1,.387.94,1.247,1.247,0,0,1-.391.949,1.443,1.443,0,0,1-1.033.369,1.443,1.443,0,0,1-1.033-.369A1.247,1.247,0,0,1,11.1-11.971Zm4.421,7.146A5.573,5.573,0,0,1,16.563-8.35a3.375,3.375,0,0,1,2.808-1.336,2.96,2.96,0,0,1,2.435,1.072l.105-.9h2.3V-.316a4.064,4.064,0,0,1-.567,2.171,3.641,3.641,0,0,1-1.6,1.406,5.608,5.608,0,0,1-2.408.483A5.215,5.215,0,0,1,17.6,3.327,3.619,3.619,0,0,1,16.1,2.25L17.227.7a2.975,2.975,0,0,0,2.3,1.063A2.178,2.178,0,0,0,21.1,1.226a2.027,2.027,0,0,0,.563-1.534v-.51a2.938,2.938,0,0,1-2.312.993,3.366,3.366,0,0,1-2.773-1.34A5.572,5.572,0,0,1,15.521-4.72Zm2.54.189a3.47,3.47,0,0,0,.519,2.029A1.65,1.65,0,0,0,20-1.872a1.764,1.764,0,0,0,1.661-.871V-6.749a1.76,1.76,0,0,0-1.644-.871,1.66,1.66,0,0,0-1.437.748A3.911,3.911,0,0,0,18.062-4.636ZM28.846,0H26.3V-9.51h2.549Zm-2.7-11.971a1.251,1.251,0,0,1,.382-.94,1.436,1.436,0,0,1,1.042-.369,1.44,1.44,0,0,1,1.037.369,1.244,1.244,0,0,1,.387.94,1.247,1.247,0,0,1-.391.949,1.443,1.443,0,0,1-1.033.369,1.443,1.443,0,0,1-1.033-.369A1.247,1.247,0,0,1,26.147-11.971Zm7.831.123V-9.51H35.6v1.863H33.979V-2.9a1.133,1.133,0,0,0,.2.756,1.015,1.015,0,0,0,.773.229,4.051,4.051,0,0,0,.747-.062V-.053a5.229,5.229,0,0,1-1.538.229,2.425,2.425,0,0,1-2.725-2.7V-7.646H30.05V-9.51h1.389v-2.338ZM42.53,0a2.821,2.821,0,0,1-.255-.853,3.073,3.073,0,0,1-2.4,1.028A3.376,3.376,0,0,1,37.56-.633a2.6,2.6,0,0,1-.918-2.039,2.687,2.687,0,0,1,1.121-2.32A5.529,5.529,0,0,1,41-5.81H42.17v-.545a1.567,1.567,0,0,0-.338-1.055,1.331,1.331,0,0,0-1.068-.4,1.513,1.513,0,0,0-1.006.308,1.045,1.045,0,0,0-.365.844h-2.54a2.551,2.551,0,0,1,.51-1.529,3.37,3.37,0,0,1,1.441-1.1,5.253,5.253,0,0,1,2.092-.4,4.15,4.15,0,0,1,2.791.883,3.09,3.09,0,0,1,1.033,2.483V-2.2A4.546,4.546,0,0,0,45.1-.149V0Zm-2.1-1.767a2.188,2.188,0,0,0,1.037-.25,1.645,1.645,0,0,0,.7-.672V-4.324h-.949q-1.907,0-2.03,1.318l-.009.149a1.017,1.017,0,0,0,.334.782A1.3,1.3,0,0,0,40.43-1.767ZM49.351,0H46.8V-13.5h2.549Z" transform="translate(167.892 489.937)" fill="#12263f"/>
      <path id="Trazado_874709" data-name="Trazado 874709" d="M7.778-3.357A1.353,1.353,0,0,0,7.251-4.5a6.917,6.917,0,0,0-1.9-.844,13.458,13.458,0,0,1-2.171-.875A3.547,3.547,0,0,1,1-9.4a3.09,3.09,0,0,1,.584-1.85,3.812,3.812,0,0,1,1.679-1.27,6.318,6.318,0,0,1,2.457-.457,5.751,5.751,0,0,1,2.443.5,3.891,3.891,0,0,1,1.666,1.4,3.668,3.668,0,0,1,.593,2.057H7.787a1.726,1.726,0,0,0-.554-1.367,2.276,2.276,0,0,0-1.556-.488,2.432,2.432,0,0,0-1.5.409,1.289,1.289,0,0,0-.536,1.077,1.235,1.235,0,0,0,.628,1.046,7.1,7.1,0,0,0,1.85.791A7.994,7.994,0,0,1,9.4-5.871a3.343,3.343,0,0,1,1.028,2.5A3.08,3.08,0,0,1,9.167-.769,5.5,5.5,0,0,1,5.783.176,6.534,6.534,0,0,1,3.094-.365a4.256,4.256,0,0,1-1.85-1.481,3.793,3.793,0,0,1-.637-2.18H3.252q0,2.118,2.531,2.118A2.462,2.462,0,0,0,7.251-2.29,1.244,1.244,0,0,0,7.778-3.357ZM16.418.176a4.668,4.668,0,0,1-3.406-1.283A4.561,4.561,0,0,1,11.7-4.526v-.246a5.745,5.745,0,0,1,.554-2.562,4.064,4.064,0,0,1,1.569-1.74,4.4,4.4,0,0,1,2.316-.611,3.947,3.947,0,0,1,3.072,1.23,5,5,0,0,1,1.121,3.489v1.037H14.273a2.36,2.36,0,0,0,.743,1.494,2.245,2.245,0,0,0,1.569.563,2.742,2.742,0,0,0,2.294-1.063l1.248,1.4A3.813,3.813,0,0,1,18.58-.277,5.075,5.075,0,0,1,16.418.176Zm-.29-7.813a1.587,1.587,0,0,0-1.226.512,2.651,2.651,0,0,0-.6,1.466h3.533v-.2a1.891,1.891,0,0,0-.457-1.311A1.638,1.638,0,0,0,16.128-7.638ZM21.4-4.825A5.573,5.573,0,0,1,22.443-8.35a3.375,3.375,0,0,1,2.808-1.336,2.96,2.96,0,0,1,2.435,1.072l.105-.9h2.3V-.316a4.064,4.064,0,0,1-.567,2.171,3.641,3.641,0,0,1-1.6,1.406,5.608,5.608,0,0,1-2.408.483,5.215,5.215,0,0,1-2.039-.417,3.619,3.619,0,0,1-1.5-1.077L23.106.7a2.975,2.975,0,0,0,2.3,1.063,2.178,2.178,0,0,0,1.573-.541,2.027,2.027,0,0,0,.563-1.534v-.51a2.938,2.938,0,0,1-2.312.993,3.366,3.366,0,0,1-2.773-1.34A5.572,5.572,0,0,1,21.4-4.72Zm2.54.189a3.47,3.47,0,0,0,.519,2.029,1.65,1.65,0,0,0,1.424.735,1.764,1.764,0,0,0,1.661-.871V-6.749A1.76,1.76,0,0,0,25.9-7.62a1.66,1.66,0,0,0-1.437.748A3.911,3.911,0,0,0,23.941-4.636ZM37.74-.967a3.185,3.185,0,0,1-2.6,1.143A3,3,0,0,1,32.805-.7a3.752,3.752,0,0,1-.822-2.575V-9.51h2.54v6.151q0,1.487,1.354,1.487a1.834,1.834,0,0,0,1.775-.9V-9.51H40.2V0H37.811ZM44.8,0H42.249V-9.51H44.8ZM42.1-11.971a1.251,1.251,0,0,1,.382-.94,1.436,1.436,0,0,1,1.042-.369,1.44,1.44,0,0,1,1.037.369,1.244,1.244,0,0,1,.387.94,1.247,1.247,0,0,1-.391.949,1.443,1.443,0,0,1-1.033.369,1.443,1.443,0,0,1-1.033-.369A1.247,1.247,0,0,1,42.1-11.971ZM49.271-9.51l.079,1.063a3.342,3.342,0,0,1,2.733-1.239,2.536,2.536,0,0,1,2.522,1.45,3.265,3.265,0,0,1,2.856-1.45,2.836,2.836,0,0,1,2.3.9,4.141,4.141,0,0,1,.756,2.711V0H57.973V-6.064a1.811,1.811,0,0,0-.316-1.182A1.4,1.4,0,0,0,56.54-7.62a1.585,1.585,0,0,0-1.582,1.09L54.967,0h-2.54V-6.056a1.789,1.789,0,0,0-.325-1.2,1.416,1.416,0,0,0-1.107-.369,1.646,1.646,0,0,0-1.564.9V0H46.89V-9.51ZM65.153,0H62.6V-9.51h2.549Zm-2.7-11.971a1.251,1.251,0,0,1,.382-.94,1.436,1.436,0,0,1,1.042-.369,1.44,1.44,0,0,1,1.037.369,1.244,1.244,0,0,1,.387.94,1.247,1.247,0,0,1-.391.949,1.443,1.443,0,0,1-1.033.369,1.443,1.443,0,0,1-1.033-.369A1.247,1.247,0,0,1,62.455-11.971ZM71.622.176a4.668,4.668,0,0,1-3.406-1.283A4.561,4.561,0,0,1,66.9-4.526v-.246a5.745,5.745,0,0,1,.554-2.562,4.064,4.064,0,0,1,1.569-1.74,4.4,4.4,0,0,1,2.316-.611,3.947,3.947,0,0,1,3.072,1.23,5,5,0,0,1,1.121,3.489v1.037H69.478a2.36,2.36,0,0,0,.743,1.494,2.245,2.245,0,0,0,1.569.563,2.742,2.742,0,0,0,2.294-1.063l1.248,1.4A3.813,3.813,0,0,1,73.784-.277,5.075,5.075,0,0,1,71.622.176Zm-.29-7.813a1.587,1.587,0,0,0-1.226.512,2.651,2.651,0,0,0-.6,1.466h3.533v-.2a1.891,1.891,0,0,0-.457-1.311A1.638,1.638,0,0,0,71.332-7.638Zm7.98-1.872.079,1.1a3.32,3.32,0,0,1,2.733-1.274,2.759,2.759,0,0,1,2.25.888,4.142,4.142,0,0,1,.756,2.654V0h-2.54V-6.082a1.648,1.648,0,0,0-.352-1.173A1.574,1.574,0,0,0,81.07-7.62a1.747,1.747,0,0,0-1.608.914V0h-2.54V-9.51ZM90.1-11.848V-9.51h1.626v1.863H90.1V-2.9a1.133,1.133,0,0,0,.2.756,1.015,1.015,0,0,0,.773.229,4.051,4.051,0,0,0,.747-.062V-.053a5.229,5.229,0,0,1-1.538.229,2.425,2.425,0,0,1-2.725-2.7V-7.646H86.168V-9.51h1.389v-2.338Zm2.094,7a5.64,5.64,0,0,1,.545-2.522A3.989,3.989,0,0,1,94.3-9.079a4.577,4.577,0,0,1,2.377-.606,4.33,4.33,0,0,1,3.142,1.178,4.727,4.727,0,0,1,1.358,3.2l.018.65a4.97,4.97,0,0,1-1.222,3.511A4.247,4.247,0,0,1,96.7.176a4.268,4.268,0,0,1-3.283-1.318,5.058,5.058,0,0,1-1.226-3.586Zm2.54.18a3.555,3.555,0,0,0,.51,2.073,1.682,1.682,0,0,0,1.459.717,1.686,1.686,0,0,0,1.441-.709,3.89,3.89,0,0,0,.519-2.267,3.519,3.519,0,0,0-.519-2.06,1.686,1.686,0,0,0-1.459-.731,1.658,1.658,0,0,0-1.441.726A3.955,3.955,0,0,0,94.731-4.662Z" transform="translate(9.096 265.171)" fill="#fff"/>
      <path id="Trazado_874710" data-name="Trazado 874710" d="M4.526-3.595,6.284-9.51H9.009L5.186,1.477l-.211.5A2.9,2.9,0,0,1,2.162,3.841a4,4,0,0,1-1.125-.167V1.749l.387.009A2.09,2.09,0,0,0,2.5,1.538,1.443,1.443,0,0,0,3.059.809l.3-.782L.026-9.51H2.76ZM18.448-1.872a1.666,1.666,0,0,0,1.143-.387,1.355,1.355,0,0,0,.457-1.028H22.43A3.258,3.258,0,0,1,21.9-1.516,3.48,3.48,0,0,1,20.483-.268a4.442,4.442,0,0,1-1.991.444,4.129,4.129,0,0,1-3.217-1.3A5.13,5.13,0,0,1,14.1-4.7v-.167a5.071,5.071,0,0,1,1.169-3.507,4.08,4.08,0,0,1,3.208-1.31A4,4,0,0,1,21.335-8.67a3.594,3.594,0,0,1,1.094,2.7H20.048a1.745,1.745,0,0,0-.457-1.206,1.524,1.524,0,0,0-1.16-.464,1.53,1.53,0,0,0-1.34.647,3.749,3.749,0,0,0-.453,2.1v.264a3.8,3.8,0,0,0,.448,2.113A1.549,1.549,0,0,0,18.448-1.872Zm5.036-2.971a5.64,5.64,0,0,1,.545-2.522A3.989,3.989,0,0,1,25.6-9.079a4.577,4.577,0,0,1,2.377-.606,4.33,4.33,0,0,1,3.142,1.178,4.727,4.727,0,0,1,1.358,3.2l.018.65a4.97,4.97,0,0,1-1.222,3.511A4.247,4.247,0,0,1,27.993.176,4.268,4.268,0,0,1,24.71-1.143a5.058,5.058,0,0,1-1.226-3.586Zm2.54.18a3.555,3.555,0,0,0,.51,2.073,1.682,1.682,0,0,0,1.459.717,1.686,1.686,0,0,0,1.441-.709,3.89,3.89,0,0,0,.519-2.267,3.519,3.519,0,0,0-.519-2.06,1.686,1.686,0,0,0-1.459-.731,1.658,1.658,0,0,0-1.441.726A3.955,3.955,0,0,0,26.024-4.662ZM36.4-9.51l.079,1.1a3.32,3.32,0,0,1,2.733-1.274,2.759,2.759,0,0,1,2.25.888,4.142,4.142,0,0,1,.756,2.654V0h-2.54V-6.082a1.648,1.648,0,0,0-.352-1.173,1.574,1.574,0,0,0-1.169-.365,1.747,1.747,0,0,0-1.608.914V0H34V-9.51ZM47.18-11.848V-9.51h1.626v1.863H47.18V-2.9a1.133,1.133,0,0,0,.2.756,1.015,1.015,0,0,0,.773.229,4.051,4.051,0,0,0,.747-.062V-.053a5.229,5.229,0,0,1-1.538.229,2.425,2.425,0,0,1-2.725-2.7V-7.646H43.251V-9.51H44.64v-2.338Zm8.385,4.72a6.9,6.9,0,0,0-.914-.07,1.86,1.86,0,0,0-1.89.976V0h-2.54V-9.51h2.4l.07,1.134a2.354,2.354,0,0,1,2.118-1.31,2.662,2.662,0,0,1,.791.114Zm.222,2.285a5.64,5.64,0,0,1,.545-2.522A3.989,3.989,0,0,1,57.9-9.079a4.577,4.577,0,0,1,2.377-.606A4.33,4.33,0,0,1,63.42-8.508a4.727,4.727,0,0,1,1.358,3.2l.018.65a4.97,4.97,0,0,1-1.222,3.511A4.247,4.247,0,0,1,60.3.176a4.268,4.268,0,0,1-3.283-1.318,5.058,5.058,0,0,1-1.226-3.586Zm2.54.18a3.555,3.555,0,0,0,.51,2.073,1.682,1.682,0,0,0,1.459.717,1.686,1.686,0,0,0,1.441-.709,3.89,3.89,0,0,0,.519-2.267,3.519,3.519,0,0,0-.519-2.06,1.686,1.686,0,0,0-1.459-.731,1.658,1.658,0,0,0-1.441.726A3.955,3.955,0,0,0,58.326-4.662ZM69.04,0H66.491V-13.5H69.04Z" transform="translate(24.918 286.771)" fill="#fff"/>
    </g>
    <g id="Grupo_1099852" data-name="Grupo 1099852" transform="translate(882.433 1739.382)">
      <g id="Grupo_1099851" data-name="Grupo 1099851" clip-path="url(#clip-path-2)">
        <g id="Grupo_1099836" data-name="Grupo 1099836">
          <g id="Grupo_1099835" data-name="Grupo 1099835" clip-path="url(#clip-path-2)">
            <path id="Trazado_873828" data-name="Trazado 873828" d="M204.492,5.613c-3.817,0-4.605,2.075-1.755,4.612a13.256,13.256,0,0,1,3.723,9.547,15.7,15.7,0,0,1-31.4,0,13.255,13.255,0,0,1,3.723-9.547c2.851-2.538,2.06-4.612-1.755-4.612H152.517a6.959,6.959,0,0,0-6.939,6.939V36.663c0,3.817,2.075,4.608,4.61,1.755a13.262,13.262,0,0,1,9.549-3.721,15.7,15.7,0,0,1,0,31.4,13.258,13.258,0,0,1-9.549-3.723c-2.535-2.851-4.61-2.063-4.61,1.755V95.182h82.628a6.961,6.961,0,0,0,6.939-6.941V12.552a6.96,6.96,0,0,0-6.939-6.939Z" transform="translate(196.83 7.589)" fill="#315884"/>
            <g id="Grupo_1099834" data-name="Grupo 1099834" transform="translate(342.406 13.202)" opacity="0.5" style="mix-blend-mode: soft-light;isolation: isolate">
              <g id="Grupo_1099833" data-name="Grupo 1099833">
                <g id="Grupo_1099832" data-name="Grupo 1099832" clip-path="url(#clip-path-4)">
                  <g id="Grupo_1099831" data-name="Grupo 1099831" transform="translate(0 0)">
                    <g id="Grupo_1099830" data-name="Grupo 1099830" clip-path="url(#clip-path-5)">
                      <rect id="Rectángulo_401050" data-name="Rectángulo 401050" width="89.569" height="89.566" transform="translate(0 0)" fill="url(#linear-gradient)"/>
                    </g>
                  </g>
                </g>
              </g>
            </g>
            <path id="Trazado_873830" data-name="Trazado 873830" d="M178.051,64.712s2.884-8.728,6.44-18.774c4.808-13.571,10.939-15.479,15.726-14.084,2.926.851,5.842,2.773,3.429,10.718,0,0,2.4-5.189,2.978-7,4.612-14.5,9.853-14.5,14.338-13.226,5.485,1.557,4.949,9.237,4.483,12.4,2.644-8.072,5.659-15.554,13.67-12.673,4.09,1.472,5.541,5.7,3.815,12.736,3.458.165,11.784,1.908,5.029,15.644a122.01,122.01,0,0,1-8.016,12.529,23.691,23.691,0,0,1-13.858,9.408l-13.094,3.14,3.081,27.491-58.82.125-.362-18.946c-.242-8.55-.779-18.146,21.161-19.482" transform="translate(212.042 28.984)" fill="#ffa194"/>
            <path id="Trazado_873831" data-name="Trazado 873831" d="M195.192,46.944H171.587a1.595,1.595,0,0,1,0-3.189h23.605a1.595,1.595,0,1,1,0,3.189" transform="translate(229.839 59.159)" fill="#db5349"/>
            <path id="Trazado_873832" data-name="Trazado 873832" d="M189.241,62.269a1.61,1.61,0,0,1-.55-.1,1.593,1.593,0,0,1-.945-2.049l12.021-32.635a1.6,1.6,0,0,1,2.994,1.1L190.737,61.225a1.6,1.6,0,0,1-1.5,1.044" transform="translate(253.708 35.751)" fill="#db5349"/>
            <path id="Trazado_873833" data-name="Trazado 873833" d="M182.02,61.237a1.6,1.6,0,0,1-1.5-2.147l12.024-32.635a1.6,1.6,0,0,1,2.994,1.1L183.516,60.193a1.6,1.6,0,0,1-1.5,1.044" transform="translate(243.943 34.355)" fill="#db5349"/>
            <path id="Trazado_873834" data-name="Trazado 873834" d="M174.05,58.314a1.6,1.6,0,0,1-1.5-2.147L182.7,28.617a1.6,1.6,0,0,1,2.994,1.1L175.548,57.269a1.6,1.6,0,0,1-1.5,1.044" transform="translate(233.169 37.279)" fill="#db5349"/>
            <path id="Trazado_873835" data-name="Trazado 873835" d="M309.609,48.053C259.921,10.276,185.777,23.6,160.919,43.5s-30.478,61.353-30.478,61.353S45.668,88.271,18.548,165.105s-5.273,186.913,123.54,183.851,219.736,13.581,219.736-114.409c0-32.3,19-132.348-52.216-186.495" transform="translate(11.203 32.482)" fill="#cbf4e1"/>
            <path id="Trazado_873836" data-name="Trazado 873836" d="M244.126,200.395H52.608l7.691-52.86H238.378Z" transform="translate(71.129 199.476)" fill="#28121f"/>
            <path id="Trazado_873837" data-name="Trazado 873837" d="M10.976,56.246H69.82c.913,39.914-4.869,92.389,21.347,101.19,20.087,6.743,35.516-21.441,43.821-32.294,25.24-32.992,61.433-27.35,84.032-27.35,23.2,0,60.892-5.777,86.431,30.057,1.122,1.574,22.335,33.446,41.225,29.838,27.1-5.175,20.456-61.528,21.371-101.442l58.82-.125s12.014,51.367,9.777,100.962c-2.03,44.955-16.857,95.169-70.334,108.164-20.971,5.1-42.793.588-60.147-7.8l2.1,14.442h-1.9l-87.146-.1-89.032.1,2.082-14.6c-17.488,8.576-39.524,13.244-60.73,8.089-53.476-13-68.3-63.207-70.331-108.164-2.239-49.6,9.775-100.962,9.775-100.962" transform="translate(1.248 75.879)" fill="#3180b5"/>
            <path id="Trazado_873838" data-name="Trazado 873838" d="M94.565,212.175a1.6,1.6,0,0,1-1.595-1.595v-107.6a1.595,1.595,0,1,1,3.189,0v107.6a1.593,1.593,0,0,1-1.595,1.595" transform="translate(125.701 137.077)" fill="#1c5482"/>
            <path id="Trazado_873839" data-name="Trazado 873839" d="M122.039,141.033c-10.8,0-20.195-3.347-27.924-9.947-6.068-5.182-10.975-12.313-14.583-21.2-5.318-13.094-6.6-26.8-6.882-33.808a1.595,1.595,0,1,1,3.187-.129c.28,6.8,1.515,20.091,6.649,32.738,3.415,8.406,8.025,15.126,13.7,19.974,7.134,6.092,15.832,9.182,25.851,9.182A42.21,42.21,0,0,0,150.384,127.5c6.144-5.294,11.269-12.567,15.234-21.613a104.079,104.079,0,0,0,7.614-28.643,1.6,1.6,0,0,1,3.171.36,107.362,107.362,0,0,1-7.863,29.563c-4.156,9.488-9.566,17.142-16.074,22.751a45.322,45.322,0,0,1-30.426,11.113" transform="translate(98.226 100.619)" fill="#1c5482"/>
            <path id="Trazado_873840" data-name="Trazado 873840" d="M76.709,75.206c14.616-2.474,28.82-1.171,39.842-1.171,12.252,0,28.545-1.609,44.955,2.147,0,0-4.342,56.233-44.955,56.233-36.723,0-39.623-48.015-39.842-57.209" transform="translate(103.715 99.636)" fill="#fffeeb"/>
            <path id="Trazado_873841" data-name="Trazado 873841" d="M80.067,54.818A11.808,11.808,0,1,0,94.22,45.95a11.807,11.807,0,0,0-14.152,8.867" transform="translate(107.848 61.72)" fill="#28121f"/>
            <path id="Trazado_873842" data-name="Trazado 873842" d="M78.04,62.793a5.3,5.3,0,1,0,6.348-3.977,5.3,5.3,0,0,0-6.348,3.977" transform="translate(105.331 79.339)" fill="#28121f"/>
            <path id="Trazado_873843" data-name="Trazado 873843" d="M83.907,64.232a30.764,30.764,0,1,0,36.868-23.1,30.764,30.764,0,0,0-36.868,23.1" transform="translate(112.382 54.55)" fill="#28121f"/>
            <path id="Trazado_873844" data-name="Trazado 873844" d="M80.395,47.456a12.491,12.491,0,1,0,14.971-9.378,12.494,12.494,0,0,0-14.971,9.378" transform="translate(108.266 51.051)" fill="#28121f"/>
            <path id="Trazado_873845" data-name="Trazado 873845" d="M84.767,44.351a12.491,12.491,0,1,0,14.971-9.382,12.494,12.494,0,0,0-14.971,9.382" transform="translate(114.177 46.85)" fill="#28121f"/>
            <path id="Trazado_873846" data-name="Trazado 873846" d="M82.75,68.126C84.615,60.8,86.137,50.278,97.6,44.61,100.854,43,120.369,51.158,117,60.164c-1.11,3.879-5.156,16.765,2.493,19.63,0,0-2.157,12.706,9.1,14.834v23.429l-28.8,0V99.672C78.157,95.807,76.929,90.986,82.75,68.126" transform="translate(107.847 60.04)" fill="#ffa194"/>
            <path id="Trazado_873847" data-name="Trazado 873847" d="M100.452,71.96c-1.235,2.06-4.394,5.527-12.17,7.548V67.9L99.558,69.98a1.321,1.321,0,0,1,.894,1.98" transform="translate(119.362 91.809)" fill="#db5349"/>
            <path id="Trazado_873848" data-name="Trazado 873848" d="M86.444,49.132A11.809,11.809,0,1,0,100.6,40.264a11.809,11.809,0,0,0-14.152,8.867" transform="translate(116.47 54.032)" fill="#28121f"/>
            <path id="Trazado_873849" data-name="Trazado 873849" d="M91.924,44.282a11.451,11.451,0,1,0,13.722-8.6,11.449,11.449,0,0,0-13.722,8.6" transform="translate(123.89 47.852)" fill="#28121f"/>
            <path id="Trazado_873850" data-name="Trazado 873850" d="M105.372,60.894A13.05,13.05,0,0,1,92.655,44.928a13.046,13.046,0,1,1,12.718,15.966m-.021-22.907a9.858,9.858,0,0,0-2.187,19.466,9.856,9.856,0,1,0,2.187-19.466" transform="translate(124.826 47.047)" fill="#28121f"/>
            <path id="Trazado_873851" data-name="Trazado 873851" d="M93.984,58.393a11.808,11.808,0,1,0,14.15-8.867,11.806,11.806,0,0,0-14.15,8.867" transform="translate(126.663 66.553)" fill="#28121f"/>
            <path id="Trazado_873852" data-name="Trazado 873852" d="M93.473,65.1a7.714,7.714,0,1,0,6.4-8.832,7.714,7.714,0,0,0-6.4,8.832" transform="translate(126.249 75.948)" fill="#ffa194"/>
            <path id="Trazado_873853" data-name="Trazado 873853" d="M94.705,62.916A4.728,4.728,0,1,0,98.629,57.5a4.729,4.729,0,0,0-3.923,5.414" transform="translate(127.966 77.664)" fill="#db5349"/>
            <path id="Trazado_873854" data-name="Trazado 873854" d="M46.188,207.426l22.775-59.6,3.973-47.443a1.225,1.225,0,0,1,2.439-.028c1.505,14.218.88,36.447.88,44.993,0,13-5.193,53.613-5.193,53.613a102.338,102.338,0,0,1-24.873,8.467" transform="translate(62.449 134.203)" fill="#1c5482"/>
            <path id="Trazado_873855" data-name="Trazado 873855" d="M158.656,207.4a101.924,101.924,0,0,1-24.786-8.284s-5.459-40.778-5.459-53.77c0-8.545-.437-30.774,1.068-44.993a1.225,1.225,0,0,1,2.439.028l3.973,47.441Z" transform="translate(173.539 134.204)" fill="#1c5482"/>
          </g>
        </g>
        <g id="Grupo_1099838" data-name="Grupo 1099838" transform="translate(180.424 173.328)">
          <g id="Grupo_1099837" data-name="Grupo 1099837" clip-path="url(#clip-path-6)">
            <path id="Trazado_873856" data-name="Trazado 873856" d="M150.622,95.086H80.235a1.595,1.595,0,1,1,0-3.189h70.388a1.595,1.595,0,0,1,0,3.189" transform="translate(-74.098 -49.078)" fill="#ffb14c"/>
            <path id="Trazado_873857" data-name="Trazado 873857" d="M165.913,82.837H76.107a1.595,1.595,0,0,1,0-3.189h89.806a1.595,1.595,0,1,1,0,3.189" transform="translate(-79.679 -65.639)" fill="#15b798"/>
          </g>
        </g>
        <g id="Grupo_1099850" data-name="Grupo 1099850">
          <g id="Grupo_1099849" data-name="Grupo 1099849" clip-path="url(#clip-path-2)">
            <path id="Trazado_873859" data-name="Trazado 873859" d="M81.7,73.926c10.347-.583,20.075.108,28.112.108,8.771,0,19.614-.823,31.087.085-4.939,15.265-14.077,30.779-30.8,30.779-16.319,0-24.4-15.42-28.4-30.972" transform="translate(110.458 99.637)" fill="#ffa194"/>
            <path id="Trazado_873860" data-name="Trazado 873860" d="M118.819,39.79a8.859,8.859,0,0,1-7.8-4.751c-2.147-3.869-1.933-8.359.621-12.981a26.407,26.407,0,0,1,4.523-5.878,26.025,26.025,0,0,0-3.782-2.277c-6.927-3.366-16.754-4.048-23.095,2.016a17.5,17.5,0,0,0-2.027,2.333,22.792,22.792,0,0,1,5.483,5.539c2,2.959,2.67,8.8.428,12.459a6.232,6.232,0,0,1-6.431,2.961,6.384,6.384,0,0,1-4.629-3.4c-2.792-5.048-1.924-11.4.788-16.568a21.831,21.831,0,0,0-5.384-2.105,29.824,29.824,0,0,0-24.875,5.33A1.6,1.6,0,1,1,50.7,19.936,33.052,33.052,0,0,1,78.258,14.03a24.83,24.83,0,0,1,6.311,2.5,20.938,20.938,0,0,1,2.517-2.919,20.183,20.183,0,0,1,13-5.433,28.2,28.2,0,0,1,13.694,2.855,29.789,29.789,0,0,1,4.829,2.973c.576-.456,1.167-.894,1.771-1.3C129.608,6.433,141.2,2.43,154.838.8a130.334,130.334,0,0,1,36.464,1.1c21.745,3.646,36.149,13.063,44.4,20.322,8.99,7.905,12.779,14.9,12.934,15.19a1.595,1.595,0,0,1-2.813,1.5c-.035-.068-3.74-6.866-12.346-14.4-7.931-6.946-21.78-15.959-42.709-19.47-12.887-2.162-45.374-5.487-68.6,10.293-.348.235-.7.489-1.058.762,5.243,4.883,8.855,11.751,5.664,18.494a8.739,8.739,0,0,1-7.668,5.189c-.1,0-.193,0-.289,0M118.664,18.2c-4.245,4.09-7.752,10.062-4.852,15.291A5.717,5.717,0,0,0,119,36.6a5.6,5.6,0,0,0,4.888-3.363c2.5-5.285-.746-10.956-5.229-15.032M85.6,20.976c-2.145,4.241-2.867,9.364-.7,13.289a3.262,3.262,0,0,0,2.23,1.781,3.055,3.055,0,0,0,3.319-1.461c1.47-2.4,1.035-6.957-.35-9.006a19.514,19.514,0,0,0-4.5-4.6" transform="translate(67.702 0)" fill="#0dba98"/>
            <path id="Trazado_873861" data-name="Trazado 873861" d="M98.88,195.344a1.6,1.6,0,0,1-1.595-1.595V170.534L89.107,154.78a1.594,1.594,0,0,1,2.83-1.47l8.359,16.1a1.6,1.6,0,0,1,.179.736v23.6a1.6,1.6,0,0,1-1.595,1.595" transform="translate(120.233 206.122)" fill="#70529e"/>
            <path id="Trazado_873862" data-name="Trazado 873862" d="M23.462,119.767a45.8,45.8,0,0,0-18.29,3.787c9.716,26.018,27.961,47.831,60.613,55.767.489.118.981.23,1.47.339a45.976,45.976,0,0,0-43.793-59.893" transform="translate(6.993 161.932)" fill="#0dba98"/>
            <path id="Trazado_873863" data-name="Trazado 873863" d="M219.072,123.66A45.975,45.975,0,0,0,156.73,179.61q.907-.2,1.813-.416c32.557-7.912,50.788-29.619,60.528-55.534" transform="translate(209.015 161.932)" fill="#0dba98"/>
            <path id="Trazado_873864" data-name="Trazado 873864" d="M133.415,146.873a20.121,20.121,0,1,0,40.241,0c0-7.995-6.228-13.534-6.228-13.534-2.853-2.536-2.063-4.61,1.755-4.61h35.311a6.959,6.959,0,0,1,6.941,6.939v100.9a6.961,6.961,0,0,1-6.941,6.939H103.6a6.961,6.961,0,0,1-6.941-6.939v-100.9a6.959,6.959,0,0,1,6.941-6.939h34.293c3.817,0,4.608,2.074,1.755,4.61,0,0-6.228,5.539-6.228,13.534" transform="translate(130.683 174.049)" fill="#ffb14c"/>
            <path id="Trazado_873865" data-name="Trazado 873865" d="M244.961,146.873a20.121,20.121,0,1,1-40.241,0c0-7.995,6.228-13.534,6.228-13.534,2.853-2.536,2.063-4.61-1.755-4.61h-34.8a6.959,6.959,0,0,0-6.939,6.939v34.8c0,3.817-2.075,4.608-4.612,1.755,0,0-5.539-6.228-13.534-6.228a20.121,20.121,0,0,0,0,40.241c7.995,0,13.534-6.228,13.534-6.228,2.538-2.853,4.612-2.063,4.612,1.752v34.806a6.96,6.96,0,0,0,6.939,6.939h100.9a6.959,6.959,0,0,0,6.939-6.939v-100.9a6.957,6.957,0,0,0-6.939-6.939h-34.8c-3.817,0-4.608,2.074-1.755,4.61,0,0,6.228,5.539,6.228,13.534" transform="translate(174.667 174.049)" fill="#315884"/>
            <path id="Trazado_873866" data-name="Trazado 873866" d="M209.417,175.985A16.386,16.386,0,1,1,193.033,159.6a16.385,16.385,0,0,1,16.384,16.384" transform="translate(238.836 215.79)" fill="#fffeeb"/>
            <g id="Grupo_1099843" data-name="Grupo 1099843" transform="translate(227.34 302.777)" opacity="0.5" style="mix-blend-mode: soft-light;isolation: isolate">
              <g id="Grupo_1099842" data-name="Grupo 1099842">
                <g id="Grupo_1099841" data-name="Grupo 1099841" clip-path="url(#clip-path-8)">
                  <g id="Grupo_1099840" data-name="Grupo 1099840" transform="translate(0.001 0.001)">
                    <g id="Grupo_1099839" data-name="Grupo 1099839" clip-path="url(#clip-path-9)">
                      <rect id="Rectángulo_401053" data-name="Rectángulo 401053" width="229.556" height="114.778" transform="translate(0)" fill="url(#linear-gradient-2)"/>
                    </g>
                  </g>
                </g>
              </g>
            </g>
            <path id="Trazado_873868" data-name="Trazado 873868" d="M83.957,64.2c3.77-1.395,14.6-1.442,18.908,6.351l5.151,1.59a2.936,2.936,0,0,0,3.655-1.856L117.034,54.6l8.754,4.253-6.306,23.088A14.692,14.692,0,0,1,101.7,91.984L85.1,87.668c-6.271-1.63-10.18-6.654-6.374-14.413Z" transform="translate(104.407 73.82)" fill="#28121f"/>
            <path id="Trazado_873869" data-name="Trazado 873869" d="M92.926,56.319A1.777,1.777,0,0,0,91.7,55.235a1.806,1.806,0,0,0-1.6.336c.024-.021-2.173-2.333-2.173-2.333a5,5,0,0,1,8.051,2.147l-3.06.9Z" transform="translate(118.881 70.283)" fill="#28121f"/>
            <path id="Trazado_873870" data-name="Trazado 873870" d="M66.956,50.584c-8.853-29.641-13.75-30.205-19.118-28.7-3.86,1.084-4.427,4.709-2.543,13.089-3.577-12.146-7.625-17.335-13.181-15.82-7.251,1.978-4.8,8.38-1.884,20.62-3.211-7.557-7.8-16.008-13-14.592-8.284,2.258-4.714,12.123.567,33.8-1.388-5.692-5.464-15.065-13.748-11.459-8.028,3.5-2.15,16.7.753,25.4,3.246,9.728,7.416,33.656,7.416,33.656H71.065l2.1-29.356s-3.147-16.4-6.2-26.635" transform="translate(0 25.55)" fill="#ffa194"/>
            <path id="Trazado_873871" data-name="Trazado 873871" d="M107.737,34.7a13.259,13.259,0,0,0-9.547,3.721c-2.536,2.853-4.612,2.063-4.612-1.752V12.554a6.959,6.959,0,0,0-6.939-6.941H62.528c-3.817,0-4.605,2.075-1.752,4.612A13.259,13.259,0,0,1,64.5,19.772a15.7,15.7,0,1,1-31.4,0,13.259,13.259,0,0,1,3.721-9.547c2.853-2.538,2.063-4.612-1.752-4.612H10.95a6.959,6.959,0,0,0-6.939,6.941V88.241a6.959,6.959,0,0,0,6.939,6.941H86.639a6.959,6.959,0,0,0,6.939-6.941V64.132c0-3.817,2.077-4.608,4.612-1.755a13.259,13.259,0,0,0,9.547,3.721,15.7,15.7,0,1,0,0-31.4" transform="translate(5.423 7.589)" fill="#70529e"/>
            <g id="Grupo_1099848" data-name="Grupo 1099848" transform="translate(9.433 13.202)" opacity="0.5" style="mix-blend-mode: soft-light;isolation: isolate">
              <g id="Grupo_1099847" data-name="Grupo 1099847">
                <g id="Grupo_1099846" data-name="Grupo 1099846" clip-path="url(#clip-path-10)">
                  <g id="Grupo_1099845" data-name="Grupo 1099845" transform="translate(0.001 0)">
                    <g id="Grupo_1099844" data-name="Grupo 1099844" clip-path="url(#clip-path-11)">
                      <rect id="Rectángulo_401055" data-name="Rectángulo 401055" width="119.426" height="89.566" transform="translate(0 0)" fill="url(#linear-gradient-3)"/>
                    </g>
                  </g>
                </g>
              </g>
            </g>
            <path id="Trazado_873873" data-name="Trazado 873873" d="M9.929,76.679S14.007,56.12,40.268,54.913a87.3,87.3,0,0,1,9.594-16.166c7.722-10.45,14.124-11.582,19.362-8,4.556,3.112,1.722,15.538-8.267,31.548-2.58,4.135-3.218,11.6-3.218,11.6Z" transform="translate(13.425 39.082)" fill="#ffa194"/>
            <path id="Trazado_873874" data-name="Trazado 873874" d="M11.078,65.135A1.638,1.638,0,0,1,9.5,63.312c1.367-9.467,7.256-16.631,17.038-20.717a45.108,45.108,0,0,1,14.282-3.309,1.6,1.6,0,1,1,.113,3.189,42.556,42.556,0,0,0-13.249,3.1c-8.759,3.688-13.816,9.81-15.027,18.2a1.6,1.6,0,0,1-1.576,1.367" transform="translate(12.819 53.115)" fill="#db5349"/>
            <path id="Trazado_873875" data-name="Trazado 873875" d="M23.337,46.282,7.294,46.151a1.6,1.6,0,0,1,.014-3.192l16.041.134a1.595,1.595,0,0,1-.012,3.189" transform="translate(7.724 58.083)" fill="#db5349"/>
            <path id="Trazado_873876" data-name="Trazado 873876" d="M156.439,83.96a1.588,1.588,0,0,1-1.129-.468L128.988,57.17a1.595,1.595,0,0,1,2.256-2.256l26.324,26.324a1.595,1.595,0,0,1-1.129,2.721" transform="translate(173.767 73.616)" fill="#315884"/>
            <path id="Trazado_873877" data-name="Trazado 873877" d="M130.114,83.96a1.595,1.595,0,0,1-1.127-2.721L155.31,54.915a1.595,1.595,0,0,1,2.256,2.256L131.243,83.492a1.588,1.588,0,0,1-1.129.468" transform="translate(173.767 73.616)" fill="#315884"/>
            <path id="Trazado_873878" data-name="Trazado 873878" d="M96.2,115.1a6.767,6.767,0,1,1-6.767-6.767A6.766,6.766,0,0,1,96.2,115.1" transform="translate(111.765 146.478)" fill="#fffeeb"/>
            <path id="Trazado_873879" data-name="Trazado 873879" d="M96.2,135.623a6.767,6.767,0,1,1-6.767-6.767,6.767,6.767,0,0,1,6.767,6.767" transform="translate(111.765 174.221)" fill="#fffeeb"/>
            <path id="Trazado_873880" data-name="Trazado 873880" d="M36.6,66.434a6.767,6.767,0,1,1-6.767-6.767A6.767,6.767,0,0,1,36.6,66.434" transform="translate(31.188 80.673)" fill="#fffeeb"/>
            <path id="Trazado_873881" data-name="Trazado 873881" d="M173.351,66.434a6.766,6.766,0,1,1-6.767-6.767,6.767,6.767,0,0,1,6.767,6.767" transform="translate(216.086 80.673)" fill="#fffeeb"/>
            <path id="Trazado_873882" data-name="Trazado 873882" d="M82.367,59.443,91.958,61.4a1.2,1.2,0,0,1,.753,1.853,6.4,6.4,0,0,1-6.447,2.721,5.761,5.761,0,0,1-5.323-5.158,1.2,1.2,0,0,1,1.425-1.376" transform="translate(109.413 80.337)" fill="#fffeeb"/>
            <path id="Trazado_873883" data-name="Trazado 873883" d="M85.064,55.3a1.6,1.6,0,1,1-1.6-1.6,1.6,1.6,0,0,1,1.6,1.6" transform="translate(110.68 72.603)" fill="#28121f"/>
            <path id="Trazado_873884" data-name="Trazado 873884" d="M91.6,56.658a1.6,1.6,0,1,1-1.6-1.6,1.6,1.6,0,0,1,1.6,1.6" transform="translate(119.518 74.439)" fill="#28121f"/>
            <path id="Trazado_873885" data-name="Trazado 873885" d="M85.917,69.078a1.6,1.6,0,0,1-1.395-.821l-2.989-5.365a2.391,2.391,0,0,1,2.093-3.554l3.643,0a8.815,8.815,0,0,0-.814-5.506,1.595,1.595,0,1,1,2.9-1.322c2.425,5.327.55,9.011.468,9.166a1.594,1.594,0,0,1-1.411.854l-3.432,0,2.326,4.177a1.6,1.6,0,0,1-1.392,2.371" transform="translate(109.824 69.738)" fill="#db5349"/>
            <path id="Trazado_873886" data-name="Trazado 873886" d="M86.294,54.954a1.819,1.819,0,0,0-2.827-.746c.023-.021-2.173-2.336-2.173-2.336a5,5,0,0,1,8.051,2.147l-3.06.9Z" transform="translate(109.914 68.44)" fill="#28121f"/>
            <path id="Trazado_873887" data-name="Trazado 873887" d="M97.17,62.415a4.727,4.727,0,1,1-3.761-5.527,4.724,4.724,0,0,1,3.761,5.527" transform="translate(118.708 76.801)" fill="#f4756e"/>
            <path id="Trazado_873888" data-name="Trazado 873888" d="M114.134,60.442a1.508,1.508,0,0,1-.419-.056c-1.955-.529-4.434-1.465-5.153-2.9-.247-.5-.906-1.813,2.023-7.682a1.6,1.6,0,0,1,2.855,1.423,23.974,23.974,0,0,0-1.91,4.871,12.5,12.5,0,0,0,3.022,1.211,1.6,1.6,0,0,1-.419,3.135" transform="translate(146.457 66.141)" fill="#28121f"/>
            <path id="Trazado_873889" data-name="Trazado 873889" d="M86.85,49.84a1.591,1.591,0,0,1-1.576-1.367c-.026-.181-.607-4.483,1.99-7.649a9.223,9.223,0,0,1,6.967-3.156,1.595,1.595,0,1,1,.176,3.185,6.209,6.209,0,0,0-4.662,1.978,7.58,7.58,0,0,0-1.312,5.2,1.6,1.6,0,0,1-1.362,1.8,1.771,1.771,0,0,1-.221.014" transform="translate(115.197 50.927)" fill="#70529e"/>
            <path id="Trazado_873890" data-name="Trazado 873890" d="M103.5,50.533a1.6,1.6,0,0,1-1.51-1.08A5.893,5.893,0,0,0,98.949,45.7c-2.512-1.108-5.544.183-5.572.2a1.6,1.6,0,0,1-1.289-2.919c.174-.078,4.311-1.875,8.122-.209A8.919,8.919,0,0,1,105,48.421a1.6,1.6,0,0,1-1.508,2.112" transform="translate(123.229 56.869)" fill="#70529e"/>
            <path id="Trazado_873891" data-name="Trazado 873891" d="M64.956,58.685H6.113a1.595,1.595,0,0,1,0-3.189H64.956a1.595,1.595,0,0,1,0,3.189" transform="translate(6.109 75.034)" fill="#1c5482"/>
            <path id="Trazado_873892" data-name="Trazado 873892" d="M157.923,58.757a1.595,1.595,0,0,1,0-3.189l58.823-.125a1.595,1.595,0,1,1,0,3.189l-58.82.125Z" transform="translate(211.369 74.962)" fill="#1c5482"/>
          </g>
        </g>
      </g>
    </g>
    <path id="Trazado_873664" data-name="Trazado 873664" d="M477.312,62.491a1.052,1.052,0,0,0-.857-1.181c-1.847-.636-3.687-1.3-5.492-2.037a2.178,2.178,0,0,1-1.031-1.079c-.756-1.753-1.443-3.538-2.105-5.338a1.754,1.754,0,0,1,0-1.189c.893-1.982,1.87-3.925,2.758-5.909a1.251,1.251,0,0,0-.147-1.1c-1.488-1.59-3.053-3.1-4.559-4.671a.9.9,0,0,0-1.238-.2q-2.823,1.4-5.69,2.7a1.909,1.909,0,0,1-1.3.06q-2.75-.988-5.44-2.129a2.019,2.019,0,0,1-1.028-.948c-.744-1.835-1.413-3.719-2.055-5.6-.207-.6-.45-.9-1.154-.879-2.1.053-4.207.048-6.311,0a1.05,1.05,0,0,0-1.168.866c-.634,1.845-1.348,3.67-1.979,5.505a1.622,1.622,0,0,1-1.178,1.126c-1.735.6-3.452,1.283-5.12,2.049a1.64,1.64,0,0,1-1.627-.013c-1.835-.928-3.723-1.783-5.567-2.706a.968.968,0,0,0-1.336.232c-1.453,1.518-2.936,3.013-4.464,4.461a1.02,1.02,0,0,0-.2,1.428v0c.917,1.85,1.813,3.71,2.639,5.6a1.906,1.906,0,0,1-.035,1.368q-1.149,2.685-2.459,5.3a2.248,2.248,0,0,1-1.064,1.053c-1.96.746-3.952,1.411-5.949,2.062a1.033,1.033,0,0,0-.876,1.168c.048,2.1.04,4.207,0,6.311a.956.956,0,0,0,.784,1.1c2.034.656,4.062,1.335,6.059,2.092a2.215,2.215,0,0,1,1.038,1.084c.806,1.693,1.471,3.453,2.314,5.125a1.808,1.808,0,0,1,.038,1.835c-.871,1.747-1.668,3.532-2.532,5.282a1.031,1.031,0,0,0,.224,1.428q2.287,2.17,4.462,4.463a1.018,1.018,0,0,0,1.423.205c1.815-.9,3.67-1.733,5.477-2.634a1.615,1.615,0,0,1,1.628.042c1.743.861,3.563,1.573,5.325,2.406a1.9,1.9,0,0,1,.9.939c.749,2,1.44,4.022,2.109,6.051a.977.977,0,0,0,1.108.794c2.1-.035,4.207-.042,6.311,0a1.011,1.011,0,0,0,1.153-.846v-.015c.641-2,1.328-3.984,2.075-5.946a2.05,2.05,0,0,1,1-1q2.7-1.251,5.463-2.371a1.827,1.827,0,0,1,1.286-.025c2.147.954,4.266,1.982,6.473,3.023,1.728-1.752,3.455-3.467,5.123-5.238a1.26,1.26,0,0,0,.1-1.118c-.856-1.917-1.805-3.794-2.669-5.705a1.817,1.817,0,0,1-.085-1.213c.651-1.873,1.335-3.735,2.094-5.57a2,2,0,0,1,.984-1c1.837-.744,3.718-1.42,5.6-2.072a.984.984,0,0,0,.776-1.119c-.038-2.1-.043-4.207,0-6.309M444.8,77.934a12.273,12.273,0,1,1,.08,0h-.08" transform="translate(-208.92 2100.101)" fill="#3656b3"/>
    <path id="Trazado_873674" data-name="Trazado 873674" d="M115.43,181.21a.773.773,0,0,0-.631-.867c-1.353-.468-2.706-.952-4.036-1.5a1.611,1.611,0,0,1-.759-.793c-.556-1.289-1.062-2.6-1.546-3.92a1.274,1.274,0,0,1,0-.874c.654-1.456,1.375-2.885,2.029-4.344a.913.913,0,0,0-.108-.81c-1.094-1.168-2.244-2.283-3.352-3.438a.66.66,0,0,0-.91-.147c-1.383.687-2.775,1.353-4.184,1.985a1.392,1.392,0,0,1-.954.044q-2.022-.728-4-1.566a1.485,1.485,0,0,1-.754-.7c-.546-1.353-1.038-2.734-1.512-4.116-.152-.445-.338-.66-.845-.646-1.546.039-3.093.035-4.64,0a.773.773,0,0,0-.862.636c-.465,1.353-.991,2.692-1.453,4.058a1.2,1.2,0,0,1-.866.829c-1.277.443-2.536.944-3.766,1.507a1.206,1.206,0,0,1-1.2-.01c-1.353-.676-2.736-1.311-4.092-1.989a.708.708,0,0,0-.979.169c-1.07,1.116-2.161,2.215-3.282,3.279a.75.75,0,0,0-.145,1.05l0,0c.676,1.353,1.332,2.728,1.94,4.116a1.4,1.4,0,0,1-.025,1.015q-.845,1.973-1.809,3.9a1.646,1.646,0,0,1-.781.775c-1.441.548-2.907,1.038-4.375,1.522a.761.761,0,0,0-.644.854c.036,1.546.03,3.093,0,4.64a.7.7,0,0,0,.577.808c1.495.482,2.986.979,4.454,1.539a1.639,1.639,0,0,1,.763.8c.592,1.245,1.081,2.537,1.7,3.768a1.336,1.336,0,0,1,.029,1.353c-.641,1.283-1.226,2.6-1.86,3.889a.76.76,0,0,0,.169,1.05q1.679,1.6,3.281,3.281a.747.747,0,0,0,1.045.15c1.334-.661,2.694-1.273,4.028-1.936a1.186,1.186,0,0,1,1.2.03c1.282.634,2.619,1.157,3.915,1.769a1.4,1.4,0,0,1,.659.69c.55,1.471,1.059,2.958,1.551,4.449a.721.721,0,0,0,.815.583c1.546-.025,3.095-.03,4.64,0a.744.744,0,0,0,.844-.627l0-.007c.472-1.469.976-2.929,1.522-4.371a1.528,1.528,0,0,1,.731-.736c1.322-.619,2.663-1.2,4.016-1.743a1.348,1.348,0,0,1,.945-.019c1.579.7,3.135,1.458,4.76,2.222,1.27-1.289,2.536-2.548,3.766-3.85a.922.922,0,0,0,.073-.822c-.629-1.41-1.326-2.788-1.962-4.2a1.325,1.325,0,0,1-.063-.891c.479-1.378.988-2.746,1.54-4.1a1.47,1.47,0,0,1,.724-.737c1.353-.548,2.731-1.043,4.113-1.522a.722.722,0,0,0,.568-.822c-.027-1.546-.03-3.093,0-4.638m-23.9,11.326a9.022,9.022,0,1,1,.059,0h-.059" transform="translate(161.56 1924.982)" fill="#29c7cc"/>
    <g id="Grupo_1100172" data-name="Grupo 1100172" transform="translate(495 1872.494)">
      <g id="Grupo_1100167" data-name="Grupo 1100167" transform="translate(0 0.001)">
        <g id="Grupo_1100166" data-name="Grupo 1100166" transform="translate(0 0)">
          <path id="Trazado_874414" data-name="Trazado 874414" d="M65.067,59.918c-.02-.021-.026-.05-.047-.071L44.143,38.97V25.852a3.656,3.656,0,0,0-1.072-2.587L21.122,1.073a3.658,3.658,0,0,0-6.245,2.587V14.634H3.659a3.658,3.658,0,0,0-2.586,6.244L23.266,43.071a3.655,3.655,0,0,0,2.586,1.072H38.97L59.847,65.02c.021.021.05.027.071.047a3.642,3.642,0,0,0,5.149-5.149Z" transform="translate(0 -0.001)" fill="#3656b3"/>
        </g>
      </g>
      <g id="Grupo_1100169" data-name="Grupo 1100169" transform="translate(0.001 0.002)">
        <g id="Grupo_1100168" data-name="Grupo 1100168">
          <path id="Trazado_874415" data-name="Trazado 874415" d="M62.435,0a61.885,61.885,0,0,0-26.18,6.1L47.477,17.325A47.674,47.674,0,1,1,17.326,47.476L6.1,36.254A61.894,61.894,0,0,0,0,62.434,62.432,62.432,0,1,0,62.435,0Z" transform="translate(-0.003 -0.002)" fill="#3656b3"/>
        </g>
      </g>
      <g id="Grupo_1100171" data-name="Grupo 1100171" transform="translate(29.51 29.511)">
        <g id="Grupo_1100170" data-name="Grupo 1100170">
          <path id="Trazado_874416" data-name="Trazado 874416" d="M153.925,121a32.537,32.537,0,0,0-10.975,2.022v4.408l8.457,8.457a18.005,18.005,0,0,1,2.518-.255,18.291,18.291,0,1,1-18.291,18.291,18,18,0,0,1,.255-2.518l-8.457-8.457h-4.408A32.537,32.537,0,0,0,121,153.924,32.923,32.923,0,1,0,153.925,121Z" transform="translate(-121.002 -121.001)" fill="#3656b3"/>
        </g>
      </g>
    </g>
  </g>
</svg>
