<svg xmlns="http://www.w3.org/2000/svg" xmlns:xlink="http://www.w3.org/1999/xlink" width="400" height="674.649" viewBox="0 0 400 674.649">
  <defs>
    <clipPath id="clip-path">
      <rect id="Rectángulo_401059" data-name="Rectángulo 401059" width="242.603" height="243.017" fill="none"/>
    </clipPath>
    <clipPath id="clip-path-2">
      <rect id="Rectángulo_401060" data-name="Rectángulo 401060" width="213.51" height="327.597" fill="none"/>
    </clipPath>
    <clipPath id="clip-path-3">
      <path id="Trazado_874701" data-name="Trazado 874701" d="M0,0H213.51V327.6H0Z" fill="none"/>
    </clipPath>
  </defs>
  <g id="img2_1" transform="translate(-4964 10766.707)">
    <g id="Grupo_1099628" data-name="Grupo 1099628">
      <g id="Grupo_1075312" data-name="Grupo 1075312" transform="translate(4964 -10766.707)">
        <rect id="Rectángulo_378860" data-name="Rectángulo 378860" width="400" height="674.649" fill="#f3f9ff"/>
        <g id="Grupo_1099855" data-name="Grupo 1099855" transform="translate(78.699 18.707)">
          <g id="Grupo_1099854" data-name="Grupo 1099854">
            <g id="Grupo_1099853" data-name="Grupo 1099853" clip-path="url(#clip-path)">
              <path id="Trazado_873893" data-name="Trazado 873893" d="M173.49,102.6l-28.97,37.152a3.783,3.783,0,0,1-5.967,0l-22.1-28.345-6.866-8.806a3.781,3.781,0,0,1,2.983-6.107h1.883l-.528-1.286A66.357,66.357,0,0,0,70.285,56.431L98.236,46.288a5.776,5.776,0,0,0,.6-.258,5.9,5.9,0,0,0,.558-.315c.091-.059.176-.12.26-.183a5.6,5.6,0,0,0,.72-.625,5.694,5.694,0,0,0,1.307-2.183,5.611,5.611,0,0,0-.692-4.9L76.7,1.888c46.891,9.534,84.612,47.066,94.241,94.053l.112.55.54.156a3.78,3.78,0,0,1,2.516,2.481,3.719,3.719,0,0,1-.621,3.474" transform="translate(68.306 1.835)" fill="#315884"/>
              <path id="Trazado_873894" data-name="Trazado 873894" d="M84.764,24.43a4.847,4.847,0,0,0,.558-.317,5.511,5.511,0,0,1-.558.317m0,0a4.847,4.847,0,0,0,.558-.317,5.511,5.511,0,0,1-.558.317m0,0a4.847,4.847,0,0,0,.558-.317,5.511,5.511,0,0,1-.558.317m0,0a4.847,4.847,0,0,0,.558-.317,5.511,5.511,0,0,1-.558.317m0,0a4.847,4.847,0,0,0,.558-.317,5.511,5.511,0,0,1-.558.317m0,0a4.847,4.847,0,0,0,.558-.317,5.511,5.511,0,0,1-.558.317m0,0a4.847,4.847,0,0,0,.558-.317,5.511,5.511,0,0,1-.558.317m0,0a4.847,4.847,0,0,0,.558-.317,5.511,5.511,0,0,1-.558.317" transform="translate(82.378 23.434)" fill="#fff"/>
              <path id="Trazado_873895" data-name="Trazado 873895" d="M178.472,68.661a121.206,121.206,0,0,1-61.078,105.058l-.487.28.02.558a3.77,3.77,0,0,1-1.579,3.165,3.718,3.718,0,0,1-3.327.54l-.16-.055-44.3-16.076a3.783,3.783,0,0,1-1.846-5.675l20.119-29.763,6.261-9.266a3.781,3.781,0,0,1,6.728.947l.578,1.781,1.061-.9a66.228,66.228,0,0,0,23.449-50.592c0-.96-.022-1.928-.063-2.9l18.3,23.467a5.639,5.639,0,0,0,8.9,0l26.659-34.18a122.527,122.527,0,0,1,.759,13.61" transform="translate(63.237 53.501)" fill="#8ce2e5"/>
              <path id="Trazado_873896" data-name="Trazado 873896" d="M154.468,154.875a119.745,119.745,0,0,1-50.089,10.835,120.526,120.526,0,0,1-81.42-31.544l-.418-.379-.528.193a3.782,3.782,0,0,1-3.508-.515,3.726,3.726,0,0,1-1.552-3.046L18.558,83.2a3.783,3.783,0,0,1,4.825-3.508l34.561,9.942,0,0,10.709,3.08a3.782,3.782,0,0,1,1.181,6.694l-1.516,1.1,1.177.73a66.431,66.431,0,0,0,58.087,5.732l-16.648,24.632a5.644,5.644,0,0,0,2.755,8.467Z" transform="translate(16.476 77.304)" fill="#59c4c8"/>
              <path id="Trazado_873897" data-name="Trazado 873897" d="M68.975,137.688l-28.6-8.227a5.651,5.651,0,0,0-7.207,5.233L31.7,178A120.97,120.97,0,0,1,10.735,46.549l.231-.511-.341-.444a3.759,3.759,0,0,1-.57-3.484A3.7,3.7,0,0,1,12.6,39.671l45.274-13.03A3.785,3.785,0,0,1,62.7,30.149l1.221,35.919L64.3,77.233a3.785,3.785,0,0,1-6.006,3.187l-1.52-1.1-.327,1.349a66.424,66.424,0,0,0,12.531,57.022" transform="translate(0 25.747)" fill="#2a5f61"/>
              <path id="Trazado_873898" data-name="Trazado 873898" d="M54.775,89.562,20.214,79.62l34.565,9.946Zm0,0L20.214,79.62l34.565,9.946Zm0,0L20.214,79.62l34.565,9.946Z" transform="translate(19.645 77.379)" fill="#fff"/>
              <path id="Trazado_873899" data-name="Trazado 873899" d="M160.487,43.985a3.753,3.753,0,0,1-2.309,2.388L124.4,58.634l-10.5,3.81a3.78,3.78,0,0,1-4.884-4.725l.574-1.773-1.382.1A66.345,66.345,0,0,0,57.841,85.569L56.829,55.834A5.608,5.608,0,0,0,54.5,51.458c-.059-.045-.122-.089-.185-.13-.126-.081-.254-.16-.385-.235a5.532,5.532,0,0,0-.6-.29c-.138-.057-.272-.108-.412-.154a5.606,5.606,0,0,0-3.3-.047L7.951,62.593A120.857,120.857,0,0,1,113.127,1.306a123.81,123.81,0,0,1,13.389.734l.558.063.316-.465a3.728,3.728,0,0,1,1.349-1.2A3.852,3.852,0,0,1,130.525,0a3.711,3.711,0,0,1,3.117,1.668L160.026,40.7a3.755,3.755,0,0,1,.461,3.285" transform="translate(7.727 -0.001)" fill="#fe9b4f"/>
            </g>
          </g>
          <path id="Trazado_874705" data-name="Trazado 874705" d="M8.367-2.637H3.744L2.865,0H.062L4.825-12.8H7.269L12.059,0h-2.8ZM4.456-4.772h3.2L6.047-9.562Z" transform="translate(91.448 40.054)" fill="#12263f"/>
          <path id="Trazado_874706" data-name="Trazado 874706" d="M1.143,0V-12.8H5.625a5.886,5.886,0,0,1,3.533.892,3.05,3.05,0,0,1,1.2,2.615,2.891,2.891,0,0,1-.483,1.657,2.792,2.792,0,0,1-1.345,1.05,2.7,2.7,0,0,1,1.551.993,2.936,2.936,0,0,1,.567,1.828A3.377,3.377,0,0,1,9.475-.967,5.3,5.3,0,0,1,6.117,0ZM3.779-5.572v3.454H6.038a2.18,2.18,0,0,0,1.455-.444,1.522,1.522,0,0,0,.523-1.226A1.607,1.607,0,0,0,6.2-5.572Zm0-1.863H5.73q2-.035,2-1.591a1.47,1.47,0,0,0-.505-1.252,2.658,2.658,0,0,0-1.6-.382H3.779Z" transform="translate(196.898 79.055)" fill="#fff"/>
          <path id="Trazado_874702" data-name="Trazado 874702" d="M11.188-4.263A4.528,4.528,0,0,1,9.664-1.011,5.355,5.355,0,0,1,6.038.176,4.816,4.816,0,0,1,2.167-1.481,6.793,6.793,0,0,1,.756-6.029v-.782a7.671,7.671,0,0,1,.65-3.252,4.874,4.874,0,0,1,1.859-2.158,5.207,5.207,0,0,1,2.808-.751,5.217,5.217,0,0,1,3.568,1.187,4.866,4.866,0,0,1,1.564,3.331H8.569a2.673,2.673,0,0,0-.69-1.8,2.555,2.555,0,0,0-1.806-.558A2.24,2.24,0,0,0,4.1-9.866a5.3,5.3,0,0,0-.672,2.931v.967a5.667,5.667,0,0,0,.628,3.032,2.2,2.2,0,0,0,1.982.958,2.6,2.6,0,0,0,1.824-.558,2.521,2.521,0,0,0,.69-1.727Z" transform="translate(189.658 184.583)" fill="#12263f"/>
          <path id="Trazado_874703" data-name="Trazado 874703" d="M1.143,0V-12.8H5.08a5.98,5.98,0,0,1,3.019.76,5.3,5.3,0,0,1,2.079,2.162,6.669,6.669,0,0,1,.747,3.186V-6.1a6.688,6.688,0,0,1-.734,3.173A5.256,5.256,0,0,1,8.121-.773,6.025,6.025,0,0,1,5.106,0ZM3.779-10.661v8.543H5.054A2.863,2.863,0,0,0,7.418-3.129a4.567,4.567,0,0,0,.835-2.892V-6.7a4.64,4.64,0,0,0-.809-2.958A2.854,2.854,0,0,0,5.08-10.661Z" transform="translate(80.019 214.503)" fill="#12263f"/>
          <path id="Trazado_874704" data-name="Trazado 874704" d="M8.842-5.546H3.779v3.428H9.721V0H1.143V-12.8H9.7v2.136H3.779v3.05H8.842Z" transform="translate(24.791 126.552)" fill="#fff"/>
        </g>
      </g>
      <g id="Grupo_1100179" data-name="Grupo 1100179" transform="translate(5134.297 -10654.704)">
        <g id="Grupo_1100174" data-name="Grupo 1100174" transform="translate(0 0.001)">
          <g id="Grupo_1100173" data-name="Grupo 1100173" transform="translate(0 0)">
            <path id="Trazado_874417" data-name="Trazado 874417" d="M30.956,28.507c-.01-.01-.013-.024-.023-.034L21,18.541V12.3a1.739,1.739,0,0,0-.51-1.231L10.049.511A1.74,1.74,0,0,0,7.078,1.742V6.963H1.741A1.74,1.74,0,0,0,.51,9.934L11.069,20.492A1.739,1.739,0,0,0,12.3,21H18.54l9.932,9.932c.01.01.024.013.034.023a1.733,1.733,0,0,0,2.45-2.45Z" transform="translate(0 -0.001)" fill="#3656b3"/>
          </g>
        </g>
        <g id="Grupo_1100176" data-name="Grupo 1100176" transform="translate(0.001 0.002)">
          <g id="Grupo_1100175" data-name="Grupo 1100175">
            <path id="Trazado_874418" data-name="Trazado 874418" d="M29.706,0A29.442,29.442,0,0,0,17.25,2.9l5.339,5.339A22.681,22.681,0,1,1,8.245,22.588L2.906,17.249A29.446,29.446,0,0,0,0,29.7,29.7,29.7,0,1,0,29.706,0Z" transform="translate(-0.003 -0.002)" fill="#3656b3"/>
          </g>
        </g>
        <g id="Grupo_1100178" data-name="Grupo 1100178" transform="translate(14.04 14.041)">
          <g id="Grupo_1100177" data-name="Grupo 1100177">
            <path id="Trazado_874419" data-name="Trazado 874419" d="M136.666,121a15.48,15.48,0,0,0-5.221.962v2.1l4.023,4.023a8.566,8.566,0,0,1,1.2-.121,8.7,8.7,0,1,1-8.7,8.7,8.563,8.563,0,0,1,.121-1.2l-4.023-4.024h-2.1a15.48,15.48,0,0,0-.962,5.221A15.664,15.664,0,1,0,136.666,121Z" transform="translate(-121.002 -121.001)" fill="#3656b3"/>
          </g>
        </g>
      </g>
    </g>
    <rect id="Rectángulo_401062" data-name="Rectángulo 401062" width="306" height="371" rx="16" transform="translate(5011 -10488.383)" fill="#b9daff"/>
    <g id="Grupo_1099860" data-name="Grupo 1099860" transform="translate(5057 -10462)">
      <g id="Grupo_1099857" data-name="Grupo 1099857">
        <g id="Grupo_1099856" data-name="Grupo 1099856" clip-path="url(#clip-path-2)">
          <text id="A." transform="translate(0 15.399)" fill="#12263f" font-size="18" font-family="Roboto-Bold, Roboto" font-weight="700"><tspan x="0" y="0">A.</tspan></text>
          <text id="_Análisis_de_la_situación" data-name="  Análisis de la situación" transform="translate(18 15.399)" fill="#12263f" font-size="18" font-family="Roboto-Bold, Roboto" font-weight="700"><tspan x="0" y="0"> </tspan><tspan y="0" letter-spacing="0.016em"> </tspan><tspan y="0" letter-spacing="-0.023em">A</tspan><tspan y="0">nálisis de la situación</tspan></text>
          <text id="B._Objetivos" data-name="B.  Objetivos" transform="translate(0 81.423)" fill="#12263f" font-size="18" font-family="Roboto-Bold, Roboto" font-weight="700"><tspan x="0" y="0">B. </tspan><tspan y="0" letter-spacing="0.087em"> </tspan><tspan y="0">Objeti</tspan><tspan y="0" letter-spacing="-0.007em">v</tspan><tspan y="0">os</tspan></text>
          <text id="C._Accionesde_" data-name="C.  Accionesde " transform="translate(0 147.447)" fill="#12263f" font-size="18" font-family="Roboto-Bold, Roboto" font-weight="700"><tspan x="0" y="0">C. </tspan><tspan y="0" letter-spacing="0.071em"> </tspan><tspan y="0">Accionesde </tspan></text>
        </g>
      </g>
      <text id="marketing" transform="translate(126.525 147.459)" fill="#12263f" font-size="18" font-family="Roboto-BoldItalic, Roboto" font-weight="700" font-style="italic"><tspan x="0" y="0">mar</tspan><tspan y="0" letter-spacing="-0.01em">k</tspan><tspan y="0">eting</tspan></text>
      <g id="Grupo_1099859" data-name="Grupo 1099859">
        <g id="Enmascarar_grupo_1073828" data-name="Enmascarar grupo 1073828" clip-path="url(#clip-path-3)">
          <text id="_tradicional" data-name=" tradicional" transform="translate(0 169.059)" fill="#12263f" font-size="18" font-family="Roboto-Bold, Roboto" font-weight="700"><tspan x="0" y="0" letter-spacing="1.265em"> </tspan><tspan y="0">t</tspan><tspan y="0" letter-spacing="-0.014em">r</tspan><tspan y="0">adicional</tspan></text>
          <text id="D._Acciones_de_marketing" data-name="D.  Acciones de marketing" transform="translate(0 235.083)" fill="#12263f" font-size="18" font-family="Roboto-Bold, Roboto" font-weight="700"><tspan x="0" y="0" letter-spacing="-0.059em">D</tspan><tspan y="0">. </tspan><tspan y="0" letter-spacing="0.135em"> </tspan><tspan y="0">Acciones de </tspan><tspan y="0" font-family="Roboto-BoldItalic, Roboto" font-style="italic">mar</tspan><tspan y="0" font-family="Roboto-BoldItalic, Roboto" font-style="italic" letter-spacing="-0.008em">k</tspan><tspan y="0" font-family="Roboto-BoldItalic, Roboto" font-style="italic">eting</tspan></text>
          <text id="_digital" data-name=" digital" transform="translate(0 256.683)" fill="#12263f" font-size="18" font-family="Roboto-Bold, Roboto" font-weight="700"><tspan x="0" y="0" letter-spacing="1.265em"> </tspan><tspan y="0">digital</tspan></text>
          <text id="E._Seguimiento_y_control" data-name="E.  Seguimiento y control" transform="translate(0 322.707)" fill="#12263f" font-size="18" font-family="Roboto-Bold, Roboto" font-weight="700"><tspan x="0" y="0">E. </tspan><tspan y="0" letter-spacing="0.162em"> </tspan><tspan y="0">Seguimien</tspan><tspan y="0" letter-spacing="-0.016em">t</tspan><tspan y="0">o y cont</tspan><tspan y="0" letter-spacing="-0.016em">r</tspan><tspan y="0">ol</tspan></text>
        </g>
      </g>
    </g>
  </g>
</svg>
