<svg xmlns="http://www.w3.org/2000/svg" width="70" height="70" viewBox="0 0 70 70">
  <g id="img8" transform="translate(-269 -958)">
    <path id="Trazado_874754" data-name="Trazado 874754" d="M35,0A35,35,0,1,1,0,35,35,35,0,0,1,35,0Z" transform="translate(269 958)" fill="#fff"/>
    <g id="Grupo_1099868" data-name="Grupo 1099868" transform="translate(285.032 965.415)">
      <g id="Layer_2_20_" transform="translate(0 9.307)">
        <g id="solid_20_" transform="translate(0 0)">
          <path id="Trazado_873903" data-name="Trazado 873903" d="M22.085,323.382h3.444a.984.984,0,0,1,.984.984v11.317a.984.984,0,0,1-.984.984H22.085a.984.984,0,0,1-.984-.984V324.366A.984.984,0,0,1,22.085,323.382Z" transform="translate(-19.538 -300.111)" fill="#315884"/>
          <path id="Trazado_873904" data-name="Trazado 873904" d="M380.689,230.411h3.444a.984.984,0,0,1,.984.984V249.6a.984.984,0,0,1-.984.984h-3.444a.984.984,0,0,1-.984-.984V231.4A.984.984,0,0,1,380.689,230.411Z" transform="translate(-351.571 -214.028)" fill="#315884"/>
          <path id="Trazado_873905" data-name="Trazado 873905" d="M141.62,263.615h3.444a.984.984,0,0,1,.984.984v15.746a.984.984,0,0,1-.984.984H141.62a.984.984,0,0,1-.984-.984V264.6A.984.984,0,0,1,141.62,263.615Z" transform="translate(-130.216 -244.772)" fill="#315884"/>
          <path id="Trazado_873906" data-name="Trazado 873906" d="M261.155,349.946H264.6a.984.984,0,0,1,.984.984v9.349a.984.984,0,0,1-.984.984h-3.444a.984.984,0,0,1-.984-.984V350.93A.984.984,0,0,1,261.155,349.946Z" transform="translate(-240.894 -324.706)" fill="#315884"/>
          <path id="Trazado_873907" data-name="Trazado 873907" d="M28.9,12.455l.356.356a.984.984,0,0,1,0,1.392h0l-7.227,7.229a.984.984,0,0,1-1.391,0L12.66,13.451a.984.984,0,0,0-1.392,0h0L.288,24.431a.984.984,0,0,0,0,1.391L2.645,28.18a.984.984,0,0,0,1.392,0h0l7.231-7.231a.984.984,0,0,1,1.392,0h0L20.64,28.93a.984.984,0,0,0,1.391,0L33.008,17.954a.984.984,0,0,1,1.391,0l.386.386a.984.984,0,0,0,1.661-.5l1.47-7.353a.984.984,0,0,0-1.158-1.158L29.406,10.8a.984.984,0,0,0-.5,1.659Z" transform="translate(0 -9.307)" fill="#315884"/>
        </g>
      </g>
    </g>
  </g>
</svg>
