<svg xmlns="http://www.w3.org/2000/svg" width="70" height="70" viewBox="0 0 70 70">
  <g id="img9" transform="translate(-269 -958)">
    <circle id="Elipse_5614" data-name="Elipse 5614" cx="35" cy="35" r="35" transform="translate(269 958)" fill="#fff"/>
    <g id="Grupo_1099869" data-name="Grupo 1099869" transform="translate(286.099 975.099)">
      <path id="Trazado_873908" data-name="Trazado 873908" d="M182.888,172.049A1.049,1.049,0,0,0,181.839,171h-9.79A1.049,1.049,0,0,0,171,172.049v9.79a1.049,1.049,0,0,0,1.049,1.049h9.79a1.049,1.049,0,0,0,1.049-1.049Z" transform="translate(-159.042 -159.042)" fill="#315884"/>
      <path id="Trazado_873909" data-name="Trazado 873909" d="M341.341,11.8a1.049,1.049,0,0,0,1.483,0l3.857-3.857,1.587,1.587a1.049,1.049,0,0,0,1.784-.626l.86-7.743A1.049,1.049,0,0,0,349.754.007l-7.743.86a1.049,1.049,0,0,0-.626,1.784l1.587,1.587L339.116,8.1a1.049,1.049,0,0,0,0,1.483Z" transform="translate(-315.116 0)" fill="#315884"/>
      <path id="Trazado_873910" data-name="Trazado 873910" d="M.867,8.908a1.049,1.049,0,0,0,1.784.626L4.238,7.947,8.1,11.8a1.049,1.049,0,0,0,1.483,0L11.8,9.579a1.049,1.049,0,0,0,0-1.483L7.947,4.238,9.534,2.651A1.049,1.049,0,0,0,8.908.867L1.165.007A1.049,1.049,0,0,0,.007,1.165Z" transform="translate(0 0)" fill="#315884"/>
      <path id="Trazado_873911" data-name="Trazado 873911" d="M350.052,342.012a1.049,1.049,0,0,0-1.784-.626l-1.587,1.587-3.857-3.857a1.049,1.049,0,0,0-1.483,0l-2.225,2.225a1.049,1.049,0,0,0,0,1.483l3.857,3.857-1.587,1.587a1.049,1.049,0,0,0,.626,1.784l7.743.86a1.049,1.049,0,0,0,1.158-1.158Z" transform="translate(-315.116 -315.116)" fill="#315884"/>
      <path id="Trazado_873912" data-name="Trazado 873912" d="M9.579,339.116a1.049,1.049,0,0,0-1.483,0l-3.857,3.857-1.587-1.587a1.049,1.049,0,0,0-1.784.626l-.86,7.743a1.049,1.049,0,0,0,1.158,1.158l7.743-.86a1.049,1.049,0,0,0,.626-1.784l-1.587-1.587,3.857-3.857a1.049,1.049,0,0,0,0-1.483Z" transform="translate(0 -315.116)" fill="#315884"/>
    </g>
  </g>
</svg>
