<svg id="Grupo_1100438" data-name="Grupo 1100438" xmlns="http://www.w3.org/2000/svg" xmlns:xlink="http://www.w3.org/1999/xlink" width="550" height="431" viewBox="0 0 550 431">
  <defs>
    <clipPath id="clip-path">
      <rect id="Rectángulo_401252" data-name="Rectángulo 401252" width="550" height="431" fill="none"/>
    </clipPath>
    <clipPath id="clip-path-3">
      <rect id="Rectángulo_401247" data-name="Rectángulo 401247" width="248.001" height="229.801" transform="translate(94.386 86.366)" fill="none"/>
    </clipPath>
    <clipPath id="clip-path-4">
      <path id="Trazado_874644" data-name="Trazado 874644" d="M338.977,118.534c-.144-.248-.292-.493-.443-.737-.176-.284-.356-.565-.543-.842q-.174-.257-.353-.509a25.859,25.859,0,0,0-2.359-2.859c-.284-.3-.576-.589-.873-.873s-.6-.561-.915-.831q-.934-.809-1.944-1.528-.758-.539-1.554-1.023-.531-.323-1.078-.619a25.589,25.589,0,0,0-7.9-2.737V94.43a8.064,8.064,0,1,0-16.127,0v11.175H258.22V94.43a8.063,8.063,0,1,0-16.127,0v11.175H195.58V94.43a8.063,8.063,0,1,0-16.126,0v11.175H132.786V94.43a8.063,8.063,0,1,0-16.127,0v11.409a25.573,25.573,0,0,0-5.969,1.552q-.292.116-.582.237-1.155.489-2.25,1.085-.546.3-1.078.619t-1.045.67a25.879,25.879,0,0,0-4.661,4.037q-.831.915-1.574,1.907a25.627,25.627,0,0,0-5.114,15.4V290.424a25.744,25.744,0,0,0,25.743,25.743H316.645a25.743,25.743,0,0,0,25.742-25.743V131.348a25.632,25.632,0,0,0-3.41-12.814" fill="none"/>
    </clipPath>
    <linearGradient id="linear-gradient" x1="-0.381" y1="1.5" x2="-0.377" y2="1.5" gradientUnits="objectBoundingBox">
      <stop offset="0" stop-color="#939598"/>
      <stop offset="1" stop-color="#231f20"/>
    </linearGradient>
    <clipPath id="clip-path-5">
      <path id="Trazado_874664" data-name="Trazado 874664" d="M350.461,201.254c1.2,10.607,5.937,31.054,24.691,32,16.988.855,29.941-18.8,36.647-31.889-6.072-2.483-12.014-2.807-20.558-2.7-3.6.044-7.215.015-10.761-.014-2.249-.019-4.47-.038-6.637-.038-9.474,0-17.933.359-23.382,2.643" fill="none"/>
    </clipPath>
    <clipPath id="clip-path-7">
      <rect id="Rectángulo_401250" data-name="Rectángulo 401250" width="55.773" height="75.408" transform="translate(343.149 217.462)" fill="none"/>
    </clipPath>
    <clipPath id="clip-path-8">
      <path id="Trazado_874669" data-name="Trazado 874669" d="M398.922,228.22a7.246,7.246,0,0,0-7.246-7.246h-6.46a3.342,3.342,0,0,0-3.292-3.512H360.148a3.3,3.3,0,0,0-3.3,3.3c.007.211-6.452.211-6.452.211a7.247,7.247,0,0,0-7.247,7.246v57.4a7.247,7.247,0,0,0,7.247,7.246h41.28a7.246,7.246,0,0,0,7.246-7.246Z" fill="none"/>
    </clipPath>
    <linearGradient id="linear-gradient-2" x1="-6.153" y1="2.832" x2="-6.135" y2="2.832" xlink:href="#linear-gradient"/>
    <clipPath id="clip-path-9">
      <rect id="Rectángulo_401253" data-name="Rectángulo 401253" width="425.198" height="121.458" transform="translate(0 0)" fill="none"/>
    </clipPath>
  </defs>
  <g id="Grupo_1100454" data-name="Grupo 1100454" clip-path="url(#clip-path)">
    <g id="Grupo_1100444" data-name="Grupo 1100444">
      <g id="Grupo_1100443" data-name="Grupo 1100443" clip-path="url(#clip-path)">
        <path id="Trazado_874611" data-name="Trazado 874611" d="M55.042,281.126H495.3a50.118,50.118,0,1,1,0,100.236H55.042a50.118,50.118,0,1,1,0-100.236" fill="#fff"/>
        <path id="Trazado_874612" data-name="Trazado 874612" d="M447.316,213.8a77.576,77.576,0,1,0-146.249-36.952c-18.672,8.479-50.225,35.438-55.381,75.951s20.482,95.833,78.875,98.358c103.877,4.489,153.138,4.489,162.573-49.955,4.1-23.659-5.211-76.827-39.818-87.4" fill="#cbf4e1"/>
        <path id="Trazado_874613" data-name="Trazado 874613" d="M520.774,122.517A55.775,55.775,0,1,1,465,66.739v55.776Z" fill="#a7fcff"/>
        <path id="Trazado_874614" data-name="Trazado 874614" d="M465,122.517V66.739a55.775,55.775,0,0,0-55.775,55.775h0Z" fill="#3656b3"/>
        <path id="Trazado_874615" data-name="Trazado 874615" d="M184.077,71.721a.461.461,0,0,1-.111-.013.469.469,0,0,1-.346-.566h0c.521-2.154,1.128-4.3,1.8-6.377a.47.47,0,0,1,.894.29c-.669,2.055-1.269,4.178-1.785,6.308a.47.47,0,0,1-.456.359M188.156,59.2a.471.471,0,0,1-.47-.47.482.482,0,0,1,.036-.18c.859-2.057,1.806-4.077,2.814-6.005a.47.47,0,0,1,.833.435c-1,1.9-1.931,3.9-2.78,5.932a.469.469,0,0,1-.433.289m93.864-5.827a5.94,5.94,0,0,1-3.649-1.461.47.47,0,1,1,.559-.756l.034.028c1.868,1.521,4.043,1.66,5.233.222a.47.47,0,0,1,.723.6,3.653,3.653,0,0,1-2.9,1.363m-87.753-5.838a.47.47,0,0,1-.4-.723h0c1.209-1.874,2.508-3.69,3.861-5.4a.47.47,0,1,1,.737.584c-1.335,1.682-2.616,3.472-3.807,5.321a.468.468,0,0,1-.4.215m81.328-1.156a.47.47,0,0,1-.465-.408,9.6,9.6,0,0,1-.081-1.268,10.5,10.5,0,0,1,.507-3.185c.232-.737.5-1.471.785-2.181a.469.469,0,0,1,.87.352c-.278.688-.533,1.4-.761,2.114a9.58,9.58,0,0,0-.462,2.9,8.564,8.564,0,0,0,.073,1.143.469.469,0,0,1-.4.527H275.6m10.15-.512a.471.471,0,0,1-.467-.418,14.794,14.794,0,0,0-2.158-5.956.47.47,0,0,1,.806-.484,15.751,15.751,0,0,1,2.286,6.336.47.47,0,0,1-.415.518h-.052m77.606-2.66a.47.47,0,0,1-.427-.275,18.336,18.336,0,0,0-2.3-3.642.469.469,0,0,1,.737-.581,19.061,19.061,0,0,1,2.422,3.834.468.468,0,0,1-.427.664m-160.9-5.958a.47.47,0,0,1-.472-.466.475.475,0,0,1,.137-.334,60.471,60.471,0,0,1,4.889-4.484.471.471,0,1,1,.6.726,59.852,59.852,0,0,0-4.814,4.415.469.469,0,0,1-.335.141m154.019-2.571a.469.469,0,0,1-.322-.128c-1.328-1.252-2.708-2.463-3.926-3.532l-.972-.855a.47.47,0,1,1,.561-.754.445.445,0,0,1,.061.054l.97.853c1.223,1.074,2.609,2.291,3.949,3.554a.469.469,0,0,1-.322.811m-77.029-.112a.469.469,0,0,1-.337-.142A45.275,45.275,0,0,0,274.22,30.1a.47.47,0,0,1,.572-.745,46.9,46.9,0,0,1,4.719,4.12,30.6,30.6,0,0,1,4.419-5.021.469.469,0,0,1,.633.693A29.584,29.584,0,0,0,280.289,34a.423.423,0,0,1-.387.2.451.451,0,0,1-.126.217.465.465,0,0,1-.327.133M212.623,28.91a.47.47,0,0,1-.254-.864,56.684,56.684,0,0,1,5.782-3.258.47.47,0,0,1,.412.844,55.554,55.554,0,0,0-5.686,3.2.468.468,0,0,1-.254.075m56.415-2.4a.475.475,0,0,1-.235-.063,46.337,46.337,0,0,0-5.857-2.858.47.47,0,1,1,.351-.871,47.215,47.215,0,0,1,5.977,2.916.47.47,0,0,1-.236.875m77.235-.161a.472.472,0,0,1-.245-.069,45.723,45.723,0,0,0-5.8-2.98.469.469,0,0,1,.37-.863,46.565,46.565,0,0,1,5.915,3.042.469.469,0,0,1-.245.87m-56.763-1.025a.47.47,0,0,1-.245-.87,41.3,41.3,0,0,1,5.951-2.983.47.47,0,0,1,.389.856l-.035.014a40.24,40.24,0,0,0-5.815,2.915.47.47,0,0,1-.245.069m-65.077-2.183a.47.47,0,0,1-.154-.913,57.737,57.737,0,0,1,6.387-1.818.47.47,0,0,1,.2.917,56.764,56.764,0,0,0-6.278,1.787.456.456,0,0,1-.155.027m32.433-1.573a.464.464,0,0,1-.117-.015,52.1,52.1,0,0,0-6.41-1.228.469.469,0,0,1,.12-.931,53.129,53.129,0,0,1,6.524,1.25.469.469,0,0,1-.117.924m77.349-.45a.453.453,0,0,1-.132-.019,61.08,61.08,0,0,0-6.362-1.5.469.469,0,0,1-.378-.545.46.46,0,0,1,.525-.382l.02,0a62.146,62.146,0,0,1,6.458,1.52.469.469,0,0,1-.132.92m-32.564-.786a.47.47,0,0,1-.116-.925,56.219,56.219,0,0,1,6.522-1.245.464.464,0,0,1,.525.393v.007a.47.47,0,0,1-.4.526,55.38,55.38,0,0,0-6.412,1.225.456.456,0,0,1-.116.015m-64.4-.07a.47.47,0,0,1-.052-.937c1.156-.127,2.335-.224,3.507-.287.963-.052,1.94-.079,2.908-.079h.211a.47.47,0,0,1,0,.939h-.21c-.951,0-1.912.026-2.858.077-1.154.063-2.317.158-3.454.283h-.052m84.016-1.492a65.545,65.545,0,0,0-6.574-.177.48.48,0,0,1-.48-.458.469.469,0,0,1,.458-.48h0a65.5,65.5,0,0,1,6.631.179.469.469,0,0,1-.036.937" fill="#1a1a1a"/>
        <path id="Trazado_874616" data-name="Trazado 874616" d="M221.645,23.018a5.643,5.643,0,1,0,5.506-5.778,5.643,5.643,0,0,0-5.506,5.778h0" fill="#ffd7b8"/>
        <path id="Trazado_874617" data-name="Trazado 874617" d="M324.429,20.609a5.643,5.643,0,1,0,5.506-5.78,5.643,5.643,0,0,0-5.506,5.78h0" fill="#1a1a1a"/>
        <path id="Trazado_874618" data-name="Trazado 874618" d="M164.451,37.076l6.977-10.956L178.4,37.076Z" fill="#ffb850"/>
        <path id="Trazado_874619" data-name="Trazado 874619" d="M248.467,69.466a.676.676,0,0,0-.551-.757c-1.184-.408-2.365-.831-3.522-1.307a1.4,1.4,0,0,1-.663-.692c-.485-1.125-.926-2.27-1.35-3.42a1.112,1.112,0,0,1,0-.763c.572-1.272,1.2-2.518,1.768-3.791a.8.8,0,0,0-.094-.707c-.954-1.02-1.959-1.992-2.925-3a.575.575,0,0,0-.794-.129c-1.207.6-2.422,1.182-3.651,1.731a1.221,1.221,0,0,1-.832.038q-1.764-.635-3.492-1.366a1.3,1.3,0,0,1-.659-.608c-.477-1.183-.906-2.385-1.318-3.592-.133-.387-.289-.575-.741-.564-1.348.034-2.7.031-4.049,0a.674.674,0,0,0-.753.555c-.406,1.184-.865,2.349-1.268,3.535a1.042,1.042,0,0,1-.755.723c-1.114.386-2.214.823-3.286,1.314a1.054,1.054,0,0,1-1.043-.009c-1.182-.6-2.388-1.144-3.572-1.736a.618.618,0,0,0-.855.149c-.934.974-1.885,1.933-2.864,2.862a.654.654,0,0,0-.126.916h0c.587,1.187,1.162,2.38,1.693,3.592a1.231,1.231,0,0,1-.022.878q-.739,1.724-1.579,3.4a1.448,1.448,0,0,1-.681.675c-1.258.479-2.537.906-3.818,1.323a.663.663,0,0,0-.561.745c.031,1.349.026,2.7,0,4.049a.613.613,0,0,0,.5.7c1.3.421,2.606.855,3.887,1.343a1.43,1.43,0,0,1,.666.7c.517,1.086.943,2.216,1.483,3.288a1.165,1.165,0,0,1,.026,1.18c-.56,1.121-1.069,2.266-1.626,3.388a.661.661,0,0,0,.144.916q1.464,1.4,2.862,2.863a.653.653,0,0,0,.913.131c1.165-.577,2.35-1.112,3.515-1.69a1.033,1.033,0,0,1,1.043.027c1.119.553,2.286,1.009,3.416,1.543a1.22,1.22,0,0,1,.575.6c.48,1.283.924,2.581,1.353,3.882a.628.628,0,0,0,.711.51c1.35-.023,2.7-.027,4.049,0a.65.65,0,0,0,.74-.543v-.01c.411-1.282.851-2.556,1.33-3.814a1.319,1.319,0,0,1,.637-.641c1.154-.539,2.325-1.043,3.505-1.521a1.172,1.172,0,0,1,.825-.016c1.378.612,2.736,1.271,4.153,1.939,1.109-1.124,2.218-2.224,3.287-3.36a.81.81,0,0,0,.064-.717c-.549-1.23-1.157-2.434-1.712-3.661a1.163,1.163,0,0,1-.055-.778c.417-1.2.861-2.4,1.344-3.573a1.285,1.285,0,0,1,.631-.644c1.182-.477,2.384-.911,3.589-1.329a.631.631,0,0,0,.5-.718c-.024-1.349-.027-2.7,0-4.048M227.6,79.366a7.874,7.874,0,1,1,.052,0H227.6" fill="#3656b3"/>
        <path id="Trazado_874620" data-name="Trazado 874620" d="M109.03,105.605H327.743a14.644,14.644,0,0,1,14.644,14.644V301.523a14.644,14.644,0,0,1-14.644,14.644H109.03a14.644,14.644,0,0,1-14.644-14.644V120.249a14.644,14.644,0,0,1,14.644-14.644" fill="#3180b5"/>
        <path id="Trazado_874621" data-name="Trazado 874621" d="M316.645,105.605H120.129a25.744,25.744,0,0,0-25.743,25.743v5.66h248v-5.66a25.743,25.743,0,0,0-25.742-25.743" fill="#28121f"/>
        <path id="Trazado_874622" data-name="Trazado 874622" d="M312.952,128.133a8.087,8.087,0,0,0,8.063-8.063V94.43a8.064,8.064,0,1,0-16.127,0v25.64a8.088,8.088,0,0,0,8.064,8.063" fill="#c9c9c9"/>
        <path id="Trazado_874623" data-name="Trazado 874623" d="M250.157,128.133a8.087,8.087,0,0,0,8.063-8.063V94.43a8.063,8.063,0,1,0-16.126,0v25.64a8.087,8.087,0,0,0,8.063,8.063" fill="#c9c9c9"/>
        <path id="Trazado_874624" data-name="Trazado 874624" d="M187.518,128.133a8.088,8.088,0,0,0,8.063-8.063V94.43a8.063,8.063,0,1,0-16.127,0v25.64a8.088,8.088,0,0,0,8.064,8.063" fill="#c9c9c9"/>
        <path id="Trazado_874625" data-name="Trazado 874625" d="M124.722,128.133a8.087,8.087,0,0,0,8.063-8.063V94.43a8.063,8.063,0,1,0-16.126,0v25.64a8.087,8.087,0,0,0,8.063,8.063" fill="#c9c9c9"/>
        <path id="Trazado_874626" data-name="Trazado 874626" d="M309.757,257.319V290.7a2.153,2.153,0,0,1-2.153,2.153H274.22a2.153,2.153,0,0,1-2.153-2.153V257.319a2.152,2.152,0,0,1,2.153-2.152h33.385a2.152,2.152,0,0,1,2.152,2.152" fill="#fffeeb"/>
        <path id="Trazado_874627" data-name="Trazado 874627" d="M164.706,155.9v33.385a2.152,2.152,0,0,1-2.152,2.152H129.169a2.152,2.152,0,0,1-2.153-2.152V155.9a2.152,2.152,0,0,1,2.153-2.152h33.385a2.152,2.152,0,0,1,2.152,2.152" fill="#fffeeb"/>
        <path id="Trazado_874628" data-name="Trazado 874628" d="M213.109,155.9v33.385a2.153,2.153,0,0,1-2.153,2.152H177.572a2.153,2.153,0,0,1-2.153-2.153V155.9a2.153,2.153,0,0,1,2.153-2.153h33.384a2.153,2.153,0,0,1,2.153,2.153" fill="#fffeeb"/>
        <path id="Trazado_874629" data-name="Trazado 874629" d="M261.354,155.9v33.385a2.152,2.152,0,0,1-2.152,2.152H225.817a2.153,2.153,0,0,1-2.153-2.153V155.9a2.152,2.152,0,0,1,2.153-2.153H259.2a2.152,2.152,0,0,1,2.152,2.152" fill="#fffeeb"/>
        <path id="Trazado_874630" data-name="Trazado 874630" d="M309.757,155.9v33.385a2.152,2.152,0,0,1-2.152,2.152H274.22a2.153,2.153,0,0,1-2.153-2.153V155.9a2.152,2.152,0,0,1,2.153-2.152h33.385a2.152,2.152,0,0,1,2.152,2.152" fill="#0dba98"/>
        <path id="Trazado_874631" data-name="Trazado 874631" d="M164.706,206.9v33.385a2.152,2.152,0,0,1-2.152,2.152H129.169a2.152,2.152,0,0,1-2.153-2.152V206.9a2.152,2.152,0,0,1,2.153-2.152h33.385a2.152,2.152,0,0,1,2.152,2.152" fill="#ffb14c"/>
        <path id="Trazado_874632" data-name="Trazado 874632" d="M213.109,206.9v33.385a2.153,2.153,0,0,1-2.153,2.152H177.572a2.153,2.153,0,0,1-2.153-2.153V206.9a2.153,2.153,0,0,1,2.153-2.153h33.384a2.153,2.153,0,0,1,2.153,2.153" fill="#fffeeb"/>
        <path id="Trazado_874633" data-name="Trazado 874633" d="M261.354,206.9v33.385a2.152,2.152,0,0,1-2.152,2.152H225.817a2.153,2.153,0,0,1-2.153-2.153V206.9a2.152,2.152,0,0,1,2.153-2.153H259.2a2.152,2.152,0,0,1,2.152,2.152" fill="#fffeeb"/>
        <path id="Trazado_874634" data-name="Trazado 874634" d="M309.757,206.9v33.385a2.152,2.152,0,0,1-2.152,2.152H274.22a2.153,2.153,0,0,1-2.153-2.153V206.9a2.152,2.152,0,0,1,2.153-2.152h33.385a2.152,2.152,0,0,1,2.152,2.152" fill="#fffeeb"/>
        <path id="Trazado_874635" data-name="Trazado 874635" d="M164.706,257.319V290.7a2.153,2.153,0,0,1-2.153,2.153H129.169a2.152,2.152,0,0,1-2.153-2.152V257.319a2.152,2.152,0,0,1,2.153-2.152h33.385a2.152,2.152,0,0,1,2.152,2.152" fill="#fc5649"/>
        <path id="Trazado_874636" data-name="Trazado 874636" d="M213.109,257.319V290.7a2.153,2.153,0,0,1-2.153,2.153H177.572a2.153,2.153,0,0,1-2.153-2.153V257.319a2.152,2.152,0,0,1,2.153-2.152h33.384a2.152,2.152,0,0,1,2.153,2.152" fill="#fffeeb"/>
        <path id="Trazado_874637" data-name="Trazado 874637" d="M261.354,257.319V290.7a2.153,2.153,0,0,1-2.153,2.153H225.817a2.153,2.153,0,0,1-2.153-2.153V257.319a2.152,2.152,0,0,1,2.153-2.152H259.2a2.152,2.152,0,0,1,2.152,2.152" fill="#fffeeb"/>
        <path id="Trazado_874638" data-name="Trazado 874638" d="M158.614,287.849a1.081,1.081,0,0,1-.767-.317L132.34,262.024a1.084,1.084,0,0,1,1.533-1.534L159.381,286a1.084,1.084,0,0,1-.767,1.851" fill="#b21f1f"/>
        <path id="Trazado_874639" data-name="Trazado 874639" d="M133.107,287.849A1.084,1.084,0,0,1,132.34,286l25.508-25.508a1.085,1.085,0,0,1,1.534,1.534l-25.508,25.508a1.081,1.081,0,0,1-.767.317" fill="#b21f1f"/>
        <path id="Trazado_874640" data-name="Trazado 874640" d="M196.426,272.5a1.1,1.1,0,0,1-.48-.112,1.086,1.086,0,0,1-.492-1.453,33.512,33.512,0,0,0,3.683-18.223c-.5-5.015-2.394-9.391-5.191-12a13.132,13.132,0,0,0-5.072-3.04,8.76,8.76,0,0,1,.2,1.959c-.055,3.965-3.271,7.417-6.9,7.417a4.951,4.951,0,0,1-3.9-1.75,5.258,5.258,0,0,1-.125-5.719,9.117,9.117,0,0,1,7.248-4.448,10.867,10.867,0,0,0-2.629-2.625,24.952,24.952,0,0,0-7.512-3.1q-.509-.148-1.015-.3c-12.039-3.581-29.619-4.109-29.795-4.113a1.084,1.084,0,0,1,.06-2.168c.731.02,18.038.539,30.353,4.2q.5.15,1.005.3a26.566,26.566,0,0,1,8.158,3.412,12.574,12.574,0,0,1,3.98,4.509,14.605,14.605,0,0,1,7.42,3.882C201.6,244.893,204.26,258,197.4,271.9a1.083,1.083,0,0,1-.973.605m-10.182-35.24a7.018,7.018,0,0,0-6.184,3.35,3.208,3.208,0,0,0-.071,3.349,2.745,2.745,0,0,0,2.153.916c2.7,0,4.726-2.777,4.76-5.279a6.842,6.842,0,0,0-.4-2.332c-.088,0-.175,0-.262,0" fill="#28121f"/>
        <path id="Trazado_874641" data-name="Trazado 874641" d="M151.44,231.294a1.087,1.087,0,0,1-.728-.28l-6.959-6.3a1.085,1.085,0,0,1,.206-1.755l8.438-4.632a1.084,1.084,0,1,1,1.044,1.9l-7.1,3.9,5.83,5.28a1.084,1.084,0,0,1-.728,1.888" fill="#28121f"/>
        <path id="Trazado_874642" data-name="Trazado 874642" d="M203.8,172.332a9.537,9.537,0,1,1-9.537-9.538,9.538,9.538,0,0,1,9.537,9.538" fill="#0dba98"/>
        <path id="Trazado_874643" data-name="Trazado 874643" d="M300.45,223.3a9.538,9.538,0,1,1-9.538-9.537,9.538,9.538,0,0,1,9.538,9.537" fill="#ffb14c"/>
        <g id="Grupo_1100442" data-name="Grupo 1100442" opacity="0.5" style="mix-blend-mode: soft-light;isolation: isolate">
          <g id="Grupo_1100441" data-name="Grupo 1100441">
            <g id="Grupo_1100440" data-name="Grupo 1100440" clip-path="url(#clip-path-3)">
              <g id="Grupo_1100439" data-name="Grupo 1100439">
                <g id="Grupo_1100438-2" data-name="Grupo 1100438" clip-path="url(#clip-path-4)">
                  <rect id="Rectángulo_401246" data-name="Rectángulo 401246" width="248.001" height="229.801" transform="translate(94.386 86.366)" fill="url(#linear-gradient)"/>
                </g>
              </g>
            </g>
          </g>
        </g>
        <path id="Trazado_874645" data-name="Trazado 874645" d="M442.472,349.13H322.415l8.468-35.7H433.242Z" fill="#28121f"/>
        <path id="Trazado_874646" data-name="Trazado 874646" d="M374.452,231.374c-17.509,33.608-36.108,70.422-72.083,73.3-55.812,4.473-67.312-36.025-78.8-76.322l38.212-14.937c8.588,19.315,16.509,35.075,32.521,34.016,18.514-1.224,32.55-20.863,43.781-33.815Z" fill="#fe9b4f"/>
        <path id="Trazado_874647" data-name="Trazado 874647" d="M248.89,183.239c-.731-1.8-4.523-5.219-6.241-6.134-7.786-4.143-18.555-5.852-24.232-7.172-12.011-2.793-12.9,5.256-13.027,6.048l50.023,24.331Z" fill="#ffa194"/>
        <path id="Trazado_874648" data-name="Trazado 874648" d="M256.931,185.57a3.457,3.457,0,0,1-4.074,2.825l-57.238-11.2-4.487-4.052a.439.439,0,0,1,.149-.741l5.673-1.992,57.23,11.195a3.457,3.457,0,0,1,2.747,3.961"/>
        <path id="Trazado_874649" data-name="Trazado 874649" d="M223.57,228.357l-1.739-7.373c-3.22-1.05-6.864-3.46-7.17-8.983,0,0-6.614-5.7-3.684-12.425,0,0-5.475-7.979-2.2-14.516,0,0-8.214-6.7-4.871-11.535,3.486-5.04,11.19-2.3,21.912,9.616l25.972,5.11,7.29,19.459,2.7,5.71Z" fill="#ffa194"/>
        <path id="Trazado_874650" data-name="Trazado 874650" d="M238.762,218.779c-7.1,0-13.25-4.352-17.779-12.586a50,50,0,0,1-4.609-12l-8.362-8.365a1.084,1.084,0,0,1,1.534-1.533l8.584,8.588a1.072,1.072,0,0,1,.293.544,48.379,48.379,0,0,0,4.483,11.765c4.181,7.578,9.517,11.42,15.856,11.42a1.085,1.085,0,1,1,0,2.169" fill="#db5349"/>
        <path id="Trazado_874651" data-name="Trazado 874651" d="M220.568,204.042c-6.961,0-10.261-3.588-10.4-3.741a1.084,1.084,0,0,1,1.611-1.452c.124.133,2.861,3.023,8.787,3.023a1.085,1.085,0,1,1,0,2.17" fill="#db5349"/>
        <path id="Trazado_874652" data-name="Trazado 874652" d="M222.465,214.708a18.524,18.524,0,0,1-8.323-1.756,1.084,1.084,0,0,1,1.035-1.906,18.585,18.585,0,0,0,11.574,1.059,1.085,1.085,0,0,1,.428,2.127,23.979,23.979,0,0,1-4.714.476" fill="#db5349"/>
        <path id="Trazado_874653" data-name="Trazado 874653" d="M225.41,222.446a18.5,18.5,0,0,1-3.824-.406,1.084,1.084,0,0,1,.489-2.113c1.454.334,5.675.847,7.709-.772a3.506,3.506,0,0,0,1.231-2.945,1.085,1.085,0,1,1,2.17,0,5.614,5.614,0,0,1-2.054,4.645,9.285,9.285,0,0,1-5.721,1.591" fill="#db5349"/>
        <path id="Trazado_874654" data-name="Trazado 874654" d="M216.063,175.258a1.077,1.077,0,0,1-.68-.24c-3.988-3.211-7.125-2.825-7.258-2.806a1.085,1.085,0,1,1-.322-2.145c.167-.026,4.156-.59,8.94,3.262a1.084,1.084,0,0,1-.68,1.929" fill="#db5349"/>
        <path id="Trazado_874655" data-name="Trazado 874655" d="M374.452,231.374l-36.369-17.753c-5.885,6.787-12.54,15.408-20.206,22.256-.053.458-.1.919-.144,1.386-1.536,17.205,3.558,36.338,3.558,36.338v25.923c24.158-11.753,39.015-41,53.161-68.15" fill="#e87323"/>
        <path id="Trazado_874656" data-name="Trazado 874656" d="M440.915,224.582c-24.328-24.2-30.344-26.157-49.674-25.919-16.621.2-33.688-1.163-41.979,3.151-2.564,1.333-19.507,13.637-21.615,37.246-1.4,15.645,3.236,33.043,3.236,33.043V313.43h94.97c17.451,14,39.32,12.3,50.171-1.278,22.518-28.192-19.822-72.361-35.109-87.57" fill="#fe9b4f"/>
        <path id="Trazado_874657" data-name="Trazado 874657" d="M376.227,239.808c-.468,0-.938-.012-1.4-.035-10.423-.525-18.824-5.955-24.293-15.7a56.469,56.469,0,0,1-6.173-19.189,1.084,1.084,0,1,1,2.144-.325,56.012,56.012,0,0,0,5.92,18.453c5.087,9.063,12.871,14.111,22.513,14.6.428.022.862.033,1.29.033,8.535,0,16.835-4.213,24.671-12.521a94.543,94.543,0,0,0,14.785-21.765,1.085,1.085,0,0,1,1.931.989,96.756,96.756,0,0,1-15.138,22.264c-8.262,8.76-17.093,13.2-26.246,13.2" fill="#e87323"/>
        <path id="Trazado_874658" data-name="Trazado 874658" d="M391.241,198.663c-15.857.194-32.119-1.04-40.78,2.591,1.2,10.607,5.938,31.054,24.692,32,16.987.855,29.94-18.8,36.647-31.888-6.072-2.484-12.015-2.807-20.559-2.7" fill="#fffeeb"/>
        <path id="Trazado_874659" data-name="Trazado 874659" d="M238.438,233.28a4.6,4.6,0,1,1-4.6-4.6,4.6,4.6,0,0,1,4.6,4.6" fill="#fffeeb"/>
        <path id="Trazado_874660" data-name="Trazado 874660" d="M418.144,288.918a4.6,4.6,0,1,1-4.6-4.6,4.6,4.6,0,0,1,4.6,4.6" fill="#fffeeb"/>
        <path id="Trazado_874661" data-name="Trazado 874661" d="M476.024,312.152c6.469-8.1,7.584-17.518,5.526-27.19-.942-.086-1.895-.132-2.859-.132a31.247,31.247,0,0,0-30.472,38.141c11,1.132,21.351-2.741,27.8-10.819" fill="#fc5649"/>
        <path id="Trazado_874662" data-name="Trazado 874662" d="M288.926,282.188a31.224,31.224,0,0,0-26.787,15.156c10.075,5.827,23.053,8.711,40.231,7.335a52.367,52.367,0,0,0,15.282-3.548,31.246,31.246,0,0,0-28.726-18.943" fill="#fc5649"/>
        <path id="Trazado_611348" data-name="Trazado 611348" d="M7.307,269.305H78.492a7.307,7.307,0,0,1,7.307,7.307v15.6a7.307,7.307,0,0,1-7.307,7.307H70.369c-.615.689-1.544,2.4.393,5.4,0,0-4.82.131-8.1-5.4H7.307A7.307,7.307,0,0,1,0,292.208v-15.6a7.307,7.307,0,0,1,7.307-7.307" transform="translate(327.745 -220.371)" fill="#fff"/>
        <path id="Trazado_611349" data-name="Trazado 611349" d="M160.905,312.979a4.965,4.965,0,1,1-4.965-4.965,4.965,4.965,0,0,1,4.965,4.965" transform="translate(214.704 -249.355)" fill="#ffb850"/>
        <path id="Trazado_611350" data-name="Trazado 611350" d="M78.651,312.979a4.965,4.965,0,1,1-4.965-4.965,4.965,4.965,0,0,1,4.965,4.965" transform="translate(276.29 -249.355)" fill="#3656b3"/>
        <path id="Trazado_611351" data-name="Trazado 611351" d="M243.159,312.979a4.965,4.965,0,1,1-4.965-4.965,4.965,4.965,0,0,1,4.965,4.965" transform="translate(153.116 -249.355)" fill="#29c7cc"/>
      </g>
    </g>
    <g id="Grupo_1100446" data-name="Grupo 1100446">
      <g id="Grupo_1100445" data-name="Grupo 1100445" clip-path="url(#clip-path-5)">
        <path id="Trazado_874663" data-name="Trazado 874663" d="M410.475,214.487H348.327a1.085,1.085,0,1,1,0-2.169h62.148a1.085,1.085,0,0,1,0,2.169" fill="#0dba98"/>
      </g>
    </g>
    <g id="Grupo_1100453" data-name="Grupo 1100453">
      <g id="Grupo_1100452" data-name="Grupo 1100452" clip-path="url(#clip-path)">
        <path id="Trazado_874665" data-name="Trazado 874665" d="M391.241,198.663c-10.3.126-20.778-.35-29.227.3,2.88,4.529,7.6,9.566,14.57,10.154,8.771.742,15.164-4.682,19.914-10.44-1.647-.037-3.39-.034-5.257-.011" fill="#ffa194"/>
        <path id="Trazado_874666" data-name="Trazado 874666" d="M371.851,314.515a1.084,1.084,0,0,1-1.085-1.085V273.49a77.031,77.031,0,0,1-2.188-25.538,46.725,46.725,0,0,1,1.821-9.985,1.085,1.085,0,0,1,2.054.7,45.75,45.75,0,0,0-1.722,9.566,74.9,74.9,0,0,0,2.171,24.857c.033.267.033,40.342.033,40.342a1.084,1.084,0,0,1-1.084,1.085" fill="#e87323"/>
        <path id="Trazado_874667" data-name="Trazado 874667" d="M350.4,292.87h41.28a7.247,7.247,0,0,0,7.246-7.247v-57.4a7.247,7.247,0,0,0-7.246-7.247H350.4a7.248,7.248,0,0,0-7.247,7.247v57.4a7.248,7.248,0,0,0,7.247,7.247" fill="#70529e"/>
        <path id="Trazado_874668" data-name="Trazado 874668" d="M360.148,224.063h21.775a3.3,3.3,0,1,0,0-6.6H360.148a3.3,3.3,0,1,0,0,6.6"/>
        <g id="Grupo_1100451" data-name="Grupo 1100451" opacity="0.5" style="mix-blend-mode: soft-light;isolation: isolate">
          <g id="Grupo_1100450" data-name="Grupo 1100450">
            <g id="Grupo_1100449" data-name="Grupo 1100449" clip-path="url(#clip-path-7)">
              <g id="Grupo_1100448" data-name="Grupo 1100448">
                <g id="Grupo_1100447" data-name="Grupo 1100447" clip-path="url(#clip-path-8)">
                  <rect id="Rectángulo_401249" data-name="Rectángulo 401249" width="55.773" height="75.408" transform="translate(343.149 217.462)" fill="url(#linear-gradient-2)"/>
                </g>
              </g>
            </g>
          </g>
        </g>
        <path id="Trazado_874670" data-name="Trazado 874670" d="M357.2,248.819c1.26-2.023,3.565-3.111,7.6-1.128-4.657-2.669-6.365-5.88-4.633-9.135,1.719-3.232,6.063-3.5,10.668-.048-1.932-2.607-3.159-5.616-1.105-7.845,4.481-4.865,10.413-1.067,29.142,8.707l.047-13.188s7.815,8.707,11.3,18.771l15.634,10.816-23.433,33.149-14.49-10.467s-8.309-1.512-14.92-2.91c-9.679-2.048-11.407-4.774-10.383-7.349s4.1-2.83,12.869-.653c0,0-9.534-5.161-13-8-6.142-5.04-6.622-8.583-5.294-10.717" fill="#ffa194"/>
        <path id="Trazado_874671" data-name="Trazado 874671" d="M390.474,250.186a1.085,1.085,0,0,1-.514-.131l-19.637-10.593a1.084,1.084,0,0,1,1.029-1.909l19.638,10.593a1.085,1.085,0,0,1-.516,2.04" fill="#db5349"/>
        <path id="Trazado_874672" data-name="Trazado 874672" d="M383.612,258.971a1.084,1.084,0,0,1-.514-.13L363.46,248.248a1.085,1.085,0,1,1,1.03-1.909l19.638,10.593a1.085,1.085,0,0,1-.516,2.039" fill="#db5349"/>
        <path id="Trazado_874673" data-name="Trazado 874673" d="M380.656,271.262a1.075,1.075,0,0,1-.462-.1l-7.94-3.744a1.085,1.085,0,0,1,.925-1.963l7.94,3.746a1.084,1.084,0,0,1-.463,2.065" fill="#db5349"/>
        <path id="Trazado_874674" data-name="Trazado 874674" d="M398.875,239.37l1.518.891a1.155,1.155,0,0,0,1.682-1.355l-3.119-9.523Z" fill="#db5349"/>
        <path id="Trazado_874675" data-name="Trazado 874675" d="M425.853,314.515a1.083,1.083,0,0,1-.784-.335l-23.433-24.513a1.083,1.083,0,0,1-.1-1.375l23.434-33.148a1.084,1.084,0,0,1,1.5-.266c7.3,5.05,37.436,19.136,37.74,19.277a1.084,1.084,0,1,1-.917,1.965c-1.2-.56-28.514-13.326-37.162-18.865l-22.311,31.56,22.817,23.866a1.084,1.084,0,0,1-.784,1.834" fill="#e87323"/>
        <path id="Trazado_874676" data-name="Trazado 874676" d="M360.117,167.771a18.843,18.843,0,1,0,18.843-18.843,18.843,18.843,0,0,0-18.843,18.843" fill="#28121f"/>
        <path id="Trazado_874677" data-name="Trazado 874677" d="M351.679,165.912c0,11.04,5.264,19.809,16.3,19.809S387.97,178.6,387.97,167.56s-9.009-18.632-9.009-18.632c-16.925-2.772-27.282,4.4-27.282,16.984" fill="#28121f"/>
        <path id="Trazado_874678" data-name="Trazado 874678" d="M351.375,158.548a1.084,1.084,0,0,1-1-1.509,15,15,0,0,1,9.1-8.568c4.2-1.5,9.71-1.7,16.368-.614A1.085,1.085,0,0,1,375.5,150c-12.439-2.038-20,.543-23.125,7.889a1.084,1.084,0,0,1-1,.661" fill="#28121f"/>
        <path id="Trazado_874679" data-name="Trazado 874679" d="M370.7,199.356V189.23c-14.411,0-15.972-6.034-15.352-18.144.263-5.133,1.012-12.226,7.962-17.453a17.048,17.048,0,0,1,26.428,8.1c.046.137.091.274.134.412,2.231,7.042,2.953,13.487-1.334,17.957v19.253Z" fill="#ffa194"/>
        <path id="Trazado_874680" data-name="Trazado 874680" d="M378.688,191.14a16.269,16.269,0,0,1-7.99,5.694v-7.6l6.946-.1a1.267,1.267,0,0,1,1.044,2.012" fill="#db5349"/>
        <path id="Trazado_874681" data-name="Trazado 874681" d="M365.443,152.209c1.861-1.1,3.8-2.834,6.542-3.133,9.117-1,20.363.676,22.875,12.562,1.359,6.428.573,17.2-6.323,22.365-9.9,0-10.65-10.474-10.65-10.474-7.962-2.892-12.861-13.384-12.444-21.32" fill="#28121f"/>
        <path id="Trazado_874682" data-name="Trazado 874682" d="M382.958,172.194a5.245,5.245,0,1,1-6.406-3.737,5.245,5.245,0,0,1,6.406,3.737" fill="#ffa194"/>
        <path id="Trazado_874683" data-name="Trazado 874683" d="M381,172.711a3.215,3.215,0,1,1-3.927-2.291A3.216,3.216,0,0,1,381,172.711" fill="#db5349"/>
        <path id="Trazado_874684" data-name="Trazado 874684" d="M374.2,142.15a13.82,13.82,0,1,0,13.82-13.82,13.82,13.82,0,0,0-13.82,13.82" fill="#28121f"/>
        <path id="Trazado_874685" data-name="Trazado 874685" d="M390.052,157.055a14.9,14.9,0,1,1,14.9-14.9,14.921,14.921,0,0,1-14.9,14.9m0-27.641a12.736,12.736,0,1,0,12.736,12.736,12.75,12.75,0,0,0-12.736-12.736" fill="#28121f"/>
        <path id="Trazado_874686" data-name="Trazado 874686" d="M365.719,167.989a1.084,1.084,0,0,1-.92-1.657,3.4,3.4,0,0,1,5.665.03l-1.858,1.119a1.242,1.242,0,0,0-1.964-.005,1.086,1.086,0,0,1-.923.513" fill="#28121f"/>
        <path id="Trazado_874687" data-name="Trazado 874687" d="M360.234,177.185a1.078,1.078,0,0,1-.75-.3l-2.2-2.11a1.576,1.576,0,0,1,1.091-2.713h1.294c.283-1.12.619-3.295-.687-4.269a1.084,1.084,0,1,1,1.3-1.738c3.136,2.337,1.29,7.271,1.21,7.48a1.085,1.085,0,0,1-1.012.7h-.625l1.136,1.089a1.085,1.085,0,0,1-.751,1.867" fill="#db5349"/>
        <path id="Trazado_874688" data-name="Trazado 874688" d="M358.81,170.638a1.089,1.089,0,1,1-1.089-1.089,1.089,1.089,0,0,1,1.089,1.089" fill="#28121f"/>
        <path id="Trazado_874689" data-name="Trazado 874689" d="M368.716,170.638a1.089,1.089,0,1,1-1.089-1.089,1.089,1.089,0,0,1,1.089,1.089" fill="#28121f"/>
        <path id="Trazado_874690" data-name="Trazado 874690" d="M360.709,180.506c-.158-.011-3.082-.438-3.082-.438a1.084,1.084,0,0,1,.313-2.146l2.924.426a1.085,1.085,0,0,1-.155,2.158" fill="#db5349"/>
        <path id="Trazado_874691" data-name="Trazado 874691" d="M359.628,168.007l-3.82-.019a1.085,1.085,0,0,1,0-2.169l3.82.018a1.085,1.085,0,0,1-.005,2.17" fill="#28121f"/>
        <path id="Trazado_874692" data-name="Trazado 874692" d="M371.562,176.7A3.215,3.215,0,1,1,369,172.942a3.213,3.213,0,0,1,2.558,3.759" fill="#f4756e"/>
        <path id="Trazado_874693" data-name="Trazado 874693" d="M374.816,165.849a1.081,1.081,0,0,1-.764-.315c-3.917-3.888-3.962-10.9-3.962-11.2a1.085,1.085,0,0,1,2.169,0c0,.064.05,6.416,3.321,9.663a1.084,1.084,0,0,1-.764,1.854" fill="#70529e"/>
        <path id="Trazado_874694" data-name="Trazado 874694" d="M378.935,162.234a1.082,1.082,0,0,1-.913-.5,17.446,17.446,0,0,1-1.933-6.138,1.084,1.084,0,0,1,2.153-.261,15.524,15.524,0,0,0,1.6,5.224,1.084,1.084,0,0,1-.911,1.672" fill="#70529e"/>
        <path id="Trazado_874695" data-name="Trazado 874695" d="M223.57,229.441a1.085,1.085,0,0,1-.4-2.1l38.213-14.936a1.084,1.084,0,0,1,.789,2.02l-38.212,14.937a1.1,1.1,0,0,1-.394.074" fill="#e87323"/>
      </g>
    </g>
  </g>
  <g id="Grupo_1100456" data-name="Grupo 1100456" transform="translate(44.667 229)">
    <g id="Grupo_1100455" data-name="Grupo 1100455" clip-path="url(#clip-path-9)">
      <path id="Trazado_874696" data-name="Trazado 874696" d="M42.443,13.729a.489.489,0,0,0-.4-.549c-.859-.3-1.715-.6-2.554-.948a1.017,1.017,0,0,1-.481-.5c-.352-.816-.672-1.646-.979-2.481a.8.8,0,0,1,0-.554c.414-.922.87-1.826,1.282-2.749a.58.58,0,0,0-.068-.513c-.692-.739-1.42-1.445-2.121-2.176a.417.417,0,0,0-.576-.093c-.875.434-1.757.857-2.648,1.256a.884.884,0,0,1-.6.028q-1.28-.46-2.532-.991a.939.939,0,0,1-.478-.441c-.346-.858-.658-1.73-.957-2.6C29.231.132,29.122,0,28.794,0c-.978.024-1.958.022-2.937,0a.489.489,0,0,0-.546.4c-.294.859-.628,1.7-.919,2.564a.758.758,0,0,1-.548.524c-.808.28-1.606.6-2.383.953a.763.763,0,0,1-.757-.007c-.858-.432-1.732-.829-2.59-1.259a.448.448,0,0,0-.62.108c-.677.706-1.367,1.4-2.077,2.075a.474.474,0,0,0-.092.664h0c.426.861.843,1.726,1.228,2.605a.886.886,0,0,1-.016.637q-.536,1.25-1.145,2.467a1.044,1.044,0,0,1-.494.49c-.912.347-1.84.657-2.768.959a.482.482,0,0,0-.408.541c.023.978.019,1.958,0,2.936a.444.444,0,0,0,.365.511c.946.305,1.89.62,2.819.974a1.038,1.038,0,0,1,.483.5c.375.787.684,1.607,1.076,2.385a.844.844,0,0,1,.019.856c-.406.813-.775,1.643-1.179,2.457a.48.48,0,0,0,.1.664q1.062,1.012,2.076,2.077a.473.473,0,0,0,.662.095c.845-.419,1.7-.806,2.55-1.226a.749.749,0,0,1,.756.019c.811.4,1.658.732,2.478,1.119a.886.886,0,0,1,.417.437c.348.931.67,1.872.981,2.816a.456.456,0,0,0,.516.37c.979-.016,1.958-.019,2.936,0a.471.471,0,0,0,.536-.4v0c.3-.93.617-1.854.965-2.766a.96.96,0,0,1,.463-.465q1.255-.586,2.542-1.1a.849.849,0,0,1,.6-.011c1,.444,1.985.922,3.012,1.406.8-.815,1.608-1.613,2.383-2.437a.583.583,0,0,0,.047-.52c-.4-.892-.839-1.765-1.241-2.655a.842.842,0,0,1-.04-.564c.3-.872.625-1.738.975-2.592a.93.93,0,0,1,.458-.467c.857-.346,1.729-.661,2.6-.964a.458.458,0,0,0,.36-.521c-.017-.978-.02-1.958,0-2.936M27.315,20.911a5.707,5.707,0,1,1,.044,0h-.044" fill="#29c7cc"/>
      <path id="Trazado_874697" data-name="Trazado 874697" d="M423.642,121.415H1.555a1.234,1.234,0,1,1,0-2.383H423.642a1.234,1.234,0,1,1,0,2.383" fill="#1a1a1a"/>
    </g>
  </g>
</svg>
