<svg id="img14" xmlns="http://www.w3.org/2000/svg" xmlns:xlink="http://www.w3.org/1999/xlink" width="400" height="295.303" viewBox="0 0 400 295.303">
  <defs>
    <clipPath id="clip-path">
      <rect id="Rectángulo_401127" data-name="Rectángulo 401127" width="201.222" height="272.877" fill="none"/>
    </clipPath>
    <clipPath id="clip-path-2">
      <rect id="Rectángulo_401124" data-name="Rectángulo 401124" width="201.223" height="272.877" fill="none"/>
    </clipPath>
    <clipPath id="clip-path-3">
      <rect id="Rectángulo_401123" data-name="Rectángulo 401123" width="201.222" height="100.404" fill="none"/>
    </clipPath>
    <clipPath id="clip-path-4">
      <path id="Trazado_874076" data-name="Trazado 874076" d="M90.889,8.511,13.929,52.943C9.144,55.707,5.285,62.413,5.3,67.892L5.775,234.97c.005,2.729.969,4.652,2.523,5.552l11.4,6.626c-1.553-.9-2.517-2.82-2.523-5.554L16.7,74.521c-.013-5.479,3.848-12.191,8.631-14.949l76.96-44.437c2.4-1.385,4.585-1.513,6.157-.6l-11.4-6.623a4.476,4.476,0,0,0-2.279-.587,7.863,7.863,0,0,0-3.878,1.186" transform="translate(-5.298 -7.325)" fill="none"/>
    </clipPath>
    <linearGradient id="linear-gradient" x1="0.246" y1="1.136" x2="0.257" y2="1.136" gradientUnits="objectBoundingBox">
      <stop offset="0" stop-color="#bac2d4"/>
      <stop offset="0.145" stop-color="#a9b0c7"/>
      <stop offset="0.174" stop-color="#a9b0c7"/>
      <stop offset="0.598" stop-color="#a9b0c7"/>
      <stop offset="0.616" stop-color="#c8ccd8"/>
      <stop offset="0.633" stop-color="#e0e1e5"/>
      <stop offset="0.644" stop-color="#eaeaeb"/>
      <stop offset="0.65" stop-color="#e5e6e8"/>
      <stop offset="0.657" stop-color="#d9dbe1"/>
      <stop offset="0.664" stop-color="#c4c9d6"/>
      <stop offset="0.667" stop-color="#bac0d1"/>
      <stop offset="1" stop-color="#bdc4d2"/>
    </linearGradient>
  </defs>
  <g id="Image_Place_Holder" data-name="Image Place Holder" transform="translate(0 24.534)">
    <rect id="Image_Place_Holder-2" data-name="Image Place Holder" width="400" height="270.769" rx="10" fill="#b9daff"/>
  </g>
  <g id="Grupo_1100058" data-name="Grupo 1100058" transform="translate(93.303)">
    <g id="Grupo_1100057" data-name="Grupo 1100057" clip-path="url(#clip-path)">
      <g id="Grupo_1100052" data-name="Grupo 1100052" transform="translate(0 0)">
        <g id="Grupo_1100051" data-name="Grupo 1100051" clip-path="url(#clip-path-2)">
          <g id="Grupo_1100050" data-name="Grupo 1100050" transform="translate(0 172.474)" style="mix-blend-mode: multiply;isolation: isolate">
            <g id="Grupo_1100049" data-name="Grupo 1100049">
              <g id="Grupo_1100048" data-name="Grupo 1100048" clip-path="url(#clip-path-3)">
                <path id="Trazado_874073" data-name="Trazado 874073" d="M201.223,83.6,169.608,64.4,89.892,112.393,75.345,103.56,0,148.919l26.176,15.886,21.3-12.817,19.989,12.137Z" transform="translate(0 -64.403)" fill="#c2c2cf"/>
              </g>
            </g>
          </g>
          <path id="Trazado_874074" data-name="Trazado 874074" d="M95.145,10.985c4.786-2.764,8.672-.528,8.685,4.952l.474,167.075c.016,5.5-3.843,12.183-8.629,14.946L18.715,242.39c-4.786,2.764-8.672.549-8.688-4.949L9.556,70.366C9.54,64.887,13.4,58.181,18.185,55.417Z" transform="translate(16.036 16.444)" fill="#c8ccd8"/>
          <path id="Trazado_874075" data-name="Trazado 874075" d="M90.936,13c3.873-2.236,7.033-.434,7.046,4.014L98.443,180a15.438,15.438,0,0,1-7,12.124L18.409,234.29c-3.873,2.236-7.033.434-7.046-4.017L10.9,67.293a15.442,15.442,0,0,1,7-12.124l11.326-6.54,5.179,2.359L74.461,27.864l5.15-8.321Z" transform="translate(18.294 20.208)" fill="#3656b3"/>
        </g>
      </g>
      <g id="Grupo_1100054" data-name="Grupo 1100054" transform="translate(14.188 19.617)">
        <g id="Grupo_1100053" data-name="Grupo 1100053" clip-path="url(#clip-path-4)">
          <rect id="Rectángulo_401125" data-name="Rectángulo 401125" width="259.273" height="209.252" transform="matrix(0.5, -0.866, 0.866, 0.5, -103.859, 179.866)" fill="url(#linear-gradient)"/>
        </g>
      </g>
      <g id="Grupo_1100056" data-name="Grupo 1100056" transform="translate(0 0)">
        <g id="Grupo_1100055" data-name="Grupo 1100055" clip-path="url(#clip-path-2)">
          <path id="Trazado_874077" data-name="Trazado 874077" d="M28.778,24.644a2.728,2.728,0,0,1-.945.865.145.145,0,0,1-.04.024l-2.975,1.719-4.47,2.579-2.2,1.269a5.55,5.55,0,0,1-4.976.2l-1.417-.814c-1.267-.734-1.106-2.03.359-2.874l9.644-5.568a5.554,5.554,0,0,1,4.973-.206l1.417.819a1.858,1.858,0,0,1,.629.546,1.243,1.243,0,0,1,0,1.435" transform="translate(18.294 35.825)" fill="#64c95c"/>
          <path id="Trazado_874078" data-name="Trazado 874078" d="M11.759,30.488l.1.059c.08-.056.166-.11.254-.163l9.644-5.568a5.551,5.551,0,0,1,4.976-.206l1.315.761c1.224-.844,1.294-2.022.1-2.71l-1.417-.819a5.568,5.568,0,0,0-4.976.206l-9.644,5.57c-1.465.846-1.626,2.137-.356,2.871" transform="translate(18.295 35.824)" fill="#d8d9dd"/>
          <path id="Trazado_874079" data-name="Trazado 874079" d="M23.119,23.6l-.037.024L20.1,25.341l-4.467,2.582-1.066-.616a1.475,1.475,0,0,1-.86-1.235v-.011a2.054,2.054,0,0,1,1.213-1.628L17.08,23.19a5.557,5.557,0,0,1,4.979-.209Z" transform="translate(23.008 37.736)" fill="#d8d9dd"/>
          <path id="Trazado_874080" data-name="Trazado 874080" d="M24.064,22.043v1.435a2.728,2.728,0,0,1-.945.865l-.04.024L20.1,26.087l-6.393.731V23.235Z" transform="translate(23.008 36.99)" fill="#d8d9dd"/>
          <path id="Trazado_874081" data-name="Trazado 874081" d="M15.719,26.63l-1.152-.664c-1.269-.734-1.109-2.027.356-2.874L17.08,21.85a5.552,5.552,0,0,1,4.976-.209l1.152.667c1.269.734,1.109,2.025-.356,2.871l-2.159,1.245a5.545,5.545,0,0,1-4.973.206" transform="translate(23.008 35.488)" fill="#c8ccd8"/>
          <path id="Trazado_874082" data-name="Trazado 874082" d="M12.759,60.736V95.2L90.187,50.5V16.034Z" transform="translate(21.41 26.905)" fill="#fff"/>
          <path id="Trazado_874083" data-name="Trazado 874083" d="M69.545,27.444l.013,5.064L15.124,63.936l-.013-5.064Z" transform="translate(25.357 46.053)" fill="#cbcbcb"/>
          <path id="Trazado_874084" data-name="Trazado 874084" d="M80.016,21.941l.013,5.064L15.115,64.482,15.1,59.418Z" transform="translate(25.342 36.818)" fill="#cbcbcb"/>
          <path id="Trazado_874085" data-name="Trazado 874085" d="M12.759,76.471v47.967l2.9,1.671,77.429-92.67-2.9-1.671Z" transform="translate(21.41 53.309)" fill="#e80000"/>
          <path id="Trazado_874086" data-name="Trazado 874086" d="M12.759,97.924v47.967l77.429-44.705V53.222Z" transform="translate(21.41 89.31)" fill="#fff"/>
          <path id="Trazado_874087" data-name="Trazado 874087" d="M69.545,69.4l.013,5.064L15.124,105.894l-.013-5.064Z" transform="translate(25.357 116.463)" fill="#cbcbcb"/>
          <path id="Trazado_874088" data-name="Trazado 874088" d="M80.016,63.9l.013,5.064L15.115,106.44l-.013-5.064Z" transform="translate(25.342 107.228)" fill="#cbcbcb"/>
          <path id="Trazado_874089" data-name="Trazado 874089" d="M80.006,60.655l.013,5.062L15.106,103.2l-.013-5.064Z" transform="translate(25.326 101.783)" fill="#cbcbcb"/>
          <path id="Trazado_874090" data-name="Trazado 874090" d="M80,57.41l.013,5.064L15.1,99.951l-.013-5.064Z" transform="translate(25.311 96.338)" fill="#cbcbcb"/>
          <path id="Trazado_874091" data-name="Trazado 874091" d="M13.84,77.095v47.967L91.269,80.357V32.392Z" transform="translate(23.224 54.357)" fill="#ff3636"/>
          <path id="Trazado_874092" data-name="Trazado 874092" d="M40.5,50.07,27.131,68.792V46.781Z" transform="translate(45.527 78.502)" fill="#fff"/>
          <path id="Trazado_874093" data-name="Trazado 874093" d="M63.509,1.27C60.927-.645,54.848.437,52.183,5.517s3,18.57,2,22.4-7.327,5.206-7.327,5.206,5.83,9.644,13.489,4.3S63.509,1.27,63.509,1.27" transform="translate(78.625 0.642)" fill="#1e2254"/>
          <path id="Trazado_874094" data-name="Trazado 874094" d="M74.181,41.749c1.446,7.375,2.756,11.51.9,19.092S71.7,77.384,70.322,79.66s-10.477.825-11.786-2.207-1.794-7.512-1.449-12.89.621-17.3.621-17.3Z" transform="translate(95.615 70.058)" fill="#ffa698"/>
          <path id="Trazado_874095" data-name="Trazado 874095" d="M66.694,68.332c.187.595,1.942,1.719,7.089,7.74,3.57,4.172,9.588,7.734,8.46,11.315s-5.7,3.3-10.91,1.7-4.577-5.8-6.269-8.243A10.244,10.244,0,0,0,60.2,77.047c-.627-.126-1.074,5.2-1.636,5.487a4.209,4.209,0,0,1-1.655.22s-.428-4.119-.691-6.741a12.918,12.918,0,0,1,2.089-7.8c1.2-1.443,8.382.123,8.382.123" transform="translate(94.283 113.434)" fill="#315884"/>
          <path id="Trazado_874096" data-name="Trazado 874096" d="M71.088,54.569s.948,4.373.474,7.011-4.127,30.278-3.575,33.586,4.6,7.279,5.568,8.484c2.675,3.324-4.954,3.107-7.817-.158-4.451-5.078-5.34-4.253-5.34-4.253s-4.065-1.3-2.769-4c.445-.921.434-1.385.5-4s-3.1-16.885-.825-26.95,3.789-12.268,3.789-12.268Z" transform="translate(94.779 87.292)" fill="#ffa698"/>
          <path id="Trazado_874097" data-name="Trazado 874097" d="M66.029,47.315s-1.9,15.785-4.068,19.162-8.682,1.551-9.96.447c0,0-3.1-4.446-2.9-9.478S66.029,47.315,66.029,47.315" transform="translate(82.387 79.398)" fill="#ffa698"/>
          <path id="Trazado_874098" data-name="Trazado 874098" d="M56.963,67.733c2.82.461,4.968,4.992,6.553,9.143s5.573,9.751,4.545,13.428-8.423,1.379-11.6-1.923S53.827,79.9,53.077,78.6s-1.173-.584-1.173-.584-.123,4.264-.375,4.472-1.336.458-1.545.083.051-6.853-.252-7.734-.252-5.1,1.044-6.4,6.186-.71,6.186-.71" transform="translate(83.197 113.441)" fill="#315884"/>
          <path id="Trazado_874099" data-name="Trazado 874099" d="M62.9,55.151c.137,1.069,2,1.414.241,5.41S61.7,71.246,60.9,74.588,60.5,94.6,61.3,96.377c1.371,4.422,3.374,7.651,3.843,9.625.38,1.6-5.42,3.251-7.523.356s-1.88-3.082-3.219-4.66-2.327-1.877-1.88-4.807-4.78-24.751-4.057-30.677,2.483-11.926,2.584-14.681S62.9,55.151,62.9,55.151" transform="translate(81.206 85.314)" fill="#ffa698"/>
          <path id="Trazado_874100" data-name="Trazado 874100" d="M58.918,11.974c3.034-2.33,14.638,5.8,20.98,15.308A144.528,144.528,0,0,0,91.151,42.266s5.4,8.835-2.48,7.857c-4.837-.6-13.085-8.65-17.434-12.252-5.249-4.347-6.915-5.7-8.294-8.187s-4.025-17.71-4.025-17.71" transform="translate(98.869 19.418)" fill="#f09689"/>
          <path id="Trazado_874101" data-name="Trazado 874101" d="M71.571,11.578c8,.137,9.213.557,10.619,1.085,3.945,1.476,10.22,22.2,8.784,30.069-1,5.477-2.4,8.573-1.813,19.167.139,2.477-.694,3.538.453,6.3,3.487,8.42,8.109,39.965,7.783,40.825-.782,2.07-3.449,7.108-8.548,8.257s-7.1-.857-11.738-.841-3.128,2.009-10.937,3.479-16.232-.986-16.829-4.523-.986-19.756-.249-26.971,1.7-10.26,1.2-14.4-5.142-47.6-3.508-50.4c.927-1.591,6.743-5.951,12.651-9.229a24.091,24.091,0,0,1,12.134-2.82" transform="translate(77.927 19.392)" fill="#315884"/>
          <path id="Trazado_874102" data-name="Trazado 874102" d="M86.012,30.354c-3.388,4.914-16.117,7-24.419,6.114-12.351-1.315-11.955-6.548-12.158-5.541a62.281,62.281,0,0,0-1.119,7.365c0,1.639,4.092,5.083,18.546,4.949,16.3-.15,19.6-6.585,19.6-6.585Z" transform="translate(81.076 50.936)" fill="#2e3442"/>
          <path id="Trazado_874103" data-name="Trazado 874103" d="M70.409,18.873c-1.561,1.47-1.585,8.133-2.552,10.892S62.969,33.4,59.421,32.1s-8.123-6.371-6.647-8.23c1-1.269,1.875-1.875,2.2-4.448s-4-13.6-3.953-13.739S70.409,18.873,70.409,18.873" transform="translate(85.61 9.539)" fill="#ffa698"/>
          <path id="Trazado_874104" data-name="Trazado 874104" d="M51.6,8.47c.23,2.022.137,6.433,1.792,9.6s3.307,7.627,4.871,8.5,9.006,2.9,11.165,2.9,2.9-1.928,3.447-3.492S74.9,18.4,74.667,15.822,73.612,7.552,72.1,4.978s-3.356-2.483-7.721-2.8S51.6,8.47,51.6,8.47" transform="translate(86.591 3.629)" fill="#ffa698"/>
          <path id="Trazado_874105" data-name="Trazado 874105" d="M68.5,8.741a30.006,30.006,0,0,1-7.571,5.15c-2.528,1.01-2.986,4.274-3.353,5.836s.367,4.826.367,4.826S57.2,20.4,55.364,20.018s1.438,4.941,1.157,7.311c-3.956-6.133-4.092-3.972-5.838-9.946S50.329,2.444,58.125,1.989c4.274-3.369,7.59-1.7,10.254-.5s8.248,5.793,7.223,9.028c-1.559-2.9-1.923-3.091-7.1-1.776" transform="translate(83.925 0.001)" fill="#202459"/>
          <path id="Trazado_874106" data-name="Trazado 874106" d="M52.318,7.119c-1.058-.185-2.033,1.294-1.018,3.222s1.845,3.165,3.637,2.614-.758-3.286-.884-4.47-1.735-1.366-1.735-1.366" transform="translate(85.368 11.92)" fill="#ffa698"/>
          <path id="Trazado_874107" data-name="Trazado 874107" d="M70.633,13.259c.027-.153,3.538,16.133,3.538,16.133l-.2.348s-3.109,2-5.694,2.011-3.739-.367-4.148-2.116S61.217,15.691,61.509,14.13s9.124-.87,9.124-.87" transform="translate(103.177 21.995)" fill="#ffdb73"/>
          <path id="Trazado_874108" data-name="Trazado 874108" d="M49.446,16.35c.621-.656,1.4-.613,2.432-.5,2.242.252,6.6,1.968,6.9,10.932.345,10.34-2.469,32.046-2.469,35.353s-9.464,2.477-10.774-2.892,1.307-25,.892-28.725c-.367-3.307.118-11.106,3.018-14.17" transform="translate(75.792 26.486)" fill="#ffa698"/>
          <path id="Trazado_874109" data-name="Trazado 874109" d="M54.259,33.126c1.173,1.722,1.018-.137,2.126,2.07s3.7,11.267,6.077,18.506,3.583,8.615,4.17,8.752a6.967,6.967,0,0,1,2.86,1.31c.482.621,2.86,2.517,3.24,3.345a11.646,11.646,0,0,1,1.17,3.548c0,.964-1.62.517-2.239-.171a21.461,21.461,0,0,1-1.792-3.1l.171,3.653S72.111,76,72.456,77.344s-.967.929-1.31.688S67.8,72.654,67.8,72.654s2.515,6.551,2.239,7.2-1.414.552-1.9-.621c-.482,1-1.24.587-2.067-.206s-3.307-5.755-3.307-5.755,1,3.757,1.31,4.48-1.034.9-1.585.07-2.1-5.137-2.517-6.1a16.264,16.264,0,0,1-.86-6.859c-2.207-5.651-12.41-21.438-13.771-30.276s8.91-1.465,8.91-1.465" transform="translate(75.89 50.749)" fill="#ffa698"/>
          <path id="Trazado_874110" data-name="Trazado 874110" d="M61.459,13.678c-.016.321-.337,6.414-.021,7.954.313,1.567,1.693,12.287,2.373,12.812a1.725,1.725,0,0,0,.155.1,13.126,13.126,0,0,0,3.182.857l-1.69-12.94,1.069.329-.643-6.117Z" transform="translate(102.865 22.953)" fill="#b1b4ba"/>
          <path id="Trazado_874111" data-name="Trazado 874111" d="M63.653,22l2.965-1.722-.643-6.119L63.01,15.877Z" transform="translate(105.736 23.753)" fill="#93969c"/>
          <path id="Trazado_874112" data-name="Trazado 874112" d="M64.542,30.978l2.965-1.722-1.693-12.94-2.962,1.725Z" transform="translate(105.471 27.38)" fill="#93969c"/>
          <path id="Trazado_874113" data-name="Trazado 874113" d="M82.085,41.628c-3.08-2.55-4.5-5.2-6.974-9.63a49.014,49.014,0,0,1-2.563-4.834s-1.374-.67-1.738-.522a6.851,6.851,0,0,1-2.5.608c-.774-.08-5.332-.477-5.959-1.374s-.155-1.023-.155-1.023-1.047-.327-1.09-.983a.812.812,0,0,1,.42-.846s-.771-.951-.455-1.508,3.3-1.122,3.3-1.122-.742-1.277-.225-1.61S69.67,16.44,70.058,16.2a5.294,5.294,0,0,1,2.635-.311c.715.171,1.776,2.962,2.317,4.32s12.4,8.872,14.154,12.239,2.8,8.077.244,9.936-7.322-.755-7.322-.755" transform="translate(102.362 26.564)" fill="#ffa698"/>
          <path id="Trazado_874114" data-name="Trazado 874114" d="M68.163,9.025a4.737,4.737,0,0,0-3.407.6c-3.267,1.813-5.544,6.543-5.083,10.565a5.333,5.333,0,0,0,2.37,4.223q4.784,2.744,9.569,5.49a6.352,6.352,0,0,1-2.817-5.016c-.546-4.786,2.159-10.407,6.042-12.56a5.622,5.622,0,0,1,4.049-.712q-5.363-1.294-10.723-2.59" transform="translate(100.037 14.968)" fill="#727997"/>
          <path id="Trazado_874115" data-name="Trazado 874115" d="M69.664,11.977c2.89-1.6,5.562-.016,5.969,3.546s-1.607,7.745-4.5,9.346-5.565.016-5.969-3.546,1.6-7.745,4.5-9.346m-3.337,8.7c.316,2.772,2.4,4.006,4.646,2.758a7.858,7.858,0,0,0,3.5-7.274c-.316-2.772-2.4-4.006-4.644-2.758a7.857,7.857,0,0,0-3.5,7.274" transform="translate(109.269 19.049)" fill="#adb1b7"/>
          <path id="Trazado_874116" data-name="Trazado 874116" d="M65.387,25.567l4.772,8.645c2.073,3.752,6.127,4.954,10.428,2.571,5.691-3.157,9.657-11.4,8.856-18.412-.712-6.221-4.933-9.384-9.85-7.815-.284.088-.659.209-.943.3-.142.043-.329.1-.471.15-.281.088-.659.209-.94.3l-1.414.45c-.281.088-.659.209-.94.3q-2.354.747-4.708,1.5c2.5-.8,4.638.809,5,3.969.407,3.559-1.607,7.745-4.5,9.346-2.183,1.21-4.242.6-5.295-1.3" transform="translate(109.724 17.046)" fill="#d6d7dc"/>
          <path id="Trazado_874117" data-name="Trazado 874117" d="M74.249,13.188c-.142-.062-.335-.145-.479-.209-.07-.029-.166-.07-.238-.1-.145-.064-.335-.147-.479-.206s-.335-.147-.479-.209c-.072-.032-.166-.075-.241-.107-.142-.059-.332-.142-.477-.206a3.081,3.081,0,0,0-2.761.276,7.864,7.864,0,0,0-3.5,7.271,3.473,3.473,0,0,0,2.03,3.091q2.454.9,4.909,1.784a3.362,3.362,0,0,1-1.971-3,7.634,7.634,0,0,1,3.4-7.073,2.991,2.991,0,0,1,2.683-.268q-1.2-.518-2.4-1.039" transform="translate(110.003 20.031)" fill="#a2a5b8"/>
          <path id="Trazado_874118" data-name="Trazado 874118" d="M68.978,19.356c.233,2.027,1.754,2.932,3.4,2.019a5.76,5.76,0,0,0,2.56-5.324c-.233-2.027-1.754-2.932-3.4-2.019a5.76,5.76,0,0,0-2.56,5.324" transform="translate(115.702 22.95)" fill="#f5f0f0"/>
          <path id="Trazado_874119" data-name="Trazado 874119" d="M76.494,15.606c-.037-.035-.086-.083-.121-.121-.075-.07-.171-.166-.244-.238s-.169-.166-.244-.238c-.035-.037-.083-.083-.118-.118-.072-.072-.171-.169-.244-.238s-.169-.169-.241-.238c-.037-.037-.086-.086-.123-.121-.07-.075-.166-.169-.241-.241s-.169-.169-.241-.238c-.037-.035-.086-.083-.12-.121-.075-.072-.169-.166-.244-.238a2.775,2.775,0,0,0-3.465-.265,7.63,7.63,0,0,0-3.4,7.07c.228,2.006,1.411,3.187,2.9,3.152,1.136-.021,2.268-.048,3.4-.072-1.122.024-2.011-.862-2.183-2.37a5.748,5.748,0,0,1,2.56-5.327,2.1,2.1,0,0,1,2.608.2l-.241-.238" transform="translate(113.116 21.338)" fill="#c0c3d1"/>
          <path id="Trazado_874120" data-name="Trazado 874120" d="M76.525,10.66c6.733-3.733,12.962-.035,13.91,8.262S86.691,36.974,79.956,40.708s-12.962.035-13.913-8.262S69.787,14.4,76.525,10.66M67.934,31.4C68.734,38.41,74,41.538,79.69,38.38s9.657-11.4,8.854-18.412S82.478,9.832,76.787,12.987,67.13,24.388,67.934,31.4" transform="translate(110.622 15.446)" fill="#f5f0f0"/>
          <path id="Trazado_874121" data-name="Trazado 874121" d="M71.458,11a6.593,6.593,0,0,0-2.33.8c-3.881,2.153-6.588,7.774-6.042,12.56a7.4,7.4,0,0,0,1.5,3.886Q69.053,33.7,73.52,39.143a12.8,12.8,0,0,1-2.6-6.743c-.948-8.3,3.744-18.05,10.479-21.783A11.328,11.328,0,0,1,85.44,9.232Q78.446,10.12,71.458,11" transform="translate(105.745 15.492)" fill="#e0e0e3"/>
          <path id="Trazado_874122" data-name="Trazado 874122" d="M55.667,43.769v-10.2L67.75,31.142v10.2Zm2.386-8.243v5.329l7.308-1.47V34.056Z" transform="translate(93.414 52.259)" fill="#fde100"/>
        </g>
      </g>
    </g>
  </g>
</svg>
