<svg id="img10" xmlns="http://www.w3.org/2000/svg" xmlns:xlink="http://www.w3.org/1999/xlink" width="505" height="296.509" viewBox="0 0 505 296.509">
  <defs>
    <clipPath id="clip-path">
      <rect id="Rectángulo_401039" data-name="Rectángulo 401039" width="505" height="296.509" fill="none"/>
    </clipPath>
    <clipPath id="clip-path-3">
      <rect id="Rectángulo_401033" data-name="Rectángulo 401033" width="76.887" height="76.887" transform="translate(312.018 29.817)" fill="none"/>
    </clipPath>
    <clipPath id="clip-path-4">
      <path id="Trazado_873750" data-name="Trazado 873750" d="M388.9,68.26a38.443,38.443,0,1,1-38.443-38.443A38.443,38.443,0,0,1,388.9,68.26" fill="none"/>
    </clipPath>
    <linearGradient id="linear-gradient" x1="-4.058" y1="3.469" x2="-4.045" y2="3.469" gradientUnits="objectBoundingBox">
      <stop offset="0" stop-color="#939598"/>
      <stop offset="1" stop-color="#231f20"/>
    </linearGradient>
    <clipPath id="clip-path-5">
      <rect id="Rectángulo_401035" data-name="Rectángulo 401035" width="144.818" height="108.662" transform="translate(258.009 177.074)" fill="none"/>
    </clipPath>
    <clipPath id="clip-path-6">
      <path id="Trazado_873770" data-name="Trazado 873770" d="M393.623,177.074H290.92a9.2,9.2,0,0,0-9.205,9.2v72.377a9.206,9.206,0,0,0,6.75,8.872l-28.845,13a2.727,2.727,0,0,0,1.119,5.213h66.928a5.811,5.811,0,0,0,2.387-.513l38.537-17.363h25.032a9.2,9.2,0,0,0,9.2-9.2V186.278a9.2,9.2,0,0,0-9.2-9.2" fill="none"/>
    </clipPath>
    <linearGradient id="linear-gradient-2" x1="-1.761" y1="1.099" x2="-1.754" y2="1.099" xlink:href="#linear-gradient"/>
    <clipPath id="clip-path-7">
      <rect id="Rectángulo_401037" data-name="Rectángulo 401037" width="63.972" height="74.769" transform="translate(243.971 195.295)" fill="none"/>
    </clipPath>
    <clipPath id="clip-path-8">
      <path id="Trazado_873791" data-name="Trazado 873791" d="M307.936,264.927l-2.824-51.058a4.868,4.868,0,0,0-4.861-4.6c-.156,0-4.738-11.666-4.738-11.666a3.637,3.637,0,0,0-3.386-2.308h-32.34A3.637,3.637,0,0,0,256.4,197.6l-4.581,11.666a4.907,4.907,0,0,0-5.018,4.6l-2.824,51.058a4.869,4.869,0,0,0,4.861,5.137h54.236a4.869,4.869,0,0,0,4.861-5.137" fill="none"/>
    </clipPath>
    <linearGradient id="linear-gradient-3" x1="-3.794" y1="1.354" x2="-3.778" y2="1.354" xlink:href="#linear-gradient"/>
  </defs>
  <g id="Grupo_1099807" data-name="Grupo 1099807" clip-path="url(#clip-path)">
    <g id="Grupo_1099806" data-name="Grupo 1099806">
      <g id="Grupo_1099805" data-name="Grupo 1099805" clip-path="url(#clip-path)">
        <path id="Trazado_873734" data-name="Trazado 873734" d="M46.827,202.854H458.173A46.827,46.827,0,0,1,505,249.681h0a46.827,46.827,0,0,1-46.827,46.827H46.827A46.827,46.827,0,0,1,0,249.682H0a46.827,46.827,0,0,1,46.827-46.827" fill="#8ce2e5"/>
        <path id="Trazado_873735" data-name="Trazado 873735" d="M451.761,267.561H57.391a1.153,1.153,0,1,1,0-2.227h394.37a1.153,1.153,0,1,1,0,2.227" fill="#1a1a1a"/>
        <path id="Trazado_873736" data-name="Trazado 873736" d="M450.859,45.27a.631.631,0,0,0-.514-.708c-1.107-.381-2.21-.777-3.292-1.221a1.306,1.306,0,0,1-.618-.647c-.453-1.051-.865-2.121-1.262-3.2a1.052,1.052,0,0,1,0-.713c.535-1.188,1.121-2.353,1.653-3.542a.75.75,0,0,0-.088-.66c-.892-.953-1.83-1.861-2.733-2.8a.537.537,0,0,0-.742-.12q-1.692.838-3.411,1.618a1.144,1.144,0,0,1-.778.036q-1.648-.593-3.261-1.276a1.21,1.21,0,0,1-.616-.568c-.446-1.1-.847-2.229-1.232-3.356-.124-.362-.27-.537-.692-.527-1.26.032-2.522.029-3.783,0a.629.629,0,0,0-.7.519c-.38,1.106-.808,2.2-1.186,3.3a.972.972,0,0,1-.706.675c-1.04.361-2.069.769-3.069,1.228a.983.983,0,0,1-.975-.008c-1.1-.556-2.232-1.069-3.337-1.622a.58.58,0,0,0-.8.139c-.871.91-1.76,1.806-2.676,2.674a.612.612,0,0,0-.117.856h0c.55,1.109,1.087,2.224,1.582,3.356a1.142,1.142,0,0,1-.021.82q-.689,1.61-1.474,3.178a1.347,1.347,0,0,1-.638.631c-1.175.447-2.369.846-3.566,1.236a.619.619,0,0,0-.525.7c.029,1.26.024,2.522,0,3.783a.573.573,0,0,0,.47.658c1.219.393,2.435.8,3.632,1.254a1.328,1.328,0,0,1,.622.65c.483,1.015.882,2.07,1.387,3.072a1.084,1.084,0,0,1,.023,1.1c-.522,1.047-1,2.117-1.518,3.166a.618.618,0,0,0,.134.856q1.371,1.3,2.675,2.675a.61.61,0,0,0,.853.123c1.088-.539,2.2-1.039,3.283-1.579a.968.968,0,0,1,.976.025c1.045.516,2.136.943,3.192,1.442a1.14,1.14,0,0,1,.537.563c.449,1.2.863,2.411,1.264,3.627a.586.586,0,0,0,.664.476c1.261-.021,2.522-.025,3.783,0a.606.606,0,0,0,.691-.507v-.009c.384-1.2.8-2.388,1.244-3.564a1.229,1.229,0,0,1,.6-.6q1.617-.75,3.275-1.421a1.1,1.1,0,0,1,.771-.015c1.287.572,2.557,1.188,3.88,1.812,1.036-1.05,2.071-2.078,3.071-3.14a.755.755,0,0,0,.06-.67c-.513-1.149-1.082-2.274-1.6-3.42a1.089,1.089,0,0,1-.051-.727c.39-1.123.8-2.239,1.255-3.339a1.2,1.2,0,0,1,.59-.6c1.1-.446,2.229-.851,3.354-1.242a.59.59,0,0,0,.465-.671c-.023-1.26-.026-2.522,0-3.782M431.37,54.527a7.357,7.357,0,1,1,.048,0h-.048" fill="#3656b3"/>
        <path id="Trazado_873737" data-name="Trazado 873737" d="M55.631,59.075a.421.421,0,0,1-.1-.012.438.438,0,0,1-.323-.528v0c.487-2.013,1.054-4.018,1.685-5.959a.439.439,0,0,1,.835.271c-.625,1.92-1.185,3.9-1.668,5.894a.439.439,0,0,1-.426.335m3.815-11.7a.439.439,0,0,1-.405-.608c.8-1.922,1.688-3.81,2.629-5.611a.439.439,0,1,1,.778.407c-.931,1.779-1.8,3.644-2.6,5.542a.438.438,0,0,1-.4.27m87.7-5.444a5.552,5.552,0,0,1-3.412-1.36.439.439,0,0,1,.554-.68c1.746,1.422,3.777,1.551,4.889.208a.439.439,0,0,1,.676.56,3.414,3.414,0,0,1-2.707,1.273M65.16,36.476a.439.439,0,0,1-.369-.676c1.129-1.751,2.343-3.448,3.607-5.042a.439.439,0,1,1,.689.545c-1.248,1.571-2.444,3.244-3.557,4.972a.439.439,0,0,1-.369.2m75.979-1.087a.439.439,0,0,1-.435-.381,8.865,8.865,0,0,1-.076-1.185,9.826,9.826,0,0,1,.474-2.976c.217-.688.465-1.374.733-2.038a.439.439,0,0,1,.813.329c-.259.643-.5,1.308-.711,1.975a8.983,8.983,0,0,0-.431,2.712,8.115,8.115,0,0,0,.068,1.068.439.439,0,0,1-.375.493h0a.54.54,0,0,1-.057,0m9.483-.479a.439.439,0,0,1-.436-.39,13.834,13.834,0,0,0-2.017-5.565.439.439,0,0,1,.753-.452,14.728,14.728,0,0,1,2.136,5.92.439.439,0,0,1-.388.484h-.049m72.51-2.485a.439.439,0,0,1-.4-.257,17.1,17.1,0,0,0-2.153-3.4.438.438,0,0,1,.688-.543,17.867,17.867,0,0,1,2.263,3.583.439.439,0,0,1-.4.62M72.8,26.847a.438.438,0,0,1-.313-.745,56.59,56.59,0,0,1,4.568-4.19.439.439,0,0,1,.557.678,55.934,55.934,0,0,0-4.5,4.125.438.438,0,0,1-.313.132m143.906-2.4a.435.435,0,0,1-.3-.12c-1.241-1.17-2.53-2.3-3.668-3.3l-.908-.8a.439.439,0,0,1,.582-.658l.906.8c1.143,1,2.437,2.141,3.69,3.321a.439.439,0,0,1-.3.758m-71.971-.1a.439.439,0,0,1-.315-.133,42.3,42.3,0,0,0-4.57-4.026.44.44,0,0,1,.534-.7,43.71,43.71,0,0,1,4.409,3.849,28.524,28.524,0,0,1,4.129-4.691.438.438,0,1,1,.591.647,27.608,27.608,0,0,0-3.993,4.535.4.4,0,0,1-.362.187.425.425,0,0,1-.118.2.436.436,0,0,1-.3.124M82.3,19.07a.439.439,0,0,1-.238-.807,53.111,53.111,0,0,1,5.4-3.044.439.439,0,0,1,.385.788A51.985,51.985,0,0,0,82.538,19a.435.435,0,0,1-.237.07m52.711-2.235a.437.437,0,0,1-.22-.059,43.294,43.294,0,0,0-5.472-2.67.439.439,0,0,1,.328-.814,44.187,44.187,0,0,1,5.584,2.725.439.439,0,0,1-.22.818m72.164-.15a.44.44,0,0,1-.229-.064,42.826,42.826,0,0,0-5.415-2.784.439.439,0,0,1,.346-.806,43.411,43.411,0,0,1,5.527,2.842.438.438,0,0,1-.229.813m-53.036-.958a.439.439,0,0,1-.229-.813,38.608,38.608,0,0,1,5.56-2.787.439.439,0,1,1,.348.806l-.017.007a37.627,37.627,0,0,0-5.434,2.723.44.44,0,0,1-.229.064m-60.8-2.039a.439.439,0,0,1-.144-.853,53.82,53.82,0,0,1,5.963-1.7.439.439,0,0,1,.191.856,53.051,53.051,0,0,0-5.866,1.67.441.441,0,0,1-.144.025m30.3-1.47a.446.446,0,0,1-.109-.014,48.773,48.773,0,0,0-5.989-1.147.439.439,0,0,1,.112-.87,49.563,49.563,0,0,1,6.1,1.167.439.439,0,0,1-.109.863m72.27-.42a.426.426,0,0,1-.123-.018,57.109,57.109,0,0,0-5.944-1.4.438.438,0,0,1-.353-.509h0a.43.43,0,0,1,.49-.358l.02,0a58.072,58.072,0,0,1,6.034,1.421.439.439,0,0,1-.123.86m-30.426-.735a.439.439,0,0,1-.108-.864,52.8,52.8,0,0,1,6.094-1.163.434.434,0,0,1,.491.369v.009a.44.44,0,0,1-.378.492,51.658,51.658,0,0,0-5.991,1.144.438.438,0,0,1-.108.014M105.323,11a.439.439,0,0,1-.049-.875c1.08-.119,2.182-.209,3.277-.268.9-.049,1.813-.073,2.717-.073h.2a.439.439,0,0,1,0,.877h-.2c-.889,0-1.787.024-2.67.072-1.079.058-2.164.147-3.227.265h-.048m78.5-1.394a61.1,61.1,0,0,0-6.142-.166.449.449,0,0,1-.448-.428.439.439,0,0,1,.429-.449,61.374,61.374,0,0,1,6.2.167.438.438,0,1,1-.034.876" fill="#1a1a1a"/>
        <path id="Trazado_873738" data-name="Trazado 873738" d="M184.215,36.6a5.273,5.273,0,1,0,5.144-5.4,5.274,5.274,0,0,0-5.144,5.4h0" fill="#ffd7b8"/>
        <path id="Trazado_873739" data-name="Trazado 873739" d="M72.494,42.06a5.273,5.273,0,1,0,5.143-5.4h0a5.273,5.273,0,0,0-5.145,5.4v0" fill="#1a1a1a"/>
        <path id="Trazado_873740" data-name="Trazado 873740" d="M106.686,59.661l4.5-4.5a1.273,1.273,0,1,0-1.8-1.8l-4.5,4.5-4.5-4.5a1.273,1.273,0,0,0-1.8,1.8l4.5,4.5-4.5,4.5a1.273,1.273,0,0,0,1.8,1.8l4.5-4.5,4.5,4.5a1.273,1.273,0,1,0,1.8-1.8Z" fill="#ff7c48"/>
        <path id="Trazado_873741" data-name="Trazado 873741" d="M140.256,10.237,146.774,0l6.515,10.237Z" fill="#ffb850"/>
        <path id="Trazado_873742" data-name="Trazado 873742" d="M44.546,83.829h96.235a9.879,9.879,0,0,1,9.878,9.878V114.79a9.879,9.879,0,0,1-9.878,9.878H129.8c-.83.931-2.086,3.246.533,7.3,0,0-6.517.178-10.95-7.3H44.546a9.878,9.878,0,0,1-9.878-9.877V93.707a9.879,9.879,0,0,1,9.878-9.878" fill="#d2e1f1"/>
        <path id="Trazado_873743" data-name="Trazado 873743" d="M99.376,103.69a6.712,6.712,0,1,1-6.712-6.712,6.712,6.712,0,0,1,6.712,6.712" fill="#ffb850"/>
        <path id="Trazado_873744" data-name="Trazado 873744" d="M71.435,103.69a6.712,6.712,0,1,1-6.712-6.712,6.712,6.712,0,0,1,6.712,6.712" fill="#3656b3"/>
        <path id="Trazado_873745" data-name="Trazado 873745" d="M127.314,103.69a6.712,6.712,0,1,1-6.711-6.712,6.711,6.711,0,0,1,6.711,6.712" fill="#29c7cc"/>
        <path id="Trazado_873746" data-name="Trazado 873746" d="M95.592,166.945a.457.457,0,0,0-.373-.513c-.8-.277-1.6-.563-2.387-.886a.953.953,0,0,1-.449-.469c-.329-.762-.628-1.538-.914-2.318a.753.753,0,0,1,0-.517c.387-.861.813-1.706,1.2-2.569a.54.54,0,0,0-.064-.479c-.647-.691-1.327-1.35-1.982-2.033a.39.39,0,0,0-.538-.087c-.818.406-1.641.8-2.474,1.174a.823.823,0,0,1-.564.026q-1.2-.431-2.366-.926a.878.878,0,0,1-.446-.412c-.323-.8-.614-1.617-.894-2.434-.09-.263-.2-.39-.5-.382-.914.023-1.829.021-2.744,0a.457.457,0,0,0-.51.376c-.275.8-.586,1.592-.859,2.4a.709.709,0,0,1-.512.49c-.755.262-1.5.558-2.227.891a.713.713,0,0,1-.707-.006c-.8-.4-1.618-.775-2.42-1.176a.419.419,0,0,0-.579.1c-.633.66-1.278,1.31-1.941,1.939a.443.443,0,0,0-.086.621h0c.4.8.788,1.613,1.147,2.434a.828.828,0,0,1-.015.6q-.5,1.167-1.07,2.305a.973.973,0,0,1-.462.458c-.852.324-1.719.614-2.587.9a.45.45,0,0,0-.381.5c.021.914.018,1.829,0,2.744a.415.415,0,0,0,.341.478c.884.285,1.766.579,2.634.91a.969.969,0,0,1,.451.471c.35.736.639,1.5,1,2.228a.79.79,0,0,1,.017.8c-.379.759-.725,1.535-1.1,2.3a.449.449,0,0,0,.1.621q.993.947,1.94,1.94a.442.442,0,0,0,.618.089c.789-.391,1.593-.753,2.382-1.145a.7.7,0,0,1,.707.018c.758.375,1.549.684,2.315,1.046a.828.828,0,0,1,.39.408c.325.87.626,1.749.917,2.631a.426.426,0,0,0,.482.345c.914-.015,1.83-.018,2.744,0a.44.44,0,0,0,.5-.371v0c.279-.869.577-1.732.9-2.585a.9.9,0,0,1,.432-.435c.782-.366,1.575-.707,2.375-1.031a.8.8,0,0,1,.559-.011c.934.415,1.854.862,2.815,1.314.751-.762,1.5-1.507,2.227-2.277a.545.545,0,0,0,.043-.486c-.372-.834-.784-1.649-1.16-2.481a.783.783,0,0,1-.037-.527c.283-.815.584-1.624.911-2.422a.87.87,0,0,1,.428-.436c.8-.324,1.615-.617,2.432-.9a.427.427,0,0,0,.336-.486c-.016-.914-.018-1.829,0-2.743m-14.133,6.7a5.336,5.336,0,1,1,.035,0H81.46" fill="#29c7cc"/>
        <path id="Trazado_873747" data-name="Trazado 873747" d="M325.263,95.231s-12.018-65.078-78.592-61.208c-63.8,3.708-75.087,54.416-75.087,77.274,0,0-64.038,27.491-30.892,98.722,22.355,48.04,79.817,39.541,118.94,39.541s137.976,11.958,156.51-13.109,2.895-104.828-32.463-129.21c-30.647-21.135-58.416-12.01-58.416-12.01" fill="#cbf4e1"/>
        <path id="Trazado_873748" data-name="Trazado 873748" d="M388.9,68.26a38.443,38.443,0,1,1-38.444-38.444A38.444,38.444,0,0,1,388.9,68.26" fill="#0dba98"/>
        <path id="Trazado_873749" data-name="Trazado 873749" d="M342.465,83.827a3.279,3.279,0,0,1-2.291-.93L325.693,68.825a3.288,3.288,0,0,1,4.582-4.716l12.213,11.867L370.381,49.4a3.288,3.288,0,0,1,4.536,4.762L344.733,82.92a3.279,3.279,0,0,1-2.268.907" fill="#fffeeb"/>
        <g id="Grupo_1099794" data-name="Grupo 1099794" opacity="0.5" style="mix-blend-mode: soft-light;isolation: isolate">
          <g id="Grupo_1099793" data-name="Grupo 1099793">
            <g id="Grupo_1099792" data-name="Grupo 1099792" clip-path="url(#clip-path-3)">
              <g id="Grupo_1099791" data-name="Grupo 1099791">
                <g id="Grupo_1099790" data-name="Grupo 1099790" clip-path="url(#clip-path-4)">
                  <rect id="Rectángulo_401032" data-name="Rectángulo 401032" width="76.887" height="76.887" transform="translate(312.018 29.817)" fill="url(#linear-gradient)"/>
                </g>
              </g>
            </g>
          </g>
        </g>
        <path id="Trazado_873751" data-name="Trazado 873751" d="M240.054,113.142a13.79,13.79,0,1,0,11.472-15.77,13.791,13.791,0,0,0-11.472,15.77" fill="#28121f"/>
        <path id="Trazado_873752" data-name="Trazado 873752" d="M240.933,97.507a8.377,8.377,0,1,0,6.969-9.581,8.378,8.378,0,0,0-6.969,9.581" fill="#28121f"/>
        <path id="Trazado_873753" data-name="Trazado 873753" d="M137.72,231.583c-14.272-16.9-19.962-49.625-5.282-73.375,19.323-31.261,64.631-45.066,124.637-45.36l4.469,55.692c-55.207,2.685-87.089,5.019-89.39,24.609-2.018,17.183,20.865,25.689,38.477,25.689v37.6c-22.558.425-51.571.425-72.911-24.852" fill="#3180b5"/>
        <path id="Trazado_873754" data-name="Trazado 873754" d="M257.076,112.848q-12.732.063-24.55.948c-7.83,6.881-17.43,18.639-20.064,35.02-1.187,7.387-.756,16.339.057,23.158,13.321-1.6,29.751-2.5,49.026-3.434Z" fill="#1c5482"/>
        <path id="Trazado_873755" data-name="Trazado 873755" d="M280.35,115.677a18.147,18.147,0,1,0,15.1-20.754,18.147,18.147,0,0,0-15.1,20.754" fill="#28121f"/>
        <path id="Trazado_873756" data-name="Trazado 873756" d="M282.715,95.535a8.554,8.554,0,1,0,7.117-9.783,8.554,8.554,0,0,0-7.117,9.783" fill="#28121f"/>
        <path id="Trazado_873757" data-name="Trazado 873757" d="M292.02,101.793a9.657,9.657,0,1,1,1.524-.12,9.811,9.811,0,0,1-1.524.12m.025-17.112a7.464,7.464,0,0,0-4.4,13.5,7.464,7.464,0,1,0,4.4-13.5" fill="#28121f"/>
        <path id="Trazado_873758" data-name="Trazado 873758" d="M350.459,261.606H217.02l7.249-35.689,126.192-.2Z" fill="#28121f"/>
        <path id="Trazado_873759" data-name="Trazado 873759" d="M339.3,127.529c-18.666-13.247-38.768-17.658-58.248-17.658-10.569,0-31.211,1.07-39.43,5.345-2.578,1.341-20.354,13.806-22.706,41.85A48.893,48.893,0,0,0,224.269,184v41.915h61.594c26.9,27.678,84.333,27.644,99.618,0,19.453-35.181-9.349-72.249-46.182-98.389" fill="#3180b5"/>
        <path id="Trazado_873760" data-name="Trazado 873760" d="M268.671,135.6c-.884,0-1.77-.033-2.637-.1-8.292-.627-15.138-3.191-20.345-7.617a25.733,25.733,0,0,1-7.529-10.655,1.09,1.09,0,1,1,2.045-.755,23.54,23.54,0,0,0,6.9,9.748c4.849,4.122,11.275,6.513,19.1,7.1.812.061,1.643.093,2.47.093,8.591,0,16.357-3.355,21.36-6.169a51.148,51.148,0,0,0,12.911-9.977l4.339-4.9a1.09,1.09,0,1,1,1.633,1.445l-4.339,4.9A53.373,53.373,0,0,1,291.1,129.153c-5.23,2.942-13.366,6.449-22.427,6.449" fill="#1c5482"/>
        <path id="Trazado_873761" data-name="Trazado 873761" d="M299.658,114.371l2.323-2.627a113.2,113.2,0,0,0-20.93-1.873c-9.645,0-27.677.891-37,4.3a19.122,19.122,0,0,0,5.892,8.717c4.128,3.51,9.71,5.553,16.589,6.074.7.053,1.422.08,2.14.08,7.642,0,14.665-3.048,19.212-5.6a48.173,48.173,0,0,0,11.777-9.062" fill="#fffeeb"/>
        <path id="Trazado_873762" data-name="Trazado 873762" d="M295.559,110.745a117.429,117.429,0,0,0-14.508-.874c-8.049,0-21.937.621-31.734,2.8.859,2.675,4.378,9.823,17.625,10.826,12.358.936,24.887-8.541,28.617-12.756" fill="#ffa194"/>
        <path id="Trazado_873763" data-name="Trazado 873763" d="M151.959,190.7a31.417,31.417,0,0,0-21.14-29.688c-10.125,18.844-8.383,42.461-.2,59.446A31.42,31.42,0,0,0,151.959,190.7" fill="#0dba98"/>
        <path id="Trazado_873764" data-name="Trazado 873764" d="M263.464,227.008a1.089,1.089,0,0,1-1.084-.995c-.031-.342-3.025-34.417-3.355-50.7-.488-24.168,4.235-41.2,4.283-41.364a1.09,1.09,0,1,1,2.1.592c-.047.167-4.682,16.906-4.2,40.728.328,16.205,3.315,50.207,3.345,50.548a1.089,1.089,0,0,1-.99,1.182c-.032,0-.065,0-.1,0" fill="#1c5482"/>
        <path id="Trazado_873765" data-name="Trazado 873765" d="M332.4,185.778a1.09,1.09,0,0,1-.979-.61c-4.411-8.982-23.7-27.384-23.9-27.569a1.09,1.09,0,0,1,1.5-1.58c.806.765,19.772,18.859,24.353,28.188a1.091,1.091,0,0,1-.978,1.571" fill="#1c5482"/>
        <path id="Trazado_873766" data-name="Trazado 873766" d="M393.623,177.074H290.92a9.2,9.2,0,0,0-9.205,9.205v72.377a9.207,9.207,0,0,0,6.751,8.871l-28.846,13a2.727,2.727,0,0,0,1.12,5.213h66.928a5.813,5.813,0,0,0,2.387-.512l38.536-17.363h25.032a9.205,9.205,0,0,0,9.205-9.2V186.279a9.205,9.205,0,0,0-9.205-9.205" fill="#315884"/>
        <path id="Trazado_873767" data-name="Trazado 873767" d="M368.157,268.616H288.466a1.09,1.09,0,0,1,0-2.18h79.691a1.09,1.09,0,1,1,0,2.18" fill="#85b6ec"/>
        <path id="Trazado_873768" data-name="Trazado 873768" d="M293.62,260.247H352.1a3.862,3.862,0,0,0,3.861-3.862V188.55a3.862,3.862,0,0,0-3.861-3.862H293.62a3.862,3.862,0,0,0-3.862,3.862v67.835a3.862,3.862,0,0,0,3.862,3.862" fill="#28121f"/>
        <path id="Trazado_873769" data-name="Trazado 873769" d="M395.576,185.778H367.5a1.09,1.09,0,1,1,0-2.18h28.073a1.09,1.09,0,0,1,0,2.18" fill="#85b6ec"/>
        <g id="Grupo_1099799" data-name="Grupo 1099799" opacity="0.5" style="mix-blend-mode: soft-light;isolation: isolate">
          <g id="Grupo_1099798" data-name="Grupo 1099798">
            <g id="Grupo_1099797" data-name="Grupo 1099797" clip-path="url(#clip-path-5)">
              <g id="Grupo_1099796" data-name="Grupo 1099796">
                <g id="Grupo_1099795" data-name="Grupo 1099795" clip-path="url(#clip-path-6)">
                  <rect id="Rectángulo_401034" data-name="Rectángulo 401034" width="145.886" height="108.662" transform="translate(256.941 177.074)" fill="url(#linear-gradient-2)"/>
                </g>
              </g>
            </g>
          </g>
        </g>
        <path id="Trazado_873771" data-name="Trazado 873771" d="M247.648,81.149a18.942,18.942,0,1,0,15.758-21.663,18.941,18.941,0,0,0-15.758,21.663" fill="#28121f"/>
        <path id="Trazado_873772" data-name="Trazado 873772" d="M241.667,84.413c1.767,10.312,11.132,14.125,21.467,12.494a18.944,18.944,0,0,0,15.758-21.664c-1.631-10.333-6.213-16.967-16.546-15.336s-22.862,11.757-20.679,24.506" fill="#28121f"/>
        <path id="Trazado_873773" data-name="Trazado 873773" d="M263.465,113.143l-1.587-10.055c-14.31,2.258-16.8-3.489-18.087-15.611-.543-5.138-.91-12.3,5.172-18.578a17.137,17.137,0,0,1,27.512,3.9c.066.127.133.256.2.387,3.318,6.642,5.044,12.93,1.488,18.04l3.017,19.117Z" fill="#ffa194"/>
        <path id="Trazado_873774" data-name="Trazado 873774" d="M269.9,103.727a18.05,18.05,0,0,1-6.954,6.144l-1.07-6.783,6.812-1.178a1.194,1.194,0,0,1,1.212,1.817" fill="#db5349"/>
        <path id="Trazado_873775" data-name="Trazado 873775" d="M284.94,74.422l1.917,12.153L272.043,94.7l-1.065-7.707Z" fill="#28121f"/>
        <path id="Trazado_873776" data-name="Trazado 873776" d="M250.848,93.15a1.088,1.088,0,0,1-.51-.127l-2.029-1.077a1.831,1.831,0,0,1,.573-3.426l1.166-.183a4.865,4.865,0,0,0-1.592-3.631,1.09,1.09,0,0,1,1.418-1.656,7.373,7.373,0,0,1,2.291,6.4,1.091,1.091,0,0,1-.907.906l-1,.158,1.1.586a1.09,1.09,0,0,1-.512,2.053" fill="#db5349"/>
        <path id="Trazado_873777" data-name="Trazado 873777" d="M251.25,96.144a7.367,7.367,0,0,1-2.451-.424,1.09,1.09,0,0,1,.785-2.034c.116.043,2.635.963,4.122-.783a1.09,1.09,0,1,1,1.66,1.413,5.214,5.214,0,0,1-4.116,1.828" fill="#db5349"/>
        <path id="Trazado_873778" data-name="Trazado 873778" d="M256.915,82.845c.009-.02-1.989-.891-1.989-.891a3.417,3.417,0,0,1,5.639-.791l-1.686,1.383a1.247,1.247,0,0,0-1.964.3" fill="#28121f"/>
        <path id="Trazado_873779" data-name="Trazado 873779" d="M246.358,84.868c.009-.02-1.99-.891-1.99-.891a3.419,3.419,0,0,1,5.64-.791l-1.686,1.383a1.247,1.247,0,0,0-1.964.3" fill="#28121f"/>
        <path id="Trazado_873780" data-name="Trazado 873780" d="M270.314,86.745s-16.872-9.339-20.7-18.485c0,0,5.954-7.794,15.428-6.185,6.872,1.167,15.359,13.642,16.136,17.633s-10.864,7.037-10.864,7.037" fill="#28121f"/>
        <path id="Trazado_873781" data-name="Trazado 873781" d="M295.224,100.254A13.234,13.234,0,1,1,283.4,85.745a13.234,13.234,0,0,1,11.822,14.509" fill="#28121f"/>
        <path id="Trazado_873782" data-name="Trazado 873782" d="M241.535,80.383l41.95-10.29s-3.588-8.791-9.444-13.94c-3.924-3.449-25.937.58-30.892,4.055-4.537,3.181-2.7,14.866-1.614,20.175" fill="#ffb14c"/>
        <path id="Trazado_873783" data-name="Trazado 873783" d="M272.868,72.7l-46.411,10.58a1.223,1.223,0,0,0,.056,2.4c10.518,1.865,33.872,3.729,46.355-12.976" fill="#315884"/>
        <path id="Trazado_873784" data-name="Trazado 873784" d="M272.475,72.068a1.09,1.09,0,0,1-1.066-.869c-1.679-8.071-4.378-12.648-8.022-13.6a1.09,1.09,0,0,1,.553-2.109c4.574,1.2,7.715,6.194,9.6,15.269a1.09,1.09,0,0,1-.845,1.289,1.141,1.141,0,0,1-.223.023" fill="#e87323"/>
        <path id="Trazado_873785" data-name="Trazado 873785" d="M256.428,68.26a5.53,5.53,0,1,1-5.53-5.53,5.53,5.53,0,0,1,5.53,5.53" fill="#fffeeb"/>
        <path id="Trazado_873786" data-name="Trazado 873786" d="M369.61,255.98a1.09,1.09,0,0,1-1.09-1.09V191.3a1.09,1.09,0,1,1,2.18,0V254.89a1.09,1.09,0,0,1-1.09,1.09" fill="#85b6ec"/>
        <path id="Trazado_873787" data-name="Trazado 873787" d="M295.513,197.6a3.636,3.636,0,0,0-3.386-2.308h-32.34A3.637,3.637,0,0,0,256.4,197.6l-4.738,12.065h48.588Z" fill="#e87323"/>
        <path id="Trazado_873788" data-name="Trazado 873788" d="M305.112,213.869l2.823,51.059a4.867,4.867,0,0,1-4.86,5.136H248.839a4.868,4.868,0,0,1-4.861-5.136l2.824-51.059a4.868,4.868,0,0,1,4.86-4.6h48.589a4.869,4.869,0,0,1,4.861,4.6" fill="#ffb14c"/>
        <path id="Trazado_873789" data-name="Trazado 873789" d="M290.151,239.667a14.194,14.194,0,1,1-14.193-14.193,14.193,14.193,0,0,1,14.193,14.193" fill="#fffeeb"/>
        <path id="Trazado_873790" data-name="Trazado 873790" d="M292.575,242.734a9.356,9.356,0,0,1-6.129-2.183,7.537,7.537,0,0,0-9.71,0,9.694,9.694,0,0,1-12.257,0,7.232,7.232,0,0,0-4.855-1.772,1.09,1.09,0,0,1,0-2.18,9.346,9.346,0,0,1,6.129,2.183,7.536,7.536,0,0,0,9.709,0,9.7,9.7,0,0,1,12.258,0,7.236,7.236,0,0,0,4.855,1.772,1.09,1.09,0,1,1,0,2.18" fill="#ffb14c"/>
        <g id="Grupo_1099804" data-name="Grupo 1099804" opacity="0.5" style="mix-blend-mode: soft-light;isolation: isolate">
          <g id="Grupo_1099803" data-name="Grupo 1099803">
            <g id="Grupo_1099802" data-name="Grupo 1099802" clip-path="url(#clip-path-7)">
              <g id="Grupo_1099801" data-name="Grupo 1099801">
                <g id="Grupo_1099800" data-name="Grupo 1099800" clip-path="url(#clip-path-8)">
                  <rect id="Rectángulo_401036" data-name="Rectángulo 401036" width="64.266" height="74.769" transform="translate(243.824 195.295)" fill="url(#linear-gradient-3)"/>
                </g>
              </g>
            </g>
          </g>
        </g>
        <path id="Trazado_873792" data-name="Trazado 873792" d="M297.465,27.376a4.136,4.136,0,0,1-1.721-.388,5.521,5.521,0,0,1-3.131-4.633c-.06-2.491,1.435-4.979,4.1-6.824a14.354,14.354,0,0,1,1.49-.9q-2.648-4.476-9.468-7.625c-8.166-3.762-17.609-4.571-20.308-4.729a54.4,54.4,0,0,0-37.952,12.275,1.09,1.09,0,1,1-1.4-1.668A56.6,56.6,0,0,1,268.555.1c2.8.164,12.58,1,21.093,4.925,5.025,2.314,8.575,5.271,10.553,8.742a15.4,15.4,0,0,1,10.5.223A15.154,15.154,0,0,1,320.15,24.48a1.09,1.09,0,0,1-2.119.514,12.975,12.975,0,0,0-8.1-8.968,13.239,13.239,0,0,0-8.787-.275,14.132,14.132,0,0,1,.884,5.841,6.535,6.535,0,0,1-2.067,4.856,3.872,3.872,0,0,1-2.492.928M299.142,16.6a12.14,12.14,0,0,0-1.187.724c-2.022,1.4-3.2,3.26-3.162,4.978a3.331,3.331,0,0,0,1.855,2.7,1.7,1.7,0,0,0,1.918-.235,4.628,4.628,0,0,0,1.281-3.295,12.08,12.08,0,0,0-.7-4.874" fill="#0dba98"/>
        <path id="Trazado_873793" data-name="Trazado 873793" d="M321.009,165.691s-7.712-5.278-13.761-.129c0,0-4.239-3.015-8.629-1.783a11.078,11.078,0,0,0-6.256-.473c-5.58.958-10.719,6.958-13.261,10.023-3.647,4.4-6.543,8.837-3.186,11.805,3.851,3.4,10.985-3.5,15.109-7.158a75.687,75.687,0,0,0-2.162,9.038c-.763,4.6.622,8.166,4.483,8.288,1.913.06,3.446-1.11,4.726-3.119.475,3.728,1.918,7.128,5.58,7.279,4.6.189,7.032-4.348,8.371-8.849.661,2.493,2.04,4.421,4.724,4.689,5.753.572,8.769-6.957,11.674-18.228l14.806-.057s-7.3-17.761-22.218-11.326" fill="#ffa194"/>
        <path id="Trazado_873794" data-name="Trazado 873794" d="M312.023,191.7a1.093,1.093,0,0,1-1.09-1.107c.325-21.067,9.215-25.7,9.593-25.883a1.09,1.09,0,0,1,.972,1.952,12.061,12.061,0,0,0-4.045,4.5c-1.893,3.211-4.182,9.194-4.34,19.462a1.091,1.091,0,0,1-1.09,1.073" fill="#db5349"/>
        <path id="Trazado_873795" data-name="Trazado 873795" d="M290.7,179.358a1.129,1.129,0,0,1-1.07-1.3c2.356-11.783,8.22-15.1,8.469-15.233a1.09,1.09,0,0,1,1.049,1.912c-.09.052-5.251,3.1-7.38,13.748a1.092,1.092,0,0,1-1.068.877" fill="#db5349"/>
        <path id="Trazado_873796" data-name="Trazado 873796" d="M298.073,193.273a1.106,1.106,0,0,1-1.089-1.164c1.351-19.891,9.206-27.068,9.541-27.364a1.09,1.09,0,0,1,1.448,1.63,20.954,20.954,0,0,0-3.912,5.755c-1.865,3.724-4.23,10.239-4.9,20.127a1.091,1.091,0,0,1-1.087,1.016" fill="#db5349"/>
        <path id="Trazado_873797" data-name="Trazado 873797" d="M328.421,177.074l.411-1.242a3.309,3.309,0,0,1,4.857-1.791l4.942,2.994Z" fill="#db5349"/>
        <path id="Trazado_873798" data-name="Trazado 873798" d="M275.957,251.189a4.15,4.15,0,0,0,2.715-2.348c2.787-7.347-3.169-10.972-21.431-17.436-8.919-3.157-11.207-3.649-11.207-3.649l.583-10.539s-3.41-.049-10.743.668c-4.524.442-12.034.963-12.034.963l-13.209-.01v37.6l13.788,2.144s13.346,9.774,18.921,13.365c6.693,4.312,10.3,4.147,11.766,2.541,1.085-1.192,3.034-3.6-3.21-8.41,1.467.648,3.442.807,5.6,1.451,9.649,2.874,13-2.146,12.1-5.042,4.569.837,7.372.794,9.332-2.832,1.982-3.669-.837-7.242-2.973-8.464" fill="#ffa194"/>
        <path id="Trazado_873799" data-name="Trazado 873799" d="M275.957,252.279a1.09,1.09,0,0,1-.4-.078l-27.635-11.049a1.09,1.09,0,1,1,.809-2.025l27.635,11.049a1.09,1.09,0,0,1-.4,2.1" fill="#db5349"/>
        <path id="Trazado_873800" data-name="Trazado 873800" d="M269.6,263.574a1.083,1.083,0,0,1-.373-.066l-26.139-9.52a1.09,1.09,0,1,1,.747-2.048l26.138,9.519a1.09,1.09,0,0,1-.373,2.115" fill="#db5349"/>
        <path id="Trazado_873801" data-name="Trazado 873801" d="M254.536,268.292a1.083,1.083,0,0,1-.428-.088l-13.119-5.6a1.09,1.09,0,0,1,.855-2.005l13.12,5.6a1.09,1.09,0,0,1-.428,2.093" fill="#db5349"/>
        <path id="Trazado_873802" data-name="Trazado 873802" d="M246.034,227.755l-3.48-.836a1.36,1.36,0,0,1-.783-2.123l4.791-6.59Z" fill="#db5349"/>
        <path id="Trazado_873803" data-name="Trazado 873803" d="M275.559,87.28a5.272,5.272,0,1,1-4.71-5.78,5.272,5.272,0,0,1,4.71,5.78" fill="#ffa194"/>
        <path id="Trazado_873804" data-name="Trazado 873804" d="M273.529,87.072a3.232,3.232,0,1,1-2.887-3.542,3.232,3.232,0,0,1,2.887,3.542" fill="#db5349"/>
        <path id="Trazado_873805" data-name="Trazado 873805" d="M236.611,147.517a12.874,12.874,0,0,0-12.873,12.874c0,5.58,7.932,15.117,11.343,18.961a2.046,2.046,0,0,0,3.06,0c3.412-3.844,11.343-13.381,11.343-18.961a12.873,12.873,0,0,0-12.873-12.874m0,19.872a7,7,0,1,1,7-7,7,7,0,0,1-7,7" fill="#fffeeb"/>
        <path id="Trazado_873806" data-name="Trazado 873806" d="M281.74,107.356a9.593,9.593,0,0,1-6.817-3.376c-2.871-3.364-2.584-8.131-2.571-8.333a1.09,1.09,0,0,1,2.175.146c0,.07-.221,4.1,2.055,6.772a7.385,7.385,0,0,0,5.164,2.611,1.09,1.09,0,0,1-.006,2.18" fill="#70529e"/>
        <path id="Trazado_873807" data-name="Trazado 873807" d="M281.689,101.13a1.086,1.086,0,0,1-.439-.093,5.474,5.474,0,0,1-3.214-4.836,1.09,1.09,0,0,1,2.18-.007,3.29,3.29,0,0,0,1.913,2.847,1.091,1.091,0,0,1-.44,2.089" fill="#70529e"/>
        <path id="Trazado_873808" data-name="Trazado 873808" d="M249.291,87.445a1.1,1.1,0,1,1-1.1-1.1,1.095,1.095,0,0,1,1.1,1.1" fill="#28121f"/>
        <path id="Trazado_873809" data-name="Trazado 873809" d="M259.868,85.776a1.1,1.1,0,1,1-1.1-1.1,1.095,1.095,0,0,1,1.1,1.1" fill="#28121f"/>
        <path id="Trazado_873810" data-name="Trazado 873810" d="M263.993,91.281a3.231,3.231,0,1,1-2.571-3.778,3.232,3.232,0,0,1,2.571,3.778" fill="#f4756e"/>
        <path id="Trazado_873811" data-name="Trazado 873811" d="M244.651,90.034a3.169,3.169,0,0,0-.562-.056,34.358,34.358,0,0,0,1.3,6.168,3.231,3.231,0,0,0-.742-6.112" fill="#f4756e"/>
        <path id="Trazado_873812" data-name="Trazado 873812" d="M210.631,257.525a1.09,1.09,0,0,1-1.09-1.09v-37.6a1.09,1.09,0,1,1,2.18,0v37.6a1.09,1.09,0,0,1-1.09,1.09" fill="#1c5482"/>
      </g>
    </g>
  </g>
</svg>
