<svg xmlns="http://www.w3.org/2000/svg" width="139" height="139" viewBox="0 0 139 139">
  <g id="img10" transform="translate(-1151 -2234.881)">
    <g id="Grupo_1074470" data-name="Grupo 1074470" transform="translate(1151 2234.881)">
      <rect id="Rectángulo_378651" data-name="Rectángulo 378651" width="139" height="30" rx="15" transform="translate(0 109)" fill="#315884"/>
      <g id="Grupo_1074381" data-name="Grupo 1074381" transform="translate(3.475 0)">
        <g id="Grupo_1073526" data-name="Grupo 1073526" transform="translate(0 0)">
          <g id="Grupo_1072785" data-name="Grupo 1072785" transform="translate(0 0)">
            <path id="Trazado_608385" data-name="Trazado 608385" d="M65.462,0A65.462,65.462,0,1,1,0,65.462,65.462,65.462,0,0,1,65.462,0Z" transform="translate(0 0)" fill="none"/>
          </g>
          <g id="Grupo_1073383" data-name="Grupo 1073383" transform="translate(0 0)">
            <g id="Trazado_608385-2" data-name="Trazado 608385" transform="translate(0 0)" fill="#fff">
              <path d="M 65.46222686767578 129.9244689941406 C 56.75944519042969 129.9244689941406 48.3175163269043 128.2202301025391 40.37093734741211 124.8591156005859 C 36.55149841308594 123.2436294555664 32.86757278442383 121.2440414428711 29.42148208618164 118.9159164428711 C 26.00788116455078 116.609733581543 22.7978458404541 113.9612121582031 19.88055419921875 111.0439147949219 C 16.9632625579834 108.1266098022461 14.31473636627197 104.9165878295898 12.00855445861816 101.5029754638672 C 9.680426597595215 98.05690002441406 7.680845260620117 94.37297058105469 6.065354347229004 90.55353546142578 C 2.704245090484619 82.60695648193359 1.000008702278137 74.16500854492188 1.000008702278137 65.46222686767578 C 1.000008702278137 56.75944519042969 2.704245090484619 48.3175163269043 6.065354347229004 40.37093734741211 C 7.680845260620117 36.55149841308594 9.680426597595215 32.86757278442383 12.00855445861816 29.42148208618164 C 14.31473636627197 26.00788116455078 16.9632625579834 22.7978458404541 19.88055419921875 19.88055419921875 C 22.7978458404541 16.9632625579834 26.00788116455078 14.31473636627197 29.42148208618164 12.00855445861816 C 32.86757278442383 9.680426597595215 36.55149841308594 7.680845260620117 40.37093734741211 6.065354347229004 C 48.3175163269043 2.704245090484619 56.75944519042969 1.000008702278137 65.46222686767578 1.000008702278137 C 74.16500854492188 1.000008702278137 82.60695648193359 2.704245090484619 90.55353546142578 6.065354347229004 C 94.37297058105469 7.680845260620117 98.05690002441406 9.680426597595215 101.5029754638672 12.00855445861816 C 104.9165878295898 14.31473636627197 108.1266098022461 16.9632625579834 111.0439147949219 19.88055419921875 C 113.9612121582031 22.7978458404541 116.609733581543 26.00788116455078 118.9159164428711 29.42148208618164 C 121.2440414428711 32.86757278442383 123.2436294555664 36.55149841308594 124.8591156005859 40.37093734741211 C 128.2202301025391 48.3175163269043 129.9244689941406 56.75944519042969 129.9244689941406 65.46222686767578 C 129.9244689941406 74.16500854492188 128.2202301025391 82.60695648193359 124.8591156005859 90.55353546142578 C 123.2436294555664 94.37297058105469 121.2440414428711 98.05690002441406 118.9159164428711 101.5029754638672 C 116.609733581543 104.9165878295898 113.9612121582031 108.1266098022461 111.0439147949219 111.0439147949219 C 108.1266098022461 113.9612121582031 104.9165878295898 116.609733581543 101.5029754638672 118.9159164428711 C 98.05690002441406 121.2440414428711 94.37297058105469 123.2436294555664 90.55353546142578 124.8591156005859 C 82.60695648193359 128.2202301025391 74.16500854492188 129.9244689941406 65.46222686767578 129.9244689941406 Z" stroke="none"/>
              <path d="M 65.46222686767578 1.999984741210938 C 56.89401245117188 1.999984741210938 48.58313751220703 3.677642822265625 40.76048278808594 6.986351013183594 C 37.00051879882812 8.576683044433594 33.37386322021484 10.54517364501953 29.98128509521484 12.83715057373047 C 26.62042999267578 15.10771942138672 23.45995330810547 17.71535491943359 20.587646484375 20.587646484375 C 17.71535491943359 23.45995330810547 15.10771942138672 26.62042999267578 12.83715057373047 29.98128509521484 C 10.54517364501953 33.37386322021484 8.576683044433594 37.00051879882812 6.986351013183594 40.76048278808594 C 3.677642822265625 48.58313751220703 1.999984741210938 56.89401245117188 1.999984741210938 65.46222686767578 C 1.999984741210938 74.03046417236328 3.677642822265625 82.34131622314453 6.986351013183594 90.16397094726562 C 8.576683044433594 93.9239501953125 10.54517364501953 97.55059051513672 12.83715057373047 100.9431762695312 C 15.10771942138672 104.3040313720703 17.71535491943359 107.4645004272461 20.587646484375 110.3367919921875 C 23.45995330810547 113.2090835571289 26.62042999267578 115.8167343139648 29.98128509521484 118.0872802734375 C 33.37386322021484 120.379264831543 37.00051879882812 122.3477554321289 40.76048278808594 123.938102722168 C 48.58313751220703 127.2467880249023 56.89401245117188 128.9244384765625 65.46222686767578 128.9244384765625 C 74.03046417236328 128.9244384765625 82.34133911132812 127.2467880249023 90.16397094726562 123.938102722168 C 93.9239501953125 122.3477554321289 97.55059051513672 120.379264831543 100.9431762695312 118.0872802734375 C 104.3040313720703 115.8167343139648 107.4645004272461 113.2090835571289 110.3367919921875 110.3367919921875 C 113.2090835571289 107.4645004272461 115.8167343139648 104.3040313720703 118.0872802734375 100.9431762695312 C 120.379264831543 97.55059051513672 122.3477554321289 93.9239501953125 123.938102722168 90.16397094726562 C 127.2467880249023 82.34133911132812 128.9244384765625 74.03046417236328 128.9244384765625 65.46222686767578 C 128.9244384765625 56.89401245117188 127.2467880249023 48.58313751220703 123.938102722168 40.76048278808594 C 122.3477554321289 37.00051879882812 120.379264831543 33.37386322021484 118.0872802734375 29.98128509521484 C 115.8167343139648 26.62042999267578 113.2090835571289 23.45995330810547 110.3367919921875 20.587646484375 C 107.4645004272461 17.71535491943359 104.3040313720703 15.10771942138672 100.9431762695312 12.83715057373047 C 97.55059051513672 10.54517364501953 93.9239501953125 8.576683044433594 90.16397094726562 6.986351013183594 C 82.34131622314453 3.677642822265625 74.03046417236328 1.999984741210938 65.46222686767578 1.999984741210938 M 65.46222686767578 -1.52587890625e-05 C 101.6160278320312 -1.52587890625e-05 130.9244384765625 29.30844879150391 130.9244384765625 65.46222686767578 C 130.9244384765625 101.6160278320312 101.6160278320312 130.9244384765625 65.46222686767578 130.9244384765625 C 29.30844879150391 130.9244384765625 -1.52587890625e-05 101.6160278320312 -1.52587890625e-05 65.46222686767578 C -1.52587890625e-05 29.30844879150391 29.30844879150391 -1.52587890625e-05 65.46222686767578 -1.52587890625e-05 Z" stroke="none" fill="#85b6ec"/>
            </g>
          </g>
        </g>
      </g>
      <path id="Trazado_615556" data-name="Trazado 615556" d="M752.741,143.019l5.036-5.036a1.424,1.424,0,1,0-2.013-2.013l-5.036,5.036-5.036-5.036a1.424,1.424,0,1,0-2.013,2.013l5.036,5.036-5.036,5.036a1.424,1.424,0,1,0,2.013,2.013l5.036-5.036,5.036,5.036a1.424,1.424,0,0,0,2.013-2.013Z" transform="translate(-629.091 -124.169)" fill="#ff7c48"/>
      <path id="Trazado_615557" data-name="Trazado 615557" d="M0,15.861,10.1,0,20.2,15.861Z" transform="translate(17.903 87.028) rotate(90)" fill="#ffb850"/>
      <path id="Trazado_615559" data-name="Trazado 615559" d="M159.276,312.164a4.15,4.15,0,1,1-4.15-4.15,4.15,4.15,0,0,1,4.15,4.15" transform="translate(-50.197 -191.155)" fill="#ffb850"/>
      <path id="Trazado_615560" data-name="Trazado 615560" d="M77.022,312.164a4.15,4.15,0,1,1-4.15-4.15,4.15,4.15,0,0,1,4.15,4.15" transform="translate(14.781 -191.155)" fill="#3656b3"/>
      <path id="Trazado_615561" data-name="Trazado 615561" d="M241.53,312.164a4.15,4.15,0,1,1-4.15-4.15,4.15,4.15,0,0,1,4.15,4.15" transform="translate(-115.173 -191.155)" fill="#29c7cc"/>
    </g>
    <g id="Grupo_1074995" data-name="Grupo 1074995" transform="translate(1184.5 2261.99)">
      <g id="Grupo_1074958" data-name="Grupo 1074958" transform="translate(0 0.127)">
        <path id="Trazado_615755" data-name="Trazado 615755" d="M54.413.127H1.406A1.406,1.406,0,0,0,0,1.533V70.686a1.406,1.406,0,0,0,1.406,1.406H54.413a1.406,1.406,0,0,0,1.406-1.406V1.533A1.406,1.406,0,0,0,54.413.127Z" transform="translate(0 -0.127)" fill="#fef1da"/>
      </g>
      <g id="Grupo_1074959" data-name="Grupo 1074959" transform="translate(17.99 0.127)">
        <path id="Trazado_615756" data-name="Trazado 615756" d="M161.144.127V18.9a26.594,26.594,0,1,0,0,51.549v1.643h3.27a1.406,1.406,0,0,0,1.406-1.406V1.533A1.406,1.406,0,0,0,164.415.127h-3.27Z" transform="translate(-127.992 -0.127)" fill="#fae2c0"/>
      </g>
      <g id="Grupo_1074968" data-name="Grupo 1074968" transform="translate(6.722 6.008)">
        <g id="Grupo_1074967" data-name="Grupo 1074967">
          <g id="Grupo_1074960" data-name="Grupo 1074960" transform="translate(11.69 17.534)">
            <path id="Trazado_615757" data-name="Trazado 615757" d="M130.989,190.1V168.128a1.406,1.406,0,0,1,1.406-1.406h4.495a1.406,1.406,0,0,1,1.406,1.406V190.1Z" transform="translate(-130.989 -166.722)" fill="#fe73c5"/>
          </g>
          <g id="Grupo_1074961" data-name="Grupo 1074961" transform="translate(11.69 19.942)">
            <path id="Trazado_615758" data-name="Trazado 615758" d="M130.989,197.848v6.976H138.3V183.853A26.556,26.556,0,0,0,130.989,197.848Z" transform="translate(-130.989 -183.853)" fill="#fe4fb7"/>
          </g>
          <g id="Grupo_1074962" data-name="Grupo 1074962" transform="translate(35.069)">
            <path id="Trazado_615759" data-name="Trazado 615759" d="M297.324,82.885V43.377a1.406,1.406,0,0,1,1.406-1.406h4.495a1.406,1.406,0,0,1,1.406,1.406V82.885Z" transform="translate(-297.324 -41.971)" fill="#6cf5c2"/>
          </g>
          <g id="Grupo_1074963" data-name="Grupo 1074963" transform="translate(35.069 12.072)">
            <path id="Trazado_615760" data-name="Trazado 615760" d="M304.63,128.244a26.68,26.68,0,0,0-7.306-.238v28.7h7.306Z" transform="translate(-297.324 -127.859)" fill="#00f2a6"/>
          </g>
          <g id="Grupo_1074964" data-name="Grupo 1074964" transform="translate(23.379 8.767)">
            <path id="Trazado_615761" data-name="Trazado 615761" d="M221.462,136.493V105.752a1.406,1.406,0,0,0-1.406-1.406h-4.495a1.406,1.406,0,0,0-1.406,1.406v30.741Z" transform="translate(-214.156 -104.346)" fill="#ffd15b"/>
          </g>
          <g id="Grupo_1074965" data-name="Grupo 1074965" transform="translate(23.379 13.057)">
            <path id="Trazado_615762" data-name="Trazado 615762" d="M214.156,138.181v24.541h7.306V134.865A26.474,26.474,0,0,0,214.156,138.181Z" transform="translate(-214.156 -134.865)" fill="#ffc344"/>
          </g>
          <g id="Grupo_1074966" data-name="Grupo 1074966" transform="translate(0 26.302)">
            <path id="Trazado_615763" data-name="Trazado 615763" d="M55.127,243.71V230.5a1.406,1.406,0,0,0-1.406-1.406H49.227a1.406,1.406,0,0,0-1.406,1.406V243.71Z" transform="translate(-47.821 -229.098)" fill="#62dbfb"/>
          </g>
        </g>
      </g>
      <g id="Grupo_1074969" data-name="Grupo 1074969" transform="translate(3.329 45.868)">
        <path id="Trazado_615764" data-name="Trazado 615764" d="M42.993,327.665H24.742a1.054,1.054,0,0,1,0-2.108H42.993a1.054,1.054,0,0,1,0,2.108Z" transform="translate(-23.688 -325.557)" fill="#7a8c98"/>
      </g>
      <g id="Grupo_1074980" data-name="Grupo 1074980" transform="translate(22.666 22.756)">
        <g id="Grupo_1074970" data-name="Grupo 1074970" transform="translate(38.45 38.45)">
          <path id="Trazado_615765" data-name="Trazado 615765" d="M445.7,439.948v4.212a1.406,1.406,0,0,1-1.405,1.406h-4.211a1.405,1.405,0,0,1-.994-.412l-4.274-4.274,6.2-6.2,4.273,4.273A1.4,1.4,0,0,1,445.7,439.948Z" transform="translate(-434.814 -434.681)" fill="#8d9ca8"/>
        </g>
        <g id="Grupo_1074971" data-name="Grupo 1074971" transform="translate(37.305 37.319)">
          <path id="Trazado_615766" data-name="Trazado 615766" d="M0,0H8.767V5.985H0Z" transform="translate(0 6.198) rotate(-45)" fill="#7a8c98"/>
        </g>
        <g id="Grupo_1074972" data-name="Grupo 1074972" transform="translate(30.701 30.701)">
          <path id="Trazado_615767" data-name="Trazado 615767" d="M393.941,386.988l-6.819,6.819a1.753,1.753,0,0,1-2.48,0l-4.96-4.96,9.3-9.3,4.96,4.96A1.754,1.754,0,0,1,393.941,386.988Z" transform="translate(-379.682 -379.549)" fill="#0067c5"/>
        </g>
        <g id="Grupo_1074973" data-name="Grupo 1074973" transform="translate(30.701 30.701)">
          <path id="Trazado_615768" data-name="Trazado 615768" d="M383.618,392.782a25.457,25.457,0,0,0,9.3-9.3l-3.935-3.935-9.3,9.3Z" transform="translate(-379.683 -379.548)" fill="#0055a3"/>
        </g>
        <g id="Grupo_1074974" data-name="Grupo 1074974">
          <circle id="Elipse_6032" data-name="Elipse 6032" cx="21.918" cy="21.918" r="21.918" fill="#528fd8"/>
        </g>
        <g id="Grupo_1074975" data-name="Grupo 1074975" transform="translate(4.383 4.383)">
          <path id="Trazado_615769" data-name="Trazado 615769" d="M223.129,192.309A21.919,21.919,0,0,1,192.443,223a21.919,21.919,0,1,0,30.686-30.686Z" transform="translate(-192.443 -192.309)" fill="#0573ce"/>
        </g>
        <g id="Grupo_1074976" data-name="Grupo 1074976" transform="translate(4.384 4.384)">
          <circle id="Elipse_6033" data-name="Elipse 6033" cx="17.534" cy="17.534" r="17.534" fill="#62dbfb"/>
        </g>
        <g id="Grupo_1074977" data-name="Grupo 1074977" transform="translate(8.031 8.031)">
          <path id="Trazado_615770" data-name="Trazado 615770" d="M242.975,218.263A17.525,17.525,0,0,1,218.4,242.842a17.528,17.528,0,1,0,24.579-24.579Z" transform="translate(-218.396 -218.263)" fill="#01d0fb"/>
        </g>
        <g id="Grupo_1074978" data-name="Grupo 1074978" transform="translate(9.644 9.644)">
          <path id="Trazado_615771" data-name="Trazado 615771" d="M254.42,242.867v-1.71a1.406,1.406,0,0,0-1.174-1.386l-2.275-.379a9.154,9.154,0,0,0-.731-1.768l1.339-1.875a1.406,1.406,0,0,0-.15-1.811l-1.209-1.209a1.405,1.405,0,0,0-1.811-.15l-1.875,1.339a9.154,9.154,0,0,0-1.768-.731l-.379-2.275A1.406,1.406,0,0,0,243,229.738h-1.71a1.406,1.406,0,0,0-1.386,1.174l-.379,2.275a9.154,9.154,0,0,0-1.768.731l-1.875-1.339a1.406,1.406,0,0,0-1.811.15l-1.209,1.209a1.405,1.405,0,0,0-.15,1.811l1.339,1.875a9.154,9.154,0,0,0-.731,1.768l-2.275.379a1.406,1.406,0,0,0-1.174,1.386v1.71a1.406,1.406,0,0,0,1.174,1.386l2.275.379a9.154,9.154,0,0,0,.731,1.768l-1.339,1.875a1.406,1.406,0,0,0,.15,1.811l1.209,1.209a1.405,1.405,0,0,0,1.811.15l1.875-1.339a9.15,9.15,0,0,0,1.768.731l.379,2.275a1.406,1.406,0,0,0,1.386,1.174H243a1.406,1.406,0,0,0,1.386-1.174l.379-2.275a9.154,9.154,0,0,0,1.768-.731l1.875,1.339a1.406,1.406,0,0,0,1.811-.15l1.209-1.209a1.405,1.405,0,0,0,.15-1.811L250.24,246.4a9.145,9.145,0,0,0,.731-1.768l2.275-.379A1.405,1.405,0,0,0,254.42,242.867Zm-12.274,2.214a3.068,3.068,0,1,1,3.068-3.068A3.068,3.068,0,0,1,242.146,245.081Z" transform="translate(-229.872 -229.738)" fill="#8d9ca8"/>
        </g>
        <g id="Grupo_1074979" data-name="Grupo 1074979" transform="translate(12.223 12.223)">
          <path id="Trazado_615772" data-name="Trazado 615772" d="M269.017,255.542l-2.275-.379a9.152,9.152,0,0,0-.731-1.768l1.339-1.875a1.406,1.406,0,0,0-.15-1.811l-.6-.6-.6-.6a1.405,1.405,0,0,0-1.378-.358,12.839,12.839,0,0,1-16.338,16.338,1.405,1.405,0,0,0,.358,1.378l1.209,1.209a1.405,1.405,0,0,0,1.811.15l1.875-1.339a9.154,9.154,0,0,0,1.768.731l.379,2.275a1.406,1.406,0,0,0,1.386,1.174h1.71a1.406,1.406,0,0,0,1.386-1.174l.379-2.275a9.154,9.154,0,0,0,1.768-.731l1.875,1.339a1.406,1.406,0,0,0,1.811-.15l.6-.6.6-.6a1.405,1.405,0,0,0,.15-1.811l-1.339-1.875a9.141,9.141,0,0,0,.731-1.768l2.275-.379a1.406,1.406,0,0,0,1.174-1.386v-1.71a1.405,1.405,0,0,0-1.174-1.387Z" transform="translate(-248.222 -248.089)" fill="#7a8c98"/>
        </g>
      </g>
      <g id="Grupo_1074987" data-name="Grupo 1074987" transform="translate(5.667 4.954)">
        <g id="Grupo_1074981" data-name="Grupo 1074981">
          <path id="Trazado_615773" data-name="Trazado 615773" d="M44.222,36.579H41.375a1.054,1.054,0,1,1,0-2.108h2.846a1.054,1.054,0,0,1,0,2.108Z" transform="translate(-40.321 -34.471)" fill="#528fd8"/>
        </g>
        <g id="Grupo_1074982" data-name="Grupo 1074982" transform="translate(7.23)">
          <path id="Trazado_615774" data-name="Trazado 615774" d="M99.758,36.579H92.814a1.054,1.054,0,1,1,0-2.108h6.944a1.054,1.054,0,0,1,0,2.108Z" transform="translate(-91.76 -34.471)" fill="#528fd8"/>
        </g>
        <g id="Grupo_1074983" data-name="Grupo 1074983" transform="translate(0 4.384)">
          <path id="Trazado_615775" data-name="Trazado 615775" d="M52.626,67.766H41.375a1.054,1.054,0,1,1,0-2.108H52.626a1.054,1.054,0,1,1,0,2.108Z" transform="translate(-40.321 -65.658)" fill="#528fd8"/>
        </g>
        <g id="Grupo_1074984" data-name="Grupo 1074984" transform="translate(15.635 4.384)">
          <path id="Trazado_615776" data-name="Trazado 615776" d="M155.535,67.766h-2.922a1.054,1.054,0,1,1,0-2.108h2.922a1.054,1.054,0,1,1,0,2.108Z" transform="translate(-151.558 -65.658)" fill="#528fd8"/>
        </g>
        <g id="Grupo_1074985" data-name="Grupo 1074985" transform="translate(0 8.767)">
          <path id="Trazado_615777" data-name="Trazado 615777" d="M46.413,98.954H41.375a1.054,1.054,0,1,1,0-2.108h5.038a1.054,1.054,0,1,1,0,2.108Z" transform="translate(-40.321 -96.846)" fill="#528fd8"/>
        </g>
        <g id="Grupo_1074986" data-name="Grupo 1074986" transform="translate(9.422 8.767)">
          <path id="Trazado_615778" data-name="Trazado 615778" d="M117.545,98.954h-9.135a1.054,1.054,0,1,1,0-2.108h9.135a1.054,1.054,0,1,1,0,2.108Z" transform="translate(-107.355 -96.846)" fill="#528fd8"/>
        </g>
      </g>
      <g id="Grupo_1074994" data-name="Grupo 1074994" transform="translate(5.667 57.85)">
        <g id="Grupo_1074988" data-name="Grupo 1074988">
          <path id="Trazado_615779" data-name="Trazado 615779" d="M44.222,412.912H41.375a1.054,1.054,0,0,1,0-2.108h2.846a1.054,1.054,0,0,1,0,2.108Z" transform="translate(-40.321 -410.804)" fill="#fe73c5"/>
        </g>
        <g id="Grupo_1074989" data-name="Grupo 1074989" transform="translate(7.23)">
          <path id="Trazado_615780" data-name="Trazado 615780" d="M98.3,412.912H92.814a1.054,1.054,0,0,1,0-2.108H98.3a1.054,1.054,0,0,1,0,2.108Z" transform="translate(-91.76 -410.804)" fill="#fe73c5"/>
        </g>
        <g id="Grupo_1074990" data-name="Grupo 1074990" transform="translate(0 4.384)">
          <path id="Trazado_615781" data-name="Trazado 615781" d="M51.165,444.1h-9.79a1.054,1.054,0,1,1,0-2.108h9.79a1.054,1.054,0,1,1,0,2.108Z" transform="translate(-40.321 -441.991)" fill="#00f2a6"/>
        </g>
        <g id="Grupo_1074991" data-name="Grupo 1074991" transform="translate(14.174 4.384)">
          <path id="Trazado_615782" data-name="Trazado 615782" d="M145.139,444.1h-2.922a1.054,1.054,0,1,1,0-2.108h2.922a1.054,1.054,0,1,1,0,2.108Z" transform="translate(-141.162 -441.991)" fill="#00f2a6"/>
        </g>
        <g id="Grupo_1074992" data-name="Grupo 1074992" transform="translate(0 8.767)">
          <path id="Trazado_615783" data-name="Trazado 615783" d="M46.413,475.287H41.375a1.054,1.054,0,0,1,0-2.108h5.038a1.054,1.054,0,0,1,0,2.108Z" transform="translate(-40.321 -473.179)" fill="#01d0fb"/>
        </g>
        <g id="Grupo_1074993" data-name="Grupo 1074993" transform="translate(9.422 8.767)">
          <path id="Trazado_615784" data-name="Trazado 615784" d="M116.083,475.287h-7.674a1.054,1.054,0,0,1,0-2.108h7.674a1.054,1.054,0,0,1,0,2.108Z" transform="translate(-107.355 -473.179)" fill="#01d0fb"/>
        </g>
      </g>
    </g>
  </g>
</svg>
