<svg xmlns="http://www.w3.org/2000/svg" xmlns:xlink="http://www.w3.org/1999/xlink" width="400" height="726" viewBox="0 0 400 726">
  <defs>
    <linearGradient id="linear-gradient" x1="0.5" x2="0.5" y2="1" gradientUnits="objectBoundingBox">
      <stop offset="0" stop-color="#cce4ff"/>
      <stop offset="1" stop-color="#d1f3f5"/>
    </linearGradient>
    <clipPath id="clip-path">
      <rect id="Rectángulo_46351" data-name="Rectángulo 46351" width="92.43" height="95.638" fill="none"/>
    </clipPath>
    <clipPath id="clip-path-2">
      <rect id="Rectángulo_401044" data-name="Rectángulo 401044" width="47.605" height="41.322" fill="none"/>
    </clipPath>
    <clipPath id="clip-path-3">
      <rect id="Rectángulo_401045" data-name="Rectángulo 401045" width="48.091" height="48.653" fill="none"/>
    </clipPath>
  </defs>
  <g id="Grupo_1099819" data-name="Grupo 1099819" transform="translate(8674 9607)">
    <rect id="Rectángulo_378860" data-name="Rectángulo 378860" width="400" height="726" transform="translate(-8674 -9607)" fill="url(#linear-gradient)"/>
    <rect id="Rectángulo_401046" data-name="Rectángulo 401046" width="370" height="118" rx="16" transform="translate(-8659 -9549.599)" fill="#8ce2e5"/>
    <path id="Feature_One" data-name="Feature One" d="M49.369,11.568H44.517v3.059h5.73V17H41.432V4.2h8.833V6.585H44.517v2.7h4.852Zm6.979,2.76a.684.684,0,0,0-.4-.606,6.016,6.016,0,0,0-1.5-.475,6.853,6.853,0,0,1-1.828-.646,3.062,3.062,0,0,1-1.1-.971,2.319,2.319,0,0,1-.378-1.31,2.628,2.628,0,0,1,1.081-2.158,4.453,4.453,0,0,1,2.83-.848,4.934,4.934,0,0,1,3.023.853,2.666,2.666,0,0,1,1.143,2.241H56.25q0-1.143-1.2-1.143a1.194,1.194,0,0,0-.782.259.8.8,0,0,0-.316.646.737.737,0,0,0,.387.642,3.654,3.654,0,0,0,1.235.4,10.671,10.671,0,0,1,1.49.378A2.706,2.706,0,0,1,59.2,14.24a2.491,2.491,0,0,1-1.156,2.118,5.068,5.068,0,0,1-2.993.817,5.172,5.172,0,0,1-2.18-.439,3.645,3.645,0,0,1-1.494-1.2,2.707,2.707,0,0,1-.536-1.591h2.769a1.145,1.145,0,0,0,.439.962,1.808,1.808,0,0,0,1.081.3,1.422,1.422,0,0,0,.91-.246A.787.787,0,0,0,56.347,14.328Zm7.69-9.2V7.49H65.6V9.547H64.038V13.9a1.111,1.111,0,0,0,.193.747,1.037,1.037,0,0,0,.765.211,4.345,4.345,0,0,0,.738-.053v2.118a5.466,5.466,0,0,1-1.67.255,3.1,3.1,0,0,1-2.259-.721,2.954,2.954,0,0,1-.729-2.188V9.547H59.863V7.49h1.213V5.126Zm8.481,5.045-.976-.07a1.752,1.752,0,0,0-1.793.879V17H66.789V7.49h2.777l.1,1.222a2.294,2.294,0,0,1,2.083-1.4,2.888,2.888,0,0,1,.826.105ZM78.68,17a3.344,3.344,0,0,1-.281-.853,2.754,2.754,0,0,1-2.285,1.028,3.374,3.374,0,0,1-2.285-.813,2.588,2.588,0,0,1-.94-2.043,2.66,2.66,0,0,1,1.143-2.338,5.821,5.821,0,0,1,3.322-.791h.914v-.5q0-1.316-1.134-1.316a.927.927,0,0,0-1.055,1.042H73.117A2.655,2.655,0,0,1,74.29,8.175a4.931,4.931,0,0,1,2.993-.86,4.323,4.323,0,0,1,2.874.888,3.086,3.086,0,0,1,1.081,2.435v4.21a4.311,4.311,0,0,0,.4,2V17Zm-1.854-1.934a1.652,1.652,0,0,0,.918-.237,1.487,1.487,0,0,0,.523-.536V12.772h-.861q-1.547,0-1.547,1.389a.848.848,0,0,0,.272.655A.986.986,0,0,0,76.826,15.066Zm9.5-9.94V7.49h1.564V9.547H86.327V13.9a1.111,1.111,0,0,0,.193.747,1.037,1.037,0,0,0,.765.211,4.345,4.345,0,0,0,.738-.053v2.118a5.466,5.466,0,0,1-1.67.255,3.1,3.1,0,0,1-2.259-.721,2.954,2.954,0,0,1-.729-2.188V9.547H82.152V7.49h1.213V5.126Zm7.33,12.05a4.889,4.889,0,0,1-3.542-1.305,4.507,4.507,0,0,1-1.354-3.4v-.246A5.84,5.84,0,0,1,89.3,9.652a3.955,3.955,0,0,1,1.578-1.727,4.763,4.763,0,0,1,2.461-.611A4.117,4.117,0,0,1,96.5,8.558a4.887,4.887,0,0,1,1.16,3.467v1.151H91.776a2.135,2.135,0,0,0,.694,1.257,2.066,2.066,0,0,0,1.389.457,2.662,2.662,0,0,0,2.2-.984l1.354,1.6a3.784,3.784,0,0,1-1.569,1.217A5.3,5.3,0,0,1,93.657,17.176ZM93.323,9.6q-1.3,0-1.547,1.723h2.988v-.229a1.467,1.467,0,0,0-.36-1.1A1.434,1.434,0,0,0,93.323,9.6Zm5.186,2.575a6.421,6.421,0,0,1,.475-2.549,3.821,3.821,0,0,1,1.362-1.709,3.591,3.591,0,0,1,2.065-.6,2.855,2.855,0,0,1,2.32,1l.105-.826h2.689V16.64a4.009,4.009,0,0,1-.584,2.184,3.75,3.75,0,0,1-1.692,1.424,6.219,6.219,0,0,1-2.566.5,5.365,5.365,0,0,1-2.026-.4,3.657,3.657,0,0,1-1.5-1.028l1.239-1.74a2.716,2.716,0,0,0,2.18.976,1.764,1.764,0,0,0,1.969-2.021v-.3a2.781,2.781,0,0,1-2.153.94,3.437,3.437,0,0,1-2.812-1.332,5.517,5.517,0,0,1-1.072-3.564Zm2.971.185a3.383,3.383,0,0,0,.439,1.85,1.387,1.387,0,0,0,1.23.681,1.573,1.573,0,0,0,1.4-.642v-4a1.534,1.534,0,0,0-1.38-.65,1.4,1.4,0,0,0-1.239.708A3.858,3.858,0,0,0,101.479,12.359ZM112.333,17h-2.971V7.49h2.971ZM109.187,5.038A1.322,1.322,0,0,1,109.644,4a1.943,1.943,0,0,1,2.373,0,1.322,1.322,0,0,1,.457,1.037,1.322,1.322,0,0,1-.457,1.037,1.943,1.943,0,0,1-2.373,0A1.322,1.322,0,0,1,109.187,5.038ZM119.514,17a3.344,3.344,0,0,1-.281-.853,2.754,2.754,0,0,1-2.285,1.028,3.374,3.374,0,0,1-2.285-.813,2.588,2.588,0,0,1-.94-2.043,2.66,2.66,0,0,1,1.143-2.338,5.821,5.821,0,0,1,3.322-.791h.914v-.5q0-1.316-1.134-1.316a.927.927,0,0,0-1.055,1.042h-2.962a2.655,2.655,0,0,1,1.173-2.239,4.931,4.931,0,0,1,2.993-.86,4.323,4.323,0,0,1,2.874.888,3.086,3.086,0,0,1,1.081,2.435v4.21a4.311,4.311,0,0,0,.4,2V17Zm-1.854-1.934a1.652,1.652,0,0,0,.918-.237,1.487,1.487,0,0,0,.523-.536V12.772h-.861q-1.547,0-1.547,1.389a.848.848,0,0,0,.272.655A.986.986,0,0,0,117.66,15.066Zm11.03-.738a.684.684,0,0,0-.4-.606,6.016,6.016,0,0,0-1.5-.475,6.853,6.853,0,0,1-1.828-.646,3.062,3.062,0,0,1-1.1-.971,2.319,2.319,0,0,1-.378-1.31,2.628,2.628,0,0,1,1.081-2.158,4.453,4.453,0,0,1,2.83-.848,4.934,4.934,0,0,1,3.023.853,2.666,2.666,0,0,1,1.143,2.241h-2.971q0-1.143-1.2-1.143a1.194,1.194,0,0,0-.782.259.8.8,0,0,0-.316.646.737.737,0,0,0,.387.642,3.654,3.654,0,0,0,1.235.4,10.671,10.671,0,0,1,1.49.378,2.706,2.706,0,0,1,2.145,2.646,2.491,2.491,0,0,1-1.156,2.118,5.068,5.068,0,0,1-2.993.817,5.172,5.172,0,0,1-2.18-.439,3.645,3.645,0,0,1-1.494-1.2,2.707,2.707,0,0,1-.536-1.591h2.769a1.145,1.145,0,0,0,.439.962,1.808,1.808,0,0,0,1.081.3,1.422,1.422,0,0,0,.91-.246A.787.787,0,0,0,128.69,14.328Zm17.552-2.013a5.735,5.735,0,0,1-1,3.538,3.2,3.2,0,0,1-2.694,1.323,2.742,2.742,0,0,1-2.153-.958v4.438h-2.962V7.49H140.2l.088.879a2.742,2.742,0,0,1,2.241-1.055,3.224,3.224,0,0,1,2.733,1.3,5.805,5.805,0,0,1,.976,3.564Zm-2.962-.185q0-2.531-1.477-2.531a1.394,1.394,0,0,0-1.406.756V14.1a1.439,1.439,0,0,0,1.424.791q1.415,0,1.459-2.443ZM152.9,17a3.344,3.344,0,0,1-.281-.853,2.754,2.754,0,0,1-2.285,1.028,3.374,3.374,0,0,1-2.285-.813,2.588,2.588,0,0,1-.94-2.043,2.66,2.66,0,0,1,1.143-2.338,5.821,5.821,0,0,1,3.322-.791h.914v-.5q0-1.316-1.134-1.316a.927.927,0,0,0-1.055,1.042H147.34a2.655,2.655,0,0,1,1.173-2.239,4.931,4.931,0,0,1,2.993-.86,4.323,4.323,0,0,1,2.874.888,3.086,3.086,0,0,1,1.081,2.435v4.21a4.311,4.311,0,0,0,.4,2V17Zm-1.854-1.934a1.652,1.652,0,0,0,.918-.237,1.487,1.487,0,0,0,.523-.536V12.772h-.861q-1.547,0-1.547,1.389a.848.848,0,0,0,.272.655A.986.986,0,0,0,151.049,15.066Zm11.8-4.9-.976-.07a1.752,1.752,0,0,0-1.793.879V17h-2.962V7.49H159.9l.1,1.222a2.294,2.294,0,0,1,2.083-1.4,2.888,2.888,0,0,1,.826.105ZM169.014,17a3.344,3.344,0,0,1-.281-.853,2.754,2.754,0,0,1-2.285,1.028,3.374,3.374,0,0,1-2.285-.813,2.588,2.588,0,0,1-.94-2.043,2.66,2.66,0,0,1,1.143-2.338,5.821,5.821,0,0,1,3.322-.791h.914v-.5q0-1.316-1.134-1.316a.927.927,0,0,0-1.055,1.042h-2.962a2.655,2.655,0,0,1,1.173-2.239,4.931,4.931,0,0,1,2.993-.86,4.323,4.323,0,0,1,2.874.888,3.086,3.086,0,0,1,1.081,2.435v4.21a4.311,4.311,0,0,0,.4,2V17Zm-1.854-1.934a1.652,1.652,0,0,0,.918-.237,1.487,1.487,0,0,0,.523-.536V12.772h-.861q-1.547,0-1.547,1.389a.848.848,0,0,0,.272.655A.986.986,0,0,0,167.16,15.066ZM180.818,17h-2.971V3.5h2.971ZM188,17a3.344,3.344,0,0,1-.281-.853,2.754,2.754,0,0,1-2.285,1.028,3.374,3.374,0,0,1-2.285-.813,2.588,2.588,0,0,1-.94-2.043,2.66,2.66,0,0,1,1.143-2.338,5.821,5.821,0,0,1,3.322-.791h.914v-.5q0-1.316-1.134-1.316a.927.927,0,0,0-1.055,1.042h-2.962a2.655,2.655,0,0,1,1.173-2.239,4.931,4.931,0,0,1,2.993-.86,4.323,4.323,0,0,1,2.874.888,3.086,3.086,0,0,1,1.081,2.435v4.21a4.311,4.311,0,0,0,.4,2V17Zm-1.854-1.934a1.652,1.652,0,0,0,.918-.237,1.487,1.487,0,0,0,.523-.536V12.772h-.861q-1.547,0-1.547,1.389a.848.848,0,0,0,.272.655A.986.986,0,0,0,186.144,15.066ZM199.477,7.49l.1,1.116a3.27,3.27,0,0,1,2.716-1.292,2.407,2.407,0,0,1,2.435,1.433,3.165,3.165,0,0,1,2.795-1.433q2.892,0,2.971,3.5V17h-2.971V11a1.813,1.813,0,0,0-.246-1.063,1.048,1.048,0,0,0-.9-.334,1.4,1.4,0,0,0-1.31.782l.009.123V17H202.1V11.015a1.906,1.906,0,0,0-.237-1.081,1.045,1.045,0,0,0-.905-.334,1.42,1.42,0,0,0-1.3.782V17H196.7V7.49Zm17.306,9.686a4.889,4.889,0,0,1-3.542-1.305,4.507,4.507,0,0,1-1.354-3.4v-.246a5.84,5.84,0,0,1,.541-2.575,3.955,3.955,0,0,1,1.578-1.727,4.763,4.763,0,0,1,2.461-.611,4.117,4.117,0,0,1,3.164,1.244,4.887,4.887,0,0,1,1.16,3.467v1.151H214.9a2.135,2.135,0,0,0,.694,1.257,2.066,2.066,0,0,0,1.389.457,2.662,2.662,0,0,0,2.2-.984l1.354,1.6a3.784,3.784,0,0,1-1.569,1.217A5.3,5.3,0,0,1,216.783,17.176ZM216.449,9.6q-1.3,0-1.547,1.723h2.988v-.229a1.467,1.467,0,0,0-.36-1.1A1.434,1.434,0,0,0,216.449,9.6Zm9.026,5.115h4.333V17h-8.077V15.348l4.219-5.572h-4.034V7.49h7.8v1.6Zm9.65.176a1.317,1.317,0,0,0,.967-.338,1.241,1.241,0,0,0,.334-.945H239.2a3.288,3.288,0,0,1-1.121,2.566,4.168,4.168,0,0,1-2.887,1,4.22,4.22,0,0,1-3.27-1.3,5.125,5.125,0,0,1-1.2-3.6v-.123a5.792,5.792,0,0,1,.532-2.544,3.872,3.872,0,0,1,1.534-1.7,4.573,4.573,0,0,1,2.373-.593,4.116,4.116,0,0,1,2.944,1.028,3.647,3.647,0,0,1,1.09,2.786h-2.777a1.626,1.626,0,0,0-.36-1.134,1.244,1.244,0,0,0-.967-.4q-1.151,0-1.345,1.468a10.357,10.357,0,0,0-.062,1.283,4.068,4.068,0,0,0,.343,1.986A1.187,1.187,0,0,0,235.125,14.891ZM243.581,17H240.61V3.5h2.971Zm7.181,0a3.344,3.344,0,0,1-.281-.853,2.754,2.754,0,0,1-2.285,1.028,3.374,3.374,0,0,1-2.285-.813,2.588,2.588,0,0,1-.94-2.043,2.66,2.66,0,0,1,1.143-2.338,5.821,5.821,0,0,1,3.322-.791h.914v-.5q0-1.316-1.134-1.316a.927.927,0,0,0-1.055,1.042H245.2a2.655,2.655,0,0,1,1.173-2.239,4.931,4.931,0,0,1,2.993-.86,4.323,4.323,0,0,1,2.874.888,3.086,3.086,0,0,1,1.081,2.435v4.21a4.311,4.311,0,0,0,.4,2V17Zm-1.854-1.934a1.652,1.652,0,0,0,.918-.237,1.487,1.487,0,0,0,.523-.536V12.772h-.861q-1.547,0-1.547,1.389a.848.848,0,0,0,.272.655A.986.986,0,0,0,248.907,15.066Zm10.16-2.892a5.809,5.809,0,0,1,.976-3.56,3.211,3.211,0,0,1,2.725-1.3,2.731,2.731,0,0,1,2.145,1V3.5h2.971V17h-2.663l-.149-1.02a2.8,2.8,0,0,1-2.32,1.2,3.205,3.205,0,0,1-2.689-1.3A5.993,5.993,0,0,1,259.067,12.175Zm2.962.185q0,2.531,1.477,2.531a1.458,1.458,0,0,0,1.406-.826V10.443a1.419,1.419,0,0,0-1.389-.844q-1.371,0-1.485,2.215Zm12.138,4.816a4.889,4.889,0,0,1-3.542-1.305,4.507,4.507,0,0,1-1.354-3.4v-.246a5.84,5.84,0,0,1,.541-2.575,3.955,3.955,0,0,1,1.578-1.727,4.763,4.763,0,0,1,2.461-.611,4.117,4.117,0,0,1,3.164,1.244,4.887,4.887,0,0,1,1.16,3.467v1.151h-5.889a2.135,2.135,0,0,0,.694,1.257,2.066,2.066,0,0,0,1.389.457,2.662,2.662,0,0,0,2.2-.984l1.354,1.6a3.784,3.784,0,0,1-1.569,1.217A5.3,5.3,0,0,1,274.167,17.176ZM273.833,9.6q-1.3,0-1.547,1.723h2.988v-.229a1.467,1.467,0,0,0-.36-1.1A1.434,1.434,0,0,0,273.833,9.6ZM101.694,31.481l-.193,1.143a3.414,3.414,0,0,1,2.777-1.31,2.509,2.509,0,0,1,1.415.4,1.843,1.843,0,0,1,.738,1.028,3.619,3.619,0,0,1,2.892-1.433,2.241,2.241,0,0,1,1.956.989,4.117,4.117,0,0,1,.461,2.711L110.747,41h-2.9l1.011-5.987.035-.518q0-.869-.817-.9a1.872,1.872,0,0,0-1.424.781L105.5,41h-2.9l1-5.969.035-.527q0-.9-.817-.9a1.86,1.86,0,0,0-1.406.781L100.244,41H97.353L99,31.49ZM117.822,41a2.578,2.578,0,0,1-.123-.861,2.933,2.933,0,0,1-2.329,1.037,2.866,2.866,0,0,1-2.057-.826,2.483,2.483,0,0,1-.765-1.96,2.79,2.79,0,0,1,1.292-2.377,6.091,6.091,0,0,1,3.41-.831l.967.018.105-.536.035-.466a.755.755,0,0,0-.8-.826,1.111,1.111,0,0,0-1.169,1.046l-2.9.009a2.754,2.754,0,0,1,.624-1.666,3.7,3.7,0,0,1,1.578-1.09,5.512,5.512,0,0,1,2.123-.356,4.251,4.251,0,0,1,1.894.453,2.82,2.82,0,0,1,1.217,1.187,3.031,3.031,0,0,1,.308,1.753l-.712,4.474-.044.545a2.4,2.4,0,0,0,.167,1.107l-.009.167Zm-1.652-1.916a1.865,1.865,0,0,0,1.556-.782l.29-1.529-.747-.009a1.969,1.969,0,0,0-1.2.409,1.55,1.55,0,0,0-.589,1.068.778.778,0,0,0,.136.593A.7.7,0,0,0,116.17,39.084Zm12.507-4.913a8.273,8.273,0,0,0-.9-.088,2.233,2.233,0,0,0-1.986.9L124.722,41H121.83l1.652-9.51,2.7-.009-.22,1.248a2.64,2.64,0,0,1,2.2-1.441,4.144,4.144,0,0,1,.9.123Zm4.254,3.322-1.055.914L131.428,41h-2.892l2.347-13.509h2.892L132.438,34.7l.352-.422,2.628-2.786h3.665l-4.043,4.043L137.492,41h-3.173Zm9.949,3.683a4.421,4.421,0,0,1-2.272-.6,3.793,3.793,0,0,1-1.507-1.652,4.44,4.44,0,0,1-.4-2.333l.026-.246a5.829,5.829,0,0,1,1.63-3.713,4.51,4.51,0,0,1,3.415-1.314,3.678,3.678,0,0,1,2.092.621,3.468,3.468,0,0,1,1.274,1.664,5.1,5.1,0,0,1,.264,2.381l-.167,1.206h-5.66a1.854,1.854,0,0,0,.422,1.213,1.549,1.549,0,0,0,1.178.492,2.993,2.993,0,0,0,2.259-.967l1.213,1.6a3.578,3.578,0,0,1-1.5,1.2,5.263,5.263,0,0,1-2.1.451Zm.7-7.576a1.487,1.487,0,0,0-1.068.385,3.229,3.229,0,0,0-.787,1.347h2.892l.053-.254a1.929,1.929,0,0,0,.018-.577A1.017,1.017,0,0,0,143.583,33.6Zm9.589-4.474-.413,2.364h1.521l-.36,2.057H152.4l-.738,4.368a1.164,1.164,0,0,0,.057.677q.119.229.593.246a6.873,6.873,0,0,0,.756-.044l-.211,2.145a4.673,4.673,0,0,1-1.556.22,2.563,2.563,0,0,1-2.013-.791,2.7,2.7,0,0,1-.545-2.1l.773-4.72h-1.178l.352-2.057h1.178l.413-2.364ZM156.881,41h-2.9l1.652-9.51h2.9Zm-.993-11.909a1.341,1.341,0,0,1,.453-1.072,1.625,1.625,0,0,1,1.138-.431,1.678,1.678,0,0,1,1.129.387,1.318,1.318,0,0,1,.47,1.011,1.344,1.344,0,0,1-.448,1.077,1.63,1.63,0,0,1-1.143.426,1.7,1.7,0,0,1-1.121-.382A1.3,1.3,0,0,1,155.888,29.091Zm7.119,2.391-.2,1.143a3.38,3.38,0,0,1,2.751-1.318,2.27,2.27,0,0,1,1.964.98,4.1,4.1,0,0,1,.47,2.729l-1,5.985h-2.9l1.011-6.01a3.108,3.108,0,0,0,.018-.563q-.062-.836-.984-.836a1.807,1.807,0,0,0-1.4.678L161.548,41h-2.892l1.652-9.51Zm6.135,4.746a7.226,7.226,0,0,1,.787-2.593,4.564,4.564,0,0,1,1.551-1.753,3.735,3.735,0,0,1,2.109-.576,2.6,2.6,0,0,1,2.162,1.028l.308-.853,2.672.009-1.556,9.141a4.467,4.467,0,0,1-1.7,3.05,5.4,5.4,0,0,1-3.568,1.063,5.1,5.1,0,0,1-1.837-.378,3.957,3.957,0,0,1-1.521-1.09l1.371-1.705a2.489,2.489,0,0,0,1.986.993,2.324,2.324,0,0,0,2.443-2.048l.07-.29a2.973,2.973,0,0,1-2.171.949,2.932,2.932,0,0,1-1.608-.461,3.034,3.034,0,0,1-1.09-1.305,5.076,5.076,0,0,1-.448-1.9A8.253,8.253,0,0,1,169.142,36.228Zm2.856.94a2.306,2.306,0,0,0,.29,1.257.984.984,0,0,0,.844.466,1.933,1.933,0,0,0,1.485-.633l.747-4.034a1.281,1.281,0,0,0-1.178-.633,1.683,1.683,0,0,0-1.415.716,3.861,3.861,0,0,0-.721,1.929Q172,36.79,172,37.168ZM191.984,36h1.3v2.285h-1.3V41h-2.962V38.284h-4.948l-.176-1.811,5.124-8.244V28.2h2.962Zm-5.265,0h2.3V32.062l-.185.3Zm15.618.659V41h-3.085V28.2h5.106a5.948,5.948,0,0,1,2.6.541,4.074,4.074,0,0,1,1.749,1.538,4.2,4.2,0,0,1,.62,2.263,3.7,3.7,0,0,1-1.34,2.993,5.561,5.561,0,0,1-3.678,1.121Zm0-2.382h2.021a1.906,1.906,0,0,0,1.367-.448,1.665,1.665,0,0,0,.47-1.266,2.059,2.059,0,0,0-.483-1.433,1.712,1.712,0,0,0-1.318-.545h-2.057Zm9.545-2.065-1.3-.7a5.1,5.1,0,0,0,.747-2.479V27.5h2.162v1.433a3.875,3.875,0,0,1-.47,1.745A5.248,5.248,0,0,1,211.883,32.211Zm6.258,6.117a.684.684,0,0,0-.4-.606,6.016,6.016,0,0,0-1.5-.475,6.853,6.853,0,0,1-1.828-.646,3.062,3.062,0,0,1-1.1-.971,2.319,2.319,0,0,1-.378-1.31,2.628,2.628,0,0,1,1.081-2.158,4.453,4.453,0,0,1,2.83-.848,4.934,4.934,0,0,1,3.023.853,2.666,2.666,0,0,1,1.143,2.241h-2.971q0-1.143-1.2-1.143a1.194,1.194,0,0,0-.782.259.8.8,0,0,0-.316.646.737.737,0,0,0,.387.642,3.654,3.654,0,0,0,1.235.4,10.671,10.671,0,0,1,1.49.378A2.706,2.706,0,0,1,221,38.24a2.491,2.491,0,0,1-1.156,2.118,5.068,5.068,0,0,1-2.993.817,5.172,5.172,0,0,1-2.18-.439,3.645,3.645,0,0,1-1.494-1.2,2.707,2.707,0,0,1-.536-1.591h2.769a1.145,1.145,0,0,0,.439.962,1.808,1.808,0,0,0,1.081.3,1.422,1.422,0,0,0,.91-.246A.787.787,0,0,0,218.141,38.328Z" transform="translate(-8633.5 -9510.099)" fill="#12263f"/>
    <g id="Grupo_154801" data-name="Grupo 154801" transform="translate(-8366.43 -8976.639)">
      <g id="Grupo_154721" data-name="Grupo 154721" clip-path="url(#clip-path)">
        <line id="Línea_1878" data-name="Línea 1878" x1="17.302" y2="81.558" transform="translate(48.964 23.596)" fill="none" stroke="#1e0b4a" stroke-linecap="round" stroke-linejoin="round" stroke-width="1.052"/>
        <path id="Trazado_196481" data-name="Trazado 196481" d="M234.777,273.116a6.5,6.5,0,1,1-6.5-6.5,6.5,6.5,0,0,1,6.5,6.5" transform="translate(-162.01 -249.519)" fill="#59c4c8"/>
        <path id="Trazado_196482" data-name="Trazado 196482" d="M241.983,324.01c-7.2,20.729-29.886,31.676-29.886,31.676s-11.006-22.656-3.8-43.383,29.886-31.675,29.886-31.675,11.006,22.655,3.8,43.382" transform="translate(-156.885 -250.532)" fill="#12263f"/>
        <path id="Trazado_196483" data-name="Trazado 196483" d="M281.658,311.26c3.339,31.511-19.563,59.769-19.563,59.769s-28.316-22.83-31.655-54.342S250,256.918,250,256.918s28.315,22.83,31.654,54.342" transform="translate(-216.954 -248.819)" fill="#59c4c8"/>
        <path id="Trazado_196484" data-name="Trazado 196484" d="M295.32,320.154a11.874,11.874,0,1,1-11.874-11.874,11.874,11.874,0,0,1,11.874,11.874" transform="translate(-268.754 -252.529)" fill="#12263f"/>
        <line id="Línea_1879" data-name="Línea 1879" x2="11.68" y2="110.236" transform="translate(33.461 11.973)" fill="none" stroke="#1e0b4a" stroke-linecap="round" stroke-linejoin="round" stroke-width="1.052"/>
        <line id="Línea_1880" data-name="Línea 1880" y1="14.358" x2="22.324" transform="translate(40.46 63.675)" fill="none" stroke="#1e0b4a" stroke-linecap="round" stroke-linejoin="round" stroke-width="1.052"/>
        <line id="Línea_1881" data-name="Línea 1881" x1="19.186" y1="10.052" transform="translate(18.306 39.971)" fill="none" stroke="#1e0b4a" stroke-linecap="round" stroke-linejoin="round" stroke-width="1.052"/>
        <line id="Línea_1882" data-name="Línea 1882" x2="20.876" y2="42.819" transform="translate(14.691 67.625)" fill="none" stroke="#1e0b4a" stroke-linecap="round" stroke-linejoin="round" stroke-width="1.052"/>
      </g>
    </g>
    <path id="Trazado_615639" data-name="Trazado 615639" d="M572.842,168.311a.691.691,0,0,0-.563-.775c-1.211-.418-2.419-.851-3.6-1.337a1.434,1.434,0,0,1-.678-.708c-.5-1.151-.947-2.322-1.38-3.5a1.139,1.139,0,0,1,0-.781c.585-1.3,1.227-2.576,1.809-3.878a.816.816,0,0,0-.1-.723c-.976-1.043-2-2.038-2.992-3.068a.588.588,0,0,0-.812-.132c-1.234.612-2.477,1.209-3.735,1.771a1.25,1.25,0,0,1-.851.039q-1.8-.649-3.572-1.4a1.325,1.325,0,0,1-.674-.622c-.488-1.21-.927-2.44-1.348-3.674-.136-.4-.3-.588-.758-.577-1.379.035-2.761.031-4.141,0a.689.689,0,0,0-.771.568c-.415,1.211-.885,2.4-1.3,3.616a1.067,1.067,0,0,1-.773.739c-1.14.4-2.265.842-3.361,1.344a1.078,1.078,0,0,1-1.067-.009c-1.209-.609-2.442-1.17-3.653-1.776a.632.632,0,0,0-.874.152c-.955,1-1.928,1.978-2.929,2.927a.669.669,0,0,0-.128.938c.6,1.214,1.189,2.435,1.732,3.675a1.252,1.252,0,0,1-.023.9q-.756,1.762-1.615,3.48a1.479,1.479,0,0,1-.7.691c-1.287.49-2.6.926-3.905,1.354a.678.678,0,0,0-.574.762c.031,1.38.026,2.761,0,4.142a.627.627,0,0,0,.515.721c1.334.431,2.666.874,3.976,1.373a1.462,1.462,0,0,1,.682.711c.529,1.111.964,2.267,1.517,3.364a1.189,1.189,0,0,1,.026,1.208c-.572,1.147-1.094,2.318-1.663,3.466a.677.677,0,0,0,.148.937q1.5,1.428,2.928,2.929a.668.668,0,0,0,.934.134c1.192-.591,2.4-1.138,3.6-1.729a1.058,1.058,0,0,1,1.067.027c1.145.565,2.338,1.032,3.495,1.578a1.246,1.246,0,0,1,.588.616c.491,1.312.945,2.64,1.384,3.971a.643.643,0,0,0,.727.521c1.38-.023,2.762-.027,4.141,0a.664.664,0,0,0,.758-.565c.421-1.312.87-2.615,1.361-3.9a1.351,1.351,0,0,1,.652-.656q1.771-.827,3.585-1.556a1.2,1.2,0,0,1,.844-.016c1.41.626,2.8,1.3,4.248,1.983,1.135-1.15,2.268-2.275,3.362-3.437a.826.826,0,0,0,.066-.734c-.562-1.258-1.184-2.489-1.751-3.745a1.189,1.189,0,0,1-.056-.8c.427-1.23.881-2.451,1.375-3.655a1.316,1.316,0,0,1,.646-.659c1.209-.488,2.439-.932,3.672-1.36a.646.646,0,0,0,.508-.734c-.025-1.38-.028-2.761,0-4.141m-21.335,10.135a8.071,8.071,0,1,1,8.08-8.061,8.044,8.044,0,0,1-8.08,8.061" transform="translate(-9198.564 -9752.447)" fill="#3656b3"/>
    <rect id="Rectángulo_401047" data-name="Rectángulo 401047" width="370" height="118" rx="16" transform="translate(-8659 -9324.814)" fill="#ffb074"/>
    <path id="Feature_One-2" data-name="Feature One" d="M43.971,16.609H39.744L39.005,19h-3.3L40.4,6.2h2.9L48.032,19H44.718Zm-3.489-2.382h2.751l-1.38-4.438Zm12.366,2.663a1.317,1.317,0,0,0,.967-.338,1.241,1.241,0,0,0,.334-.945h2.777a3.288,3.288,0,0,1-1.121,2.566,4.168,4.168,0,0,1-2.887,1,4.22,4.22,0,0,1-3.27-1.3,5.125,5.125,0,0,1-1.2-3.6v-.123a5.792,5.792,0,0,1,.532-2.544,3.872,3.872,0,0,1,1.534-1.7,4.573,4.573,0,0,1,2.373-.593,4.116,4.116,0,0,1,2.944,1.028,3.647,3.647,0,0,1,1.09,2.786H54.149A1.626,1.626,0,0,0,53.789,12a1.244,1.244,0,0,0-.967-.4q-1.151,0-1.345,1.468a10.357,10.357,0,0,0-.062,1.283,4.068,4.068,0,0,0,.343,1.986A1.187,1.187,0,0,0,52.848,16.891Zm9.352,0a1.317,1.317,0,0,0,.967-.338,1.241,1.241,0,0,0,.334-.945h2.777a3.288,3.288,0,0,1-1.121,2.566,4.168,4.168,0,0,1-2.887,1,4.22,4.22,0,0,1-3.27-1.3,5.125,5.125,0,0,1-1.2-3.6v-.123a5.792,5.792,0,0,1,.532-2.544,3.872,3.872,0,0,1,1.534-1.7,4.573,4.573,0,0,1,2.373-.593,4.116,4.116,0,0,1,2.944,1.028,3.647,3.647,0,0,1,1.09,2.786H63.5A1.626,1.626,0,0,0,63.14,12a1.244,1.244,0,0,0-.967-.4q-1.151,0-1.345,1.468a10.357,10.357,0,0,0-.062,1.283,4.068,4.068,0,0,0,.343,1.986A1.187,1.187,0,0,0,62.2,16.891ZM70.655,19H67.684V9.49h2.971ZM67.508,7.038A1.322,1.322,0,0,1,67.965,6a1.943,1.943,0,0,1,2.373,0A1.322,1.322,0,0,1,70.8,7.038a1.322,1.322,0,0,1-.457,1.037,1.943,1.943,0,0,1-2.373,0A1.322,1.322,0,0,1,67.508,7.038Zm4.6,7.119a5.613,5.613,0,0,1,.554-2.536A3.96,3.96,0,0,1,74.25,9.912a4.791,4.791,0,0,1,2.435-.6,4.373,4.373,0,0,1,3.366,1.323,5.076,5.076,0,0,1,1.23,3.6v.105a4.925,4.925,0,0,1-1.235,3.529A4.384,4.384,0,0,1,76.7,19.176a4.434,4.434,0,0,1-3.261-1.217,4.761,4.761,0,0,1-1.327-3.3Zm2.962.185a3.538,3.538,0,0,0,.413,1.934,1.376,1.376,0,0,0,1.222.615q1.582,0,1.617-2.435v-.3q0-2.558-1.635-2.558-1.485,0-1.608,2.206ZM85.306,9.49l.1,1.116a3.225,3.225,0,0,1,2.716-1.292,2.713,2.713,0,0,1,2.219.888,4.226,4.226,0,0,1,.76,2.672V19H88.127V13a1.6,1.6,0,0,0-.29-1.059,1.342,1.342,0,0,0-1.055-.338,1.413,1.413,0,0,0-1.292.686V19H82.529V9.49Zm12.032,9.686A4.889,4.889,0,0,1,93.8,17.871a4.507,4.507,0,0,1-1.354-3.4v-.246a5.84,5.84,0,0,1,.541-2.575,3.955,3.955,0,0,1,1.578-1.727,4.763,4.763,0,0,1,2.461-.611,4.117,4.117,0,0,1,3.164,1.244,4.887,4.887,0,0,1,1.16,3.467v1.151H95.458a2.135,2.135,0,0,0,.694,1.257,2.066,2.066,0,0,0,1.389.457,2.662,2.662,0,0,0,2.2-.984l1.354,1.6a3.784,3.784,0,0,1-1.569,1.217A5.3,5.3,0,0,1,97.338,19.176ZM97,11.6q-1.3,0-1.547,1.723h2.988v-.229a1.467,1.467,0,0,0-.36-1.1A1.434,1.434,0,0,0,97,11.6Zm10.512,4.729a.684.684,0,0,0-.4-.606,6.016,6.016,0,0,0-1.5-.475,6.853,6.853,0,0,1-1.828-.646,3.062,3.062,0,0,1-1.1-.971,2.319,2.319,0,0,1-.378-1.31,2.628,2.628,0,0,1,1.081-2.158,4.453,4.453,0,0,1,2.83-.848,4.934,4.934,0,0,1,3.023.853,2.666,2.666,0,0,1,1.143,2.241h-2.971q0-1.143-1.2-1.143a1.194,1.194,0,0,0-.782.259.8.8,0,0,0-.316.646.737.737,0,0,0,.387.642,3.654,3.654,0,0,0,1.235.4,10.671,10.671,0,0,1,1.49.378,2.706,2.706,0,0,1,2.145,2.646,2.491,2.491,0,0,1-1.156,2.118,5.068,5.068,0,0,1-2.993.817,5.172,5.172,0,0,1-2.18-.439,3.645,3.645,0,0,1-1.494-1.2,2.707,2.707,0,0,1-.536-1.591h2.769a1.145,1.145,0,0,0,.439.962,1.808,1.808,0,0,0,1.081.3,1.422,1.422,0,0,0,.91-.246A.787.787,0,0,0,107.516,16.328Zm8.35-2.153a5.809,5.809,0,0,1,.976-3.56,3.211,3.211,0,0,1,2.725-1.3,2.731,2.731,0,0,1,2.145,1V5.5h2.971V19h-2.663l-.149-1.02a2.8,2.8,0,0,1-2.32,1.2,3.205,3.205,0,0,1-2.689-1.3A5.993,5.993,0,0,1,115.866,14.175Zm2.962.185q0,2.531,1.477,2.531a1.458,1.458,0,0,0,1.406-.826V12.443a1.419,1.419,0,0,0-1.389-.844q-1.371,0-1.485,2.215Zm12.138,4.816a4.889,4.889,0,0,1-3.542-1.305,4.507,4.507,0,0,1-1.354-3.4v-.246a5.84,5.84,0,0,1,.541-2.575,3.955,3.955,0,0,1,1.578-1.727,4.763,4.763,0,0,1,2.461-.611,4.117,4.117,0,0,1,3.164,1.244,4.887,4.887,0,0,1,1.16,3.467v1.151h-5.889a2.135,2.135,0,0,0,.694,1.257,2.066,2.066,0,0,0,1.389.457,2.662,2.662,0,0,0,2.2-.984l1.354,1.6a3.784,3.784,0,0,1-1.569,1.217A5.3,5.3,0,0,1,130.965,19.176Zm-.334-7.576q-1.3,0-1.547,1.723h2.988v-.229a1.467,1.467,0,0,0-.36-1.1A1.434,1.434,0,0,0,130.631,11.6Zm13.43-2.118-.193,1.143a3.414,3.414,0,0,1,2.777-1.31,2.509,2.509,0,0,1,1.415.4,1.843,1.843,0,0,1,.738,1.028,3.619,3.619,0,0,1,2.892-1.433,2.241,2.241,0,0,1,1.956.989,4.117,4.117,0,0,1,.461,2.711L153.114,19h-2.9l1.011-5.987.035-.518q0-.869-.817-.9a1.872,1.872,0,0,0-1.424.781L147.867,19h-2.9l1-5.969L146,12.5q0-.9-.817-.9a1.86,1.86,0,0,0-1.406.781L142.611,19h-2.892l1.652-9.51ZM160.189,19a2.578,2.578,0,0,1-.123-.861,2.933,2.933,0,0,1-2.329,1.037,2.866,2.866,0,0,1-2.057-.826,2.483,2.483,0,0,1-.765-1.96,2.79,2.79,0,0,1,1.292-2.377,6.091,6.091,0,0,1,3.41-.831l.967.018.105-.536.035-.466a.755.755,0,0,0-.8-.826,1.111,1.111,0,0,0-1.169,1.046l-2.9.009a2.754,2.754,0,0,1,.624-1.666,3.7,3.7,0,0,1,1.578-1.09,5.512,5.512,0,0,1,2.123-.356,4.251,4.251,0,0,1,1.894.453,2.82,2.82,0,0,1,1.217,1.187,3.031,3.031,0,0,1,.308,1.753l-.712,4.474-.044.545a2.4,2.4,0,0,0,.167,1.107L163,19Zm-1.652-1.916a1.865,1.865,0,0,0,1.556-.782l.29-1.529-.747-.009a1.969,1.969,0,0,0-1.2.409,1.55,1.55,0,0,0-.589,1.068.778.778,0,0,0,.136.593A.7.7,0,0,0,158.537,17.084Zm12.507-4.913a8.273,8.273,0,0,0-.9-.088,2.233,2.233,0,0,0-1.986.9L167.088,19H164.2l1.652-9.51,2.7-.009-.22,1.248a2.64,2.64,0,0,1,2.2-1.441,4.144,4.144,0,0,1,.9.123Zm4.254,3.322-1.055.914L173.794,19H170.9L173.25,5.491h2.892L174.805,12.7l.352-.422,2.628-2.786h3.665l-4.043,4.043L179.859,19h-3.173Zm9.949,3.683a4.421,4.421,0,0,1-2.272-.6,3.793,3.793,0,0,1-1.507-1.652,4.44,4.44,0,0,1-.4-2.333l.026-.246a5.829,5.829,0,0,1,1.63-3.713,4.51,4.51,0,0,1,3.415-1.314,3.678,3.678,0,0,1,2.092.621A3.468,3.468,0,0,1,189.5,11.6a5.1,5.1,0,0,1,.264,2.381l-.167,1.206h-5.66a1.854,1.854,0,0,0,.422,1.213,1.549,1.549,0,0,0,1.178.492,2.993,2.993,0,0,0,2.259-.967l1.213,1.6a3.578,3.578,0,0,1-1.5,1.2,5.263,5.263,0,0,1-2.1.451Zm.7-7.576a1.487,1.487,0,0,0-1.068.385,3.229,3.229,0,0,0-.787,1.347h2.892l.053-.254a1.929,1.929,0,0,0,.018-.577A1.017,1.017,0,0,0,185.95,11.6Zm9.589-4.474-.413,2.364h1.521l-.36,2.057h-1.521l-.738,4.368a1.164,1.164,0,0,0,.057.677q.119.229.593.246a6.873,6.873,0,0,0,.756-.044l-.211,2.145a4.673,4.673,0,0,1-1.556.22,2.563,2.563,0,0,1-2.013-.791,2.7,2.7,0,0,1-.545-2.1l.773-4.72H190.7l.352-2.057h1.178l.413-2.364ZM199.248,19h-2.9L198,9.49h2.9Zm-.993-11.909a1.341,1.341,0,0,1,.453-1.072,1.625,1.625,0,0,1,1.138-.431,1.678,1.678,0,0,1,1.129.387,1.318,1.318,0,0,1,.47,1.011A1.344,1.344,0,0,1,201,8.062a1.63,1.63,0,0,1-1.143.426,1.7,1.7,0,0,1-1.121-.382A1.3,1.3,0,0,1,198.254,7.091Zm7.119,2.391-.2,1.143a3.38,3.38,0,0,1,2.751-1.318,2.27,2.27,0,0,1,1.964.98,4.1,4.1,0,0,1,.47,2.729l-1,5.985h-2.9l1.011-6.01a3.108,3.108,0,0,0,.018-.563q-.062-.836-.984-.836a1.807,1.807,0,0,0-1.4.678L203.915,19h-2.892l1.652-9.51Zm6.135,4.746a7.226,7.226,0,0,1,.787-2.593,4.564,4.564,0,0,1,1.551-1.753,3.735,3.735,0,0,1,2.109-.576,2.6,2.6,0,0,1,2.162,1.028l.308-.853,2.672.009-1.556,9.141a4.467,4.467,0,0,1-1.7,3.05,5.4,5.4,0,0,1-3.568,1.063,5.1,5.1,0,0,1-1.837-.378,3.957,3.957,0,0,1-1.521-1.09l1.371-1.705a2.489,2.489,0,0,0,1.986.993,2.324,2.324,0,0,0,2.443-2.048l.07-.29a2.973,2.973,0,0,1-2.171.949,2.932,2.932,0,0,1-1.608-.461,3.034,3.034,0,0,1-1.09-1.305,5.076,5.076,0,0,1-.448-1.9A8.253,8.253,0,0,1,211.508,14.228Zm2.856.94a2.306,2.306,0,0,0,.29,1.257.984.984,0,0,0,.844.466,1.933,1.933,0,0,0,1.485-.633l.747-4.034a1.281,1.281,0,0,0-1.178-.633,1.683,1.683,0,0,0-1.415.716,3.861,3.861,0,0,0-.721,1.929Q214.365,14.79,214.365,15.168Z" transform="translate(-8602.5 -9275)" fill="#12263f"/>
    <rect id="Rectángulo_401048" data-name="Rectángulo 401048" width="370" height="118" rx="16" transform="translate(-8659 -9090.904)" fill="#85b6ec"/>
    <path id="Feature_One-3" data-name="Feature One" d="M18.432,14.627H23.8V17H15.347V4.2h3.085Zm6.161-2.47a5.613,5.613,0,0,1,.554-2.536,3.96,3.96,0,0,1,1.591-1.709,4.791,4.791,0,0,1,2.435-.6,4.373,4.373,0,0,1,3.366,1.323,5.076,5.076,0,0,1,1.23,3.6v.105a4.925,4.925,0,0,1-1.235,3.529,4.384,4.384,0,0,1-3.344,1.305,4.434,4.434,0,0,1-3.261-1.217,4.761,4.761,0,0,1-1.327-3.3Zm2.962.185a3.538,3.538,0,0,0,.413,1.934,1.376,1.376,0,0,0,1.222.615q1.582,0,1.617-2.435v-.3q0-2.558-1.635-2.558-1.485,0-1.608,2.206Zm7.172-.167A6.421,6.421,0,0,1,35.2,9.626a3.821,3.821,0,0,1,1.362-1.709,3.591,3.591,0,0,1,2.065-.6,2.855,2.855,0,0,1,2.32,1l.105-.826h2.689V16.64a4.009,4.009,0,0,1-.584,2.184,3.75,3.75,0,0,1-1.692,1.424,6.219,6.219,0,0,1-2.566.5,5.365,5.365,0,0,1-2.026-.4,3.657,3.657,0,0,1-1.5-1.028l1.239-1.74a2.716,2.716,0,0,0,2.18.976,1.764,1.764,0,0,0,1.969-2.021v-.3a2.781,2.781,0,0,1-2.153.94A3.437,3.437,0,0,1,35.8,15.844a5.517,5.517,0,0,1-1.072-3.564Zm2.971.185a3.383,3.383,0,0,0,.439,1.85,1.387,1.387,0,0,0,1.23.681,1.573,1.573,0,0,0,1.4-.642v-4a1.534,1.534,0,0,0-1.38-.65,1.4,1.4,0,0,0-1.239.708A3.858,3.858,0,0,0,37.7,12.359ZM51.18,10.171,50.2,10.1a1.752,1.752,0,0,0-1.793.879V17H45.449V7.49h2.777l.1,1.222a2.294,2.294,0,0,1,2.083-1.4,2.888,2.888,0,0,1,.826.105Zm.378,1.986a5.613,5.613,0,0,1,.554-2.536A3.96,3.96,0,0,1,53.7,7.912a4.791,4.791,0,0,1,2.435-.6A4.373,4.373,0,0,1,59.5,8.637a5.076,5.076,0,0,1,1.23,3.6v.105A4.925,4.925,0,0,1,59.5,15.871a4.384,4.384,0,0,1-3.344,1.305,4.434,4.434,0,0,1-3.261-1.217,4.761,4.761,0,0,1-1.327-3.3Zm2.962.185a3.538,3.538,0,0,0,.413,1.934,1.376,1.376,0,0,0,1.222.615q1.582,0,1.617-2.435v-.3q0-2.558-1.635-2.558-1.485,0-1.608,2.206Zm11.628-.167a5.809,5.809,0,0,1,.976-3.56,3.211,3.211,0,0,1,2.725-1.3,2.731,2.731,0,0,1,2.145,1V3.5h2.971V17H72.3l-.149-1.02a2.8,2.8,0,0,1-2.32,1.2,3.205,3.205,0,0,1-2.689-1.3A5.993,5.993,0,0,1,66.147,12.175Zm2.962.185q0,2.531,1.477,2.531a1.458,1.458,0,0,0,1.406-.826V10.443A1.419,1.419,0,0,0,70.6,9.6q-1.371,0-1.485,2.215Zm12.138,4.816a4.889,4.889,0,0,1-3.542-1.305,4.507,4.507,0,0,1-1.354-3.4v-.246a5.84,5.84,0,0,1,.541-2.575A3.955,3.955,0,0,1,78.47,7.925a4.763,4.763,0,0,1,2.461-.611,4.117,4.117,0,0,1,3.164,1.244,4.887,4.887,0,0,1,1.16,3.467v1.151H79.366a2.135,2.135,0,0,0,.694,1.257,2.066,2.066,0,0,0,1.389.457,2.662,2.662,0,0,0,2.2-.984L85,15.506a3.784,3.784,0,0,1-1.569,1.217A5.3,5.3,0,0,1,81.247,17.176ZM80.913,9.6q-1.3,0-1.547,1.723h2.988v-.229a1.467,1.467,0,0,0-.36-1.1A1.434,1.434,0,0,0,80.913,9.6Zm9.642,2.558a5.613,5.613,0,0,1,.554-2.536A3.96,3.96,0,0,1,92.7,7.912a4.791,4.791,0,0,1,2.435-.6A4.373,4.373,0,0,1,98.5,8.637a5.076,5.076,0,0,1,1.23,3.6v.105A4.925,4.925,0,0,1,98.5,15.871a4.384,4.384,0,0,1-3.344,1.305,4.434,4.434,0,0,1-3.261-1.217,4.761,4.761,0,0,1-1.327-3.3Zm2.962.185a3.538,3.538,0,0,0,.413,1.934,1.376,1.376,0,0,0,1.222.615q1.582,0,1.617-2.435v-.3q0-2.558-1.635-2.558-1.485,0-1.608,2.206Zm16.348-.018a5.8,5.8,0,0,1-.967,3.595,3.238,3.238,0,0,1-2.725,1.257,2.81,2.81,0,0,1-2.338-1.151l-.123.976h-2.654V3.5h2.962V8.255a2.711,2.711,0,0,1,2.136-.94A3.239,3.239,0,0,1,108.9,8.589a5.826,5.826,0,0,1,.967,3.586Zm-2.971-.189a3.866,3.866,0,0,0-.365-1.952,1.229,1.229,0,0,0-1.121-.584,1.418,1.418,0,0,0-1.389.763v3.773a1.426,1.426,0,0,0,1.406.755,1.258,1.258,0,0,0,1.327-1.018A7.309,7.309,0,0,0,106.894,12.135Zm7.462-4.645v9.835a3.452,3.452,0,0,1-.967,2.6,3.714,3.714,0,0,1-2.672.914,6.308,6.308,0,0,1-1.4-.149V18.45a5.667,5.667,0,0,0,.835.079,1.084,1.084,0,0,0,1.23-1.222V7.49Zm-3.19-2.452A1.322,1.322,0,0,1,111.622,4,1.943,1.943,0,0,1,114,4a1.322,1.322,0,0,1,.457,1.037A1.322,1.322,0,0,1,114,6.075a1.943,1.943,0,0,1-2.373,0A1.322,1.322,0,0,1,111.165,5.038Zm9.466,12.138a4.889,4.889,0,0,1-3.542-1.305,4.507,4.507,0,0,1-1.354-3.4v-.246a5.84,5.84,0,0,1,.541-2.575,3.955,3.955,0,0,1,1.578-1.727,4.763,4.763,0,0,1,2.461-.611,4.117,4.117,0,0,1,3.164,1.244,4.887,4.887,0,0,1,1.16,3.467v1.151H118.75a2.135,2.135,0,0,0,.694,1.257,2.066,2.066,0,0,0,1.389.457,2.662,2.662,0,0,0,2.2-.984l1.354,1.6a3.784,3.784,0,0,1-1.569,1.217A5.3,5.3,0,0,1,120.631,17.176ZM120.3,9.6q-1.3,0-1.547,1.723h2.988v-.229a1.467,1.467,0,0,0-.36-1.1A1.434,1.434,0,0,0,120.3,9.6Zm8.982-4.474V7.49h1.564V9.547h-1.564V13.9a1.111,1.111,0,0,0,.193.747,1.037,1.037,0,0,0,.765.211,4.345,4.345,0,0,0,.738-.053v2.118a5.466,5.466,0,0,1-1.67.255,3.1,3.1,0,0,1-2.259-.721,2.954,2.954,0,0,1-.729-2.188V9.547H125.1V7.49h1.213V5.126ZM135.133,17h-2.971V7.49h2.971ZM131.986,5.038A1.322,1.322,0,0,1,132.443,4a1.943,1.943,0,0,1,2.373,0,1.322,1.322,0,0,1,.457,1.037,1.322,1.322,0,0,1-.457,1.037,1.943,1.943,0,0,1-2.373,0A1.322,1.322,0,0,1,131.986,5.038Zm8.763,8.438,1.5-5.985h3.12L142.27,17h-3.023l-3.1-9.51h3.129Zm5-1.318a5.613,5.613,0,0,1,.554-2.536,3.96,3.96,0,0,1,1.591-1.709,4.791,4.791,0,0,1,2.435-.6A4.373,4.373,0,0,1,153.7,8.637a5.076,5.076,0,0,1,1.23,3.6v.105a4.925,4.925,0,0,1-1.235,3.529,4.384,4.384,0,0,1-3.344,1.305,4.434,4.434,0,0,1-3.261-1.217,4.761,4.761,0,0,1-1.327-3.3Zm2.962.185a3.538,3.538,0,0,0,.413,1.934,1.376,1.376,0,0,0,1.222.615q1.582,0,1.617-2.435v-.3q0-2.558-1.635-2.558-1.485,0-1.608,2.206Zm12.5,1.986a.684.684,0,0,0-.4-.606,6.016,6.016,0,0,0-1.5-.475,6.853,6.853,0,0,1-1.828-.646,3.062,3.062,0,0,1-1.1-.971,2.319,2.319,0,0,1-.378-1.31,2.628,2.628,0,0,1,1.081-2.158,4.453,4.453,0,0,1,2.83-.848,4.934,4.934,0,0,1,3.023.853,2.666,2.666,0,0,1,1.143,2.241h-2.971q0-1.143-1.2-1.143a1.194,1.194,0,0,0-.782.259.8.8,0,0,0-.316.646.737.737,0,0,0,.387.642,3.654,3.654,0,0,0,1.235.4,10.671,10.671,0,0,1,1.49.378,2.706,2.706,0,0,1,2.145,2.646,2.491,2.491,0,0,1-1.156,2.118,5.068,5.068,0,0,1-2.993.817,5.172,5.172,0,0,1-2.18-.439,3.645,3.645,0,0,1-1.494-1.2,2.707,2.707,0,0,1-.536-1.591h2.769a1.145,1.145,0,0,0,.439.962,1.808,1.808,0,0,0,1.081.3,1.422,1.422,0,0,0,.91-.246A.787.787,0,0,0,161.21,14.328ZM2.717,36.175a5.809,5.809,0,0,1,.976-3.56,3.211,3.211,0,0,1,2.725-1.3,2.731,2.731,0,0,1,2.145,1V27.5h2.971V41H8.869L8.72,39.98a2.8,2.8,0,0,1-2.32,1.2,3.205,3.205,0,0,1-2.689-1.3A5.993,5.993,0,0,1,2.717,36.175Zm2.962.185q0,2.531,1.477,2.531a1.458,1.458,0,0,0,1.406-.826V34.443A1.419,1.419,0,0,0,7.173,33.6q-1.371,0-1.485,2.215Zm12.138,4.816a4.889,4.889,0,0,1-3.542-1.305,4.507,4.507,0,0,1-1.354-3.4v-.246a5.84,5.84,0,0,1,.541-2.575,3.955,3.955,0,0,1,1.578-1.727,4.763,4.763,0,0,1,2.461-.611,4.117,4.117,0,0,1,3.164,1.244,4.887,4.887,0,0,1,1.16,3.467v1.151H15.936a2.135,2.135,0,0,0,.694,1.257,2.066,2.066,0,0,0,1.389.457,2.662,2.662,0,0,0,2.2-.984l1.354,1.6A3.784,3.784,0,0,1,20,40.723,5.3,5.3,0,0,1,17.816,41.176ZM17.482,33.6q-1.3,0-1.547,1.723h2.988v-.229a1.467,1.467,0,0,0-.36-1.1A1.434,1.434,0,0,0,17.482,33.6ZM26.14,41H23.169V27.5H26.14Zm15.135-4.685a5.735,5.735,0,0,1-1,3.538,3.2,3.2,0,0,1-2.694,1.323,2.742,2.742,0,0,1-2.153-.958v4.438H32.468V31.49h2.769l.088.879a2.742,2.742,0,0,1,2.241-1.055,3.224,3.224,0,0,1,2.733,1.3,5.805,5.805,0,0,1,.976,3.564Zm-2.962-.185q0-2.531-1.477-2.531a1.394,1.394,0,0,0-1.406.756V38.1a1.439,1.439,0,0,0,1.424.791q1.415,0,1.459-2.443ZM45.7,41H42.733V27.5H45.7Zm7.181,0a3.344,3.344,0,0,1-.281-.853,2.754,2.754,0,0,1-2.285,1.028,3.374,3.374,0,0,1-2.285-.813,2.588,2.588,0,0,1-.94-2.043,2.66,2.66,0,0,1,1.143-2.338,5.821,5.821,0,0,1,3.322-.791h.914v-.5q0-1.316-1.134-1.316a.927.927,0,0,0-1.055,1.042H47.321a2.655,2.655,0,0,1,1.173-2.239,4.931,4.931,0,0,1,2.993-.86,4.323,4.323,0,0,1,2.874.888,3.086,3.086,0,0,1,1.081,2.435v4.21a4.311,4.311,0,0,0,.4,2V41ZM51.03,39.066a1.652,1.652,0,0,0,.918-.237,1.487,1.487,0,0,0,.523-.536V36.772H51.61q-1.547,0-1.547,1.389a.848.848,0,0,0,.272.655A.986.986,0,0,0,51.03,39.066ZM59.8,31.49l.1,1.116a3.225,3.225,0,0,1,2.716-1.292,2.713,2.713,0,0,1,2.219.888,4.226,4.226,0,0,1,.76,2.672V41H62.623V35a1.6,1.6,0,0,0-.29-1.059,1.342,1.342,0,0,0-1.055-.338,1.413,1.413,0,0,0-1.292.686V41H57.024V31.49Zm11.54,4.685a5.809,5.809,0,0,1,.976-3.56,3.211,3.211,0,0,1,2.725-1.3,2.731,2.731,0,0,1,2.145,1V27.5h2.971V41H77.494l-.149-1.02a2.8,2.8,0,0,1-2.32,1.2,3.205,3.205,0,0,1-2.689-1.3A5.993,5.993,0,0,1,71.342,36.175Zm2.962.185q0,2.531,1.477,2.531a1.458,1.458,0,0,0,1.406-.826V34.443A1.419,1.419,0,0,0,75.8,33.6q-1.371,0-1.485,2.215Zm12.138,4.816A4.889,4.889,0,0,1,82.9,39.871a4.507,4.507,0,0,1-1.354-3.4v-.246a5.84,5.84,0,0,1,.541-2.575,3.955,3.955,0,0,1,1.578-1.727,4.763,4.763,0,0,1,2.461-.611,4.117,4.117,0,0,1,3.164,1.244,4.887,4.887,0,0,1,1.16,3.467v1.151H84.561a2.135,2.135,0,0,0,.694,1.257,2.066,2.066,0,0,0,1.389.457,2.662,2.662,0,0,0,2.2-.984l1.354,1.6a3.784,3.784,0,0,1-1.569,1.217A5.3,5.3,0,0,1,86.441,41.176ZM86.107,33.6q-1.3,0-1.547,1.723h2.988v-.229a1.467,1.467,0,0,0-.36-1.1A1.434,1.434,0,0,0,86.107,33.6Zm13.43-2.118-.193,1.143a3.414,3.414,0,0,1,2.777-1.31,2.509,2.509,0,0,1,1.415.4,1.843,1.843,0,0,1,.738,1.028,3.619,3.619,0,0,1,2.892-1.433,2.241,2.241,0,0,1,1.956.989,4.117,4.117,0,0,1,.461,2.711L108.59,41h-2.9l1.011-5.987.035-.518q0-.869-.817-.9a1.872,1.872,0,0,0-1.424.781L103.343,41h-2.9l1-5.969.035-.527q0-.9-.817-.9a1.86,1.86,0,0,0-1.406.781L98.087,41H95.2l1.652-9.51ZM115.665,41a2.578,2.578,0,0,1-.123-.861,2.933,2.933,0,0,1-2.329,1.037,2.866,2.866,0,0,1-2.057-.826,2.483,2.483,0,0,1-.765-1.96,2.79,2.79,0,0,1,1.292-2.377,6.091,6.091,0,0,1,3.41-.831l.967.018.105-.536.035-.466a.755.755,0,0,0-.8-.826,1.111,1.111,0,0,0-1.169,1.046l-2.9.009a2.754,2.754,0,0,1,.624-1.666,3.7,3.7,0,0,1,1.578-1.09,5.512,5.512,0,0,1,2.123-.356,4.251,4.251,0,0,1,1.894.453,2.82,2.82,0,0,1,1.217,1.187,3.031,3.031,0,0,1,.308,1.753l-.712,4.474-.044.545a2.4,2.4,0,0,0,.167,1.107l-.009.167Zm-1.652-1.916a1.865,1.865,0,0,0,1.556-.782l.29-1.529-.747-.009a1.969,1.969,0,0,0-1.2.409,1.55,1.55,0,0,0-.589,1.068.778.778,0,0,0,.136.593A.7.7,0,0,0,114.013,39.084Zm12.507-4.913a8.273,8.273,0,0,0-.9-.088,2.233,2.233,0,0,0-1.986.9L122.564,41h-2.892l1.652-9.51,2.7-.009-.22,1.248a2.64,2.64,0,0,1,2.2-1.441,4.144,4.144,0,0,1,.9.123Zm4.254,3.322-1.055.914L129.271,41h-2.892l2.347-13.509h2.892L130.281,34.7l.352-.422,2.628-2.786h3.665l-4.043,4.043L135.335,41h-3.173Zm9.949,3.683a4.421,4.421,0,0,1-2.272-.6,3.793,3.793,0,0,1-1.507-1.652,4.44,4.44,0,0,1-.4-2.333l.026-.246a5.829,5.829,0,0,1,1.63-3.713,4.51,4.51,0,0,1,3.415-1.314,3.678,3.678,0,0,1,2.092.621,3.468,3.468,0,0,1,1.274,1.664,5.1,5.1,0,0,1,.264,2.381l-.167,1.206h-5.66a1.854,1.854,0,0,0,.422,1.213,1.549,1.549,0,0,0,1.178.492,2.993,2.993,0,0,0,2.259-.967l1.213,1.6a3.578,3.578,0,0,1-1.5,1.2,5.263,5.263,0,0,1-2.1.451Zm.7-7.576a1.487,1.487,0,0,0-1.068.385,3.229,3.229,0,0,0-.787,1.347h2.892l.053-.254a1.929,1.929,0,0,0,.018-.577A1.017,1.017,0,0,0,141.426,33.6Zm9.589-4.474L150.6,31.49h1.521l-.36,2.057h-1.521l-.738,4.368a1.164,1.164,0,0,0,.057.677q.119.229.593.246a6.873,6.873,0,0,0,.756-.044l-.211,2.145a4.673,4.673,0,0,1-1.556.22,2.563,2.563,0,0,1-2.013-.791,2.7,2.7,0,0,1-.545-2.1l.773-4.72h-1.178l.352-2.057h1.178l.413-2.364ZM154.724,41h-2.9l1.652-9.51h2.9Zm-.993-11.909a1.341,1.341,0,0,1,.453-1.072,1.625,1.625,0,0,1,1.138-.431,1.678,1.678,0,0,1,1.129.387,1.318,1.318,0,0,1,.47,1.011,1.344,1.344,0,0,1-.448,1.077,1.63,1.63,0,0,1-1.143.426,1.7,1.7,0,0,1-1.121-.382A1.3,1.3,0,0,1,153.73,29.091Zm7.119,2.391-.2,1.143a3.38,3.38,0,0,1,2.751-1.318,2.27,2.27,0,0,1,1.964.98,4.1,4.1,0,0,1,.47,2.729l-1,5.985h-2.9l1.011-6.01a3.108,3.108,0,0,0,.018-.563q-.062-.836-.984-.836a1.807,1.807,0,0,0-1.4.678L159.391,41H156.5l1.652-9.51Zm6.135,4.746a7.226,7.226,0,0,1,.787-2.593,4.564,4.564,0,0,1,1.551-1.753,3.735,3.735,0,0,1,2.109-.576,2.6,2.6,0,0,1,2.162,1.028l.308-.853,2.672.009-1.556,9.141a4.467,4.467,0,0,1-1.7,3.05,5.4,5.4,0,0,1-3.568,1.063,5.1,5.1,0,0,1-1.837-.378,3.957,3.957,0,0,1-1.521-1.09l1.371-1.705a2.489,2.489,0,0,0,1.986.993,2.324,2.324,0,0,0,2.443-2.048l.07-.29a2.973,2.973,0,0,1-2.171.949,2.932,2.932,0,0,1-1.608-.461,3.034,3.034,0,0,1-1.09-1.305,5.076,5.076,0,0,1-.448-1.9A8.253,8.253,0,0,1,166.984,36.228Zm2.856.94a2.306,2.306,0,0,0,.29,1.257.984.984,0,0,0,.844.466,1.933,1.933,0,0,0,1.485-.633l.747-4.034a1.281,1.281,0,0,0-1.178-.633,1.683,1.683,0,0,0-1.415.716,3.861,3.861,0,0,0-.721,1.929Q169.841,36.79,169.841,37.168Z" transform="translate(-8563.5 -9054.404)" fill="#12263f"/>
    <g id="Grupo_1099824" data-name="Grupo 1099824" transform="translate(-8498.046 -9165.855)">
      <g id="Grupo_1099824-2" data-name="Grupo 1099824" transform="translate(0 0)" clip-path="url(#clip-path-2)">
        <path id="Trazado_873817" data-name="Trazado 873817" d="M40.968,42.38H10.288q-5.628,0-6.794-3.4a16.673,16.673,0,0,1-.531-4.618A14.75,14.75,0,0,1,3.547,29.8,3.856,3.856,0,0,1,5.4,27.412a11.611,11.611,0,0,1,4.989-.955h30.68q5.518,0,6.582,3.4a13.333,13.333,0,0,1,.637,4.565,16.421,16.421,0,0,1-.531,4.618,3.893,3.893,0,0,1-1.8,2.442,6.3,6.3,0,0,1-2.177.8,26.57,26.57,0,0,1-2.813.106m0-22.506H10.288q-5.522,0-6.582-3.4a14.089,14.089,0,0,1-.637-4.618,14.759,14.759,0,0,1,.584-4.566A3.857,3.857,0,0,1,5.511,4.906a10.916,10.916,0,0,1,4.883-.955h30.68q5.626,0,6.794,3.4a15.841,15.841,0,0,1,.531,4.565,16.417,16.417,0,0,1-.531,4.618,3.9,3.9,0,0,1-1.8,2.442,6.3,6.3,0,0,1-2.177.8,28.017,28.017,0,0,1-2.919.106" transform="translate(-0.794 -1.059)" fill="#2a5f61"/>
        <path id="Trazado_873818" data-name="Trazado 873818" d="M38,38.429H7.325q-5.628,0-6.794-3.4A16.673,16.673,0,0,1,0,30.415,14.75,14.75,0,0,1,.584,25.85a3.856,3.856,0,0,1,1.858-2.389,11.611,11.611,0,0,1,4.989-.955h30.68q5.518,0,6.582,3.4a13.333,13.333,0,0,1,.637,4.565,16.421,16.421,0,0,1-.531,4.618,3.893,3.893,0,0,1-1.8,2.442,6.3,6.3,0,0,1-2.177.8A26.571,26.571,0,0,1,38,38.429m0-22.506H7.325q-5.522,0-6.582-3.4A14.089,14.089,0,0,1,.106,7.909,14.759,14.759,0,0,1,.69,3.344,3.857,3.857,0,0,1,2.548.955,10.916,10.916,0,0,1,7.431,0h30.68q5.626,0,6.794,3.4a15.841,15.841,0,0,1,.531,4.565,16.417,16.417,0,0,1-.531,4.618,3.9,3.9,0,0,1-1.8,2.442,6.3,6.3,0,0,1-2.177.8A28.017,28.017,0,0,1,38,15.924" transform="translate(0 0)" fill="#59c4c8"/>
      </g>
    </g>
    <g id="Grupo_1099825" data-name="Grupo 1099825" transform="translate(-8498.046 -9407.096)">
      <g id="Grupo_1099826" data-name="Grupo 1099826" transform="translate(0 0)" clip-path="url(#clip-path-3)">
        <path id="Trazado_873819" data-name="Trazado 873819" d="M33.707,19.323h7.831a11.078,11.078,0,0,1,4.931.821,4.156,4.156,0,0,1,2.079,2.466,14.762,14.762,0,0,1,.531,4.4,16.151,16.151,0,0,1-.483,4.4,3.755,3.755,0,0,1-1.644,2.32,11.253,11.253,0,0,1-4.931.87H33.707v7.831a11.073,11.073,0,0,1-.821,4.931,4.143,4.143,0,0,1-2.466,2.078,14.718,14.718,0,0,1-4.4.532,14.717,14.717,0,0,1-4.4-.532,3.807,3.807,0,0,1-2.32-1.789,12.81,12.81,0,0,1-.87-5.317V34.6H10.021a10.383,10.383,0,0,1-4.641-.773,3.861,3.861,0,0,1-1.934-2.466,16.387,16.387,0,0,1-.483-4.4,15.021,15.021,0,0,1,.531-4.4A3.744,3.744,0,0,1,5.38,20.193a12.8,12.8,0,0,1,5.317-.87h7.734V11.492A11.661,11.661,0,0,1,19.2,6.56a3.972,3.972,0,0,1,2.466-2.078,15.048,15.048,0,0,1,4.4-.532,15.066,15.066,0,0,1,4.4.532,3.841,3.841,0,0,1,2.368,1.789,12.814,12.814,0,0,1,.87,5.317Z" transform="translate(-0.987 -1.316)" fill="#2a5f61"/>
        <path id="Trazado_873820" data-name="Trazado 873820" d="M30.744,15.373h7.831a11.078,11.078,0,0,1,4.931.821,4.156,4.156,0,0,1,2.079,2.466,14.762,14.762,0,0,1,.531,4.4,16.125,16.125,0,0,1-.483,4.4,3.759,3.759,0,0,1-1.644,2.32,11.264,11.264,0,0,1-4.931.869H30.744v7.831a11.074,11.074,0,0,1-.821,4.931,4.143,4.143,0,0,1-2.466,2.078,14.718,14.718,0,0,1-4.4.532,14.717,14.717,0,0,1-4.4-.532,3.807,3.807,0,0,1-2.32-1.789,12.81,12.81,0,0,1-.87-5.317V30.647H7.058a10.383,10.383,0,0,1-4.641-.773A3.861,3.861,0,0,1,.483,27.409,16.387,16.387,0,0,1,0,23.009a15.021,15.021,0,0,1,.531-4.4,3.744,3.744,0,0,1,1.886-2.368,12.811,12.811,0,0,1,5.317-.87h7.734V7.542a11.661,11.661,0,0,1,.773-4.931A3.972,3.972,0,0,1,18.708.532,15.048,15.048,0,0,1,23.106,0a15.066,15.066,0,0,1,4.4.532,3.841,3.841,0,0,1,2.368,1.789,12.814,12.814,0,0,1,.87,5.317Z" transform="translate(0 0)" fill="#59c4c8"/>
      </g>
    </g>
  </g>
</svg>
