<svg xmlns="http://www.w3.org/2000/svg" xmlns:xlink="http://www.w3.org/1999/xlink" width="820" height="255.136" viewBox="0 0 820 255.136">
  <defs>
    <clipPath id="clip-path">
      <rect id="Rectángulo_401016" data-name="Rectángulo 401016" width="94.853" height="91.708" fill="none"/>
    </clipPath>
    <clipPath id="clip-path-2">
      <rect id="Rectángulo_401017" data-name="Rectángulo 401017" width="100.463" height="81.689" fill="none"/>
    </clipPath>
    <clipPath id="clip-path-3">
      <rect id="Rectángulo_401018" data-name="Rectángulo 401018" width="95.111" height="94.872" fill="#12263f"/>
    </clipPath>
    <clipPath id="clip-path-4">
      <rect id="Rectángulo_401019" data-name="Rectángulo 401019" width="67.617" height="95.004" fill="#12263f"/>
    </clipPath>
  </defs>
  <g id="img2" transform="translate(-390 -812.932)">
    <path id="Trazado_873488" data-name="Trazado 873488" d="M153.266,0V54.2a73.582,73.582,0,0,0-68.022,69.027H-251.312V.005Z" transform="translate(641.313 812.927)" fill="#2a5f61"/>
    <path id="Trazado_873489" data-name="Trazado 873489" d="M680.007,438.288a62.347,62.347,0,1,1-62.347-62.347,62.347,62.347,0,0,1,62.347,62.347" transform="translate(182.341 502.211)" fill="#d2e1f1"/>
    <path id="Trazado_873490" data-name="Trazado 873490" d="M1350.516.005v123.22H1013.959A73.582,73.582,0,0,0,945.937,54.2V0Z" transform="translate(-140.516 812.927)" fill="#ffb074"/>
    <path id="Trazado_873491" data-name="Trazado 873491" d="M153.266,839.635v54.193H-251.312V772.755H85.4a73.584,73.584,0,0,0,67.863,66.88" transform="translate(641.313 174.239)" fill="#8ce2e5"/>
    <path id="Trazado_873492" data-name="Trazado 873492" d="M1350.516,772.755V893.828H945.937V839.635a73.584,73.584,0,0,0,67.863-66.88Z" transform="translate(-140.516 174.239)" fill="#315884"/>
    <g id="Grupo_1099711" data-name="Grupo 1099711" transform="translate(669 829)">
      <g id="Grupo_1099710" data-name="Grupo 1099710" transform="translate(-252 -1)" clip-path="url(#clip-path)">
        <path id="Trazado_873586" data-name="Trazado 873586" d="M93.215,0H27.6a1.637,1.637,0,0,0-1.638,1.638V15.729A1.637,1.637,0,0,0,27.6,17.367h2.558V49.222A45.592,45.592,0,0,0,23.571,54.5l-.795-.879a1.64,1.64,0,0,0-2.313-.12L.541,71.463a1.626,1.626,0,0,0-.424.68A1.61,1.61,0,0,0,0,72.6H0a1.635,1.635,0,0,0,.421,1.18l15.71,17.389a1.639,1.639,0,0,0,2.313.12l1.894-1.707L32.51,78.618c.009-.008.012-.02.021-.028l5.837-5.262a1.638,1.638,0,0,0,.118-2.315l-1.4-1.544c1.571-2.114,2.625-3.066,4.884-2.6a62.719,62.719,0,0,0,24.724.313c12.347-2.375,23.559-8.492,25.556-11.5a2.517,2.517,0,0,0,.456-1.958,4.26,4.26,0,0,0-1.894-2.857c-.053-.033-.116-.049-.171-.08V17.367h2.571a1.637,1.637,0,0,0,1.638-1.638V1.638A1.637,1.637,0,0,0,93.215,0M33.438,17.372H87.368V50.211a47.826,47.826,0,0,0-8.135,1.678l-.684.176a21.558,21.558,0,0,1-6.48.817,6.074,6.074,0,0,0-1.281-3.776c-3.022-3.953-11.477-6.174-22.625-5.984a32.388,32.388,0,0,0-14.724,4.146ZM17.467,87.758,3.954,72.8,15.586,62.324,29.095,77.276Zm14.06-12.675L18.014,60.125l3.428-3.091L34.955,71.993ZM66.081,63.969a59.448,59.448,0,0,1-23.441-.3c-3.95-.808-6.09,1.126-7.792,3.32L25.774,56.944C28.367,54.426,37.291,46.6,48.223,46.4c9.841-.177,17.642,1.664,19.961,4.7a2.827,2.827,0,0,1,.5,2.7,1.721,1.721,0,0,1-1,1.142c-2.7,1.278-9.374-.664-12.941-2.189a1.638,1.638,0,0,0-1.289,3.011c.841.361,6.855,2.86,11.8,2.86a9.04,9.04,0,0,0,3.829-.72,5.064,5.064,0,0,0,2.078-1.8,23,23,0,0,0,8.209-.863l.684-.176c4.286-1.1,7.987-2.052,9.054-1.395a.73.73,0,0,1,.3.393c-1.534,1.881-11.552,7.646-23.317,9.908m25.5-49.878H29.241V3.276H91.577Z" transform="translate(0)" fill="#fff"/>
        <path id="Trazado_873587" data-name="Trazado 873587" d="M131.135,66.237a4.707,4.707,0,1,0,0-9.414H108.368a4.707,4.707,0,1,0,0,9.414Zm-24.2-4.706a1.432,1.432,0,0,1,1.432-1.432h22.767a1.431,1.431,0,1,1,0,2.862H108.368a1.432,1.432,0,0,1-1.432-1.43" transform="translate(-59.342 -32.529)" fill="#fff"/>
      </g>
    </g>
    <g id="Grupo_1099713" data-name="Grupo 1099713" transform="translate(1087 966)">
      <g id="Grupo_1099712" data-name="Grupo 1099712" transform="translate(0 0)" clip-path="url(#clip-path-2)">
        <path id="Trazado_873588" data-name="Trazado 873588" d="M41.416,58.864H55.949a1.732,1.732,0,1,0,0-3.464H41.416a1.732,1.732,0,0,0,0,3.464" transform="translate(-22.718 -31.715)" fill="#fff"/>
        <path id="Trazado_873589" data-name="Trazado 873589" d="M41.416,73.068H55.949a1.732,1.732,0,1,0,0-3.464H41.416a1.732,1.732,0,0,0,0,3.464" transform="translate(-22.718 -39.846)" fill="#fff"/>
        <path id="Trazado_873590" data-name="Trazado 873590" d="M57.682,85.777a1.731,1.731,0,0,0-1.732-1.732H41.416a1.732,1.732,0,0,0,0,3.464H55.95a1.731,1.731,0,0,0,1.732-1.732" transform="translate(-22.718 -48.113)" fill="#fff"/>
        <path id="Trazado_873591" data-name="Trazado 873591" d="M78.368,22.336V1.732a1.732,1.732,0,0,0-2.981-1.2c-12.631,13.147-33.418,14.8-34.793,14.9-.01,0-.018-.006-.028-.006H18.715A16.022,16.022,0,0,0,14,46.767c-1.574,1.814-2.873,3.544-3.66,4.64H1.732A1.731,1.731,0,0,0,0,53.139V71.99a1.731,1.731,0,0,0,1.732,1.732h9.242a1.591,1.591,0,0,0,.191-.038c1.288.258,3.433.555,6.069.838L15.863,79.5a1.736,1.736,0,0,0,1.671,2.192H36.185a1.731,1.731,0,0,0,1.729-1.629l.333-5.574a7.872,7.872,0,0,0,2.9-1.226c1.9-1.541,2.785-3.138,2.635-4.748a3.584,3.584,0,0,0-.315-1.179,4.064,4.064,0,0,0,1.668-2.881,3.671,3.671,0,0,0-.555-2.177,4.4,4.4,0,0,0,1.465-2.938,4.064,4.064,0,0,0-.277-1.715,4.214,4.214,0,0,0,1.018-.831,4.682,4.682,0,0,0,.967-4.061c-.443-2.584-3.265-3.624-6.251-4.07l.3-.973c4.885.52,22.4,3.142,33.587,14.781a1.731,1.731,0,0,0,2.981-1.2v-20.6a10.065,10.065,0,0,0,2.865-1.936,10.178,10.178,0,0,0,3.015-7.243,9.911,9.911,0,0,0-5.88-9.15M29.8,48.55c.088-.106.179-.215.267-.324a1.7,1.7,0,0,0,.324-.668h7.821l-.244.791a74.765,74.765,0,0,0-8.168.2M6.127,31.476A12.634,12.634,0,0,1,18.715,18.888H38.827V44.093H18.715A12.616,12.616,0,0,1,6.127,31.476m-2.663,23.4H9.229V70.258H3.464ZM19.808,78.225l.929-3.363c2.35.2,5.753.431,9.18.431,1.685,0,3.3-.09,4.827-.235l-.189,3.166ZM44.335,53.3a1.66,1.66,0,0,1-.135,1.183,2.037,2.037,0,0,1-1.228.4,1.646,1.646,0,0,0-1.695,1.139A1.739,1.739,0,0,0,41.848,58c.315.245.761.792.734,1.135-.02.286-.406.8-1.438,1.386a1.743,1.743,0,0,0-.108,2.941,1.778,1.778,0,0,1,.643.739c0,.005-.169.487-1.58,1.153a1.732,1.732,0,0,0-.085,3.089c.021.01.3.227.315.391.021.2-.244.826-1.36,1.73a5.848,5.848,0,0,1-2.669.844c-3.454.6-9.689.555-16.685-.12-3.06-.292-5.433-.6-6.908-.835V54.058a62.2,62.2,0,0,1,4.77-5.991,1.726,1.726,0,0,0,.356-.6c.3.016.58.089.882.089h7.3a19.81,19.81,0,0,1-1.484,1.365c-.321.269-.517.414-.545.433a1.734,1.734,0,0,0,1.286,3.119l.474-.059a88.892,88.892,0,0,1,12.182-.606c5.091.212,6.367,1.257,6.407,1.492M74.9,57.26C63.112,47.191,47.4,44.779,42.3,44.246V18.757c5.1-.532,20.814-2.947,32.606-13.016Zm3.88-20.98c-.127.126-.281.212-.416.327V26.4c.139.118.3.206.426.336a6.617,6.617,0,0,1,1.989,4.755,6.744,6.744,0,0,1-2,4.794" transform="translate(0 0)" fill="#fff"/>
        <path id="Trazado_873592" data-name="Trazado 873592" d="M215.2,69.6H205.183a1.732,1.732,0,1,0,0,3.464H215.2a1.732,1.732,0,0,0,0-3.464" transform="translate(-116.47 -39.846)" fill="#fff"/>
        <path id="Trazado_873593" data-name="Trazado 873593" d="M200.333,36.558a1.728,1.728,0,0,0,1.225-.507l7.084-7.082a1.732,1.732,0,1,0-2.449-2.449L199.108,33.6a1.732,1.732,0,0,0,1.225,2.957" transform="translate(-113.693 -14.891)" fill="#fff"/>
        <path id="Trazado_873594" data-name="Trazado 873594" d="M201.557,97.141a1.732,1.732,0,0,0-2.449,2.449l7.084,7.081a1.732,1.732,0,0,0,2.449-2.449Z" transform="translate(-113.692 -55.32)" fill="#fff"/>
      </g>
    </g>
    <g id="Grupo_1099715" data-name="Grupo 1099715" transform="translate(883 826)">
      <g id="Grupo_1099714" data-name="Grupo 1099714" transform="translate(207)" clip-path="url(#clip-path-3)">
        <path id="Trazado_873595" data-name="Trazado 873595" d="M64.544,102.93a18.145,18.145,0,1,0-9.972,33.333,18.291,18.291,0,0,0,3.746-.389,18.144,18.144,0,0,0,6.226-32.944m2.5,23.324a14.868,14.868,0,1,1-15.481-22.7,14.972,14.972,0,0,1,3.071-.32,14.877,14.877,0,0,1,12.41,23.015" transform="translate(-20.877 -57.225)" fill="#12263f"/>
        <path id="Trazado_873596" data-name="Trazado 873596" d="M72.447,120.085l1.532-2.342-2.607-1.7-1.654,2.528c-3.214-1.305-6.061-.549-7.593,1.791-1.689,2.582-.617,5.183,1.6,8,1.532,1.955,1.966,3.151,1.305,4.161-.7,1.064-2.118.971-3.634-.021a11.2,11.2,0,0,1-3.647-4.06l-2.838,2.592a12.819,12.819,0,0,0,3.775,4.1l-1.654,2.528,2.608,1.7,1.776-2.713c3.407,1.472,6.407.546,7.957-1.822,1.566-2.395,1.248-4.693-1.189-7.883-1.705-2.331-2.27-3.5-1.7-4.375.488-.745,1.531-1.126,3.262.005a10.474,10.474,0,0,1,3.238,3.412l2.739-2.5a11.415,11.415,0,0,0-3.281-3.4" transform="translate(-31.437 -66.428)" fill="#12263f"/>
        <path id="Trazado_873597" data-name="Trazado 873597" d="M81.994,30.008A6.828,6.828,0,0,0,78.8,25.887l-8.44-4.535c.516-.646,1.018-1.323,1.49-2.044C76.7,11.888,77.1,3.844,72.741.994,70.5-.472,67.5-.313,64.267,1.443a23.18,23.18,0,0,0-7.95,7.7,25.89,25.89,0,0,0-1.725,3.111l-20.54,4.526a7.11,7.11,0,0,0-4.439,3.063L1.163,63.315A7.153,7.153,0,0,0,3.228,73.2L34.4,93.6a7.142,7.142,0,0,0,9.886-2.065l2.946-4.5.776,2.843a6.811,6.811,0,0,0,6.552,5,6.92,6.92,0,0,0,1.817-.245l33.709-9.239A6.794,6.794,0,0,0,94.2,82.214a6.707,6.707,0,0,0,.665-5.16ZM59.058,10.937a19.876,19.876,0,0,1,6.771-6.614c2.092-1.137,3.962-1.348,5.117-.587,2.377,1.555,2.206,7.6-1.839,13.779-.083.126-.174.237-.258.361L68.6,16.638a7.141,7.141,0,0,0-8.542-5.591l-1.233.272c.08-.127.146-.256.228-.382M52.637,23.662c.037-.056.1-.087.138-.141a6.55,6.55,0,0,0,2.649,3.935,6.2,6.2,0,0,0,3.444.982,8.646,8.646,0,0,0,1.237-.166c-.04.069-.044.151-.089.219a4.41,4.41,0,1,1-7.379-4.829m7.581,1.313a3.648,3.648,0,0,1-3-.261,3.674,3.674,0,0,1-1.441-2.655c-.017-.1-.007-.227-.019-.334a4.492,4.492,0,0,1,.577-.059,4.328,4.328,0,0,1,4.216,3.293,1.563,1.563,0,0,0-.334.016M41.542,89.739a3.861,3.861,0,0,1-5.349,1.118L5.023,70.46A3.87,3.87,0,0,1,3.9,65.109L32.354,21.636a3.849,3.849,0,0,1,2.4-1.659l18.408-4.056a18.025,18.025,0,0,0-.664,3.524,7.619,7.619,0,0,0-2.6,2.421,7.686,7.686,0,1,0,10.641-2.222,7.6,7.6,0,0,0-4.624-1.219,18.527,18.527,0,0,1,1.017-3.334l3.838-.846a3.891,3.891,0,0,1,.841-.093,3.867,3.867,0,0,1,3.782,3.118l.882,4.466c0,.04.019.077.023.117l.1.485c.006.024.007.049.014.074L70.55,43.4a3.847,3.847,0,0,1-.558,2.866Zm47.676-7.512L55.51,91.466a3.527,3.527,0,0,1-4.343-2.455l-1.54-5.641L72.733,48.062a7.106,7.106,0,0,0,1.032-5.295L70.259,25.017,77.2,28.744a3.534,3.534,0,0,1,1.637,2.129L91.708,77.917a3.522,3.522,0,0,1-2.489,4.309" transform="translate(0 0)" fill="#12263f"/>
      </g>
    </g>
    <g id="Grupo_1099717" data-name="Grupo 1099717" transform="translate(444.236 959)">
      <g id="Grupo_1099716" data-name="Grupo 1099716" clip-path="url(#clip-path-4)">
        <path id="Trazado_873598" data-name="Trazado 873598" d="M74.446,43.385A13.661,13.661,0,1,0,60.785,57.046,13.677,13.677,0,0,0,74.446,43.385m-24.046,0A10.385,10.385,0,1,1,60.785,53.77,10.4,10.4,0,0,1,50.4,43.385" transform="translate(-26.977 -17.017)" fill="#12263f"/>
        <path id="Trazado_873599" data-name="Trazado 873599" d="M44.36,76.335c8.582-10.8,19.9-28.344,19.9-45.88a30.457,30.457,0,0,0-60.914,0c0,17.535,11.323,35.085,19.9,45.88C15.724,76.983,0,79.094,0,85.437,0,92.009,17.525,95,33.808,95s33.81-2.995,33.81-9.567c0-6.342-15.724-8.453-23.258-9.1M33.808,3.275A27.211,27.211,0,0,1,60.988,30.456c0,23.169-21.883,47.451-27.181,52.991-5.3-5.536-27.181-29.8-27.181-52.991A27.212,27.212,0,0,1,33.808,3.275m0,88.452c-19.755,0-30.532-4.156-30.532-6.291,0-1.683,7.557-5.061,22.521-6,3.712,4.4,6.509,7.17,6.867,7.519a1.637,1.637,0,0,0,2.287,0c.359-.349,3.155-3.119,6.867-7.519,14.966.936,22.523,4.314,22.523,6,0,2.135-10.778,6.291-30.533,6.291" transform="translate(0 0.001)" fill="#12263f"/>
      </g>
    </g>
    <text id="_4P_marketing_mix" data-name="4P
marketing
mix" transform="translate(800 927)" fill="#12263f" font-size="18" font-family="Roboto-Bold, Roboto" font-weight="700"><tspan x="-10.969" y="0">4P</tspan><tspan font-family="Roboto-BoldItalic, Roboto" font-style="italic"><tspan x="-40.342" y="20">marketing</tspan><tspan x="-14.449" y="40">mix</tspan></tspan></text>
    <text id="Producto" transform="translate(584 885)" fill="#fff" font-size="18" font-family="Roboto-Bold, Roboto" font-weight="700"><tspan x="-36.817" y="0">Producto</tspan></text>
    <text id="Plaza" transform="translate(569 1014)" fill="#12263f" font-size="18" font-family="Roboto-Bold, Roboto" font-weight="700"><tspan x="-22.421" y="0">Plaza</tspan></text>
    <text id="Precio" transform="translate(1027 885)" fill="#12263f" font-size="18" font-family="Roboto-Bold, Roboto" font-weight="700"><tspan x="-26.038" y="0">Precio</tspan></text>
    <text id="Promoción" transform="translate(1009 1014)" fill="#fff" font-size="18" font-family="Roboto-Bold, Roboto" font-weight="700"><tspan x="-44.108" y="0">Promoción</tspan></text>
  </g>
</svg>
