<svg xmlns="http://www.w3.org/2000/svg" width="109" height="109" viewBox="0 0 109 109">
  <g id="img22" transform="translate(-287.668 -4447.437)">
    <path id="Elipse_5845" data-name="Elipse 5845" d="M53.5,0A53.5,53.5,0,1,1,0,53.5,53.5,53.5,0,0,1,53.5,0Z" transform="translate(288.668 4448.437)" fill="#fff" stroke="#b9daff" stroke-width="2"/>
    <g id="Grupo_1100093" data-name="Grupo 1100093" transform="translate(310.668 4469.978)">
      <g id="Grupo_1100079" data-name="Grupo 1100079">
        <g id="Grupo_1100078" data-name="Grupo 1100078">
          <path id="Trazado_874196" data-name="Trazado 874196" d="M56,12V43a1,1,0,0,1-1,1H31a1,1,0,0,1-1-1V5a1,1,0,0,1,1-1H48Z" fill="#c8094f"/>
        </g>
      </g>
      <g id="Grupo_1100080" data-name="Grupo 1100080">
        <path id="Trazado_874197" data-name="Trazado 874197" d="M45.51,25l2.97-2.97a1.775,1.775,0,1,0-2.51-2.51L43,22.49l-2.97-2.97a1.775,1.775,0,1,0-2.51,2.51L40.49,25l-2.97,2.97a1.775,1.775,0,1,0,2.51,2.51L43,27.51l2.97,2.97a1.775,1.775,0,1,0,2.51-2.51Z" fill="#a00028"/>
      </g>
      <g id="Grupo_1100081" data-name="Grupo 1100081">
        <path id="Trazado_874198" data-name="Trazado 874198" d="M56,12H49a1,1,0,0,1-1-1V4Z" fill="#a00028"/>
      </g>
      <g id="Grupo_1100083" data-name="Grupo 1100083">
        <g id="Grupo_1100082" data-name="Grupo 1100082">
          <path id="Trazado_874199" data-name="Trazado 874199" d="M34,28V59a1,1,0,0,1-1,1H9a1,1,0,0,1-1-1V21a1,1,0,0,1,1-1H26Z" fill="#00a0c8"/>
        </g>
      </g>
      <g id="Grupo_1100085" data-name="Grupo 1100085">
        <g id="Grupo_1100084" data-name="Grupo 1100084">
          <path id="Trazado_874200" data-name="Trazado 874200" d="M18.439,46.561l-4-4A1.5,1.5,0,0,1,16.56,40.44L19.5,43.379l5.939-5.939a1.5,1.5,0,0,1,2.121,2.121l-7,7A1.5,1.5,0,0,1,18.439,46.561Z" fill="#0082aa"/>
        </g>
      </g>
      <g id="Grupo_1100086" data-name="Grupo 1100086">
        <path id="Trazado_874201" data-name="Trazado 874201" d="M34,28H27a1,1,0,0,1-1-1V20Z" fill="#0082aa"/>
      </g>
      <g id="Grupo_1100089" data-name="Grupo 1100089">
        <g id="Grupo_1100087" data-name="Grupo 1100087">
          <path id="Trazado_874202" data-name="Trazado 874202" d="M25.706,11.292l-3-3a1,1,0,0,0-1.414,1.414L22.586,11H21a5.006,5.006,0,0,0-5,5v1a1,1,0,0,0,2,0V16a3,3,0,0,1,3-3h1.586l-1.293,1.293a1,1,0,0,0,1.414,1.414l3-3A1,1,0,0,0,25.706,11.292Z" fill="#727997"/>
        </g>
        <g id="Grupo_1100088" data-name="Grupo 1100088">
          <path id="Trazado_874203" data-name="Trazado 874203" d="M47.707,49.293l-3-3a1,1,0,0,0-1.416,0l-3,3a1,1,0,0,0,1.414,1.414L43,49.414V51a3,3,0,0,1-3,3H39a1,1,0,0,0,0,2h1a5.006,5.006,0,0,0,5-5V49.414l1.293,1.293a1,1,0,0,0,1.414-1.414Z" fill="#727997"/>
        </g>
      </g>
      <g id="Grupo_1100090" data-name="Grupo 1100090">
        <path id="Trazado_874204" data-name="Trazado 874204" d="M45.51,24l2.97-2.97a1.775,1.775,0,1,0-2.51-2.51L43,21.49l-2.97-2.97a1.775,1.775,0,1,0-2.51,2.51L40.49,24l-2.97,2.97a1.775,1.775,0,1,0,2.51,2.51L43,26.51l2.97,2.97a1.775,1.775,0,1,0,2.51-2.51Z" fill="#f0f0f0"/>
      </g>
      <g id="Grupo_1100092" data-name="Grupo 1100092">
        <g id="Grupo_1100091" data-name="Grupo 1100091">
          <path id="Trazado_874205" data-name="Trazado 874205" d="M18.439,45.561l-4-4A1.5,1.5,0,0,1,16.56,39.44L19.5,42.379l5.939-5.939a1.5,1.5,0,0,1,2.121,2.121l-7,7A1.5,1.5,0,0,1,18.439,45.561Z" fill="#f0f0f0"/>
        </g>
      </g>
    </g>
  </g>
</svg>
