<svg xmlns="http://www.w3.org/2000/svg" xmlns:xlink="http://www.w3.org/1999/xlink" width="400" height="878.729" viewBox="0 0 400 878.729">
  <defs>
    <linearGradient id="linear-gradient" x1="0.5" x2="0.5" y2="1" gradientUnits="objectBoundingBox">
      <stop offset="0" stop-color="#cce4ff"/>
      <stop offset="1" stop-color="#d1f3f5"/>
    </linearGradient>
  </defs>
  <g id="img2_1" transform="translate(-12224 10460.355)">
    <path id="Trazado_874286" data-name="Trazado 874286" d="M0,0H400V851.578H0Z" transform="translate(12624 -9608.777) rotate(180)" fill="url(#linear-gradient)"/>
    <line id="Línea_1878" data-name="Línea 1878" x1="17.302" y2="81.558" transform="translate(12580.535 -9680.818)" fill="none" stroke="#1e0b4a" stroke-linecap="round" stroke-linejoin="round" stroke-width="1.052"/>
    <path id="Trazado_196481" data-name="Trazado 196481" d="M234.777,273.116a6.5,6.5,0,1,1-6.5-6.5,6.5,6.5,0,0,1,6.5,6.5" transform="translate(12369.561 -9953.934)" fill="#59c4c8"/>
    <path id="Trazado_196482" data-name="Trazado 196482" d="M241.983,324.01c-7.2,20.729-29.886,31.676-29.886,31.676s-11.006-22.656-3.8-43.383,29.886-31.675,29.886-31.675,11.006,22.655,3.8,43.382" transform="translate(12374.686 -9954.946)" fill="#12263f"/>
    <path id="Trazado_196483" data-name="Trazado 196483" d="M281.658,311.26c3.339,31.511-19.563,59.769-19.563,59.769s-28.316-22.83-31.655-54.342S250,256.918,250,256.918s28.315,22.83,31.654,54.342" transform="translate(12314.617 -9953.233)" fill="#59c4c8"/>
    <path id="Trazado_196484" data-name="Trazado 196484" d="M295.32,320.154a11.874,11.874,0,1,1-11.874-11.874,11.874,11.874,0,0,1,11.874,11.874" transform="translate(12262.816 -9956.943)" fill="#12263f"/>
    <line id="Línea_1879" data-name="Línea 1879" x2="11.68" y2="110.236" transform="translate(12565.031 -9692.441)" fill="none" stroke="#1e0b4a" stroke-linecap="round" stroke-linejoin="round" stroke-width="1.052"/>
    <line id="Línea_1880" data-name="Línea 1880" y1="14.358" x2="22.324" transform="translate(12572.03 -9640.739)" fill="none" stroke="#1e0b4a" stroke-linecap="round" stroke-linejoin="round" stroke-width="1.052"/>
    <line id="Línea_1881" data-name="Línea 1881" x1="19.186" y1="10.052" transform="translate(12549.876 -9664.443)" fill="none" stroke="#1e0b4a" stroke-linecap="round" stroke-linejoin="round" stroke-width="1.052"/>
    <line id="Línea_1882" data-name="Línea 1882" x2="20.876" y2="42.819" transform="translate(12546.262 -9636.789)" fill="none" stroke="#1e0b4a" stroke-linecap="round" stroke-linejoin="round" stroke-width="1.052"/>
    <rect id="Rectángulo_46351" data-name="Rectángulo 46351" width="92.43" height="95.638" transform="translate(12531.57 -9704.414)" fill="none"/>
    <path id="Trazado_874450" data-name="Trazado 874450" d="M168.911,210.338a49.052,49.052,0,1,1,49.052-49.052,49.052,49.052,0,0,1-49.052,49.052" transform="translate(12254.869 -10381)" fill="#fff"/>
    <path id="Trazado_874451" data-name="Trazado 874451" d="M168.911,205.488a44.2,44.2,0,1,1,44.2-44.2,44.2,44.2,0,0,1-44.2,44.2" transform="translate(12254.869 -10381)" fill="#2a5f61"/>
    <path id="Trazado_874452" data-name="Trazado 874452" d="M186.354,152.614c-3.551-2.789-7.049-5.576-10.586-8.365a4.583,4.583,0,0,1-1.969-4.619c.053-.482-.216-.645-.746-.482a4.489,4.489,0,0,0-2.81,2.2,3.612,3.612,0,0,1-3.663,2.147c-2.39-.109-3.871,1.183-5.144,3.011a17.824,17.824,0,0,0-2.6,6.449,37.092,37.092,0,0,0-.951,7.3c-.109,1.883-.053,3.711-.109,5.583v5.214h23.445v-3.767a3.579,3.579,0,0,0-.983-2.747c-1.172-1.161-2.416-2.248-2.416-2.248a10.2,10.2,0,0,1-1.617-1.66l-4.324-5.594c.269.219.53.426.8.645a4.872,4.872,0,0,0,4.4,1.017,3.55,3.55,0,0,1,2.757.427,15.839,15.839,0,0,0,1.518.857,2.961,2.961,0,0,0,3.639-.719c.546-.655,1.092-1.31,1.638-1.955a1.868,1.868,0,0,0-.282-2.7" transform="translate(12254.869 -10381)" fill="#fff"/>
    <path id="Trazado_874453" data-name="Trazado 874453" d="M184.282,179.784l-2.664-5.331a1.334,1.334,0,0,0-1.191-.735H159.116a1.335,1.335,0,0,0-1.191.735l-2.664,5.328a1.335,1.335,0,0,0,1.191,1.929h26.639a1.342,1.342,0,0,0,1.135-.631,1.328,1.328,0,0,0,.056-1.295" transform="translate(12254.869 -10381)" fill="#fff"/>
    <path id="Trazado_874454" data-name="Trazado 874454" d="M168.911,351.684a49.052,49.052,0,1,1,49.052-49.052,49.052,49.052,0,0,1-49.052,49.052" transform="translate(12254.869 -10381)" fill="#fff"/>
    <path id="Trazado_874455" data-name="Trazado 874455" d="M168.911,346.835a44.2,44.2,0,1,1,44.2-44.2,44.2,44.2,0,0,1-44.2,44.2" transform="translate(12254.869 -10381)" fill="#59c4c8"/>
    <path id="Trazado_874456" data-name="Trazado 874456" d="M187.717,312.931a2.788,2.788,0,0,0-3.593-1.62l-9.72,3.451a2.231,2.231,0,0,0-.211-.634,5.4,5.4,0,0,0-4.86-3.592l-3.944-.141a11.744,11.744,0,0,0-2.747.282l-6.973,1.2v-.845a.706.706,0,0,0-.705-.7h-4.3a.706.706,0,0,0-.705.7v12.044a.706.706,0,0,0,.705.705h4.3a.706.706,0,0,0,.705-.705v-1.2a7.827,7.827,0,0,1,3.381.071l9.086,2.324a4.326,4.326,0,0,0,1.338.141,5.422,5.422,0,0,0,2.536-.634l14.368-7.607A2.62,2.62,0,0,0,187.717,312.931ZM154.26,322.51h-2.888V311.8h2.888Z" transform="translate(12254.869 -10381)" fill="#12263f"/>
    <path id="Trazado_874457" data-name="Trazado 874457" d="M187.717,299.055a.764.764,0,0,0-.775-.563,1.569,1.569,0,0,1-1.056-.141c-.071-.141.07-.493.563-.845a.668.668,0,0,0,.141-.916,8.115,8.115,0,0,0-2.324-2.324c-.071,0-.071-.071-.141-.071a.774.774,0,0,0-.846.211,1.178,1.178,0,0,1-.845.634,1.406,1.406,0,0,1-.211-1.056.76.76,0,0,0-.423-.775c-.07,0-.07,0-.141-.07a8.693,8.693,0,0,0-3.31,0,.7.7,0,0,0-.563.774,1.573,1.573,0,0,1-.141,1.057c-.071.07-.423-.07-.846-.564a.563.563,0,0,0-.845-.14,7.317,7.317,0,0,0-2.324,2.324.617.617,0,0,0,.211.916,1.478,1.478,0,0,1,.634.845c-.07.141-.423.282-.986.211a.7.7,0,0,0-.775.564,8.731,8.731,0,0,0,0,3.31.765.765,0,0,0,.775.564,1.565,1.565,0,0,1,1.056.14c.071.141-.07.493-.633.846a.666.666,0,0,0-.141.915,9.108,9.108,0,0,0,2.324,2.325c.07,0,.07.07.141.07a.772.772,0,0,0,.845-.211,1.3,1.3,0,0,1,.845-.634c.071,0,.282.352.141.986a.71.71,0,0,0,.423.775c.07,0,.07,0,.141.07a6.031,6.031,0,0,0,1.549.141,6.945,6.945,0,0,0,1.691-.211.764.764,0,0,0,.563-.775,1.575,1.575,0,0,1,.141-1.057c.071-.07.493.071.845.564a.668.668,0,0,0,.916.141,7.319,7.319,0,0,0,2.324-2.325.625.625,0,0,0-.211-.915c-.493-.352-.634-.775-.563-.845,0-.071.422-.282,1.056-.212a.7.7,0,0,0,.775-.563,6.043,6.043,0,0,0,0-3.17m-1.268,2.4a1.986,1.986,0,0,0-1.831,1.057,1.849,1.849,0,0,0,.563,2.042,8,8,0,0,1-1.056,1.127,1.85,1.85,0,0,0-2.043-.563,1.942,1.942,0,0,0-1.056,1.831,5.746,5.746,0,0,1-1.55,0,2.071,2.071,0,0,0-1.057-1.831,1.849,1.849,0,0,0-2.042.563,5.013,5.013,0,0,1-1.057-1.056,1.981,1.981,0,0,0,.564-2.043,1.945,1.945,0,0,0-1.832-1.057,5.738,5.738,0,0,1,0-1.549,1.73,1.73,0,0,0,1.268-3.1,8.005,8.005,0,0,1,1.057-1.127,1.849,1.849,0,0,0,2.042.563,1.943,1.943,0,0,0,1.057-1.831,5.661,5.661,0,0,1,1.55,0,1.985,1.985,0,0,0,1.056,1.831,1.85,1.85,0,0,0,2.043-.563,7.51,7.51,0,0,1,1.056,1.056,2.134,2.134,0,0,0-.563,2.043,2.069,2.069,0,0,0,1.831,1.056,5.741,5.741,0,0,1,0,1.55" transform="translate(12254.869 -10381)" fill="#12263f"/>
    <path id="Trazado_874458" data-name="Trazado 874458" d="M183.843,300.746a3.743,3.743,0,0,1-3.663,3.733,3.637,3.637,0,0,1-3.662-3.663,3.744,3.744,0,0,1,3.662-3.733,3.931,3.931,0,0,1,2.606,1.057,3.666,3.666,0,0,1,1.057,2.606" transform="translate(12254.869 -10381)" fill="#12263f"/>
    <path id="Trazado_874459" data-name="Trazado 874459" d="M157.641,293a7.748,7.748,0,1,0,7.748,7.748A7.725,7.725,0,0,0,157.641,293m0,7.114a2.525,2.525,0,0,1,2.536,2.536,2.645,2.645,0,0,1-1.832,2.465v.07a.7.7,0,1,1-1.408,0v-.07a2.516,2.516,0,0,1-1.832-2.465.7.7,0,1,1,1.409,0,1.127,1.127,0,1,0,1.127-1.127,2.525,2.525,0,0,1-2.536-2.536,2.645,2.645,0,0,1,1.832-2.465v-.141a.7.7,0,1,1,1.408,0v.141a2.516,2.516,0,0,1,1.832,2.465.7.7,0,0,1-1.409,0,1.127,1.127,0,1,0-1.127,1.127" transform="translate(12254.869 -10381)" fill="#12263f"/>
    <path id="Trazado_874460" data-name="Trazado 874460" d="M175.954,283.983a7.441,7.441,0,0,0-4.367-4.015,7.742,7.742,0,1,0-2.677,15,7.689,7.689,0,0,0,3.24-.7,7.441,7.441,0,0,0,4.015-4.367,7.82,7.82,0,0,0-.211-5.916m-6.973,5.212c-1.127,0-2.184-1.55-2.184-2.818a2.184,2.184,0,0,1,4.367,0c-.07,1.2-1.056,2.818-2.183,2.818m5.846.211A5.35,5.35,0,0,1,173,292.012l-1.55-.845a.774.774,0,0,1-.422-.7v-.775a4.818,4.818,0,0,0,1.479-3.381,3.607,3.607,0,0,0-3.593-3.592,3.7,3.7,0,0,0-3.521,3.662,4.655,4.655,0,0,0,1.479,3.311v.775a.775.775,0,0,1-.423.7l-1.62.845a7.029,7.029,0,0,1-1.62-2.113,6.288,6.288,0,0,1,3.1-8.382,5.493,5.493,0,0,1,2.606-.634,5.735,5.735,0,0,1,2.184.423,6.162,6.162,0,0,1,3.592,3.31,5.966,5.966,0,0,1,.141,4.79" transform="translate(12254.869 -10381)" fill="#12263f"/>
    <path id="Trazado_874461" data-name="Trazado 874461" d="M168.911,493.031a49.052,49.052,0,1,1,49.052-49.052,49.052,49.052,0,0,1-49.052,49.052" transform="translate(12254.869 -10381)" fill="#fff"/>
    <path id="Trazado_874462" data-name="Trazado 874462" d="M168.911,488.181a44.2,44.2,0,1,1,44.2-44.2,44.2,44.2,0,0,1-44.2,44.2" transform="translate(12254.869 -10381)" fill="#fe9b4f"/>
    <path id="Trazado_874463" data-name="Trazado 874463" d="M189.766,458.68l-15.017,6.973a8.671,8.671,0,0,1-7.293,0l-15.017-6.973a3.19,3.19,0,0,1,0-5.788l.319-.137,13.263,6.13a11.9,11.9,0,0,0,10.163,0l13.263-6.13.319.137a3.19,3.19,0,0,1,0,5.788m0-15.655-.3-.137-10.62,4.945-2.666,1.231a12.119,12.119,0,0,1-10.163,0l-2.667-1.231-10.619-4.945-.3.137a3.209,3.209,0,0,0,0,5.811l4.375,2.028,10.642,4.922a8.513,8.513,0,0,0,7.293,0l10.642-4.922,4.375-2.028a3.209,3.209,0,0,0,0-5.811m0-9.822-15.017-6.973a8.73,8.73,0,0,0-7.293,0L152.439,433.2a3.19,3.19,0,0,0,0,5.788l.3.137,2.028.934,2.028.957,10.665,4.945a8.73,8.73,0,0,0,7.293,0l10.664-4.945,2.029-.957,2.028-.934.3-.137a3.19,3.19,0,0,0,0-5.788Z" transform="translate(12254.869 -10381)" fill="#12263f"/>
    <path id="Trazado_874464" data-name="Trazado 874464" d="M168.911,634.378a49.052,49.052,0,1,1,49.052-49.052,49.052,49.052,0,0,1-49.052,49.052" transform="translate(12254.869 -10381)" fill="#fff"/>
    <path id="Trazado_874465" data-name="Trazado 874465" d="M168.911,629.528a44.2,44.2,0,1,1,44.2-44.2,44.2,44.2,0,0,1-44.2,44.2" transform="translate(12254.869 -10381)" fill="#85b6ec"/>
    <path id="Trazado_874466" data-name="Trazado 874466" d="M107.5,585.326a61.481,61.481,0,0,1,60.377-61.4V504.356a1.031,1.031,0,0,1,1.031-1.031,59.346,59.346,0,0,0,0-118.691,1.031,1.031,0,0,1-1.031-1.031V364.032a61.408,61.408,0,0,1,0-122.8V221.663a1.03,1.03,0,0,1,1.031-1.031,59.346,59.346,0,0,0,0-118.691,1.031,1.031,0,0,1-1.031-1.031V66.1a1.031,1.031,0,1,1,2.062,0V99.887a61.408,61.408,0,0,1,0,122.8v19.571a1.032,1.032,0,0,1-1.031,1.032,59.345,59.345,0,1,0,0,118.69,1.032,1.032,0,0,1,1.031,1.032v19.57a61.408,61.408,0,0,1,0,122.8v19.57a1.032,1.032,0,0,1-1.031,1.032,59.345,59.345,0,1,0,0,118.69,1.032,1.032,0,0,1,1.031,1.032v33.732a1.031,1.031,0,1,1-2.062,0v-32.71a61.481,61.481,0,0,1-60.377-61.4" transform="translate(12254.869 -10381)" fill="#12263f"/>
    <path id="Trazado_874467" data-name="Trazado 874467" d="M172.788,679.241a3.877,3.877,0,1,1-3.877-3.877,3.877,3.877,0,0,1,3.877,3.877" transform="translate(12254.869 -10381)" fill="#12263f"/>
    <path id="Trazado_874468" data-name="Trazado 874468" d="M172.788,66.3a3.877,3.877,0,1,0-3.877,3.877,3.877,3.877,0,0,0,3.877-3.877" transform="translate(12254.869 -10381)" fill="#12263f"/>
    <path id="Trazado_874469" data-name="Trazado 874469" d="M168.911,572.151c-11.768,0-21,10.863-21.363,11.406a1.9,1.9,0,0,0,0,2.353c.362.543,9.6,11.406,21.363,11.406s20.82-10.863,21.363-11.406a1.9,1.9,0,0,0,0-2.353c-.543-.543-9.6-11.406-21.363-11.406m0,21.182a8.811,8.811,0,0,1-8.69-8.69,8.692,8.692,0,0,1,8.69-8.69,8.579,8.579,0,0,1,8.69,8.69,8.692,8.692,0,0,1-8.69,8.69" transform="translate(12254.869 -10381)" fill="#12263f"/>
    <path id="Trazado_874470" data-name="Trazado 874470" d="M168.911,580.479h-.181a3.08,3.08,0,0,1,.181,1.267,4.308,4.308,0,0,1-3.983,4.164,4.236,4.236,0,0,0,3.983,2.9,4.164,4.164,0,1,0,0-8.328" transform="translate(12254.869 -10381)" fill="#12263f"/>
    <path id="Trazado_874471" data-name="Trazado 874471" d="M149,594.781a1.71,1.71,0,0,0-1.81,1.81v7.966a1.711,1.711,0,0,0,1.81,1.811h7.966a1.81,1.81,0,0,0,0-3.621h-6.156v-6.156a1.71,1.71,0,0,0-1.81-1.81" transform="translate(12254.869 -10381)" fill="#12263f"/>
    <path id="Trazado_874472" data-name="Trazado 874472" d="M149,574.505a1.71,1.71,0,0,0,1.81-1.81v-6.157h6.156a1.811,1.811,0,0,0,0-3.621H149a1.712,1.712,0,0,0-1.81,1.812V572.7a1.71,1.71,0,0,0,1.81,1.81" transform="translate(12254.869 -10381)" fill="#12263f"/>
    <path id="Trazado_874473" data-name="Trazado 874473" d="M188.825,574.505a1.71,1.71,0,0,0,1.81-1.81v-7.966a1.712,1.712,0,0,0-1.81-1.812h-7.966a1.811,1.811,0,0,0,0,3.621h6.156V572.7a1.71,1.71,0,0,0,1.81,1.81" transform="translate(12254.869 -10381)" fill="#12263f"/>
    <path id="Trazado_874474" data-name="Trazado 874474" d="M188.825,606.367a1.71,1.71,0,0,0,1.81-1.81v-7.966a1.81,1.81,0,1,0-3.62,0v6.155h-6.156a1.811,1.811,0,0,0,0,3.621Z" transform="translate(12254.869 -10381)" fill="#12263f"/>
    <rect id="Rectángulo_401186" data-name="Rectángulo 401186" width="338.327" height="745.646" transform="translate(12254.869 -10381)" fill="none"/>
    <path id="Trazado_874743" data-name="Trazado 874743" d="M7.859-4.93h-4.5v3.047H8.641V0H1.016V-11.375H8.625v1.9H3.359v2.711h4.5Zm4.4-3.523V.461a3.024,3.024,0,0,1-.742,2.176,2.821,2.821,0,0,1-2.141.777,4.591,4.591,0,0,1-1.117-.133V1.492a4.238,4.238,0,0,0,.711.07q1.023,0,1.023-1.086v-8.93ZM9.813-10.641a1.112,1.112,0,0,1,.34-.836,1.277,1.277,0,0,1,.926-.328,1.277,1.277,0,0,1,.926.328,1.112,1.112,0,0,1,.34.836A1.108,1.108,0,0,1,12-9.8a1.283,1.283,0,0,1-.918.328A1.283,1.283,0,0,1,10.16-9.8,1.108,1.108,0,0,1,9.813-10.641Zm8.1,10.8A4.15,4.15,0,0,1,14.887-.984a4.054,4.054,0,0,1-1.168-3.039v-.219a5.106,5.106,0,0,1,.492-2.277,3.612,3.612,0,0,1,1.395-1.547,3.914,3.914,0,0,1,2.059-.543,3.508,3.508,0,0,1,2.73,1.094,4.444,4.444,0,0,1,1,3.1v.922H16.008a2.1,2.1,0,0,0,.66,1.328,2,2,0,0,0,1.395.5A2.437,2.437,0,0,0,20.1-2.609l1.109,1.242A3.389,3.389,0,0,1,19.836-.246,4.511,4.511,0,0,1,17.914.156Zm-.258-6.945a1.411,1.411,0,0,0-1.09.455,2.357,2.357,0,0,0-.535,1.3h3.141v-.181a1.681,1.681,0,0,0-.406-1.165A1.456,1.456,0,0,0,17.656-6.789Zm8.531,5.125A1.481,1.481,0,0,0,27.2-2.008a1.2,1.2,0,0,0,.406-.914h2.117a2.9,2.9,0,0,1-.469,1.574A3.093,3.093,0,0,1,28-.238a3.949,3.949,0,0,1-1.77.395A3.67,3.67,0,0,1,23.367-1,4.56,4.56,0,0,1,22.32-4.18v-.148a4.508,4.508,0,0,1,1.039-3.117,3.627,3.627,0,0,1,2.852-1.164,3.555,3.555,0,0,1,2.543.9,3.2,3.2,0,0,1,.973,2.4H27.609A1.551,1.551,0,0,0,27.2-6.377a1.354,1.354,0,0,0-1.031-.412,1.36,1.36,0,0,0-1.191.575,3.333,3.333,0,0,0-.4,1.866v.235a3.375,3.375,0,0,0,.4,1.878A1.377,1.377,0,0,0,26.188-1.664Zm9.891.8A2.831,2.831,0,0,1,33.766.156a2.67,2.67,0,0,1-2.074-.781,3.335,3.335,0,0,1-.73-2.289V-8.453h2.258v5.467q0,1.322,1.2,1.322A1.63,1.63,0,0,0,36-2.462V-8.453h2.266V0H36.141Zm6.594-9.672v2.078h1.445V-6.8H42.672v4.219a1.007,1.007,0,0,0,.18.672.9.9,0,0,0,.688.2,3.6,3.6,0,0,0,.664-.055V-.047a4.648,4.648,0,0,1-1.367.2,2.156,2.156,0,0,1-2.422-2.4V-6.8H39.18V-8.453h1.234v-2.078ZM50.273,0a2.507,2.507,0,0,1-.227-.758,2.732,2.732,0,0,1-2.133.914,3,3,0,0,1-2.059-.719,2.312,2.312,0,0,1-.816-1.812,2.389,2.389,0,0,1,1-2.062,4.915,4.915,0,0,1,2.879-.727h1.039v-.484a1.393,1.393,0,0,0-.3-.937,1.183,1.183,0,0,0-.949-.352,1.345,1.345,0,0,0-.895.273.929.929,0,0,0-.324.75H45.227a2.268,2.268,0,0,1,.453-1.359,3,3,0,0,1,1.281-.98,4.669,4.669,0,0,1,1.859-.355,3.689,3.689,0,0,1,2.48.785,2.747,2.747,0,0,1,.918,2.207v3.664a4.041,4.041,0,0,0,.336,1.82V0ZM48.406-1.57a1.945,1.945,0,0,0,.922-.223,1.462,1.462,0,0,0,.625-.6V-3.844h-.844q-1.7,0-1.8,1.172l-.008.133a.9.9,0,0,0,.3.7A1.153,1.153,0,0,0,48.406-1.57ZM58.7-6.336a6.134,6.134,0,0,0-.812-.062,1.654,1.654,0,0,0-1.68.867V0H53.953V-8.453h2.133l.063,1.008a2.092,2.092,0,0,1,1.883-1.164,2.366,2.366,0,0,1,.7.1Z" transform="translate(12298.846 -10225.559)"/>
    <path id="Trazado_874742" data-name="Trazado 874742" d="M4.758.156A4.15,4.15,0,0,1,1.73-.984,4.054,4.054,0,0,1,.563-4.023v-.219A5.106,5.106,0,0,1,1.055-6.52,3.612,3.612,0,0,1,2.449-8.066a3.914,3.914,0,0,1,2.059-.543,3.508,3.508,0,0,1,2.73,1.094,4.444,4.444,0,0,1,1,3.1v.922H2.852a2.1,2.1,0,0,0,.66,1.328,2,2,0,0,0,1.395.5,2.437,2.437,0,0,0,2.039-.945L8.055-1.367A3.389,3.389,0,0,1,6.68-.246,4.511,4.511,0,0,1,4.758.156ZM4.5-6.789a1.411,1.411,0,0,0-1.09.455,2.357,2.357,0,0,0-.535,1.3H6.016v-.181a1.681,1.681,0,0,0-.406-1.165A1.456,1.456,0,0,0,4.5-6.789Zm9.594,4.453a.727.727,0,0,0-.41-.652,4.659,4.659,0,0,0-1.316-.426Q9.352-4.047,9.352-5.977a2.323,2.323,0,0,1,.934-1.879,3.766,3.766,0,0,1,2.441-.754,4.053,4.053,0,0,1,2.574.758,2.388,2.388,0,0,1,.965,1.969H14.008a1.092,1.092,0,0,0-.312-.8A1.322,1.322,0,0,0,12.719-7a1.351,1.351,0,0,0-.883.258.814.814,0,0,0-.312.656.7.7,0,0,0,.355.605,3.657,3.657,0,0,0,1.2.4A9.8,9.8,0,0,1,14.5-4.7,2.336,2.336,0,0,1,16.289-2.43,2.2,2.2,0,0,1,15.3-.559a4.28,4.28,0,0,1-2.562.715,4.47,4.47,0,0,1-1.887-.379A3.166,3.166,0,0,1,9.555-1.262a2.414,2.414,0,0,1-.469-1.426h2.141a1.179,1.179,0,0,0,.445.922,1.766,1.766,0,0,0,1.109.32,1.635,1.635,0,0,0,.98-.246A.766.766,0,0,0,14.094-2.336Zm6.352-8.2v2.078h1.445V-6.8H20.445v4.219a1.007,1.007,0,0,0,.18.672.9.9,0,0,0,.688.2,3.6,3.6,0,0,0,.664-.055V-.047a4.648,4.648,0,0,1-1.367.2,2.156,2.156,0,0,1-2.422-2.4V-6.8H16.953V-8.453h1.234v-2.078Zm7.453,4.2a6.134,6.134,0,0,0-.812-.062,1.654,1.654,0,0,0-1.68.867V0H23.148V-8.453h2.133l.063,1.008a2.092,2.092,0,0,1,1.883-1.164,2.366,2.366,0,0,1,.7.1ZM33.408,0a2.507,2.507,0,0,1-.227-.758,2.732,2.732,0,0,1-2.133.914A3,3,0,0,1,28.99-.562a2.312,2.312,0,0,1-.816-1.812,2.389,2.389,0,0,1,1-2.062,4.915,4.915,0,0,1,2.879-.727h1.039v-.484a1.393,1.393,0,0,0-.3-.937,1.183,1.183,0,0,0-.949-.352,1.345,1.345,0,0,0-.895.273.929.929,0,0,0-.324.75H28.362a2.268,2.268,0,0,1,.453-1.359,3,3,0,0,1,1.281-.98,4.669,4.669,0,0,1,1.859-.355,3.689,3.689,0,0,1,2.48.785,2.747,2.747,0,0,1,.918,2.207v3.664a4.041,4.041,0,0,0,.336,1.82V0ZM31.541-1.57a1.945,1.945,0,0,0,.922-.223,1.462,1.462,0,0,0,.625-.6V-3.844h-.844q-1.7,0-1.8,1.172l-.008.133a.9.9,0,0,0,.3.7A1.153,1.153,0,0,0,31.541-1.57Zm8.25-8.961v2.078h1.445V-6.8H39.791v4.219a1.007,1.007,0,0,0,.18.672.9.9,0,0,0,.688.2,3.6,3.6,0,0,0,.664-.055V-.047a4.648,4.648,0,0,1-1.367.2,2.156,2.156,0,0,1-2.422-2.4V-6.8H36.3V-8.453h1.234v-2.078ZM46.385.156A4.15,4.15,0,0,1,43.358-.984,4.054,4.054,0,0,1,42.19-4.023v-.219a5.106,5.106,0,0,1,.492-2.277,3.612,3.612,0,0,1,1.395-1.547,3.914,3.914,0,0,1,2.059-.543,3.508,3.508,0,0,1,2.73,1.094,4.444,4.444,0,0,1,1,3.1v.922H44.479a2.1,2.1,0,0,0,.66,1.328,2,2,0,0,0,1.395.5,2.437,2.437,0,0,0,2.039-.945l1.109,1.242A3.389,3.389,0,0,1,48.307-.246,4.511,4.511,0,0,1,46.385.156Zm-.258-6.945a1.411,1.411,0,0,0-1.09.455,2.357,2.357,0,0,0-.535,1.3h3.141v-.181a1.681,1.681,0,0,0-.406-1.165A1.456,1.456,0,0,0,46.127-6.789Zm4.688,2.5a4.954,4.954,0,0,1,.926-3.133,3,3,0,0,1,2.5-1.187,2.631,2.631,0,0,1,2.164.953l.094-.8h2.047V-.281a3.613,3.613,0,0,1-.5,1.93A3.236,3.236,0,0,1,56.619,2.9a4.985,4.985,0,0,1-2.141.43,4.635,4.635,0,0,1-1.812-.371A3.217,3.217,0,0,1,51.33,2l1-1.375a2.645,2.645,0,0,0,2.047.945,1.936,1.936,0,0,0,1.4-.48,1.8,1.8,0,0,0,.5-1.363V-.727a2.612,2.612,0,0,1-2.055.883,2.992,2.992,0,0,1-2.465-1.191,4.953,4.953,0,0,1-.941-3.16Zm2.258.168a3.085,3.085,0,0,0,.461,1.8,1.466,1.466,0,0,0,1.266.653,1.568,1.568,0,0,0,1.477-.775V-6a1.564,1.564,0,0,0-1.461-.775,1.476,1.476,0,0,0-1.277.665A3.477,3.477,0,0,0,53.073-4.121ZM62.658,0H60.393V-8.453h2.266Zm-2.4-10.641a1.112,1.112,0,0,1,.34-.836,1.277,1.277,0,0,1,.926-.328,1.28,1.28,0,0,1,.922.328,1.105,1.105,0,0,1,.344.836,1.108,1.108,0,0,1-.348.844,1.283,1.283,0,0,1-.918.328,1.283,1.283,0,0,1-.918-.328A1.108,1.108,0,0,1,60.26-10.641ZM69.416,0a2.507,2.507,0,0,1-.227-.758,2.732,2.732,0,0,1-2.133.914A3,3,0,0,1,65-.562a2.312,2.312,0,0,1-.816-1.812,2.389,2.389,0,0,1,1-2.062,4.915,4.915,0,0,1,2.879-.727H69.1v-.484a1.393,1.393,0,0,0-.3-.937,1.183,1.183,0,0,0-.949-.352,1.345,1.345,0,0,0-.895.273.929.929,0,0,0-.324.75H64.369a2.268,2.268,0,0,1,.453-1.359,3,3,0,0,1,1.281-.98,4.669,4.669,0,0,1,1.859-.355,3.689,3.689,0,0,1,2.48.785,2.747,2.747,0,0,1,.918,2.207v3.664A4.041,4.041,0,0,0,71.7-.133V0ZM67.549-1.57a1.945,1.945,0,0,0,.922-.223,1.462,1.462,0,0,0,.625-.6V-3.844h-.844q-1.7,0-1.8,1.172l-.008.133a.9.9,0,0,0,.3.7A1.153,1.153,0,0,0,67.549-1.57Zm10.125-.766a.727.727,0,0,0-.41-.652,4.659,4.659,0,0,0-1.316-.426q-3.016-.633-3.016-2.562a2.323,2.323,0,0,1,.934-1.879,3.766,3.766,0,0,1,2.441-.754,4.053,4.053,0,0,1,2.574.758,2.388,2.388,0,0,1,.965,1.969H77.588a1.092,1.092,0,0,0-.312-.8A1.322,1.322,0,0,0,76.3-7a1.351,1.351,0,0,0-.883.258.814.814,0,0,0-.312.656.7.7,0,0,0,.355.605,3.657,3.657,0,0,0,1.2.4A9.8,9.8,0,0,1,78.08-4.7,2.336,2.336,0,0,1,79.869-2.43a2.2,2.2,0,0,1-.992,1.871,4.28,4.28,0,0,1-2.562.715,4.47,4.47,0,0,1-1.887-.379,3.166,3.166,0,0,1-1.293-1.039,2.414,2.414,0,0,1-.469-1.426h2.141a1.179,1.179,0,0,0,.445.922,1.766,1.766,0,0,0,1.109.32,1.635,1.635,0,0,0,.98-.246A.766.766,0,0,0,77.674-2.336Z" transform="translate(12277.069 -10206.359)"/>
    <path id="Trazado_874739" data-name="Trazado 874739" d="M10.359-5.43a6.867,6.867,0,0,1-.594,2.945,4.472,4.472,0,0,1-1.7,1.953A4.7,4.7,0,0,1,5.531.156a4.732,4.732,0,0,1-2.523-.68A4.515,4.515,0,0,1,1.289-2.465a6.67,6.67,0,0,1-.617-2.9V-5.93a6.831,6.831,0,0,1,.605-2.957,4.508,4.508,0,0,1,1.711-1.961,4.706,4.706,0,0,1,2.527-.684,4.706,4.706,0,0,1,2.527.684A4.508,4.508,0,0,1,9.754-8.887a6.811,6.811,0,0,1,.605,2.949ZM7.984-5.945a4.787,4.787,0,0,0-.641-2.719,2.088,2.088,0,0,0-1.828-.93,2.088,2.088,0,0,0-1.82.918,4.732,4.732,0,0,0-.648,2.691v.555a4.847,4.847,0,0,0,.641,2.7,2.082,2.082,0,0,0,1.844.961,2.064,2.064,0,0,0,1.813-.926,4.819,4.819,0,0,0,.641-2.7Zm8.68-.391a6.134,6.134,0,0,0-.812-.062,1.654,1.654,0,0,0-1.68.867V0H11.914V-8.453h2.133l.063,1.008a2.092,2.092,0,0,1,1.883-1.164,2.366,2.366,0,0,1,.7.1Zm.481,2.047a4.954,4.954,0,0,1,.926-3.133,3,3,0,0,1,2.5-1.187,2.631,2.631,0,0,1,2.164.953l.094-.8h2.047V-.281a3.613,3.613,0,0,1-.5,1.93A3.236,3.236,0,0,1,22.95,2.9a4.985,4.985,0,0,1-2.141.43A4.635,4.635,0,0,1,19,2.957,3.217,3.217,0,0,1,17.661,2l1-1.375a2.645,2.645,0,0,0,2.047.945,1.936,1.936,0,0,0,1.4-.48,1.8,1.8,0,0,0,.5-1.363V-.727a2.612,2.612,0,0,1-2.055.883,2.992,2.992,0,0,1-2.465-1.191,4.953,4.953,0,0,1-.941-3.16Zm2.258.168a3.085,3.085,0,0,0,.461,1.8,1.466,1.466,0,0,0,1.266.653,1.568,1.568,0,0,0,1.477-.775V-6a1.564,1.564,0,0,0-1.461-.775,1.476,1.476,0,0,0-1.277.665A3.477,3.477,0,0,0,19.4-4.121ZM31.5,0a2.507,2.507,0,0,1-.227-.758,2.732,2.732,0,0,1-2.133.914,3,3,0,0,1-2.059-.719,2.312,2.312,0,0,1-.816-1.812,2.389,2.389,0,0,1,1-2.062,4.915,4.915,0,0,1,2.879-.727h1.039v-.484a1.393,1.393,0,0,0-.3-.937,1.183,1.183,0,0,0-.949-.352,1.345,1.345,0,0,0-.895.273.929.929,0,0,0-.324.75H26.458a2.268,2.268,0,0,1,.453-1.359,3,3,0,0,1,1.281-.98,4.669,4.669,0,0,1,1.859-.355,3.689,3.689,0,0,1,2.48.785,2.747,2.747,0,0,1,.918,2.207v3.664a4.041,4.041,0,0,0,.336,1.82V0ZM29.638-1.57a1.945,1.945,0,0,0,.922-.223,1.462,1.462,0,0,0,.625-.6V-3.844h-.844q-1.7,0-1.8,1.172l-.008.133a.9.9,0,0,0,.3.7A1.153,1.153,0,0,0,29.638-1.57Zm7.625-6.883.07.977a2.951,2.951,0,0,1,2.43-1.133,2.453,2.453,0,0,1,2,.789,3.682,3.682,0,0,1,.672,2.359V0H40.177V-5.406a1.465,1.465,0,0,0-.312-1.043,1.4,1.4,0,0,0-1.039-.324,1.553,1.553,0,0,0-1.43.813V0H35.138V-8.453ZM46.528,0H44.263V-8.453h2.266Zm-2.4-10.641a1.112,1.112,0,0,1,.34-.836A1.277,1.277,0,0,1,45.4-11.8a1.28,1.28,0,0,1,.922.328,1.105,1.105,0,0,1,.344.836,1.108,1.108,0,0,1-.348.844,1.283,1.283,0,0,1-.918.328,1.283,1.283,0,0,1-.918-.328A1.108,1.108,0,0,1,44.13-10.641Zm6.852,8.82h4.133V0H48.1V-1.375l3.977-5.258H48.216v-1.82h6.773v1.33ZM61.427,0A2.507,2.507,0,0,1,61.2-.758a2.732,2.732,0,0,1-2.133.914,3,3,0,0,1-2.059-.719,2.312,2.312,0,0,1-.816-1.812,2.389,2.389,0,0,1,1-2.062,4.915,4.915,0,0,1,2.879-.727h1.039v-.484a1.393,1.393,0,0,0-.3-.937,1.183,1.183,0,0,0-.949-.352,1.345,1.345,0,0,0-.895.273.929.929,0,0,0-.324.75H56.38a2.268,2.268,0,0,1,.453-1.359,3,3,0,0,1,1.281-.98,4.669,4.669,0,0,1,1.859-.355,3.689,3.689,0,0,1,2.48.785,2.747,2.747,0,0,1,.918,2.207v3.664a4.041,4.041,0,0,0,.336,1.82V0ZM59.56-1.57a1.945,1.945,0,0,0,.922-.223,1.462,1.462,0,0,0,.625-.6V-3.844h-.844q-1.7,0-1.8,1.172l-.008.133a.9.9,0,0,0,.3.7A1.153,1.153,0,0,0,59.56-1.57Zm10.3-4.766a6.134,6.134,0,0,0-.812-.062,1.654,1.654,0,0,0-1.68.867V0H65.106V-8.453h2.133L67.3-7.445a2.092,2.092,0,0,1,1.883-1.164,2.366,2.366,0,0,1,.7.1Z" transform="translate(12287.565 -9943.494)"/>
    <path id="Trazado_874738" data-name="Trazado 874738" d="M4.758.156A4.15,4.15,0,0,1,1.73-.984,4.054,4.054,0,0,1,.563-4.023v-.219A5.106,5.106,0,0,1,1.055-6.52,3.612,3.612,0,0,1,2.449-8.066a3.914,3.914,0,0,1,2.059-.543,3.508,3.508,0,0,1,2.73,1.094,4.444,4.444,0,0,1,1,3.1v.922H2.852a2.1,2.1,0,0,0,.66,1.328,2,2,0,0,0,1.395.5,2.437,2.437,0,0,0,2.039-.945L8.055-1.367A3.389,3.389,0,0,1,6.68-.246,4.511,4.511,0,0,1,4.758.156ZM4.5-6.789a1.411,1.411,0,0,0-1.09.455,2.357,2.357,0,0,0-.535,1.3H6.016v-.181a1.681,1.681,0,0,0-.406-1.165A1.456,1.456,0,0,0,4.5-6.789ZM10.133,0V-6.8H8.875V-8.453h1.258v-.719a2.918,2.918,0,0,1,.816-2.207,3.162,3.162,0,0,1,2.285-.785,5.278,5.278,0,0,1,1.148.156l-.023,1.75a2.878,2.878,0,0,0-.687-.07q-1.273,0-1.273,1.2v.68h1.68V-6.8H12.4V0Zm8.628.156A4.15,4.15,0,0,1,15.734-.984a4.054,4.054,0,0,1-1.168-3.039v-.219a5.106,5.106,0,0,1,.492-2.277,3.612,3.612,0,0,1,1.395-1.547,3.914,3.914,0,0,1,2.059-.543,3.508,3.508,0,0,1,2.73,1.094,4.444,4.444,0,0,1,1,3.1v.922H16.855a2.1,2.1,0,0,0,.66,1.328,2,2,0,0,0,1.395.5,2.437,2.437,0,0,0,2.039-.945l1.109,1.242A3.389,3.389,0,0,1,20.683-.246,4.511,4.511,0,0,1,18.761.156ZM18.5-6.789a1.411,1.411,0,0,0-1.09.455,2.357,2.357,0,0,0-.535,1.3h3.141v-.181a1.681,1.681,0,0,0-.406-1.165A1.456,1.456,0,0,0,18.5-6.789Zm8.531,5.125a1.481,1.481,0,0,0,1.016-.344,1.2,1.2,0,0,0,.406-.914h2.117A2.9,2.9,0,0,1,30.1-1.348,3.093,3.093,0,0,1,28.843-.238a3.949,3.949,0,0,1-1.77.395A3.67,3.67,0,0,1,24.214-1,4.56,4.56,0,0,1,23.167-4.18v-.148a4.508,4.508,0,0,1,1.039-3.117,3.627,3.627,0,0,1,2.852-1.164,3.555,3.555,0,0,1,2.543.9,3.2,3.2,0,0,1,.973,2.4H28.456a1.551,1.551,0,0,0-.406-1.072,1.354,1.354,0,0,0-1.031-.412,1.36,1.36,0,0,0-1.191.575,3.333,3.333,0,0,0-.4,1.866v.235a3.375,3.375,0,0,0,.4,1.878A1.377,1.377,0,0,0,27.035-1.664Zm7.531-8.867v2.078h1.445V-6.8H34.566v4.219a1.007,1.007,0,0,0,.18.672.9.9,0,0,0,.688.2,3.6,3.6,0,0,0,.664-.055V-.047a4.648,4.648,0,0,1-1.367.2,2.156,2.156,0,0,1-2.422-2.4V-6.8H31.074V-8.453h1.234v-2.078ZM39.652,0H37.386V-8.453h2.266Zm-2.4-10.641a1.112,1.112,0,0,1,.34-.836,1.277,1.277,0,0,1,.926-.328,1.28,1.28,0,0,1,.922.328,1.105,1.105,0,0,1,.344.836,1.108,1.108,0,0,1-.348.844,1.283,1.283,0,0,1-.918.328A1.283,1.283,0,0,1,37.6-9.8,1.108,1.108,0,0,1,37.253-10.641Zm7.422,7.883,1.57-5.7H48.6L45.753,0H43.6L40.745-8.453H43.1ZM54.266,0a2.507,2.507,0,0,1-.227-.758,2.732,2.732,0,0,1-2.133.914,3,3,0,0,1-2.059-.719,2.312,2.312,0,0,1-.816-1.812,2.389,2.389,0,0,1,1-2.062,4.915,4.915,0,0,1,2.879-.727h1.039v-.484a1.393,1.393,0,0,0-.3-.937,1.183,1.183,0,0,0-.949-.352,1.345,1.345,0,0,0-.895.273.929.929,0,0,0-.324.75H49.219a2.268,2.268,0,0,1,.453-1.359,3,3,0,0,1,1.281-.98,4.669,4.669,0,0,1,1.859-.355,3.689,3.689,0,0,1,2.48.785,2.747,2.747,0,0,1,.918,2.207v3.664a4.041,4.041,0,0,0,.336,1.82V0ZM52.4-1.57a1.945,1.945,0,0,0,.922-.223,1.462,1.462,0,0,0,.625-.6V-3.844H53.1q-1.7,0-1.8,1.172l-.008.133a.9.9,0,0,0,.3.7A1.153,1.153,0,0,0,52.4-1.57Zm7.664-6.883.07.945a2.971,2.971,0,0,1,2.43-1.1A2.255,2.255,0,0,1,64.805-7.32a2.9,2.9,0,0,1,2.539-1.289,2.521,2.521,0,0,1,2.047.8,3.681,3.681,0,0,1,.672,2.41V0H67.8V-5.391a1.61,1.61,0,0,0-.281-1.051,1.246,1.246,0,0,0-.992-.332,1.409,1.409,0,0,0-1.406.969L65.126,0H62.868V-5.383a1.59,1.59,0,0,0-.289-1.062,1.259,1.259,0,0,0-.984-.328,1.463,1.463,0,0,0-1.391.8V0H57.946V-8.453ZM75.688.156A4.15,4.15,0,0,1,72.661-.984a4.054,4.054,0,0,1-1.168-3.039v-.219a5.106,5.106,0,0,1,.492-2.277A3.612,3.612,0,0,1,73.38-8.066a3.914,3.914,0,0,1,2.059-.543,3.508,3.508,0,0,1,2.73,1.094,4.444,4.444,0,0,1,1,3.1v.922H73.782a2.1,2.1,0,0,0,.66,1.328,2,2,0,0,0,1.395.5,2.437,2.437,0,0,0,2.039-.945l1.109,1.242A3.389,3.389,0,0,1,77.61-.246,4.511,4.511,0,0,1,75.688.156ZM75.43-6.789a1.411,1.411,0,0,0-1.09.455,2.357,2.357,0,0,0-.535,1.3h3.141v-.181a1.681,1.681,0,0,0-.406-1.165A1.456,1.456,0,0,0,75.43-6.789Zm7.094-1.664.07.977a2.951,2.951,0,0,1,2.43-1.133,2.453,2.453,0,0,1,2,.789A3.682,3.682,0,0,1,87.7-5.461V0H85.438V-5.406a1.465,1.465,0,0,0-.312-1.043,1.4,1.4,0,0,0-1.039-.324,1.553,1.553,0,0,0-1.43.813V0H80.4V-8.453Zm9.586-2.078v2.078h1.445V-6.8H92.11v4.219a1.007,1.007,0,0,0,.18.672.9.9,0,0,0,.688.2,3.6,3.6,0,0,0,.664-.055V-.047a4.648,4.648,0,0,1-1.367.2,2.156,2.156,0,0,1-2.422-2.4V-6.8H88.618V-8.453h1.234v-2.078ZM98.7.156A4.15,4.15,0,0,1,95.676-.984a4.054,4.054,0,0,1-1.168-3.039v-.219A5.106,5.106,0,0,1,95-6.52,3.612,3.612,0,0,1,96.4-8.066a3.914,3.914,0,0,1,2.059-.543,3.508,3.508,0,0,1,2.73,1.094,4.444,4.444,0,0,1,1,3.1v.922H96.8a2.1,2.1,0,0,0,.66,1.328,2,2,0,0,0,1.395.5,2.437,2.437,0,0,0,2.039-.945L102-1.367a3.389,3.389,0,0,1-1.375,1.121A4.511,4.511,0,0,1,98.7.156Zm-.258-6.945a1.411,1.411,0,0,0-1.09.455,2.357,2.357,0,0,0-.535,1.3h3.141v-.181a1.681,1.681,0,0,0-.406-1.165A1.456,1.456,0,0,0,98.446-6.789Z" transform="translate(12254.869 -9924.293)"/>
    <rect id="Rectángulo_401187" data-name="Rectángulo 401187" width="338.327" height="745.646" transform="translate(12254.869 -10381)" fill="none"/>
    <path id="Trazado_874741" data-name="Trazado 874741" d="M10.016-1.437A4.068,4.068,0,0,1,8.227-.262,7.492,7.492,0,0,1,5.664.156a5.076,5.076,0,0,1-2.59-.645A4.3,4.3,0,0,1,1.355-2.359,6.585,6.585,0,0,1,.734-5.242v-.773a6.994,6.994,0,0,1,.574-2.949,4.248,4.248,0,0,1,1.656-1.906,4.771,4.771,0,0,1,2.535-.66,4.751,4.751,0,0,1,3.164.965,4.123,4.123,0,0,1,1.352,2.809H7.734a2.268,2.268,0,0,0-.691-1.43A2.208,2.208,0,0,0,5.57-9.641a2.078,2.078,0,0,0-1.82.9A4.724,4.724,0,0,0,3.117-6.07v.727a4.5,4.5,0,0,0,.68,2.7,2.327,2.327,0,0,0,1.992.914,2.6,2.6,0,0,0,1.883-.562V-4.25H5.539V-5.977h4.477ZM15.656.156A4.15,4.15,0,0,1,12.629-.984a4.054,4.054,0,0,1-1.168-3.039v-.219a5.106,5.106,0,0,1,.492-2.277,3.612,3.612,0,0,1,1.395-1.547,3.914,3.914,0,0,1,2.059-.543,3.508,3.508,0,0,1,2.73,1.094,4.444,4.444,0,0,1,1,3.1v.922H13.75a2.1,2.1,0,0,0,.66,1.328,2,2,0,0,0,1.395.5,2.437,2.437,0,0,0,2.039-.945l1.109,1.242A3.389,3.389,0,0,1,17.578-.246,4.511,4.511,0,0,1,15.656.156ZM15.4-6.789a1.411,1.411,0,0,0-1.09.455,2.357,2.357,0,0,0-.535,1.3h3.141v-.181a1.681,1.681,0,0,0-.406-1.165A1.456,1.456,0,0,0,15.4-6.789Zm9.594,4.453a.727.727,0,0,0-.41-.652,4.659,4.659,0,0,0-1.316-.426Q20.25-4.047,20.25-5.977a2.323,2.323,0,0,1,.934-1.879,3.766,3.766,0,0,1,2.441-.754,4.053,4.053,0,0,1,2.574.758,2.388,2.388,0,0,1,.965,1.969H24.906a1.092,1.092,0,0,0-.312-.8A1.322,1.322,0,0,0,23.617-7a1.351,1.351,0,0,0-.883.258.814.814,0,0,0-.312.656.7.7,0,0,0,.355.605,3.657,3.657,0,0,0,1.2.4A9.8,9.8,0,0,1,25.4-4.7,2.336,2.336,0,0,1,27.188-2.43,2.2,2.2,0,0,1,26.2-.559a4.28,4.28,0,0,1-2.562.715,4.47,4.47,0,0,1-1.887-.379,3.166,3.166,0,0,1-1.293-1.039,2.414,2.414,0,0,1-.469-1.426h2.141a1.179,1.179,0,0,0,.445.922,1.766,1.766,0,0,0,1.109.32,1.635,1.635,0,0,0,.98-.246A.766.766,0,0,0,24.992-2.336Zm6.352-8.2v2.078h1.445V-6.8H31.344v4.219a1.007,1.007,0,0,0,.18.672.9.9,0,0,0,.688.2,3.6,3.6,0,0,0,.664-.055V-.047a4.648,4.648,0,0,1-1.367.2,2.156,2.156,0,0,1-2.422-2.4V-6.8H27.852V-8.453h1.234v-2.078ZM36.43,0H34.164V-8.453H36.43Zm-2.4-10.641a1.112,1.112,0,0,1,.34-.836A1.277,1.277,0,0,1,35.3-11.8a1.28,1.28,0,0,1,.922.328,1.105,1.105,0,0,1,.344.836,1.108,1.108,0,0,1-.348.844,1.283,1.283,0,0,1-.918.328,1.283,1.283,0,0,1-.918-.328A1.108,1.108,0,0,1,34.031-10.641ZM37.938-4.3a5.013,5.013,0,0,1,.484-2.242A3.546,3.546,0,0,1,39.816-8.07a4.069,4.069,0,0,1,2.113-.539,3.849,3.849,0,0,1,2.793,1.047A4.2,4.2,0,0,1,45.93-4.719l.016.578A4.418,4.418,0,0,1,44.859-1.02,3.775,3.775,0,0,1,41.945.156a3.793,3.793,0,0,1-2.918-1.172A4.5,4.5,0,0,1,37.938-4.2Zm2.258.16A3.16,3.16,0,0,0,40.648-2.3a1.5,1.5,0,0,0,1.3.638,1.5,1.5,0,0,0,1.281-.63,3.457,3.457,0,0,0,.461-2.015,3.128,3.128,0,0,0-.461-1.831,1.5,1.5,0,0,0-1.3-.649,1.474,1.474,0,0,0-1.281.646A3.516,3.516,0,0,0,40.2-4.144Zm9.219-4.309.07.977a2.951,2.951,0,0,1,2.43-1.133,2.453,2.453,0,0,1,2,.789,3.682,3.682,0,0,1,.672,2.359V0H52.328V-5.406a1.465,1.465,0,0,0-.312-1.043,1.4,1.4,0,0,0-1.039-.324,1.553,1.553,0,0,0-1.43.813V0H47.289V-8.453ZM61.2,0a2.507,2.507,0,0,1-.227-.758,2.732,2.732,0,0,1-2.133.914,3,3,0,0,1-2.059-.719,2.312,2.312,0,0,1-.816-1.812,2.389,2.389,0,0,1,1-2.062,4.915,4.915,0,0,1,2.879-.727h1.039v-.484a1.393,1.393,0,0,0-.3-.937,1.183,1.183,0,0,0-.949-.352,1.345,1.345,0,0,0-.895.273.929.929,0,0,0-.324.75H56.148A2.268,2.268,0,0,1,56.6-7.273a3,3,0,0,1,1.281-.98,4.669,4.669,0,0,1,1.859-.355,3.689,3.689,0,0,1,2.48.785,2.747,2.747,0,0,1,.918,2.207v3.664a4.041,4.041,0,0,0,.336,1.82V0ZM59.328-1.57a1.945,1.945,0,0,0,.922-.223,1.462,1.462,0,0,0,.625-.6V-3.844h-.844q-1.7,0-1.8,1.172l-.008.133a.9.9,0,0,0,.3.7A1.153,1.153,0,0,0,59.328-1.57Zm10.3-4.766a6.134,6.134,0,0,0-.812-.062,1.654,1.654,0,0,0-1.68.867V0H64.875V-8.453h2.133l.063,1.008a2.092,2.092,0,0,1,1.883-1.164,2.366,2.366,0,0,1,.7.1Z" transform="translate(12485.188 -10083.977)"/>
    <path id="Trazado_874740" data-name="Trazado 874740" d="M5.617-6.336A6.134,6.134,0,0,0,4.8-6.4a1.654,1.654,0,0,0-1.68.867V0H.867V-8.453H3l.063,1.008A2.092,2.092,0,0,1,4.945-8.609a2.366,2.366,0,0,1,.7.1ZM10.3.156A4.15,4.15,0,0,1,7.274-.984,4.054,4.054,0,0,1,6.106-4.023v-.219A5.106,5.106,0,0,1,6.6-6.52,3.612,3.612,0,0,1,7.993-8.066a3.914,3.914,0,0,1,2.059-.543,3.508,3.508,0,0,1,2.73,1.094,4.444,4.444,0,0,1,1,3.1v.922H8.4a2.1,2.1,0,0,0,.66,1.328,2,2,0,0,0,1.395.5,2.437,2.437,0,0,0,2.039-.945L13.6-1.367A3.389,3.389,0,0,1,12.223-.246,4.511,4.511,0,0,1,10.3.156Zm-.258-6.945a1.411,1.411,0,0,0-1.09.455,2.357,2.357,0,0,0-.535,1.3h3.141v-.181a1.681,1.681,0,0,0-.406-1.165A1.456,1.456,0,0,0,10.043-6.789Zm8.531,5.125a1.481,1.481,0,0,0,1.016-.344A1.2,1.2,0,0,0,20-2.922h2.117a2.9,2.9,0,0,1-.469,1.574A3.093,3.093,0,0,1,20.383-.238a3.949,3.949,0,0,1-1.77.395A3.67,3.67,0,0,1,15.754-1,4.56,4.56,0,0,1,14.708-4.18v-.148a4.508,4.508,0,0,1,1.039-3.117A3.627,3.627,0,0,1,18.6-8.609a3.555,3.555,0,0,1,2.543.9,3.2,3.2,0,0,1,.973,2.4H20a1.551,1.551,0,0,0-.406-1.072,1.354,1.354,0,0,0-1.031-.412,1.36,1.36,0,0,0-1.191.575,3.333,3.333,0,0,0-.4,1.866v.235a3.375,3.375,0,0,0,.4,1.878A1.377,1.377,0,0,0,18.575-1.664Zm9.891.8A2.831,2.831,0,0,1,26.153.156a2.67,2.67,0,0,1-2.074-.781,3.335,3.335,0,0,1-.73-2.289V-8.453h2.258v5.467q0,1.322,1.2,1.322a1.63,1.63,0,0,0,1.578-.8V-8.453h2.266V0H28.528Zm8.641-5.477a6.134,6.134,0,0,0-.812-.062,1.654,1.654,0,0,0-1.68.867V0H32.356V-8.453h2.133l.063,1.008a2.092,2.092,0,0,1,1.883-1.164,2.366,2.366,0,0,1,.7.1Zm5.664,4a.727.727,0,0,0-.41-.652,4.659,4.659,0,0,0-1.316-.426q-3.016-.633-3.016-2.562a2.323,2.323,0,0,1,.934-1.879A3.766,3.766,0,0,1,41.4-8.609a4.053,4.053,0,0,1,2.574.758,2.388,2.388,0,0,1,.965,1.969H42.684a1.092,1.092,0,0,0-.312-.8A1.322,1.322,0,0,0,41.4-7a1.351,1.351,0,0,0-.883.258.814.814,0,0,0-.312.656.7.7,0,0,0,.355.605,3.657,3.657,0,0,0,1.2.4,9.8,9.8,0,0,1,1.422.379A2.336,2.336,0,0,1,44.965-2.43a2.2,2.2,0,0,1-.992,1.871,4.28,4.28,0,0,1-2.562.715,4.47,4.47,0,0,1-1.887-.379,3.166,3.166,0,0,1-1.293-1.039,2.414,2.414,0,0,1-.469-1.426H39.9a1.179,1.179,0,0,0,.445.922,1.766,1.766,0,0,0,1.109.32,1.635,1.635,0,0,0,.98-.246A.766.766,0,0,0,42.77-2.336Zm3.3-1.969a5.013,5.013,0,0,1,.484-2.242A3.546,3.546,0,0,1,47.946-8.07a4.069,4.069,0,0,1,2.113-.539,3.849,3.849,0,0,1,2.793,1.047,4.2,4.2,0,0,1,1.207,2.844l.016.578A4.418,4.418,0,0,1,52.989-1.02,3.775,3.775,0,0,1,50.075.156a3.793,3.793,0,0,1-2.918-1.172A4.5,4.5,0,0,1,46.067-4.2Zm2.258.16A3.16,3.16,0,0,0,48.778-2.3a1.5,1.5,0,0,0,1.3.638,1.5,1.5,0,0,0,1.281-.63,3.457,3.457,0,0,0,.461-2.015,3.128,3.128,0,0,0-.461-1.831,1.5,1.5,0,0,0-1.3-.649,1.474,1.474,0,0,0-1.281.646A3.516,3.516,0,0,0,48.325-4.144ZM60.043-2.336a.727.727,0,0,0-.41-.652,4.659,4.659,0,0,0-1.316-.426Q55.3-4.047,55.3-5.977a2.323,2.323,0,0,1,.934-1.879,3.766,3.766,0,0,1,2.441-.754,4.053,4.053,0,0,1,2.574.758,2.388,2.388,0,0,1,.965,1.969H59.958a1.092,1.092,0,0,0-.312-.8A1.322,1.322,0,0,0,58.668-7a1.351,1.351,0,0,0-.883.258.814.814,0,0,0-.312.656.7.7,0,0,0,.355.605,3.657,3.657,0,0,0,1.2.4A9.8,9.8,0,0,1,60.45-4.7,2.336,2.336,0,0,1,62.239-2.43a2.2,2.2,0,0,1-.992,1.871,4.28,4.28,0,0,1-2.562.715A4.47,4.47,0,0,1,56.8-.223,3.166,3.166,0,0,1,55.5-1.262a2.414,2.414,0,0,1-.469-1.426h2.141a1.179,1.179,0,0,0,.445.922,1.766,1.766,0,0,0,1.109.32,1.635,1.635,0,0,0,.98-.246A.766.766,0,0,0,60.043-2.336Z" transform="translate(12485.188 -10064.777)"/>
    <path id="Trazado_874737" data-name="Trazado 874737" d="M3.87-10.8l2.773,7.83L9.4-10.8h2.921V0H10.091V-2.951l.222-5.094L7.4,0H5.872L2.966-8.037l.222,5.086V0H.964V-10.8Zm9.921,6.71a4.758,4.758,0,0,1,.46-2.128,3.365,3.365,0,0,1,1.324-1.446,3.861,3.861,0,0,1,2.006-.512,3.653,3.653,0,0,1,2.651.994,3.988,3.988,0,0,1,1.146,2.7l.015.549A4.193,4.193,0,0,1,20.36-.968,3.582,3.582,0,0,1,17.595.148,3.6,3.6,0,0,1,14.825-.964a4.267,4.267,0,0,1-1.034-3.025Zm2.143.152a3,3,0,0,0,.43,1.749,1.419,1.419,0,0,0,1.231.605,1.422,1.422,0,0,0,1.216-.6,3.281,3.281,0,0,0,.437-1.912,2.969,2.969,0,0,0-.437-1.738,1.422,1.422,0,0,0-1.231-.616,1.4,1.4,0,0,0-1.216.613A3.337,3.337,0,0,0,15.934-3.933Zm8.749-4.089.067.927a2.8,2.8,0,0,1,2.306-1.075,2.328,2.328,0,0,1,1.9.749,3.494,3.494,0,0,1,.638,2.239V0H27.449V-5.131a1.39,1.39,0,0,0-.3-.99,1.328,1.328,0,0,0-.986-.308,1.474,1.474,0,0,0-1.357.771V0H22.666V-8.023ZM33.477,0h-2.15V-8.023h2.15ZM31.2-10.1a1.055,1.055,0,0,1,.323-.793A1.212,1.212,0,0,1,32.4-11.2a1.214,1.214,0,0,1,.875.311,1.049,1.049,0,0,1,.326.793,1.052,1.052,0,0,1-.33.8,1.217,1.217,0,0,1-.871.311,1.217,1.217,0,0,1-.871-.311A1.052,1.052,0,0,1,31.2-10.1Zm6.606.1v1.972h1.372v1.572H37.807v4a.956.956,0,0,0,.171.638.857.857,0,0,0,.652.193,3.417,3.417,0,0,0,.63-.052V-.044a4.411,4.411,0,0,1-1.3.193,2.046,2.046,0,0,1-2.3-2.276V-6.451H34.493V-8.023h1.172V-9.995Zm1.8,5.909a4.758,4.758,0,0,1,.46-2.128,3.365,3.365,0,0,1,1.324-1.446,3.861,3.861,0,0,1,2.006-.512,3.653,3.653,0,0,1,2.651.994,3.988,3.988,0,0,1,1.146,2.7l.015.549A4.193,4.193,0,0,1,46.173-.968,3.582,3.582,0,0,1,43.407.148,3.6,3.6,0,0,1,40.638-.964,4.267,4.267,0,0,1,39.6-3.989Zm2.143.152a3,3,0,0,0,.43,1.749,1.419,1.419,0,0,0,1.231.605,1.422,1.422,0,0,0,1.216-.6,3.281,3.281,0,0,0,.437-1.912,2.969,2.969,0,0,0-.437-1.738,1.422,1.422,0,0,0-1.231-.616,1.4,1.4,0,0,0-1.216.613A3.337,3.337,0,0,0,41.747-3.933Zm11.285-2.08a5.822,5.822,0,0,0-.771-.059,1.57,1.57,0,0,0-1.594.823V0H48.524V-8.023h2.024l.059.956a1.985,1.985,0,0,1,1.787-1.1,2.245,2.245,0,0,1,.667.1ZM57.477.148A3.938,3.938,0,0,1,54.6-.934,3.848,3.848,0,0,1,53.5-3.819v-.208a4.846,4.846,0,0,1,.467-2.161,3.428,3.428,0,0,1,1.324-1.468,3.715,3.715,0,0,1,1.954-.515,3.329,3.329,0,0,1,2.591,1.038,4.218,4.218,0,0,1,.945,2.944v.875H55.668a1.991,1.991,0,0,0,.627,1.26,1.894,1.894,0,0,0,1.324.475,2.313,2.313,0,0,0,1.935-.9L60.606-1.3A3.217,3.217,0,0,1,59.3-.234,4.281,4.281,0,0,1,57.477.148Zm-.245-6.592a1.339,1.339,0,0,0-1.034.432,2.237,2.237,0,0,0-.508,1.236h2.981v-.171a1.6,1.6,0,0,0-.386-1.106A1.381,1.381,0,0,0,57.233-6.443ZM66.642,0a2.38,2.38,0,0,1-.215-.719A2.593,2.593,0,0,1,64.4.148a2.848,2.848,0,0,1-1.954-.682,2.194,2.194,0,0,1-.775-1.72,2.267,2.267,0,0,1,.945-1.957,4.665,4.665,0,0,1,2.732-.69h.986v-.46a1.322,1.322,0,0,0-.285-.89,1.123,1.123,0,0,0-.9-.334,1.277,1.277,0,0,0-.849.26.882.882,0,0,0-.308.712H61.852a2.152,2.152,0,0,1,.43-1.29A2.843,2.843,0,0,1,63.5-7.834a4.432,4.432,0,0,1,1.765-.337,3.5,3.5,0,0,1,2.354.745,2.607,2.607,0,0,1,.871,2.095v3.477a3.836,3.836,0,0,0,.319,1.728V0ZM64.87-1.49a1.846,1.846,0,0,0,.875-.211,1.388,1.388,0,0,0,.593-.567V-3.648h-.8q-1.609,0-1.713,1.112l-.007.126a.858.858,0,0,0,.282.66A1.094,1.094,0,0,0,64.87-1.49Zm9.772-4.523a5.822,5.822,0,0,0-.771-.059,1.57,1.57,0,0,0-1.594.823V0H70.134V-8.023h2.024l.059.956A1.985,1.985,0,0,1,74-8.171a2.245,2.245,0,0,1,.667.1Z" transform="translate(12485.188 -9801.033)"/>
    <path id="Trazado_874736" data-name="Trazado 874736" d="M4.16-1.579a1.405,1.405,0,0,0,.964-.326,1.143,1.143,0,0,0,.386-.868H7.518a2.749,2.749,0,0,1-.445,1.494,2.935,2.935,0,0,1-1.2,1.053A3.748,3.748,0,0,1,4.2.148,3.483,3.483,0,0,1,1.483-.945,4.328,4.328,0,0,1,.489-3.967v-.141a4.278,4.278,0,0,1,.986-2.958,3.442,3.442,0,0,1,2.706-1.1A3.374,3.374,0,0,1,6.6-7.315a3.032,3.032,0,0,1,.923,2.28H5.509a1.472,1.472,0,0,0-.386-1.017,1.286,1.286,0,0,0-.979-.391A1.291,1.291,0,0,0,3.014-5.9a3.163,3.163,0,0,0-.382,1.771V-3.9A3.2,3.2,0,0,0,3.01-2.121,1.307,1.307,0,0,0,4.16-1.579ZM8.408-4.085a4.758,4.758,0,0,1,.46-2.128,3.365,3.365,0,0,1,1.324-1.446A3.861,3.861,0,0,1,12.2-8.171a3.653,3.653,0,0,1,2.651.994,3.988,3.988,0,0,1,1.146,2.7l.015.549A4.193,4.193,0,0,1,14.977-.968,3.582,3.582,0,0,1,12.212.148,3.6,3.6,0,0,1,9.442-.964,4.267,4.267,0,0,1,8.408-3.989Zm2.143.152a3,3,0,0,0,.43,1.749,1.419,1.419,0,0,0,1.231.605,1.422,1.422,0,0,0,1.216-.6,3.281,3.281,0,0,0,.437-1.912,2.969,2.969,0,0,0-.437-1.738A1.422,1.422,0,0,0,12.2-6.443a1.4,1.4,0,0,0-1.216.613A3.337,3.337,0,0,0,10.551-3.933ZM19.3-8.023l.067.927a2.8,2.8,0,0,1,2.306-1.075,2.328,2.328,0,0,1,1.9.749,3.494,3.494,0,0,1,.638,2.239V0H22.066V-5.131a1.39,1.39,0,0,0-.3-.99,1.328,1.328,0,0,0-.986-.308,1.474,1.474,0,0,0-1.357.771V0H17.283V-8.023Zm9.1-1.972v1.972H29.77v1.572H28.4v4a.956.956,0,0,0,.171.638.857.857,0,0,0,.652.193,3.417,3.417,0,0,0,.63-.052V-.044a4.411,4.411,0,0,1-1.3.193,2.046,2.046,0,0,1-2.3-2.276V-6.451H25.084V-8.023h1.172V-9.995ZM33.225,0h-2.15V-8.023h2.15ZM30.949-10.1a1.055,1.055,0,0,1,.323-.793,1.212,1.212,0,0,1,.879-.311,1.214,1.214,0,0,1,.875.311,1.049,1.049,0,0,1,.326.793,1.052,1.052,0,0,1-.33.8,1.217,1.217,0,0,1-.871.311,1.217,1.217,0,0,1-.871-.311A1.052,1.052,0,0,1,30.949-10.1Zm6.013,2.076.067.927a2.8,2.8,0,0,1,2.306-1.075,2.328,2.328,0,0,1,1.9.749,3.494,3.494,0,0,1,.638,2.239V0H39.727V-5.131a1.39,1.39,0,0,0-.3-.99,1.328,1.328,0,0,0-.986-.308,1.474,1.474,0,0,0-1.357.771V0H34.945V-8.023ZM48.3-.816A2.687,2.687,0,0,1,46.1.148a2.534,2.534,0,0,1-1.969-.741,3.165,3.165,0,0,1-.693-2.172V-8.023h2.143v5.189q0,1.254,1.142,1.254a1.547,1.547,0,0,0,1.5-.757V-8.023h2.15V0H48.358ZM56.64,0a2.38,2.38,0,0,1-.215-.719A2.593,2.593,0,0,1,54.4.148a2.848,2.848,0,0,1-1.954-.682,2.194,2.194,0,0,1-.775-1.72,2.267,2.267,0,0,1,.945-1.957A4.665,4.665,0,0,1,55.35-4.9h.986v-.46a1.322,1.322,0,0,0-.285-.89,1.123,1.123,0,0,0-.9-.334,1.277,1.277,0,0,0-.849.26.882.882,0,0,0-.308.712H51.85a2.152,2.152,0,0,1,.43-1.29A2.843,2.843,0,0,1,53.5-7.834a4.432,4.432,0,0,1,1.765-.337,3.5,3.5,0,0,1,2.354.745,2.607,2.607,0,0,1,.871,2.095v3.477a3.835,3.835,0,0,0,.319,1.728V0ZM54.868-1.49a1.846,1.846,0,0,0,.875-.211,1.388,1.388,0,0,0,.593-.567V-3.648h-.8q-1.609,0-1.713,1.112l-.007.126a.858.858,0,0,0,.282.66A1.094,1.094,0,0,0,54.868-1.49Zm7.274-6.532.067.9a2.819,2.819,0,0,1,2.306-1.045,2.14,2.14,0,0,1,2.128,1.223,2.755,2.755,0,0,1,2.41-1.223,2.393,2.393,0,0,1,1.943.76,3.493,3.493,0,0,1,.638,2.287V0h-2.15V-5.116a1.528,1.528,0,0,0-.267-1,1.183,1.183,0,0,0-.942-.315,1.337,1.337,0,0,0-1.335.919L66.946,0H64.8V-5.109a1.509,1.509,0,0,0-.274-1.008,1.194,1.194,0,0,0-.934-.311,1.389,1.389,0,0,0-1.32.756V0H60.132V-8.023ZM76.971.148A3.938,3.938,0,0,1,74.1-.934a3.848,3.848,0,0,1-1.108-2.884v-.208a4.846,4.846,0,0,1,.467-2.161A3.428,3.428,0,0,1,74.78-7.656a3.715,3.715,0,0,1,1.954-.515,3.33,3.33,0,0,1,2.591,1.038,4.218,4.218,0,0,1,.945,2.944v.875H75.162a1.991,1.991,0,0,0,.627,1.26,1.894,1.894,0,0,0,1.324.475,2.313,2.313,0,0,0,1.935-.9L80.1-1.3a3.217,3.217,0,0,1-1.3,1.064A4.281,4.281,0,0,1,76.971.148Zm-.245-6.592a1.339,1.339,0,0,0-1.034.432,2.237,2.237,0,0,0-.508,1.236h2.981v-.171a1.6,1.6,0,0,0-.386-1.106A1.381,1.381,0,0,0,76.726-6.443Zm6.732-1.579.067.927a2.8,2.8,0,0,1,2.306-1.075,2.328,2.328,0,0,1,1.9.749,3.494,3.494,0,0,1,.638,2.239V0H86.224V-5.131a1.39,1.39,0,0,0-.3-.99,1.328,1.328,0,0,0-.986-.308,1.474,1.474,0,0,0-1.357.771V0H81.442V-8.023Zm9.1-1.972v1.972h1.372v1.572H92.556v4a.956.956,0,0,0,.171.638.857.857,0,0,0,.652.193,3.417,3.417,0,0,0,.63-.052V-.044a4.411,4.411,0,0,1-1.3.193,2.046,2.046,0,0,1-2.3-2.276V-6.451H89.242V-8.023h1.172V-9.995ZM98.814.148A3.938,3.938,0,0,1,95.941-.934a3.848,3.848,0,0,1-1.108-2.884v-.208A4.846,4.846,0,0,1,95.3-6.187a3.428,3.428,0,0,1,1.324-1.468,3.715,3.715,0,0,1,1.954-.515,3.33,3.33,0,0,1,2.591,1.038,4.218,4.218,0,0,1,.945,2.944v.875H97.005a1.991,1.991,0,0,0,.627,1.26,1.894,1.894,0,0,0,1.324.475,2.313,2.313,0,0,0,1.935-.9L101.943-1.3a3.217,3.217,0,0,1-1.3,1.064A4.281,4.281,0,0,1,98.814.148ZM98.57-6.443a1.339,1.339,0,0,0-1.034.432,2.237,2.237,0,0,0-.508,1.236h2.981v-.171a1.6,1.6,0,0,0-.386-1.106A1.381,1.381,0,0,0,98.57-6.443Z" transform="translate(12485.188 -9782.813)"/>
    <rect id="Rectángulo_401188" data-name="Rectángulo 401188" width="338.327" height="745.646" transform="translate(12254.869 -10381)" fill="none"/>
    <path id="Trazado_874735" data-name="Trazado 874735" d="M3.508,0H1.164V-11.375H3.508ZM7.648-8.453l.07.945a2.971,2.971,0,0,1,2.43-1.1A2.255,2.255,0,0,1,12.391-7.32,2.9,2.9,0,0,1,14.93-8.609a2.521,2.521,0,0,1,2.047.8,3.681,3.681,0,0,1,.672,2.41V0H15.383V-5.391A1.61,1.61,0,0,0,15.1-6.441a1.246,1.246,0,0,0-.992-.332A1.409,1.409,0,0,0,12.7-5.8L12.711,0H10.453V-5.383a1.59,1.59,0,0,0-.289-1.062,1.259,1.259,0,0,0-.984-.328,1.463,1.463,0,0,0-1.391.8V0H5.531V-8.453Zm19.344,4.3a5.07,5.07,0,0,1-.887,3.129A2.843,2.843,0,0,1,23.711.156a2.633,2.633,0,0,1-2.07-.891V3.25H19.383v-11.7h2.094l.078.828A2.654,2.654,0,0,1,23.7-8.609a2.862,2.862,0,0,1,2.43,1.156,5.207,5.207,0,0,1,.867,3.188Zm-2.258-.164a3.327,3.327,0,0,0-.418-1.82A1.361,1.361,0,0,0,23.1-6.773a1.478,1.478,0,0,0-1.461.813V-2.5a1.5,1.5,0,0,0,1.477.836Q24.734-1.664,24.734-4.312ZM30.773,0H28.508V-12h2.266Zm5.75.156A4.15,4.15,0,0,1,33.5-.984a4.054,4.054,0,0,1-1.168-3.039v-.219A5.106,5.106,0,0,1,32.82-6.52a3.612,3.612,0,0,1,1.395-1.547,3.914,3.914,0,0,1,2.059-.543A3.508,3.508,0,0,1,39-7.516a4.444,4.444,0,0,1,1,3.1v.922H34.617a2.1,2.1,0,0,0,.66,1.328,2,2,0,0,0,1.395.5,2.437,2.437,0,0,0,2.039-.945L39.82-1.367A3.389,3.389,0,0,1,38.445-.246,4.511,4.511,0,0,1,36.523.156Zm-.258-6.945a1.411,1.411,0,0,0-1.09.455,2.357,2.357,0,0,0-.535,1.3h3.141v-.181a1.681,1.681,0,0,0-.406-1.165A1.456,1.456,0,0,0,36.266-6.789ZM43.4-8.453l.07.945a2.971,2.971,0,0,1,2.43-1.1A2.255,2.255,0,0,1,48.141-7.32,2.9,2.9,0,0,1,50.68-8.609a2.521,2.521,0,0,1,2.047.8A3.681,3.681,0,0,1,53.4-5.4V0H51.133V-5.391a1.61,1.61,0,0,0-.281-1.051,1.246,1.246,0,0,0-.992-.332,1.409,1.409,0,0,0-1.406.969L48.461,0H46.2V-5.383a1.59,1.59,0,0,0-.289-1.062,1.259,1.259,0,0,0-.984-.328,1.463,1.463,0,0,0-1.391.8V0H41.281V-8.453ZM59.023.156A4.15,4.15,0,0,1,56-.984a4.054,4.054,0,0,1-1.168-3.039v-.219A5.106,5.106,0,0,1,55.32-6.52a3.612,3.612,0,0,1,1.395-1.547,3.914,3.914,0,0,1,2.059-.543A3.508,3.508,0,0,1,61.5-7.516a4.444,4.444,0,0,1,1,3.1v.922H57.117a2.1,2.1,0,0,0,.66,1.328,2,2,0,0,0,1.395.5,2.437,2.437,0,0,0,2.039-.945L62.32-1.367A3.389,3.389,0,0,1,60.945-.246,4.511,4.511,0,0,1,59.023.156Zm-.258-6.945a1.411,1.411,0,0,0-1.09.455,2.357,2.357,0,0,0-.535,1.3h3.141v-.181a1.681,1.681,0,0,0-.406-1.165A1.456,1.456,0,0,0,58.766-6.789Zm7.094-1.664.07.977a2.951,2.951,0,0,1,2.43-1.133,2.453,2.453,0,0,1,2,.789,3.682,3.682,0,0,1,.672,2.359V0H68.773V-5.406a1.465,1.465,0,0,0-.312-1.043,1.4,1.4,0,0,0-1.039-.324,1.553,1.553,0,0,0-1.43.813V0H63.734V-8.453Zm9.586-2.078v2.078h1.445V-6.8H75.445v4.219a1.007,1.007,0,0,0,.18.672.9.9,0,0,0,.688.2,3.6,3.6,0,0,0,.664-.055V-.047a4.648,4.648,0,0,1-1.367.2,2.156,2.156,0,0,1-2.422-2.4V-6.8H71.953V-8.453h1.234v-2.078ZM83.047,0a2.507,2.507,0,0,1-.227-.758,2.732,2.732,0,0,1-2.133.914,3,3,0,0,1-2.059-.719,2.312,2.312,0,0,1-.816-1.812,2.389,2.389,0,0,1,1-2.062,4.915,4.915,0,0,1,2.879-.727h1.039v-.484a1.393,1.393,0,0,0-.3-.937,1.183,1.183,0,0,0-.949-.352,1.345,1.345,0,0,0-.895.273.929.929,0,0,0-.324.75H78a2.268,2.268,0,0,1,.453-1.359,3,3,0,0,1,1.281-.98,4.669,4.669,0,0,1,1.859-.355,3.689,3.689,0,0,1,2.48.785,2.747,2.747,0,0,1,.918,2.207v3.664a4.041,4.041,0,0,0,.336,1.82V0ZM81.18-1.57a1.945,1.945,0,0,0,.922-.223,1.462,1.462,0,0,0,.625-.6V-3.844h-.844q-1.7,0-1.8,1.172l-.008.133a.9.9,0,0,0,.3.7A1.153,1.153,0,0,0,81.18-1.57Zm9.063-.094a1.481,1.481,0,0,0,1.016-.344,1.2,1.2,0,0,0,.406-.914h2.117a2.9,2.9,0,0,1-.469,1.574A3.093,3.093,0,0,1,92.051-.238a3.949,3.949,0,0,1-1.77.395A3.67,3.67,0,0,1,87.422-1,4.56,4.56,0,0,1,86.375-4.18v-.148a4.508,4.508,0,0,1,1.039-3.117,3.627,3.627,0,0,1,2.852-1.164,3.555,3.555,0,0,1,2.543.9,3.2,3.2,0,0,1,.973,2.4H91.664a1.551,1.551,0,0,0-.406-1.072,1.354,1.354,0,0,0-1.031-.412,1.36,1.36,0,0,0-1.191.575,3.333,3.333,0,0,0-.4,1.866v.235a3.375,3.375,0,0,0,.4,1.878A1.377,1.377,0,0,0,90.242-1.664ZM97.453,0H95.188V-8.453h2.266Zm-2.4-10.641a1.112,1.112,0,0,1,.34-.836,1.277,1.277,0,0,1,.926-.328,1.28,1.28,0,0,1,.922.328,1.105,1.105,0,0,1,.344.836,1.108,1.108,0,0,1-.348.844,1.283,1.283,0,0,1-.918.328A1.283,1.283,0,0,1,95.4-9.8,1.108,1.108,0,0,1,95.055-10.641ZM98.961-4.3a5.013,5.013,0,0,1,.484-2.242A3.546,3.546,0,0,1,100.84-8.07a4.069,4.069,0,0,1,2.113-.539,3.849,3.849,0,0,1,2.793,1.047,4.2,4.2,0,0,1,1.207,2.844l.016.578a4.418,4.418,0,0,1-1.086,3.121A3.775,3.775,0,0,1,102.969.156a3.793,3.793,0,0,1-2.918-1.172A4.5,4.5,0,0,1,98.961-4.2Zm2.258.16a3.16,3.16,0,0,0,.453,1.843,1.5,1.5,0,0,0,1.3.638,1.5,1.5,0,0,0,1.281-.63,3.457,3.457,0,0,0,.461-2.015,3.128,3.128,0,0,0-.461-1.831,1.5,1.5,0,0,0-1.3-.649,1.474,1.474,0,0,0-1.281.646A3.516,3.516,0,0,0,101.219-4.144ZM103.4-12h2.461L103.7-9.578h-1.836Zm7.039,3.547.07.977a2.951,2.951,0,0,1,2.43-1.133,2.453,2.453,0,0,1,2,.789,3.682,3.682,0,0,1,.672,2.359V0h-2.258V-5.406a1.465,1.465,0,0,0-.312-1.043A1.4,1.4,0,0,0,112-6.773a1.553,1.553,0,0,0-1.43.813V0h-2.258V-8.453Z" transform="translate(12363.975 -9678.09)"/>
    <path id="Trazado_874734" data-name="Trazado 874734" d="M4.758.156A4.15,4.15,0,0,1,1.73-.984,4.054,4.054,0,0,1,.563-4.023v-.219A5.106,5.106,0,0,1,1.055-6.52,3.612,3.612,0,0,1,2.449-8.066a3.914,3.914,0,0,1,2.059-.543,3.508,3.508,0,0,1,2.73,1.094,4.444,4.444,0,0,1,1,3.1v.922H2.852a2.1,2.1,0,0,0,.66,1.328,2,2,0,0,0,1.395.5,2.437,2.437,0,0,0,2.039-.945L8.055-1.367A3.389,3.389,0,0,1,6.68-.246,4.511,4.511,0,0,1,4.758.156ZM4.5-6.789a1.411,1.411,0,0,0-1.09.455,2.357,2.357,0,0,0-.535,1.3H6.016v-.181a1.681,1.681,0,0,0-.406-1.165A1.456,1.456,0,0,0,4.5-6.789ZM10.133,0V-6.8H8.875V-8.453h1.258v-.719a2.918,2.918,0,0,1,.816-2.207,3.162,3.162,0,0,1,2.285-.785,5.278,5.278,0,0,1,1.148.156l-.023,1.75a2.878,2.878,0,0,0-.687-.07q-1.273,0-1.273,1.2v.68h1.68V-6.8H12.4V0Zm8.628.156A4.15,4.15,0,0,1,15.734-.984a4.054,4.054,0,0,1-1.168-3.039v-.219a5.106,5.106,0,0,1,.492-2.277,3.612,3.612,0,0,1,1.395-1.547,3.914,3.914,0,0,1,2.059-.543,3.508,3.508,0,0,1,2.73,1.094,4.444,4.444,0,0,1,1,3.1v.922H16.855a2.1,2.1,0,0,0,.66,1.328,2,2,0,0,0,1.395.5,2.437,2.437,0,0,0,2.039-.945l1.109,1.242A3.389,3.389,0,0,1,20.683-.246,4.511,4.511,0,0,1,18.761.156ZM18.5-6.789a1.411,1.411,0,0,0-1.09.455,2.357,2.357,0,0,0-.535,1.3h3.141v-.181a1.681,1.681,0,0,0-.406-1.165A1.456,1.456,0,0,0,18.5-6.789Zm8.531,5.125a1.481,1.481,0,0,0,1.016-.344,1.2,1.2,0,0,0,.406-.914h2.117A2.9,2.9,0,0,1,30.1-1.348,3.093,3.093,0,0,1,28.843-.238a3.949,3.949,0,0,1-1.77.395A3.67,3.67,0,0,1,24.214-1,4.56,4.56,0,0,1,23.167-4.18v-.148a4.508,4.508,0,0,1,1.039-3.117,3.627,3.627,0,0,1,2.852-1.164,3.555,3.555,0,0,1,2.543.9,3.2,3.2,0,0,1,.973,2.4H28.456a1.551,1.551,0,0,0-.406-1.072,1.354,1.354,0,0,0-1.031-.412,1.36,1.36,0,0,0-1.191.575,3.333,3.333,0,0,0-.4,1.866v.235a3.375,3.375,0,0,0,.4,1.878A1.377,1.377,0,0,0,27.035-1.664Zm7.531-8.867v2.078h1.445V-6.8H34.566v4.219a1.007,1.007,0,0,0,.18.672.9.9,0,0,0,.688.2,3.6,3.6,0,0,0,.664-.055V-.047a4.648,4.648,0,0,1-1.367.2,2.156,2.156,0,0,1-2.422-2.4V-6.8H31.074V-8.453h1.234v-2.078ZM39.652,0H37.386V-8.453h2.266Zm-2.4-10.641a1.112,1.112,0,0,1,.34-.836,1.277,1.277,0,0,1,.926-.328,1.28,1.28,0,0,1,.922.328,1.105,1.105,0,0,1,.344.836,1.108,1.108,0,0,1-.348.844,1.283,1.283,0,0,1-.918.328A1.283,1.283,0,0,1,37.6-9.8,1.108,1.108,0,0,1,37.253-10.641Zm7.422,7.883,1.57-5.7H48.6L45.753,0H43.6L40.745-8.453H43.1ZM54.266,0a2.507,2.507,0,0,1-.227-.758,2.732,2.732,0,0,1-2.133.914,3,3,0,0,1-2.059-.719,2.312,2.312,0,0,1-.816-1.812,2.389,2.389,0,0,1,1-2.062,4.915,4.915,0,0,1,2.879-.727h1.039v-.484a1.393,1.393,0,0,0-.3-.937,1.183,1.183,0,0,0-.949-.352,1.345,1.345,0,0,0-.895.273.929.929,0,0,0-.324.75H49.219a2.268,2.268,0,0,1,.453-1.359,3,3,0,0,1,1.281-.98,4.669,4.669,0,0,1,1.859-.355,3.689,3.689,0,0,1,2.48.785,2.747,2.747,0,0,1,.918,2.207v3.664a4.041,4.041,0,0,0,.336,1.82V0ZM52.4-1.57a1.945,1.945,0,0,0,.922-.223,1.462,1.462,0,0,0,.625-.6V-3.844H53.1q-1.7,0-1.8,1.172l-.008.133a.9.9,0,0,0,.3.7A1.153,1.153,0,0,0,52.4-1.57Zm9.18-2.719a5.094,5.094,0,0,1,.887-3.148,2.877,2.877,0,0,1,2.426-1.172,2.589,2.589,0,0,1,2.039.922V-12H69.2V0H67.157l-.109-.9A2.657,2.657,0,0,1,64.876.156,2.869,2.869,0,0,1,62.481-1.02,5.258,5.258,0,0,1,61.579-4.289Zm2.258.168A3.337,3.337,0,0,0,64.251-2.3a1.349,1.349,0,0,0,1.2.634,1.511,1.511,0,0,0,1.477-.884V-5.889a1.489,1.489,0,0,0-1.461-.884Q63.837-6.773,63.837-4.121Zm11,4.277A4.15,4.15,0,0,1,71.809-.984a4.054,4.054,0,0,1-1.168-3.039v-.219a5.106,5.106,0,0,1,.492-2.277,3.612,3.612,0,0,1,1.395-1.547,3.914,3.914,0,0,1,2.059-.543,3.508,3.508,0,0,1,2.73,1.094,4.444,4.444,0,0,1,1,3.1v.922H72.93a2.1,2.1,0,0,0,.66,1.328,2,2,0,0,0,1.395.5,2.437,2.437,0,0,0,2.039-.945l1.109,1.242A3.389,3.389,0,0,1,76.758-.246,4.511,4.511,0,0,1,74.837.156Zm-.258-6.945a1.411,1.411,0,0,0-1.09.455,2.357,2.357,0,0,0-.535,1.3h3.141v-.181a1.681,1.681,0,0,0-.406-1.165A1.456,1.456,0,0,0,74.579-6.789ZM81.977,0H79.712V-12h2.266Z" transform="translate(12380.567 -9658.891)"/>
    <path id="Trazado_874733" data-name="Trazado 874733" d="M2.984-8.453l.07.945a2.971,2.971,0,0,1,2.43-1.1A2.255,2.255,0,0,1,7.727-7.32a2.9,2.9,0,0,1,2.539-1.289,2.521,2.521,0,0,1,2.047.8,3.681,3.681,0,0,1,.672,2.41V0H10.719V-5.391a1.61,1.61,0,0,0-.281-1.051,1.246,1.246,0,0,0-.992-.332A1.409,1.409,0,0,0,8.039-5.8L8.047,0H5.789V-5.383A1.59,1.59,0,0,0,5.5-6.445a1.259,1.259,0,0,0-.984-.328,1.463,1.463,0,0,0-1.391.8V0H.867V-8.453ZM18.609.156A4.15,4.15,0,0,1,15.582-.984a4.054,4.054,0,0,1-1.168-3.039v-.219a5.106,5.106,0,0,1,.492-2.277A3.612,3.612,0,0,1,16.3-8.066a3.914,3.914,0,0,1,2.059-.543,3.508,3.508,0,0,1,2.73,1.094,4.444,4.444,0,0,1,1,3.1v.922H16.7a2.1,2.1,0,0,0,.66,1.328,2,2,0,0,0,1.395.5A2.437,2.437,0,0,0,20.8-2.609l1.109,1.242A3.389,3.389,0,0,1,20.531-.246,4.511,4.511,0,0,1,18.609.156Zm-.258-6.945a1.411,1.411,0,0,0-1.09.455,2.357,2.357,0,0,0-.535,1.3h3.141v-.181a1.681,1.681,0,0,0-.406-1.165A1.456,1.456,0,0,0,18.352-6.789Zm9.766.453A6.134,6.134,0,0,0,27.3-6.4a1.654,1.654,0,0,0-1.68.867V0H23.367V-8.453H25.5l.063,1.008a2.092,2.092,0,0,1,1.883-1.164,2.366,2.366,0,0,1,.7.1ZM32.41-1.664a1.481,1.481,0,0,0,1.016-.344,1.2,1.2,0,0,0,.406-.914h2.117a2.9,2.9,0,0,1-.469,1.574A3.093,3.093,0,0,1,34.219-.238a3.949,3.949,0,0,1-1.77.395A3.67,3.67,0,0,1,29.59-1,4.56,4.56,0,0,1,28.543-4.18v-.148a4.508,4.508,0,0,1,1.039-3.117,3.627,3.627,0,0,1,2.852-1.164,3.555,3.555,0,0,1,2.543.9,3.2,3.2,0,0,1,.973,2.4H33.832a1.551,1.551,0,0,0-.406-1.072,1.354,1.354,0,0,0-1.031-.412,1.36,1.36,0,0,0-1.191.575,3.333,3.333,0,0,0-.4,1.866v.235a3.375,3.375,0,0,0,.4,1.878A1.377,1.377,0,0,0,32.41-1.664ZM42.137,0a2.507,2.507,0,0,1-.227-.758,2.732,2.732,0,0,1-2.133.914,3,3,0,0,1-2.059-.719A2.312,2.312,0,0,1,36.9-2.375a2.389,2.389,0,0,1,1-2.062,4.915,4.915,0,0,1,2.879-.727h1.039v-.484a1.393,1.393,0,0,0-.3-.937,1.183,1.183,0,0,0-.949-.352,1.345,1.345,0,0,0-.895.273.929.929,0,0,0-.324.75H37.09a2.268,2.268,0,0,1,.453-1.359,3,3,0,0,1,1.281-.98,4.669,4.669,0,0,1,1.859-.355,3.689,3.689,0,0,1,2.48.785,2.747,2.747,0,0,1,.918,2.207v3.664a4.041,4.041,0,0,0,.336,1.82V0ZM40.27-1.57a1.945,1.945,0,0,0,.922-.223,1.462,1.462,0,0,0,.625-.6V-3.844h-.844q-1.7,0-1.8,1.172l-.008.133a.9.9,0,0,0,.3.7A1.153,1.153,0,0,0,40.27-1.57Zm5.2-2.719a5.094,5.094,0,0,1,.887-3.148,2.877,2.877,0,0,1,2.426-1.172,2.589,2.589,0,0,1,2.039.922V-12h2.266V0H51.043l-.109-.9A2.657,2.657,0,0,1,48.762.156,2.869,2.869,0,0,1,46.367-1.02,5.258,5.258,0,0,1,45.465-4.289Zm2.258.168A3.337,3.337,0,0,0,48.137-2.3a1.349,1.349,0,0,0,1.2.634,1.511,1.511,0,0,0,1.477-.884V-5.889a1.489,1.489,0,0,0-1.461-.884Q47.723-6.773,47.723-4.121Zm11,4.277A4.15,4.15,0,0,1,55.7-.984a4.054,4.054,0,0,1-1.168-3.039v-.219A5.106,5.106,0,0,1,55.02-6.52a3.612,3.612,0,0,1,1.395-1.547,3.914,3.914,0,0,1,2.059-.543A3.508,3.508,0,0,1,61.2-7.516a4.444,4.444,0,0,1,1,3.1v.922H56.817a2.1,2.1,0,0,0,.66,1.328,2,2,0,0,0,1.395.5,2.437,2.437,0,0,0,2.039-.945L62.02-1.367A3.389,3.389,0,0,1,60.645-.246,4.511,4.511,0,0,1,58.723.156Zm-.258-6.945a1.411,1.411,0,0,0-1.09.455,2.357,2.357,0,0,0-.535,1.3h3.141v-.181a1.681,1.681,0,0,0-.406-1.165A1.456,1.456,0,0,0,58.465-6.789ZM63.129-4.3a5.013,5.013,0,0,1,.484-2.242A3.546,3.546,0,0,1,65.008-8.07a4.069,4.069,0,0,1,2.113-.539,3.849,3.849,0,0,1,2.793,1.047,4.2,4.2,0,0,1,1.207,2.844l.016.578A4.418,4.418,0,0,1,70.051-1.02,3.775,3.775,0,0,1,67.137.156a3.793,3.793,0,0,1-2.918-1.172A4.5,4.5,0,0,1,63.129-4.2Zm2.258.16A3.16,3.16,0,0,0,65.84-2.3a1.5,1.5,0,0,0,1.3.638,1.5,1.5,0,0,0,1.281-.63,3.457,3.457,0,0,0,.461-2.015,3.128,3.128,0,0,0-.461-1.831,1.5,1.5,0,0,0-1.3-.649,1.474,1.474,0,0,0-1.281.646A3.516,3.516,0,0,0,65.387-4.144Z" transform="translate(12390.615 -9639.689)"/>
    <path id="Trazado_874746" data-name="Trazado 874746" d="M7.859-4.93h-4.5v3.047H8.641V0H1.016V-11.375H8.625v1.9H3.359v2.711h4.5Zm6.586,2.594a.727.727,0,0,0-.41-.652,4.659,4.659,0,0,0-1.316-.426Q9.7-4.047,9.7-5.977a2.323,2.323,0,0,1,.934-1.879,3.766,3.766,0,0,1,2.441-.754,4.053,4.053,0,0,1,2.574.758,2.388,2.388,0,0,1,.965,1.969H14.359a1.092,1.092,0,0,0-.312-.8A1.322,1.322,0,0,0,13.07-7a1.351,1.351,0,0,0-.883.258.814.814,0,0,0-.312.656.7.7,0,0,0,.355.605,3.657,3.657,0,0,0,1.2.4,9.8,9.8,0,0,1,1.422.379A2.336,2.336,0,0,1,16.641-2.43a2.2,2.2,0,0,1-.992,1.871,4.28,4.28,0,0,1-2.562.715A4.47,4.47,0,0,1,11.2-.223,3.166,3.166,0,0,1,9.906-1.262a2.414,2.414,0,0,1-.469-1.426h2.141a1.179,1.179,0,0,0,.445.922,1.766,1.766,0,0,0,1.109.32,1.635,1.635,0,0,0,.98-.246A.766.766,0,0,0,14.445-2.336Zm6.352-8.2v2.078h1.445V-6.8H20.8v4.219a1.007,1.007,0,0,0,.18.672.9.9,0,0,0,.688.2,3.6,3.6,0,0,0,.664-.055V-.047a4.648,4.648,0,0,1-1.367.2,2.156,2.156,0,0,1-2.422-2.4V-6.8H17.3V-8.453h1.234v-2.078Zm7.453,4.2a6.134,6.134,0,0,0-.812-.062,1.654,1.654,0,0,0-1.68.867V0H23.5V-8.453h2.133L25.7-7.445a2.092,2.092,0,0,1,1.883-1.164,2.366,2.366,0,0,1,.7.1ZM33.76,0a2.507,2.507,0,0,1-.227-.758A2.732,2.732,0,0,1,31.4.156a3,3,0,0,1-2.059-.719,2.312,2.312,0,0,1-.816-1.812,2.389,2.389,0,0,1,1-2.062A4.915,4.915,0,0,1,32.4-5.164H33.44v-.484a1.393,1.393,0,0,0-.3-.937,1.183,1.183,0,0,0-.949-.352,1.345,1.345,0,0,0-.895.273.929.929,0,0,0-.324.75H28.713a2.268,2.268,0,0,1,.453-1.359,3,3,0,0,1,1.281-.98,4.669,4.669,0,0,1,1.859-.355,3.689,3.689,0,0,1,2.48.785,2.747,2.747,0,0,1,.918,2.207v3.664a4.041,4.041,0,0,0,.336,1.82V0ZM31.893-1.57a1.945,1.945,0,0,0,.922-.223,1.462,1.462,0,0,0,.625-.6V-3.844H32.6q-1.7,0-1.8,1.172l-.008.133a.9.9,0,0,0,.3.7A1.153,1.153,0,0,0,31.893-1.57Zm8.25-8.961v2.078h1.445V-6.8H40.143v4.219a1.007,1.007,0,0,0,.18.672.9.9,0,0,0,.688.2,3.6,3.6,0,0,0,.664-.055V-.047a4.648,4.648,0,0,1-1.367.2,2.156,2.156,0,0,1-2.422-2.4V-6.8H36.651V-8.453h1.234v-2.078ZM46.737.156A4.15,4.15,0,0,1,43.709-.984a4.054,4.054,0,0,1-1.168-3.039v-.219a5.106,5.106,0,0,1,.492-2.277,3.612,3.612,0,0,1,1.395-1.547,3.914,3.914,0,0,1,2.059-.543,3.508,3.508,0,0,1,2.73,1.094,4.444,4.444,0,0,1,1,3.1v.922H44.83a2.1,2.1,0,0,0,.66,1.328,2,2,0,0,0,1.395.5,2.437,2.437,0,0,0,2.039-.945l1.109,1.242A3.389,3.389,0,0,1,48.658-.246,4.511,4.511,0,0,1,46.737.156Zm-.258-6.945a1.411,1.411,0,0,0-1.09.455,2.357,2.357,0,0,0-.535,1.3h3.141v-.181a1.681,1.681,0,0,0-.406-1.165A1.456,1.456,0,0,0,46.479-6.789Zm4.688,2.5a4.954,4.954,0,0,1,.926-3.133,3,3,0,0,1,2.5-1.187,2.631,2.631,0,0,1,2.164.953l.094-.8h2.047V-.281a3.613,3.613,0,0,1-.5,1.93A3.236,3.236,0,0,1,56.971,2.9a4.985,4.985,0,0,1-2.141.43,4.635,4.635,0,0,1-1.812-.371A3.217,3.217,0,0,1,51.682,2l1-1.375a2.645,2.645,0,0,0,2.047.945,1.936,1.936,0,0,0,1.4-.48,1.8,1.8,0,0,0,.5-1.363V-.727a2.612,2.612,0,0,1-2.055.883,2.992,2.992,0,0,1-2.465-1.191,4.953,4.953,0,0,1-.941-3.16Zm2.258.168a3.085,3.085,0,0,0,.461,1.8,1.466,1.466,0,0,0,1.266.653,1.568,1.568,0,0,0,1.477-.775V-6a1.564,1.564,0,0,0-1.461-.775,1.476,1.476,0,0,0-1.277.665A3.477,3.477,0,0,0,53.424-4.121ZM63.01,0H60.744V-8.453H63.01Zm-2.4-10.641a1.112,1.112,0,0,1,.34-.836,1.277,1.277,0,0,1,.926-.328,1.28,1.28,0,0,1,.922.328,1.105,1.105,0,0,1,.344.836A1.108,1.108,0,0,1,62.8-9.8a1.283,1.283,0,0,1-.918.328,1.283,1.283,0,0,1-.918-.328A1.108,1.108,0,0,1,60.612-10.641ZM69.768,0a2.507,2.507,0,0,1-.227-.758,2.732,2.732,0,0,1-2.133.914A3,3,0,0,1,65.35-.562a2.312,2.312,0,0,1-.816-1.812,2.389,2.389,0,0,1,1-2.062,4.915,4.915,0,0,1,2.879-.727h1.039v-.484a1.393,1.393,0,0,0-.3-.937,1.183,1.183,0,0,0-.949-.352,1.345,1.345,0,0,0-.895.273.929.929,0,0,0-.324.75H64.721a2.268,2.268,0,0,1,.453-1.359,3,3,0,0,1,1.281-.98,4.669,4.669,0,0,1,1.859-.355,3.689,3.689,0,0,1,2.48.785,2.747,2.747,0,0,1,.918,2.207v3.664a4.041,4.041,0,0,0,.336,1.82V0ZM67.9-1.57a1.945,1.945,0,0,0,.922-.223,1.462,1.462,0,0,0,.625-.6V-3.844H68.6q-1.7,0-1.8,1.172l-.008.133a.9.9,0,0,0,.3.7A1.153,1.153,0,0,0,67.9-1.57Zm10.125-.766a.727.727,0,0,0-.41-.652A4.659,4.659,0,0,0,76.3-3.414q-3.016-.633-3.016-2.562a2.323,2.323,0,0,1,.934-1.879,3.766,3.766,0,0,1,2.441-.754,4.053,4.053,0,0,1,2.574.758A2.388,2.388,0,0,1,80.2-5.883H77.94a1.092,1.092,0,0,0-.312-.8A1.322,1.322,0,0,0,76.651-7a1.351,1.351,0,0,0-.883.258.814.814,0,0,0-.312.656.7.7,0,0,0,.355.605,3.657,3.657,0,0,0,1.2.4,9.8,9.8,0,0,1,1.422.379A2.336,2.336,0,0,1,80.221-2.43a2.2,2.2,0,0,1-.992,1.871,4.28,4.28,0,0,1-2.562.715A4.47,4.47,0,0,1,74.78-.223a3.166,3.166,0,0,1-1.293-1.039,2.414,2.414,0,0,1-.469-1.426h2.141a1.179,1.179,0,0,0,.445.922,1.766,1.766,0,0,0,1.109.32,1.635,1.635,0,0,0,.98-.246A.766.766,0,0,0,78.026-2.336Z" transform="translate(12381.672 -10367.307)"/>
    <rect id="Rectángulo_401189" data-name="Rectángulo 401189" width="338.327" height="745.646" transform="translate(12254.869 -10381)" fill="none"/>
    <path id="Trazado_874745" data-name="Trazado 874745" d="M.516-4.289A5.094,5.094,0,0,1,1.4-7.437,2.877,2.877,0,0,1,3.828-8.609a2.589,2.589,0,0,1,2.039.922V-12H8.133V0H6.094L5.984-.9A2.657,2.657,0,0,1,3.813.156,2.869,2.869,0,0,1,1.418-1.02,5.258,5.258,0,0,1,.516-4.289Zm2.258.168A3.337,3.337,0,0,0,3.188-2.3a1.349,1.349,0,0,0,1.2.634,1.511,1.511,0,0,0,1.477-.884V-5.889a1.489,1.489,0,0,0-1.461-.884Q2.773-6.773,2.773-4.121Zm11,4.277A4.15,4.15,0,0,1,10.746-.984,4.054,4.054,0,0,1,9.578-4.023v-.219A5.106,5.106,0,0,1,10.07-6.52a3.612,3.612,0,0,1,1.395-1.547,3.914,3.914,0,0,1,2.059-.543,3.508,3.508,0,0,1,2.73,1.094,4.444,4.444,0,0,1,1,3.1v.922H11.867a2.1,2.1,0,0,0,.66,1.328,2,2,0,0,0,1.395.5,2.437,2.437,0,0,0,2.039-.945L17.07-1.367A3.389,3.389,0,0,1,15.7-.246,4.511,4.511,0,0,1,13.773.156Zm-.258-6.945a1.411,1.411,0,0,0-1.09.455,2.357,2.357,0,0,0-.535,1.3h3.141v-.181a1.681,1.681,0,0,0-.406-1.165A1.456,1.456,0,0,0,13.516-6.789ZM24.633-8.453l.07.945a2.971,2.971,0,0,1,2.43-1.1A2.255,2.255,0,0,1,29.375-7.32a2.9,2.9,0,0,1,2.539-1.289,2.521,2.521,0,0,1,2.047.8,3.681,3.681,0,0,1,.672,2.41V0H32.367V-5.391a1.61,1.61,0,0,0-.281-1.051,1.246,1.246,0,0,0-.992-.332,1.409,1.409,0,0,0-1.406.969L29.7,0H27.438V-5.383a1.59,1.59,0,0,0-.289-1.062,1.259,1.259,0,0,0-.984-.328,1.463,1.463,0,0,0-1.391.8V0H22.516V-8.453ZM40.258.156A4.15,4.15,0,0,1,37.23-.984a4.054,4.054,0,0,1-1.168-3.039v-.219a5.106,5.106,0,0,1,.492-2.277,3.612,3.612,0,0,1,1.395-1.547,3.914,3.914,0,0,1,2.059-.543,3.508,3.508,0,0,1,2.73,1.094,4.444,4.444,0,0,1,1,3.1v.922H38.352a2.1,2.1,0,0,0,.66,1.328,2,2,0,0,0,1.395.5,2.437,2.437,0,0,0,2.039-.945l1.109,1.242A3.389,3.389,0,0,1,42.18-.246,4.511,4.511,0,0,1,40.258.156ZM40-6.789a1.411,1.411,0,0,0-1.09.455,2.357,2.357,0,0,0-.535,1.3h3.141v-.181a1.681,1.681,0,0,0-.406-1.165A1.456,1.456,0,0,0,40-6.789Zm9.766.453a6.134,6.134,0,0,0-.812-.062,1.654,1.654,0,0,0-1.68.867V0H45.016V-8.453h2.133l.063,1.008a2.092,2.092,0,0,1,1.883-1.164,2.366,2.366,0,0,1,.7.1Zm4.293,4.672a1.481,1.481,0,0,0,1.016-.344,1.2,1.2,0,0,0,.406-.914H57.6a2.9,2.9,0,0,1-.469,1.574A3.093,3.093,0,0,1,55.867-.238,3.949,3.949,0,0,1,54.1.156,3.67,3.67,0,0,1,51.238-1,4.56,4.56,0,0,1,50.192-4.18v-.148a4.508,4.508,0,0,1,1.039-3.117,3.627,3.627,0,0,1,2.852-1.164,3.555,3.555,0,0,1,2.543.9A3.2,3.2,0,0,1,57.6-5.3H55.481a1.551,1.551,0,0,0-.406-1.072,1.354,1.354,0,0,0-1.031-.412,1.36,1.36,0,0,0-1.191.575,3.333,3.333,0,0,0-.4,1.866v.235a3.375,3.375,0,0,0,.4,1.878A1.377,1.377,0,0,0,54.059-1.664ZM63.785,0a2.507,2.507,0,0,1-.227-.758,2.732,2.732,0,0,1-2.133.914,3,3,0,0,1-2.059-.719,2.312,2.312,0,0,1-.816-1.812,2.389,2.389,0,0,1,1-2.062,4.915,4.915,0,0,1,2.879-.727h1.039v-.484a1.393,1.393,0,0,0-.3-.937,1.183,1.183,0,0,0-.949-.352,1.345,1.345,0,0,0-.895.273.929.929,0,0,0-.324.75H58.738a2.268,2.268,0,0,1,.453-1.359,3,3,0,0,1,1.281-.98,4.669,4.669,0,0,1,1.859-.355,3.689,3.689,0,0,1,2.48.785,2.747,2.747,0,0,1,.918,2.207v3.664a4.041,4.041,0,0,0,.336,1.82V0ZM61.918-1.57a1.945,1.945,0,0,0,.922-.223,1.462,1.462,0,0,0,.625-.6V-3.844h-.844q-1.7,0-1.8,1.172l-.008.133a.9.9,0,0,0,.3.7A1.153,1.153,0,0,0,61.918-1.57Zm5.2-2.719A5.094,5.094,0,0,1,68-7.437a2.877,2.877,0,0,1,2.426-1.172,2.589,2.589,0,0,1,2.039.922V-12h2.266V0H72.692l-.109-.9A2.657,2.657,0,0,1,70.41.156,2.869,2.869,0,0,1,68.016-1.02,5.258,5.258,0,0,1,67.113-4.289Zm2.258.168A3.337,3.337,0,0,0,69.785-2.3a1.349,1.349,0,0,0,1.2.634,1.511,1.511,0,0,0,1.477-.884V-5.889A1.489,1.489,0,0,0,71-6.773Q69.371-6.773,69.371-4.121Zm11,4.277A4.15,4.15,0,0,1,77.344-.984a4.054,4.054,0,0,1-1.168-3.039v-.219a5.106,5.106,0,0,1,.492-2.277,3.612,3.612,0,0,1,1.395-1.547,3.914,3.914,0,0,1,2.059-.543,3.508,3.508,0,0,1,2.73,1.094,4.444,4.444,0,0,1,1,3.1v.922H78.465a2.1,2.1,0,0,0,.66,1.328,2,2,0,0,0,1.395.5,2.437,2.437,0,0,0,2.039-.945l1.109,1.242A3.389,3.389,0,0,1,82.293-.246,4.511,4.511,0,0,1,80.371.156Zm-.258-6.945a1.411,1.411,0,0,0-1.09.455,2.357,2.357,0,0,0-.535,1.3h3.141v-.181a1.681,1.681,0,0,0-.406-1.165A1.456,1.456,0,0,0,80.113-6.789ZM84.777-4.3a5.013,5.013,0,0,1,.484-2.242A3.546,3.546,0,0,1,86.656-8.07a4.069,4.069,0,0,1,2.113-.539,3.849,3.849,0,0,1,2.793,1.047A4.2,4.2,0,0,1,92.77-4.719l.016.578A4.418,4.418,0,0,1,91.7-1.02,3.775,3.775,0,0,1,88.785.156a3.793,3.793,0,0,1-2.918-1.172A4.5,4.5,0,0,1,84.777-4.2Zm2.258.16A3.16,3.16,0,0,0,87.488-2.3a1.5,1.5,0,0,0,1.3.638,1.5,1.5,0,0,0,1.281-.63,3.457,3.457,0,0,0,.461-2.015,3.128,3.128,0,0,0-.461-1.831,1.5,1.5,0,0,0-1.3-.649,1.474,1.474,0,0,0-1.281.646A3.516,3.516,0,0,0,87.035-4.144Z" transform="translate(12375.467 -10348.111)"/>
    <path id="Trazado_874744" data-name="Trazado 874744" d="M.516-4.289A5.094,5.094,0,0,1,1.4-7.437,2.877,2.877,0,0,1,3.828-8.609a2.589,2.589,0,0,1,2.039.922V-12H8.133V0H6.094L5.984-.9A2.657,2.657,0,0,1,3.813.156,2.869,2.869,0,0,1,1.418-1.02,5.258,5.258,0,0,1,.516-4.289Zm2.258.168A3.337,3.337,0,0,0,3.188-2.3a1.349,1.349,0,0,0,1.2.634,1.511,1.511,0,0,0,1.477-.884V-5.889a1.489,1.489,0,0,0-1.461-.884Q2.773-6.773,2.773-4.121Zm11,4.277A4.15,4.15,0,0,1,10.746-.984,4.054,4.054,0,0,1,9.578-4.023v-.219A5.106,5.106,0,0,1,10.07-6.52a3.612,3.612,0,0,1,1.395-1.547,3.914,3.914,0,0,1,2.059-.543,3.508,3.508,0,0,1,2.73,1.094,4.444,4.444,0,0,1,1,3.1v.922H11.867a2.1,2.1,0,0,0,.66,1.328,2,2,0,0,0,1.395.5,2.437,2.437,0,0,0,2.039-.945L17.07-1.367A3.389,3.389,0,0,1,15.7-.246,4.511,4.511,0,0,1,13.773.156Zm-.258-6.945a1.411,1.411,0,0,0-1.09.455,2.357,2.357,0,0,0-.535,1.3h3.141v-.181a1.681,1.681,0,0,0-.406-1.165A1.456,1.456,0,0,0,13.516-6.789ZM19.078,0V-6.8H17.82V-8.453h1.258v-.391a3.17,3.17,0,0,1,.98-2.457,3.945,3.945,0,0,1,2.723-.863,9.031,9.031,0,0,1,2.563.461l-.328,1.867a10,10,0,0,0-1.187-.293,5.835,5.835,0,0,0-.906-.066q-1.578,0-1.578,1.4v.344h1.664V-6.8H21.344V0ZM26.4,0H24.133V-8.453H26.4Zm3.945-8.453.07.977a2.951,2.951,0,0,1,2.43-1.133,2.453,2.453,0,0,1,2,.789,3.682,3.682,0,0,1,.672,2.359V0H33.258V-5.406a1.465,1.465,0,0,0-.312-1.043,1.4,1.4,0,0,0-1.039-.324,1.553,1.553,0,0,0-1.43.813V0H28.219V-8.453ZM39.609,0H37.344V-8.453h2.266Zm-2.4-10.641a1.112,1.112,0,0,1,.34-.836,1.277,1.277,0,0,1,.926-.328,1.28,1.28,0,0,1,.922.328,1.105,1.105,0,0,1,.344.836,1.108,1.108,0,0,1-.348.844,1.283,1.283,0,0,1-.918.328,1.283,1.283,0,0,1-.918-.328A1.108,1.108,0,0,1,37.211-10.641Zm3.906,6.352A5.094,5.094,0,0,1,42-7.437,2.877,2.877,0,0,1,44.43-8.609a2.589,2.589,0,0,1,2.039.922V-12h2.266V0H46.7l-.109-.9A2.657,2.657,0,0,1,44.414.156,2.869,2.869,0,0,1,42.02-1.02,5.258,5.258,0,0,1,41.117-4.289Zm2.258.168A3.337,3.337,0,0,0,43.789-2.3a1.349,1.349,0,0,0,1.2.634,1.511,1.511,0,0,0,1.477-.884V-5.889a1.489,1.489,0,0,0-1.461-.884Q43.375-6.773,43.375-4.121ZM55.383,0a2.507,2.507,0,0,1-.227-.758,2.732,2.732,0,0,1-2.133.914,3,3,0,0,1-2.059-.719,2.312,2.312,0,0,1-.816-1.812,2.389,2.389,0,0,1,1-2.062,4.915,4.915,0,0,1,2.879-.727h1.039v-.484a1.393,1.393,0,0,0-.3-.937,1.183,1.183,0,0,0-.949-.352,1.345,1.345,0,0,0-.895.273.929.929,0,0,0-.324.75H50.336a2.268,2.268,0,0,1,.453-1.359,3,3,0,0,1,1.281-.98,4.669,4.669,0,0,1,1.859-.355,3.689,3.689,0,0,1,2.48.785,2.747,2.747,0,0,1,.918,2.207v3.664a4.041,4.041,0,0,0,.336,1.82V0ZM53.516-1.57a1.945,1.945,0,0,0,.922-.223,1.462,1.462,0,0,0,.625-.6V-3.844h-.844q-1.7,0-1.8,1.172l-.008.133a.9.9,0,0,0,.3.7A1.153,1.153,0,0,0,53.516-1.57Zm10.125-.766a.727.727,0,0,0-.41-.652,4.659,4.659,0,0,0-1.316-.426Q58.9-4.047,58.9-5.977a2.323,2.323,0,0,1,.934-1.879,3.766,3.766,0,0,1,2.441-.754,4.053,4.053,0,0,1,2.574.758,2.388,2.388,0,0,1,.965,1.969H63.555a1.092,1.092,0,0,0-.312-.8A1.322,1.322,0,0,0,62.266-7a1.351,1.351,0,0,0-.883.258.814.814,0,0,0-.312.656.7.7,0,0,0,.355.605,3.657,3.657,0,0,0,1.2.4,9.8,9.8,0,0,1,1.422.379A2.336,2.336,0,0,1,65.836-2.43a2.2,2.2,0,0,1-.992,1.871,4.28,4.28,0,0,1-2.562.715,4.47,4.47,0,0,1-1.887-.379A3.166,3.166,0,0,1,59.1-1.262a2.414,2.414,0,0,1-.469-1.426h2.141a1.179,1.179,0,0,0,.445.922,1.766,1.766,0,0,0,1.109.32,1.635,1.635,0,0,0,.98-.246A.766.766,0,0,0,63.641-2.336Z" transform="translate(12388.875 -10328.912)"/>
    <rect id="Rectángulo_401190" data-name="Rectángulo 401190" width="338" height="40" rx="13" transform="translate(12255 -10444)" fill="#fff"/>
    <path id="Trazado_874747" data-name="Trazado 874747" d="M11.5,17H8.864V4.2H11.5Zm4.658-9.51.079,1.063a3.342,3.342,0,0,1,2.733-1.239,2.536,2.536,0,0,1,2.522,1.45,3.265,3.265,0,0,1,2.856-1.45,2.836,2.836,0,0,1,2.3.9,4.141,4.141,0,0,1,.756,2.711V17H24.86V10.936a1.811,1.811,0,0,0-.316-1.182,1.4,1.4,0,0,0-1.116-.374,1.585,1.585,0,0,0-1.582,1.09L21.854,17h-2.54V10.944a1.789,1.789,0,0,0-.325-1.2,1.416,1.416,0,0,0-1.107-.369,1.646,1.646,0,0,0-1.564.9V17h-2.54V7.49ZM37.92,12.333a5.7,5.7,0,0,1-1,3.52,3.2,3.2,0,0,1-2.694,1.323,2.963,2.963,0,0,1-2.329-1v4.482H29.36V7.49h2.355l.088.932a2.985,2.985,0,0,1,2.408-1.107,3.22,3.22,0,0,1,2.733,1.3A5.858,5.858,0,0,1,37.92,12.2Zm-2.54-.185a3.743,3.743,0,0,0-.47-2.048,1.532,1.532,0,0,0-1.367-.721,1.663,1.663,0,0,0-1.644.914v3.894a1.692,1.692,0,0,0,1.661.94Q35.38,15.128,35.38,12.148ZM42.174,17H39.625V3.5h2.549Zm6.469.176a4.668,4.668,0,0,1-3.406-1.283,4.561,4.561,0,0,1-1.314-3.419v-.246a5.745,5.745,0,0,1,.554-2.562,4.064,4.064,0,0,1,1.569-1.74,4.4,4.4,0,0,1,2.316-.611,3.947,3.947,0,0,1,3.072,1.23,5,5,0,0,1,1.121,3.489v1.037H46.5a2.36,2.36,0,0,0,.743,1.494,2.245,2.245,0,0,0,1.569.563A2.742,2.742,0,0,0,51.1,14.064l1.248,1.4a3.813,3.813,0,0,1-1.547,1.261A5.075,5.075,0,0,1,48.643,17.176Zm-.29-7.813a1.587,1.587,0,0,0-1.226.512,2.651,2.651,0,0,0-.6,1.466h3.533v-.2A1.891,1.891,0,0,0,49.6,9.826,1.638,1.638,0,0,0,48.353,9.362ZM56.377,7.49l.079,1.063A3.342,3.342,0,0,1,59.19,7.314a2.536,2.536,0,0,1,2.522,1.45,3.265,3.265,0,0,1,2.856-1.45,2.836,2.836,0,0,1,2.3.9,4.141,4.141,0,0,1,.756,2.711V17H65.079V10.936a1.811,1.811,0,0,0-.316-1.182,1.4,1.4,0,0,0-1.116-.374,1.585,1.585,0,0,0-1.582,1.09L62.073,17h-2.54V10.944a1.789,1.789,0,0,0-.325-1.2A1.416,1.416,0,0,0,58.1,9.38a1.646,1.646,0,0,0-1.564.9V17H54V7.49Zm17.578,9.686a4.668,4.668,0,0,1-3.406-1.283,4.561,4.561,0,0,1-1.314-3.419v-.246a5.745,5.745,0,0,1,.554-2.562,4.064,4.064,0,0,1,1.569-1.74,4.4,4.4,0,0,1,2.316-.611,3.947,3.947,0,0,1,3.072,1.23,5,5,0,0,1,1.121,3.489v1.037H71.811a2.36,2.36,0,0,0,.743,1.494,2.245,2.245,0,0,0,1.569.563,2.742,2.742,0,0,0,2.294-1.063l1.248,1.4a3.813,3.813,0,0,1-1.547,1.261A5.075,5.075,0,0,1,73.956,17.176Zm-.29-7.813a1.587,1.587,0,0,0-1.226.512,2.651,2.651,0,0,0-.6,1.466h3.533v-.2a1.891,1.891,0,0,0-.457-1.311A1.638,1.638,0,0,0,73.666,9.362Zm7.98-1.872.079,1.1a3.32,3.32,0,0,1,2.733-1.274,2.759,2.759,0,0,1,2.25.888,4.142,4.142,0,0,1,.756,2.654V17h-2.54V10.918a1.648,1.648,0,0,0-.352-1.173A1.574,1.574,0,0,0,83.4,9.38a1.747,1.747,0,0,0-1.608.914V17h-2.54V7.49ZM92.43,5.152V7.49h1.626V9.354H92.43V14.1a1.133,1.133,0,0,0,.2.756,1.015,1.015,0,0,0,.773.229,4.051,4.051,0,0,0,.747-.062v1.925a5.229,5.229,0,0,1-1.538.229,2.425,2.425,0,0,1-2.725-2.7V9.354H88.5V7.49H89.89V5.152ZM100.982,17a2.821,2.821,0,0,1-.255-.853,3.073,3.073,0,0,1-2.4,1.028,3.376,3.376,0,0,1-2.316-.809,2.6,2.6,0,0,1-.918-2.039,2.687,2.687,0,0,1,1.121-2.32,5.529,5.529,0,0,1,3.239-.817h1.169v-.545a1.567,1.567,0,0,0-.338-1.055,1.331,1.331,0,0,0-1.068-.4,1.513,1.513,0,0,0-1.006.308,1.045,1.045,0,0,0-.365.844H95.3a2.551,2.551,0,0,1,.51-1.529,3.37,3.37,0,0,1,1.441-1.1,5.253,5.253,0,0,1,2.092-.4,4.15,4.15,0,0,1,2.791.883,3.09,3.09,0,0,1,1.033,2.483V14.8a4.546,4.546,0,0,0,.378,2.048V17Zm-2.1-1.767a2.188,2.188,0,0,0,1.037-.25,1.645,1.645,0,0,0,.7-.672V12.676h-.949q-1.907,0-2.03,1.318l-.009.149a1.017,1.017,0,0,0,.334.782A1.3,1.3,0,0,0,98.881,15.233Zm10.2-.105a1.666,1.666,0,0,0,1.143-.387,1.355,1.355,0,0,0,.457-1.028h2.382a3.258,3.258,0,0,1-.527,1.771,3.48,3.48,0,0,1-1.419,1.248,4.442,4.442,0,0,1-1.991.444,4.129,4.129,0,0,1-3.217-1.3,5.13,5.13,0,0,1-1.178-3.582v-.167A5.071,5.071,0,0,1,105.9,8.624a4.08,4.08,0,0,1,3.208-1.31,4,4,0,0,1,2.861,1.015,3.594,3.594,0,0,1,1.094,2.7h-2.382a1.745,1.745,0,0,0-.457-1.206,1.7,1.7,0,0,0-2.5.183,3.749,3.749,0,0,0-.453,2.1v.264a3.8,3.8,0,0,0,.448,2.113A1.549,1.549,0,0,0,109.077,15.128ZM117.189,17H114.64V7.49h2.549Zm-2.7-11.971a1.251,1.251,0,0,1,.382-.94,1.648,1.648,0,0,1,2.079,0,1.244,1.244,0,0,1,.387.94,1.247,1.247,0,0,1-.391.949,1.629,1.629,0,0,1-2.065,0A1.247,1.247,0,0,1,114.491,5.029Zm4.395,7.128a5.64,5.64,0,0,1,.545-2.522A3.989,3.989,0,0,1,121,7.921a4.577,4.577,0,0,1,2.377-.606,4.33,4.33,0,0,1,3.142,1.178,4.727,4.727,0,0,1,1.358,3.2l.018.65a4.97,4.97,0,0,1-1.222,3.511,4.735,4.735,0,0,1-6.561,0,5.058,5.058,0,0,1-1.226-3.586Zm2.54.18a3.555,3.555,0,0,0,.51,2.073,1.831,1.831,0,0,0,2.9.009,3.89,3.89,0,0,0,.519-2.267,3.519,3.519,0,0,0-.519-2.06,1.686,1.686,0,0,0-1.459-.731,1.658,1.658,0,0,0-1.441.726A3.955,3.955,0,0,0,121.425,12.338ZM123.877,3.5h2.769l-2.435,2.725h-2.065ZM131.8,7.49l.079,1.1a3.32,3.32,0,0,1,2.733-1.274,2.759,2.759,0,0,1,2.25.888,4.142,4.142,0,0,1,.756,2.654V17h-2.54V10.918a1.648,1.648,0,0,0-.352-1.173,1.574,1.574,0,0,0-1.169-.365,1.747,1.747,0,0,0-1.608.914V17h-2.54V7.49Zm11.83,4.685a5.731,5.731,0,0,1,1-3.542,3.237,3.237,0,0,1,2.729-1.318,2.913,2.913,0,0,1,2.294,1.037V3.5H152.2V17H149.9l-.123-1.011a2.989,2.989,0,0,1-2.443,1.187,3.228,3.228,0,0,1-2.694-1.323A5.916,5.916,0,0,1,143.626,12.175Zm2.54.189a3.754,3.754,0,0,0,.466,2.051,1.517,1.517,0,0,0,1.354.713,1.7,1.7,0,0,0,1.661-.995V10.375A1.675,1.675,0,0,0,148,9.38Q146.167,9.38,146.167,12.364Zm12.375,4.812a4.668,4.668,0,0,1-3.406-1.283,4.561,4.561,0,0,1-1.314-3.419v-.246a5.745,5.745,0,0,1,.554-2.562,4.064,4.064,0,0,1,1.569-1.74,4.4,4.4,0,0,1,2.316-.611,3.947,3.947,0,0,1,3.072,1.23,5,5,0,0,1,1.121,3.489v1.037H156.4a2.36,2.36,0,0,0,.743,1.494,2.245,2.245,0,0,0,1.569.563A2.742,2.742,0,0,0,161,14.064l1.248,1.4a3.813,3.813,0,0,1-1.547,1.261A5.075,5.075,0,0,1,158.542,17.176Zm-.29-7.813a1.587,1.587,0,0,0-1.226.512,2.651,2.651,0,0,0-.6,1.466h3.533v-.2a1.891,1.891,0,0,0-.457-1.311A1.638,1.638,0,0,0,158.251,9.362ZM166.575,17h-2.549V3.5h2.549Zm15.135-4.667a5.7,5.7,0,0,1-1,3.52,3.2,3.2,0,0,1-2.694,1.323,2.963,2.963,0,0,1-2.329-1v4.482h-2.54V7.49H175.5l.088.932A2.985,2.985,0,0,1,178,7.314a3.22,3.22,0,0,1,2.733,1.3,5.858,5.858,0,0,1,.976,3.586Zm-2.54-.185a3.743,3.743,0,0,0-.47-2.048,1.532,1.532,0,0,0-1.367-.721,1.663,1.663,0,0,0-1.644.914v3.894a1.692,1.692,0,0,0,1.661.94Q179.169,15.128,179.169,12.148ZM185.963,17h-2.549V3.5h2.549Zm7.6,0a2.821,2.821,0,0,1-.255-.853,3.073,3.073,0,0,1-2.4,1.028,3.376,3.376,0,0,1-2.316-.809,2.6,2.6,0,0,1-.918-2.039,2.687,2.687,0,0,1,1.121-2.32,5.529,5.529,0,0,1,3.239-.817h1.169v-.545a1.567,1.567,0,0,0-.338-1.055,1.331,1.331,0,0,0-1.068-.4,1.513,1.513,0,0,0-1.006.308,1.045,1.045,0,0,0-.365.844h-2.54a2.551,2.551,0,0,1,.51-1.529,3.37,3.37,0,0,1,1.441-1.1,5.253,5.253,0,0,1,2.092-.4,4.15,4.15,0,0,1,2.791.883,3.09,3.09,0,0,1,1.033,2.483V14.8a4.546,4.546,0,0,0,.378,2.048V17Zm-2.1-1.767a2.188,2.188,0,0,0,1.037-.25,1.645,1.645,0,0,0,.7-.672V12.676h-.949q-1.907,0-2.03,1.318l-.009.149a1.017,1.017,0,0,0,.334.782A1.3,1.3,0,0,0,191.465,15.233Zm8.578-7.743.079,1.1a3.32,3.32,0,0,1,2.733-1.274,2.759,2.759,0,0,1,2.25.888,4.142,4.142,0,0,1,.756,2.654V17h-2.54V10.918a1.648,1.648,0,0,0-.352-1.173A1.574,1.574,0,0,0,201.8,9.38a1.747,1.747,0,0,0-1.608.914V17h-2.54V7.49Zm11.83,4.685a5.731,5.731,0,0,1,1-3.542A3.237,3.237,0,0,1,215.6,7.314a2.913,2.913,0,0,1,2.294,1.037V3.5h2.549V17h-2.294l-.123-1.011a2.989,2.989,0,0,1-2.443,1.187,3.228,3.228,0,0,1-2.694-1.323A5.916,5.916,0,0,1,211.874,12.175Zm2.54.189a3.754,3.754,0,0,0,.466,2.051,1.517,1.517,0,0,0,1.354.713,1.7,1.7,0,0,0,1.661-.995V10.375a1.675,1.675,0,0,0-1.644-.995Q214.414,9.38,214.414,12.364Zm12.375,4.812a4.668,4.668,0,0,1-3.406-1.283,4.561,4.561,0,0,1-1.314-3.419v-.246a5.745,5.745,0,0,1,.554-2.562,4.064,4.064,0,0,1,1.569-1.74,4.4,4.4,0,0,1,2.316-.611,3.947,3.947,0,0,1,3.072,1.23,5,5,0,0,1,1.121,3.489v1.037h-6.056a2.36,2.36,0,0,0,.743,1.494,2.245,2.245,0,0,0,1.569.563,2.742,2.742,0,0,0,2.294-1.063l1.248,1.4a3.813,3.813,0,0,1-1.547,1.261A5.075,5.075,0,0,1,226.789,17.176Zm-.29-7.813a1.587,1.587,0,0,0-1.226.512,2.651,2.651,0,0,0-.6,1.466H228.2v-.2a1.891,1.891,0,0,0-.457-1.311A1.638,1.638,0,0,0,226.5,9.362ZM239.005,7.49l.079,1.063a3.342,3.342,0,0,1,2.733-1.239,2.536,2.536,0,0,1,2.522,1.45,3.265,3.265,0,0,1,2.856-1.45,2.836,2.836,0,0,1,2.3.9,4.141,4.141,0,0,1,.756,2.711V17h-2.549V10.936a1.811,1.811,0,0,0-.316-1.182,1.4,1.4,0,0,0-1.116-.374,1.585,1.585,0,0,0-1.582,1.09L244.7,17h-2.54V10.944a1.789,1.789,0,0,0-.325-1.2,1.416,1.416,0,0,0-1.107-.369,1.646,1.646,0,0,0-1.564.9V17h-2.54V7.49Zm17.578,9.686a4.668,4.668,0,0,1-3.406-1.283,4.561,4.561,0,0,1-1.314-3.419v-.246a5.745,5.745,0,0,1,.554-2.562,4.064,4.064,0,0,1,1.569-1.74,4.4,4.4,0,0,1,2.316-.611,3.947,3.947,0,0,1,3.072,1.23,5,5,0,0,1,1.121,3.489v1.037h-6.056a2.36,2.36,0,0,0,.743,1.494,2.245,2.245,0,0,0,1.569.563,2.742,2.742,0,0,0,2.294-1.063l1.248,1.4a3.813,3.813,0,0,1-1.547,1.261A5.075,5.075,0,0,1,256.583,17.176Zm-.29-7.813a1.587,1.587,0,0,0-1.226.512,2.651,2.651,0,0,0-.6,1.466H258v-.2a1.891,1.891,0,0,0-.457-1.311A1.638,1.638,0,0,0,256.293,9.362Zm10.986.51a6.9,6.9,0,0,0-.914-.07,1.86,1.86,0,0,0-1.89.976V17h-2.54V7.49h2.4l.07,1.134a2.354,2.354,0,0,1,2.118-1.31,2.662,2.662,0,0,1,.791.114Zm5.01,5.256a1.666,1.666,0,0,0,1.143-.387,1.355,1.355,0,0,0,.457-1.028h2.382a3.258,3.258,0,0,1-.527,1.771,3.48,3.48,0,0,1-1.419,1.248,4.442,4.442,0,0,1-1.991.444,4.129,4.129,0,0,1-3.217-1.3,5.13,5.13,0,0,1-1.178-3.582v-.167a5.071,5.071,0,0,1,1.169-3.507,4.08,4.08,0,0,1,3.208-1.31,4,4,0,0,1,2.861,1.015,3.594,3.594,0,0,1,1.094,2.7h-2.382a1.745,1.745,0,0,0-.457-1.206,1.7,1.7,0,0,0-2.5.183,3.749,3.749,0,0,0-.453,2.1v.264a3.8,3.8,0,0,0,.448,2.113A1.549,1.549,0,0,0,272.29,15.128ZM283.232,17a2.821,2.821,0,0,1-.255-.853,3.073,3.073,0,0,1-2.4,1.028,3.376,3.376,0,0,1-2.316-.809,2.6,2.6,0,0,1-.918-2.039,2.687,2.687,0,0,1,1.121-2.32,5.529,5.529,0,0,1,3.239-.817h1.169v-.545a1.567,1.567,0,0,0-.338-1.055,1.331,1.331,0,0,0-1.068-.4,1.513,1.513,0,0,0-1.006.308,1.045,1.045,0,0,0-.365.844h-2.54a2.551,2.551,0,0,1,.51-1.529,3.37,3.37,0,0,1,1.441-1.1,5.253,5.253,0,0,1,2.092-.4,4.15,4.15,0,0,1,2.791.883,3.09,3.09,0,0,1,1.033,2.483V14.8a4.546,4.546,0,0,0,.378,2.048V17Zm-2.1-1.767a2.188,2.188,0,0,0,1.037-.25,1.645,1.645,0,0,0,.7-.672V12.676h-.949q-1.907,0-2.03,1.318l-.009.149a1.017,1.017,0,0,0,.334.782A1.3,1.3,0,0,0,281.131,15.233Zm5.845-3.059a5.731,5.731,0,0,1,1-3.542A3.237,3.237,0,0,1,290.7,7.314,2.913,2.913,0,0,1,293,8.352V3.5h2.549V17h-2.294l-.123-1.011a2.989,2.989,0,0,1-2.443,1.187,3.228,3.228,0,0,1-2.694-1.323A5.916,5.916,0,0,1,286.976,12.175Zm2.54.189a3.754,3.754,0,0,0,.466,2.051,1.517,1.517,0,0,0,1.354.713A1.7,1.7,0,0,0,293,14.133V10.375a1.675,1.675,0,0,0-1.644-.995Q289.516,9.38,289.516,12.364Zm12.375,4.812a4.668,4.668,0,0,1-3.406-1.283,4.561,4.561,0,0,1-1.314-3.419v-.246a5.745,5.745,0,0,1,.554-2.562,4.064,4.064,0,0,1,1.569-1.74,4.4,4.4,0,0,1,2.316-.611,3.947,3.947,0,0,1,3.072,1.23,5,5,0,0,1,1.121,3.489v1.037h-6.056a2.36,2.36,0,0,0,.743,1.494,2.245,2.245,0,0,0,1.569.563,2.742,2.742,0,0,0,2.294-1.063l1.248,1.4a3.813,3.813,0,0,1-1.547,1.261A5.075,5.075,0,0,1,301.891,17.176Zm-.29-7.813a1.587,1.587,0,0,0-1.226.512,2.651,2.651,0,0,0-.6,1.466h3.533v-.2a1.891,1.891,0,0,0-.457-1.311A1.638,1.638,0,0,0,301.6,9.362Zm5.247,2.795a5.64,5.64,0,0,1,.545-2.522,3.989,3.989,0,0,1,1.569-1.714,4.577,4.577,0,0,1,2.377-.606,4.33,4.33,0,0,1,3.142,1.178,4.727,4.727,0,0,1,1.358,3.2l.018.65a4.97,4.97,0,0,1-1.222,3.511,4.735,4.735,0,0,1-6.561,0,5.058,5.058,0,0,1-1.226-3.586Zm2.54.18a3.555,3.555,0,0,0,.51,2.073,1.831,1.831,0,0,0,2.9.009,3.89,3.89,0,0,0,.519-2.267,3.519,3.519,0,0,0-.519-2.06,1.686,1.686,0,0,0-1.459-.731,1.658,1.658,0,0,0-1.441.726A3.955,3.955,0,0,0,309.388,12.338Z" transform="translate(12262 -10434)" fill="#12263f"/>
  </g>
</svg>
