<svg xmlns="http://www.w3.org/2000/svg" width="109" height="109" viewBox="0 0 109 109">
  <g id="img21" transform="translate(-287.668 -4447.437)">
    <path id="Elipse_5845" data-name="Elipse 5845" d="M53.5,0A53.5,53.5,0,1,1,0,53.5,53.5,53.5,0,0,1,53.5,0Z" transform="translate(288.668 4448.437)" fill="#fff" stroke="#b9daff" stroke-width="2"/>
    <g id="Grupo_1100077" data-name="Grupo 1100077" transform="translate(310.668 4472.978)">
      <path id="Trazado_874186" data-name="Trazado 874186" d="M38.5,23a7.812,7.812,0,0,0-.079-1.1.929.929,0,0,1,.5-.935l.582-.321a.937.937,0,0,0,.367-1.312l-1.611-2.666a1.029,1.029,0,0,0-1.372-.352l-.588.325a1.068,1.068,0,0,1-1.145-.094A8.533,8.533,0,0,0,33.27,15.5a.987.987,0,0,1-.655-.9v-.64a.983.983,0,0,0-1-.96H28.389a.983.983,0,0,0-1,.96v.64a.987.987,0,0,1-.655.9,8.533,8.533,0,0,0-1.879,1.043,1.068,1.068,0,0,1-1.145.094l-.588-.325a1.029,1.029,0,0,0-1.372.352L20.139,19.33a.937.937,0,0,0,.367,1.312l.582.321a.929.929,0,0,1,.5.935,7.684,7.684,0,0,0,0,2.2.929.929,0,0,1-.5.935l-.582.321a.937.937,0,0,0-.367,1.312l1.611,2.666a1.029,1.029,0,0,0,1.372.352l.588-.325a1.068,1.068,0,0,1,1.145.094A8.533,8.533,0,0,0,26.73,30.5a.987.987,0,0,1,.655.9v.644a.983.983,0,0,0,1,.96h3.222a.983.983,0,0,0,1-.96V31.4a.987.987,0,0,1,.655-.9,8.533,8.533,0,0,0,1.879-1.043,1.068,1.068,0,0,1,1.145-.094l.588.325a1.029,1.029,0,0,0,1.372-.352l1.611-2.666a.937.937,0,0,0-.367-1.312l-.582-.321a.929.929,0,0,1-.495-.935A7.811,7.811,0,0,0,38.5,23Z" fill="#7083a6"/>
      <circle id="Elipse_11502" data-name="Elipse 11502" cx="4.5" cy="4.5" r="4.5" transform="translate(25.5 18.5)" fill="#e4ecf2"/>
      <circle id="Elipse_11503" data-name="Elipse 11503" cx="5" cy="5" r="5" transform="translate(53 1)" fill="#6f9fde"/>
      <circle id="Elipse_11504" data-name="Elipse 11504" cx="5" cy="5" r="5" transform="translate(1 32)" fill="#6f9fde"/>
      <circle id="Elipse_11505" data-name="Elipse 11505" cx="4" cy="4" r="4" transform="translate(51 29)" fill="#d9777b"/>
      <circle id="Elipse_11506" data-name="Elipse 11506" cx="4" cy="4" r="4" transform="translate(7 1)" fill="#d9777b"/>
      <g id="Grupo_1100076" data-name="Grupo 1100076">
        <path id="Trazado_874187" data-name="Trazado 874187" d="M11.469,30h8.062v2H11.469Z" transform="translate(-13.338 11.775) rotate(-29.745)" fill="#90aacc"/>
        <path id="Trazado_874188" data-name="Trazado 874188" d="M18.75,6.8h2V14.7h-2Z" transform="translate(-0.33 20.869) rotate(-55.308)" fill="#90aacc"/>
        <path id="Trazado_874189" data-name="Trazado 874189" d="M39.981,12.5H53.019v2H39.981Z" transform="translate(0.024 27.082) rotate(-32.467)" fill="#90aacc"/>
        <path id="Trazado_874190" data-name="Trazado 874190" d="M45,23.589h2v8.322H45Z" transform="matrix(0.541, -0.841, 0.841, 0.541, -2.218, 51.438)" fill="#90aacc"/>
      </g>
      <path id="Trazado_874191" data-name="Trazado 874191" d="M20.584,44.707a2.939,2.939,0,0,0,.716,1.926l6.031,7.991a8.581,8.581,0,0,0,2.675,1.85L30,63H41.007l.006-7.264a8.968,8.968,0,0,0,4.381-7.914l.022-10.412a2.2,2.2,0,0,0-4.4,0v-2.2a2.183,2.183,0,0,0-1.1-1.9,2.06,2.06,0,0,0-1.1-.3,2.218,2.218,0,0,0-2.2,2.2v-2.2a2.17,2.17,0,0,0-1.1-1.9,2.066,2.066,0,0,0-1.1-.3,2.2,2.2,0,0,0-2.2,2.19V24.2a2.185,2.185,0,0,0-1.1-1.9,2.064,2.064,0,0,0-1.1-.3,2.208,2.208,0,0,0-2.2,2.2V45.114L25.4,42.385a2.955,2.955,0,0,0-4.325.671,2.887,2.887,0,0,0-.5,1.651Z" fill="#ffc780"/>
      <path id="Trazado_874192" data-name="Trazado 874192" d="M44.293,46.721l.022-10.412a2.189,2.189,0,0,0-.2-.9,2.2,2.2,0,0,1,1.3,2l-.022,10.412a8.968,8.968,0,0,1-4.381,7.914L41.007,63h-1.1l.006-8.365a8.967,8.967,0,0,0,4.38-7.914Z" fill="#e6b374"/>
      <path id="Trazado_874193" data-name="Trazado 874193" d="M39.714,33.2a2.2,2.2,0,0,1,1.3,2v5.5h-1.1V34.1A2.188,2.188,0,0,0,39.714,33.2Z" fill="#e6b374"/>
      <path id="Trazado_874194" data-name="Trazado 874194" d="M35.308,31a2.2,2.2,0,0,1,1.3,2v7.705h-1.1v-8.8a2.176,2.176,0,0,0-.2-.906Z" fill="#e6b374"/>
      <path id="Trazado_874195" data-name="Trazado 874195" d="M30.906,22.2a2.2,2.2,0,0,1,1.3,2V40.711H31.1V23.1a2.188,2.188,0,0,0-.194-.9Z" fill="#e6b374"/>
    </g>
  </g>
</svg>
