<svg xmlns="http://www.w3.org/2000/svg" xmlns:xlink="http://www.w3.org/1999/xlink" width="250.06" height="526.937" viewBox="0 0 250.06 526.937">
  <defs>
    <clipPath id="clip-path">
      <path id="Trazado_194907" data-name="Trazado 194907" d="M0,139.241c0,47.447,39.179,85.908,87.511,85.908s87.511-38.461,87.511-85.908S135.841,53.333,87.511,53.333,0,91.8,0,139.241" transform="translate(0 -53.333)" fill="#8ce2e5"/>
    </clipPath>
    <clipPath id="clip-path-2">
      <path id="Trazado_194907-2" data-name="Trazado 194907" d="M0,95.647A42.315,42.315,0,1,0,42.315,53.333,42.315,42.315,0,0,0,0,95.647" transform="translate(0 -53.333)" fill="#7f4fc7"/>
    </clipPath>
    <clipPath id="clip-path-3">
      <rect id="Rectángulo_46351" data-name="Rectángulo 46351" width="115.414" height="119.42" fill="none"/>
    </clipPath>
    <clipPath id="clip-path-4">
      <rect id="Rectángulo_401136" data-name="Rectángulo 401136" width="153.094" height="513.44" fill="none"/>
    </clipPath>
  </defs>
  <g id="img23" transform="translate(-2.443 -22.364)">
    <g id="Grupo_155444" data-name="Grupo 155444" transform="translate(2.443 22.364)">
      <g id="Grupo_155253" data-name="Grupo 155253" transform="translate(4.281 190.754)">
        <path id="Trazado_196478" data-name="Trazado 196478" d="M319.689,149.033q-.327.339-.648.683a52.147,52.147,0,0,0-14.068,37.632l21.849-.761a30.63,30.63,0,1,1,61.222-2.141l21.849-.761a52.492,52.492,0,0,0-90.2-34.646" transform="translate(-304.936 -133.025)" fill="#85b6ec"/>
        <path id="Trazado_196479" data-name="Trazado 196479" d="M304.88,231.066A52.492,52.492,0,1,0,409.8,227.4l-21.85.761a30.629,30.629,0,0,1-61.221,2.141Z" transform="translate(-304.844 -176.744)" fill="#2a5f61"/>
      </g>
      <g id="Grupo_154313" data-name="Grupo 154313" transform="translate(75.038 342.593)">
        <g id="Grupo_152768" data-name="Grupo 152768" clip-path="url(#clip-path)">
          <path id="Trazado_194826" data-name="Trazado 194826" d="M4.605,55.593a2.284,2.284,0,0,0-2.3-2.26,2.262,2.262,0,1,0,0,4.522,2.284,2.284,0,0,0,2.3-2.263" transform="translate(0.001 -53.333)" fill="#8ce2e5"/>
          <path id="Trazado_194827" data-name="Trazado 194827" d="M12.879,55.589a2.3,2.3,0,1,0-2.3,2.263,2.3,2.3,0,0,0,2.3-2.263" transform="translate(13.028 -53.329)" fill="#8ce2e5"/>
          <path id="Trazado_194828" data-name="Trazado 194828" d="M21.152,55.589a2.3,2.3,0,1,0-2.3,2.263,2.3,2.3,0,0,0,2.3-2.263" transform="translate(26.059 -53.329)" fill="#8ce2e5"/>
          <path id="Trazado_194829" data-name="Trazado 194829" d="M29.425,55.589a2.3,2.3,0,1,0-2.3,2.263,2.3,2.3,0,0,0,2.3-2.263" transform="translate(39.088 -53.329)" fill="#8ce2e5"/>
          <path id="Trazado_194830" data-name="Trazado 194830" d="M37.7,55.589a2.3,2.3,0,1,0-2.3,2.263,2.3,2.3,0,0,0,2.3-2.263" transform="translate(52.116 -53.329)" fill="#8ce2e5"/>
          <path id="Trazado_194831" data-name="Trazado 194831" d="M45.966,55.589a2.3,2.3,0,1,0-2.3,2.263,2.3,2.3,0,0,0,2.3-2.263" transform="translate(65.146 -53.329)" fill="#8ce2e5"/>
          <path id="Trazado_194832" data-name="Trazado 194832" d="M54.242,55.589a2.3,2.3,0,1,0-2.3,2.263,2.3,2.3,0,0,0,2.3-2.263" transform="translate(78.175 -53.329)" fill="#8ce2e5"/>
          <path id="Trazado_194833" data-name="Trazado 194833" d="M62.515,55.589a2.3,2.3,0,1,0-2.3,2.263,2.3,2.3,0,0,0,2.3-2.263" transform="translate(91.204 -53.329)" fill="#8ce2e5"/>
          <path id="Trazado_194834" data-name="Trazado 194834" d="M70.788,55.589a2.3,2.3,0,1,0-2.3,2.262,2.3,2.3,0,0,0,2.3-2.262" transform="translate(104.234 -53.329)" fill="#8ce2e5"/>
          <path id="Trazado_194835" data-name="Trazado 194835" d="M4.609,63.866a2.284,2.284,0,0,0-2.3-2.26,2.26,2.26,0,0,0,0,4.52,2.284,2.284,0,0,0,2.3-2.26" transform="translate(-0.002 -40.693)" fill="#8ce2e5"/>
          <path id="Trazado_194836" data-name="Trazado 194836" d="M12.879,63.862a2.3,2.3,0,1,0-2.3,2.26,2.3,2.3,0,0,0,2.3-2.26" transform="translate(13.028 -40.689)" fill="#8ce2e5"/>
          <path id="Trazado_194837" data-name="Trazado 194837" d="M21.152,63.862a2.3,2.3,0,1,0-2.3,2.26,2.3,2.3,0,0,0,2.3-2.26" transform="translate(26.059 -40.689)" fill="#8ce2e5"/>
          <path id="Trazado_194838" data-name="Trazado 194838" d="M29.425,63.862a2.3,2.3,0,1,0-2.3,2.26,2.3,2.3,0,0,0,2.3-2.26" transform="translate(39.088 -40.689)" fill="#8ce2e5"/>
          <path id="Trazado_194839" data-name="Trazado 194839" d="M37.7,63.862a2.3,2.3,0,1,0-2.3,2.26,2.3,2.3,0,0,0,2.3-2.26" transform="translate(52.116 -40.689)" fill="#8ce2e5"/>
          <path id="Trazado_194840" data-name="Trazado 194840" d="M45.966,63.862a2.3,2.3,0,1,0-2.3,2.26,2.3,2.3,0,0,0,2.3-2.26" transform="translate(65.146 -40.689)" fill="#8ce2e5"/>
          <path id="Trazado_194841" data-name="Trazado 194841" d="M54.242,63.862a2.3,2.3,0,1,0-2.3,2.26,2.3,2.3,0,0,0,2.3-2.26" transform="translate(78.175 -40.689)" fill="#8ce2e5"/>
          <path id="Trazado_194842" data-name="Trazado 194842" d="M62.515,63.862a2.3,2.3,0,1,0-2.3,2.26,2.3,2.3,0,0,0,2.3-2.26" transform="translate(91.204 -40.689)" fill="#8ce2e5"/>
          <path id="Trazado_194843" data-name="Trazado 194843" d="M70.788,63.862a2.3,2.3,0,1,0-2.3,2.26,2.3,2.3,0,0,0,2.3-2.26" transform="translate(104.234 -40.689)" fill="#8ce2e5"/>
          <path id="Trazado_194844" data-name="Trazado 194844" d="M4.609,72.139a2.284,2.284,0,0,0-2.3-2.26,2.26,2.26,0,0,0,0,4.52,2.284,2.284,0,0,0,2.3-2.26" transform="translate(-0.002 -28.054)" fill="#8ce2e5"/>
          <path id="Trazado_194845" data-name="Trazado 194845" d="M12.879,72.135a2.3,2.3,0,1,0-2.3,2.26,2.3,2.3,0,0,0,2.3-2.26" transform="translate(13.028 -28.049)" fill="#8ce2e5"/>
          <path id="Trazado_194846" data-name="Trazado 194846" d="M21.152,72.135a2.3,2.3,0,1,0-2.3,2.26,2.3,2.3,0,0,0,2.3-2.26" transform="translate(26.059 -28.049)" fill="#8ce2e5"/>
          <path id="Trazado_194847" data-name="Trazado 194847" d="M29.425,72.135a2.3,2.3,0,1,0-2.3,2.26,2.3,2.3,0,0,0,2.3-2.26" transform="translate(39.088 -28.049)" fill="#8ce2e5"/>
          <path id="Trazado_194848" data-name="Trazado 194848" d="M37.7,72.135a2.3,2.3,0,1,0-2.3,2.26,2.3,2.3,0,0,0,2.3-2.26" transform="translate(52.116 -28.049)" fill="#8ce2e5"/>
          <path id="Trazado_194849" data-name="Trazado 194849" d="M45.966,72.135a2.3,2.3,0,1,0-2.3,2.26,2.3,2.3,0,0,0,2.3-2.26" transform="translate(65.146 -28.049)" fill="#8ce2e5"/>
          <path id="Trazado_194850" data-name="Trazado 194850" d="M54.242,72.135a2.3,2.3,0,1,0-2.3,2.26,2.3,2.3,0,0,0,2.3-2.26" transform="translate(78.175 -28.049)" fill="#8ce2e5"/>
          <path id="Trazado_194851" data-name="Trazado 194851" d="M62.515,72.135a2.3,2.3,0,1,0-2.3,2.26,2.3,2.3,0,0,0,2.3-2.26" transform="translate(91.204 -28.049)" fill="#8ce2e5"/>
          <path id="Trazado_194852" data-name="Trazado 194852" d="M70.788,72.135a2.3,2.3,0,1,0-2.3,2.26,2.3,2.3,0,0,0,2.3-2.26" transform="translate(104.234 -28.049)" fill="#8ce2e5"/>
          <path id="Trazado_194853" data-name="Trazado 194853" d="M4.609,80.411a2.284,2.284,0,0,0-2.3-2.26,2.26,2.26,0,0,0,0,4.52,2.284,2.284,0,0,0,2.3-2.26" transform="translate(-0.002 -15.416)" fill="#8ce2e5"/>
          <path id="Trazado_194854" data-name="Trazado 194854" d="M12.879,80.407a2.3,2.3,0,1,0-2.3,2.259,2.3,2.3,0,0,0,2.3-2.259" transform="translate(13.028 -15.411)" fill="#8ce2e5"/>
          <path id="Trazado_194855" data-name="Trazado 194855" d="M21.152,80.407a2.3,2.3,0,1,0-2.3,2.259,2.3,2.3,0,0,0,2.3-2.259" transform="translate(26.059 -15.411)" fill="#8ce2e5"/>
          <path id="Trazado_194856" data-name="Trazado 194856" d="M29.425,80.407a2.3,2.3,0,1,0-2.3,2.259,2.3,2.3,0,0,0,2.3-2.259" transform="translate(39.088 -15.411)" fill="#8ce2e5"/>
          <path id="Trazado_194857" data-name="Trazado 194857" d="M37.7,80.407a2.3,2.3,0,1,0-2.3,2.259,2.3,2.3,0,0,0,2.3-2.259" transform="translate(52.116 -15.411)" fill="#8ce2e5"/>
          <path id="Trazado_194858" data-name="Trazado 194858" d="M45.966,80.407a2.3,2.3,0,1,0-2.3,2.259,2.3,2.3,0,0,0,2.3-2.259" transform="translate(65.146 -15.411)" fill="#8ce2e5"/>
          <path id="Trazado_194859" data-name="Trazado 194859" d="M54.242,80.407a2.3,2.3,0,1,0-2.3,2.259,2.3,2.3,0,0,0,2.3-2.259" transform="translate(78.175 -15.411)" fill="#8ce2e5"/>
          <path id="Trazado_194860" data-name="Trazado 194860" d="M62.515,80.407a2.3,2.3,0,1,0-2.3,2.259,2.3,2.3,0,0,0,2.3-2.259" transform="translate(91.204 -15.411)" fill="#8ce2e5"/>
          <path id="Trazado_194861" data-name="Trazado 194861" d="M70.788,80.407a2.3,2.3,0,1,0-2.3,2.259,2.3,2.3,0,0,0,2.3-2.259" transform="translate(104.234 -15.411)" fill="#8ce2e5"/>
          <path id="Trazado_194862" data-name="Trazado 194862" d="M4.605,88.685a2.284,2.284,0,0,0-2.3-2.26,2.262,2.262,0,1,0,0,4.522,2.284,2.284,0,0,0,2.3-2.262" transform="translate(0.001 -2.776)" fill="#8ce2e5"/>
          <path id="Trazado_194863" data-name="Trazado 194863" d="M12.879,88.681a2.3,2.3,0,1,0-2.3,2.262,2.3,2.3,0,0,0,2.3-2.262" transform="translate(13.028 -2.771)" fill="#8ce2e5"/>
          <path id="Trazado_194864" data-name="Trazado 194864" d="M21.152,88.681a2.3,2.3,0,1,0-2.3,2.262,2.3,2.3,0,0,0,2.3-2.262" transform="translate(26.059 -2.771)" fill="#8ce2e5"/>
          <path id="Trazado_194865" data-name="Trazado 194865" d="M29.425,88.681a2.3,2.3,0,1,0-2.3,2.262,2.3,2.3,0,0,0,2.3-2.262" transform="translate(39.088 -2.771)" fill="#8ce2e5"/>
          <path id="Trazado_194866" data-name="Trazado 194866" d="M37.7,88.681a2.3,2.3,0,1,0-2.3,2.262,2.3,2.3,0,0,0,2.3-2.262" transform="translate(52.116 -2.771)" fill="#8ce2e5"/>
          <path id="Trazado_194867" data-name="Trazado 194867" d="M45.966,88.681a2.3,2.3,0,1,0-2.3,2.262,2.3,2.3,0,0,0,2.3-2.262" transform="translate(65.146 -2.771)" fill="#8ce2e5"/>
          <path id="Trazado_194868" data-name="Trazado 194868" d="M54.242,88.681a2.3,2.3,0,1,0-2.3,2.262,2.3,2.3,0,0,0,2.3-2.262" transform="translate(78.175 -2.771)" fill="#8ce2e5"/>
          <path id="Trazado_194869" data-name="Trazado 194869" d="M62.515,88.681a2.3,2.3,0,1,0-2.3,2.262,2.3,2.3,0,0,0,2.3-2.262" transform="translate(91.204 -2.771)" fill="#8ce2e5"/>
          <path id="Trazado_194870" data-name="Trazado 194870" d="M70.788,88.681a2.3,2.3,0,1,0-2.3,2.261,2.3,2.3,0,0,0,2.3-2.261" transform="translate(104.234 -2.771)" fill="#8ce2e5"/>
          <path id="Trazado_194871" data-name="Trazado 194871" d="M4.609,96.957a2.284,2.284,0,0,0-2.3-2.257,2.26,2.26,0,0,0,0,4.52,2.284,2.284,0,0,0,2.3-2.26" transform="translate(-0.002 9.864)" fill="#8ce2e5"/>
          <path id="Trazado_194872" data-name="Trazado 194872" d="M12.879,96.953a2.3,2.3,0,1,0-2.3,2.26,2.3,2.3,0,0,0,2.3-2.26" transform="translate(13.028 9.869)" fill="#8ce2e5"/>
          <path id="Trazado_194873" data-name="Trazado 194873" d="M21.152,96.953a2.3,2.3,0,1,0-2.3,2.26,2.3,2.3,0,0,0,2.3-2.26" transform="translate(26.059 9.869)" fill="#8ce2e5"/>
          <path id="Trazado_194874" data-name="Trazado 194874" d="M29.425,96.953a2.3,2.3,0,1,0-2.3,2.26,2.3,2.3,0,0,0,2.3-2.26" transform="translate(39.088 9.869)" fill="#8ce2e5"/>
          <path id="Trazado_194875" data-name="Trazado 194875" d="M37.7,96.953a2.3,2.3,0,1,0-2.3,2.26,2.3,2.3,0,0,0,2.3-2.26" transform="translate(52.116 9.869)" fill="#8ce2e5"/>
          <path id="Trazado_194876" data-name="Trazado 194876" d="M45.966,96.953a2.3,2.3,0,1,0-2.3,2.26,2.3,2.3,0,0,0,2.3-2.26" transform="translate(65.146 9.869)" fill="#8ce2e5"/>
          <path id="Trazado_194877" data-name="Trazado 194877" d="M54.242,96.953a2.3,2.3,0,1,0-2.3,2.26,2.3,2.3,0,0,0,2.3-2.26" transform="translate(78.175 9.869)" fill="#8ce2e5"/>
          <path id="Trazado_194878" data-name="Trazado 194878" d="M62.515,96.953a2.3,2.3,0,1,0-2.3,2.26,2.3,2.3,0,0,0,2.3-2.26" transform="translate(91.204 9.869)" fill="#8ce2e5"/>
          <path id="Trazado_194879" data-name="Trazado 194879" d="M70.788,96.953a2.3,2.3,0,1,0-2.3,2.26,2.3,2.3,0,0,0,2.3-2.26" transform="translate(104.234 9.869)" fill="#8ce2e5"/>
          <path id="Trazado_194880" data-name="Trazado 194880" d="M4.609,105.229a2.284,2.284,0,0,0-2.3-2.26,2.26,2.26,0,1,0,0,4.52,2.284,2.284,0,0,0,2.3-2.26" transform="translate(-0.002 22.503)" fill="#8ce2e5"/>
          <path id="Trazado_194881" data-name="Trazado 194881" d="M12.879,105.225a2.3,2.3,0,1,0-2.3,2.26,2.3,2.3,0,0,0,2.3-2.26" transform="translate(13.028 22.507)" fill="#8ce2e5"/>
          <path id="Trazado_194882" data-name="Trazado 194882" d="M21.152,105.225a2.3,2.3,0,1,0-2.3,2.26,2.3,2.3,0,0,0,2.3-2.26" transform="translate(26.059 22.507)" fill="#8ce2e5"/>
          <path id="Trazado_194883" data-name="Trazado 194883" d="M29.425,105.225a2.3,2.3,0,1,0-2.3,2.26,2.3,2.3,0,0,0,2.3-2.26" transform="translate(39.088 22.507)" fill="#8ce2e5"/>
          <path id="Trazado_194884" data-name="Trazado 194884" d="M37.7,105.225a2.3,2.3,0,1,0-2.3,2.26,2.3,2.3,0,0,0,2.3-2.26" transform="translate(52.116 22.507)" fill="#8ce2e5"/>
          <path id="Trazado_194885" data-name="Trazado 194885" d="M45.966,105.225a2.3,2.3,0,1,0-2.3,2.26,2.3,2.3,0,0,0,2.3-2.26" transform="translate(65.146 22.507)" fill="#8ce2e5"/>
          <path id="Trazado_194886" data-name="Trazado 194886" d="M54.242,105.225a2.3,2.3,0,1,0-2.3,2.26,2.3,2.3,0,0,0,2.3-2.26" transform="translate(78.175 22.507)" fill="#8ce2e5"/>
          <path id="Trazado_194887" data-name="Trazado 194887" d="M62.515,105.225a2.3,2.3,0,1,0-2.3,2.26,2.3,2.3,0,0,0,2.3-2.26" transform="translate(91.204 22.507)" fill="#8ce2e5"/>
          <path id="Trazado_194888" data-name="Trazado 194888" d="M70.788,105.225a2.3,2.3,0,1,0-2.3,2.26,2.3,2.3,0,0,0,2.3-2.26" transform="translate(104.234 22.507)" fill="#8ce2e5"/>
          <path id="Trazado_194889" data-name="Trazado 194889" d="M4.609,113.5a2.284,2.284,0,0,0-2.3-2.26,2.26,2.26,0,0,0,0,4.52,2.284,2.284,0,0,0,2.3-2.26" transform="translate(-0.002 35.142)" fill="#8ce2e5"/>
          <path id="Trazado_194890" data-name="Trazado 194890" d="M12.879,113.5a2.3,2.3,0,1,0-2.3,2.26,2.3,2.3,0,0,0,2.3-2.26" transform="translate(13.028 35.146)" fill="#8ce2e5"/>
          <path id="Trazado_194891" data-name="Trazado 194891" d="M21.152,113.5a2.3,2.3,0,1,0-2.3,2.26,2.3,2.3,0,0,0,2.3-2.26" transform="translate(26.059 35.146)" fill="#8ce2e5"/>
          <path id="Trazado_194892" data-name="Trazado 194892" d="M29.425,113.5a2.3,2.3,0,1,0-2.3,2.26,2.3,2.3,0,0,0,2.3-2.26" transform="translate(39.088 35.146)" fill="#8ce2e5"/>
          <path id="Trazado_194893" data-name="Trazado 194893" d="M37.7,113.5a2.3,2.3,0,1,0-2.3,2.26,2.3,2.3,0,0,0,2.3-2.26" transform="translate(52.116 35.146)" fill="#8ce2e5"/>
          <path id="Trazado_194894" data-name="Trazado 194894" d="M45.966,113.5a2.3,2.3,0,1,0-2.3,2.26,2.3,2.3,0,0,0,2.3-2.26" transform="translate(65.146 35.146)" fill="#8ce2e5"/>
          <path id="Trazado_194895" data-name="Trazado 194895" d="M54.242,113.5a2.3,2.3,0,1,0-2.3,2.26,2.3,2.3,0,0,0,2.3-2.26" transform="translate(78.175 35.146)" fill="#8ce2e5"/>
          <path id="Trazado_194896" data-name="Trazado 194896" d="M62.515,113.5a2.3,2.3,0,1,0-2.3,2.26,2.3,2.3,0,0,0,2.3-2.26" transform="translate(91.204 35.146)" fill="#8ce2e5"/>
          <path id="Trazado_194897" data-name="Trazado 194897" d="M70.788,113.5a2.3,2.3,0,1,0-2.3,2.26,2.3,2.3,0,0,0,2.3-2.26" transform="translate(104.234 35.146)" fill="#8ce2e5"/>
          <path id="Trazado_194898" data-name="Trazado 194898" d="M4.609,121.774a2.284,2.284,0,0,0-2.3-2.26,2.26,2.26,0,0,0,0,4.52,2.284,2.284,0,0,0,2.3-2.26" transform="translate(-0.002 47.78)" fill="#8ce2e5"/>
          <path id="Trazado_194899" data-name="Trazado 194899" d="M12.879,121.77a2.3,2.3,0,1,0-2.3,2.26,2.3,2.3,0,0,0,2.3-2.26" transform="translate(13.028 47.784)" fill="#8ce2e5"/>
          <path id="Trazado_194900" data-name="Trazado 194900" d="M21.152,121.77a2.3,2.3,0,1,0-2.3,2.26,2.3,2.3,0,0,0,2.3-2.26" transform="translate(26.059 47.784)" fill="#8ce2e5"/>
          <path id="Trazado_194901" data-name="Trazado 194901" d="M29.425,121.77a2.3,2.3,0,1,0-2.3,2.26,2.3,2.3,0,0,0,2.3-2.26" transform="translate(39.088 47.784)" fill="#8ce2e5"/>
          <path id="Trazado_194902" data-name="Trazado 194902" d="M37.7,121.77a2.3,2.3,0,1,0-2.3,2.26,2.3,2.3,0,0,0,2.3-2.26" transform="translate(52.116 47.784)" fill="#8ce2e5"/>
          <path id="Trazado_194903" data-name="Trazado 194903" d="M45.966,121.77a2.3,2.3,0,1,0-2.3,2.26,2.3,2.3,0,0,0,2.3-2.26" transform="translate(65.146 47.784)" fill="#8ce2e5"/>
          <path id="Trazado_194904" data-name="Trazado 194904" d="M54.242,121.77a2.3,2.3,0,1,0-2.3,2.26,2.3,2.3,0,0,0,2.3-2.26" transform="translate(78.175 47.784)" fill="#8ce2e5"/>
          <path id="Trazado_194905" data-name="Trazado 194905" d="M62.515,121.77a2.3,2.3,0,1,0-2.3,2.26,2.3,2.3,0,0,0,2.3-2.26" transform="translate(91.204 47.784)" fill="#8ce2e5"/>
          <path id="Trazado_194906" data-name="Trazado 194906" d="M70.788,121.77a2.3,2.3,0,1,0-2.3,2.26,2.3,2.3,0,0,0,2.3-2.26" transform="translate(104.234 47.784)" fill="#8ce2e5"/>
        </g>
      </g>
      <g id="Grupo_154805" data-name="Grupo 154805" transform="translate(150.143 0)">
        <g id="Grupo_152768-2" data-name="Grupo 152768" transform="translate(0)" clip-path="url(#clip-path-2)">
          <path id="Trazado_194826-2" data-name="Trazado 194826" d="M2.228,54.443a1.113,1.113,0,1,0-1.113,1.114,1.113,1.113,0,0,0,1.113-1.114" transform="translate(0 -53.333)" fill="#7f4fc7"/>
          <path id="Trazado_194827-2" data-name="Trazado 194827" d="M10.5,54.443a1.113,1.113,0,1,0-1.113,1.114A1.113,1.113,0,0,0,10.5,54.443" transform="translate(2.028 -53.333)" fill="#7f4fc7"/>
          <path id="Trazado_194828-2" data-name="Trazado 194828" d="M18.773,54.443a1.113,1.113,0,1,0-1.113,1.114,1.113,1.113,0,0,0,1.113-1.114" transform="translate(4.056 -53.333)" fill="#7f4fc7"/>
          <path id="Trazado_194829-2" data-name="Trazado 194829" d="M27.046,54.443a1.113,1.113,0,1,0-1.113,1.114,1.113,1.113,0,0,0,1.113-1.114" transform="translate(6.083 -53.333)" fill="#7f4fc7"/>
          <path id="Trazado_194830-2" data-name="Trazado 194830" d="M35.318,54.443A1.113,1.113,0,1,0,34.2,55.558a1.113,1.113,0,0,0,1.113-1.114" transform="translate(8.111 -53.333)" fill="#7f4fc7"/>
          <path id="Trazado_194831-2" data-name="Trazado 194831" d="M43.587,54.443a1.113,1.113,0,1,0-1.113,1.114,1.113,1.113,0,0,0,1.113-1.114" transform="translate(10.139 -53.333)" fill="#7f4fc7"/>
          <path id="Trazado_194832-2" data-name="Trazado 194832" d="M51.863,54.443a1.113,1.113,0,1,0-1.113,1.114,1.113,1.113,0,0,0,1.113-1.114" transform="translate(12.167 -53.333)" fill="#7f4fc7"/>
          <path id="Trazado_194833-2" data-name="Trazado 194833" d="M60.136,54.443a1.113,1.113,0,1,0-1.113,1.114,1.113,1.113,0,0,0,1.113-1.114" transform="translate(14.194 -53.333)" fill="#7f4fc7"/>
          <path id="Trazado_194834-2" data-name="Trazado 194834" d="M68.409,54.443A1.113,1.113,0,1,0,67.3,55.558a1.113,1.113,0,0,0,1.113-1.114" transform="translate(16.222 -53.333)" fill="#7f4fc7"/>
          <path id="Trazado_194835-2" data-name="Trazado 194835" d="M2.228,62.719a1.112,1.112,0,1,0-.326.788,1.113,1.113,0,0,0,.326-.788" transform="translate(0 -51.305)" fill="#7f4fc7"/>
          <path id="Trazado_194836-2" data-name="Trazado 194836" d="M10.5,62.719a1.112,1.112,0,1,0-.326.788,1.113,1.113,0,0,0,.326-.788" transform="translate(2.028 -51.305)" fill="#7f4fc7"/>
          <path id="Trazado_194837-2" data-name="Trazado 194837" d="M18.773,62.719a1.112,1.112,0,1,0-.326.788,1.113,1.113,0,0,0,.326-.788" transform="translate(4.056 -51.305)" fill="#7f4fc7"/>
          <path id="Trazado_194838-2" data-name="Trazado 194838" d="M27.046,62.719a1.112,1.112,0,1,0-.326.788,1.113,1.113,0,0,0,.326-.788" transform="translate(6.083 -51.305)" fill="#7f4fc7"/>
          <path id="Trazado_194839-2" data-name="Trazado 194839" d="M35.318,62.719a1.112,1.112,0,1,0-.326.788,1.113,1.113,0,0,0,.326-.788" transform="translate(8.111 -51.305)" fill="#7f4fc7"/>
          <path id="Trazado_194840-2" data-name="Trazado 194840" d="M43.587,62.719a1.112,1.112,0,1,0-.326.788,1.113,1.113,0,0,0,.326-.788" transform="translate(10.139 -51.305)" fill="#7f4fc7"/>
          <path id="Trazado_194841-2" data-name="Trazado 194841" d="M51.863,62.719a1.112,1.112,0,1,0-.326.788,1.113,1.113,0,0,0,.326-.788" transform="translate(12.167 -51.305)" fill="#7f4fc7"/>
          <path id="Trazado_194842-2" data-name="Trazado 194842" d="M60.136,62.719a1.113,1.113,0,1,0-1.113,1.113,1.113,1.113,0,0,0,1.113-1.113" transform="translate(14.194 -51.305)" fill="#7f4fc7"/>
          <path id="Trazado_194843-2" data-name="Trazado 194843" d="M68.409,62.719a1.112,1.112,0,1,0-.326.788,1.113,1.113,0,0,0,.326-.788" transform="translate(16.222 -51.305)" fill="#7f4fc7"/>
          <path id="Trazado_194844-2" data-name="Trazado 194844" d="M2.228,70.992a1.112,1.112,0,1,0-.326.788,1.113,1.113,0,0,0,.326-.788" transform="translate(0 -49.277)" fill="#7f4fc7"/>
          <path id="Trazado_194845-2" data-name="Trazado 194845" d="M10.5,70.992a1.112,1.112,0,1,0-.326.788,1.113,1.113,0,0,0,.326-.788" transform="translate(2.028 -49.277)" fill="#7f4fc7"/>
          <path id="Trazado_194846-2" data-name="Trazado 194846" d="M18.773,70.992a1.112,1.112,0,1,0-.326.788,1.113,1.113,0,0,0,.326-.788" transform="translate(4.056 -49.277)" fill="#7f4fc7"/>
          <path id="Trazado_194847-2" data-name="Trazado 194847" d="M27.046,70.992a1.112,1.112,0,1,0-.326.788,1.113,1.113,0,0,0,.326-.788" transform="translate(6.083 -49.277)" fill="#7f4fc7"/>
          <path id="Trazado_194848-2" data-name="Trazado 194848" d="M35.318,70.992a1.112,1.112,0,1,0-.326.788,1.113,1.113,0,0,0,.326-.788" transform="translate(8.111 -49.277)" fill="#7f4fc7"/>
          <path id="Trazado_194849-2" data-name="Trazado 194849" d="M43.587,70.992a1.112,1.112,0,1,0-.326.788,1.113,1.113,0,0,0,.326-.788" transform="translate(10.139 -49.277)" fill="#7f4fc7"/>
          <path id="Trazado_194850-2" data-name="Trazado 194850" d="M51.863,70.992a1.112,1.112,0,1,0-.326.788,1.113,1.113,0,0,0,.326-.788" transform="translate(12.167 -49.277)" fill="#7f4fc7"/>
          <path id="Trazado_194851-2" data-name="Trazado 194851" d="M60.136,70.992a1.113,1.113,0,1,0-1.113,1.113,1.113,1.113,0,0,0,1.113-1.113" transform="translate(14.194 -49.277)" fill="#7f4fc7"/>
          <path id="Trazado_194852-2" data-name="Trazado 194852" d="M68.409,70.992a1.112,1.112,0,1,0-.326.788,1.113,1.113,0,0,0,.326-.788" transform="translate(16.222 -49.277)" fill="#7f4fc7"/>
          <path id="Trazado_194853-2" data-name="Trazado 194853" d="M2.228,79.264a1.112,1.112,0,1,0-.326.788,1.113,1.113,0,0,0,.326-.788" transform="translate(0 -47.25)" fill="#7f4fc7"/>
          <path id="Trazado_194854-2" data-name="Trazado 194854" d="M10.5,79.264a1.112,1.112,0,1,0-.326.788,1.113,1.113,0,0,0,.326-.788" transform="translate(2.028 -47.25)" fill="#7f4fc7"/>
          <path id="Trazado_194855-2" data-name="Trazado 194855" d="M18.773,79.264a1.112,1.112,0,1,0-.326.788,1.113,1.113,0,0,0,.326-.788" transform="translate(4.056 -47.25)" fill="#7f4fc7"/>
          <path id="Trazado_194856-2" data-name="Trazado 194856" d="M27.046,79.264a1.112,1.112,0,1,0-.326.788,1.113,1.113,0,0,0,.326-.788" transform="translate(6.083 -47.25)" fill="#7f4fc7"/>
          <path id="Trazado_194857-2" data-name="Trazado 194857" d="M35.318,79.264a1.112,1.112,0,1,0-.326.788,1.113,1.113,0,0,0,.326-.788" transform="translate(8.111 -47.25)" fill="#7f4fc7"/>
          <path id="Trazado_194858-2" data-name="Trazado 194858" d="M43.587,79.264a1.112,1.112,0,1,0-.326.788,1.113,1.113,0,0,0,.326-.788" transform="translate(10.139 -47.25)" fill="#7f4fc7"/>
          <path id="Trazado_194859-2" data-name="Trazado 194859" d="M51.863,79.264a1.112,1.112,0,1,0-.326.788,1.113,1.113,0,0,0,.326-.788" transform="translate(12.167 -47.25)" fill="#7f4fc7"/>
          <path id="Trazado_194860-2" data-name="Trazado 194860" d="M60.136,79.264a1.113,1.113,0,1,0-1.113,1.113,1.113,1.113,0,0,0,1.113-1.113" transform="translate(14.194 -47.25)" fill="#7f4fc7"/>
          <path id="Trazado_194861-2" data-name="Trazado 194861" d="M68.409,79.264a1.112,1.112,0,1,0-.326.788,1.113,1.113,0,0,0,.326-.788" transform="translate(16.222 -47.25)" fill="#7f4fc7"/>
          <path id="Trazado_194862-2" data-name="Trazado 194862" d="M2.228,87.537a1.112,1.112,0,1,0-.325.788,1.113,1.113,0,0,0,.325-.788" transform="translate(0 -45.222)" fill="#7f4fc7"/>
          <path id="Trazado_194863-2" data-name="Trazado 194863" d="M10.5,87.537a1.112,1.112,0,1,0-.325.788,1.113,1.113,0,0,0,.325-.788" transform="translate(2.028 -45.222)" fill="#7f4fc7"/>
          <path id="Trazado_194864-2" data-name="Trazado 194864" d="M18.773,87.537a1.112,1.112,0,1,0-.325.788,1.113,1.113,0,0,0,.325-.788" transform="translate(4.056 -45.222)" fill="#7f4fc7"/>
          <path id="Trazado_194865-2" data-name="Trazado 194865" d="M27.046,87.537a1.112,1.112,0,1,0-.325.788,1.113,1.113,0,0,0,.325-.788" transform="translate(6.083 -45.222)" fill="#7f4fc7"/>
          <path id="Trazado_194866-2" data-name="Trazado 194866" d="M35.318,87.537a1.112,1.112,0,1,0-.325.788,1.113,1.113,0,0,0,.325-.788" transform="translate(8.111 -45.222)" fill="#7f4fc7"/>
          <path id="Trazado_194867-2" data-name="Trazado 194867" d="M43.587,87.537a1.112,1.112,0,1,0-.325.788,1.113,1.113,0,0,0,.325-.788" transform="translate(10.139 -45.222)" fill="#7f4fc7"/>
          <path id="Trazado_194868-2" data-name="Trazado 194868" d="M51.863,87.537a1.112,1.112,0,1,0-.325.788,1.113,1.113,0,0,0,.325-.788" transform="translate(12.167 -45.222)" fill="#7f4fc7"/>
          <path id="Trazado_194869-2" data-name="Trazado 194869" d="M60.136,87.537a1.113,1.113,0,1,0-1.113,1.114,1.113,1.113,0,0,0,1.113-1.114" transform="translate(14.194 -45.222)" fill="#7f4fc7"/>
          <path id="Trazado_194870-2" data-name="Trazado 194870" d="M68.409,87.537a1.112,1.112,0,1,0-.325.788,1.113,1.113,0,0,0,.325-.788" transform="translate(16.222 -45.222)" fill="#7f4fc7"/>
          <path id="Trazado_194871-2" data-name="Trazado 194871" d="M2.228,95.81A1.112,1.112,0,1,0,1.9,96.6a1.113,1.113,0,0,0,.326-.788" transform="translate(0 -43.194)" fill="#7f4fc7"/>
          <path id="Trazado_194872-2" data-name="Trazado 194872" d="M10.5,95.81a1.112,1.112,0,1,0-.326.788,1.113,1.113,0,0,0,.326-.788" transform="translate(2.028 -43.194)" fill="#7f4fc7"/>
          <path id="Trazado_194873-2" data-name="Trazado 194873" d="M18.773,95.81a1.112,1.112,0,1,0-.326.788,1.113,1.113,0,0,0,.326-.788" transform="translate(4.056 -43.194)" fill="#7f4fc7"/>
          <path id="Trazado_194874-2" data-name="Trazado 194874" d="M27.046,95.81a1.112,1.112,0,1,0-.326.788,1.113,1.113,0,0,0,.326-.788" transform="translate(6.083 -43.194)" fill="#7f4fc7"/>
          <path id="Trazado_194875-2" data-name="Trazado 194875" d="M35.318,95.81a1.112,1.112,0,1,0-.326.788,1.113,1.113,0,0,0,.326-.788" transform="translate(8.111 -43.194)" fill="#7f4fc7"/>
          <path id="Trazado_194876-2" data-name="Trazado 194876" d="M43.587,95.81a1.112,1.112,0,1,0-.326.788,1.113,1.113,0,0,0,.326-.788" transform="translate(10.139 -43.194)" fill="#7f4fc7"/>
          <path id="Trazado_194877-2" data-name="Trazado 194877" d="M51.863,95.81a1.112,1.112,0,1,0-.326.788,1.113,1.113,0,0,0,.326-.788" transform="translate(12.167 -43.194)" fill="#7f4fc7"/>
          <path id="Trazado_194878-2" data-name="Trazado 194878" d="M60.136,95.81a1.113,1.113,0,1,0-1.113,1.113,1.113,1.113,0,0,0,1.113-1.113" transform="translate(14.194 -43.194)" fill="#7f4fc7"/>
          <path id="Trazado_194879-2" data-name="Trazado 194879" d="M68.409,95.81a1.112,1.112,0,1,0-.326.788,1.113,1.113,0,0,0,.326-.788" transform="translate(16.222 -43.194)" fill="#7f4fc7"/>
          <path id="Trazado_194880-2" data-name="Trazado 194880" d="M2.228,104.082a1.112,1.112,0,1,0-.326.788,1.113,1.113,0,0,0,.326-.788" transform="translate(0 -41.166)" fill="#7f4fc7"/>
          <path id="Trazado_194881-2" data-name="Trazado 194881" d="M10.5,104.082a1.112,1.112,0,1,0-.326.788,1.113,1.113,0,0,0,.326-.788" transform="translate(2.028 -41.166)" fill="#7f4fc7"/>
          <path id="Trazado_194882-2" data-name="Trazado 194882" d="M18.773,104.082a1.112,1.112,0,1,0-.326.788,1.113,1.113,0,0,0,.326-.788" transform="translate(4.056 -41.166)" fill="#7f4fc7"/>
          <path id="Trazado_194883-2" data-name="Trazado 194883" d="M27.046,104.082a1.112,1.112,0,1,0-.326.788,1.113,1.113,0,0,0,.326-.788" transform="translate(6.083 -41.166)" fill="#7f4fc7"/>
          <path id="Trazado_194884-2" data-name="Trazado 194884" d="M35.318,104.082a1.112,1.112,0,1,0-.326.788,1.113,1.113,0,0,0,.326-.788" transform="translate(8.111 -41.166)" fill="#7f4fc7"/>
          <path id="Trazado_194885-2" data-name="Trazado 194885" d="M43.587,104.082a1.112,1.112,0,1,0-.326.788,1.113,1.113,0,0,0,.326-.788" transform="translate(10.139 -41.166)" fill="#7f4fc7"/>
          <path id="Trazado_194886-2" data-name="Trazado 194886" d="M51.863,104.082a1.112,1.112,0,1,0-.326.788,1.113,1.113,0,0,0,.326-.788" transform="translate(12.167 -41.166)" fill="#7f4fc7"/>
          <path id="Trazado_194887-2" data-name="Trazado 194887" d="M60.136,104.082a1.113,1.113,0,1,0-1.113,1.113,1.113,1.113,0,0,0,1.113-1.113" transform="translate(14.194 -41.166)" fill="#7f4fc7"/>
          <path id="Trazado_194888-2" data-name="Trazado 194888" d="M68.409,104.082a1.112,1.112,0,1,0-.326.788,1.113,1.113,0,0,0,.326-.788" transform="translate(16.222 -41.166)" fill="#7f4fc7"/>
          <path id="Trazado_194889-2" data-name="Trazado 194889" d="M2.228,112.355a1.112,1.112,0,1,0-.326.788,1.113,1.113,0,0,0,.326-.788" transform="translate(0 -39.138)" fill="#7f4fc7"/>
          <path id="Trazado_194890-2" data-name="Trazado 194890" d="M10.5,112.355a1.112,1.112,0,1,0-.326.788,1.113,1.113,0,0,0,.326-.788" transform="translate(2.028 -39.138)" fill="#7f4fc7"/>
          <path id="Trazado_194891-2" data-name="Trazado 194891" d="M18.773,112.355a1.112,1.112,0,1,0-.326.788,1.113,1.113,0,0,0,.326-.788" transform="translate(4.056 -39.138)" fill="#7f4fc7"/>
          <path id="Trazado_194892-2" data-name="Trazado 194892" d="M27.046,112.355a1.112,1.112,0,1,0-.326.788,1.113,1.113,0,0,0,.326-.788" transform="translate(6.083 -39.138)" fill="#7f4fc7"/>
          <path id="Trazado_194893-2" data-name="Trazado 194893" d="M35.318,112.355a1.112,1.112,0,1,0-.326.788,1.113,1.113,0,0,0,.326-.788" transform="translate(8.111 -39.138)" fill="#7f4fc7"/>
          <path id="Trazado_194894-2" data-name="Trazado 194894" d="M43.587,112.355a1.112,1.112,0,1,0-.326.788,1.113,1.113,0,0,0,.326-.788" transform="translate(10.139 -39.138)" fill="#7f4fc7"/>
          <path id="Trazado_194895-2" data-name="Trazado 194895" d="M51.863,112.355a1.112,1.112,0,1,0-.326.788,1.113,1.113,0,0,0,.326-.788" transform="translate(12.167 -39.138)" fill="#7f4fc7"/>
          <path id="Trazado_194896-2" data-name="Trazado 194896" d="M60.136,112.355a1.113,1.113,0,1,0-1.113,1.113,1.113,1.113,0,0,0,1.113-1.113" transform="translate(14.194 -39.138)" fill="#7f4fc7"/>
          <path id="Trazado_194897-2" data-name="Trazado 194897" d="M68.409,112.355a1.112,1.112,0,1,0-.326.788,1.113,1.113,0,0,0,.326-.788" transform="translate(16.222 -39.138)" fill="#7f4fc7"/>
          <path id="Trazado_194898-2" data-name="Trazado 194898" d="M2.228,120.627a1.112,1.112,0,1,0-.326.788,1.113,1.113,0,0,0,.326-.788" transform="translate(0 -37.111)" fill="#7f4fc7"/>
          <path id="Trazado_194899-2" data-name="Trazado 194899" d="M10.5,120.627a1.112,1.112,0,1,0-.326.788,1.113,1.113,0,0,0,.326-.788" transform="translate(2.028 -37.111)" fill="#7f4fc7"/>
          <path id="Trazado_194900-2" data-name="Trazado 194900" d="M18.773,120.627a1.112,1.112,0,1,0-.326.788,1.113,1.113,0,0,0,.326-.788" transform="translate(4.056 -37.111)" fill="#7f4fc7"/>
          <path id="Trazado_194901-2" data-name="Trazado 194901" d="M27.046,120.627a1.112,1.112,0,1,0-.326.788,1.113,1.113,0,0,0,.326-.788" transform="translate(6.083 -37.111)" fill="#7f4fc7"/>
          <path id="Trazado_194902-2" data-name="Trazado 194902" d="M35.318,120.627a1.112,1.112,0,1,0-.326.788,1.113,1.113,0,0,0,.326-.788" transform="translate(8.111 -37.111)" fill="#7f4fc7"/>
          <path id="Trazado_194903-2" data-name="Trazado 194903" d="M43.587,120.627a1.112,1.112,0,1,0-.326.788,1.113,1.113,0,0,0,.326-.788" transform="translate(10.139 -37.111)" fill="#7f4fc7"/>
          <path id="Trazado_194904-2" data-name="Trazado 194904" d="M51.863,120.627a1.112,1.112,0,1,0-.326.788,1.113,1.113,0,0,0,.326-.788" transform="translate(12.167 -37.111)" fill="#7f4fc7"/>
          <path id="Trazado_194905-2" data-name="Trazado 194905" d="M60.136,120.627a1.113,1.113,0,1,0-1.113,1.113,1.113,1.113,0,0,0,1.113-1.113" transform="translate(14.194 -37.111)" fill="#7f4fc7"/>
          <path id="Trazado_194906-2" data-name="Trazado 194906" d="M68.409,120.627a1.112,1.112,0,1,0-.326.788,1.113,1.113,0,0,0,.326-.788" transform="translate(16.222 -37.111)" fill="#7f4fc7"/>
        </g>
      </g>
      <g id="Grupo_155254" data-name="Grupo 155254" transform="translate(28.76 420.215)">
        <g id="Grupo_154318" data-name="Grupo 154318">
          <g id="Grupo_154315" data-name="Grupo 154315" transform="translate(32.747 9.551)">
            <path id="Trazado_195058" data-name="Trazado 195058" d="M14.017,225.789H54.543a1.523,1.523,0,0,0,0-3.038H14.017a1.523,1.523,0,1,0,0,3.038" transform="translate(-12.394 -222.747)" fill="#12263f"/>
            <path id="Trazado_195059" data-name="Trazado 195059" d="M83.974,225.789H94.206a1.523,1.523,0,0,0,0-3.038H83.974a1.523,1.523,0,1,0,0,3.038" transform="translate(-35.06 -222.747)" fill="#12263f"/>
            <path id="Trazado_195064" data-name="Trazado 195064" d="M112.811,232.612H84.346a1.067,1.067,0,1,0,0,2.134h28.469a1.067,1.067,0,1,0,0-2.134" transform="translate(-35.33 -225.943)" fill="#12263f"/>
            <path id="Trazado_195065" data-name="Trazado 195065" d="M73.867,232.612H66.681a1.067,1.067,0,1,0,0,2.134h7.186a1.067,1.067,0,1,0,0-2.134" transform="translate(-29.607 -225.943)" fill="#12263f"/>
          </g>
          <g id="Grupo_154316" data-name="Grupo 154316">
            <path id="Trazado_195062" data-name="Trazado 195062" d="M161.607,1.333H113.762c-.991,0-1.793.476-1.793,1.067s.8,1.068,1.793,1.068h47.845c.991,0,1.794-.476,1.794-1.068s-.8-1.067-1.794-1.067" transform="translate(-80.777 -1.333)" fill="#12263f"/>
            <path id="Trazado_195063" data-name="Trazado 195063" d="M115.873,1.333H97.1c-1.541,0-2.787.476-2.787,1.067S95.556,3.467,97.1,3.467h18.777c1.541,0,2.787-.476,2.787-1.068s-1.247-1.067-2.787-1.067" transform="translate(-94.309 -1.333)" fill="#12263f"/>
          </g>
        </g>
      </g>
      <g id="Grupo_154801" data-name="Grupo 154801" transform="translate(0 407.517)">
        <g id="Grupo_154721" data-name="Grupo 154721" clip-path="url(#clip-path-3)">
          <line id="Línea_1878" data-name="Línea 1878" x1="21.605" y2="101.839" transform="translate(61.14 29.463)" fill="none" stroke="#1e0b4a" stroke-linecap="round" stroke-linejoin="round" stroke-width="1.052"/>
          <path id="Trazado_196481" data-name="Trazado 196481" d="M238.009,274.732a8.116,8.116,0,1,1-8.116-8.116,8.116,8.116,0,0,1,8.116,8.116" transform="translate(-147.148 -245.268)" fill="#59c4c8"/>
          <path id="Trazado_196482" data-name="Trazado 196482" d="M250.969,334.8c-8.993,25.883-37.317,39.553-37.317,39.553s-13.743-28.29-4.749-54.171,37.317-39.552,37.317-39.552,13.743,28.289,4.749,54.17" transform="translate(-144.709 -243.048)" fill="#12263f"/>
          <path id="Trazado_196483" data-name="Trazado 196483" d="M294.477,324.773c4.17,39.347-24.428,74.631-24.428,74.631s-35.357-28.508-39.526-67.855,24.429-74.631,24.429-74.631,35.356,28.508,39.525,67.855" transform="translate(-213.683 -246.805)" fill="#59c4c8"/>
          <path id="Trazado_196484" data-name="Trazado 196484" d="M301.225,323.107A14.827,14.827,0,1,1,286.4,308.28a14.827,14.827,0,0,1,14.827,14.827" transform="translate(-268.053 -238.666)" fill="#12263f"/>
          <line id="Línea_1879" data-name="Línea 1879" x2="14.585" y2="137.648" transform="translate(41.781 14.95)" fill="none" stroke="#1e0b4a" stroke-linecap="round" stroke-linejoin="round" stroke-width="1.052"/>
          <line id="Línea_1880" data-name="Línea 1880" y1="17.929" x2="27.876" transform="translate(50.522 79.509)" fill="none" stroke="#1e0b4a" stroke-linecap="round" stroke-linejoin="round" stroke-width="1.052"/>
          <line id="Línea_1881" data-name="Línea 1881" x1="23.957" y1="12.551" transform="translate(22.858 49.911)" fill="none" stroke="#1e0b4a" stroke-linecap="round" stroke-linejoin="round" stroke-width="1.052"/>
          <line id="Línea_1882" data-name="Línea 1882" x2="26.068" y2="53.467" transform="translate(18.345 84.441)" fill="none" stroke="#1e0b4a" stroke-linecap="round" stroke-linejoin="round" stroke-width="1.052"/>
        </g>
      </g>
      <g id="Grupo_155255" data-name="Grupo 155255" transform="translate(0.001 23.371)">
        <g id="Grupo_154317" data-name="Grupo 154317">
          <g id="Grupo_154315-2" data-name="Grupo 154315" transform="translate(47.652 8.224)">
            <path id="Trazado_195058-2" data-name="Trazado 195058" d="M14.7,227.158H73.5a2.2,2.2,0,1,0,0-4.407H14.7a2.2,2.2,0,1,0,0,4.407" transform="translate(-12.5 -222.751)" fill="#2a5f61"/>
            <path id="Trazado_195059-2" data-name="Trazado 195059" d="M84.665,227.158H99.51a2.2,2.2,0,1,0,0-4.407H84.665a2.2,2.2,0,1,0,0,4.407" transform="translate(-13.851 -222.751)" fill="#2a5f61"/>
            <path id="Trazado_195064-2" data-name="Trazado 195064" d="M126.12,232.612h-41.3a1.548,1.548,0,1,0,0,3.1h41.3a1.548,1.548,0,0,0,0-3.1" transform="translate(-13.866 -222.941)" fill="#2a5f61"/>
            <path id="Trazado_195065-2" data-name="Trazado 195065" d="M77.591,232.612H67.161a1.548,1.548,0,1,0,0,3.1H77.591a1.548,1.548,0,0,0,0-3.1" transform="translate(-13.525 -222.941)" fill="#2a5f61"/>
          </g>
          <g id="Grupo_154316-2" data-name="Grupo 154316">
            <path id="Trazado_195062-2" data-name="Trazado 195062" d="M183.977,1.333h-69.41c-1.437,0-2.6.694-2.6,1.547s1.164,1.548,2.6,1.548h69.408c1.437,0,2.6-.694,2.6-1.548s-1.166-1.547-2.6-1.547" transform="translate(-66.719 -1.333)" fill="#2a5f61"/>
            <path id="Trazado_195063-2" data-name="Trazado 195063" d="M125.591,1.333H98.352c-2.234,0-4.043.694-4.043,1.547s1.808,1.548,4.043,1.548h27.239c2.234,0,4.043-.694,4.043-1.548s-1.808-1.547-4.043-1.547" transform="translate(-94.309 -1.333)" fill="#2a5f61"/>
          </g>
        </g>
      </g>
      <g id="Grupo_155256" data-name="Grupo 155256" transform="translate(201.769 164.628)">
        <rect id="Rectángulo_45220" data-name="Rectángulo 45220" width="106.857" height="25.376" transform="translate(48.291) rotate(90)" fill="#315884"/>
        <rect id="Rectángulo_45221" data-name="Rectángulo 45221" width="3.287" height="3.287" transform="translate(0 23.055) rotate(-90)" fill="#85b6ec"/>
        <rect id="Rectángulo_45222" data-name="Rectángulo 45222" width="3.287" height="3.287" transform="translate(0 30.038) rotate(-90)" fill="#85b6ec"/>
        <rect id="Rectángulo_45223" data-name="Rectángulo 45223" width="3.287" height="3.287" transform="translate(0 37.022) rotate(-90)" fill="#85b6ec"/>
        <rect id="Rectángulo_45224" data-name="Rectángulo 45224" width="3.286" height="3.287" transform="translate(0 44.005) rotate(-90)" fill="#85b6ec"/>
        <rect id="Rectángulo_45225" data-name="Rectángulo 45225" width="3.287" height="3.287" transform="translate(0 50.989) rotate(-90)" fill="#85b6ec"/>
        <rect id="Rectángulo_45226" data-name="Rectángulo 45226" width="3.286" height="3.287" transform="translate(0 57.972) rotate(-90)" fill="#85b6ec"/>
        <rect id="Rectángulo_45227" data-name="Rectángulo 45227" width="3.287" height="3.287" transform="translate(0 64.955) rotate(-90)" fill="#85b6ec"/>
        <rect id="Rectángulo_45228" data-name="Rectángulo 45228" width="3.286" height="3.287" transform="translate(0 71.939) rotate(-90)" fill="#85b6ec"/>
        <rect id="Rectángulo_45229" data-name="Rectángulo 45229" width="3.287" height="3.287" transform="translate(0 78.923) rotate(-90)" fill="#85b6ec"/>
        <rect id="Rectángulo_46135" data-name="Rectángulo 46135" width="3.287" height="3.287" transform="translate(0 99.873) rotate(-90)" fill="#85b6ec"/>
        <rect id="Rectángulo_46159" data-name="Rectángulo 46159" width="3.287" height="3.287" transform="translate(0 120.824) rotate(-90)" fill="#85b6ec"/>
        <rect id="Rectángulo_45230" data-name="Rectángulo 45230" width="3.287" height="3.287" transform="translate(0 85.906) rotate(-90)" fill="#85b6ec"/>
        <rect id="Rectángulo_46125" data-name="Rectángulo 46125" width="3.287" height="3.287" transform="translate(0 106.857) rotate(-90)" fill="#85b6ec"/>
        <rect id="Rectángulo_46160" data-name="Rectángulo 46160" width="3.287" height="3.287" transform="translate(0 127.807) rotate(-90)" fill="#85b6ec"/>
        <rect id="Rectángulo_46168" data-name="Rectángulo 46168" width="3.287" height="3.287" transform="translate(0 141.773) rotate(-90)" fill="#85b6ec"/>
        <rect id="Rectángulo_45231" data-name="Rectángulo 45231" width="3.287" height="3.287" transform="translate(0 92.889) rotate(-90)" fill="#85b6ec"/>
        <rect id="Rectángulo_46123" data-name="Rectángulo 46123" width="3.287" height="3.287" transform="translate(0 113.84) rotate(-90)" fill="#85b6ec"/>
        <rect id="Rectángulo_46161" data-name="Rectángulo 46161" width="3.287" height="3.287" transform="translate(0 134.79) rotate(-90)" fill="#85b6ec"/>
        <rect id="Rectángulo_46162" data-name="Rectángulo 46162" width="3.287" height="3.287" transform="translate(0 148.757) rotate(-90)" fill="#85b6ec"/>
        <rect id="Rectángulo_45232" data-name="Rectángulo 45232" width="3.287" height="3.287" transform="translate(6.984 23.055) rotate(-90)" fill="#85b6ec"/>
        <rect id="Rectángulo_45233" data-name="Rectángulo 45233" width="3.287" height="3.287" transform="translate(6.984 30.038) rotate(-90)" fill="#85b6ec"/>
        <rect id="Rectángulo_45234" data-name="Rectángulo 45234" width="3.287" height="3.287" transform="translate(6.984 37.022) rotate(-90)" fill="#85b6ec"/>
        <rect id="Rectángulo_45235" data-name="Rectángulo 45235" width="3.286" height="3.287" transform="translate(6.984 44.005) rotate(-90)" fill="#85b6ec"/>
        <rect id="Rectángulo_45236" data-name="Rectángulo 45236" width="3.287" height="3.287" transform="translate(6.984 50.989) rotate(-90)" fill="#85b6ec"/>
        <rect id="Rectángulo_45237" data-name="Rectángulo 45237" width="3.286" height="3.287" transform="translate(6.984 57.972) rotate(-90)" fill="#85b6ec"/>
        <rect id="Rectángulo_45238" data-name="Rectángulo 45238" width="3.287" height="3.287" transform="translate(6.984 64.955) rotate(-90)" fill="#85b6ec"/>
        <rect id="Rectángulo_45239" data-name="Rectángulo 45239" width="3.286" height="3.287" transform="translate(6.984 71.939) rotate(-90)" fill="#85b6ec"/>
        <rect id="Rectángulo_45240" data-name="Rectángulo 45240" width="3.287" height="3.287" transform="translate(6.984 78.923) rotate(-90)" fill="#85b6ec"/>
        <rect id="Rectángulo_46136" data-name="Rectángulo 46136" width="3.287" height="3.287" transform="translate(6.984 99.873) rotate(-90)" fill="#85b6ec"/>
        <rect id="Rectángulo_46156" data-name="Rectángulo 46156" width="3.287" height="3.287" transform="translate(6.984 120.824) rotate(-90)" fill="#85b6ec"/>
        <rect id="Rectángulo_45241" data-name="Rectángulo 45241" width="3.287" height="3.287" transform="translate(6.984 85.906) rotate(-90)" fill="#85b6ec"/>
        <rect id="Rectángulo_46126" data-name="Rectángulo 46126" width="3.287" height="3.287" transform="translate(6.984 106.857) rotate(-90)" fill="#85b6ec"/>
        <rect id="Rectángulo_46157" data-name="Rectángulo 46157" width="3.287" height="3.287" transform="translate(6.984 127.807) rotate(-90)" fill="#85b6ec"/>
        <rect id="Rectángulo_46169" data-name="Rectángulo 46169" width="3.287" height="3.287" transform="translate(6.984 141.773) rotate(-90)" fill="#85b6ec"/>
        <rect id="Rectángulo_45242" data-name="Rectángulo 45242" width="3.287" height="3.287" transform="translate(6.984 92.889) rotate(-90)" fill="#85b6ec"/>
        <rect id="Rectángulo_46124" data-name="Rectángulo 46124" width="3.287" height="3.287" transform="translate(6.984 113.84) rotate(-90)" fill="#85b6ec"/>
        <rect id="Rectángulo_46158" data-name="Rectángulo 46158" width="3.287" height="3.287" transform="translate(6.984 134.79) rotate(-90)" fill="#85b6ec"/>
        <rect id="Rectángulo_46163" data-name="Rectángulo 46163" width="3.287" height="3.287" transform="translate(6.984 148.757) rotate(-90)" fill="#85b6ec"/>
        <rect id="Rectángulo_45243" data-name="Rectángulo 45243" width="3.287" height="3.287" transform="translate(12.856 23.055) rotate(-90)" fill="#85b6ec"/>
        <rect id="Rectángulo_45244" data-name="Rectángulo 45244" width="3.287" height="3.287" transform="translate(12.856 30.038) rotate(-90)" fill="#85b6ec"/>
        <rect id="Rectángulo_45245" data-name="Rectángulo 45245" width="3.287" height="3.287" transform="translate(12.856 37.022) rotate(-90)" fill="#85b6ec"/>
        <rect id="Rectángulo_45246" data-name="Rectángulo 45246" width="3.286" height="3.287" transform="translate(12.856 44.005) rotate(-90)" fill="#85b6ec"/>
        <rect id="Rectángulo_45247" data-name="Rectángulo 45247" width="3.287" height="3.287" transform="translate(12.856 50.989) rotate(-90)" fill="#85b6ec"/>
        <rect id="Rectángulo_45248" data-name="Rectángulo 45248" width="3.286" height="3.287" transform="translate(12.856 57.972) rotate(-90)" fill="#85b6ec"/>
        <rect id="Rectángulo_45249" data-name="Rectángulo 45249" width="3.287" height="3.287" transform="translate(12.856 64.955) rotate(-90)" fill="#85b6ec"/>
        <rect id="Rectángulo_45250" data-name="Rectángulo 45250" width="3.286" height="3.287" transform="translate(12.856 71.939) rotate(-90)" fill="#85b6ec"/>
        <rect id="Rectángulo_45251" data-name="Rectángulo 45251" width="3.287" height="3.287" transform="translate(12.856 78.923) rotate(-90)" fill="#85b6ec"/>
        <rect id="Rectángulo_46137" data-name="Rectángulo 46137" width="3.287" height="3.287" transform="translate(12.856 99.873) rotate(-90)" fill="#85b6ec"/>
        <rect id="Rectángulo_46146" data-name="Rectángulo 46146" width="3.287" height="3.287" transform="translate(12.856 120.824) rotate(-90)" fill="#85b6ec"/>
        <rect id="Rectángulo_45252" data-name="Rectángulo 45252" width="3.287" height="3.287" transform="translate(12.856 85.906) rotate(-90)" fill="#85b6ec"/>
        <rect id="Rectángulo_46127" data-name="Rectángulo 46127" width="3.287" height="3.287" transform="translate(12.856 106.857) rotate(-90)" fill="#85b6ec"/>
        <rect id="Rectángulo_46147" data-name="Rectángulo 46147" width="3.287" height="3.287" transform="translate(12.856 127.807) rotate(-90)" fill="#85b6ec"/>
        <rect id="Rectángulo_46170" data-name="Rectángulo 46170" width="3.287" height="3.287" transform="translate(12.856 141.773) rotate(-90)" fill="#85b6ec"/>
        <rect id="Rectángulo_45253" data-name="Rectángulo 45253" width="3.287" height="3.287" transform="translate(12.856 92.889) rotate(-90)" fill="#85b6ec"/>
        <rect id="Rectángulo_46128" data-name="Rectángulo 46128" width="3.287" height="3.287" transform="translate(12.856 113.84) rotate(-90)" fill="#85b6ec"/>
        <rect id="Rectángulo_46148" data-name="Rectángulo 46148" width="3.287" height="3.287" transform="translate(12.856 134.79) rotate(-90)" fill="#85b6ec"/>
        <rect id="Rectángulo_46164" data-name="Rectángulo 46164" width="3.287" height="3.287" transform="translate(12.856 148.757) rotate(-90)" fill="#85b6ec"/>
        <rect id="Rectángulo_45221-2" data-name="Rectángulo 45221" width="3.287" height="3.287" transform="translate(18.747 23.055) rotate(-90)" fill="#85b6ec"/>
        <rect id="Rectángulo_45222-2" data-name="Rectángulo 45222" width="3.287" height="3.287" transform="translate(18.747 30.038) rotate(-90)" fill="#85b6ec"/>
        <rect id="Rectángulo_45223-2" data-name="Rectángulo 45223" width="3.287" height="3.287" transform="translate(18.747 37.022) rotate(-90)" fill="#85b6ec"/>
        <rect id="Rectángulo_45224-2" data-name="Rectángulo 45224" width="3.286" height="3.287" transform="translate(18.747 44.005) rotate(-90)" fill="#85b6ec"/>
        <rect id="Rectángulo_45225-2" data-name="Rectángulo 45225" width="3.287" height="3.287" transform="translate(18.747 50.989) rotate(-90)" fill="#85b6ec"/>
        <rect id="Rectángulo_45226-2" data-name="Rectángulo 45226" width="3.286" height="3.287" transform="translate(18.747 57.972) rotate(-90)" fill="#85b6ec"/>
        <rect id="Rectángulo_45227-2" data-name="Rectángulo 45227" width="3.287" height="3.287" transform="translate(18.747 64.955) rotate(-90)" fill="#85b6ec"/>
        <rect id="Rectángulo_45228-2" data-name="Rectángulo 45228" width="3.286" height="3.287" transform="translate(18.747 71.939) rotate(-90)" fill="#85b6ec"/>
        <rect id="Rectángulo_45229-2" data-name="Rectángulo 45229" width="3.287" height="3.287" transform="translate(18.747 78.923) rotate(-90)" fill="#85b6ec"/>
        <rect id="Rectángulo_46138" data-name="Rectángulo 46138" width="3.287" height="3.287" transform="translate(18.747 99.873) rotate(-90)" fill="#85b6ec"/>
        <rect id="Rectángulo_46149" data-name="Rectángulo 46149" width="3.287" height="3.287" transform="translate(18.747 120.824) rotate(-90)" fill="#85b6ec"/>
        <rect id="Rectángulo_45230-2" data-name="Rectángulo 45230" width="3.287" height="3.287" transform="translate(18.747 85.906) rotate(-90)" fill="#85b6ec"/>
        <rect id="Rectángulo_46129" data-name="Rectángulo 46129" width="3.287" height="3.287" transform="translate(18.747 106.857) rotate(-90)" fill="#85b6ec"/>
        <rect id="Rectángulo_46150" data-name="Rectángulo 46150" width="3.287" height="3.287" transform="translate(18.747 127.807) rotate(-90)" fill="#85b6ec"/>
        <rect id="Rectángulo_46171" data-name="Rectángulo 46171" width="3.287" height="3.287" transform="translate(18.747 141.773) rotate(-90)" fill="#85b6ec"/>
        <rect id="Rectángulo_45231-2" data-name="Rectángulo 45231" width="3.287" height="3.287" transform="translate(18.747 92.889) rotate(-90)" fill="#85b6ec"/>
        <rect id="Rectángulo_46130" data-name="Rectángulo 46130" width="3.287" height="3.287" transform="translate(18.747 113.84) rotate(-90)" fill="#85b6ec"/>
        <rect id="Rectángulo_46151" data-name="Rectángulo 46151" width="3.287" height="3.287" transform="translate(18.747 134.79) rotate(-90)" fill="#85b6ec"/>
        <rect id="Rectángulo_46165" data-name="Rectángulo 46165" width="3.287" height="3.287" transform="translate(18.747 148.757) rotate(-90)" fill="#85b6ec"/>
        <rect id="Rectángulo_45232-2" data-name="Rectángulo 45232" width="3.287" height="3.287" transform="translate(25.175 23.055) rotate(-90)" fill="#85b6ec"/>
        <rect id="Rectángulo_45233-2" data-name="Rectángulo 45233" width="3.287" height="3.287" transform="translate(25.175 30.038) rotate(-90)" fill="#85b6ec"/>
        <rect id="Rectángulo_45234-2" data-name="Rectángulo 45234" width="3.287" height="3.287" transform="translate(25.175 37.022) rotate(-90)" fill="#85b6ec"/>
        <rect id="Rectángulo_45235-2" data-name="Rectángulo 45235" width="3.286" height="3.287" transform="translate(25.175 44.005) rotate(-90)" fill="#85b6ec"/>
        <rect id="Rectángulo_45236-2" data-name="Rectángulo 45236" width="3.287" height="3.287" transform="translate(25.175 50.989) rotate(-90)" fill="#85b6ec"/>
        <rect id="Rectángulo_45237-2" data-name="Rectángulo 45237" width="3.286" height="3.287" transform="translate(25.175 57.972) rotate(-90)" fill="#85b6ec"/>
        <rect id="Rectángulo_45238-2" data-name="Rectángulo 45238" width="3.287" height="3.287" transform="translate(25.175 64.955) rotate(-90)" fill="#85b6ec"/>
        <rect id="Rectángulo_45239-2" data-name="Rectángulo 45239" width="3.286" height="3.287" transform="translate(25.175 71.939) rotate(-90)" fill="#85b6ec"/>
        <rect id="Rectángulo_45240-2" data-name="Rectángulo 45240" width="3.287" height="3.287" transform="translate(25.175 78.923) rotate(-90)" fill="#85b6ec"/>
        <rect id="Rectángulo_46139" data-name="Rectángulo 46139" width="3.287" height="3.287" transform="translate(25.175 99.873) rotate(-90)" fill="#85b6ec"/>
        <rect id="Rectángulo_46152" data-name="Rectángulo 46152" width="3.287" height="3.287" transform="translate(25.175 120.824) rotate(-90)" fill="#85b6ec"/>
        <rect id="Rectángulo_45241-2" data-name="Rectángulo 45241" width="3.287" height="3.287" transform="translate(25.175 85.906) rotate(-90)" fill="#85b6ec"/>
        <rect id="Rectángulo_46131" data-name="Rectángulo 46131" width="3.287" height="3.287" transform="translate(25.175 106.857) rotate(-90)" fill="#85b6ec"/>
        <rect id="Rectángulo_46153" data-name="Rectángulo 46153" width="3.287" height="3.287" transform="translate(25.175 127.807) rotate(-90)" fill="#85b6ec"/>
        <rect id="Rectángulo_46172" data-name="Rectángulo 46172" width="3.287" height="3.287" transform="translate(25.175 141.773) rotate(-90)" fill="#85b6ec"/>
        <rect id="Rectángulo_45242-2" data-name="Rectángulo 45242" width="3.287" height="3.287" transform="translate(25.175 92.889) rotate(-90)" fill="#85b6ec"/>
        <rect id="Rectángulo_46132" data-name="Rectángulo 46132" width="3.287" height="3.287" transform="translate(25.175 113.84) rotate(-90)" fill="#85b6ec"/>
        <rect id="Rectángulo_46154" data-name="Rectángulo 46154" width="3.287" height="3.287" transform="translate(25.175 134.79) rotate(-90)" fill="#85b6ec"/>
        <rect id="Rectángulo_46166" data-name="Rectángulo 46166" width="3.287" height="3.287" transform="translate(25.175 148.757) rotate(-90)" fill="#85b6ec"/>
        <rect id="Rectángulo_45243-2" data-name="Rectángulo 45243" width="3.287" height="3.287" transform="translate(31.603 23.055) rotate(-90)" fill="#85b6ec"/>
        <rect id="Rectángulo_45244-2" data-name="Rectángulo 45244" width="3.287" height="3.287" transform="translate(31.603 30.038) rotate(-90)" fill="#85b6ec"/>
        <rect id="Rectángulo_45245-2" data-name="Rectángulo 45245" width="3.287" height="3.287" transform="translate(31.603 37.022) rotate(-90)" fill="#85b6ec"/>
        <rect id="Rectángulo_45246-2" data-name="Rectángulo 45246" width="3.286" height="3.287" transform="translate(31.603 44.005) rotate(-90)" fill="#85b6ec"/>
        <rect id="Rectángulo_45247-2" data-name="Rectángulo 45247" width="3.287" height="3.287" transform="translate(31.603 50.989) rotate(-90)" fill="#85b6ec"/>
        <rect id="Rectángulo_45248-2" data-name="Rectángulo 45248" width="3.286" height="3.287" transform="translate(31.603 57.972) rotate(-90)" fill="#85b6ec"/>
        <rect id="Rectángulo_45249-2" data-name="Rectángulo 45249" width="3.287" height="3.287" transform="translate(31.603 64.955) rotate(-90)" fill="#85b6ec"/>
        <rect id="Rectángulo_45250-2" data-name="Rectángulo 45250" width="3.286" height="3.287" transform="translate(31.603 71.939) rotate(-90)" fill="#85b6ec"/>
        <rect id="Rectángulo_45251-2" data-name="Rectángulo 45251" width="3.287" height="3.287" transform="translate(31.603 78.923) rotate(-90)" fill="#85b6ec"/>
        <rect id="Rectángulo_46140" data-name="Rectángulo 46140" width="3.287" height="3.287" transform="translate(31.603 99.873) rotate(-90)" fill="#85b6ec"/>
        <rect id="Rectángulo_46144" data-name="Rectángulo 46144" width="3.287" height="3.287" transform="translate(31.603 120.824) rotate(-90)" fill="#85b6ec"/>
        <rect id="Rectángulo_45252-2" data-name="Rectángulo 45252" width="3.287" height="3.287" transform="translate(31.603 85.906) rotate(-90)" fill="#85b6ec"/>
        <rect id="Rectángulo_46133" data-name="Rectángulo 46133" width="3.287" height="3.287" transform="translate(31.603 106.857) rotate(-90)" fill="#85b6ec"/>
        <rect id="Rectángulo_46145" data-name="Rectángulo 46145" width="3.287" height="3.287" transform="translate(31.603 127.807) rotate(-90)" fill="#85b6ec"/>
        <rect id="Rectángulo_46173" data-name="Rectángulo 46173" width="3.287" height="3.287" transform="translate(31.603 141.773) rotate(-90)" fill="#85b6ec"/>
        <rect id="Rectángulo_45253-2" data-name="Rectángulo 45253" width="3.287" height="3.287" transform="translate(31.603 92.889) rotate(-90)" fill="#85b6ec"/>
        <rect id="Rectángulo_46134" data-name="Rectángulo 46134" width="3.287" height="3.287" transform="translate(31.603 113.84) rotate(-90)" fill="#85b6ec"/>
        <rect id="Rectángulo_46155" data-name="Rectángulo 46155" width="3.287" height="3.287" transform="translate(31.603 134.79) rotate(-90)" fill="#85b6ec"/>
        <rect id="Rectángulo_46167" data-name="Rectángulo 46167" width="3.287" height="3.287" transform="translate(31.603 148.757) rotate(-90)" fill="#85b6ec"/>
      </g>
    </g>
    <g id="Grupo_1100061" data-name="Grupo 1100061" transform="translate(62.503 35.862)">
      <g id="Grupo_1100060" data-name="Grupo 1100060" clip-path="url(#clip-path-4)">
        <path id="Trazado_874123" data-name="Trazado 874123" d="M348.17,1548.268a.406.406,0,0,1,0,.06,20.527,20.527,0,0,1-1.581,4.25,9.384,9.384,0,0,1-1.585,1.6c-.236.989-.949.754-5.091,3.119-3.48,2.166-5.506,5.6-7.812,8.961-.157.23-.317.467-.476.708-7.843-.84-27.456,2.073-29.522,1.208,2.149-2.005,5.132-1.194,13.291-11.811a65.377,65.377,0,0,0,10.671-22.293c1.978-7.436-.773-6.673-.78-8.6l16.553.052c-.05.532-.094,1.063-.119,1.59a93.781,93.781,0,0,0,.877,11.865,2.482,2.482,0,0,0,.239.6c1.1,2.124,5.382,7.167,5.337,8.7" transform="translate(-285.613 -1068.299)" fill="#ff948f"/>
        <path id="Trazado_874124" data-name="Trazado 874124" d="M353.978,1574.989c-.632-.752-2.721-2.954-3.44-2.979a.218.218,0,0,0-.151.041c-.031.042-.068.089-.107.136-.388,1.06-.678,2.158-1.158,3.184a17.716,17.716,0,0,1-2.6,3.886c-.985,1.161-2.079,2.212-3.152,3.288-1.028,1.031-2.06,2.059-3.107,3.071-2.221,2.146-7.274,12.679-14.2,13.993-2.445.463-9.99,1.536-13.185-.994-.526.34-13.689,4.77-11.61,8.405.766,1.338,2.538,1.484,3.9,1.8,2.526.582,17.25,1.827,26.664-1.308,3.328-1.108,5.519-5.107,7.5-8.1.159-.242.319-.478.476-.708,2.307-3.359,4.332-6.795,7.812-8.96.4,2.053.441,14.807.364,16.63a.852.852,0,0,0,.887.889l2.967-.134a.856.856,0,0,0,.8-.992c-.335-2.1-1.1-7.169-1.163-9.546-.059-2.411-.32-5.821,2.818-11.56a7.621,7.621,0,0,0,1.58-4.253.41.41,0,0,0,0-.06,8.041,8.041,0,0,0-1.9-5.723" transform="translate(-293.017 -1100.895)" fill="#3656b3"/>
        <path id="Trazado_874125" data-name="Trazado 874125" d="M.57,1571.094a143.748,143.748,0,0,0,5.185-15.037,131.724,131.724,0,0,1,5.023-14.823q1.466-3.6,3.138-7.119c.447-.937.929-2.385,2.195-2.344,1.056.034,1.955,1.113,2.592,1.862a13.084,13.084,0,0,1,1.926,3.045,44.784,44.784,0,0,1,3.989,5.347,19.051,19.051,0,0,1,2.581,7.025,73.174,73.174,0,0,1,.569,8.008l.376,8.435c.121,2.731.547,6.628.211,9.352-.275,2.235-1.193,3.236-2.364,5.153-2.281,3.733-18.02,6.85-20.769,6.023-2.214-.666-3.744-5.059-4.429-7.235C0,1576.261-.4,1573.514.57,1571.094" transform="translate(124.612 -1072.716)" fill="#3656b3"/>
        <path id="Trazado_874126" data-name="Trazado 874126" d="M11.915,1526.853c.726-1.673,2.972-1.936,4.552-1.894a11.617,11.617,0,0,1,5.252,1.5,17.332,17.332,0,0,1,7.29,8.7,40.171,40.171,0,0,1,1.882,5.757,65.4,65.4,0,0,1,1.334,6.451c.638,4.271.068,13.3-1.249,17.456-1.038,3.276-8.181,4.467-16.848,2.225-1.741-.45-1.754-4.365-1.781-6.166-.066-4.489,1.053-8.36,1.34-12.835a63.171,63.171,0,0,0-.2-13.342q-.239-1.6-.623-3.173c0-.018,0-.034-.007-.051l-.594-1.523a4.047,4.047,0,0,1-.343-3.1" transform="translate(117.095 -1067.942)" fill="#ff948f"/>
        <path id="Trazado_874127" data-name="Trazado 874127" d="M117.371,902.978c-.094-.242-.189-.481-.286-.715q-1.508-3.626-2.891-7.3-2.833-7.479-5.26-15.106c-5.64-17.652-9.785-44.918-13.3-63.117q-3.047-5.7-6.031-11.441c-4.3-8.291-8.471-16.651-12.422-25.117a357.151,357.151,0,0,1-19.956-51.751q-.388-1.347-.76-2.7c-1.527,15.755-7.921,62.067-9.061,69.525q-.854,5.59-1.725,11.178c-.06.386-.118.774-.175,1.162,3.564,10.4,5.854,30.549,7.588,41.334a277.669,277.669,0,0,1,3.464,37.825q.183,8.115-.12,16.229l-17.425,2.365-5.95-2.365c-2.476-7.054-4.37-14.4-6.145-21.633-3.958-16.128-6.68-41.757-7.9-58.328q-.346-4.7-.536-9.411a1.336,1.336,0,0,1-.235-.423C14.025,800.719,5.768,749.124,5.787,736.23c.038-24.5.744-55.588.744-55.588,4.845-12.206,23.646-40.417,31.845-50.684.188-.236.569.069.414.322l-.163.267a.293.293,0,0,1,.038.005c3.144,1.128,6.252,2.3,9.34,3.582.148.061.3.12.449.181.278-.336.561-.659.845-.965a19.875,19.875,0,0,1,12.231-6.029,21.061,21.061,0,0,1,13.345,2.709c1.258.767,9.378,2.859,10.406,4-.022-.075,24.032,46.615,24.032,46.615.521,21.638,13.777,106.249,14.577,113.107.331,2.84.61,5.7.753,8.571,4.848,8.456,7.71,18.076,10.149,27.459,3.514,13.516,6.331,36.395,8.749,50.151q2.019,11.487,3.582,23.049l-15.97,4.749Z" transform="translate(4.236 -439.209)" fill="#75421a"/>
        <path id="Trazado_874128" data-name="Trazado 874128" d="M317.816,713.286q.325-6.952,1.06-13.876c.066-.622,1.039-.628.973,0a237.124,237.124,0,0,0-.087,49.108q.706,6.9,1.819,13.744c.1.617-.837.883-.938.261a237.435,237.435,0,0,1-2.826-49.236" transform="translate(-263.663 -489.476)" fill="#2d1f2a"/>
        <path id="Trazado_874130" data-name="Trazado 874130" d="M367.614,803.37a333.327,333.327,0,0,1,5.739-41.892q.543-2.658,1.134-5.306c.137-.616,1.075-.355.938.261a325.744,325.744,0,0,0-6.451,42.18,403.765,403.765,0,0,0-1.4,42.351c.245,14.212,1.144,28.408,2.508,42.553,1.381,14.314,3.239,28.578,5.4,42.793,2.14,14.11,4.573,37.333,7.134,51.371q.488,2.674.982,5.346c.114.617-.824.882-.938.261-2.614-14.16-5.12-28.342-7.347-42.57-2.205-14.088-4.139-37.382-5.63-51.566-1.5-14.283-2.552-28.619-2.958-42.978a416.313,416.313,0,0,1,.895-42.8" transform="translate(-340.354 -529.309)" fill="#2d1f2a"/>
        <path id="Trazado_874131" data-name="Trazado 874131" d="M65.54,748.048a356.687,356.687,0,0,0,10.6,43.578c4.333,14.357,9.194,28.552,13.828,42.817q7.088,21.818,13.377,43.877c4.15,14.606,7.891,38.47,11.609,53.186,3.677,14.553,7.483,29.1,12.413,43.3q.915,2.636,1.882,5.254c.214.579-.726.829-.938.254a437.438,437.438,0,0,1-12.92-43.142c-3.757-14.673-7.379-38.533-11.446-53.128q-6.158-22.1-13.176-43.953C86.188,825.773,81.3,811.554,76.836,797.2a395.41,395.41,0,0,1-11.254-43.431q-.52-2.73-.98-5.469c-.1-.6.836-.86.938-.254" transform="translate(4.453 -523.624)" fill="#2d1f2a"/>
        <path id="Trazado_874132" data-name="Trazado 874132" d="M260.128,381.449c-1.042.254-39.371-2.7-39.371-2.7l.733,44.207-7.818,44.1h41.439Z" transform="translate(-171.07 -265.24)" fill="#85b6ec"/>
        <path id="Trazado_874133" data-name="Trazado 874133" d="M65.282,590.448a4.039,4.039,0,0,1,2.894-1.656c1.341-.214,2.711-.265,4.062-.353a153.936,153.936,0,0,1,17.493-.147,156.143,156.143,0,0,1,17.433,1.837q2.116.343,4.224.745a.75.75,0,0,1,.453.9.657.657,0,0,1-.8.509l-.013,0q3.6,11.935,7.7,23.669,4.2,12,8.919,23.766,2.663,6.637,5.488,13.19a.792.792,0,0,1-.233,1,99.915,99.915,0,0,1-15.576,6.275,97.235,97.235,0,0,1-16.257,3.492q-4.128.523-8.284.681a25.667,25.667,0,0,1-7.987-.52,11.6,11.6,0,0,1-5.786-3.928,23.622,23.622,0,0,1-3.475-6.19c-.99-2.469-1.753-5.043-2.5-7.616q-1.325-4.573-2.45-9.216-2.238-9.241-3.671-18.7t-2.051-19.031q-.153-2.378-.254-4.758a6.637,6.637,0,0,1,.664-3.946" transform="translate(0.516 -411.86)" fill="#315884"/>
        <path id="Trazado_874134" data-name="Trazado 874134" d="M323.163,627.412q4.089-9.334,7.787-18.946,3.681-9.572,6.96-19.394t6.133-19.844q.718-2.519,1.409-5.049c.4-1.455.891-2.853,2.077-3.431a6.186,6.186,0,0,1,1.892-.435q1.071-.153,2.145-.276,2.146-.246,4.3-.371a77.327,77.327,0,0,1,17.2.923q1.042.174,2.082.373a.612.612,0,0,1,.372.485,13.18,13.18,0,0,1-.517,6.17q-.73,11.216-2.206,22.321-1.768,13.267-4.6,26.244-1.417,6.488-3.1,12.875c-.93,3.518-2.085,7.187-4.583,9.29s-5.676,2.247-8.561,2.177a40.007,40.007,0,0,1-9.348-1.361,45.771,45.771,0,0,1-17.342-9.129q-.971-.807-1.914-1.672a.841.841,0,0,1-.191-.949" transform="translate(-319.411 -391.849)" fill="#315884"/>
        <path id="Trazado_874135" data-name="Trazado 874135" d="M321.716,583.739c-.6-.526-13.549-1.3-13.549-1.3l-.857-9.721h10.161Z" transform="translate(-260.72 -401.083)" fill="#85b6ec"/>
        <path id="Trazado_874136" data-name="Trazado 874136" d="M78.522,60.048c.892-2.141,1.977-4.22,3-6.307,2.026-4.146,4.114-8.264,6.306-12.331a193.747,193.747,0,0,1,14.683-23.491A132.512,132.512,0,0,1,111.34,7.176q1.18-1.286,2.4-2.538a22.165,22.165,0,0,1,2.474-2.367,4.034,4.034,0,0,1,2.889-.852,5.379,5.379,0,0,1,2.6,1.171,9.928,9.928,0,0,1,.818.711c6.129-2.761,17.546-5.112,23.146-1.339,20.407,13.753,19.978,24.884,22.528,29.16a127.033,127.033,0,0,1,10.372,21.864,64.9,64.9,0,0,1,3.3,11.554,19.41,19.41,0,0,1-1.188,11.45c-3.2,6.775-10.792,10.636-17.8,12.67-6.27,1.82-12.569,1.379-18.965,1.915a139.424,139.424,0,0,1-21.642.495c-13.1-.942-26.365-5.709-36.241-14.156a43.405,43.405,0,0,1-4.49-4.424,16.382,16.382,0,0,1-3.529-5.847,9.513,9.513,0,0,1,.513-6.6" transform="translate(-52.384 0.001)" fill="#97483c"/>
        <path id="Trazado_874137" data-name="Trazado 874137" d="M216.4,178.546q.262-4.6.708-9.185a63.887,63.887,0,0,1,1.207-8.384c1.132-4.845,3.659-9.585,8.4-12.144a12.139,12.139,0,0,1,7.237-1.418,15,15,0,0,1,7.44,3.281c1.645,1.316,3.315,3.442,2.756,5.589a2.735,2.735,0,0,1-1.776,1.824c-.86,6.6-1.647,11.573-2.508,18.175-.221,1.7-.514,5.025-.735,6.721-.194,1.5,5.95,34.88,2.251,36.369-.445.179-41.564-2.44-41.725-2.862-1.025-2.692,12.275-24.009,12.322-26.828.052-3.07,4.249-8.073,4.424-11.139" transform="translate(-150.977 -103.174)" fill="#ff948f"/>
        <path id="Trazado_874138" data-name="Trazado 874138" d="M176.633,72.043c-.45-5.122,3.247-10.525,6.559-14.212,3.119-3.472,5.533-4.8,9.995-5.393,0,0,7.811,3.168,11.223,8.539,2.813,4.427,3.784,9.6,5.98,14.353,1.9,4.11,4.978,8.237,9.2,9.453a8.366,8.366,0,0,0,3.049.277.482.482,0,0,1,.365.135l.118-.025a.661.661,0,0,1,.782.523c1,3.266-.419,6.659-2.458,9.046A19.505,19.505,0,0,1,218,97.888a7.8,7.8,0,0,1-4.182,1.624A4.981,4.981,0,0,1,211,98.77a18.648,18.648,0,0,1-8.294,9.445,25.053,25.053,0,0,1-7.549,2.7,30.464,30.464,0,0,1-7.938.642,9.828,9.828,0,0,1-6.585-3.111,20.182,20.182,0,0,1-3.759-6.179,44.135,44.135,0,0,1-3.285-15.545c-.168-5.338,3.648-7.793,3.044-14.673" transform="translate(-123.163 -36.724)" fill="#ff948f"/>
        <path id="Trazado_874139" data-name="Trazado 874139" d="M301.876,149.394c.478-.815,1.075-1.83,1.757-3.214a.5.5,0,0,0,.025-.37.478.478,0,0,0-.6-.3.488.488,0,0,0-.274.241c-.692,1.4-1.3,2.437-1.748,3.195a6.618,6.618,0,0,0-1.309,3.3c-.025,1.891,1.4,2.935,2.439,3.7l.283.213a.478.478,0,0,0,.564-.773l-.29-.215c-.968-.709-2.063-1.512-2.047-2.907a5.984,5.984,0,0,1,1.177-2.82Z" transform="translate(-240.414 -101.886)" fill="#2d1f2a"/>
        <path id="Trazado_874140" data-name="Trazado 874140" d="M319.408,128.187c-.2,2.278-1.565,4.019-3.058,3.888s-2.544-2.083-2.347-4.361,1.565-4.019,3.058-3.888,2.544,2.083,2.347,4.361" transform="translate(-260.434 -86.712)" fill="#2d1f2a"/>
        <path id="Trazado_874141" data-name="Trazado 874141" d="M252.686,131.66c-.224,2.457-1.709,4.328-3.319,4.179s-2.734-2.261-2.51-4.718,1.709-4.328,3.319-4.179,2.734,2.261,2.51,4.718" transform="translate(-173.592 -88.893)" fill="#2d1f2a"/>
        <path id="Trazado_874142" data-name="Trazado 874142" d="M196.834,201.151a3.383,3.383,0,1,1-3.045-3.835,3.455,3.455,0,0,1,3.045,3.835" transform="translate(-100.723 -138.173)" fill="#ffc4bf"/>
        <path id="Trazado_874143" data-name="Trazado 874143" d="M238.7,106.346a17.649,17.649,0,0,1-4.421-.714,10.723,10.723,0,0,1-3.746-1.7c-.792-.634-1.843-1.955-.922-2.933,2.032-2.157,10.43.721,11.145,3.419.344,1.3-.985,1.958-2.057,1.928" transform="translate(-156.42 -70.201)" fill="#97483c"/>
        <path id="Trazado_874144" data-name="Trazado 874144" d="M309.823,98.009a10.087,10.087,0,0,1-7.84.861.88.88,0,0,1-.611-1.047c.417-2.24,9.809-4.758,10.079-1.7.084.952-.924,1.494-1.627,1.888" transform="translate(-248.674 -66.324)" fill="#97483c"/>
        <path id="Trazado_874145" data-name="Trazado 874145" d="M217.1,220.74a29.965,29.965,0,0,0,6.313-.372,25.47,25.47,0,0,0,10.268-4.484,16.456,16.456,0,0,0,6.018-8,.49.49,0,0,0-.934-.3,14.428,14.428,0,0,1-2.628,4.682c-4.716,5.648-12.208,7.828-18.988,7.7Z" transform="translate(-151.69 -145.144)" fill="#2d1f2a"/>
        <path id="Trazado_874146" data-name="Trazado 874146" d="M274.729,198.25c3.57,1.427,7.819,2.453,11.3.228.53-.339.991.526.464.862-3.7,2.362-8.25,1.367-12.053-.153-.578-.231-.3-1.171.288-.937" transform="translate(-215.786 -138.81)" fill="#2d1f2a"/>
        <path id="Trazado_874147" data-name="Trazado 874147" d="M31.669,331.88a81.92,81.92,0,0,1,2.427-9.774q2.549-8.568,5.126-17.128l5.161-17.245,5.161-17.245,2.581-8.623a10.37,10.37,0,0,1,1.329-3,4.077,4.077,0,0,1,2.022-1.679,5.887,5.887,0,0,1,1.584-1.029,15.066,15.066,0,0,1,3.619-.96q2.118-.365,4.246-.674a163.677,163.677,0,0,1,17.188-1.582q2.547-.1,5.1-.115c3.911-2.71,5.782-3.156,9.027-6.658.334-.361-4.191,21.222-5.239,24.143s-1.956,5.872-2.733,8.868a103.941,103.941,0,0,0-3.02,18.166,105.351,105.351,0,0,0,.216,18.478q.446,4.458,1.286,8.866,7.984-.159,15.954-.71c1.618-.112,3.235-.241,4.85-.378l1.344-6.682c1.233-6.13,2.511-12.253,3.636-18.4A166.476,166.476,0,0,0,115.02,280c.4-5.787.143-11.57.227-17.363.08-5.519,4.272-19.376,4.452-18.734a69.524,69.524,0,0,0,4.126,11.024,70.462,70.462,0,0,0,4.3,7.752,37.183,37.183,0,0,0,6.881,1,72.9,72.9,0,0,0,8.237.117,71.648,71.648,0,0,0,8.247-.825c1.172-.187,2.343-.476,3.529-.559a4.056,4.056,0,0,1,2.772.624,2.627,2.627,0,0,1,.84,2.965,3.011,3.011,0,0,1,.524.37,5.968,5.968,0,0,1,1.716,3.147q1.226,4.975,2.364,9.97,2.276,9.991,4.2,20.06t3.488,20.2q1.563,10.109,2.771,20.271c.366,3.08.824,6.182.956,9.284a13.832,13.832,0,0,1-1.4,7.558,4.763,4.763,0,0,1-1.153,1.532c-2.043,1.5-8.7,2.49-11.756,2.233-6.973-.587-13.942-1.237-20.911-1.872q-10.524-.958-21.044-1.948c-6.957-.655-34.773-2.2-35.595-3.534a47.055,47.055,0,0,1-1.173-6.222c-3.621.209-1.614-.043-5.235.165l-17.673,1.019c-2.9.167-5.8.346-8.7.5a41.714,41.714,0,0,1-7.169-.093,16.108,16.108,0,0,1-6.585-2.1,11.039,11.039,0,0,1-4.122-4.491,12.625,12.625,0,0,1-.459-10.159" transform="translate(-30.815 -170.793)" fill="#315884"/>
        <path id="Trazado_874148" data-name="Trazado 874148" d="M122.278,327.769q6.765-8.873,13.047-18.107t12.05-18.8q3.074-5.095,6-10.279l-6.791-2.617c-2.434-.938-4.916-1.8-7.309-2.837a6.744,6.744,0,0,1-2.7-1.987,17.658,17.658,0,0,1-1.725-2.918l-3.652-7.1-4.15-8.067c-.3-.591.582-1.116.887-.523l7.172,13.939c1.016,1.976,1.89,4.308,3.944,5.406a29.79,29.79,0,0,0,3.367,1.376l3.632,1.4,8.2,3.161a.528.528,0,0,1,.307.761q-5.479,9.734-11.475,19.159t-12.493,18.5q-3.637,5.083-7.427,10.052a.53.53,0,0,1-.7.186.524.524,0,0,1-.184-.709" transform="translate(-38.161 -178.074)" fill="#2d1f2a"/>
        <path id="Trazado_874149" data-name="Trazado 874149" d="M294.1,269.545l8.006-.692,3.967-.343a23.182,23.182,0,0,0,3.723-.48c2.25-.571,3.911-2.218,5.6-3.716q2.8-2.476,5.792-4.713,3.368-2.52,6.96-4.711c.567-.347,1.084.549.519.895a88.756,88.756,0,0,0-12.19,8.951c-1.73,1.515-3.4,3.233-5.6,4.043a14,14,0,0,1-3.617.664c-1.335.119-2.67.231-4.006.346l-8.538.738a208.555,208.555,0,0,0,15.05,45.606q2.873,6.192,6.147,12.183c.319.584-.568,1.108-.887.523A210.019,210.019,0,0,1,296.8,283.623q-1.818-6.654-3.195-13.422a.527.527,0,0,1,.5-.656" transform="translate(-263.803 -178.448)" fill="#2d1f2a"/>
        <path id="Trazado_874150" data-name="Trazado 874150" d="M413.311,323.729a62.688,62.688,0,0,1,5.7,6.794,102.587,102.587,0,0,1-3.142-11.354,104.114,104.114,0,0,1-2.153-15.708q-.268-4.471-.145-8.952a.514.514,0,0,1,1.028,0,102.11,102.11,0,0,0,3.957,31.129c.819,2.848,2.186,9.3,1.887,8.823a61.463,61.463,0,0,0-6.181-8.193,42.278,42.278,0,0,0,5.726,10.29.515.515,0,1,1-.887.523,43,43,0,0,1-6.645-12.848.518.518,0,0,1,.859-.5" transform="translate(-390.987 -205.898)" fill="#2d1f2a"/>
        <path id="Trazado_874151" data-name="Trazado 874151" d="M84.657,373.48a153.2,153.2,0,0,1,6.186-23.353c2.618-7.6,5.676-15.005,8.885-22.328,1.8-4.108,3.649-8.191,5.5-12.272.291-.641,1.177-.08.888.56-3.3,7.28-6.6,14.565-9.618,21.986a207.042,207.042,0,0,0-7.846,22.534c-.918,3.3-1.727,6.64-2.406,10.008a35.532,35.532,0,0,1,7.4-8.573,33.863,33.863,0,0,1,3.283-2.427c.469-.3.915.283.7.758a60.4,60.4,0,0,1-6.44,11.112,12.906,12.906,0,0,1,10.08,3.471.567.567,0,0,1-.363.946l-8.259.007c-.661,0-.663-1.108,0-1.109L99.4,374.8a11.73,11.73,0,0,0-9.276-2.033.556.556,0,0,1-.5-.927,58.864,58.864,0,0,0,6.266-10.18,34,34,0,0,0-8.253,8.729,36.323,36.323,0,0,0-2.036,3.523c-.293.579-1.043.164-.939-.427" transform="translate(21.554 -220.769)" fill="#2d1f2a"/>
        <path id="Trazado_874152" data-name="Trazado 874152" d="M362.837,427.049a4.013,4.013,0,0,1,.715-.258,2.052,2.052,0,0,1-.209-1.313,2.953,2.953,0,0,1,2.528-2.138,10.883,10.883,0,0,1,2.074-.084,17.5,17.5,0,0,1,2.062.144,7.64,7.64,0,0,1,1.251.292,6.236,6.236,0,0,1-.961-3.572c.062-.942.367-2.253,1.4-2.54,1.078-.3,14.335,17.166,14.489,17.791a55.929,55.929,0,0,1,3.5,6.343q.756,1.61,1.409,3.265H373.985a.567.567,0,0,1,.025-.095,23.086,23.086,0,0,1-4.543-7.1,15.745,15.745,0,0,1-2.625-1.069,10.666,10.666,0,0,1-2.874-1.979c-.743-.793-1.171-2.069-.167-2.855a2.423,2.423,0,0,1,1.006-.435c-.381-.127-.759-.262-1.132-.413a3.11,3.11,0,0,1-1.99-1.62,2.011,2.011,0,0,1,1.151-2.369" transform="translate(-346.375 -292.434)" fill="#ff948f"/>
        <path id="Trazado_874153" data-name="Trazado 874153" d="M104.562,511.81l8.288.121c2.756.04,5.518.027,8.272.138a16.984,16.984,0,0,1,6.8,1.5,14.912,14.912,0,0,1,4.784,3.688,14.715,14.715,0,0,1,3.173,6.09c.1.413-15.384-.145-22.489,1.736a53.09,53.09,0,0,0-5.915,1.946c-.322.127-3.432-15.226-2.913-15.219" transform="translate(-14.104 -358.426)" fill="#ff948f"/>
        <path id="Trazado_874154" data-name="Trazado 874154" d="M204.977,511.81,209.57,531.9H198.726l-5.049-20.094Z" transform="translate(-114.518 -358.426)" fill="#85b6ec"/>
        <path id="Trazado_874155" data-name="Trazado 874155" d="M83.94,610.859q12.452.87,24.886,1.967,12.37,1.091,24.719,2.406,6.938.739,13.868,1.549a.531.531,0,0,1,.5.53.52.52,0,0,1-.526.506q-12.4-1.448-24.821-2.671-12.359-1.216-24.738-2.207-6.955-.557-13.915-1.044c-.658-.046-.638-1.082.023-1.036" transform="translate(-19.827 -427.79)" fill="#2d1f2a"/>
        <path id="Trazado_874156" data-name="Trazado 874156" d="M233.432,583.367q12.867-.557,25.723-1.311,12.791-.752,25.57-1.7,7.171-.532,14.338-1.128c.659-.055.655.982,0,1.036q-12.835,1.065-25.685,1.932-12.784.862-25.58,1.526-7.182.373-14.366.683c-.661.029-.66-1.008,0-1.036" transform="translate(-216.27 -405.637)" fill="#2d1f2a"/>
        <path id="Trazado_874157" data-name="Trazado 874157" d="M330.512,512.961a36.558,36.558,0,0,1,14.153-4.259q1.6-.143,3.213-.138a.473.473,0,0,1,.463-.67l20.308,1.616,5.748.457c.655.052.661,1.089,0,1.036l-20.309-1.616-4.728-.376a.484.484,0,0,1-.487.6,35.5,35.5,0,0,0-14.147,2.5,34.645,34.645,0,0,0-3.7,1.737c-.583.316-1.1-.579-.519-.895" transform="translate(-320.77 -355.683)" fill="#2d1f2a"/>
        <path id="Trazado_874158" data-name="Trazado 874158" d="M422.623,495.472a36.314,36.314,0,0,1,14.663,2.5.534.534,0,0,1,.359.637.517.517,0,0,1-.632.362,35.6,35.6,0,0,0-12.741-2.484.519.519,0,0,1-.215.041l-1.433-.019a.519.519,0,0,1,0-1.036" transform="translate(-411.077 -346.966)" fill="#2d1f2a"/>
        <path id="Trazado_874159" data-name="Trazado 874159" d="M51.491,543.239a.474.474,0,0,1,.246-.411,17.151,17.151,0,0,1,12.351-2.018c.646.14.373,1.139-.274,1a16.071,16.071,0,0,0-11.122,1.667,26.659,26.659,0,0,1,11.287,5.755,25.93,25.93,0,0,1,2.773,2.781c.43.5-.293,1.239-.727.733a25.433,25.433,0,0,0-14.677-8.5c-.6-.114-.408-.985.144-1.008" transform="translate(70.934 -378.467)" fill="#2d1f2a"/>
        <path id="Trazado_874160" data-name="Trazado 874160" d="M382.864,315a7.231,7.231,0,0,1,4.015,1.721.516.516,0,1,1-.727.733,6.261,6.261,0,0,0-1.541-.961,6.373,6.373,0,0,0-.862-.293,5.884,5.884,0,0,0-.885-.164.531.531,0,0,1-.514-.518.52.52,0,0,1,.514-.518" transform="translate(-348.52 -220.596)" fill="#2d1f2a"/>
        <path id="Trazado_874161" data-name="Trazado 874161" d="M142.773,345.531l3.64-.576a.53.53,0,0,1,.632.362.522.522,0,0,1-.359.637l-3.64.576a.529.529,0,0,1-.632-.362.523.523,0,0,1,.359-.638" transform="translate(-36.642 -241.57)" fill="#2d1f2a"/>
        <path id="Trazado_874162" data-name="Trazado 874162" d="M122.87,674.572a.522.522,0,0,1,.773-.447,90.642,90.642,0,0,0,15.4,5.663q1.889.506,3.8.929a.518.518,0,0,1,.984.019q1.026,3.924,1.972,7.87a.523.523,0,0,1-.632.637,113.745,113.745,0,0,1-17.7-4.276q-2.441-.8-4.844-1.714a.53.53,0,0,1-.377-.5q.312-4.091.625-8.182m17.511,12.756c1.4.288,2.816.542,4.23.776q-.762-3.149-1.575-6.285a91.306,91.306,0,0,1-15.622-4.892c-1.2-.5-2.394-1.03-3.576-1.579q-.269,3.528-.539,7.055a113.819,113.819,0,0,0,17.082,4.925" transform="translate(-29.352 -472.054)" fill="#2d1f2a"/>
        <path id="Trazado_874163" data-name="Trazado 874163" d="M377.223,678.521l1.653-5.343a7.05,7.05,0,0,1,.816-2,2.7,2.7,0,0,1,1.856-1.127c1.813-.309,3.65-.516,5.47-.773l5.527-.778,5.394-.759a.582.582,0,0,1,.551-.078l.28-.039a.531.531,0,0,1,.632.362.522.522,0,0,1-.359.637l-.316.045q-.182,2.58-.365,5.159a2.9,2.9,0,0,1-.722,2.2,4.729,4.729,0,0,1-2.336.658q-5.616.877-11.246,1.652-3.169.436-6.341.84a.52.52,0,0,1-.5-.656m11.115-1.826q2.654-.385,5.305-.794c.88-.135,1.766-.25,2.641-.415a1.255,1.255,0,0,0,.794-.347,1.845,1.845,0,0,0,.236-.994q.191-2.665.376-5.33l-9.319,1.311-5.336.751a4.373,4.373,0,0,0-2.208.554,3.463,3.463,0,0,0-.848,1.658q-.771,2.477-1.532,4.956,4.951-.636,9.892-1.35" transform="translate(-359.37 -467.54)" fill="#2d1f2a"/>
        <path id="Trazado_874164" data-name="Trazado 874164" d="M275.183,14.568c.155-.648,1.146-.374.991.275a15.351,15.351,0,0,0,.013,7.178c.157.648-.834.924-.991.275a16.523,16.523,0,0,1-.013-7.728" transform="translate(-205.443 -9.943)" fill="#2d1f2a"/>
        <path id="Trazado_874165" data-name="Trazado 874165" d="M126.4,48.4a.515.515,0,0,1,.7-.186c4.3,3.086,8.507,6.308,12.521,9.763a107.51,107.51,0,0,1,11.256,11.109,72.779,72.779,0,0,1,8.956,12.763,59.19,59.19,0,0,1,3.293,7.142A36.743,36.743,0,0,1,165.154,96c.741,4.418.53,9.521-2.578,13.033a9.677,9.677,0,0,1-1.2,1.137.516.516,0,0,1-.727-.733c3.564-2.855,4.179-7.671,3.684-11.966a31.443,31.443,0,0,0-1.679-6.809,56.086,56.086,0,0,0-3.037-7.033,69.279,69.279,0,0,0-8.464-12.636A102.512,102.512,0,0,0,140.312,59.94c-3.893-3.447-7.987-6.655-12.182-9.717q-.768-.561-1.541-1.115a.535.535,0,0,1-.184-.709" transform="translate(-50.279 -33.712)" fill="#2d1f2a"/>
        <path id="Trazado_874166" data-name="Trazado 874166" d="M178.4,38.907a31.122,31.122,0,0,1,15.768,3.166,30.306,30.306,0,0,1,3.961,2.348c.54.378.026,1.277-.518.9A29.9,29.9,0,0,0,178.4,39.944c-.66.044-.658-.993,0-1.036" transform="translate(-98.586 -27.201)" fill="#2d1f2a"/>
        <path id="Trazado_874167" data-name="Trazado 874167" d="M194.5,33.478a7.322,7.322,0,0,1,6.208,1.7c.5.44-.23,1.17-.727.733a6.226,6.226,0,0,0-5.207-1.433.518.518,0,0,1-.273-1" transform="translate(-105.958 -23.355)" fill="#2d1f2a"/>
        <path id="Trazado_874168" data-name="Trazado 874168" d="M268.986,345.163a7.313,7.313,0,0,1-6.351-1.026c-.542-.384.106-1.188.646-.806a6.22,6.22,0,0,0,5.329.868.518.518,0,0,1,.377.964" transform="translate(-194.862 -240.368)" fill="#2d1f2a"/>
        <path id="Trazado_874169" data-name="Trazado 874169" d="M298.239,91.441a57.632,57.632,0,0,1,2.127-12.826,68.928,68.928,0,0,1,10.6-22.059,67.43,67.43,0,0,1,8.046-9.231q.548-.523,1.109-1.033c.49-.446,1.219.284.727.733a65.967,65.967,0,0,0-8.121,8.878,68.435,68.435,0,0,0-6.418,10.234,67.389,67.389,0,0,0-4.5,11.192,59.846,59.846,0,0,0-2.432,12.367,32.7,32.7,0,0,0,1.347,13.17c.18.529.378,1.05.591,1.565a.521.521,0,0,1-.359.637.527.527,0,0,1-.632-.362,31.236,31.236,0,0,1-2.082-13.265" transform="translate(-257.284 -32.321)" fill="#2d1f2a"/>
        <path id="Trazado_874170" data-name="Trazado 874170" d="M375.581,166.36a20.579,20.579,0,0,1,1.692-4.4c.308-.59,1.2-.067.887.523a20.472,20.472,0,0,0-1.314,15.341,19.346,19.346,0,0,0,1.791,4.072.515.515,0,0,1-.887.523,21.539,21.539,0,0,1-2.169-16.055" transform="translate(-337.974 -113.238)" fill="#2d1f2a"/>
        <path id="Trazado_874171" data-name="Trazado 874171" d="M94.78,230.727a18.828,18.828,0,0,0,6.042-10.654,18.09,18.09,0,0,0,.3-3.549.514.514,0,0,1,1.028,0,19.882,19.882,0,0,1-4.125,12.246,18.8,18.8,0,0,1-2.521,2.69c-.5.435-1.227-.295-.727-.733" transform="translate(22.585 -151.284)" fill="#2d1f2a"/>
        <path id="Trazado_874172" data-name="Trazado 874172" d="M149.074,203.386a18.9,18.9,0,0,0-3.613-11.72,17.857,17.857,0,0,0-2.368-2.643.517.517,0,0,1,.7-.759,19.825,19.825,0,0,1,6.074,11.391,19.006,19.006,0,0,1,.233,3.694c-.023.664-1.05.7-1.027.037" transform="translate(-39.852 -131.748)" fill="#2d1f2a"/>
      </g>
    </g>
  </g>
</svg>
