<svg xmlns="http://www.w3.org/2000/svg" width="400" height="657" viewBox="0 0 400 657">
  <g id="img3_1" transform="translate(4290 10081)">
    <g id="Grupo_1099560" data-name="Grupo 1099560" transform="translate(0 21)">
      <rect id="Rectángulo_378860" data-name="Rectángulo 378860" width="400" height="657" transform="translate(-3890 -9445) rotate(180)" fill="#deecfb"/>
      <rect id="Rectángulo_400937" data-name="Rectángulo 400937" width="370" height="103" rx="16" transform="translate(-4276 -10028)" fill="#315884"/>
      <rect id="Rectángulo_400938" data-name="Rectángulo 400938" width="370" height="103" rx="16" transform="translate(-4276 -9913)" fill="#85b6ec"/>
      <rect id="Rectángulo_400939" data-name="Rectángulo 400939" width="370" height="103" rx="16" transform="translate(-4276 -9797)" fill="#59c4c8"/>
      <rect id="Rectángulo_400940" data-name="Rectángulo 400940" width="370" height="103" rx="16" transform="translate(-4276 -9682)" fill="#ffb074"/>
      <path id="Feature_One" data-name="Feature One" d="M.859,15V3.625H4.523a5.39,5.39,0,0,1,2.711.684,4.805,4.805,0,0,1,1.879,1.93A5.826,5.826,0,0,1,9.8,9.031v.523a5.86,5.86,0,0,1-.66,2.8,4.826,4.826,0,0,1-1.859,1.938A5.271,5.271,0,0,1,4.6,15ZM3.6,5.742v7.148h.953a2.133,2.133,0,0,0,1.813-.84A4.116,4.116,0,0,0,7,9.555V9.063a4.082,4.082,0,0,0-.633-2.484,2.17,2.17,0,0,0-1.844-.836Zm11.57,9.414A4.345,4.345,0,0,1,12.023,14a4.006,4.006,0,0,1-1.2-3.02v-.219a5.191,5.191,0,0,1,.48-2.289,3.516,3.516,0,0,1,1.4-1.535,4.233,4.233,0,0,1,2.188-.543A3.659,3.659,0,0,1,17.7,7.5a4.344,4.344,0,0,1,1.031,3.082V11.6H13.5a1.9,1.9,0,0,0,.617,1.117,1.836,1.836,0,0,0,1.234.406A2.366,2.366,0,0,0,17.3,12.25l1.2,1.422a3.363,3.363,0,0,1-1.395,1.082A4.713,4.713,0,0,1,15.172,15.156Zm-.3-6.734q-1.156,0-1.375,1.531h2.656v-.2a1.3,1.3,0,0,0-.32-.98A1.275,1.275,0,0,0,14.875,8.422ZM20.406,15V8.375H19.18V6.547h1.227V6.266A3.228,3.228,0,0,1,21.516,3.68,4.433,4.433,0,0,1,24.4,2.836a10.23,10.23,0,0,1,2.75.453l-.359,2.078-.437-.117a6.962,6.962,0,0,0-1.8-.227q-1.508,0-1.508,1.375v.148H24.7V8.375H23.047V15Zm7.953,0H25.711V6.547h2.648Zm4.023-8.453.086.992a2.867,2.867,0,0,1,2.414-1.148,2.412,2.412,0,0,1,1.973.789,3.757,3.757,0,0,1,.676,2.375V15H34.891V9.664a1.426,1.426,0,0,0-.258-.941,1.193,1.193,0,0,0-.937-.3,1.256,1.256,0,0,0-1.148.609V15H29.914V6.547ZM41.766,15H39.125V6.547h2.641Zm-2.8-10.633a1.175,1.175,0,0,1,.406-.922,1.727,1.727,0,0,1,2.109,0,1.175,1.175,0,0,1,.406.922,1.175,1.175,0,0,1-.406.922,1.727,1.727,0,0,1-2.109,0A1.175,1.175,0,0,1,38.969,4.367ZM48.5,8.93l-.867-.062a1.558,1.558,0,0,0-1.594.781V15H43.406V6.547h2.469l.086,1.086a2.039,2.039,0,0,1,1.852-1.242,2.567,2.567,0,0,1,.734.094ZM53.1,10.7a4.989,4.989,0,0,1,.492-2.254,3.52,3.52,0,0,1,1.414-1.52,4.259,4.259,0,0,1,2.164-.531,3.887,3.887,0,0,1,2.992,1.176,4.512,4.512,0,0,1,1.094,3.2v.094A4.378,4.378,0,0,1,60.16,14a3.9,3.9,0,0,1-2.973,1.16,3.942,3.942,0,0,1-2.9-1.082,4.232,4.232,0,0,1-1.18-2.934Zm2.633.164a3.145,3.145,0,0,0,.367,1.719,1.223,1.223,0,0,0,1.086.547q1.406,0,1.438-2.164V10.7q0-2.273-1.453-2.273-1.32,0-1.43,1.961Zm14.531-.016a5.152,5.152,0,0,1-.859,3.2,2.878,2.878,0,0,1-2.422,1.117,2.5,2.5,0,0,1-2.078-1.023L64.8,15H62.438V3H65.07V7.227a2.41,2.41,0,0,1,1.9-.836,2.879,2.879,0,0,1,2.438,1.133,5.179,5.179,0,0,1,.859,3.188Zm-2.641-.168A3.437,3.437,0,0,0,67.3,8.941a1.093,1.093,0,0,0-1-.519A1.261,1.261,0,0,0,65.07,9.1v3.354a1.268,1.268,0,0,0,1.25.671,1.118,1.118,0,0,0,1.18-.9A6.5,6.5,0,0,0,67.625,10.676Zm6.633-4.129v8.742A3.068,3.068,0,0,1,73.4,17.6a3.3,3.3,0,0,1-2.375.813,5.607,5.607,0,0,1-1.242-.133V16.289a5.037,5.037,0,0,0,.742.07.963.963,0,0,0,1.094-1.086V6.547Zm-2.836-2.18a1.175,1.175,0,0,1,.406-.922,1.727,1.727,0,0,1,2.109,0,1.175,1.175,0,0,1,.406.922,1.175,1.175,0,0,1-.406.922,1.727,1.727,0,0,1-2.109,0A1.175,1.175,0,0,1,71.422,4.367Zm8.414,10.789A4.345,4.345,0,0,1,76.688,14a4.006,4.006,0,0,1-1.2-3.02v-.219a5.191,5.191,0,0,1,.48-2.289,3.516,3.516,0,0,1,1.4-1.535,4.233,4.233,0,0,1,2.188-.543A3.659,3.659,0,0,1,82.367,7.5,4.344,4.344,0,0,1,83.4,10.578V11.6H78.164a1.9,1.9,0,0,0,.617,1.117,1.836,1.836,0,0,0,1.234.406,2.366,2.366,0,0,0,1.953-.875l1.2,1.422a3.363,3.363,0,0,1-1.395,1.082A4.713,4.713,0,0,1,79.836,15.156Zm-.3-6.734q-1.156,0-1.375,1.531H80.82v-.2a1.3,1.3,0,0,0-.32-.98A1.275,1.275,0,0,0,79.539,8.422Zm7.984-3.977v2.1h1.391V8.375H87.523v3.867a.987.987,0,0,0,.172.664.922.922,0,0,0,.68.188,3.862,3.862,0,0,0,.656-.047V14.93a4.859,4.859,0,0,1-1.484.227,2.758,2.758,0,0,1-2.008-.641,2.626,2.626,0,0,1-.648-1.945v-4.2H83.813V6.547h1.078v-2.1ZM92.727,15H90.086V6.547h2.641ZM89.93,4.367a1.175,1.175,0,0,1,.406-.922,1.727,1.727,0,0,1,2.109,0,1.175,1.175,0,0,1,.406.922,1.175,1.175,0,0,1-.406.922,1.727,1.727,0,0,1-2.109,0A1.175,1.175,0,0,1,89.93,4.367Zm7.789,7.5,1.336-5.32h2.773L99.07,15H96.383L93.625,6.547h2.781Zm4.445-1.172a4.989,4.989,0,0,1,.492-2.254,3.52,3.52,0,0,1,1.414-1.52,4.259,4.259,0,0,1,2.164-.531,3.887,3.887,0,0,1,2.992,1.176,4.512,4.512,0,0,1,1.094,3.2v.094a4.378,4.378,0,0,1-1.1,3.137,3.9,3.9,0,0,1-2.973,1.16,3.942,3.942,0,0,1-2.9-1.082,4.232,4.232,0,0,1-1.18-2.934Zm2.633.164a3.145,3.145,0,0,0,.367,1.719,1.223,1.223,0,0,0,1.086.547q1.406,0,1.438-2.164V10.7q0-2.273-1.453-2.273-1.32,0-1.43,1.961Zm11.109,1.766a.608.608,0,0,0-.352-.539,5.348,5.348,0,0,0-1.336-.422,6.092,6.092,0,0,1-1.625-.574,2.722,2.722,0,0,1-.977-.863,2.061,2.061,0,0,1-.336-1.164,2.336,2.336,0,0,1,.961-1.918,3.958,3.958,0,0,1,2.516-.754,4.386,4.386,0,0,1,2.688.758,2.37,2.37,0,0,1,1.016,1.992H115.82q0-1.016-1.07-1.016a1.061,1.061,0,0,0-.7.23.714.714,0,0,0-.281.574.655.655,0,0,0,.344.57,3.248,3.248,0,0,0,1.1.359,9.486,9.486,0,0,1,1.324.336,2.406,2.406,0,0,1,1.906,2.352,2.214,2.214,0,0,1-1.027,1.883,4.505,4.505,0,0,1-2.66.727,4.6,4.6,0,0,1-1.937-.391,3.24,3.24,0,0,1-1.328-1.062,2.406,2.406,0,0,1-.477-1.414h2.461a1.017,1.017,0,0,0,.391.855,1.607,1.607,0,0,0,.961.27,1.264,1.264,0,0,0,.809-.219A.7.7,0,0,0,115.906,12.625Z" transform="translate(-4110 -9986)" fill="#fff"/>
      <path id="Feature_One-2" data-name="Feature One" d="M3.781,15H1.047V3.625H3.781ZM8.055,6.547l.086.992a2.906,2.906,0,0,1,2.414-1.148,2.14,2.14,0,0,1,2.164,1.273A2.813,2.813,0,0,1,15.2,6.391q2.57,0,2.641,3.109V15H15.2V9.664a1.611,1.611,0,0,0-.219-.945.931.931,0,0,0-.8-.3,1.247,1.247,0,0,0-1.164.7l.008.109V15H10.391V9.68a1.694,1.694,0,0,0-.211-.961.929.929,0,0,0-.8-.3,1.263,1.263,0,0,0-1.156.7V15H5.586V6.547ZM27.2,10.836a5.1,5.1,0,0,1-.887,3.145,2.843,2.843,0,0,1-2.395,1.176A2.437,2.437,0,0,1,22,14.3V18.25H19.367V6.547h2.461l.078.781A2.437,2.437,0,0,1,23.9,6.391a2.866,2.866,0,0,1,2.43,1.152,5.16,5.16,0,0,1,.867,3.168Zm-2.633-.164q0-2.25-1.312-2.25A1.239,1.239,0,0,0,22,9.094v3.328a1.279,1.279,0,0,0,1.266.7q1.258,0,1.3-2.172ZM31.133,15H28.492V3h2.641Zm5.711.156A4.345,4.345,0,0,1,33.7,14a4.006,4.006,0,0,1-1.2-3.02v-.219a5.191,5.191,0,0,1,.48-2.289,3.516,3.516,0,0,1,1.4-1.535,4.233,4.233,0,0,1,2.188-.543A3.659,3.659,0,0,1,39.375,7.5a4.344,4.344,0,0,1,1.031,3.082V11.6H35.172a1.9,1.9,0,0,0,.617,1.117,1.836,1.836,0,0,0,1.234.406,2.366,2.366,0,0,0,1.953-.875l1.2,1.422a3.363,3.363,0,0,1-1.395,1.082A4.713,4.713,0,0,1,36.844,15.156Zm-.3-6.734q-1.156,0-1.375,1.531h2.656v-.2a1.3,1.3,0,0,0-.32-.98A1.275,1.275,0,0,0,36.547,8.422Zm7.406-1.875.086.992a2.906,2.906,0,0,1,2.414-1.148,2.14,2.14,0,0,1,2.164,1.273A2.813,2.813,0,0,1,51.1,6.391q2.57,0,2.641,3.109V15H51.1V9.664a1.611,1.611,0,0,0-.219-.945.931.931,0,0,0-.8-.3,1.247,1.247,0,0,0-1.164.7l.008.109V15H46.289V9.68a1.694,1.694,0,0,0-.211-.961.929.929,0,0,0-.8-.3,1.263,1.263,0,0,0-1.156.7V15H41.484V6.547Zm15.383,8.609A4.345,4.345,0,0,1,56.188,14a4.006,4.006,0,0,1-1.2-3.02v-.219a5.191,5.191,0,0,1,.48-2.289,3.516,3.516,0,0,1,1.4-1.535,4.233,4.233,0,0,1,2.188-.543A3.659,3.659,0,0,1,61.867,7.5,4.344,4.344,0,0,1,62.9,10.578V11.6H57.664a1.9,1.9,0,0,0,.617,1.117,1.836,1.836,0,0,0,1.234.406,2.366,2.366,0,0,0,1.953-.875l1.2,1.422a3.363,3.363,0,0,1-1.395,1.082A4.713,4.713,0,0,1,59.336,15.156Zm-.3-6.734q-1.156,0-1.375,1.531H60.32v-.2A1.3,1.3,0,0,0,60,8.77,1.275,1.275,0,0,0,59.039,8.422Zm7.336-1.875.086.992a2.867,2.867,0,0,1,2.414-1.148,2.412,2.412,0,0,1,1.973.789,3.757,3.757,0,0,1,.676,2.375V15H68.883V9.664a1.426,1.426,0,0,0-.258-.941,1.193,1.193,0,0,0-.937-.3,1.256,1.256,0,0,0-1.148.609V15H63.906V6.547Zm9.672-2.1v2.1h1.391V8.375H76.047v3.867a.987.987,0,0,0,.172.664.922.922,0,0,0,.68.188,3.862,3.862,0,0,0,.656-.047V14.93a4.859,4.859,0,0,1-1.484.227,2.758,2.758,0,0,1-2.008-.641,2.626,2.626,0,0,1-.648-1.945v-4.2H72.336V6.547h1.078v-2.1ZM83.234,15a2.973,2.973,0,0,1-.25-.758,2.448,2.448,0,0,1-2.031.914,3,3,0,0,1-2.031-.723,2.3,2.3,0,0,1-.836-1.816A2.364,2.364,0,0,1,79.1,10.539a5.174,5.174,0,0,1,2.953-.7h.813V9.388q0-1.17-1.008-1.17a.824.824,0,0,0-.937.926H78.289a2.36,2.36,0,0,1,1.043-1.99,4.383,4.383,0,0,1,2.66-.765,3.843,3.843,0,0,1,2.555.789,2.743,2.743,0,0,1,.961,2.164v3.742a3.832,3.832,0,0,0,.359,1.781V15Zm-1.648-1.719a1.469,1.469,0,0,0,.816-.211,1.322,1.322,0,0,0,.465-.477V11.242H82.1q-1.375,0-1.375,1.234a.754.754,0,0,0,.242.582A.876.876,0,0,0,81.586,13.281ZM92.078,8.93l-.867-.062a1.558,1.558,0,0,0-1.594.781V15H86.984V6.547h2.469l.086,1.086a2.039,2.039,0,0,1,1.852-1.242,2.567,2.567,0,0,1,.734.094ZM4.828,35.156A4.345,4.345,0,0,1,1.68,34a4.006,4.006,0,0,1-1.2-3.02v-.219a5.191,5.191,0,0,1,.48-2.289,3.516,3.516,0,0,1,1.4-1.535,4.233,4.233,0,0,1,2.188-.543A3.659,3.659,0,0,1,7.359,27.5a4.344,4.344,0,0,1,1.031,3.082V31.6H3.156a1.9,1.9,0,0,0,.617,1.117,1.836,1.836,0,0,0,1.234.406,2.366,2.366,0,0,0,1.953-.875l1.2,1.422A3.363,3.363,0,0,1,6.77,34.754,4.713,4.713,0,0,1,4.828,35.156Zm-.3-6.734q-1.156,0-1.375,1.531H5.813v-.2a1.3,1.3,0,0,0-.32-.98A1.275,1.275,0,0,0,4.531,28.422Zm9.344,4.2a.608.608,0,0,0-.352-.539,5.348,5.348,0,0,0-1.336-.422,6.092,6.092,0,0,1-1.625-.574,2.722,2.722,0,0,1-.977-.863,2.061,2.061,0,0,1-.336-1.164,2.336,2.336,0,0,1,.961-1.918,3.958,3.958,0,0,1,2.516-.754,4.386,4.386,0,0,1,2.688.758,2.37,2.37,0,0,1,1.016,1.992H13.789q0-1.016-1.07-1.016a1.061,1.061,0,0,0-.7.23.714.714,0,0,0-.281.574.655.655,0,0,0,.344.57,3.248,3.248,0,0,0,1.1.359,9.485,9.485,0,0,1,1.324.336,2.406,2.406,0,0,1,1.906,2.352,2.214,2.214,0,0,1-1.027,1.883,4.505,4.505,0,0,1-2.66.727,4.6,4.6,0,0,1-1.937-.391A3.24,3.24,0,0,1,9.461,33.7a2.406,2.406,0,0,1-.477-1.414h2.461a1.017,1.017,0,0,0,.391.855,1.607,1.607,0,0,0,.961.27,1.264,1.264,0,0,0,.809-.219A.7.7,0,0,0,13.875,32.625Zm6.836-8.18v2.1H22.1v1.828H20.711v3.867a.987.987,0,0,0,.172.664.922.922,0,0,0,.68.188,3.862,3.862,0,0,0,.656-.047V34.93a4.859,4.859,0,0,1-1.484.227,2.758,2.758,0,0,1-2.008-.641,2.626,2.626,0,0,1-.648-1.945v-4.2H17V26.547h1.078v-2.1ZM28.25,28.93l-.867-.062a1.558,1.558,0,0,0-1.594.781V35H23.156V26.547h2.469l.086,1.086a2.039,2.039,0,0,1,1.852-1.242,2.567,2.567,0,0,1,.734.094ZM33.727,35a2.973,2.973,0,0,1-.25-.758,2.448,2.448,0,0,1-2.031.914,3,3,0,0,1-2.031-.723,2.3,2.3,0,0,1-.836-1.816,2.364,2.364,0,0,1,1.016-2.078,5.174,5.174,0,0,1,2.953-.7h.813v-.448q0-1.17-1.008-1.17a.824.824,0,0,0-.937.926H28.781a2.36,2.36,0,0,1,1.043-1.99,4.383,4.383,0,0,1,2.66-.765,3.843,3.843,0,0,1,2.555.789A2.743,2.743,0,0,1,36,29.344v3.742a3.832,3.832,0,0,0,.359,1.781V35Zm-1.648-1.719a1.469,1.469,0,0,0,.816-.211,1.322,1.322,0,0,0,.465-.477V31.242h-.766q-1.375,0-1.375,1.234a.754.754,0,0,0,.242.582A.876.876,0,0,0,32.078,33.281Zm8.445-8.836v2.1h1.391v1.828H40.523v3.867a.987.987,0,0,0,.172.664.922.922,0,0,0,.68.188,3.862,3.862,0,0,0,.656-.047V34.93a4.859,4.859,0,0,1-1.484.227,2.758,2.758,0,0,1-2.008-.641,2.626,2.626,0,0,1-.648-1.945v-4.2H36.813V26.547h1.078v-2.1Zm6.516,10.711A4.345,4.345,0,0,1,43.891,34a4.006,4.006,0,0,1-1.2-3.02v-.219a5.191,5.191,0,0,1,.48-2.289,3.516,3.516,0,0,1,1.4-1.535,4.233,4.233,0,0,1,2.188-.543A3.659,3.659,0,0,1,49.57,27.5,4.344,4.344,0,0,1,50.6,30.578V31.6H45.367a1.9,1.9,0,0,0,.617,1.117,1.836,1.836,0,0,0,1.234.406,2.366,2.366,0,0,0,1.953-.875l1.2,1.422a3.363,3.363,0,0,1-1.395,1.082A4.713,4.713,0,0,1,47.039,35.156Zm-.3-6.734q-1.156,0-1.375,1.531h2.656v-.2a1.3,1.3,0,0,0-.32-.98A1.275,1.275,0,0,0,46.742,28.422Zm4.609,2.289a5.708,5.708,0,0,1,.422-2.266,3.4,3.4,0,0,1,1.211-1.52,3.192,3.192,0,0,1,1.836-.535,2.538,2.538,0,0,1,2.063.891l.094-.734h2.391V34.68a3.564,3.564,0,0,1-.52,1.941,3.334,3.334,0,0,1-1.5,1.266,5.528,5.528,0,0,1-2.281.441,4.769,4.769,0,0,1-1.8-.352,3.251,3.251,0,0,1-1.332-.914l1.1-1.547a2.414,2.414,0,0,0,1.938.867,1.568,1.568,0,0,0,1.75-1.8V34.32a2.472,2.472,0,0,1-1.914.836,3.055,3.055,0,0,1-2.5-1.184,4.9,4.9,0,0,1-.953-3.168Zm2.641.164a3.007,3.007,0,0,0,.391,1.645,1.232,1.232,0,0,0,1.094.605,1.4,1.4,0,0,0,1.242-.57V29a1.363,1.363,0,0,0-1.227-.578,1.241,1.241,0,0,0-1.1.629A3.429,3.429,0,0,0,53.992,30.875ZM63.641,35H61V26.547h2.641Zm-2.8-10.633a1.175,1.175,0,0,1,.406-.922,1.727,1.727,0,0,1,2.109,0,1.249,1.249,0,0,1,0,1.844,1.727,1.727,0,0,1-2.109,0A1.175,1.175,0,0,1,60.844,24.367ZM70.023,35a2.973,2.973,0,0,1-.25-.758,2.448,2.448,0,0,1-2.031.914,3,3,0,0,1-2.031-.723,2.3,2.3,0,0,1-.836-1.816,2.364,2.364,0,0,1,1.016-2.078,5.174,5.174,0,0,1,2.953-.7h.813v-.448q0-1.17-1.008-1.17a.824.824,0,0,0-.937.926H65.078a2.36,2.36,0,0,1,1.043-1.99,4.383,4.383,0,0,1,2.66-.765,3.843,3.843,0,0,1,2.555.789,2.743,2.743,0,0,1,.961,2.164v3.742a3.832,3.832,0,0,0,.359,1.781V35Zm-1.648-1.719a1.469,1.469,0,0,0,.816-.211,1.322,1.322,0,0,0,.465-.477V31.242h-.766q-1.375,0-1.375,1.234a.754.754,0,0,0,.242.582A.876.876,0,0,0,68.375,33.281Zm9.8-.656a.608.608,0,0,0-.352-.539,5.348,5.348,0,0,0-1.336-.422,6.092,6.092,0,0,1-1.625-.574,2.722,2.722,0,0,1-.977-.863,2.061,2.061,0,0,1-.336-1.164,2.336,2.336,0,0,1,.961-1.918,3.958,3.958,0,0,1,2.516-.754,4.386,4.386,0,0,1,2.688.758,2.37,2.37,0,0,1,1.016,1.992H78.094q0-1.016-1.07-1.016a1.061,1.061,0,0,0-.7.23.714.714,0,0,0-.281.574.655.655,0,0,0,.344.57,3.248,3.248,0,0,0,1.1.359,9.486,9.486,0,0,1,1.324.336,2.406,2.406,0,0,1,1.906,2.352,2.214,2.214,0,0,1-1.027,1.883,4.505,4.505,0,0,1-2.66.727,4.6,4.6,0,0,1-1.937-.391A3.24,3.24,0,0,1,73.766,33.7a2.406,2.406,0,0,1-.477-1.414H75.75a1.017,1.017,0,0,0,.391.855,1.607,1.607,0,0,0,.961.27,1.264,1.264,0,0,0,.809-.219A.7.7,0,0,0,78.18,32.625Z" transform="translate(-4110 -9881)" fill="#12263f"/>
      <path id="Feature_One-3" data-name="Feature One" d="M4.461,3.625,7,11.539,9.531,3.625h3.609V15h-2.75V12.344l.266-5.437L7.906,15H6.094L3.336,6.9,3.6,12.344V15H.859V3.625ZM18.852,15.156A4.345,4.345,0,0,1,15.7,14a4.006,4.006,0,0,1-1.2-3.02v-.219a5.191,5.191,0,0,1,.48-2.289,3.516,3.516,0,0,1,1.4-1.535,4.233,4.233,0,0,1,2.188-.543A3.659,3.659,0,0,1,21.383,7.5a4.344,4.344,0,0,1,1.031,3.082V11.6H17.18a1.9,1.9,0,0,0,.617,1.117,1.836,1.836,0,0,0,1.234.406,2.366,2.366,0,0,0,1.953-.875l1.2,1.422a3.363,3.363,0,0,1-1.395,1.082A4.713,4.713,0,0,1,18.852,15.156Zm-.3-6.734q-1.156,0-1.375,1.531h2.656v-.2a1.3,1.3,0,0,0-.32-.98A1.275,1.275,0,0,0,18.555,8.422Zm4.586,2.289a5.164,5.164,0,0,1,.867-3.164A2.854,2.854,0,0,1,26.43,6.391a2.428,2.428,0,0,1,1.906.891V3h2.641V15H28.609l-.133-.906a2.493,2.493,0,0,1-2.062,1.063A2.849,2.849,0,0,1,24.023,14,5.327,5.327,0,0,1,23.141,10.711Zm2.633.164q0,2.25,1.313,2.25a1.3,1.3,0,0,0,1.25-.734V9.172a1.261,1.261,0,0,0-1.234-.75q-1.219,0-1.32,1.969ZM35.25,15H32.609V6.547H35.25Zm-2.8-10.633a1.175,1.175,0,0,1,.406-.922,1.727,1.727,0,0,1,2.109,0,1.175,1.175,0,0,1,.406.922,1.175,1.175,0,0,1-.406.922,1.727,1.727,0,0,1-2.109,0A1.175,1.175,0,0,1,32.453,4.367ZM41.984,8.93l-.867-.062a1.558,1.558,0,0,0-1.594.781V15H36.891V6.547h2.469l.086,1.086A2.039,2.039,0,0,1,41.3,6.391a2.567,2.567,0,0,1,.734.094Zm-36.133,20-.867-.062a1.558,1.558,0,0,0-1.594.781V35H.758V26.547H3.227l.086,1.086a2.039,2.039,0,0,1,1.852-1.242,2.567,2.567,0,0,1,.734.094Zm4.891,6.227A4.345,4.345,0,0,1,7.594,34a4.006,4.006,0,0,1-1.2-3.02v-.219a5.191,5.191,0,0,1,.48-2.289,3.516,3.516,0,0,1,1.4-1.535,4.233,4.233,0,0,1,2.188-.543A3.659,3.659,0,0,1,13.273,27.5,4.344,4.344,0,0,1,14.3,30.578V31.6H9.07a1.9,1.9,0,0,0,.617,1.117,1.836,1.836,0,0,0,1.234.406,2.366,2.366,0,0,0,1.953-.875l1.2,1.422a3.363,3.363,0,0,1-1.395,1.082A4.713,4.713,0,0,1,10.742,35.156Zm-.3-6.734q-1.156,0-1.375,1.531h2.656v-.2a1.3,1.3,0,0,0-.32-.98A1.275,1.275,0,0,0,10.445,28.422Zm7.336-1.875.086.992a2.867,2.867,0,0,1,2.414-1.148,2.412,2.412,0,0,1,1.973.789,3.757,3.757,0,0,1,.676,2.375V35H20.289V29.664a1.426,1.426,0,0,0-.258-.941,1.193,1.193,0,0,0-.937-.3,1.256,1.256,0,0,0-1.148.609V35H15.313V26.547Zm6.273,4.164a5.164,5.164,0,0,1,.867-3.164,2.854,2.854,0,0,1,2.422-1.156,2.428,2.428,0,0,1,1.906.891V23h2.641V35H29.523l-.133-.906a2.493,2.493,0,0,1-2.062,1.063A2.849,2.849,0,0,1,24.938,34,5.327,5.327,0,0,1,24.055,30.711Zm2.633.164q0,2.25,1.313,2.25a1.3,1.3,0,0,0,1.25-.734V29.172a1.261,1.261,0,0,0-1.234-.75q-1.219,0-1.32,1.969ZM36.164,35H33.523V26.547h2.641Zm-2.8-10.633a1.175,1.175,0,0,1,.406-.922,1.727,1.727,0,0,1,2.109,0,1.249,1.249,0,0,1,0,1.844,1.727,1.727,0,0,1-2.109,0A1.175,1.175,0,0,1,33.367,24.367Zm6.906,2.18.086.992a2.906,2.906,0,0,1,2.414-1.148,2.14,2.14,0,0,1,2.164,1.273,2.813,2.813,0,0,1,2.484-1.273q2.57,0,2.641,3.109V35H47.422V29.664a1.611,1.611,0,0,0-.219-.945.931.931,0,0,0-.8-.3,1.247,1.247,0,0,0-1.164.7l.008.109V35H42.609V29.68a1.694,1.694,0,0,0-.211-.961.929.929,0,0,0-.8-.3,1.263,1.263,0,0,0-1.156.7V35H37.8V26.547ZM54.344,35H51.7V26.547h2.641Zm-2.8-10.633a1.175,1.175,0,0,1,.406-.922,1.727,1.727,0,0,1,2.109,0,1.249,1.249,0,0,1,0,1.844,1.727,1.727,0,0,1-2.109,0A1.175,1.175,0,0,1,51.547,24.367Zm8.508,10.789A4.345,4.345,0,0,1,56.906,34a4.006,4.006,0,0,1-1.2-3.02v-.219a5.191,5.191,0,0,1,.48-2.289,3.516,3.516,0,0,1,1.4-1.535,4.233,4.233,0,0,1,2.188-.543A3.659,3.659,0,0,1,62.586,27.5a4.344,4.344,0,0,1,1.031,3.082V31.6H58.383A1.9,1.9,0,0,0,59,32.719a1.836,1.836,0,0,0,1.234.406,2.366,2.366,0,0,0,1.953-.875l1.2,1.422A3.363,3.363,0,0,1,62,34.754,4.713,4.713,0,0,1,60.055,35.156Zm-.3-6.734q-1.156,0-1.375,1.531h2.656v-.2a1.3,1.3,0,0,0-.32-.98A1.275,1.275,0,0,0,59.758,28.422Zm7.336-1.875.086.992a2.867,2.867,0,0,1,2.414-1.148,2.412,2.412,0,0,1,1.973.789,3.757,3.757,0,0,1,.676,2.375V35H69.6V29.664a1.426,1.426,0,0,0-.258-.941,1.193,1.193,0,0,0-.937-.3,1.256,1.256,0,0,0-1.148.609V35H64.625V26.547Zm9.672-2.1v2.1h1.391v1.828H76.766v3.867a.987.987,0,0,0,.172.664.922.922,0,0,0,.68.188,3.862,3.862,0,0,0,.656-.047V34.93a4.859,4.859,0,0,1-1.484.227,2.758,2.758,0,0,1-2.008-.641,2.626,2.626,0,0,1-.648-1.945v-4.2H73.055V26.547h1.078v-2.1Zm1.859,6.25a4.989,4.989,0,0,1,.492-2.254,3.52,3.52,0,0,1,1.414-1.52,4.259,4.259,0,0,1,2.164-.531,3.887,3.887,0,0,1,2.992,1.176,4.512,4.512,0,0,1,1.094,3.2v.094A4.378,4.378,0,0,1,85.684,34a3.9,3.9,0,0,1-2.973,1.16,3.942,3.942,0,0,1-2.9-1.082,4.232,4.232,0,0,1-1.18-2.934Zm2.633.164a3.145,3.145,0,0,0,.367,1.719,1.223,1.223,0,0,0,1.086.547q1.406,0,1.438-2.164V30.7q0-2.273-1.453-2.273-1.32,0-1.43,1.961Z" transform="translate(-4110 -9765)" fill="#12263f"/>
      <path id="Feature_One-4" data-name="Feature One" d="M7.914,10.172H3.6v2.719H8.7V15H.859V3.625H8.711V5.742H3.6v2.4H7.914Zm4.945,1.7L14.2,6.547h2.773L14.211,15H11.523L8.766,6.547h2.781ZM22.4,15a2.973,2.973,0,0,1-.25-.758,2.448,2.448,0,0,1-2.031.914,3,3,0,0,1-2.031-.723,2.3,2.3,0,0,1-.836-1.816,2.364,2.364,0,0,1,1.016-2.078,5.174,5.174,0,0,1,2.953-.7h.813V9.388q0-1.17-1.008-1.17a.824.824,0,0,0-.937.926H17.453A2.36,2.36,0,0,1,18.5,7.155a4.383,4.383,0,0,1,2.66-.765,3.843,3.843,0,0,1,2.555.789,2.743,2.743,0,0,1,.961,2.164v3.742a3.832,3.832,0,0,0,.359,1.781V15ZM20.75,13.281a1.469,1.469,0,0,0,.816-.211,1.322,1.322,0,0,0,.465-.477V11.242h-.766q-1.375,0-1.375,1.234a.754.754,0,0,0,.242.582A.876.876,0,0,0,20.75,13.281ZM28.906,15H26.266V3h2.641Zm6.656-.914a2.714,2.714,0,0,1-2.258,1.07,2.662,2.662,0,0,1-2.105-.809,3.4,3.4,0,0,1-.715-2.324V6.547h2.633v5.492a.946.946,0,0,0,1.055,1.086,1.376,1.376,0,0,0,1.289-.648V6.547h2.648V15H35.641Zm8.75.914a2.973,2.973,0,0,1-.25-.758,2.448,2.448,0,0,1-2.031.914A3,3,0,0,1,40,14.434a2.3,2.3,0,0,1-.836-1.816,2.364,2.364,0,0,1,1.016-2.078,5.174,5.174,0,0,1,2.953-.7h.813V9.388q0-1.17-1.008-1.17A.824.824,0,0,0,42,9.145H39.367a2.36,2.36,0,0,1,1.043-1.99,4.383,4.383,0,0,1,2.66-.765,3.843,3.843,0,0,1,2.555.789,2.743,2.743,0,0,1,.961,2.164v3.742a3.832,3.832,0,0,0,.359,1.781V15Zm-1.648-1.719a1.469,1.469,0,0,0,.816-.211,1.322,1.322,0,0,0,.465-.477V11.242H43.18q-1.375,0-1.375,1.234a.754.754,0,0,0,.242.582A.876.876,0,0,0,42.664,13.281ZM53.156,8.93l-.867-.062a1.558,1.558,0,0,0-1.594.781V15H48.063V6.547h2.469l.086,1.086a2.039,2.039,0,0,1,1.852-1.242,2.567,2.567,0,0,1,.734.094ZM4.828,35.156A4.345,4.345,0,0,1,1.68,34a4.006,4.006,0,0,1-1.2-3.02v-.219a5.191,5.191,0,0,1,.48-2.289,3.516,3.516,0,0,1,1.4-1.535,4.233,4.233,0,0,1,2.188-.543A3.659,3.659,0,0,1,7.359,27.5a4.344,4.344,0,0,1,1.031,3.082V31.6H3.156a1.9,1.9,0,0,0,.617,1.117,1.836,1.836,0,0,0,1.234.406,2.366,2.366,0,0,0,1.953-.875l1.2,1.422A3.363,3.363,0,0,1,6.77,34.754,4.713,4.713,0,0,1,4.828,35.156Zm-.3-6.734q-1.156,0-1.375,1.531H5.813v-.2a1.3,1.3,0,0,0-.32-.98A1.275,1.275,0,0,0,4.531,28.422ZM10.031,35V28.375H8.8V26.547h1.227v-.672a2.921,2.921,0,0,1,.852-2.242,3.364,3.364,0,0,1,2.391-.8A5.235,5.235,0,0,1,14.508,23l.008,1.938a2.4,2.4,0,0,0-.648-.07q-1.2,0-1.2,1.031v.648H14.32v1.828H12.672V35Zm9.117.156A4.345,4.345,0,0,1,16,34a4.006,4.006,0,0,1-1.2-3.02v-.219a5.191,5.191,0,0,1,.48-2.289,3.516,3.516,0,0,1,1.4-1.535,4.233,4.233,0,0,1,2.188-.543A3.659,3.659,0,0,1,21.68,27.5a4.344,4.344,0,0,1,1.031,3.082V31.6H17.477a1.9,1.9,0,0,0,.617,1.117,1.836,1.836,0,0,0,1.234.406,2.366,2.366,0,0,0,1.953-.875l1.2,1.422a3.363,3.363,0,0,1-1.395,1.082A4.713,4.713,0,0,1,19.148,35.156Zm-.3-6.734q-1.156,0-1.375,1.531h2.656v-.2a1.3,1.3,0,0,0-.32-.98A1.275,1.275,0,0,0,18.852,28.422Zm8.492,4.7a1.171,1.171,0,0,0,.859-.3,1.1,1.1,0,0,0,.3-.84h2.469a2.923,2.923,0,0,1-1,2.281,3.705,3.705,0,0,1-2.566.891A3.751,3.751,0,0,1,24.5,34a4.556,4.556,0,0,1-1.062-3.2v-.109a5.149,5.149,0,0,1,.473-2.262,3.441,3.441,0,0,1,1.363-1.508,4.065,4.065,0,0,1,2.109-.527A3.658,3.658,0,0,1,30,27.3a3.242,3.242,0,0,1,.969,2.477H28.5a1.445,1.445,0,0,0-.32-1.008,1.106,1.106,0,0,0-.859-.352q-1.023,0-1.2,1.3a9.206,9.206,0,0,0-.055,1.141,3.616,3.616,0,0,0,.3,1.766A1.055,1.055,0,0,0,27.344,33.125Zm7.8-8.68v2.1h1.391v1.828H35.148v3.867a.987.987,0,0,0,.172.664.922.922,0,0,0,.68.188,3.862,3.862,0,0,0,.656-.047V34.93a4.859,4.859,0,0,1-1.484.227,2.758,2.758,0,0,1-2.008-.641,2.626,2.626,0,0,1-.648-1.945v-4.2H31.438V26.547h1.078v-2.1ZM40.352,35H37.711V26.547h2.641Zm-2.8-10.633a1.175,1.175,0,0,1,.406-.922,1.727,1.727,0,0,1,2.109,0,1.249,1.249,0,0,1,0,1.844,1.727,1.727,0,0,1-2.109,0A1.175,1.175,0,0,1,37.555,24.367Zm7.789,7.5,1.336-5.32h2.773L46.7,35H44.008L41.25,26.547h2.781ZM53.016,35H50.375V26.547h2.641Zm-2.8-10.633a1.175,1.175,0,0,1,.406-.922,1.727,1.727,0,0,1,2.109,0,1.249,1.249,0,0,1,0,1.844,1.727,1.727,0,0,1-2.109,0A1.175,1.175,0,0,1,50.219,24.367ZM54.3,30.711a5.164,5.164,0,0,1,.867-3.164,2.854,2.854,0,0,1,2.422-1.156,2.428,2.428,0,0,1,1.906.891V23h2.641V35H59.773l-.133-.906a2.493,2.493,0,0,1-2.062,1.063A2.849,2.849,0,0,1,55.188,34,5.327,5.327,0,0,1,54.3,30.711Zm2.633.164q0,2.25,1.313,2.25a1.3,1.3,0,0,0,1.25-.734V29.172a1.261,1.261,0,0,0-1.234-.75q-1.219,0-1.32,1.969ZM68.4,35a2.973,2.973,0,0,1-.25-.758,2.448,2.448,0,0,1-2.031.914,3,3,0,0,1-2.031-.723,2.3,2.3,0,0,1-.836-1.816,2.364,2.364,0,0,1,1.016-2.078,5.174,5.174,0,0,1,2.953-.7h.813v-.448q0-1.17-1.008-1.17a.824.824,0,0,0-.937.926H63.453a2.36,2.36,0,0,1,1.043-1.99,4.383,4.383,0,0,1,2.66-.765,3.843,3.843,0,0,1,2.555.789,2.743,2.743,0,0,1,.961,2.164v3.742a3.832,3.832,0,0,0,.359,1.781V35ZM66.75,33.281a1.469,1.469,0,0,0,.816-.211,1.322,1.322,0,0,0,.465-.477V31.242h-.766q-1.375,0-1.375,1.234a.754.754,0,0,0,.242.582A.876.876,0,0,0,66.75,33.281Zm5.047-2.57a5.164,5.164,0,0,1,.867-3.164,2.854,2.854,0,0,1,2.422-1.156,2.428,2.428,0,0,1,1.906.891V23h2.641V35H77.266l-.133-.906a2.493,2.493,0,0,1-2.062,1.063A2.849,2.849,0,0,1,72.68,34,5.327,5.327,0,0,1,71.8,30.711Zm2.633.164q0,2.25,1.313,2.25a1.3,1.3,0,0,0,1.25-.734V29.172a1.261,1.261,0,0,0-1.234-.75q-1.219,0-1.32,1.969Z" transform="translate(-4110 -9650)" fill="#12263f"/>
      <rect id="Rectángulo_401006" data-name="Rectángulo 401006" width="370" height="103" rx="16" transform="translate(-4276 -9569)" fill="#2a5f61"/>
      <path id="Feature_One-5" data-name="Feature One" d="M4.461,3.625,7,11.539,9.531,3.625h3.609V15h-2.75V12.344l.266-5.437L7.906,15H6.094L3.336,6.9,3.6,12.344V15H.859V3.625ZM18.852,15.156A4.345,4.345,0,0,1,15.7,14a4.006,4.006,0,0,1-1.2-3.02v-.219a5.191,5.191,0,0,1,.48-2.289,3.516,3.516,0,0,1,1.4-1.535,4.233,4.233,0,0,1,2.188-.543A3.659,3.659,0,0,1,21.383,7.5a4.344,4.344,0,0,1,1.031,3.082V11.6H17.18a1.9,1.9,0,0,0,.617,1.117,1.836,1.836,0,0,0,1.234.406,2.366,2.366,0,0,0,1.953-.875l1.2,1.422a3.363,3.363,0,0,1-1.395,1.082A4.713,4.713,0,0,1,18.852,15.156Zm-.3-6.734q-1.156,0-1.375,1.531h2.656v-.2a1.3,1.3,0,0,0-.32-.98A1.275,1.275,0,0,0,18.555,8.422ZM26.3,6.547v8.742a3.068,3.068,0,0,1-.859,2.313,3.3,3.3,0,0,1-2.375.813,5.607,5.607,0,0,1-1.242-.133V16.289a5.037,5.037,0,0,0,.742.07.963.963,0,0,0,1.094-1.086V6.547Zm-2.836-2.18a1.175,1.175,0,0,1,.406-.922,1.727,1.727,0,0,1,2.109,0,1.175,1.175,0,0,1,.406.922,1.175,1.175,0,0,1-.406.922,1.727,1.727,0,0,1-2.109,0A1.175,1.175,0,0,1,23.469,4.367ZM27.461,10.7a4.989,4.989,0,0,1,.492-2.254,3.52,3.52,0,0,1,1.414-1.52,4.259,4.259,0,0,1,2.164-.531,3.887,3.887,0,0,1,2.992,1.176,4.512,4.512,0,0,1,1.094,3.2v.094A4.378,4.378,0,0,1,34.52,14a3.9,3.9,0,0,1-2.973,1.16,3.942,3.942,0,0,1-2.9-1.082,4.232,4.232,0,0,1-1.18-2.934Zm2.633.164a3.145,3.145,0,0,0,.367,1.719,1.223,1.223,0,0,0,1.086.547q1.406,0,1.438-2.164V10.7q0-2.273-1.453-2.273-1.32,0-1.43,1.961Zm11.8-1.93-.867-.062a1.558,1.558,0,0,0-1.594.781V15H36.8V6.547h2.469l.086,1.086A2.039,2.039,0,0,1,41.2,6.391a2.567,2.567,0,0,1,.734.094ZM47.367,15a2.973,2.973,0,0,1-.25-.758,2.448,2.448,0,0,1-2.031.914,3,3,0,0,1-2.031-.723,2.3,2.3,0,0,1-.836-1.816,2.364,2.364,0,0,1,1.016-2.078,5.174,5.174,0,0,1,2.953-.7H47V9.388q0-1.17-1.008-1.17a.824.824,0,0,0-.937.926H42.422a2.36,2.36,0,0,1,1.043-1.99,4.383,4.383,0,0,1,2.66-.765,3.843,3.843,0,0,1,2.555.789,2.743,2.743,0,0,1,.961,2.164v3.742A3.832,3.832,0,0,0,50,14.867V15Zm-1.648-1.719a1.469,1.469,0,0,0,.816-.211A1.322,1.322,0,0,0,47,12.594V11.242h-.766q-1.375,0-1.375,1.234a.754.754,0,0,0,.242.582A.876.876,0,0,0,45.719,13.281Zm12.938-.156a1.171,1.171,0,0,0,.859-.3,1.1,1.1,0,0,0,.3-.84h2.469a2.922,2.922,0,0,1-1,2.281,3.705,3.705,0,0,1-2.566.891A3.751,3.751,0,0,1,55.813,14a4.556,4.556,0,0,1-1.062-3.2v-.109a5.149,5.149,0,0,1,.473-2.262,3.441,3.441,0,0,1,1.363-1.508A4.065,4.065,0,0,1,58.7,6.391a3.658,3.658,0,0,1,2.617.914,3.242,3.242,0,0,1,.969,2.477H59.813a1.445,1.445,0,0,0-.32-1.008,1.106,1.106,0,0,0-.859-.352q-1.023,0-1.2,1.3a9.206,9.206,0,0,0-.055,1.141,3.616,3.616,0,0,0,.3,1.766A1.055,1.055,0,0,0,58.656,13.125Zm4.406-2.43a4.989,4.989,0,0,1,.492-2.254,3.52,3.52,0,0,1,1.414-1.52,4.259,4.259,0,0,1,2.164-.531,3.887,3.887,0,0,1,2.992,1.176,4.512,4.512,0,0,1,1.094,3.2v.094A4.378,4.378,0,0,1,70.121,14a3.9,3.9,0,0,1-2.973,1.16,3.942,3.942,0,0,1-2.9-1.082,4.232,4.232,0,0,1-1.18-2.934Zm2.633.164a3.145,3.145,0,0,0,.367,1.719,1.223,1.223,0,0,0,1.086.547q1.406,0,1.438-2.164V10.7q0-2.273-1.453-2.273-1.32,0-1.43,1.961Zm9.1-4.312.086.992A2.867,2.867,0,0,1,77.3,6.391a2.412,2.412,0,0,1,1.973.789,3.757,3.757,0,0,1,.676,2.375V15H77.3V9.664a1.426,1.426,0,0,0-.258-.941,1.193,1.193,0,0,0-.937-.3,1.256,1.256,0,0,0-1.148.609V15H72.328V6.547Zm9.672-2.1v2.1h1.391V8.375H84.469v3.867a.987.987,0,0,0,.172.664.922.922,0,0,0,.68.188,3.862,3.862,0,0,0,.656-.047V14.93a4.859,4.859,0,0,1-1.484.227,2.758,2.758,0,0,1-2.008-.641,2.626,2.626,0,0,1-.648-1.945v-4.2H80.758V6.547h1.078v-2.1ZM89.672,15H87.031V6.547h2.641Zm-2.8-10.633a1.175,1.175,0,0,1,.406-.922,1.727,1.727,0,0,1,2.109,0,1.175,1.175,0,0,1,.406.922,1.175,1.175,0,0,1-.406.922,1.727,1.727,0,0,1-2.109,0A1.175,1.175,0,0,1,86.875,4.367Zm6.836,2.18.086.992a2.867,2.867,0,0,1,2.414-1.148,2.412,2.412,0,0,1,1.973.789,3.757,3.757,0,0,1,.676,2.375V15H96.219V9.664a1.426,1.426,0,0,0-.258-.941,1.193,1.193,0,0,0-.937-.3,1.256,1.256,0,0,0-1.148.609V15H91.242V6.547Zm11.641,7.539a2.714,2.714,0,0,1-2.258,1.07,2.662,2.662,0,0,1-2.105-.809,3.4,3.4,0,0,1-.715-2.324V6.547h2.633v5.492a.946.946,0,0,0,1.055,1.086,1.376,1.376,0,0,0,1.289-.648V6.547H107.9V15H105.43ZM114.1,15a2.973,2.973,0,0,1-.25-.758,2.448,2.448,0,0,1-2.031.914,3,3,0,0,1-2.031-.723,2.3,2.3,0,0,1-.836-1.816,2.364,2.364,0,0,1,1.016-2.078,5.174,5.174,0,0,1,2.953-.7h.813V9.388q0-1.17-1.008-1.17a.824.824,0,0,0-.937.926h-2.633a2.36,2.36,0,0,1,1.043-1.99,4.383,4.383,0,0,1,2.66-.765,3.843,3.843,0,0,1,2.555.789,2.743,2.743,0,0,1,.961,2.164v3.742a3.832,3.832,0,0,0,.359,1.781V15Zm-1.648-1.719a1.469,1.469,0,0,0,.816-.211,1.322,1.322,0,0,0,.465-.477V11.242h-.766q-1.375,0-1.375,1.234a.754.754,0,0,0,.242.582A.876.876,0,0,0,112.453,13.281Z" transform="translate(-4110 -9527)" fill="#fff"/>
      <g id="Grupo_1099707" data-name="Grupo 1099707" transform="translate(-315.802 -162.243)">
        <path id="Trazado_873582" data-name="Trazado 873582" d="M756.3,25.454a22.725,22.725,0,0,1-22.722,22.722.611.611,0,0,1,0-1.223A21.5,21.5,0,0,0,734.9,4L736.782,6.3a.611.611,0,0,1-.947.773L733.1,3.73a.609.609,0,0,1,.087-.859L736.535.137a.611.611,0,1,1,.773.947l-2.091,1.708A22.719,22.719,0,0,1,756.3,25.454Zm-30.06,17.273a.611.611,0,0,0-1.147.424l.9,2.424a21.507,21.507,0,0,1,1.3-40.686.611.611,0,0,0-.356-1.17A22.905,22.905,0,0,0,715.4,11.813a22.729,22.729,0,0,0,10.445,35.014l-2.95,1.091a.611.611,0,1,0,.424,1.146l4.053-1.5a.61.61,0,0,0,.361-.785Zm-7.577-5.31V27.889h-2.178a.612.612,0,0,1-.5-.966l5.12-7.215a.611.611,0,0,1,1,0l5.12,7.215a.612.612,0,0,1-.5.966h-2.055v9.528a.612.612,0,0,1-.611.611h-4.785a.611.611,0,0,1-.612-.611m.612-10.752a.612.612,0,0,1,.611.611v9.529h3.565V27.276a.612.612,0,0,1,.611-.611h1.482L721.6,21.118l-3.938,5.547ZM736.03,38.028h-4.787a.612.612,0,0,1-.611-.611V24.275h-2.177a.611.611,0,0,1-.51-.949l5.12-7.708a.612.612,0,0,1,1.019,0l5.12,7.709a.61.61,0,0,1-.509.949h-2.054V37.417a.612.612,0,0,1-.611.611m0-14.975h1.526l-3.981-5.993-3.981,5.993h1.648a.612.612,0,0,1,.611.611V36.806h3.565V23.664a.612.612,0,0,1,.612-.611M742.6,37.417V21.03h-2.177a.611.611,0,0,1-.528-.92l5.12-8.736a.612.612,0,0,1,1.056,0l5.12,8.736a.611.611,0,0,1-.528.92h-2.055V37.417a.612.612,0,0,1-.611.611h-4.787a.611.611,0,0,1-.61-.611m.611-17.609a.612.612,0,0,1,.611.611V36.806h3.565V20.419a.612.612,0,0,1,.611-.611h1.6l-4.053-6.915-4.054,6.915Z" transform="translate(-4614.964 -9379.756)" fill="#fff"/>
      </g>
      <g id="Grupo_1099708" data-name="Grupo 1099708" transform="translate(397.823 -620.703)">
        <path id="Trazado_873574" data-name="Trazado 873574" d="M22.171,12.937A5.74,5.74,0,1,0,16.432,7.2a5.746,5.746,0,0,0,5.739,5.739m0-9.822A4.082,4.082,0,1,1,18.089,7.2a4.087,4.087,0,0,1,4.082-4.083" transform="translate(-4614.964 -9379.756)" fill="#fff"/>
        <path id="Trazado_873575" data-name="Trazado 873575" d="M30.738,31.71,32.1,22.463a6.406,6.406,0,0,0-6.4-6.4h-7.05A6.42,6.42,0,0,0,12.261,22.6l1.55,9.072C6.978,32.554,0,34.762,0,38.49,0,43.238,11.424,45.8,22.172,45.8s22.172-2.561,22.172-7.309c0-3.684-6.876-5.889-13.606-6.78m-15.9,6a.688.688,0,0,0,.036.1.723.723,0,0,0,.046.128.761.761,0,0,0,.1.146,1.007,1.007,0,0,0,.079.094.876.876,0,0,0,.16.107.724.724,0,0,0,.093.054.819.819,0,0,0,.3.061H29.04a.82.82,0,0,0,.1-.02.808.808,0,0,0,.164-.033.793.793,0,0,0,.141-.067.883.883,0,0,0,.129-.087.748.748,0,0,0,.25-.4.66.66,0,0,0,.035-.1l.247-1.681c4.245.6,5.935,1.524,6.067,1.853-.29.848-5.356,2.428-14,2.428s-13.712-1.58-14-2.374c.141-.4,1.918-1.358,6.375-1.951Zm3.8-19.984H25.7a4.736,4.736,0,0,1,4.75,4.621L28.979,32.3c0,.01-.008.018-.009.028a.164.164,0,0,0,0,.022L28.6,34.9c-.005.024-.02.044-.023.069s.006.037,0,.056l-.253,1.715H16.356l-.308-1.8v-.006l-.45-2.62a.136.136,0,0,0,0-.02.358.358,0,0,0-.011-.035l-1.682-9.8a4.746,4.746,0,0,1,4.741-4.741m3.525,26.42c-12.09,0-20.514-2.979-20.514-5.652,0-1.826,4.274-4.149,12.433-5.179l.172,1.008c-3.72.494-7.747,1.505-7.747,3.566,0,3.2,9.841,4.06,15.656,4.06s15.656-.856,15.656-4.06c0-1.644-2.536-2.822-7.48-3.517l.149-1.017c8,1.046,12.189,3.344,12.189,5.139,0,2.673-8.424,5.652-20.514,5.652" transform="translate(-4614.964 -9379.756)" fill="#fff"/>
      </g>
    </g>
    <g id="Grupo_1099704" data-name="Grupo 1099704" transform="translate(220.568 -488)">
      <path id="Trazado_873576" data-name="Trazado 873576" d="M191.184,21.166a6.227,6.227,0,0,0-1.622-1.018l-.141-.058h0l-.023-.009-.019,0a6.272,6.272,0,0,0-4.575.007l-.154.063h-.005a6.281,6.281,0,0,0-3.256,3.245c-.006.014-.063.151-.07.166a6.194,6.194,0,0,0-.446,2.317,6.121,6.121,0,0,0,.434,2.283c.006.017.063.155.069.171a6.3,6.3,0,0,0,3.415,3.334,6.188,6.188,0,0,0,2.315.446,6.344,6.344,0,0,0,2.453-.5,6.17,6.17,0,0,0,1.626-1.017,6.432,6.432,0,0,0,1.709-2.4,6.189,6.189,0,0,0,.446-2.316,6.367,6.367,0,0,0-.505-2.457,6.215,6.215,0,0,0-1.65-2.254m.129,6.513a4.633,4.633,0,0,1-1.214,1.657,4.779,4.779,0,0,1-1.295.791,4.476,4.476,0,0,1-3.5-.044,4.687,4.687,0,0,1-2.446-2.508,4.536,4.536,0,0,1-.327-1.7,4.675,4.675,0,0,1,.371-1.8,4.619,4.619,0,0,1,2.4-2.4c.017-.007.028-.023.045-.031s.041,0,.06-.012a4.611,4.611,0,0,1,3.4,0c.018.007.036,0,.055.01s.03.025.048.033a4.593,4.593,0,0,1,1.195.75,4.713,4.713,0,0,1,1.254,1.758,4.541,4.541,0,0,1,.327,1.7,4.7,4.7,0,0,1-.369,1.8" transform="translate(-4614.964 -9379.756)" fill="#1e0b4a"/>
      <path id="Trazado_873577" data-name="Trazado 873577" d="M207.076,9.986a.828.828,0,1,0,0-1.657h-5.581a.828.828,0,0,0-.828.829v15.89h-2.482v-1.3a.827.827,0,0,0-.828-.828h-1.292a9.385,9.385,0,0,0-.533-1.286l.913-.914a.828.828,0,0,0,0-1.172l-3.01-3.011a.828.828,0,0,0-1.172,0l-.915.915a9.222,9.222,0,0,0-1.284-.534V15.625a.829.829,0,0,0-.829-.829h-4.259a.828.828,0,0,0-.828.829v1.292a9.241,9.241,0,0,0-1.286.533l-.914-.914a.828.828,0,0,0-1.172,0l-3.012,3.011a.828.828,0,0,0,0,1.172l.915.915a9.3,9.3,0,0,0-.533,1.285h-1.293a.828.828,0,0,0-.829.828v4.259a.828.828,0,0,0,.829.828h1.293a9.3,9.3,0,0,0,.533,1.285l-.915.915a.828.828,0,0,0,0,1.172l3.012,3.011a.828.828,0,0,0,1.172,0l.914-.914a9.24,9.24,0,0,0,1.286.533v1.292a.828.828,0,0,0,.828.829h4.259a.829.829,0,0,0,.829-.829V34.836a9.221,9.221,0,0,0,1.284-.534l.915.915a.828.828,0,0,0,1.172,0l3.01-3.011a.828.828,0,0,0,0-1.172l-.913-.914a9.385,9.385,0,0,0,.533-1.286h1.292a.827.827,0,0,0,.828-.828V26.7h2.482V42.6a.828.828,0,0,0,.828.829h5.581a.829.829,0,1,0,0-1.657h-4.752V26.7h4.752a.828.828,0,1,0,0-1.657h-4.752V9.986ZM196.528,27.177h-1.059c-.022,0-.04.011-.062.013a.753.753,0,0,0-.157.031.805.805,0,0,0-.154.055.952.952,0,0,0-.119.08.854.854,0,0,0-.127.113.9.9,0,0,0-.081.12.8.8,0,0,0-.076.158.536.536,0,0,0-.026.054,7.777,7.777,0,0,1-.855,2.059c-.011.019-.011.04-.021.059a.814.814,0,0,0-.055.157.754.754,0,0,0-.03.153.787.787,0,0,0,.009.153.773.773,0,0,0,.03.158.807.807,0,0,0,.065.136.777.777,0,0,0,.094.142c.014.016.019.036.034.052l.75.75-1.839,1.839-.751-.75c-.015-.014-.034-.02-.05-.033a.76.76,0,0,0-.148-.1.74.74,0,0,0-.131-.061.806.806,0,0,0-.161-.032.849.849,0,0,0-.151-.008,1.078,1.078,0,0,0-.311.086c-.018.01-.04.01-.058.021a7.715,7.715,0,0,1-2.057.853.61.61,0,0,0-.058.027.854.854,0,0,0-.149.072.766.766,0,0,0-.129.087.756.756,0,0,0-.1.116.839.839,0,0,0-.089.131.794.794,0,0,0-.051.144.758.758,0,0,0-.033.164c0,.022-.013.04-.013.062V35.3h-2.6V34.24c0-.022-.011-.04-.012-.062a.849.849,0,0,0-.034-.165.784.784,0,0,0-.051-.143.775.775,0,0,0-.089-.131.713.713,0,0,0-.1-.116.767.767,0,0,0-.129-.087.854.854,0,0,0-.149-.072.612.612,0,0,0-.058-.027,7.708,7.708,0,0,1-2.058-.853c-.019-.011-.04-.011-.059-.021a.743.743,0,0,0-.158-.056.8.8,0,0,0-.153-.03.838.838,0,0,0-.15.008.738.738,0,0,0-.162.032.8.8,0,0,0-.13.06.857.857,0,0,0-.149.1c-.015.014-.035.019-.049.033l-.75.75-1.84-1.839.751-.75c.015-.016.021-.037.035-.053a.836.836,0,0,0,.092-.139.631.631,0,0,0,.1-.293.834.834,0,0,0,.009-.158.853.853,0,0,0-.029-.149.8.8,0,0,0-.058-.161c-.009-.019-.009-.04-.02-.059a7.7,7.7,0,0,1-.853-2.055c-.006-.021-.02-.036-.027-.056a1.028,1.028,0,0,0-.162-.285.75.75,0,0,0-.1-.089.782.782,0,0,0-.152-.1.843.843,0,0,0-.122-.044.753.753,0,0,0-.183-.037c-.02,0-.038-.012-.059-.012h-1.06v-2.6h1.06a.8.8,0,0,0,.457-.156.714.714,0,0,0,.067-.045.815.815,0,0,0,.257-.391c0-.014.018-.02.022-.034A7.7,7.7,0,0,1,180.4,21.9c.011-.019.011-.04.02-.059a.8.8,0,0,0,.058-.161.852.852,0,0,0,.029-.149.834.834,0,0,0-.009-.158.812.812,0,0,0-.03-.153.776.776,0,0,0-.066-.14.836.836,0,0,0-.092-.139c-.014-.016-.02-.037-.035-.053l-.751-.75,1.84-1.839.75.75a.812.812,0,0,0,.126.084.876.876,0,0,0,.1.065.81.81,0,0,0,.739-.011c.015-.008.032,0,.047-.013a7.708,7.708,0,0,1,2.058-.853.612.612,0,0,0,.058-.027.853.853,0,0,0,.149-.072.767.767,0,0,0,.129-.087.713.713,0,0,0,.1-.116.775.775,0,0,0,.089-.131.784.784,0,0,0,.051-.143.849.849,0,0,0,.034-.165c0-.022.012-.04.012-.062v-1.06h2.6v1.06c0,.022.011.04.013.062a.758.758,0,0,0,.033.164.794.794,0,0,0,.051.144.839.839,0,0,0,.089.131.756.756,0,0,0,.1.116.766.766,0,0,0,.129.087.853.853,0,0,0,.149.072.61.61,0,0,0,.058.027,7.715,7.715,0,0,1,2.057.853c.015.009.032,0,.046.013a.81.81,0,0,0,.739.011.723.723,0,0,0,.1-.065.776.776,0,0,0,.127-.084l.751-.75,1.839,1.839-.75.75c-.015.016-.02.036-.034.052a.777.777,0,0,0-.094.142.807.807,0,0,0-.065.136.773.773,0,0,0-.03.158.787.787,0,0,0-.009.153.754.754,0,0,0,.03.153.814.814,0,0,0,.055.157c.01.019.01.04.021.059a7.777,7.777,0,0,1,.855,2.059c0,.014.018.02.022.034a.8.8,0,0,0,.257.39.783.783,0,0,0,.067.045.809.809,0,0,0,.456.155h1.059Z" transform="translate(-4614.964 -9379.756)" fill="#1e0b4a"/>
      <path id="Trazado_873578" data-name="Trazado 873578" d="M216.142,13.634a4.476,4.476,0,1,0-4.477-4.476,4.482,4.482,0,0,0,4.477,4.476m0-7.3a2.819,2.819,0,1,1-2.82,2.82,2.823,2.823,0,0,1,2.82-2.82" transform="translate(-4614.964 -9379.756)" fill="#1e0b4a"/>
      <path id="Trazado_873579" data-name="Trazado 873579" d="M212.494,30.353h7.3a.829.829,0,0,0,.829-.829v-7.3a.829.829,0,0,0-.829-.829h-7.3a.829.829,0,0,0-.829.829v7.3a.829.829,0,0,0,.829.829m.828-7.3h5.639V28.7h-5.639Z" transform="translate(-4614.964 -9379.756)" fill="#1e0b4a"/>
      <path id="Trazado_873580" data-name="Trazado 873580" d="M216.859,38.063a.861.861,0,0,0-1.435,0L210.8,46.079a.828.828,0,0,0,.716,1.243h9.259a.828.828,0,0,0,.717-1.243Zm-3.91,7.6,3.192-5.531,3.194,5.531Z" transform="translate(-4614.964 -9379.756)" fill="#1e0b4a"/>
    </g>
    <g id="Grupo_1099705" data-name="Grupo 1099705" transform="translate(39.899 -371)">
      <path id="Trazado_873581" data-name="Trazado 873581" d="M384.451,26.7a.828.828,0,0,0-1.172,0L382.1,27.878l-2.769-2.768a12.249,12.249,0,1,0-1.171,1.171l2.768,2.769-1.175,1.175a.828.828,0,0,0,0,1.172l13.129,13.129a.828.828,0,0,0,1.172,0L397.58,41a.828.828,0,0,0,0-1.172Zm-21.782-2.151a10.561,10.561,0,1,1,7.469,3.094,10.576,10.576,0,0,1-7.469-3.094m30.8,18.216L381.515,30.811l2.35-2.35,11.957,11.957Z" transform="translate(-4614.964 -9379.756)" fill="#1e0b4a"/>
    </g>
    <g id="Grupo_1099706" data-name="Grupo 1099706" transform="translate(-139.161 -254.639)">
      <path id="Trazado_873583" data-name="Trazado 873583" d="M561.975,22.889l-7.368,7.368-1.822-2.524a.829.829,0,0,0-1.344.97l2.392,3.312a.825.825,0,0,0,.6.342l.067,0a.824.824,0,0,0,.585-.243l8.057-8.055a.829.829,0,0,0-1.172-1.172" transform="translate(-4614.964 -9379.756)" fill="#1e0b4a"/>
      <path id="Trazado_873584" data-name="Trazado 873584" d="M570.831,5.856h-5.59V4.988a2.035,2.035,0,0,0-2.032-2.032H550.671a2.034,2.034,0,0,0-2.031,2.032v.868h-5.6A3.949,3.949,0,0,0,539.092,9.8V42.2a3.949,3.949,0,0,0,3.945,3.944h27.794a3.948,3.948,0,0,0,3.944-3.944V9.8a3.948,3.948,0,0,0-3.944-3.944M550.3,4.988a.374.374,0,0,1,.374-.374h12.538a.374.374,0,0,1,.374.374v3.4a.374.374,0,0,1-.374.374H550.671a.374.374,0,0,1-.374-.374ZM573.118,42.2a2.29,2.29,0,0,1-2.287,2.287H543.037a2.29,2.29,0,0,1-2.288-2.287V9.8a2.291,2.291,0,0,1,2.288-2.287h5.6v.878a2.033,2.033,0,0,0,2.031,2.032h12.538a2.034,2.034,0,0,0,2.032-2.032V7.513h5.59A2.29,2.29,0,0,1,573.118,9.8Z" transform="translate(-4614.964 -9379.756)" fill="#1e0b4a"/>
      <path id="Trazado_873585" data-name="Trazado 873585" d="M556.934,15.064A11.764,11.764,0,1,0,568.7,26.829a11.778,11.778,0,0,0-11.765-11.765m0,21.872a10.107,10.107,0,1,1,10.108-10.107,10.118,10.118,0,0,1-10.108,10.107" transform="translate(-4614.964 -9379.756)" fill="#1e0b4a"/>
    </g>
    <path id="Trazado_874727" data-name="Trazado 874727" d="M44.976,12.491V17H42.339V4.2h4.992a5.776,5.776,0,0,1,2.536.527,3.886,3.886,0,0,1,1.683,1.5,4.178,4.178,0,0,1,.589,2.21,3.674,3.674,0,0,1-1.288,2.966,5.363,5.363,0,0,1-3.564,1.085Zm0-2.136h2.355a2.316,2.316,0,0,0,1.6-.492,1.79,1.79,0,0,0,.549-1.406,2.111,2.111,0,0,0-.554-1.521,2.068,2.068,0,0,0-1.529-.6H44.976ZM59.2,17a2.821,2.821,0,0,1-.255-.853,3.073,3.073,0,0,1-2.4,1.028,3.376,3.376,0,0,1-2.316-.809,2.6,2.6,0,0,1-.918-2.039,2.687,2.687,0,0,1,1.121-2.32,5.529,5.529,0,0,1,3.239-.817h1.169v-.545A1.567,1.567,0,0,0,58.5,9.591a1.331,1.331,0,0,0-1.068-.4,1.513,1.513,0,0,0-1.006.308,1.045,1.045,0,0,0-.365.844h-2.54a2.551,2.551,0,0,1,.51-1.529,3.37,3.37,0,0,1,1.441-1.1,5.253,5.253,0,0,1,2.092-.4,4.15,4.15,0,0,1,2.791.883,3.09,3.09,0,0,1,1.033,2.483V14.8a4.546,4.546,0,0,0,.378,2.048V17Zm-2.1-1.767a2.188,2.188,0,0,0,1.037-.25,1.645,1.645,0,0,0,.7-.672V12.676h-.949q-1.907,0-2.03,1.318l-.009.149a1.017,1.017,0,0,0,.334.782A1.3,1.3,0,0,0,57.1,15.233Zm11.391-.861a.818.818,0,0,0-.461-.734,5.241,5.241,0,0,0-1.481-.479q-3.393-.712-3.393-2.883A2.613,2.613,0,0,1,64.2,8.163a4.237,4.237,0,0,1,2.747-.848,4.56,4.56,0,0,1,2.9.853,2.687,2.687,0,0,1,1.085,2.215H68.39a1.229,1.229,0,0,0-.352-.9,1.488,1.488,0,0,0-1.1-.356,1.52,1.52,0,0,0-.993.29.916.916,0,0,0-.352.738.783.783,0,0,0,.4.681,4.114,4.114,0,0,0,1.349.448,11.019,11.019,0,0,1,1.6.426,2.628,2.628,0,0,1,2.013,2.558,2.481,2.481,0,0,1-1.116,2.1,4.815,4.815,0,0,1-2.883.8,5.029,5.029,0,0,1-2.123-.426,3.561,3.561,0,0,1-1.455-1.169,2.716,2.716,0,0,1-.527-1.6h2.408a1.326,1.326,0,0,0,.5,1.037,1.987,1.987,0,0,0,1.248.36,1.839,1.839,0,0,0,1.1-.277A.861.861,0,0,0,68.487,14.372ZM72.2,12.157a5.64,5.64,0,0,1,.545-2.522A3.989,3.989,0,0,1,74.31,7.921a4.577,4.577,0,0,1,2.377-.606,4.33,4.33,0,0,1,3.142,1.178,4.727,4.727,0,0,1,1.358,3.2l.018.65a4.97,4.97,0,0,1-1.222,3.511,4.735,4.735,0,0,1-6.561,0A5.058,5.058,0,0,1,72.2,12.271Zm2.54.18a3.555,3.555,0,0,0,.51,2.073,1.831,1.831,0,0,0,2.9.009,3.89,3.89,0,0,0,.519-2.267,3.519,3.519,0,0,0-.519-2.06,1.686,1.686,0,0,0-1.459-.731,1.658,1.658,0,0,0-1.441.726A3.955,3.955,0,0,0,74.736,12.338Zm13.184,2.035a.818.818,0,0,0-.461-.734,5.241,5.241,0,0,0-1.481-.479q-3.393-.712-3.393-2.883a2.613,2.613,0,0,1,1.05-2.114,4.237,4.237,0,0,1,2.747-.848,4.56,4.56,0,0,1,2.9.853,2.687,2.687,0,0,1,1.085,2.215h-2.54a1.229,1.229,0,0,0-.352-.9,1.488,1.488,0,0,0-1.1-.356,1.52,1.52,0,0,0-.993.29.916.916,0,0,0-.352.738.783.783,0,0,0,.4.681,4.114,4.114,0,0,0,1.349.448,11.019,11.019,0,0,1,1.6.426,2.628,2.628,0,0,1,2.013,2.558,2.481,2.481,0,0,1-1.116,2.1,4.815,4.815,0,0,1-2.883.8,5.029,5.029,0,0,1-2.123-.426,3.561,3.561,0,0,1-1.455-1.169,2.716,2.716,0,0,1-.527-1.6h2.408a1.326,1.326,0,0,0,.5,1.037,1.987,1.987,0,0,0,1.248.36,1.839,1.839,0,0,0,1.1-.277A.861.861,0,0,0,87.919,14.372Zm17.147-2.039a5.7,5.7,0,0,1-1,3.52,3.2,3.2,0,0,1-2.694,1.323,2.963,2.963,0,0,1-2.329-1v4.482h-2.54V7.49h2.355l.088.932a2.985,2.985,0,0,1,2.408-1.107,3.22,3.22,0,0,1,2.733,1.3,5.858,5.858,0,0,1,.976,3.586Zm-2.54-.185a3.743,3.743,0,0,0-.47-2.048,1.532,1.532,0,0,0-1.367-.721,1.663,1.663,0,0,0-1.644.914v3.894a1.692,1.692,0,0,0,1.661.94Q102.527,15.128,102.527,12.148ZM112.151,17a2.821,2.821,0,0,1-.255-.853,3.073,3.073,0,0,1-2.4,1.028,3.376,3.376,0,0,1-2.316-.809,2.6,2.6,0,0,1-.918-2.039,2.687,2.687,0,0,1,1.121-2.32,5.529,5.529,0,0,1,3.239-.817h1.169v-.545a1.567,1.567,0,0,0-.338-1.055,1.331,1.331,0,0,0-1.068-.4,1.513,1.513,0,0,0-1.006.308,1.045,1.045,0,0,0-.365.844h-2.54a2.551,2.551,0,0,1,.51-1.529,3.37,3.37,0,0,1,1.441-1.1,5.253,5.253,0,0,1,2.092-.4,4.15,4.15,0,0,1,2.791.883,3.09,3.09,0,0,1,1.033,2.483V14.8a4.546,4.546,0,0,0,.378,2.048V17Zm-2.1-1.767a2.188,2.188,0,0,0,1.037-.25,1.645,1.645,0,0,0,.7-.672V12.676h-.949q-1.907,0-2.03,1.318l-.009.149a1.017,1.017,0,0,0,.334.782A1.3,1.3,0,0,0,110.05,15.233Zm11.584-5.361a6.9,6.9,0,0,0-.914-.07,1.86,1.86,0,0,0-1.89.976V17h-2.54V7.49h2.4l.07,1.134a2.354,2.354,0,0,1,2.118-1.31,2.662,2.662,0,0,1,.791.114ZM128.1,17a2.821,2.821,0,0,1-.255-.853,3.073,3.073,0,0,1-2.4,1.028,3.376,3.376,0,0,1-2.316-.809,2.6,2.6,0,0,1-.918-2.039,2.687,2.687,0,0,1,1.121-2.32,5.529,5.529,0,0,1,3.239-.817h1.169v-.545a1.567,1.567,0,0,0-.338-1.055,1.331,1.331,0,0,0-1.068-.4,1.513,1.513,0,0,0-1.006.308,1.045,1.045,0,0,0-.365.844h-2.54a2.551,2.551,0,0,1,.51-1.529,3.37,3.37,0,0,1,1.441-1.1,5.253,5.253,0,0,1,2.092-.4,4.15,4.15,0,0,1,2.791.883,3.09,3.09,0,0,1,1.033,2.483V14.8a4.546,4.546,0,0,0,.378,2.048V17ZM126,15.233a2.188,2.188,0,0,0,1.037-.25,1.645,1.645,0,0,0,.7-.672V12.676h-.949q-1.907,0-2.03,1.318l-.009.149a1.017,1.017,0,0,0,.334.782A1.3,1.3,0,0,0,126,15.233ZM142.236,17a2.821,2.821,0,0,1-.255-.853,3.073,3.073,0,0,1-2.4,1.028,3.376,3.376,0,0,1-2.316-.809,2.6,2.6,0,0,1-.918-2.039,2.687,2.687,0,0,1,1.121-2.32,5.529,5.529,0,0,1,3.239-.817h1.169v-.545a1.567,1.567,0,0,0-.338-1.055,1.331,1.331,0,0,0-1.068-.4,1.513,1.513,0,0,0-1.006.308,1.045,1.045,0,0,0-.365.844h-2.54a2.551,2.551,0,0,1,.51-1.529,3.37,3.37,0,0,1,1.441-1.1,5.253,5.253,0,0,1,2.092-.4,4.15,4.15,0,0,1,2.791.883,3.09,3.09,0,0,1,1.033,2.483V14.8a4.546,4.546,0,0,0,.378,2.048V17Zm-2.1-1.767a2.188,2.188,0,0,0,1.037-.25,1.645,1.645,0,0,0,.7-.672V12.676h-.949q-1.907,0-2.03,1.318l-.009.149a1.017,1.017,0,0,0,.334.782A1.3,1.3,0,0,0,140.135,15.233ZM149.056,17h-2.549V3.5h2.549Zm6.047-1.872a1.666,1.666,0,0,0,1.143-.387,1.355,1.355,0,0,0,.457-1.028h2.382a3.258,3.258,0,0,1-.527,1.771,3.48,3.48,0,0,1-1.419,1.248,4.442,4.442,0,0,1-1.991.444,4.129,4.129,0,0,1-3.217-1.3,5.13,5.13,0,0,1-1.178-3.582v-.167a5.071,5.071,0,0,1,1.169-3.507,4.08,4.08,0,0,1,3.208-1.31A4,4,0,0,1,157.99,8.33a3.594,3.594,0,0,1,1.094,2.7H156.7a1.745,1.745,0,0,0-.457-1.206,1.7,1.7,0,0,0-2.5.183,3.749,3.749,0,0,0-.453,2.1v.264a3.8,3.8,0,0,0,.448,2.113A1.549,1.549,0,0,0,155.1,15.128ZM166.045,17a2.821,2.821,0,0,1-.255-.853,3.073,3.073,0,0,1-2.4,1.028,3.376,3.376,0,0,1-2.316-.809,2.6,2.6,0,0,1-.918-2.039,2.687,2.687,0,0,1,1.121-2.32,5.529,5.529,0,0,1,3.239-.817h1.169v-.545a1.567,1.567,0,0,0-.338-1.055,1.331,1.331,0,0,0-1.068-.4,1.513,1.513,0,0,0-1.006.308,1.045,1.045,0,0,0-.365.844h-2.54a2.551,2.551,0,0,1,.51-1.529,3.37,3.37,0,0,1,1.441-1.1,5.253,5.253,0,0,1,2.092-.4A4.15,4.15,0,0,1,167.2,8.2a3.09,3.09,0,0,1,1.033,2.483V14.8a4.546,4.546,0,0,0,.378,2.048V17Zm-2.1-1.767a2.188,2.188,0,0,0,1.037-.25,1.645,1.645,0,0,0,.7-.672V12.676h-.949q-1.907,0-2.03,1.318l-.009.149a1.017,1.017,0,0,0,.334.782A1.3,1.3,0,0,0,163.945,15.233Zm8.578-7.743.079,1.1a3.32,3.32,0,0,1,2.733-1.274,2.759,2.759,0,0,1,2.25.888,4.142,4.142,0,0,1,.756,2.654V17H175.8V10.918a1.648,1.648,0,0,0-.352-1.173,1.574,1.574,0,0,0-1.169-.365,1.747,1.747,0,0,0-1.608.914V17h-2.54V7.49Zm10.661,7.462h4.649V17h-7.893V15.453l4.474-5.915h-4.342V7.49h7.62v1.5ZM194.935,17a2.821,2.821,0,0,1-.255-.853,3.073,3.073,0,0,1-2.4,1.028,3.376,3.376,0,0,1-2.316-.809,2.6,2.6,0,0,1-.918-2.039,2.687,2.687,0,0,1,1.121-2.32,5.529,5.529,0,0,1,3.239-.817h1.169v-.545a1.567,1.567,0,0,0-.338-1.055,1.331,1.331,0,0,0-1.068-.4,1.513,1.513,0,0,0-1.006.308,1.045,1.045,0,0,0-.365.844h-2.54a2.551,2.551,0,0,1,.51-1.529,3.37,3.37,0,0,1,1.441-1.1,5.253,5.253,0,0,1,2.092-.4,4.15,4.15,0,0,1,2.791.883,3.09,3.09,0,0,1,1.033,2.483V14.8a4.546,4.546,0,0,0,.378,2.048V17Zm-2.1-1.767a2.188,2.188,0,0,0,1.037-.25,1.645,1.645,0,0,0,.7-.672V12.676h-.949q-1.907,0-2.03,1.318l-.009.149a1.017,1.017,0,0,0,.334.782A1.3,1.3,0,0,0,192.834,15.233Zm11.584-5.361a6.9,6.9,0,0,0-.914-.07,1.86,1.86,0,0,0-1.89.976V17h-2.54V7.49h2.4l.07,1.134a2.354,2.354,0,0,1,2.118-1.31,2.662,2.662,0,0,1,.791.114ZM212.8,17h-2.549V3.5H212.8Zm1.7-4.843a5.64,5.64,0,0,1,.545-2.522,3.989,3.989,0,0,1,1.569-1.714,4.577,4.577,0,0,1,2.377-.606,4.33,4.33,0,0,1,3.142,1.178,4.727,4.727,0,0,1,1.358,3.2l.018.65a4.97,4.97,0,0,1-1.222,3.511,4.735,4.735,0,0,1-6.561,0,5.058,5.058,0,0,1-1.226-3.586Zm2.54.18a3.555,3.555,0,0,0,.51,2.073,1.831,1.831,0,0,0,2.9.009,3.89,3.89,0,0,0,.519-2.267,3.519,3.519,0,0,0-.519-2.06,1.686,1.686,0,0,0-1.459-.731,1.658,1.658,0,0,0-1.441.726A3.955,3.955,0,0,0,217.04,12.338Zm13.184,2.035a.818.818,0,0,0-.461-.734,5.241,5.241,0,0,0-1.481-.479q-3.393-.712-3.393-2.883a2.613,2.613,0,0,1,1.05-2.114,4.237,4.237,0,0,1,2.747-.848,4.56,4.56,0,0,1,2.9.853,2.687,2.687,0,0,1,1.085,2.215h-2.54a1.229,1.229,0,0,0-.352-.9,1.488,1.488,0,0,0-1.1-.356,1.52,1.52,0,0,0-.993.29.916.916,0,0,0-.352.738.783.783,0,0,0,.4.681,4.114,4.114,0,0,0,1.349.448,11.019,11.019,0,0,1,1.6.426,2.628,2.628,0,0,1,2.013,2.558,2.481,2.481,0,0,1-1.116,2.1,4.815,4.815,0,0,1-2.883.8,5.029,5.029,0,0,1-2.123-.426,3.561,3.561,0,0,1-1.455-1.169,2.716,2.716,0,0,1-.527-1.6H227a1.326,1.326,0,0,0,.5,1.037,1.987,1.987,0,0,0,1.248.36,1.839,1.839,0,0,0,1.1-.277A.861.861,0,0,0,230.223,14.372Zm8.191-2.215a5.64,5.64,0,0,1,.545-2.522,3.989,3.989,0,0,1,1.569-1.714,4.577,4.577,0,0,1,2.377-.606,4.33,4.33,0,0,1,3.142,1.178,4.727,4.727,0,0,1,1.358,3.2l.018.65a4.97,4.97,0,0,1-1.222,3.511,4.735,4.735,0,0,1-6.561,0,5.058,5.058,0,0,1-1.226-3.586Zm2.54.18a3.555,3.555,0,0,0,.51,2.073,1.831,1.831,0,0,0,2.9.009,3.89,3.89,0,0,0,.519-2.267,3.519,3.519,0,0,0-.519-2.06,1.686,1.686,0,0,0-1.459-.731,1.658,1.658,0,0,0-1.441.726A3.955,3.955,0,0,0,240.955,12.338Zm16.6,0a5.758,5.758,0,0,1-.976,3.564,3.231,3.231,0,0,1-2.725,1.279,2.969,2.969,0,0,1-2.47-1.187L251.273,17h-2.285V3.5h2.54V8.343a2.893,2.893,0,0,1,2.312-1.028,3.258,3.258,0,0,1,2.729,1.279,5.767,5.767,0,0,1,.989,3.6Zm-2.54-.185a3.783,3.783,0,0,0-.457-2.1A1.545,1.545,0,0,0,253.2,9.38a1.676,1.676,0,0,0-1.67.993v3.753a1.7,1.7,0,0,0,1.688,1,1.568,1.568,0,0,0,1.617-1.213A6.257,6.257,0,0,0,255.017,12.148Zm6.794-4.658V17.519a3.4,3.4,0,0,1-.835,2.448,3.174,3.174,0,0,1-2.408.875,5.165,5.165,0,0,1-1.257-.149V18.679a4.768,4.768,0,0,0,.8.079q1.151,0,1.151-1.222V7.49ZM259.06,5.029a1.251,1.251,0,0,1,.382-.94,1.654,1.654,0,0,1,2.083,0,1.251,1.251,0,0,1,.382.94,1.247,1.247,0,0,1-.391.949,1.629,1.629,0,0,1-2.065,0A1.247,1.247,0,0,1,259.06,5.029Zm9.114,12.146a4.668,4.668,0,0,1-3.406-1.283,4.561,4.561,0,0,1-1.314-3.419v-.246a5.745,5.745,0,0,1,.554-2.562,4.064,4.064,0,0,1,1.569-1.74,4.4,4.4,0,0,1,2.316-.611,3.947,3.947,0,0,1,3.072,1.23,5,5,0,0,1,1.121,3.489v1.037H266.03a2.36,2.36,0,0,0,.743,1.494,2.245,2.245,0,0,0,1.569.563,2.742,2.742,0,0,0,2.294-1.063l1.248,1.4a3.813,3.813,0,0,1-1.547,1.261A5.075,5.075,0,0,1,268.174,17.176Zm-.29-7.813a1.587,1.587,0,0,0-1.226.512,2.651,2.651,0,0,0-.6,1.466h3.533v-.2a1.891,1.891,0,0,0-.457-1.311A1.638,1.638,0,0,0,267.884,9.362Zm8.684-4.21V7.49h1.626V9.354h-1.626V14.1a1.133,1.133,0,0,0,.2.756,1.015,1.015,0,0,0,.773.229,4.051,4.051,0,0,0,.747-.062v1.925a5.229,5.229,0,0,1-1.538.229,2.425,2.425,0,0,1-2.725-2.7V9.354h-1.389V7.49h1.389V5.152ZM282.29,17h-2.549V7.49h2.549Zm-2.7-11.971a1.251,1.251,0,0,1,.382-.94,1.648,1.648,0,0,1,2.079,0,1.244,1.244,0,0,1,.387.94,1.247,1.247,0,0,1-.391.949,1.629,1.629,0,0,1-2.065,0A1.247,1.247,0,0,1,279.591,5.029Zm8.35,8.868,1.767-6.407h2.654L289.154,17h-2.426L283.52,7.49h2.654Zm5.01-1.74a5.64,5.64,0,0,1,.545-2.522,3.989,3.989,0,0,1,1.569-1.714,4.577,4.577,0,0,1,2.377-.606,4.33,4.33,0,0,1,3.142,1.178,4.727,4.727,0,0,1,1.358,3.2l.018.65a4.97,4.97,0,0,1-1.222,3.511,4.735,4.735,0,0,1-6.561,0,5.058,5.058,0,0,1-1.226-3.586Zm2.54.18a3.555,3.555,0,0,0,.51,2.073,1.831,1.831,0,0,0,2.9.009,3.89,3.89,0,0,0,.519-2.267,3.519,3.519,0,0,0-.519-2.06,1.686,1.686,0,0,0-1.459-.731,1.658,1.658,0,0,0-1.441.726A3.955,3.955,0,0,0,295.491,12.338Zm13.184,2.035a.818.818,0,0,0-.461-.734,5.241,5.241,0,0,0-1.481-.479q-3.393-.712-3.393-2.883a2.613,2.613,0,0,1,1.05-2.114,4.237,4.237,0,0,1,2.747-.848,4.56,4.56,0,0,1,2.9.853,2.687,2.687,0,0,1,1.085,2.215h-2.54a1.229,1.229,0,0,0-.352-.9,1.488,1.488,0,0,0-1.1-.356,1.52,1.52,0,0,0-.993.29.916.916,0,0,0-.352.738.783.783,0,0,0,.4.681,4.114,4.114,0,0,0,1.349.448,11.019,11.019,0,0,1,1.6.426,2.628,2.628,0,0,1,2.013,2.558,2.481,2.481,0,0,1-1.116,2.1,4.815,4.815,0,0,1-2.883.8,5.029,5.029,0,0,1-2.123-.426,3.561,3.561,0,0,1-1.455-1.169,2.716,2.716,0,0,1-.527-1.6h2.408a1.326,1.326,0,0,0,.5,1.037,1.987,1.987,0,0,0,1.248.36,1.839,1.839,0,0,0,1.1-.277A.861.861,0,0,0,308.674,14.372ZM8.827,35.128a1.666,1.666,0,0,0,1.143-.387,1.355,1.355,0,0,0,.457-1.028h2.382a3.258,3.258,0,0,1-.527,1.771,3.48,3.48,0,0,1-1.419,1.248,4.442,4.442,0,0,1-1.991.444,4.129,4.129,0,0,1-3.217-1.3A5.13,5.13,0,0,1,4.476,32.3v-.167a5.071,5.071,0,0,1,1.169-3.507,4.08,4.08,0,0,1,3.208-1.31,4,4,0,0,1,2.861,1.015,3.594,3.594,0,0,1,1.094,2.7H10.426a1.745,1.745,0,0,0-.457-1.206,1.524,1.524,0,0,0-1.16-.464,1.53,1.53,0,0,0-1.34.647,3.749,3.749,0,0,0-.453,2.1v.264a3.8,3.8,0,0,0,.448,2.113A1.549,1.549,0,0,0,8.827,35.128Zm5.036-2.971a5.64,5.64,0,0,1,.545-2.522,3.989,3.989,0,0,1,1.569-1.714,4.577,4.577,0,0,1,2.377-.606A4.33,4.33,0,0,1,21.5,28.492a4.727,4.727,0,0,1,1.358,3.2l.018.65a4.97,4.97,0,0,1-1.222,3.511,4.247,4.247,0,0,1-3.278,1.323,4.268,4.268,0,0,1-3.283-1.318,5.058,5.058,0,0,1-1.226-3.586Zm2.54.18a3.555,3.555,0,0,0,.51,2.073,1.831,1.831,0,0,0,2.9.009,3.89,3.89,0,0,0,.519-2.267,3.519,3.519,0,0,0-.519-2.06,1.686,1.686,0,0,0-1.459-.731,1.658,1.658,0,0,0-1.441.726A3.955,3.955,0,0,0,16.4,32.338ZM26.818,27.49l.079,1.063a3.342,3.342,0,0,1,2.733-1.239,2.536,2.536,0,0,1,2.522,1.45,3.265,3.265,0,0,1,2.856-1.45,2.836,2.836,0,0,1,2.3.9,4.141,4.141,0,0,1,.756,2.711V37H35.519V30.936a1.811,1.811,0,0,0-.316-1.182,1.4,1.4,0,0,0-1.116-.374A1.585,1.585,0,0,0,32.5,30.47L32.513,37h-2.54V30.944a1.789,1.789,0,0,0-.325-1.2,1.416,1.416,0,0,0-1.107-.369,1.646,1.646,0,0,0-1.564.9V37h-2.54V27.49ZM44.4,37.176a4.668,4.668,0,0,1-3.406-1.283,4.561,4.561,0,0,1-1.314-3.419v-.246a5.745,5.745,0,0,1,.554-2.562,4.064,4.064,0,0,1,1.569-1.74,4.4,4.4,0,0,1,2.316-.611,3.947,3.947,0,0,1,3.072,1.23,5,5,0,0,1,1.121,3.489v1.037H42.251a2.36,2.36,0,0,0,.743,1.494,2.245,2.245,0,0,0,1.569.563,2.742,2.742,0,0,0,2.294-1.063l1.248,1.4a3.813,3.813,0,0,1-1.547,1.261A5.075,5.075,0,0,1,44.4,37.176Zm-.29-7.813a1.587,1.587,0,0,0-1.226.512,2.651,2.651,0,0,0-.6,1.466h3.533v-.2a1.891,1.891,0,0,0-.457-1.311A1.638,1.638,0,0,0,44.106,29.362Zm10.986.51a6.9,6.9,0,0,0-.914-.07,1.86,1.86,0,0,0-1.89.976V37h-2.54V27.49h2.4l.07,1.134a2.354,2.354,0,0,1,2.118-1.31,2.662,2.662,0,0,1,.791.114Zm5.01,5.256a1.666,1.666,0,0,0,1.143-.387,1.355,1.355,0,0,0,.457-1.028h2.382a3.258,3.258,0,0,1-.527,1.771,3.48,3.48,0,0,1-1.419,1.248,4.442,4.442,0,0,1-1.991.444,4.129,4.129,0,0,1-3.217-1.3A5.13,5.13,0,0,1,55.751,32.3v-.167a5.071,5.071,0,0,1,1.169-3.507,4.08,4.08,0,0,1,3.208-1.31,4,4,0,0,1,2.861,1.015,3.594,3.594,0,0,1,1.094,2.7H61.7a1.745,1.745,0,0,0-.457-1.206,1.7,1.7,0,0,0-2.5.183,3.749,3.749,0,0,0-.453,2.1v.264a3.8,3.8,0,0,0,.448,2.113A1.549,1.549,0,0,0,60.1,35.128ZM68.214,37H65.666V27.49h2.549Zm-2.7-11.971a1.251,1.251,0,0,1,.382-.94,1.648,1.648,0,0,1,2.079,0,1.342,1.342,0,0,1,0,1.89,1.629,1.629,0,0,1-2.065,0A1.247,1.247,0,0,1,65.516,25.029ZM75.817,37a2.821,2.821,0,0,1-.255-.853,3.073,3.073,0,0,1-2.4,1.028,3.376,3.376,0,0,1-2.316-.809,2.6,2.6,0,0,1-.918-2.039,2.687,2.687,0,0,1,1.121-2.32,5.529,5.529,0,0,1,3.239-.817h1.169v-.545a1.567,1.567,0,0,0-.338-1.055,1.331,1.331,0,0,0-1.068-.4,1.513,1.513,0,0,0-1.006.308,1.045,1.045,0,0,0-.365.844h-2.54a2.551,2.551,0,0,1,.51-1.529,3.37,3.37,0,0,1,1.441-1.1,5.253,5.253,0,0,1,2.092-.4,4.15,4.15,0,0,1,2.791.883,3.09,3.09,0,0,1,1.033,2.483V34.8a4.546,4.546,0,0,0,.378,2.048V37Zm-2.1-1.767a2.188,2.188,0,0,0,1.037-.25,1.645,1.645,0,0,0,.7-.672V32.676h-.949q-1.907,0-2.03,1.318l-.009.149a1.017,1.017,0,0,0,.334.782A1.3,1.3,0,0,0,73.716,35.233ZM82.637,37H80.088V23.5h2.549Zm6.469.176A4.668,4.668,0,0,1,85.7,35.893a4.561,4.561,0,0,1-1.314-3.419v-.246a5.745,5.745,0,0,1,.554-2.562,4.064,4.064,0,0,1,1.569-1.74,4.4,4.4,0,0,1,2.316-.611,3.947,3.947,0,0,1,3.072,1.23,5,5,0,0,1,1.121,3.489v1.037H86.961a2.36,2.36,0,0,0,.743,1.494,2.245,2.245,0,0,0,1.569.563,2.742,2.742,0,0,0,2.294-1.063l1.248,1.4a3.813,3.813,0,0,1-1.547,1.261A5.075,5.075,0,0,1,89.106,37.176Zm-.29-7.813a1.587,1.587,0,0,0-1.226.512,2.651,2.651,0,0,0-.6,1.466h3.533v-.2a1.891,1.891,0,0,0-.457-1.311A1.638,1.638,0,0,0,88.816,29.362Zm10.793,5.01a.818.818,0,0,0-.461-.734,5.241,5.241,0,0,0-1.481-.479q-3.393-.712-3.393-2.883a2.613,2.613,0,0,1,1.05-2.114,4.237,4.237,0,0,1,2.747-.848,4.56,4.56,0,0,1,2.9.853,2.687,2.687,0,0,1,1.085,2.215h-2.54a1.229,1.229,0,0,0-.352-.9,1.488,1.488,0,0,0-1.1-.356,1.52,1.52,0,0,0-.993.29.916.916,0,0,0-.352.738.783.783,0,0,0,.4.681,4.114,4.114,0,0,0,1.349.448,11.019,11.019,0,0,1,1.6.426,2.628,2.628,0,0,1,2.013,2.558,2.481,2.481,0,0,1-1.116,2.1,4.815,4.815,0,0,1-2.883.8,5.029,5.029,0,0,1-2.123-.426A3.561,3.561,0,0,1,94.5,35.581a2.716,2.716,0,0,1-.527-1.6h2.408a1.326,1.326,0,0,0,.5,1.037,1.987,1.987,0,0,0,1.248.36,1.839,1.839,0,0,0,1.1-.277A.861.861,0,0,0,99.609,34.372ZM113.707,37a2.821,2.821,0,0,1-.255-.853,3.073,3.073,0,0,1-2.4,1.028,3.376,3.376,0,0,1-2.316-.809,2.6,2.6,0,0,1-.918-2.039,2.687,2.687,0,0,1,1.121-2.32,5.529,5.529,0,0,1,3.239-.817h1.169v-.545a1.567,1.567,0,0,0-.338-1.055,1.331,1.331,0,0,0-1.068-.4,1.513,1.513,0,0,0-1.006.308,1.045,1.045,0,0,0-.365.844h-2.54a2.551,2.551,0,0,1,.51-1.529,3.37,3.37,0,0,1,1.441-1.1,5.253,5.253,0,0,1,2.092-.4,4.15,4.15,0,0,1,2.791.883,3.09,3.09,0,0,1,1.033,2.483V34.8a4.546,4.546,0,0,0,.378,2.048V37Zm-2.1-1.767a2.188,2.188,0,0,0,1.037-.25,1.645,1.645,0,0,0,.7-.672V32.676H112.4q-1.907,0-2.03,1.318l-.009.149a1.017,1.017,0,0,0,.334.782A1.3,1.3,0,0,0,111.606,35.233ZM125.37,25.152V27.49H127v1.863H125.37V34.1a1.133,1.133,0,0,0,.2.756,1.015,1.015,0,0,0,.773.229,4.051,4.051,0,0,0,.747-.062v1.925a5.229,5.229,0,0,1-1.538.229,2.425,2.425,0,0,1-2.725-2.7V29.354h-1.389V27.49h1.389V25.152Zm8.385,4.72a6.9,6.9,0,0,0-.914-.07,1.86,1.86,0,0,0-1.89.976V37h-2.54V27.49h2.4l.07,1.134A2.354,2.354,0,0,1,133,27.314a2.662,2.662,0,0,1,.791.114ZM140.223,37a2.821,2.821,0,0,1-.255-.853,3.073,3.073,0,0,1-2.4,1.028,3.376,3.376,0,0,1-2.316-.809,2.6,2.6,0,0,1-.918-2.039,2.687,2.687,0,0,1,1.121-2.32,5.529,5.529,0,0,1,3.239-.817h1.169v-.545a1.567,1.567,0,0,0-.338-1.055,1.331,1.331,0,0,0-1.068-.4,1.513,1.513,0,0,0-1.006.308,1.045,1.045,0,0,0-.365.844h-2.54a2.551,2.551,0,0,1,.51-1.529,3.37,3.37,0,0,1,1.441-1.1,5.253,5.253,0,0,1,2.092-.4,4.15,4.15,0,0,1,2.791.883,3.09,3.09,0,0,1,1.033,2.483V34.8a4.546,4.546,0,0,0,.378,2.048V37Zm-2.1-1.767a2.188,2.188,0,0,0,1.037-.25,1.645,1.645,0,0,0,.7-.672V32.676h-.949q-1.907,0-2.03,1.318l-.009.149a1.017,1.017,0,0,0,.334.782A1.3,1.3,0,0,0,138.123,35.233Zm9.668-1.336,1.767-6.407h2.654L149,37h-2.426l-3.208-9.51h2.654Zm9.8,3.278a4.668,4.668,0,0,1-3.406-1.283,4.561,4.561,0,0,1-1.314-3.419v-.246a5.745,5.745,0,0,1,.554-2.562,4.064,4.064,0,0,1,1.569-1.74,4.4,4.4,0,0,1,2.316-.611,3.947,3.947,0,0,1,3.072,1.23,5,5,0,0,1,1.121,3.489v1.037h-6.056a2.36,2.36,0,0,0,.743,1.494,2.245,2.245,0,0,0,1.569.563,2.742,2.742,0,0,0,2.294-1.063l1.248,1.4a3.813,3.813,0,0,1-1.547,1.261A5.075,5.075,0,0,1,157.59,37.176Zm-.29-7.813a1.587,1.587,0,0,0-1.226.512,2.651,2.651,0,0,0-.6,1.466h3.533v-.2a1.891,1.891,0,0,0-.457-1.311A1.638,1.638,0,0,0,157.3,29.362Zm.229-5.862H160.3l-2.435,2.725H155.8Zm10.564,10.872a.818.818,0,0,0-.461-.734,5.241,5.241,0,0,0-1.481-.479q-3.393-.712-3.393-2.883a2.613,2.613,0,0,1,1.05-2.114,4.237,4.237,0,0,1,2.747-.848,4.56,4.56,0,0,1,2.9.853,2.687,2.687,0,0,1,1.085,2.215H168a1.229,1.229,0,0,0-.352-.9,1.488,1.488,0,0,0-1.1-.356,1.52,1.52,0,0,0-.993.29.916.916,0,0,0-.352.738.783.783,0,0,0,.4.681,4.114,4.114,0,0,0,1.349.448,11.019,11.019,0,0,1,1.6.426,2.628,2.628,0,0,1,2.013,2.558,2.481,2.481,0,0,1-1.116,2.1,4.815,4.815,0,0,1-2.883.8,5.029,5.029,0,0,1-2.123-.426,3.561,3.561,0,0,1-1.455-1.169,2.716,2.716,0,0,1-.527-1.6h2.408a1.326,1.326,0,0,0,.5,1.037,1.987,1.987,0,0,0,1.248.36,1.839,1.839,0,0,0,1.1-.277A.861.861,0,0,0,168.093,34.372Zm8.191-2.2a5.731,5.731,0,0,1,1-3.542,3.237,3.237,0,0,1,2.729-1.318,2.913,2.913,0,0,1,2.294,1.037V23.5h2.549V37H182.56l-.123-1.011a2.989,2.989,0,0,1-2.443,1.187,3.228,3.228,0,0,1-2.694-1.323A5.916,5.916,0,0,1,176.285,32.175Zm2.54.189a3.754,3.754,0,0,0,.466,2.051,1.517,1.517,0,0,0,1.354.713,1.7,1.7,0,0,0,1.661-.995V30.375a1.675,1.675,0,0,0-1.644-.995Q178.825,29.38,178.825,32.364ZM191.2,37.176a4.668,4.668,0,0,1-3.406-1.283,4.561,4.561,0,0,1-1.314-3.419v-.246a5.745,5.745,0,0,1,.554-2.562,4.064,4.064,0,0,1,1.569-1.74,4.4,4.4,0,0,1,2.316-.611,3.947,3.947,0,0,1,3.072,1.23,5,5,0,0,1,1.121,3.489v1.037h-6.056a2.36,2.36,0,0,0,.743,1.494,2.245,2.245,0,0,0,1.569.563,2.742,2.742,0,0,0,2.294-1.063l1.248,1.4a3.813,3.813,0,0,1-1.547,1.261A5.075,5.075,0,0,1,191.2,37.176Zm-.29-7.813a1.587,1.587,0,0,0-1.226.512,2.651,2.651,0,0,0-.6,1.466h3.533v-.2a1.891,1.891,0,0,0-.457-1.311A1.638,1.638,0,0,0,190.91,29.362ZM199.233,37h-2.549V23.5h2.549Zm15.135-4.667a5.7,5.7,0,0,1-1,3.52,3.2,3.2,0,0,1-2.694,1.323,2.963,2.963,0,0,1-2.329-1v4.482h-2.54V27.49h2.355l.088.932a2.985,2.985,0,0,1,2.408-1.107,3.22,3.22,0,0,1,2.733,1.3,5.858,5.858,0,0,1,.976,3.586Zm-2.54-.185a3.743,3.743,0,0,0-.47-2.048,1.532,1.532,0,0,0-1.367-.721,1.663,1.663,0,0,0-1.644.914v3.894a1.692,1.692,0,0,0,1.661.94Q211.828,35.128,211.828,32.148ZM218.622,37h-2.549V23.5h2.549Zm7.6,0a2.821,2.821,0,0,1-.255-.853,3.073,3.073,0,0,1-2.4,1.028,3.376,3.376,0,0,1-2.316-.809,2.6,2.6,0,0,1-.918-2.039,2.687,2.687,0,0,1,1.121-2.32,5.529,5.529,0,0,1,3.239-.817h1.169v-.545a1.567,1.567,0,0,0-.338-1.055,1.331,1.331,0,0,0-1.068-.4,1.513,1.513,0,0,0-1.006.308,1.045,1.045,0,0,0-.365.844h-2.54a2.551,2.551,0,0,1,.51-1.529,3.37,3.37,0,0,1,1.441-1.1,5.253,5.253,0,0,1,2.092-.4,4.15,4.15,0,0,1,2.791.883,3.09,3.09,0,0,1,1.033,2.483V34.8a4.546,4.546,0,0,0,.378,2.048V37Zm-2.1-1.767a2.188,2.188,0,0,0,1.037-.25,1.645,1.645,0,0,0,.7-.672V32.676h-.949q-1.907,0-2.03,1.318l-.009.149a1.017,1.017,0,0,0,.334.782A1.3,1.3,0,0,0,224.124,35.233ZM232.7,27.49l.079,1.1a3.32,3.32,0,0,1,2.733-1.274,2.759,2.759,0,0,1,2.25.888,4.142,4.142,0,0,1,.756,2.654V37h-2.54V30.918a1.648,1.648,0,0,0-.352-1.173,1.574,1.574,0,0,0-1.169-.365,1.747,1.747,0,0,0-1.608.914V37h-2.54V27.49Zm11.83,4.685a5.731,5.731,0,0,1,1-3.542,3.237,3.237,0,0,1,2.729-1.318,2.913,2.913,0,0,1,2.294,1.037V23.5H253.1V37h-2.294l-.123-1.011a2.989,2.989,0,0,1-2.443,1.187,3.228,3.228,0,0,1-2.694-1.323A5.916,5.916,0,0,1,244.532,32.175Zm2.54.189a3.754,3.754,0,0,0,.466,2.051,1.517,1.517,0,0,0,1.354.713,1.7,1.7,0,0,0,1.661-.995V30.375a1.675,1.675,0,0,0-1.644-.995Q247.072,29.38,247.072,32.364Zm12.375,4.812a4.668,4.668,0,0,1-3.406-1.283,4.561,4.561,0,0,1-1.314-3.419v-.246a5.745,5.745,0,0,1,.554-2.562,4.064,4.064,0,0,1,1.569-1.74,4.4,4.4,0,0,1,2.316-.611,3.947,3.947,0,0,1,3.072,1.23,5,5,0,0,1,1.121,3.489v1.037H257.3a2.36,2.36,0,0,0,.743,1.494,2.245,2.245,0,0,0,1.569.563,2.742,2.742,0,0,0,2.294-1.063l1.248,1.4a3.813,3.813,0,0,1-1.547,1.261A5.075,5.075,0,0,1,259.447,37.176Zm-.29-7.813a1.587,1.587,0,0,0-1.226.512,2.651,2.651,0,0,0-.6,1.466h3.533v-.2a1.891,1.891,0,0,0-.457-1.311A1.638,1.638,0,0,0,259.157,29.362Zm12.507-1.872.079,1.063a3.342,3.342,0,0,1,2.733-1.239A2.536,2.536,0,0,1,277,28.765a3.265,3.265,0,0,1,2.856-1.45,2.836,2.836,0,0,1,2.3.9,4.141,4.141,0,0,1,.756,2.711V37h-2.549V30.936a1.811,1.811,0,0,0-.316-1.182,1.4,1.4,0,0,0-1.116-.374,1.585,1.585,0,0,0-1.582,1.09l.009,6.53h-2.54V30.944a1.789,1.789,0,0,0-.325-1.2,1.416,1.416,0,0,0-1.107-.369,1.646,1.646,0,0,0-1.564.9V37h-2.54V27.49Zm17.578,9.686a4.668,4.668,0,0,1-3.406-1.283,4.561,4.561,0,0,1-1.314-3.419v-.246a5.745,5.745,0,0,1,.554-2.562,4.064,4.064,0,0,1,1.569-1.74,4.4,4.4,0,0,1,2.316-.611,3.947,3.947,0,0,1,3.072,1.23,5,5,0,0,1,1.121,3.489v1.037H287.1a2.36,2.36,0,0,0,.743,1.494,2.245,2.245,0,0,0,1.569.563,2.742,2.742,0,0,0,2.294-1.063l1.248,1.4a3.813,3.813,0,0,1-1.547,1.261A5.075,5.075,0,0,1,289.242,37.176Zm-.29-7.813a1.587,1.587,0,0,0-1.226.512,2.651,2.651,0,0,0-.6,1.466h3.533v-.2a1.891,1.891,0,0,0-.457-1.311A1.638,1.638,0,0,0,288.952,29.362Zm10.986.51a6.9,6.9,0,0,0-.914-.07,1.86,1.86,0,0,0-1.89.976V37h-2.54V27.49h2.4l.07,1.134a2.354,2.354,0,0,1,2.118-1.31,2.662,2.662,0,0,1,.791.114Zm5.01,5.256a1.666,1.666,0,0,0,1.143-.387,1.355,1.355,0,0,0,.457-1.028h2.382a3.258,3.258,0,0,1-.527,1.771,3.48,3.48,0,0,1-1.419,1.248,4.442,4.442,0,0,1-1.991.444,4.129,4.129,0,0,1-3.217-1.3A5.13,5.13,0,0,1,300.6,32.3v-.167a5.071,5.071,0,0,1,1.169-3.507,4.08,4.08,0,0,1,3.208-1.31,4,4,0,0,1,2.861,1.015,3.594,3.594,0,0,1,1.094,2.7h-2.382a1.745,1.745,0,0,0-.457-1.206,1.7,1.7,0,0,0-2.5.183,3.749,3.749,0,0,0-.453,2.1v.264a3.8,3.8,0,0,0,.448,2.113A1.549,1.549,0,0,0,304.948,35.128ZM315.89,37a2.821,2.821,0,0,1-.255-.853,3.073,3.073,0,0,1-2.4,1.028,3.376,3.376,0,0,1-2.316-.809A2.6,2.6,0,0,1,310,34.328a2.687,2.687,0,0,1,1.121-2.32,5.529,5.529,0,0,1,3.239-.817h1.169v-.545a1.567,1.567,0,0,0-.338-1.055,1.331,1.331,0,0,0-1.068-.4,1.513,1.513,0,0,0-1.006.308,1.045,1.045,0,0,0-.365.844h-2.54a2.551,2.551,0,0,1,.51-1.529,3.37,3.37,0,0,1,1.441-1.1,5.253,5.253,0,0,1,2.092-.4,4.15,4.15,0,0,1,2.791.883,3.09,3.09,0,0,1,1.033,2.483V34.8a4.546,4.546,0,0,0,.378,2.048V37Zm-2.1-1.767a2.188,2.188,0,0,0,1.037-.25,1.645,1.645,0,0,0,.7-.672V32.676h-.949q-1.907,0-2.03,1.318l-.009.149a1.017,1.017,0,0,0,.334.782A1.3,1.3,0,0,0,313.79,35.233Zm5.845-3.059a5.731,5.731,0,0,1,1-3.542,3.237,3.237,0,0,1,2.729-1.318,2.913,2.913,0,0,1,2.294,1.037V23.5H328.2V37H325.91l-.123-1.011a2.989,2.989,0,0,1-2.443,1.187,3.228,3.228,0,0,1-2.694-1.323A5.916,5.916,0,0,1,319.634,32.175Zm2.54.189a3.754,3.754,0,0,0,.466,2.051,1.517,1.517,0,0,0,1.354.713,1.7,1.7,0,0,0,1.661-.995V30.375a1.675,1.675,0,0,0-1.644-.995Q322.174,29.38,322.174,32.364Zm12.375,4.812a4.668,4.668,0,0,1-3.406-1.283,4.561,4.561,0,0,1-1.314-3.419v-.246a5.745,5.745,0,0,1,.554-2.562,4.064,4.064,0,0,1,1.569-1.74,4.4,4.4,0,0,1,2.316-.611,3.947,3.947,0,0,1,3.072,1.23,5,5,0,0,1,1.121,3.489v1.037H332.4a2.36,2.36,0,0,0,.743,1.494,2.245,2.245,0,0,0,1.569.563,2.742,2.742,0,0,0,2.294-1.063l1.248,1.4a3.813,3.813,0,0,1-1.547,1.261A5.075,5.075,0,0,1,334.549,37.176Zm-.29-7.813a1.587,1.587,0,0,0-1.226.512,2.651,2.651,0,0,0-.6,1.466h3.533v-.2a1.891,1.891,0,0,0-.457-1.311A1.638,1.638,0,0,0,334.259,29.362Zm5.247,2.795a5.64,5.64,0,0,1,.545-2.522,3.989,3.989,0,0,1,1.569-1.714A4.577,4.577,0,0,1,344,27.314a4.33,4.33,0,0,1,3.142,1.178,4.727,4.727,0,0,1,1.358,3.2l.018.65a4.97,4.97,0,0,1-1.222,3.511,4.735,4.735,0,0,1-6.561,0,5.058,5.058,0,0,1-1.226-3.586Zm2.54.18a3.555,3.555,0,0,0,.51,2.073,1.831,1.831,0,0,0,2.9.009,3.89,3.89,0,0,0,.519-2.267,3.519,3.519,0,0,0-.519-2.06A1.686,1.686,0,0,0,344,29.362a1.658,1.658,0,0,0-1.441.726A3.955,3.955,0,0,0,342.046,32.338Z" transform="translate(-4266 -10067)" fill="#12263f"/>
  </g>
</svg>
