<svg xmlns="http://www.w3.org/2000/svg" xmlns:xlink="http://www.w3.org/1999/xlink" width="1240" height="345" viewBox="0 0 1240 345">
  <defs>
    <clipPath id="clip-path">
      <rect id="Rectángulo_401001" data-name="Rectángulo 401001" width="828.356" height="230.224" fill="none"/>
    </clipPath>
    <clipPath id="clip-path-2">
      <rect id="Rectángulo_401015" data-name="Rectángulo 401015" width="327.327" height="318.757" fill="none"/>
    </clipPath>
    <clipPath id="clip-path-4">
      <rect id="Rectángulo_401013" data-name="Rectángulo 401013" width="167.684" height="84.383" fill="none"/>
    </clipPath>
    <clipPath id="clip-path-5">
      <path id="Trazado_873561" data-name="Trazado 873561" d="M194.113,86.977,147,66.462l-5.829-2.539.17-.489a3.207,3.207,0,0,0-1.756-4L79.925,33.608,72.1,30.223l1.142-3.28a2.99,2.99,0,0,0-1.842-3.8L49.939,15.673a2.989,2.989,0,0,0-3.8,1.842L30.645,62.048a2.989,2.989,0,0,0,1.84,3.8L53.95,73.319a2.989,2.989,0,0,0,3.8-1.842L58.9,68.2l71.047,18.97a3.209,3.209,0,0,0,3.857-2.045l.121-.348L189.686,99.66a6.735,6.735,0,0,0,4.427-12.683" transform="translate(-30.478 -15.506)" fill="#3656b3"/>
    </clipPath>
  </defs>
  <g id="img3" transform="translate(-180 -1653)">
    <rect id="Rectángulo_401000" data-name="Rectángulo 401000" width="1240" height="345" transform="translate(180 1653)" fill="#f3f9ff"/>
    <g id="Grupo_1099693" data-name="Grupo 1099693" transform="translate(242 1744.698)">
      <g id="Grupo_1099684" data-name="Grupo 1099684">
        <g id="Grupo_1099683" data-name="Grupo 1099683" clip-path="url(#clip-path)">
          <path id="Trazado_873488" data-name="Trazado 873488" d="M50.2,175.546a1.21,1.21,0,0,1-1.21-1.21V105.924a1.21,1.21,0,1,1,2.42,0v68.412a1.21,1.21,0,0,1-1.21,1.21" fill="#315884"/>
          <path id="Trazado_873489" data-name="Trazado 873489" d="M87.15,100.4h-73.9A13.285,13.285,0,0,1,0,87.15v-73.9A13.285,13.285,0,0,1,13.246,0h73.9A13.285,13.285,0,0,1,100.4,13.246v73.9A13.285,13.285,0,0,1,87.15,100.4" fill="#315884"/>
          <path id="Trazado_873490" data-name="Trazado 873490" d="M50.2,38.583a5.74,5.74,0,1,0-5.739-5.739A5.746,5.746,0,0,0,50.2,38.583m0-9.822a4.082,4.082,0,1,1-4.082,4.083A4.087,4.087,0,0,1,50.2,28.761" fill="#fff"/>
          <path id="Trazado_873491" data-name="Trazado 873491" d="M58.764,57.356l1.357-9.247a6.406,6.406,0,0,0-6.4-6.4h-7.05a6.42,6.42,0,0,0-6.386,6.538l1.55,9.072C35,58.2,28.026,60.408,28.026,64.136c0,4.748,11.424,7.309,22.172,7.309S72.37,68.884,72.37,64.136c0-3.684-6.876-5.889-13.606-6.78m-15.9,6a.689.689,0,0,0,.036.1.724.724,0,0,0,.046.128.761.761,0,0,0,.1.146,1.008,1.008,0,0,0,.079.094.876.876,0,0,0,.16.107.724.724,0,0,0,.093.054.819.819,0,0,0,.3.061H57.066a.821.821,0,0,0,.1-.02.809.809,0,0,0,.164-.033.793.793,0,0,0,.141-.067.883.883,0,0,0,.129-.087.748.748,0,0,0,.25-.4.66.66,0,0,0,.035-.1l.247-1.681c4.245.6,5.935,1.524,6.067,1.853-.29.848-5.356,2.428-14,2.428s-13.712-1.58-14-2.374c.141-.4,1.918-1.358,6.375-1.951Zm3.805-19.984h7.05a4.736,4.736,0,0,1,4.75,4.621l-1.468,9.957c0,.01-.008.018-.009.028A.164.164,0,0,0,57,58l-.376,2.548c-.005.024-.02.044-.023.069s.006.037.005.056l-.253,1.715H44.382l-.308-1.8v-.006l-.45-2.62a.136.136,0,0,0,0-.02.357.357,0,0,0-.011-.035l-1.682-9.8a4.746,4.746,0,0,1,4.741-4.741M50.2,69.788c-12.09,0-20.514-2.979-20.514-5.652,0-1.826,4.274-4.149,12.433-5.179l.172,1.008c-3.72.494-7.747,1.505-7.747,3.566,0,3.2,9.841,4.06,15.656,4.06s15.656-.856,15.656-4.06c0-1.644-2.536-2.822-7.48-3.517L58.523,59c8,1.046,12.189,3.344,12.189,5.139,0,2.673-8.424,5.652-20.514,5.652" fill="#fff"/>
          <path id="Trazado_873492" data-name="Trazado 873492" d="M228.049,175.546a1.21,1.21,0,0,1-1.21-1.21V105.924a1.21,1.21,0,1,1,2.42,0v68.412a1.21,1.21,0,0,1-1.21,1.21" fill="#85b6ec"/>
          <path id="Trazado_873493" data-name="Trazado 873493" d="M265,100.4H191.1A13.285,13.285,0,0,1,177.851,87.15v-73.9A13.285,13.285,0,0,1,191.1,0H265a13.285,13.285,0,0,1,13.246,13.246v73.9A13.285,13.285,0,0,1,265,100.4" fill="#85b6ec"/>
          <path id="Trazado_873494" data-name="Trazado 873494" d="M219.211,46.812a6.254,6.254,0,0,0-1.622-1.018l-.141-.058h0l-.023-.009-.019,0a6.272,6.272,0,0,0-4.575.007l-.154.063h0a6.281,6.281,0,0,0-3.256,3.245c-.006.014-.063.151-.07.166a6.194,6.194,0,0,0-.446,2.317,6.121,6.121,0,0,0,.434,2.283c.006.017.063.155.069.171a6.3,6.3,0,0,0,3.415,3.334,6.188,6.188,0,0,0,2.315.446,6.344,6.344,0,0,0,2.453-.505,6.17,6.17,0,0,0,1.626-1.017,6.432,6.432,0,0,0,1.709-2.4,6.189,6.189,0,0,0,.446-2.316,6.367,6.367,0,0,0-.505-2.457,6.215,6.215,0,0,0-1.65-2.254m.129,6.513a4.633,4.633,0,0,1-1.214,1.657,4.779,4.779,0,0,1-1.3.791,4.476,4.476,0,0,1-3.5-.044,4.687,4.687,0,0,1-2.446-2.508,4.536,4.536,0,0,1-.327-1.7,4.675,4.675,0,0,1,.371-1.8,4.619,4.619,0,0,1,2.4-2.4c.017-.007.028-.023.045-.031s.041,0,.06-.012a4.611,4.611,0,0,1,3.4,0c.018.007.036,0,.055.01s.03.025.048.033a4.593,4.593,0,0,1,1.2.75,4.713,4.713,0,0,1,1.254,1.758,4.541,4.541,0,0,1,.327,1.7,4.7,4.7,0,0,1-.369,1.8" fill="#1e0b4a"/>
          <path id="Trazado_873495" data-name="Trazado 873495" d="M235.1,35.632a.829.829,0,1,0,0-1.657h-5.581a.828.828,0,0,0-.828.829v15.89h-2.482v-1.3a.827.827,0,0,0-.828-.828h-1.292a9.385,9.385,0,0,0-.533-1.286l.913-.914a.828.828,0,0,0,0-1.172l-3.01-3.011a.828.828,0,0,0-1.172,0l-.915.915a9.222,9.222,0,0,0-1.284-.534V41.271a.829.829,0,0,0-.829-.829H213a.828.828,0,0,0-.828.829v1.292a9.24,9.24,0,0,0-1.286.533l-.914-.914a.828.828,0,0,0-1.172,0l-3.012,3.011a.828.828,0,0,0,0,1.172l.915.915a9.3,9.3,0,0,0-.533,1.285H204.88a.828.828,0,0,0-.829.828v4.259a.828.828,0,0,0,.829.828h1.293a9.3,9.3,0,0,0,.533,1.285l-.915.915a.828.828,0,0,0,0,1.172l3.012,3.011a.828.828,0,0,0,1.172,0l.914-.914a9.24,9.24,0,0,0,1.286.533v1.292A.828.828,0,0,0,213,62.6h4.259a.829.829,0,0,0,.829-.829V60.482a9.222,9.222,0,0,0,1.284-.534l.915.915a.828.828,0,0,0,1.172,0l3.01-3.011a.828.828,0,0,0,0-1.172l-.913-.914a9.385,9.385,0,0,0,.533-1.286h1.292a.827.827,0,0,0,.828-.828v-1.3h2.482v15.89a.828.828,0,0,0,.828.829H235.1a.828.828,0,1,0,0-1.657h-4.752V52.351H235.1a.829.829,0,1,0,0-1.657h-4.752V35.632ZM224.555,52.823H223.5c-.022,0-.04.011-.062.013a.753.753,0,0,0-.157.031.805.805,0,0,0-.154.055A.952.952,0,0,0,223,53a.854.854,0,0,0-.127.113.9.9,0,0,0-.081.12.768.768,0,0,0-.076.158.536.536,0,0,0-.026.054,7.777,7.777,0,0,1-.855,2.059c-.011.019-.011.04-.021.059a.813.813,0,0,0-.055.157.751.751,0,0,0-.03.153.785.785,0,0,0,.009.153.773.773,0,0,0,.03.158.8.8,0,0,0,.065.136.777.777,0,0,0,.094.142c.014.016.019.036.034.052l.75.75L220.876,59.1l-.751-.75c-.015-.014-.034-.02-.05-.033a.76.76,0,0,0-.148-.1.825.825,0,0,0-.131-.062.881.881,0,0,0-.161-.031.849.849,0,0,0-.151-.008,1.078,1.078,0,0,0-.311.086c-.018.01-.04.01-.058.021a7.715,7.715,0,0,1-2.057.853.61.61,0,0,0-.058.027.854.854,0,0,0-.149.072.767.767,0,0,0-.129.087.757.757,0,0,0-.1.116.838.838,0,0,0-.089.131.794.794,0,0,0-.051.144.757.757,0,0,0-.033.164c0,.022-.013.04-.013.062v1.06h-2.6v-1.06c0-.022-.011-.04-.012-.062a.848.848,0,0,0-.034-.165.784.784,0,0,0-.051-.143.775.775,0,0,0-.089-.131.713.713,0,0,0-.1-.116.767.767,0,0,0-.129-.087.854.854,0,0,0-.149-.072.61.61,0,0,0-.058-.027,7.707,7.707,0,0,1-2.058-.853c-.019-.011-.04-.011-.059-.021a.743.743,0,0,0-.158-.056.8.8,0,0,0-.153-.03.838.838,0,0,0-.15.008.738.738,0,0,0-.162.032.8.8,0,0,0-.13.06.857.857,0,0,0-.149.1c-.015.014-.035.019-.049.033l-.75.75-1.84-1.839.751-.75c.015-.016.021-.037.035-.053a.838.838,0,0,0,.092-.139.631.631,0,0,0,.1-.293.832.832,0,0,0,.009-.158.852.852,0,0,0-.029-.149.8.8,0,0,0-.058-.161c-.009-.019-.009-.04-.02-.059a7.7,7.7,0,0,1-.853-2.055c-.006-.021-.02-.036-.027-.056a.8.8,0,0,0-.069-.148.805.805,0,0,0-.093-.137.75.75,0,0,0-.1-.089.782.782,0,0,0-.152-.1.843.843,0,0,0-.122-.044.753.753,0,0,0-.183-.037c-.02,0-.038-.012-.059-.012h-1.06v-2.6h1.06a.8.8,0,0,0,.457-.156.714.714,0,0,0,.067-.045.815.815,0,0,0,.257-.391c0-.014.018-.02.022-.034a7.7,7.7,0,0,1,.853-2.055c.011-.019.011-.04.02-.059a.8.8,0,0,0,.058-.161.852.852,0,0,0,.029-.149.833.833,0,0,0-.009-.158.811.811,0,0,0-.03-.153.775.775,0,0,0-.066-.14.838.838,0,0,0-.092-.139c-.014-.016-.02-.037-.035-.053l-.751-.75,1.84-1.839.75.75a.812.812,0,0,0,.126.084.874.874,0,0,0,.1.065.81.81,0,0,0,.739-.011c.015-.008.032,0,.047-.013a7.707,7.707,0,0,1,2.058-.853.61.61,0,0,0,.058-.027.854.854,0,0,0,.149-.072.832.832,0,0,0,.129-.087.713.713,0,0,0,.1-.116.775.775,0,0,0,.089-.131.784.784,0,0,0,.051-.143.848.848,0,0,0,.034-.165c0-.022.012-.04.012-.062V42.1h2.6v1.06c0,.022.011.04.013.062a.757.757,0,0,0,.033.164.794.794,0,0,0,.051.144.838.838,0,0,0,.089.131.757.757,0,0,0,.1.116.832.832,0,0,0,.129.087.854.854,0,0,0,.149.072.61.61,0,0,0,.058.027,7.715,7.715,0,0,1,2.057.853c.015.009.032.005.046.013a.81.81,0,0,0,.739.011.724.724,0,0,0,.1-.065.776.776,0,0,0,.127-.084l.751-.75,1.839,1.839-.75.75c-.015.016-.02.036-.034.052a.776.776,0,0,0-.094.142.8.8,0,0,0-.065.136.773.773,0,0,0-.03.158.785.785,0,0,0-.009.153.751.751,0,0,0,.03.153.813.813,0,0,0,.055.157c.01.019.01.04.021.059a7.777,7.777,0,0,1,.855,2.059c0,.014.018.02.022.034a.8.8,0,0,0,.257.389.612.612,0,0,0,.067.046.809.809,0,0,0,.456.155h1.059Z" fill="#1e0b4a"/>
          <path id="Trazado_873496" data-name="Trazado 873496" d="M244.168,39.28a4.476,4.476,0,1,0-4.477-4.476,4.482,4.482,0,0,0,4.477,4.476m0-7.3a2.819,2.819,0,1,1-2.82,2.82,2.823,2.823,0,0,1,2.82-2.82" fill="#1e0b4a"/>
          <path id="Trazado_873497" data-name="Trazado 873497" d="M240.52,56h7.3a.829.829,0,0,0,.829-.829v-7.3a.828.828,0,0,0-.829-.828h-7.3a.828.828,0,0,0-.829.828v7.3a.829.829,0,0,0,.829.829m.829-7.3h5.639v5.639h-5.639Z" fill="#1e0b4a"/>
          <path id="Trazado_873498" data-name="Trazado 873498" d="M244.885,63.709a.86.86,0,0,0-1.434,0l-4.629,8.016a.829.829,0,0,0,.717,1.243H248.8a.829.829,0,0,0,.717-1.243Zm-3.91,7.6,3.193-5.531,3.194,5.531Z" fill="#1e0b4a"/>
          <path id="Trazado_873499" data-name="Trazado 873499" d="M405.9,175.546a1.21,1.21,0,0,1-1.21-1.21V105.924a1.21,1.21,0,1,1,2.42,0v68.412a1.21,1.21,0,0,1-1.21,1.21" fill="#59c4c8"/>
          <path id="Trazado_873500" data-name="Trazado 873500" d="M442.851,100.4h-73.9A13.285,13.285,0,0,1,355.7,87.15v-73.9A13.285,13.285,0,0,1,368.947,0h73.9A13.285,13.285,0,0,1,456.1,13.246v73.9A13.285,13.285,0,0,1,442.851,100.4" fill="#59c4c8"/>
          <path id="Trazado_873501" data-name="Trazado 873501" d="M583.75,175.546a1.21,1.21,0,0,1-1.21-1.21V105.924a1.21,1.21,0,0,1,2.42,0v68.412a1.21,1.21,0,0,1-1.21,1.21" fill="#fe9b4f"/>
          <path id="Trazado_873502" data-name="Trazado 873502" d="M620.7,100.4H546.8A13.285,13.285,0,0,1,533.552,87.15v-73.9A13.285,13.285,0,0,1,546.8,0h73.9a13.285,13.285,0,0,1,13.246,13.246v73.9A13.285,13.285,0,0,1,620.7,100.4" fill="#fe9b4f"/>
          <path id="Trazado_873503" data-name="Trazado 873503" d="M761.6,175.546a1.21,1.21,0,0,1-1.21-1.21V105.924a1.21,1.21,0,1,1,2.42,0v68.412a1.21,1.21,0,0,1-1.21,1.21" fill="#2a5f61"/>
          <path id="Trazado_873504" data-name="Trazado 873504" d="M798.553,100.4h-73.9A13.285,13.285,0,0,1,711.4,87.15v-73.9A13.285,13.285,0,0,1,724.649,0h73.9A13.285,13.285,0,0,1,811.8,13.246v73.9A13.285,13.285,0,0,1,798.553,100.4" fill="#2a5f61"/>
        </g>
      </g>
      <path id="Trazado_874724" data-name="Trazado 874724" d="M1.143,0V-12.8H5.08a5.98,5.98,0,0,1,3.019.76,5.3,5.3,0,0,1,2.079,2.162,6.669,6.669,0,0,1,.747,3.186V-6.1a6.688,6.688,0,0,1-.734,3.173A5.256,5.256,0,0,1,8.121-.773,6.025,6.025,0,0,1,5.106,0ZM3.779-10.661v8.543H5.054A2.863,2.863,0,0,0,7.418-3.129a4.567,4.567,0,0,0,.835-2.892V-6.7a4.64,4.64,0,0,0-.809-2.958A2.854,2.854,0,0,0,5.08-10.661ZM17.051.176a4.668,4.668,0,0,1-3.406-1.283,4.561,4.561,0,0,1-1.314-3.419v-.246a5.745,5.745,0,0,1,.554-2.562,4.064,4.064,0,0,1,1.569-1.74,4.4,4.4,0,0,1,2.316-.611,3.947,3.947,0,0,1,3.072,1.23,5,5,0,0,1,1.121,3.489v1.037H14.906a2.36,2.36,0,0,0,.743,1.494,2.245,2.245,0,0,0,1.569.563,2.742,2.742,0,0,0,2.294-1.063l1.248,1.4A3.813,3.813,0,0,1,19.213-.277,5.075,5.075,0,0,1,17.051.176Zm-.29-7.813a1.587,1.587,0,0,0-1.226.512,2.651,2.651,0,0,0-.6,1.466h3.533v-.2a1.891,1.891,0,0,0-.457-1.311A1.638,1.638,0,0,0,16.761-7.638ZM23.019,0V-7.646H21.6V-9.51h1.415v-.439a3.566,3.566,0,0,1,1.1-2.764,4.438,4.438,0,0,1,3.063-.971,10.16,10.16,0,0,1,2.883.519l-.369,2.1a11.248,11.248,0,0,0-1.336-.33,6.564,6.564,0,0,0-1.02-.075q-1.775,0-1.775,1.573v.387h1.872v1.863H25.567V0Zm8.235,0H28.705V-9.51h2.549Zm4.438-9.51.079,1.1A3.32,3.32,0,0,1,38.5-9.686a2.759,2.759,0,0,1,2.25.888,4.142,4.142,0,0,1,.756,2.654V0h-2.54V-6.082a1.648,1.648,0,0,0-.352-1.173A1.574,1.574,0,0,0,37.45-7.62a1.747,1.747,0,0,0-1.608.914V0H33.3V-9.51ZM46.116,0H43.567V-9.51h2.549Zm-2.7-11.971a1.251,1.251,0,0,1,.382-.94,1.436,1.436,0,0,1,1.042-.369,1.44,1.44,0,0,1,1.037.369,1.244,1.244,0,0,1,.387.94,1.247,1.247,0,0,1-.391.949,1.443,1.443,0,0,1-1.033.369,1.443,1.443,0,0,1-1.033-.369A1.247,1.247,0,0,1,43.418-11.971ZM53.552-7.128a6.9,6.9,0,0,0-.914-.07,1.86,1.86,0,0,0-1.89.976V0h-2.54V-9.51h2.4l.07,1.134A2.354,2.354,0,0,1,52.8-9.686a2.662,2.662,0,0,1,.791.114Z" transform="translate(24.373 203.746)" fill="#1e0b4a"/>
      <g id="Grupo_1099686" data-name="Grupo 1099686">
        <path id="Trazado_874725" data-name="Trazado 874725" d="M.58-4.843a5.64,5.64,0,0,1,.545-2.522A3.989,3.989,0,0,1,2.694-9.079a4.577,4.577,0,0,1,2.377-.606A4.33,4.33,0,0,1,8.213-8.508a4.727,4.727,0,0,1,1.358,3.2l.018.65A4.97,4.97,0,0,1,8.367-1.147,4.247,4.247,0,0,1,5.089.176,4.268,4.268,0,0,1,1.806-1.143,5.058,5.058,0,0,1,.58-4.729Zm2.54.18a3.555,3.555,0,0,0,.51,2.073,1.682,1.682,0,0,0,1.459.717A1.686,1.686,0,0,0,6.53-2.581a3.89,3.89,0,0,0,.519-2.267,3.519,3.519,0,0,0-.519-2.06,1.686,1.686,0,0,0-1.459-.731,1.658,1.658,0,0,0-1.441.726A3.955,3.955,0,0,0,3.12-4.662Zm16.6,0A5.758,5.758,0,0,1,18.747-1.1,3.231,3.231,0,0,1,16.022.176a2.969,2.969,0,0,1-2.47-1.187L13.438,0H11.153V-13.5h2.54v4.843A2.893,2.893,0,0,1,16-9.686a3.258,3.258,0,0,1,2.729,1.279,5.767,5.767,0,0,1,.989,3.6Zm-2.54-.185a3.783,3.783,0,0,0-.457-2.1,1.545,1.545,0,0,0-1.362-.664,1.676,1.676,0,0,0-1.67.993v3.753a1.7,1.7,0,0,0,1.688,1A1.568,1.568,0,0,0,17-3.085,6.257,6.257,0,0,0,17.183-4.852ZM23.977-9.51V.519a3.4,3.4,0,0,1-.835,2.448,3.174,3.174,0,0,1-2.408.875,5.165,5.165,0,0,1-1.257-.149V1.679a4.768,4.768,0,0,0,.8.079q1.151,0,1.151-1.222V-9.51Zm-2.751-2.461a1.251,1.251,0,0,1,.382-.94,1.436,1.436,0,0,1,1.042-.369,1.436,1.436,0,0,1,1.042.369,1.251,1.251,0,0,1,.382.94,1.247,1.247,0,0,1-.391.949,1.443,1.443,0,0,1-1.033.369,1.443,1.443,0,0,1-1.033-.369A1.247,1.247,0,0,1,21.226-11.971ZM30.34.176a4.668,4.668,0,0,1-3.406-1.283A4.561,4.561,0,0,1,25.62-4.526v-.246a5.745,5.745,0,0,1,.554-2.562,4.064,4.064,0,0,1,1.569-1.74,4.4,4.4,0,0,1,2.316-.611,3.947,3.947,0,0,1,3.072,1.23,5,5,0,0,1,1.121,3.489v1.037H28.2a2.36,2.36,0,0,0,.743,1.494,2.245,2.245,0,0,0,1.569.563A2.742,2.742,0,0,0,32.8-2.936l1.248,1.4A3.813,3.813,0,0,1,32.5-.277,5.075,5.075,0,0,1,30.34.176Zm-.29-7.813a1.587,1.587,0,0,0-1.226.512,2.651,2.651,0,0,0-.6,1.466h3.533v-.2A1.891,1.891,0,0,0,31.3-7.174,1.638,1.638,0,0,0,30.05-7.638Zm8.684-4.21V-9.51h1.626v1.863H38.733V-2.9a1.133,1.133,0,0,0,.2.756,1.015,1.015,0,0,0,.773.229,4.051,4.051,0,0,0,.747-.062V-.053a5.229,5.229,0,0,1-1.538.229,2.425,2.425,0,0,1-2.725-2.7V-7.646H34.8V-9.51h1.389v-2.338ZM44.455,0H41.906V-9.51h2.549Zm-2.7-11.971a1.251,1.251,0,0,1,.382-.94,1.436,1.436,0,0,1,1.042-.369,1.44,1.44,0,0,1,1.037.369,1.244,1.244,0,0,1,.387.94,1.247,1.247,0,0,1-.391.949,1.443,1.443,0,0,1-1.033.369,1.443,1.443,0,0,1-1.033-.369A1.247,1.247,0,0,1,41.757-11.971ZM50.106-3.1,51.873-9.51h2.654L51.319,0H48.894L45.686-9.51H48.34Zm4.884-1.74a5.64,5.64,0,0,1,.545-2.522A3.989,3.989,0,0,1,57.1-9.079a4.577,4.577,0,0,1,2.377-.606,4.33,4.33,0,0,1,3.142,1.178,4.727,4.727,0,0,1,1.358,3.2l.018.65a4.97,4.97,0,0,1-1.222,3.511A4.247,4.247,0,0,1,59.5.176a4.268,4.268,0,0,1-3.283-1.318A5.058,5.058,0,0,1,54.99-4.729Zm2.54.18a3.555,3.555,0,0,0,.51,2.073,1.682,1.682,0,0,0,1.459.717,1.686,1.686,0,0,0,1.441-.709,3.89,3.89,0,0,0,.519-2.267,3.519,3.519,0,0,0-.519-2.06,1.686,1.686,0,0,0-1.459-.731,1.658,1.658,0,0,0-1.441.726A3.955,3.955,0,0,0,57.53-4.662ZM70.714-2.628a.818.818,0,0,0-.461-.734,5.241,5.241,0,0,0-1.481-.479q-3.393-.712-3.393-2.883a2.613,2.613,0,0,1,1.05-2.114,4.237,4.237,0,0,1,2.747-.848,4.56,4.56,0,0,1,2.9.853,2.687,2.687,0,0,1,1.085,2.215h-2.54a1.229,1.229,0,0,0-.352-.9,1.488,1.488,0,0,0-1.1-.356,1.52,1.52,0,0,0-.993.29.916.916,0,0,0-.352.738.783.783,0,0,0,.4.681,4.114,4.114,0,0,0,1.349.448,11.019,11.019,0,0,1,1.6.426,2.628,2.628,0,0,1,2.013,2.558,2.481,2.481,0,0,1-1.116,2.1,4.815,4.815,0,0,1-2.883.8A5.029,5.029,0,0,1,67.062-.25a3.561,3.561,0,0,1-1.455-1.169,2.716,2.716,0,0,1-.527-1.6h2.408a1.326,1.326,0,0,0,.5,1.037,1.987,1.987,0,0,0,1.248.36,1.839,1.839,0,0,0,1.1-.277A.861.861,0,0,0,70.714-2.628Z" transform="translate(14.424 225.346)" fill="#1e0b4a"/>
        <rect id="Rectángulo_401002" data-name="Rectángulo 401002" width="828.356" height="230.224" fill="none"/>
      </g>
      <path id="Trazado_874723" data-name="Trazado 874723" d="M3.946,0H1.31V-12.8H3.946ZM8.6-9.51l.079,1.063a3.342,3.342,0,0,1,2.733-1.239,2.536,2.536,0,0,1,2.522,1.45A3.265,3.265,0,0,1,16.8-9.686a2.836,2.836,0,0,1,2.3.9,4.141,4.141,0,0,1,.756,2.711V0H17.306V-6.064a1.811,1.811,0,0,0-.316-1.182,1.4,1.4,0,0,0-1.116-.374,1.585,1.585,0,0,0-1.582,1.09L14.3,0H11.76V-6.056a1.789,1.789,0,0,0-.325-1.2,1.416,1.416,0,0,0-1.107-.369,1.646,1.646,0,0,0-1.564.9V0H6.223V-9.51ZM30.366-4.667a5.7,5.7,0,0,1-1,3.52A3.2,3.2,0,0,1,26.675.176a2.963,2.963,0,0,1-2.329-1V3.656h-2.54V-9.51h2.355l.088.932a2.985,2.985,0,0,1,2.408-1.107,3.22,3.22,0,0,1,2.733,1.3A5.858,5.858,0,0,1,30.366-4.8Zm-2.54-.185a3.743,3.743,0,0,0-.47-2.048,1.532,1.532,0,0,0-1.367-.721,1.663,1.663,0,0,0-1.644.914v3.894a1.692,1.692,0,0,0,1.661.94Q27.826-1.872,27.826-4.852ZM34.62,0H32.071V-13.5H34.62Zm6.469.176a4.668,4.668,0,0,1-3.406-1.283,4.561,4.561,0,0,1-1.314-3.419v-.246a5.745,5.745,0,0,1,.554-2.562,4.064,4.064,0,0,1,1.569-1.74,4.4,4.4,0,0,1,2.316-.611,3.947,3.947,0,0,1,3.072,1.23A5,5,0,0,1,45-4.966v1.037H38.944a2.36,2.36,0,0,0,.743,1.494,2.245,2.245,0,0,0,1.569.563A2.742,2.742,0,0,0,43.55-2.936l1.248,1.4A3.813,3.813,0,0,1,43.251-.277,5.075,5.075,0,0,1,41.089.176ZM40.8-7.638a1.587,1.587,0,0,0-1.226.512,2.651,2.651,0,0,0-.6,1.466H42.5v-.2a1.891,1.891,0,0,0-.457-1.311A1.638,1.638,0,0,0,40.8-7.638ZM48.823-9.51,48.9-8.446a3.342,3.342,0,0,1,2.733-1.239,2.536,2.536,0,0,1,2.522,1.45,3.265,3.265,0,0,1,2.856-1.45,2.836,2.836,0,0,1,2.3.9,4.141,4.141,0,0,1,.756,2.711V0H57.524V-6.064a1.811,1.811,0,0,0-.316-1.182,1.4,1.4,0,0,0-1.116-.374A1.585,1.585,0,0,0,54.51-6.53L54.519,0h-2.54V-6.056a1.789,1.789,0,0,0-.325-1.2,1.416,1.416,0,0,0-1.107-.369,1.646,1.646,0,0,0-1.564.9V0h-2.54V-9.51ZM66.4.176A4.668,4.668,0,0,1,63-1.107a4.561,4.561,0,0,1-1.314-3.419v-.246a5.745,5.745,0,0,1,.554-2.562A4.064,4.064,0,0,1,63.8-9.075a4.4,4.4,0,0,1,2.316-.611,3.947,3.947,0,0,1,3.072,1.23,5,5,0,0,1,1.121,3.489v1.037H64.257A2.36,2.36,0,0,0,65-2.435a2.245,2.245,0,0,0,1.569.563,2.742,2.742,0,0,0,2.294-1.063l1.248,1.4A3.813,3.813,0,0,1,68.563-.277,5.075,5.075,0,0,1,66.4.176Zm-.29-7.813a1.587,1.587,0,0,0-1.226.512,2.651,2.651,0,0,0-.6,1.466h3.533v-.2a1.891,1.891,0,0,0-.457-1.311A1.638,1.638,0,0,0,66.111-7.638Zm7.98-1.872.079,1.1A3.32,3.32,0,0,1,76.9-9.686a2.759,2.759,0,0,1,2.25.888,4.142,4.142,0,0,1,.756,2.654V0H77.37V-6.082a1.648,1.648,0,0,0-.352-1.173A1.574,1.574,0,0,0,75.85-7.62a1.747,1.747,0,0,0-1.608.914V0H71.7V-9.51Zm10.784-2.338V-9.51H86.5v1.863H84.876V-2.9a1.133,1.133,0,0,0,.2.756,1.015,1.015,0,0,0,.773.229,4.051,4.051,0,0,0,.747-.062V-.053a5.229,5.229,0,0,1-1.538.229,2.425,2.425,0,0,1-2.725-2.7V-7.646H80.947V-9.51h1.389v-2.338ZM93.428,0a2.821,2.821,0,0,1-.255-.853,3.073,3.073,0,0,1-2.4,1.028,3.376,3.376,0,0,1-2.316-.809,2.6,2.6,0,0,1-.918-2.039,2.687,2.687,0,0,1,1.121-2.32A5.529,5.529,0,0,1,91.9-5.81h1.169v-.545a1.567,1.567,0,0,0-.338-1.055,1.331,1.331,0,0,0-1.068-.4,1.513,1.513,0,0,0-1.006.308,1.045,1.045,0,0,0-.365.844H87.75a2.551,2.551,0,0,1,.51-1.529,3.37,3.37,0,0,1,1.441-1.1,5.253,5.253,0,0,1,2.092-.4,4.15,4.15,0,0,1,2.791.883,3.09,3.09,0,0,1,1.033,2.483V-2.2a4.546,4.546,0,0,0,.378,2.048V0Zm-2.1-1.767a2.188,2.188,0,0,0,1.037-.25,1.645,1.645,0,0,0,.7-.672V-4.324h-.949q-1.907,0-2.03,1.318l-.009.149a1.017,1.017,0,0,0,.334.782A1.3,1.3,0,0,0,91.327-1.767Zm11.584-5.361A6.9,6.9,0,0,0,102-7.2a1.86,1.86,0,0,0-1.89.976V0h-2.54V-9.51h2.4l.07,1.134a2.354,2.354,0,0,1,2.118-1.31,2.662,2.662,0,0,1,.791.114Z" transform="translate(177.68 203.746)" fill="#1e0b4a"/>
      <g id="Grupo_1099688" data-name="Grupo 1099688">
        <path id="Trazado_874722" data-name="Trazado 874722" d="M5.353.176A4.668,4.668,0,0,1,1.947-1.107,4.561,4.561,0,0,1,.633-4.526v-.246a5.745,5.745,0,0,1,.554-2.562,4.064,4.064,0,0,1,1.569-1.74,4.4,4.4,0,0,1,2.316-.611,3.947,3.947,0,0,1,3.072,1.23A5,5,0,0,1,9.264-4.966v1.037H3.208a2.36,2.36,0,0,0,.743,1.494,2.245,2.245,0,0,0,1.569.563A2.742,2.742,0,0,0,7.813-2.936l1.248,1.4A3.813,3.813,0,0,1,7.515-.277,5.075,5.075,0,0,1,5.353.176Zm-.29-7.813a1.587,1.587,0,0,0-1.226.512,2.651,2.651,0,0,0-.6,1.466H6.768v-.2a1.891,1.891,0,0,0-.457-1.311A1.638,1.638,0,0,0,5.063-7.638Zm10.793,5.01a.818.818,0,0,0-.461-.734,5.241,5.241,0,0,0-1.481-.479q-3.393-.712-3.393-2.883a2.613,2.613,0,0,1,1.05-2.114,4.237,4.237,0,0,1,2.747-.848,4.56,4.56,0,0,1,2.9.853A2.687,2.687,0,0,1,18.3-6.618h-2.54a1.229,1.229,0,0,0-.352-.9,1.488,1.488,0,0,0-1.1-.356,1.52,1.52,0,0,0-.993.29.916.916,0,0,0-.352.738.783.783,0,0,0,.4.681,4.114,4.114,0,0,0,1.349.448,11.019,11.019,0,0,1,1.6.426,2.628,2.628,0,0,1,2.013,2.558,2.481,2.481,0,0,1-1.116,2.1,4.815,4.815,0,0,1-2.883.8A5.029,5.029,0,0,1,12.2-.25a3.561,3.561,0,0,1-1.455-1.169,2.716,2.716,0,0,1-.527-1.6H12.63a1.326,1.326,0,0,0,.5,1.037,1.987,1.987,0,0,0,1.248.36,1.839,1.839,0,0,0,1.1-.277A.861.861,0,0,0,15.855-2.628ZM23-11.848V-9.51h1.626v1.863H23V-2.9a1.133,1.133,0,0,0,.2.756,1.015,1.015,0,0,0,.773.229,4.051,4.051,0,0,0,.747-.062V-.053a5.229,5.229,0,0,1-1.538.229,2.425,2.425,0,0,1-2.725-2.7V-7.646H19.072V-9.51h1.389v-2.338Zm8.385,4.72a6.9,6.9,0,0,0-.914-.07,1.86,1.86,0,0,0-1.89.976V0h-2.54V-9.51h2.4l.07,1.134a2.354,2.354,0,0,1,2.118-1.31,2.662,2.662,0,0,1,.791.114ZM37.584,0a2.821,2.821,0,0,1-.255-.853A3.073,3.073,0,0,1,34.93.176a3.376,3.376,0,0,1-2.316-.809A2.6,2.6,0,0,1,31.7-2.672a2.687,2.687,0,0,1,1.121-2.32,5.529,5.529,0,0,1,3.239-.817h1.169v-.545a1.567,1.567,0,0,0-.338-1.055,1.331,1.331,0,0,0-1.068-.4,1.513,1.513,0,0,0-1.006.308,1.045,1.045,0,0,0-.365.844h-2.54a2.551,2.551,0,0,1,.51-1.529,3.37,3.37,0,0,1,1.441-1.1,5.253,5.253,0,0,1,2.092-.4A4.15,4.15,0,0,1,38.74-8.8a3.09,3.09,0,0,1,1.033,2.483V-2.2a4.546,4.546,0,0,0,.378,2.048V0Zm-2.1-1.767a2.188,2.188,0,0,0,1.037-.25,1.645,1.645,0,0,0,.7-.672V-4.324h-.949q-1.907,0-2.03,1.318l-.009.149a1.017,1.017,0,0,0,.334.782A1.3,1.3,0,0,0,35.484-1.767Zm9.281-10.081V-9.51h1.626v1.863H44.765V-2.9a1.133,1.133,0,0,0,.2.756,1.015,1.015,0,0,0,.773.229,4.051,4.051,0,0,0,.747-.062V-.053A5.229,5.229,0,0,1,44.95.176a2.425,2.425,0,0,1-2.725-2.7V-7.646H40.836V-9.51h1.389v-2.338ZM52.183.176a4.668,4.668,0,0,1-3.406-1.283,4.561,4.561,0,0,1-1.314-3.419v-.246a5.745,5.745,0,0,1,.554-2.562,4.064,4.064,0,0,1,1.569-1.74A4.4,4.4,0,0,1,51.9-9.686a3.947,3.947,0,0,1,3.072,1.23,5,5,0,0,1,1.121,3.489v1.037H50.039a2.36,2.36,0,0,0,.743,1.494,2.245,2.245,0,0,0,1.569.563,2.742,2.742,0,0,0,2.294-1.063l1.248,1.4A3.813,3.813,0,0,1,54.345-.277,5.075,5.075,0,0,1,52.183.176Zm-.29-7.813a1.587,1.587,0,0,0-1.226.512,2.651,2.651,0,0,0-.6,1.466H53.6v-.2a1.891,1.891,0,0,0-.457-1.311A1.638,1.638,0,0,0,51.893-7.638Zm5.273,2.813A5.573,5.573,0,0,1,58.208-8.35a3.375,3.375,0,0,1,2.808-1.336,2.96,2.96,0,0,1,2.435,1.072l.105-.9h2.3V-.316a4.064,4.064,0,0,1-.567,2.171,3.641,3.641,0,0,1-1.6,1.406,5.608,5.608,0,0,1-2.408.483,5.215,5.215,0,0,1-2.039-.417,3.619,3.619,0,0,1-1.5-1.077L58.872.7a2.975,2.975,0,0,0,2.3,1.063,2.178,2.178,0,0,0,1.573-.541A2.027,2.027,0,0,0,63.31-.308v-.51A2.938,2.938,0,0,1,61,.176a3.366,3.366,0,0,1-2.773-1.34A5.572,5.572,0,0,1,57.167-4.72Zm2.54.189a3.47,3.47,0,0,0,.519,2.029,1.65,1.65,0,0,0,1.424.735,1.764,1.764,0,0,0,1.661-.871V-6.749a1.76,1.76,0,0,0-1.644-.871,1.66,1.66,0,0,0-1.437.748A3.911,3.911,0,0,0,59.707-4.636ZM70.491,0H67.942V-9.51h2.549Zm-2.7-11.971a1.251,1.251,0,0,1,.382-.94,1.436,1.436,0,0,1,1.042-.369,1.44,1.44,0,0,1,1.037.369,1.244,1.244,0,0,1,.387.94,1.247,1.247,0,0,1-.391.949,1.443,1.443,0,0,1-1.033.369,1.443,1.443,0,0,1-1.033-.369A1.247,1.247,0,0,1,67.792-11.971ZM78.093,0a2.821,2.821,0,0,1-.255-.853,3.073,3.073,0,0,1-2.4,1.028,3.376,3.376,0,0,1-2.316-.809A2.6,2.6,0,0,1,72.2-2.672a2.687,2.687,0,0,1,1.121-2.32,5.529,5.529,0,0,1,3.239-.817h1.169v-.545a1.567,1.567,0,0,0-.338-1.055,1.331,1.331,0,0,0-1.068-.4A1.513,1.513,0,0,0,75.32-7.5a1.045,1.045,0,0,0-.365.844h-2.54a2.551,2.551,0,0,1,.51-1.529,3.37,3.37,0,0,1,1.441-1.1,5.253,5.253,0,0,1,2.092-.4,4.15,4.15,0,0,1,2.791.883,3.09,3.09,0,0,1,1.033,2.483V-2.2A4.546,4.546,0,0,0,80.66-.149V0Zm-2.1-1.767a2.188,2.188,0,0,0,1.037-.25,1.645,1.645,0,0,0,.7-.672V-4.324h-.949q-1.907,0-2.03,1.318l-.009.149a1.017,1.017,0,0,0,.334.782A1.3,1.3,0,0,0,75.993-1.767Zm11.391-.861a.818.818,0,0,0-.461-.734,5.241,5.241,0,0,0-1.481-.479q-3.393-.712-3.393-2.883A2.613,2.613,0,0,1,83.1-8.837a4.237,4.237,0,0,1,2.747-.848,4.56,4.56,0,0,1,2.9.853,2.687,2.687,0,0,1,1.085,2.215h-2.54a1.229,1.229,0,0,0-.352-.9,1.488,1.488,0,0,0-1.1-.356,1.52,1.52,0,0,0-.993.29.916.916,0,0,0-.352.738.783.783,0,0,0,.4.681,4.114,4.114,0,0,0,1.349.448,11.019,11.019,0,0,1,1.6.426,2.628,2.628,0,0,1,2.013,2.558,2.481,2.481,0,0,1-1.116,2.1,4.815,4.815,0,0,1-2.883.8A5.029,5.029,0,0,1,83.731-.25a3.561,3.561,0,0,1-1.455-1.169,2.716,2.716,0,0,1-.527-1.6h2.408a1.326,1.326,0,0,0,.5,1.037,1.987,1.987,0,0,0,1.248.36,1.839,1.839,0,0,0,1.1-.277A.861.861,0,0,0,87.383-2.628Z" transform="translate(183.868 225.346)" fill="#1e0b4a"/>
        <rect id="Rectángulo_401003" data-name="Rectángulo 401003" width="828.356" height="230.224" fill="none"/>
      </g>
      <path id="Trazado_874720" data-name="Trazado 874720" d="M4.588-12.8,7.875-3.516l3.27-9.281h3.463V0H11.962V-3.5l.264-6.038L8.771,0H6.961L3.516-9.527,3.779-3.5V0H1.143V-12.8ZM21.12.176a4.668,4.668,0,0,1-3.406-1.283A4.561,4.561,0,0,1,16.4-4.526v-.246a5.745,5.745,0,0,1,.554-2.562,4.064,4.064,0,0,1,1.569-1.74,4.4,4.4,0,0,1,2.316-.611,3.947,3.947,0,0,1,3.072,1.23,5,5,0,0,1,1.121,3.489v1.037H18.976a2.36,2.36,0,0,0,.743,1.494,2.245,2.245,0,0,0,1.569.563,2.742,2.742,0,0,0,2.294-1.063l1.248,1.4A3.813,3.813,0,0,1,23.282-.277,5.075,5.075,0,0,1,21.12.176Zm-.29-7.813a1.587,1.587,0,0,0-1.226.512A2.651,2.651,0,0,0,19-5.66h3.533v-.2a1.891,1.891,0,0,0-.457-1.311A1.638,1.638,0,0,0,20.83-7.638Zm5.247,2.813a5.731,5.731,0,0,1,1-3.542A3.237,3.237,0,0,1,29.8-9.686,2.913,2.913,0,0,1,32.1-8.648V-13.5h2.549V0H32.353l-.123-1.011A2.989,2.989,0,0,1,29.786.176a3.228,3.228,0,0,1-2.694-1.323A5.916,5.916,0,0,1,26.077-4.825Zm2.54.189a3.754,3.754,0,0,0,.466,2.051,1.517,1.517,0,0,0,1.354.713A1.7,1.7,0,0,0,32.1-2.867V-6.625a1.675,1.675,0,0,0-1.644-.995Q28.617-7.62,28.617-4.636ZM39.3,0H36.747V-9.51H39.3ZM36.6-11.971a1.251,1.251,0,0,1,.382-.94,1.436,1.436,0,0,1,1.042-.369,1.44,1.44,0,0,1,1.037.369,1.244,1.244,0,0,1,.387.94,1.247,1.247,0,0,1-.391.949,1.443,1.443,0,0,1-1.033.369,1.443,1.443,0,0,1-1.033-.369A1.247,1.247,0,0,1,36.6-11.971ZM46.731-7.128a6.9,6.9,0,0,0-.914-.07,1.86,1.86,0,0,0-1.89.976V0h-2.54V-9.51h2.4l.07,1.134a2.354,2.354,0,0,1,2.118-1.31,2.662,2.662,0,0,1,.791.114Z" transform="translate(383.621 203.746)" fill="#1e0b4a"/>
      <path id="Trazado_874721" data-name="Trazado 874721" d="M6.319-7.128a6.9,6.9,0,0,0-.914-.07,1.86,1.86,0,0,0-1.89.976V0H.976V-9.51h2.4l.07,1.134a2.354,2.354,0,0,1,2.118-1.31,2.662,2.662,0,0,1,.791.114Zm5.27,7.3A4.668,4.668,0,0,1,8.183-1.107,4.561,4.561,0,0,1,6.869-4.526v-.246a5.745,5.745,0,0,1,.554-2.562,4.064,4.064,0,0,1,1.569-1.74,4.4,4.4,0,0,1,2.316-.611,3.947,3.947,0,0,1,3.072,1.23A5,5,0,0,1,15.5-4.966v1.037H9.444a2.36,2.36,0,0,0,.743,1.494,2.245,2.245,0,0,0,1.569.563A2.742,2.742,0,0,0,14.05-2.936l1.248,1.4A3.813,3.813,0,0,1,13.751-.277,5.075,5.075,0,0,1,11.589.176ZM11.3-7.638a1.587,1.587,0,0,0-1.226.512,2.651,2.651,0,0,0-.6,1.466H13v-.2a1.891,1.891,0,0,0-.457-1.311A1.638,1.638,0,0,0,11.3-7.638Zm7.98-1.872.079,1.1a3.32,3.32,0,0,1,2.733-1.274,2.759,2.759,0,0,1,2.25.888A4.142,4.142,0,0,1,25.1-6.144V0h-2.54V-6.082a1.648,1.648,0,0,0-.352-1.173,1.574,1.574,0,0,0-1.169-.365,1.747,1.747,0,0,0-1.608.914V0h-2.54V-9.51Zm7.348,4.685a5.731,5.731,0,0,1,1-3.542,3.237,3.237,0,0,1,2.729-1.318,2.913,2.913,0,0,1,2.294,1.037V-13.5H35.2V0H32.9l-.123-1.011A2.989,2.989,0,0,1,30.336.176a3.228,3.228,0,0,1-2.694-1.323A5.916,5.916,0,0,1,26.627-4.825Zm2.54.189a3.754,3.754,0,0,0,.466,2.051,1.517,1.517,0,0,0,1.354.713,1.7,1.7,0,0,0,1.661-.995V-6.625A1.675,1.675,0,0,0,31-7.62Q29.167-7.62,29.167-4.636ZM39.846,0H37.3V-9.51h2.549Zm-2.7-11.971a1.251,1.251,0,0,1,.382-.94,1.436,1.436,0,0,1,1.042-.369,1.44,1.44,0,0,1,1.037.369,1.244,1.244,0,0,1,.387.94,1.247,1.247,0,0,1-.391.949,1.443,1.443,0,0,1-1.033.369,1.443,1.443,0,0,1-1.033-.369A1.247,1.247,0,0,1,37.148-11.971ZM44.319-9.51,44.4-8.446a3.342,3.342,0,0,1,2.733-1.239,2.536,2.536,0,0,1,2.522,1.45,3.265,3.265,0,0,1,2.856-1.45,2.836,2.836,0,0,1,2.3.9,4.141,4.141,0,0,1,.756,2.711V0H53.021V-6.064A1.811,1.811,0,0,0,52.7-7.247a1.4,1.4,0,0,0-1.116-.374,1.585,1.585,0,0,0-1.582,1.09L50.015,0h-2.54V-6.056a1.789,1.789,0,0,0-.325-1.2,1.416,1.416,0,0,0-1.107-.369,1.646,1.646,0,0,0-1.564.9V0h-2.54V-9.51ZM60.2,0H57.652V-9.51H60.2ZM57.5-11.971a1.251,1.251,0,0,1,.382-.94,1.436,1.436,0,0,1,1.042-.369,1.44,1.44,0,0,1,1.037.369,1.244,1.244,0,0,1,.387.94,1.247,1.247,0,0,1-.391.949,1.443,1.443,0,0,1-1.033.369,1.443,1.443,0,0,1-1.033-.369A1.247,1.247,0,0,1,57.5-11.971ZM66.67.176a4.668,4.668,0,0,1-3.406-1.283A4.561,4.561,0,0,1,61.95-4.526v-.246A5.745,5.745,0,0,1,62.5-7.334a4.064,4.064,0,0,1,1.569-1.74,4.4,4.4,0,0,1,2.316-.611,3.947,3.947,0,0,1,3.072,1.23,5,5,0,0,1,1.121,3.489v1.037H64.525a2.36,2.36,0,0,0,.743,1.494,2.245,2.245,0,0,0,1.569.563,2.742,2.742,0,0,0,2.294-1.063l1.248,1.4A3.813,3.813,0,0,1,68.832-.277,5.075,5.075,0,0,1,66.67.176Zm-.29-7.813a1.587,1.587,0,0,0-1.226.512,2.651,2.651,0,0,0-.6,1.466h3.533v-.2a1.891,1.891,0,0,0-.457-1.311A1.638,1.638,0,0,0,66.38-7.638ZM74.36-9.51l.079,1.1a3.32,3.32,0,0,1,2.733-1.274,2.759,2.759,0,0,1,2.25.888,4.142,4.142,0,0,1,.756,2.654V0h-2.54V-6.082a1.648,1.648,0,0,0-.352-1.173,1.574,1.574,0,0,0-1.169-.365,1.747,1.747,0,0,0-1.608.914V0H71.97V-9.51Zm10.784-2.338V-9.51h1.626v1.863H85.145V-2.9a1.133,1.133,0,0,0,.2.756,1.015,1.015,0,0,0,.773.229,4.051,4.051,0,0,0,.747-.062V-.053a5.229,5.229,0,0,1-1.538.229,2.425,2.425,0,0,1-2.725-2.7V-7.646H81.216V-9.51H82.6v-2.338Zm2.13,7a5.64,5.64,0,0,1,.545-2.522,3.989,3.989,0,0,1,1.569-1.714,4.577,4.577,0,0,1,2.377-.606,4.33,4.33,0,0,1,3.142,1.178,4.727,4.727,0,0,1,1.358,3.2l.018.65a4.97,4.97,0,0,1-1.222,3.511A4.247,4.247,0,0,1,91.783.176,4.268,4.268,0,0,1,88.5-1.143a5.058,5.058,0,0,1-1.226-3.586Zm2.54.18a3.555,3.555,0,0,0,.51,2.073,1.682,1.682,0,0,0,1.459.717,1.686,1.686,0,0,0,1.441-.709,3.89,3.89,0,0,0,.519-2.267,3.519,3.519,0,0,0-.519-2.06,1.686,1.686,0,0,0-1.459-.731,1.658,1.658,0,0,0-1.441.726A3.955,3.955,0,0,0,89.815-4.662Z" transform="translate(358.467 225.346)" fill="#1e0b4a"/>
      <rect id="Rectángulo_401004" data-name="Rectángulo 401004" width="828.356" height="230.224" fill="none"/>
      <path id="Trazado_874719" data-name="Trazado 874719" d="M8.842-5.546H3.779v3.428H9.721V0H1.143V-12.8H9.7v2.136H3.779v3.05H8.842ZM14.216-3.1,15.982-9.51h2.654L15.429,0H13L9.795-9.51h2.654ZM25.006,0a2.821,2.821,0,0,1-.255-.853,3.073,3.073,0,0,1-2.4,1.028,3.376,3.376,0,0,1-2.316-.809,2.6,2.6,0,0,1-.918-2.039,2.687,2.687,0,0,1,1.121-2.32,5.529,5.529,0,0,1,3.239-.817h1.169v-.545a1.567,1.567,0,0,0-.338-1.055,1.331,1.331,0,0,0-1.068-.4,1.513,1.513,0,0,0-1.006.308,1.045,1.045,0,0,0-.365.844h-2.54a2.551,2.551,0,0,1,.51-1.529,3.37,3.37,0,0,1,1.441-1.1,5.253,5.253,0,0,1,2.092-.4,4.15,4.15,0,0,1,2.791.883,3.09,3.09,0,0,1,1.033,2.483V-2.2a4.546,4.546,0,0,0,.378,2.048V0Zm-2.1-1.767a2.188,2.188,0,0,0,1.037-.25,1.645,1.645,0,0,0,.7-.672V-4.324H23.7q-1.907,0-2.03,1.318l-.009.149a1.017,1.017,0,0,0,.334.782A1.3,1.3,0,0,0,22.905-1.767ZM31.826,0H29.277V-13.5h2.549Zm7.787-.967a3.185,3.185,0,0,1-2.6,1.143A3,3,0,0,1,34.678-.7a3.752,3.752,0,0,1-.822-2.575V-9.51H36.4v6.151q0,1.487,1.354,1.487a1.834,1.834,0,0,0,1.775-.9V-9.51h2.549V0H39.683ZM49.5,0a2.821,2.821,0,0,1-.255-.853,3.073,3.073,0,0,1-2.4,1.028,3.376,3.376,0,0,1-2.316-.809,2.6,2.6,0,0,1-.918-2.039,2.687,2.687,0,0,1,1.121-2.32,5.529,5.529,0,0,1,3.239-.817H49.14v-.545A1.567,1.567,0,0,0,48.8-7.409a1.331,1.331,0,0,0-1.068-.4,1.513,1.513,0,0,0-1.006.308,1.045,1.045,0,0,0-.365.844h-2.54a2.551,2.551,0,0,1,.51-1.529,3.37,3.37,0,0,1,1.441-1.1,5.253,5.253,0,0,1,2.092-.4,4.15,4.15,0,0,1,2.791.883,3.09,3.09,0,0,1,1.033,2.483V-2.2a4.546,4.546,0,0,0,.378,2.048V0ZM47.4-1.767a2.188,2.188,0,0,0,1.037-.25,1.645,1.645,0,0,0,.7-.672V-4.324h-.949q-1.907,0-2.03,1.318l-.009.149a1.017,1.017,0,0,0,.334.782A1.3,1.3,0,0,0,47.4-1.767ZM58.984-7.128a6.9,6.9,0,0,0-.914-.07,1.86,1.86,0,0,0-1.89.976V0H53.64V-9.51h2.4l.07,1.134a2.354,2.354,0,0,1,2.118-1.31,2.662,2.662,0,0,1,.791.114Z" transform="translate(555.175 203.746)" fill="#1e0b4a"/>
      <g id="Grupo_1099692" data-name="Grupo 1099692">
        <path id="Trazado_874718" data-name="Trazado 874718" d="M5.353.176A4.668,4.668,0,0,1,1.947-1.107,4.561,4.561,0,0,1,.633-4.526v-.246a5.745,5.745,0,0,1,.554-2.562,4.064,4.064,0,0,1,1.569-1.74,4.4,4.4,0,0,1,2.316-.611,3.947,3.947,0,0,1,3.072,1.23A5,5,0,0,1,9.264-4.966v1.037H3.208a2.36,2.36,0,0,0,.743,1.494,2.245,2.245,0,0,0,1.569.563A2.742,2.742,0,0,0,7.813-2.936l1.248,1.4A3.813,3.813,0,0,1,7.515-.277,5.075,5.075,0,0,1,5.353.176Zm-.29-7.813a1.587,1.587,0,0,0-1.226.512,2.651,2.651,0,0,0-.6,1.466H6.768v-.2a1.891,1.891,0,0,0-.457-1.311A1.638,1.638,0,0,0,5.063-7.638ZM11.4,0V-7.646H9.984V-9.51H11.4v-.809a3.283,3.283,0,0,1,.918-2.483,3.557,3.557,0,0,1,2.571-.883,5.938,5.938,0,0,1,1.292.176l-.026,1.969a3.238,3.238,0,0,0-.773-.079q-1.433,0-1.433,1.345v.765h1.89v1.863h-1.89V0Zm9.707.176A4.668,4.668,0,0,1,17.7-1.107a4.561,4.561,0,0,1-1.314-3.419v-.246a5.745,5.745,0,0,1,.554-2.562,4.064,4.064,0,0,1,1.569-1.74,4.4,4.4,0,0,1,2.316-.611A3.947,3.947,0,0,1,23.9-8.455a5,5,0,0,1,1.121,3.489v1.037H18.962A2.36,2.36,0,0,0,19.7-2.435a2.245,2.245,0,0,0,1.569.563,2.742,2.742,0,0,0,2.294-1.063l1.248,1.4A3.813,3.813,0,0,1,23.268-.277,5.075,5.075,0,0,1,21.106.176Zm-.29-7.813a1.587,1.587,0,0,0-1.226.512,2.651,2.651,0,0,0-.6,1.466h3.533v-.2a1.891,1.891,0,0,0-.457-1.311A1.638,1.638,0,0,0,20.816-7.638Zm9.6,5.766a1.666,1.666,0,0,0,1.143-.387,1.355,1.355,0,0,0,.457-1.028H34.4a3.258,3.258,0,0,1-.527,1.771A3.48,3.48,0,0,1,32.449-.268a4.442,4.442,0,0,1-1.991.444,4.129,4.129,0,0,1-3.217-1.3A5.13,5.13,0,0,1,26.063-4.7v-.167a5.071,5.071,0,0,1,1.169-3.507,4.08,4.08,0,0,1,3.208-1.31A4,4,0,0,1,33.3-8.67a3.594,3.594,0,0,1,1.094,2.7H32.013a1.745,1.745,0,0,0-.457-1.206,1.524,1.524,0,0,0-1.16-.464,1.53,1.53,0,0,0-1.34.647,3.749,3.749,0,0,0-.453,2.1v.264a3.8,3.8,0,0,0,.448,2.113A1.549,1.549,0,0,0,30.414-1.872Zm8.473-9.976V-9.51h1.626v1.863H38.887V-2.9a1.133,1.133,0,0,0,.2.756,1.015,1.015,0,0,0,.773.229,4.051,4.051,0,0,0,.747-.062V-.053a5.229,5.229,0,0,1-1.538.229,2.425,2.425,0,0,1-2.725-2.7V-7.646H34.958V-9.51h1.389v-2.338ZM44.608,0H42.059V-9.51h2.549Zm-2.7-11.971a1.251,1.251,0,0,1,.382-.94,1.436,1.436,0,0,1,1.042-.369,1.44,1.44,0,0,1,1.037.369,1.244,1.244,0,0,1,.387.94,1.247,1.247,0,0,1-.391.949,1.443,1.443,0,0,1-1.033.369,1.443,1.443,0,0,1-1.033-.369A1.247,1.247,0,0,1,41.91-11.971ZM50.26-3.1,52.026-9.51H54.68L51.472,0H49.047L45.839-9.51h2.654ZM58.477,0H55.929V-9.51h2.549Zm-2.7-11.971a1.251,1.251,0,0,1,.382-.94A1.436,1.436,0,0,1,57.2-13.28a1.44,1.44,0,0,1,1.037.369,1.244,1.244,0,0,1,.387.94,1.247,1.247,0,0,1-.391.949,1.443,1.443,0,0,1-1.033.369,1.443,1.443,0,0,1-1.033-.369A1.247,1.247,0,0,1,55.779-11.971Zm4.395,7.146a5.731,5.731,0,0,1,1-3.542A3.237,3.237,0,0,1,63.9-9.686a2.913,2.913,0,0,1,2.294,1.037V-13.5h2.549V0H66.449l-.123-1.011A2.989,2.989,0,0,1,63.883.176a3.228,3.228,0,0,1-2.694-1.323A5.916,5.916,0,0,1,60.174-4.825Zm2.54.189a3.754,3.754,0,0,0,.466,2.051,1.517,1.517,0,0,0,1.354.713,1.7,1.7,0,0,0,1.661-.995V-6.625a1.675,1.675,0,0,0-1.644-.995Q62.714-7.62,62.714-4.636ZM76.222,0a2.821,2.821,0,0,1-.255-.853,3.073,3.073,0,0,1-2.4,1.028,3.376,3.376,0,0,1-2.316-.809,2.6,2.6,0,0,1-.918-2.039,2.687,2.687,0,0,1,1.121-2.32,5.529,5.529,0,0,1,3.239-.817h1.169v-.545a1.567,1.567,0,0,0-.338-1.055,1.331,1.331,0,0,0-1.068-.4A1.513,1.513,0,0,0,73.45-7.5a1.045,1.045,0,0,0-.365.844h-2.54a2.551,2.551,0,0,1,.51-1.529,3.37,3.37,0,0,1,1.441-1.1,5.253,5.253,0,0,1,2.092-.4,4.15,4.15,0,0,1,2.791.883,3.09,3.09,0,0,1,1.033,2.483V-2.2a4.546,4.546,0,0,0,.378,2.048V0Zm-2.1-1.767a2.188,2.188,0,0,0,1.037-.25,1.645,1.645,0,0,0,.7-.672V-4.324h-.949q-1.907,0-2.03,1.318l-.009.149a1.017,1.017,0,0,0,.334.782A1.3,1.3,0,0,0,74.122-1.767Zm5.845-3.059a5.731,5.731,0,0,1,1-3.542,3.237,3.237,0,0,1,2.729-1.318,2.913,2.913,0,0,1,2.294,1.037V-13.5h2.549V0H86.242l-.123-1.011A2.989,2.989,0,0,1,83.676.176a3.228,3.228,0,0,1-2.694-1.323A5.916,5.916,0,0,1,79.967-4.825Zm2.54.189a3.754,3.754,0,0,0,.466,2.051,1.517,1.517,0,0,0,1.354.713,1.7,1.7,0,0,0,1.661-.995V-6.625a1.675,1.675,0,0,0-1.644-.995Q82.507-7.62,82.507-4.636Z" transform="translate(540.088 225.346)" fill="#1e0b4a"/>
        <path id="Trazado_874717" data-name="Trazado 874717" d="M4.588-12.8,7.875-3.516l3.27-9.281h3.463V0H11.962V-3.5l.264-6.038L8.771,0H6.961L3.516-9.527,3.779-3.5V0H1.143V-12.8ZM21.12.176a4.668,4.668,0,0,1-3.406-1.283A4.561,4.561,0,0,1,16.4-4.526v-.246a5.745,5.745,0,0,1,.554-2.562,4.064,4.064,0,0,1,1.569-1.74,4.4,4.4,0,0,1,2.316-.611,3.947,3.947,0,0,1,3.072,1.23,5,5,0,0,1,1.121,3.489v1.037H18.976a2.36,2.36,0,0,0,.743,1.494,2.245,2.245,0,0,0,1.569.563,2.742,2.742,0,0,0,2.294-1.063l1.248,1.4A3.813,3.813,0,0,1,23.282-.277,5.075,5.075,0,0,1,21.12.176Zm-.29-7.813a1.587,1.587,0,0,0-1.226.512A2.651,2.651,0,0,0,19-5.66h3.533v-.2a1.891,1.891,0,0,0-.457-1.311A1.638,1.638,0,0,0,20.83-7.638ZM29.162-9.51V.519a3.4,3.4,0,0,1-.835,2.448,3.174,3.174,0,0,1-2.408.875,5.165,5.165,0,0,1-1.257-.149V1.679a4.768,4.768,0,0,0,.8.079q1.151,0,1.151-1.222V-9.51Zm-2.751-2.461a1.251,1.251,0,0,1,.382-.94,1.436,1.436,0,0,1,1.042-.369,1.436,1.436,0,0,1,1.042.369,1.251,1.251,0,0,1,.382.94,1.247,1.247,0,0,1-.391.949,1.443,1.443,0,0,1-1.033.369,1.443,1.443,0,0,1-1.033-.369A1.247,1.247,0,0,1,26.411-11.971Zm4.342,7.128A5.64,5.64,0,0,1,31.3-7.365a3.989,3.989,0,0,1,1.569-1.714,4.577,4.577,0,0,1,2.377-.606,4.33,4.33,0,0,1,3.142,1.178,4.727,4.727,0,0,1,1.358,3.2l.018.65A4.97,4.97,0,0,1,38.54-1.147,4.247,4.247,0,0,1,35.262.176a4.268,4.268,0,0,1-3.283-1.318,5.058,5.058,0,0,1-1.226-3.586Zm2.54.18a3.555,3.555,0,0,0,.51,2.073,1.682,1.682,0,0,0,1.459.717A1.686,1.686,0,0,0,36.7-2.581a3.89,3.89,0,0,0,.519-2.267,3.519,3.519,0,0,0-.519-2.06,1.686,1.686,0,0,0-1.459-.731,1.658,1.658,0,0,0-1.441.726A3.955,3.955,0,0,0,33.293-4.662ZM46.67-7.128a6.9,6.9,0,0,0-.914-.07,1.86,1.86,0,0,0-1.89.976V0h-2.54V-9.51h2.4l.07,1.134a2.354,2.354,0,0,1,2.118-1.31,2.662,2.662,0,0,1,.791.114ZM52.887,0a2.821,2.821,0,0,1-.255-.853,3.073,3.073,0,0,1-2.4,1.028,3.376,3.376,0,0,1-2.316-.809A2.6,2.6,0,0,1,47-2.672a2.687,2.687,0,0,1,1.121-2.32,5.529,5.529,0,0,1,3.239-.817h1.169v-.545a1.567,1.567,0,0,0-.338-1.055,1.331,1.331,0,0,0-1.068-.4,1.513,1.513,0,0,0-1.006.308,1.045,1.045,0,0,0-.365.844h-2.54a2.551,2.551,0,0,1,.51-1.529,3.37,3.37,0,0,1,1.441-1.1,5.253,5.253,0,0,1,2.092-.4,4.15,4.15,0,0,1,2.791.883,3.09,3.09,0,0,1,1.033,2.483V-2.2a4.546,4.546,0,0,0,.378,2.048V0Zm-2.1-1.767a2.188,2.188,0,0,0,1.037-.25,1.645,1.645,0,0,0,.7-.672V-4.324h-.949q-1.907,0-2.03,1.318l-.009.149a1.017,1.017,0,0,0,.334.782A1.3,1.3,0,0,0,50.786-1.767Zm14.678-.105a1.666,1.666,0,0,0,1.143-.387,1.355,1.355,0,0,0,.457-1.028h2.382a3.258,3.258,0,0,1-.527,1.771A3.48,3.48,0,0,1,67.5-.268a4.442,4.442,0,0,1-1.991.444,4.129,4.129,0,0,1-3.217-1.3A5.13,5.13,0,0,1,61.113-4.7v-.167a5.071,5.071,0,0,1,1.169-3.507,4.08,4.08,0,0,1,3.208-1.31A4,4,0,0,1,68.351-8.67a3.594,3.594,0,0,1,1.094,2.7H67.063a1.745,1.745,0,0,0-.457-1.206,1.524,1.524,0,0,0-1.16-.464,1.53,1.53,0,0,0-1.34.647,3.749,3.749,0,0,0-.453,2.1v.264A3.8,3.8,0,0,0,64.1-2.515,1.549,1.549,0,0,0,65.464-1.872ZM70.5-4.843a5.64,5.64,0,0,1,.545-2.522,3.989,3.989,0,0,1,1.569-1.714,4.577,4.577,0,0,1,2.377-.606,4.33,4.33,0,0,1,3.142,1.178,4.727,4.727,0,0,1,1.358,3.2l.018.65a4.97,4.97,0,0,1-1.222,3.511A4.247,4.247,0,0,1,75.009.176a4.268,4.268,0,0,1-3.283-1.318A5.058,5.058,0,0,1,70.5-4.729Zm2.54.18a3.555,3.555,0,0,0,.51,2.073,1.682,1.682,0,0,0,1.459.717,1.686,1.686,0,0,0,1.441-.709,3.89,3.89,0,0,0,.519-2.267,3.519,3.519,0,0,0-.519-2.06,1.686,1.686,0,0,0-1.459-.731,1.658,1.658,0,0,0-1.441.726A3.955,3.955,0,0,0,73.04-4.662ZM83.411-9.51l.079,1.1a3.32,3.32,0,0,1,2.733-1.274,2.759,2.759,0,0,1,2.25.888,4.142,4.142,0,0,1,.756,2.654V0h-2.54V-6.082a1.648,1.648,0,0,0-.352-1.173,1.574,1.574,0,0,0-1.169-.365,1.747,1.747,0,0,0-1.608.914V0H81.02V-9.51ZM94.2-11.848V-9.51h1.626v1.863H94.2V-2.9a1.133,1.133,0,0,0,.2.756,1.015,1.015,0,0,0,.773.229,4.051,4.051,0,0,0,.747-.062V-.053A5.229,5.229,0,0,1,94.38.176a2.425,2.425,0,0,1-2.725-2.7V-7.646H90.267V-9.51h1.389v-2.338ZM99.917,0H97.368V-9.51h2.549Zm-2.7-11.971a1.251,1.251,0,0,1,.382-.94,1.436,1.436,0,0,1,1.042-.369,1.44,1.44,0,0,1,1.037.369,1.244,1.244,0,0,1,.387.94,1.247,1.247,0,0,1-.391.949,1.443,1.443,0,0,1-1.033.369,1.443,1.443,0,0,1-1.033-.369A1.247,1.247,0,0,1,97.219-11.971Zm7.128,2.461.079,1.1a3.32,3.32,0,0,1,2.733-1.274,2.759,2.759,0,0,1,2.25.888,4.142,4.142,0,0,1,.756,2.654V0h-2.54V-6.082a1.648,1.648,0,0,0-.352-1.173A1.574,1.574,0,0,0,106.1-7.62a1.747,1.747,0,0,0-1.608.914V0h-2.54V-9.51ZM117.785-.967a3.185,3.185,0,0,1-2.6,1.143A3,3,0,0,1,112.85-.7a3.752,3.752,0,0,1-.822-2.575V-9.51h2.54v6.151q0,1.487,1.354,1.487a1.834,1.834,0,0,0,1.775-.9V-9.51h2.549V0h-2.391ZM127.673,0a2.821,2.821,0,0,1-.255-.853,3.073,3.073,0,0,1-2.4,1.028A3.376,3.376,0,0,1,122.7-.633a2.6,2.6,0,0,1-.918-2.039,2.687,2.687,0,0,1,1.121-2.32,5.529,5.529,0,0,1,3.239-.817h1.169v-.545a1.567,1.567,0,0,0-.338-1.055,1.331,1.331,0,0,0-1.068-.4A1.513,1.513,0,0,0,124.9-7.5a1.045,1.045,0,0,0-.365.844H122a2.551,2.551,0,0,1,.51-1.529,3.37,3.37,0,0,1,1.441-1.1,5.253,5.253,0,0,1,2.092-.4,4.15,4.15,0,0,1,2.791.883,3.09,3.09,0,0,1,1.033,2.483V-2.2a4.546,4.546,0,0,0,.378,2.048V0Zm-2.1-1.767a2.188,2.188,0,0,0,1.037-.25,1.645,1.645,0,0,0,.7-.672V-4.324h-.949q-1.907,0-2.03,1.318l-.009.149a1.017,1.017,0,0,0,.334.782A1.3,1.3,0,0,0,125.572-1.767Z" transform="translate(697.265 203.746)" fill="#1e0b4a"/>
        <path id="Trazado_873505" data-name="Trazado 873505" d="M412.477,52.349a.828.828,0,0,0-1.172,0l-1.175,1.175-2.769-2.768a12.249,12.249,0,1,0-1.171,1.171l2.768,2.769-1.175,1.175a.828.828,0,0,0,0,1.172l13.129,13.129a.828.828,0,0,0,1.172,0l3.522-3.522a.828.828,0,0,0,0-1.172ZM390.7,50.2a10.561,10.561,0,1,1,7.469,3.094A10.576,10.576,0,0,1,390.7,50.2m30.8,18.216L409.541,56.457l2.35-2.35,11.957,11.957Z" fill="#1e0b4a"/>
        <path id="Trazado_873506" data-name="Trazado 873506" d="M784.323,51.1A22.725,22.725,0,0,1,761.6,73.823a.611.611,0,0,1,0-1.223,21.5,21.5,0,0,0,1.322-42.957l1.885,2.308a.611.611,0,0,1-.947.773l-2.733-3.347a.609.609,0,0,1,.087-.859l3.346-2.734a.611.611,0,1,1,.773.947l-2.091,1.708A22.719,22.719,0,0,1,784.323,51.1m-30.06,17.273a.611.611,0,0,0-1.147.424l.9,2.424a21.507,21.507,0,0,1,1.3-40.686.611.611,0,0,0-.356-1.17,22.91,22.91,0,0,0-11.528,8.094,22.729,22.729,0,0,0,10.445,35.014l-2.95,1.091a.611.611,0,1,0,.424,1.146l4.053-1.5a.61.61,0,0,0,.361-.785Zm-7.576-5.31V53.536h-2.179a.612.612,0,0,1-.5-.966l5.12-7.215a.611.611,0,0,1,1,0l5.12,7.215a.612.612,0,0,1-.5.966h-2.055v9.528a.612.612,0,0,1-.611.611H747.3a.611.611,0,0,1-.611-.611m.611-10.752a.612.612,0,0,1,.611.611v9.529h3.565V52.923a.612.612,0,0,1,.611-.611h1.482l-3.937-5.547-3.938,5.547Zm16.758,11.363h-4.787a.612.612,0,0,1-.611-.611V49.922h-2.177a.611.611,0,0,1-.51-.949l5.12-7.708a.612.612,0,0,1,1.019,0l5.12,7.709a.61.61,0,0,1-.509.949h-2.054V63.064a.612.612,0,0,1-.611.611m0-14.975h1.526L761.6,42.707,757.62,48.7h1.648a.612.612,0,0,1,.611.611V62.453h3.565V49.311a.612.612,0,0,1,.612-.611m6.573,14.364V46.677h-2.177a.611.611,0,0,1-.528-.92l5.12-8.736a.612.612,0,0,1,1.056,0l5.12,8.736a.611.611,0,0,1-.528.92h-2.055V63.064a.612.612,0,0,1-.611.611h-4.787a.611.611,0,0,1-.61-.611m.611-17.609a.612.612,0,0,1,.611.611V62.453h3.565V46.066a.612.612,0,0,1,.611-.611h1.6l-4.053-6.915-4.054,6.915Z" fill="#fff"/>
        <path id="Trazado_873507" data-name="Trazado 873507" d="M590,48.536,582.633,55.9l-1.822-2.524a.829.829,0,0,0-1.344.97l2.392,3.312a.827.827,0,0,0,.6.342l.067,0a.828.828,0,0,0,.586-.243l8.056-8.055A.829.829,0,0,0,590,48.536" fill="#1e0b4a"/>
        <path id="Trazado_873508" data-name="Trazado 873508" d="M598.858,31.5h-5.591v-.868a2.034,2.034,0,0,0-2.031-2.032H578.7a2.034,2.034,0,0,0-2.031,2.032V31.5h-5.6a3.949,3.949,0,0,0-3.945,3.944v32.4a3.949,3.949,0,0,0,3.945,3.944h27.794a3.948,3.948,0,0,0,3.944-3.944v-32.4a3.948,3.948,0,0,0-3.944-3.944m-20.534-.868a.374.374,0,0,1,.374-.374h12.538a.374.374,0,0,1,.374.374v3.4a.374.374,0,0,1-.374.374H578.7a.374.374,0,0,1-.374-.374Zm22.821,37.215a2.29,2.29,0,0,1-2.287,2.287H571.064a2.291,2.291,0,0,1-2.288-2.287v-32.4a2.291,2.291,0,0,1,2.288-2.287h5.6v.878a2.033,2.033,0,0,0,2.031,2.032h12.538a2.033,2.033,0,0,0,2.031-2.032v-.878h5.591a2.29,2.29,0,0,1,2.287,2.287Z" fill="#1e0b4a"/>
        <path id="Trazado_873509" data-name="Trazado 873509" d="M584.961,40.71a11.764,11.764,0,1,0,11.765,11.765A11.778,11.778,0,0,0,584.961,40.71m0,21.872a10.107,10.107,0,1,1,10.108-10.107,10.118,10.118,0,0,1-10.108,10.107" fill="#1e0b4a"/>
        <rect id="Rectángulo_401005" data-name="Rectángulo 401005" width="828.356" height="230.224" fill="none"/>
      </g>
    </g>
    <path id="Trazado_611353" data-name="Trazado 611353" d="M489.251,806.137H177a1.252,1.252,0,0,1,0-2.5h312.25a1.252,1.252,0,0,1,0,2.5" transform="translate(905.492 1172.833)" fill="#1a1a1a"/>
    <g id="Grupo_1099694" data-name="Grupo 1099694" transform="translate(1081.341 1666.46)">
      <g id="Grupo_1099701" data-name="Grupo 1099701" clip-path="url(#clip-path-2)">
        <g id="Grupo_1099700" data-name="Grupo 1099700">
          <g id="Grupo_1099699" data-name="Grupo 1099699" clip-path="url(#clip-path-2)">
            <path id="Trazado_873513" data-name="Trazado 873513" d="M155.24,46.856a1.188,1.188,0,0,1-1.178-1.051c-.8-6.951-3.74-12.523-8.074-15.288a11.673,11.673,0,0,0-8.034-1.548c1.532,2.805,1.86,5.652.874,8.014a6.332,6.332,0,0,1-4.933,3.63,4.639,4.639,0,0,1-4.416-1.665c-1.511-1.954-1.135-4.6-.278-6.43a10.131,10.131,0,0,1,4.989-4.857c-8.449-10.769-22.46-15.179-36.083-11.243A33.584,33.584,0,0,0,82.84,25.746,27.692,27.692,0,0,0,78.333,32a1.188,1.188,0,0,1-2.152-1.007A29.448,29.448,0,0,1,81.034,24.2,35.957,35.957,0,0,1,97.448,14.135a36.637,36.637,0,0,1,22.651.541A35.421,35.421,0,0,1,136.55,26.837a14.159,14.159,0,0,1,10.716,1.679c6.762,4.314,8.638,12.514,9.156,17.018a1.182,1.182,0,0,1-1.182,1.322M135.6,29.636a7.9,7.9,0,0,0-4.244,3.891c-.532,1.138-.851,2.859.007,3.97a2.352,2.352,0,0,0,2.226.762,3.942,3.942,0,0,0,3.052-2.189c.742-1.779.348-4.129-1.04-6.433" transform="translate(57.128 9.465)" fill="#0dba98"/>
            <path id="Trazado_873514" data-name="Trazado 873514" d="M249.177,135.209C245.305,87.11,230.6,43.459,164.969,33.6c-66.5-9.986-105.025,31.056-103,77.951,0,0-61.36,19.946-61.961,84.239-.555,59.389,60.044,82.954,124.586,82.954,105.806,0,136.288,1.856,124.587-143.539" transform="translate(19.048 24.101)" fill="#cbf4e1"/>
            <path id="Trazado_873515" data-name="Trazado 873515" d="M57.976,49.106c-10.2,29.321-35.845,96.556,6.7,130.475,49.792,39.69,106.951,22.392,135.255-12.889l-37.974-53.649s-34.955,31.875-59.669,14.757c-20.1-13.924-5.766-48.3-1.054-61.854Z" transform="translate(30.762 36.879)" fill="#3180b5"/>
            <path id="Trazado_873516" data-name="Trazado 873516" d="M165.255,139.269,127.283,85.62s-13.752,12.539-30.1,17.664c-.327,3.644-.585,6.8-.753,8.7-.9,10.119-5.316,37.844-9.291,62.84,31.42,1.551,60.417-13.481,78.119-35.551" transform="translate(65.439 64.301)" fill="#1c5482"/>
            <path id="Trazado_873517" data-name="Trazado 873517" d="M89.384,131.761a34.221,34.221,0,0,0-47.991-31.315c2.073,16.211,8.673,31.359,22.963,42.751a113.5,113.5,0,0,0,16.6,11.051,34.07,34.07,0,0,0,8.431-22.486" transform="translate(31.086 73.263)" fill="#0dba98"/>
            <path id="Trazado_873518" data-name="Trazado 873518" d="M85.016,194.97H223.074L213.88,156.3H99.982Z" transform="translate(63.847 117.386)" fill="#28121f"/>
            <path id="Trazado_873519" data-name="Trazado 873519" d="M93.563,213.976s4.745-52.217,5.633-69.391c3.267-63.369,35.847-66.216,66.743-64.842,33.094,1.473,46.321,8.979,63.8,32.359,14.223,19.023,27.552,54,27.319,76.839-.24,23.684-9.687,49.265-31.233,61.45-36.67,20.741-83.309,2.455-108.4-36.416Z" transform="translate(70.266 59.716)" fill="#3180b5"/>
            <path id="Trazado_873520" data-name="Trazado 873520" d="M141.576,103.535a31.65,31.65,0,0,1-6.128-.583c-6.118-1.208-14.616-5.647-20.361-19.921l-.226-.562a1.187,1.187,0,0,1,2.2-.886l.226.562c5.348,13.287,13.077,17.382,18.618,18.478a29.4,29.4,0,0,0,5.668.538c13.294,0,27.5-8.069,36.363-15.619l2.882-2.457a1.188,1.188,0,1,1,1.541,1.809l-2.884,2.455c-9.184,7.825-23.966,16.186-37.9,16.186" transform="translate(86.196 60.711)" fill="#1c5482"/>
            <path id="Trazado_873521" data-name="Trazado 873521" d="M147.031,79.743c-9.576-.425-19.314-.447-28.289,1.616,2.779,6.908,7.459,14.062,15.115,15.577a24.552,24.552,0,0,0,4.742.447c11.382,0,24.561-7.064,33.267-14.479-6.95-1.756-15.018-2.723-24.834-3.161" transform="translate(89.176 59.716)" fill="#fffeeb"/>
            <path id="Trazado_873522" data-name="Trazado 873522" d="M143.963,79.743a132.5,132.5,0,0,0-21.135.4c1.944,4.337,5,9.011,9.329,9.869,7.948,1.571,18.893-3,27.391-8.9-4.679-.672-9.83-1.112-15.586-1.368" transform="translate(92.244 59.716)" fill="#ffa194"/>
            <path id="Trazado_873523" data-name="Trazado 873523" d="M124.02,62.008c-2.667,12.364,3.1,26.839,20.7,30.392,12.4,2.5,24.617-4.868,27.447-17.2A22.9,22.9,0,0,0,154.97,47.756c-12.327-2.831-26.834-4.835-30.951,14.251" transform="translate(92.674 34.51)" fill="#28121f"/>
            <path id="Trazado_873524" data-name="Trazado 873524" d="M151.541,75.985c-4.276-1.877-2.56-12.18-1.534-16.857a2.166,2.166,0,0,0-1.821-2.611A77.937,77.937,0,0,1,136.835,54.2a17.254,17.254,0,0,1-4.089-1.945,2.162,2.162,0,0,0-3.124.925c-1.853,4.017-4.146,10.324-4.908,12.613-5.854,17.57-6.064,19.426,11.366,24.152l-.76,13.665,21.408.137.968-16.221c-8.284-2.047-6.155-11.541-6.155-11.541" transform="translate(90.978 38.991)" fill="#ffa194"/>
            <path id="Trazado_873525" data-name="Trazado 873525" d="M127.123,59.7a1.328,1.328,0,0,0-.911-.807,1.345,1.345,0,0,0-1.194.25c.018-.016-1.618-1.737-1.618-1.737a3.723,3.723,0,0,1,5.994,1.6l-2.278.672Z" transform="translate(92.674 42.409)" fill="#28121f"/>
            <path id="Trazado_873526" data-name="Trazado 873526" d="M138.579,77.154c-1.108,1.6-3.639,3.992-9.181,5.109l.482-8.627,7.934,1.618a1.227,1.227,0,0,1,.765,1.9" transform="translate(97.178 55.301)" fill="#db5349"/>
            <path id="Trazado_873527" data-name="Trazado 873527" d="M135.253,68.715a5.742,5.742,0,1,0,5.123-6.3,5.743,5.743,0,0,0-5.123,6.3" transform="translate(101.553 46.85)" fill="#ffa194"/>
            <path id="Trazado_873528" data-name="Trazado 873528" d="M136.511,67.533a3.52,3.52,0,1,0,3.141-3.861,3.522,3.522,0,0,0-3.141,3.861" transform="translate(102.506 47.804)" fill="#db5349"/>
            <path id="Trazado_873529" data-name="Trazado 873529" d="M121.931,54.824a7.5,7.5,0,1,0,6.687-8.224,7.495,7.495,0,0,0-6.687,8.224" transform="translate(91.541 34.966)" fill="#28121f"/>
            <path id="Trazado_873530" data-name="Trazado 873530" d="M124.924,51.117a8.574,8.574,0,1,0,7.65-9.408,8.575,8.575,0,0,0-7.65,9.408" transform="translate(93.784 31.289)" fill="#28121f"/>
            <path id="Trazado_873531" data-name="Trazado 873531" d="M131.786,50.577a6.68,6.68,0,1,0,5.96-7.331,6.683,6.683,0,0,0-5.96,7.331" transform="translate(98.945 32.451)" fill="#28121f"/>
            <path id="Trazado_873532" data-name="Trazado 873532" d="M139.455,57.194a7.873,7.873,0,1,1,.812-.042,7.5,7.5,0,0,1-.812.042M134,49.89a5.493,5.493,0,1,0,4.9-6.027A5.46,5.46,0,0,0,134,49.89" transform="translate(98.827 31.136)" fill="#28121f"/>
            <path id="Trazado_873533" data-name="Trazado 873533" d="M128.639,56.666a7.175,7.175,0,1,0,6.4-7.874,7.175,7.175,0,0,0-6.4,7.874" transform="translate(96.58 36.614)" fill="#28121f"/>
            <path id="Trazado_873534" data-name="Trazado 873534" d="M133.387,61.319a1.354,1.354,0,0,0-2.1-.555c.018-.016-1.618-1.739-1.618-1.739a3.725,3.725,0,0,1,5.994,1.6l-2.278.672Z" transform="translate(97.378 43.627)" fill="#28121f"/>
            <path id="Trazado_873535" data-name="Trazado 873535" d="M144.7,114.779a8.584,8.584,0,1,1-8.585-8.583,8.585,8.585,0,0,1,8.585,8.583" transform="translate(95.778 79.754)" fill="#fffeeb"/>
            <path id="Trazado_873536" data-name="Trazado 873536" d="M140.516,27.066a5.954,5.954,0,0,1,2.171.408,8.157,8.157,0,0,1,15.064.543,5.976,5.976,0,1,1,3.236,11H140.516a5.975,5.975,0,0,1,0-11.951" transform="translate(101.042 17.052)" fill="#cbf4e1"/>
            <path id="Trazado_873537" data-name="Trazado 873537" d="M57.969,4.361a5.953,5.953,0,0,1,2.171.406,8.159,8.159,0,0,1,15.066.545,5.976,5.976,0,1,1,3.234,11H57.969a5.975,5.975,0,0,1,0-11.951" transform="translate(39.048 0.001)" fill="#cbf4e1"/>
            <path id="Trazado_873538" data-name="Trazado 873538" d="M47.187,196.325h93.139a12.291,12.291,0,0,0,12.29-12.29V123.987a12.291,12.291,0,0,0-12.29-12.29H47.187a12.291,12.291,0,0,0-12.29,12.29v60.047a12.291,12.291,0,0,0,12.29,12.29" transform="translate(26.208 83.885)" fill="#28121f"/>
            <path id="Trazado_873539" data-name="Trazado 873539" d="M97.3,164.608H93.37a1.187,1.187,0,1,1,0-2.374H97.3a11.064,11.064,0,0,0,9.9-6.076,1.188,1.188,0,0,1,2.117,1.079A13.428,13.428,0,0,1,97.3,164.608" transform="translate(69.23 116.789)" fill="#70529e"/>
            <path id="Trazado_873540" data-name="Trazado 873540" d="M63.146,141.016a9.4,9.4,0,1,0,9.4-9.4,9.395,9.395,0,0,0-9.4,9.4" transform="translate(47.423 98.848)" fill="#fffeeb"/>
            <path id="Trazado_873541" data-name="Trazado 873541" d="M55.422,119.3v12.21a1.533,1.533,0,0,1-1.534,1.532H41.678a1.533,1.533,0,0,1-1.532-1.532V119.3a1.533,1.533,0,0,1,1.532-1.534h12.21a1.533,1.533,0,0,1,1.534,1.534" transform="translate(30.15 88.446)" fill="#fc5649"/>
            <path id="Trazado_873542" data-name="Trazado 873542" d="M50.664,130.4H43.315a2.113,2.113,0,0,1-2.112-2.11V120.94a2.114,2.114,0,0,1,2.112-2.112h7.349a2.114,2.114,0,0,1,2.112,2.112v7.351a2.113,2.113,0,0,1-2.112,2.11m-7.086-2.374H50.4V121.2H43.577Z" transform="translate(30.944 89.241)" fill="#b21f1f"/>
            <path id="Trazado_873543" data-name="Trazado 873543" d="M112.858,168.681a1.217,1.217,0,0,1-1.178-1.34q.483-3.743,1.044-7.978l.485-3.7c3.185-24.3,8.9-40.212,13.136-49.287,4.633-9.925,8.5-14.031,8.657-14.2a1.188,1.188,0,0,1,1.719,1.639c-.037.04-3.822,4.09-8.3,13.731-4.138,8.907-9.727,24.54-12.859,48.428l-.485,3.7q-.557,4.239-1.042,7.974a1.187,1.187,0,0,1-1.177,1.035" transform="translate(83.864 68.951)" fill="#1c5482"/>
            <path id="Trazado_873544" data-name="Trazado 873544" d="M135.162,146.917s3.752-10.9.457-14.4-17.934-13.094-27.547-17.1c-5.073-2.115-8.578-1.233-9.961.748-1.24,1.772-.779,4.425,1.783,6.589,4.115,3.476,11.168,6.619,11.168,6.619a113.262,113.262,0,0,0-15.281-2.6c-6.82-.42-10.59,1.159-11.255,4.206a6.029,6.029,0,0,0,4.714,6.916c4.174,1.138,7.841,1.853,10.18,2.252-9.3-2.017-14.106-.636-15.006,3.507-.692,3.189,1.368,4.8,4.919,6.391,2.311,1.035,5.852,2.169,5.852,2.169-7.423.487-7.908,8.766-.2,10.7,5.85,1.471,17.689,4.4,17.689,4.4-1.872,8.9,11.588,20.424,11.588,20.424l19.447-35.854Z" transform="translate(63.295 85.756)" fill="#ffa194"/>
            <path id="Trazado_873545" data-name="Trazado 873545" d="M115.709,141.87c-.2-.018-25.985-4.477-25.985-4.477a1.188,1.188,0,0,1,.406-2.341l25.78,4.46a1.188,1.188,0,0,1-.2,2.359" transform="translate(66.644 101.411)" fill="#db5349"/>
            <path id="Trazado_873546" data-name="Trazado 873546" d="M116.663,134.695c-.2-.018-26.957-4.647-26.957-4.647a1.188,1.188,0,0,1,.4-2.341l26.754,4.63a1.188,1.188,0,0,1-.2,2.359" transform="translate(66.63 95.895)" fill="#db5349"/>
            <path id="Trazado_873547" data-name="Trazado 873547" d="M109.7,149.366a1.173,1.173,0,0,1-.55-.137,1.186,1.186,0,0,1-.5-1.6l7.689-14.649a1.188,1.188,0,1,1,2.1,1.1l-7.689,14.647a1.187,1.187,0,0,1-1.052.636" transform="translate(81.495 99.391)" fill="#db5349"/>
            <path id="Trazado_873548" data-name="Trazado 873548" d="M110.871,126.949c-.259-.028-11.973-2.63-11.973-2.63A1.187,1.187,0,0,1,99.412,122l11.714,2.6a1.187,1.187,0,0,1-.256,2.346" transform="translate(73.575 91.601)" fill="#db5349"/>
            <path id="Trazado_873549" data-name="Trazado 873549" d="M107.621,191.089a1.188,1.188,0,0,1-1.044-1.755l19.447-35.852a1.188,1.188,0,0,1,1.478-.539,80.671,80.671,0,0,1,8.61,4.549c6.911,3.945,16.379,9.349,25.859,12.164,11.061,3.285,19.466,2.336,25.7-2.9,13.453-11.31-2.788-38.424-13.665-53.583a1.186,1.186,0,1,1,1.928-1.383c8,11.142,13.591,21.161,16.626,29.778,4.36,12.38,3.229,21.466-3.362,27.006a22.918,22.918,0,0,1-13.264,5.262,40.893,40.893,0,0,1-14.635-1.9c-9.744-2.893-19.349-8.375-26.361-12.378-2.907-1.658-5.479-3.127-7.338-3.987l-18.928,34.9a1.188,1.188,0,0,1-1.045.622" transform="translate(79.932 83.584)" fill="#1c5482"/>
            <path id="Trazado_873550" data-name="Trazado 873550" d="M208.122,158.926a34.209,34.209,0,0,0-49.869,44.553,66.225,66.225,0,0,0,22.338-7.813c14.066-7.957,22.973-21.621,27.531-36.74" transform="translate(115.502 114.441)" fill="#0dba98"/>
            <path id="Trazado_873551" data-name="Trazado 873551" d="M121.463,158.877a5.037,5.037,0,1,1-5.038-5.038,5.037,5.037,0,0,1,5.038,5.038" transform="translate(83.654 115.534)" fill="#fffeeb"/>
            <path id="Trazado_873552" data-name="Trazado 873552" d="M60.286,58.008a5.037,5.037,0,1,1-5.038-5.038,5.037,5.037,0,0,1,5.038,5.038" transform="translate(37.709 39.781)" fill="#fffeeb"/>
            <path id="Trazado_873553" data-name="Trazado 873553" d="M124.143,64.87l7.134,1.488a.9.9,0,0,1,.555,1.383,4.762,4.762,0,0,1-4.807,2,4.286,4.286,0,0,1-3.947-3.856.893.893,0,0,1,1.065-1.021" transform="translate(92.423 48.704)" fill="#fffeeb"/>
            <path id="Trazado_873554" data-name="Trazado 873554" d="M133.135,63.994a1.188,1.188,0,0,1-1.056-.643c-.077-.149-.231-.4-.4-.445a1.11,1.11,0,0,0-.686.215,1.187,1.187,0,1,1-1.422-1.9,3.434,3.434,0,0,1,2.628-.63,2.979,2.979,0,0,1,1.991,1.67,1.189,1.189,0,0,1-.51,1.6,1.174,1.174,0,0,1-.545.133" transform="translate(96.951 45.454)" fill="#28121f"/>
            <path id="Trazado_873555" data-name="Trazado 873555" d="M125.922,60.351a1.192,1.192,0,1,1-1.192-1.192,1.193,1.193,0,0,1,1.192,1.192" transform="translate(92.777 44.429)" fill="#28121f"/>
            <path id="Trazado_873556" data-name="Trazado 873556" d="M179.9,78.673,60.236,26.563,55.624,39.822,54.015,44.45,49.4,57.708l126.07,33.647A6.735,6.735,0,0,0,179.9,78.673" transform="translate(37.102 19.949)" fill="#3656b3"/>
            <path id="Trazado_873557" data-name="Trazado 873557" d="M132.791,58.158l-72.555-31.6L55.624,39.822,54.015,44.45,49.4,57.708l76.447,20.4Z" transform="translate(37.102 19.949)" fill="#462f72"/>
            <path id="Trazado_873558" data-name="Trazado 873558" d="M127.412,84.522,36.231,60.176a3.208,3.208,0,0,1-2.2-4.153L46.145,21.187A3.21,3.21,0,0,1,50.451,19.3L137.059,56.79a3.211,3.211,0,0,1,1.756,4L131.27,82.477a3.207,3.207,0,0,1-3.857,2.045" transform="translate(25.42 14.292)" fill="#3656b3"/>
            <path id="Trazado_873559" data-name="Trazado 873559" d="M35.527,60.113l27.809,7.424,12.8-36.789L49.718,19.313Z" transform="translate(26.681 14.504)" fill="#462f72"/>
            <path id="Trazado_873560" data-name="Trazado 873560" d="M53.951,73.319,32.487,65.853a2.988,2.988,0,0,1-1.844-3.8L46.135,17.515a2.988,2.988,0,0,1,3.8-1.842l21.467,7.466a2.989,2.989,0,0,1,1.84,3.8L57.756,71.477a2.99,2.99,0,0,1-3.8,1.842" transform="translate(22.888 11.645)" fill="#3656b3"/>
            <path id="Trazado_873562" data-name="Trazado 873562" d="M98.922,58.571c10.156-5.973,17.633-15.556,11.59-20.7S89.246,44.213,86.98,45.316s-8.713-1.418-18.247.077c-12.8,2.008-16.6,8.249-16.6,8.249l-1.45,4.892L93.942,75.374Z" transform="translate(38.059 27.45)" fill="#ffa194"/>
            <path id="Trazado_873563" data-name="Trazado 873563" d="M94.712,35.394S92.261,27.422,83.8,30.106c0,0-2.814-6.307-11.2-3.492,0,0-8.8-7.571-14.691,1.733s-3.74,15.071.863,16.955,8.154-3.351,8.154-3.351-.4,5.936,3.875,7.239a7.2,7.2,0,0,0,6.228-.76,5.385,5.385,0,0,0,4.707,4.75,6.868,6.868,0,0,0,6.981-3.208,7.386,7.386,0,0,0,5.22,5.626c5.794,1.681,9.382-6.438,9.972-10s-1.226-11.439-9.2-10.208" transform="translate(40.8 17.806)" fill="#ffa194"/>
            <path id="Trazado_873564" data-name="Trazado 873564" d="M62.032,42.4a1.208,1.208,0,0,1-.411-.074,1.189,1.189,0,0,1-.7-1.527l5.673-15.337a1.188,1.188,0,0,1,2.229.823L63.146,41.628a1.186,1.186,0,0,1-1.114.776" transform="translate(45.695 18.542)" fill="#db5349"/>
            <path id="Trazado_873565" data-name="Trazado 873565" d="M74.477,47.96a1.187,1.187,0,0,1-1.11-1.607l5.992-15.88a1.188,1.188,0,0,1,2.222.839l-5.992,15.88a1.189,1.189,0,0,1-1.112.769" transform="translate(55.041 22.308)" fill="#db5349"/>
            <path id="Trazado_873566" data-name="Trazado 873566" d="M67.8,47.384a1.208,1.208,0,0,1-.411-.074,1.186,1.186,0,0,1-.7-1.525l6.769-18.324a1.187,1.187,0,1,1,2.227.823L68.916,46.608a1.188,1.188,0,0,1-1.114.776" transform="translate(50.028 20.041)" fill="#db5349"/>
            <path id="Trazado_873567" data-name="Trazado 873567" d="M74.479,43.831a1.187,1.187,0,0,1-.616-2.2c2.25-1.364,9.94-5.756,15.6-5.756.914.019,1.432.564,1.417,1.219A1.188,1.188,0,0,1,89.7,38.251c-4.036-.1-10.182,2.73-14.6,5.409a1.2,1.2,0,0,1-.615.172" transform="translate(55.041 26.941)" fill="#db5349"/>
            <path id="Trazado_873568" data-name="Trazado 873568" d="M125.771,67.016,123.8,62.78a.5.5,0,0,1,.578-.7l3.329.812.928-3.131,3.043,6.677-5.027,1.842Z" transform="translate(92.94 44.88)" fill="#ffa194"/>
            <path id="Trazado_873569" data-name="Trazado 873569" d="M126.282,69.954a1.188,1.188,0,0,1-1.079-.686l-1.968-4.236a1.692,1.692,0,0,1,1.935-2.357l2.192.536a8.549,8.549,0,0,0,.019-4.19,1.188,1.188,0,1,1,2.234-.805c1.005,2.795-.215,6.631-.266,6.792a1.188,1.188,0,0,1-1.411.788l-1.951-.476,1.369,2.947a1.187,1.187,0,0,1-.576,1.578,1.174,1.174,0,0,1-.5.11" transform="translate(92.43 43.129)" fill="#db5349"/>
            <path id="Trazado_873570" data-name="Trazado 873570" d="M136.718,67.4a3.519,3.519,0,1,1-2.8-4.115,3.521,3.521,0,0,1,2.8,4.115" transform="translate(97.435 47.482)" fill="#f4756e"/>
            <path id="Trazado_873571" data-name="Trazado 873571" d="M126.829,54.646a1.186,1.186,0,0,1-1.147-.884,7.814,7.814,0,0,1,.795-5.719,6.5,6.5,0,0,1,4.684-2.754,1.187,1.187,0,1,1,.373,2.345,4.246,4.246,0,0,0-3.068,1.707,5.465,5.465,0,0,0-.489,3.815,1.184,1.184,0,0,1-.846,1.45,1.126,1.126,0,0,1-.3.04" transform="translate(94.22 34.001)" fill="#70529e"/>
            <path id="Trazado_873572" data-name="Trazado 873572" d="M140.564,52.871a1.19,1.19,0,0,1-.958-.483,4.106,4.106,0,0,0-2.838-1.877,5.629,5.629,0,0,0-3.71,1.375,1.188,1.188,0,0,1-1.6-1.762,8,8,0,0,1,5.544-1.977,6.371,6.371,0,0,1,4.514,2.833,1.188,1.188,0,0,1-.956,1.891" transform="translate(98.436 36.138)" fill="#70529e"/>
            <path id="Trazado_873573" data-name="Trazado 873573" d="M94.45,67.643a1.186,1.186,0,0,1-.429-.081L50.756,50.723a1.188,1.188,0,1,1,.861-2.213L94.881,65.349a1.187,1.187,0,0,1-.431,2.294" transform="translate(37.549 36.37)" fill="#1c5482"/>
          </g>
        </g>
      </g>
    </g>
    <rect id="Rectángulo_401150" data-name="Rectángulo 401150" width="672" height="43" rx="15" transform="translate(243 1669.5)" fill="#3656b3"/>
    <path id="Trazado_874726" data-name="Trazado 874726" d="M18.631,12.491V17H15.994V4.2h4.992a5.776,5.776,0,0,1,2.536.527,3.886,3.886,0,0,1,1.683,1.5,4.178,4.178,0,0,1,.589,2.21,3.674,3.674,0,0,1-1.288,2.966,5.363,5.363,0,0,1-3.564,1.085Zm0-2.136h2.355a2.316,2.316,0,0,0,1.6-.492,1.79,1.79,0,0,0,.549-1.406,2.111,2.111,0,0,0-.554-1.521,2.068,2.068,0,0,0-1.529-.6H18.631ZM32.852,17a2.821,2.821,0,0,1-.255-.853,3.073,3.073,0,0,1-2.4,1.028,3.376,3.376,0,0,1-2.316-.809,2.6,2.6,0,0,1-.918-2.039,2.687,2.687,0,0,1,1.121-2.32,5.529,5.529,0,0,1,3.239-.817h1.169v-.545a1.567,1.567,0,0,0-.338-1.055,1.331,1.331,0,0,0-1.068-.4,1.513,1.513,0,0,0-1.006.308,1.045,1.045,0,0,0-.365.844h-2.54a2.551,2.551,0,0,1,.51-1.529,3.37,3.37,0,0,1,1.441-1.1,5.253,5.253,0,0,1,2.092-.4,4.15,4.15,0,0,1,2.791.883,3.09,3.09,0,0,1,1.033,2.483V14.8a4.546,4.546,0,0,0,.378,2.048V17Zm-2.1-1.767a2.188,2.188,0,0,0,1.037-.25,1.645,1.645,0,0,0,.7-.672V12.676h-.949q-1.907,0-2.03,1.318l-.009.149a1.017,1.017,0,0,0,.334.782A1.3,1.3,0,0,0,30.751,15.233Zm11.391-.861a.818.818,0,0,0-.461-.734,5.241,5.241,0,0,0-1.481-.479q-3.393-.712-3.393-2.883a2.613,2.613,0,0,1,1.05-2.114A4.237,4.237,0,0,1,40.6,7.314a4.56,4.56,0,0,1,2.9.853,2.687,2.687,0,0,1,1.085,2.215h-2.54a1.229,1.229,0,0,0-.352-.9,1.488,1.488,0,0,0-1.1-.356,1.52,1.52,0,0,0-.993.29.916.916,0,0,0-.352.738.783.783,0,0,0,.4.681A4.114,4.114,0,0,0,41,11.283a11.019,11.019,0,0,1,1.6.426,2.628,2.628,0,0,1,2.013,2.558,2.481,2.481,0,0,1-1.116,2.1,4.815,4.815,0,0,1-2.883.8,5.029,5.029,0,0,1-2.123-.426,3.561,3.561,0,0,1-1.455-1.169,2.716,2.716,0,0,1-.527-1.6h2.408a1.326,1.326,0,0,0,.5,1.037,1.987,1.987,0,0,0,1.248.36,1.839,1.839,0,0,0,1.1-.277A.861.861,0,0,0,42.142,14.372Zm3.709-2.215A5.64,5.64,0,0,1,46.4,9.635a3.989,3.989,0,0,1,1.569-1.714,4.577,4.577,0,0,1,2.377-.606,4.33,4.33,0,0,1,3.142,1.178,4.727,4.727,0,0,1,1.358,3.2l.018.65a4.97,4.97,0,0,1-1.222,3.511,4.735,4.735,0,0,1-6.561,0,5.058,5.058,0,0,1-1.226-3.586Zm2.54.18a3.555,3.555,0,0,0,.51,2.073,1.831,1.831,0,0,0,2.9.009,3.89,3.89,0,0,0,.519-2.267,3.519,3.519,0,0,0-.519-2.06,1.686,1.686,0,0,0-1.459-.731,1.658,1.658,0,0,0-1.441.726A3.955,3.955,0,0,0,48.391,12.338Zm13.184,2.035a.818.818,0,0,0-.461-.734,5.241,5.241,0,0,0-1.481-.479q-3.393-.712-3.393-2.883a2.613,2.613,0,0,1,1.05-2.114,4.237,4.237,0,0,1,2.747-.848,4.56,4.56,0,0,1,2.9.853,2.687,2.687,0,0,1,1.085,2.215h-2.54a1.229,1.229,0,0,0-.352-.9,1.488,1.488,0,0,0-1.1-.356,1.52,1.52,0,0,0-.993.29.916.916,0,0,0-.352.738.783.783,0,0,0,.4.681,4.114,4.114,0,0,0,1.349.448,11.019,11.019,0,0,1,1.6.426,2.628,2.628,0,0,1,2.013,2.558,2.481,2.481,0,0,1-1.116,2.1,4.815,4.815,0,0,1-2.883.8,5.029,5.029,0,0,1-2.123-.426,3.561,3.561,0,0,1-1.455-1.169,2.716,2.716,0,0,1-.527-1.6h2.408a1.326,1.326,0,0,0,.5,1.037,1.987,1.987,0,0,0,1.248.36,1.839,1.839,0,0,0,1.1-.277A.861.861,0,0,0,61.574,14.372Zm17.147-2.039a5.7,5.7,0,0,1-1,3.52,3.2,3.2,0,0,1-2.694,1.323,2.963,2.963,0,0,1-2.329-1v4.482h-2.54V7.49h2.355l.088.932a2.985,2.985,0,0,1,2.408-1.107,3.22,3.22,0,0,1,2.733,1.3,5.858,5.858,0,0,1,.976,3.586Zm-2.54-.185a3.743,3.743,0,0,0-.47-2.048,1.532,1.532,0,0,0-1.367-.721,1.663,1.663,0,0,0-1.644.914v3.894a1.692,1.692,0,0,0,1.661.94Q76.182,15.128,76.182,12.148ZM85.806,17a2.821,2.821,0,0,1-.255-.853,3.073,3.073,0,0,1-2.4,1.028,3.376,3.376,0,0,1-2.316-.809,2.6,2.6,0,0,1-.918-2.039,2.687,2.687,0,0,1,1.121-2.32,5.529,5.529,0,0,1,3.239-.817h1.169v-.545a1.567,1.567,0,0,0-.338-1.055,1.331,1.331,0,0,0-1.068-.4,1.513,1.513,0,0,0-1.006.308,1.045,1.045,0,0,0-.365.844h-2.54a2.551,2.551,0,0,1,.51-1.529,3.37,3.37,0,0,1,1.441-1.1,5.253,5.253,0,0,1,2.092-.4,4.15,4.15,0,0,1,2.791.883,3.09,3.09,0,0,1,1.033,2.483V14.8a4.546,4.546,0,0,0,.378,2.048V17Zm-2.1-1.767a2.188,2.188,0,0,0,1.037-.25,1.645,1.645,0,0,0,.7-.672V12.676H84.5q-1.907,0-2.03,1.318l-.009.149a1.017,1.017,0,0,0,.334.782A1.3,1.3,0,0,0,83.705,15.233ZM95.289,9.872a6.9,6.9,0,0,0-.914-.07,1.86,1.86,0,0,0-1.89.976V17h-2.54V7.49h2.4l.07,1.134a2.354,2.354,0,0,1,2.118-1.31,2.662,2.662,0,0,1,.791.114ZM101.758,17a2.821,2.821,0,0,1-.255-.853,3.073,3.073,0,0,1-2.4,1.028,3.376,3.376,0,0,1-2.316-.809,2.6,2.6,0,0,1-.918-2.039,2.687,2.687,0,0,1,1.121-2.32,5.529,5.529,0,0,1,3.239-.817H101.4v-.545a1.567,1.567,0,0,0-.338-1.055,1.331,1.331,0,0,0-1.068-.4,1.513,1.513,0,0,0-1.006.308,1.045,1.045,0,0,0-.365.844H96.08a2.551,2.551,0,0,1,.51-1.529,3.37,3.37,0,0,1,1.441-1.1,5.253,5.253,0,0,1,2.092-.4,4.15,4.15,0,0,1,2.791.883,3.09,3.09,0,0,1,1.033,2.483V14.8a4.546,4.546,0,0,0,.378,2.048V17Zm-2.1-1.767a2.188,2.188,0,0,0,1.037-.25,1.645,1.645,0,0,0,.7-.672V12.676h-.949q-1.907,0-2.03,1.318l-.009.149a1.017,1.017,0,0,0,.334.782A1.3,1.3,0,0,0,99.657,15.233ZM115.891,17a2.821,2.821,0,0,1-.255-.853,3.073,3.073,0,0,1-2.4,1.028,3.376,3.376,0,0,1-2.316-.809A2.6,2.6,0,0,1,110,14.328a2.687,2.687,0,0,1,1.121-2.32,5.529,5.529,0,0,1,3.239-.817h1.169v-.545a1.567,1.567,0,0,0-.338-1.055,1.331,1.331,0,0,0-1.068-.4,1.513,1.513,0,0,0-1.006.308,1.045,1.045,0,0,0-.365.844h-2.54a2.551,2.551,0,0,1,.51-1.529,3.37,3.37,0,0,1,1.441-1.1,5.253,5.253,0,0,1,2.092-.4,4.15,4.15,0,0,1,2.791.883,3.09,3.09,0,0,1,1.033,2.483V14.8a4.546,4.546,0,0,0,.378,2.048V17Zm-2.1-1.767a2.188,2.188,0,0,0,1.037-.25,1.645,1.645,0,0,0,.7-.672V12.676h-.949q-1.907,0-2.03,1.318l-.009.149a1.017,1.017,0,0,0,.334.782A1.3,1.3,0,0,0,113.79,15.233ZM122.711,17h-2.549V3.5h2.549Zm6.047-1.872a1.666,1.666,0,0,0,1.143-.387,1.355,1.355,0,0,0,.457-1.028h2.382a3.258,3.258,0,0,1-.527,1.771,3.48,3.48,0,0,1-1.419,1.248,4.442,4.442,0,0,1-1.991.444,4.129,4.129,0,0,1-3.217-1.3,5.13,5.13,0,0,1-1.178-3.582v-.167a5.071,5.071,0,0,1,1.169-3.507,4.08,4.08,0,0,1,3.208-1.31,4,4,0,0,1,2.861,1.015,3.594,3.594,0,0,1,1.094,2.7h-2.382a1.745,1.745,0,0,0-.457-1.206,1.7,1.7,0,0,0-2.5.183,3.749,3.749,0,0,0-.453,2.1v.264a3.8,3.8,0,0,0,.448,2.113A1.549,1.549,0,0,0,128.758,15.128ZM139.7,17a2.821,2.821,0,0,1-.255-.853,3.073,3.073,0,0,1-2.4,1.028,3.376,3.376,0,0,1-2.316-.809,2.6,2.6,0,0,1-.918-2.039,2.687,2.687,0,0,1,1.121-2.32,5.529,5.529,0,0,1,3.239-.817h1.169v-.545A1.567,1.567,0,0,0,139,9.591a1.331,1.331,0,0,0-1.068-.4,1.513,1.513,0,0,0-1.006.308,1.045,1.045,0,0,0-.365.844h-2.54a2.551,2.551,0,0,1,.51-1.529,3.37,3.37,0,0,1,1.441-1.1,5.253,5.253,0,0,1,2.092-.4,4.15,4.15,0,0,1,2.791.883,3.09,3.09,0,0,1,1.033,2.483V14.8a4.546,4.546,0,0,0,.378,2.048V17Zm-2.1-1.767a2.188,2.188,0,0,0,1.037-.25,1.645,1.645,0,0,0,.7-.672V12.676h-.949q-1.907,0-2.03,1.318l-.009.149a1.017,1.017,0,0,0,.334.782A1.3,1.3,0,0,0,137.6,15.233Zm8.578-7.743.079,1.1a3.32,3.32,0,0,1,2.733-1.274,2.759,2.759,0,0,1,2.25.888A4.142,4.142,0,0,1,152,10.856V17h-2.54V10.918a1.648,1.648,0,0,0-.352-1.173,1.574,1.574,0,0,0-1.169-.365,1.747,1.747,0,0,0-1.608.914V17h-2.54V7.49Zm10.661,7.462h4.649V17H153.6V15.453l4.474-5.915h-4.342V7.49h7.62v1.5ZM168.59,17a2.821,2.821,0,0,1-.255-.853,3.073,3.073,0,0,1-2.4,1.028,3.376,3.376,0,0,1-2.316-.809,2.6,2.6,0,0,1-.918-2.039,2.687,2.687,0,0,1,1.121-2.32,5.529,5.529,0,0,1,3.239-.817h1.169v-.545a1.567,1.567,0,0,0-.338-1.055,1.331,1.331,0,0,0-1.068-.4,1.513,1.513,0,0,0-1.006.308,1.045,1.045,0,0,0-.365.844h-2.54a2.551,2.551,0,0,1,.51-1.529,3.37,3.37,0,0,1,1.441-1.1,5.253,5.253,0,0,1,2.092-.4,4.15,4.15,0,0,1,2.791.883,3.09,3.09,0,0,1,1.033,2.483V14.8a4.546,4.546,0,0,0,.378,2.048V17Zm-2.1-1.767a2.188,2.188,0,0,0,1.037-.25,1.645,1.645,0,0,0,.7-.672V12.676h-.949q-1.907,0-2.03,1.318l-.009.149a1.017,1.017,0,0,0,.334.782A1.3,1.3,0,0,0,166.489,15.233Zm11.584-5.361a6.9,6.9,0,0,0-.914-.07,1.86,1.86,0,0,0-1.89.976V17h-2.54V7.49h2.4l.07,1.134a2.354,2.354,0,0,1,2.118-1.31,2.662,2.662,0,0,1,.791.114ZM186.458,17h-2.549V3.5h2.549Zm1.7-4.843a5.64,5.64,0,0,1,.545-2.522,3.989,3.989,0,0,1,1.569-1.714,4.577,4.577,0,0,1,2.377-.606,4.33,4.33,0,0,1,3.142,1.178,4.727,4.727,0,0,1,1.358,3.2l.018.65a4.97,4.97,0,0,1-1.222,3.511,4.735,4.735,0,0,1-6.561,0,5.058,5.058,0,0,1-1.226-3.586Zm2.54.18a3.555,3.555,0,0,0,.51,2.073,1.831,1.831,0,0,0,2.9.009,3.89,3.89,0,0,0,.519-2.267,3.519,3.519,0,0,0-.519-2.06,1.686,1.686,0,0,0-1.459-.731,1.658,1.658,0,0,0-1.441.726A3.955,3.955,0,0,0,190.694,12.338Zm13.184,2.035a.818.818,0,0,0-.461-.734,5.241,5.241,0,0,0-1.481-.479q-3.393-.712-3.393-2.883a2.613,2.613,0,0,1,1.05-2.114,4.237,4.237,0,0,1,2.747-.848,4.56,4.56,0,0,1,2.9.853,2.687,2.687,0,0,1,1.085,2.215h-2.54a1.229,1.229,0,0,0-.352-.9,1.488,1.488,0,0,0-1.1-.356,1.52,1.52,0,0,0-.993.29.916.916,0,0,0-.352.738.783.783,0,0,0,.4.681,4.114,4.114,0,0,0,1.349.448,11.019,11.019,0,0,1,1.6.426,2.628,2.628,0,0,1,2.013,2.558,2.481,2.481,0,0,1-1.116,2.1,4.815,4.815,0,0,1-2.883.8,5.029,5.029,0,0,1-2.123-.426,3.561,3.561,0,0,1-1.455-1.169,2.716,2.716,0,0,1-.527-1.6h2.408a1.326,1.326,0,0,0,.5,1.037,1.987,1.987,0,0,0,1.248.36,1.839,1.839,0,0,0,1.1-.277A.861.861,0,0,0,203.878,14.372Zm8.191-2.215a5.64,5.64,0,0,1,.545-2.522,3.989,3.989,0,0,1,1.569-1.714,4.577,4.577,0,0,1,2.377-.606A4.33,4.33,0,0,1,219.7,8.492a4.727,4.727,0,0,1,1.358,3.2l.018.65a4.97,4.97,0,0,1-1.222,3.511,4.735,4.735,0,0,1-6.561,0,5.058,5.058,0,0,1-1.226-3.586Zm2.54.18a3.555,3.555,0,0,0,.51,2.073,1.831,1.831,0,0,0,2.9.009,3.89,3.89,0,0,0,.519-2.267,3.519,3.519,0,0,0-.519-2.06,1.686,1.686,0,0,0-1.459-.731,1.658,1.658,0,0,0-1.441.726A3.955,3.955,0,0,0,214.609,12.338Zm16.6,0a5.758,5.758,0,0,1-.976,3.564,3.231,3.231,0,0,1-2.725,1.279,2.969,2.969,0,0,1-2.47-1.187L224.928,17h-2.285V3.5h2.54V8.343a2.893,2.893,0,0,1,2.312-1.028,3.258,3.258,0,0,1,2.729,1.279,5.767,5.767,0,0,1,.989,3.6Zm-2.54-.185a3.783,3.783,0,0,0-.457-2.1,1.545,1.545,0,0,0-1.362-.664,1.676,1.676,0,0,0-1.67.993v3.753a1.7,1.7,0,0,0,1.688,1,1.568,1.568,0,0,0,1.617-1.213A6.257,6.257,0,0,0,228.672,12.148Zm6.794-4.658V17.519a3.4,3.4,0,0,1-.835,2.448,3.174,3.174,0,0,1-2.408.875,5.165,5.165,0,0,1-1.257-.149V18.679a4.768,4.768,0,0,0,.8.079q1.151,0,1.151-1.222V7.49Zm-2.751-2.461a1.251,1.251,0,0,1,.382-.94,1.654,1.654,0,0,1,2.083,0,1.251,1.251,0,0,1,.382.94,1.247,1.247,0,0,1-.391.949,1.629,1.629,0,0,1-2.065,0A1.247,1.247,0,0,1,232.715,5.029Zm9.114,12.146a4.668,4.668,0,0,1-3.406-1.283,4.561,4.561,0,0,1-1.314-3.419v-.246a5.745,5.745,0,0,1,.554-2.562,4.064,4.064,0,0,1,1.569-1.74,4.4,4.4,0,0,1,2.316-.611,3.947,3.947,0,0,1,3.072,1.23,5,5,0,0,1,1.121,3.489v1.037h-6.056a2.36,2.36,0,0,0,.743,1.494,2.245,2.245,0,0,0,1.569.563,2.742,2.742,0,0,0,2.294-1.063l1.248,1.4a3.813,3.813,0,0,1-1.547,1.261A5.075,5.075,0,0,1,241.829,17.176Zm-.29-7.813a1.587,1.587,0,0,0-1.226.512,2.651,2.651,0,0,0-.6,1.466h3.533v-.2a1.891,1.891,0,0,0-.457-1.311A1.638,1.638,0,0,0,241.539,9.362Zm8.684-4.21V7.49h1.626V9.354h-1.626V14.1a1.133,1.133,0,0,0,.2.756,1.015,1.015,0,0,0,.773.229,4.051,4.051,0,0,0,.747-.062v1.925a5.229,5.229,0,0,1-1.538.229,2.425,2.425,0,0,1-2.725-2.7V9.354h-1.389V7.49h1.389V5.152ZM255.944,17H253.4V7.49h2.549Zm-2.7-11.971a1.251,1.251,0,0,1,.382-.94,1.648,1.648,0,0,1,2.079,0,1.244,1.244,0,0,1,.387.94,1.247,1.247,0,0,1-.391.949,1.629,1.629,0,0,1-2.065,0A1.247,1.247,0,0,1,253.246,5.029ZM261.6,13.9l1.767-6.407h2.654L262.809,17h-2.426l-3.208-9.51h2.654Zm5.01-1.74a5.64,5.64,0,0,1,.545-2.522,3.989,3.989,0,0,1,1.569-1.714,4.577,4.577,0,0,1,2.377-.606,4.33,4.33,0,0,1,3.142,1.178,4.727,4.727,0,0,1,1.358,3.2l.018.65a4.97,4.97,0,0,1-1.222,3.511,4.735,4.735,0,0,1-6.561,0,5.058,5.058,0,0,1-1.226-3.586Zm2.54.18a3.555,3.555,0,0,0,.51,2.073,1.831,1.831,0,0,0,2.9.009,3.89,3.89,0,0,0,.519-2.267,3.519,3.519,0,0,0-.519-2.06,1.686,1.686,0,0,0-1.459-.731,1.658,1.658,0,0,0-1.441.726A3.955,3.955,0,0,0,269.146,12.338Zm13.184,2.035a.818.818,0,0,0-.461-.734,5.241,5.241,0,0,0-1.481-.479q-3.393-.712-3.393-2.883a2.613,2.613,0,0,1,1.05-2.114,4.237,4.237,0,0,1,2.747-.848,4.56,4.56,0,0,1,2.9.853,2.687,2.687,0,0,1,1.085,2.215h-2.54a1.229,1.229,0,0,0-.352-.9,1.488,1.488,0,0,0-1.1-.356,1.52,1.52,0,0,0-.993.29.916.916,0,0,0-.352.738.783.783,0,0,0,.4.681,4.114,4.114,0,0,0,1.349.448,11.019,11.019,0,0,1,1.6.426,2.628,2.628,0,0,1,2.013,2.558,2.481,2.481,0,0,1-1.116,2.1,4.815,4.815,0,0,1-2.883.8,5.029,5.029,0,0,1-2.123-.426,3.561,3.561,0,0,1-1.455-1.169,2.716,2.716,0,0,1-.527-1.6H279.1a1.326,1.326,0,0,0,.5,1.037,1.987,1.987,0,0,0,1.248.36,1.839,1.839,0,0,0,1.1-.277A.861.861,0,0,0,282.329,14.372Zm12.542.756a1.666,1.666,0,0,0,1.143-.387,1.355,1.355,0,0,0,.457-1.028h2.382a3.258,3.258,0,0,1-.527,1.771,3.48,3.48,0,0,1-1.419,1.248,4.442,4.442,0,0,1-1.991.444,4.129,4.129,0,0,1-3.217-1.3,5.13,5.13,0,0,1-1.178-3.582v-.167a5.071,5.071,0,0,1,1.169-3.507,4.08,4.08,0,0,1,3.208-1.31,4,4,0,0,1,2.861,1.015,3.594,3.594,0,0,1,1.094,2.7h-2.382a1.745,1.745,0,0,0-.457-1.206,1.7,1.7,0,0,0-2.5.183,3.749,3.749,0,0,0-.453,2.1v.264a3.8,3.8,0,0,0,.448,2.113A1.549,1.549,0,0,0,294.871,15.128Zm5.036-2.971a5.64,5.64,0,0,1,.545-2.522,3.989,3.989,0,0,1,1.569-1.714,4.577,4.577,0,0,1,2.377-.606,4.33,4.33,0,0,1,3.142,1.178,4.727,4.727,0,0,1,1.358,3.2l.018.65a4.97,4.97,0,0,1-1.222,3.511,4.735,4.735,0,0,1-6.561,0,5.058,5.058,0,0,1-1.226-3.586Zm2.54.18a3.555,3.555,0,0,0,.51,2.073,1.831,1.831,0,0,0,2.9.009,3.89,3.89,0,0,0,.519-2.267,3.519,3.519,0,0,0-.519-2.06,1.686,1.686,0,0,0-1.459-.731,1.658,1.658,0,0,0-1.441.726A3.955,3.955,0,0,0,302.447,12.338ZM312.862,7.49l.079,1.063a3.342,3.342,0,0,1,2.733-1.239,2.536,2.536,0,0,1,2.522,1.45,3.265,3.265,0,0,1,2.856-1.45,2.836,2.836,0,0,1,2.3.9,4.141,4.141,0,0,1,.756,2.711V17h-2.549V10.936a1.811,1.811,0,0,0-.316-1.182,1.4,1.4,0,0,0-1.116-.374,1.585,1.585,0,0,0-1.582,1.09l.009,6.53h-2.54V10.944a1.789,1.789,0,0,0-.325-1.2,1.416,1.416,0,0,0-1.107-.369,1.646,1.646,0,0,0-1.564.9V17h-2.54V7.49Zm17.578,9.686a4.668,4.668,0,0,1-3.406-1.283,4.561,4.561,0,0,1-1.314-3.419v-.246a5.745,5.745,0,0,1,.554-2.562,4.064,4.064,0,0,1,1.569-1.74,4.4,4.4,0,0,1,2.316-.611,3.947,3.947,0,0,1,3.072,1.23,5,5,0,0,1,1.121,3.489v1.037H328.3a2.36,2.36,0,0,0,.743,1.494,2.245,2.245,0,0,0,1.569.563,2.742,2.742,0,0,0,2.294-1.063l1.248,1.4a3.813,3.813,0,0,1-1.547,1.261A5.075,5.075,0,0,1,330.44,17.176Zm-.29-7.813a1.587,1.587,0,0,0-1.226.512,2.651,2.651,0,0,0-.6,1.466h3.533v-.2a1.891,1.891,0,0,0-.457-1.311A1.638,1.638,0,0,0,330.15,9.362Zm10.986.51a6.9,6.9,0,0,0-.914-.07,1.86,1.86,0,0,0-1.89.976V17h-2.54V7.49h2.4l.07,1.134a2.354,2.354,0,0,1,2.118-1.31,2.662,2.662,0,0,1,.791.114Zm5.01,5.256a1.666,1.666,0,0,0,1.143-.387,1.355,1.355,0,0,0,.457-1.028h2.382a3.258,3.258,0,0,1-.527,1.771,3.48,3.48,0,0,1-1.419,1.248,4.442,4.442,0,0,1-1.991.444,4.129,4.129,0,0,1-3.217-1.3A5.13,5.13,0,0,1,341.8,12.3v-.167a5.071,5.071,0,0,1,1.169-3.507,4.08,4.08,0,0,1,3.208-1.31,4,4,0,0,1,2.861,1.015,3.594,3.594,0,0,1,1.094,2.7h-2.382a1.745,1.745,0,0,0-.457-1.206,1.7,1.7,0,0,0-2.5.183,3.749,3.749,0,0,0-.453,2.1v.264a3.8,3.8,0,0,0,.448,2.113A1.549,1.549,0,0,0,346.146,15.128ZM354.259,17H351.71V7.49h2.549Zm-2.7-11.971a1.251,1.251,0,0,1,.382-.94,1.648,1.648,0,0,1,2.079,0,1.244,1.244,0,0,1,.387.94,1.247,1.247,0,0,1-.391.949,1.629,1.629,0,0,1-2.065,0A1.247,1.247,0,0,1,351.561,5.029ZM361.861,17a2.821,2.821,0,0,1-.255-.853,3.073,3.073,0,0,1-2.4,1.028,3.376,3.376,0,0,1-2.316-.809,2.6,2.6,0,0,1-.918-2.039,2.687,2.687,0,0,1,1.121-2.32,5.529,5.529,0,0,1,3.239-.817H361.5v-.545a1.567,1.567,0,0,0-.338-1.055,1.331,1.331,0,0,0-1.068-.4,1.513,1.513,0,0,0-1.006.308,1.045,1.045,0,0,0-.365.844h-2.54a2.551,2.551,0,0,1,.51-1.529,3.37,3.37,0,0,1,1.441-1.1,5.253,5.253,0,0,1,2.092-.4,4.15,4.15,0,0,1,2.791.883,3.09,3.09,0,0,1,1.033,2.483V14.8a4.546,4.546,0,0,0,.378,2.048V17Zm-2.1-1.767a2.188,2.188,0,0,0,1.037-.25,1.645,1.645,0,0,0,.7-.672V12.676h-.949q-1.907,0-2.03,1.318l-.009.149a1.017,1.017,0,0,0,.334.782A1.3,1.3,0,0,0,359.761,15.233ZM368.682,17h-2.549V3.5h2.549Zm6.469.176a4.668,4.668,0,0,1-3.406-1.283,4.561,4.561,0,0,1-1.314-3.419v-.246a5.745,5.745,0,0,1,.554-2.562,4.064,4.064,0,0,1,1.569-1.74,4.4,4.4,0,0,1,2.316-.611,3.947,3.947,0,0,1,3.072,1.23,5,5,0,0,1,1.121,3.489v1.037h-6.056a2.36,2.36,0,0,0,.743,1.494,2.245,2.245,0,0,0,1.569.563,2.742,2.742,0,0,0,2.294-1.063l1.248,1.4a3.813,3.813,0,0,1-1.547,1.261A5.075,5.075,0,0,1,375.15,17.176Zm-.29-7.813a1.587,1.587,0,0,0-1.226.512,2.651,2.651,0,0,0-.6,1.466h3.533v-.2a1.891,1.891,0,0,0-.457-1.311A1.638,1.638,0,0,0,374.86,9.362Zm10.793,5.01a.818.818,0,0,0-.461-.734,5.241,5.241,0,0,0-1.481-.479q-3.393-.712-3.393-2.883a2.613,2.613,0,0,1,1.05-2.114,4.237,4.237,0,0,1,2.747-.848,4.56,4.56,0,0,1,2.9.853,2.687,2.687,0,0,1,1.085,2.215h-2.54a1.229,1.229,0,0,0-.352-.9,1.488,1.488,0,0,0-1.1-.356,1.52,1.52,0,0,0-.993.29.916.916,0,0,0-.352.738.783.783,0,0,0,.4.681,4.114,4.114,0,0,0,1.349.448,11.019,11.019,0,0,1,1.6.426,2.628,2.628,0,0,1,2.013,2.558,2.481,2.481,0,0,1-1.116,2.1,4.815,4.815,0,0,1-2.883.8A5.029,5.029,0,0,1,382,16.75a3.561,3.561,0,0,1-1.455-1.169,2.716,2.716,0,0,1-.527-1.6h2.408a1.326,1.326,0,0,0,.5,1.037,1.987,1.987,0,0,0,1.248.36,1.839,1.839,0,0,0,1.1-.277A.861.861,0,0,0,385.653,14.372ZM399.751,17a2.821,2.821,0,0,1-.255-.853,3.073,3.073,0,0,1-2.4,1.028,3.376,3.376,0,0,1-2.316-.809,2.6,2.6,0,0,1-.918-2.039,2.687,2.687,0,0,1,1.121-2.32,5.529,5.529,0,0,1,3.239-.817h1.169v-.545a1.567,1.567,0,0,0-.338-1.055,1.331,1.331,0,0,0-1.068-.4,1.513,1.513,0,0,0-1.006.308,1.045,1.045,0,0,0-.365.844h-2.54a2.551,2.551,0,0,1,.51-1.529,3.37,3.37,0,0,1,1.441-1.1,5.253,5.253,0,0,1,2.092-.4,4.15,4.15,0,0,1,2.791.883,3.09,3.09,0,0,1,1.033,2.483V14.8a4.546,4.546,0,0,0,.378,2.048V17Zm-2.1-1.767a2.188,2.188,0,0,0,1.037-.25,1.645,1.645,0,0,0,.7-.672V12.676h-.949q-1.907,0-2.03,1.318l-.009.149a1.017,1.017,0,0,0,.334.782A1.3,1.3,0,0,0,397.65,15.233ZM411.414,5.152V7.49h1.626V9.354h-1.626V14.1a1.133,1.133,0,0,0,.2.756,1.015,1.015,0,0,0,.773.229,4.051,4.051,0,0,0,.747-.062v1.925a5.229,5.229,0,0,1-1.538.229,2.425,2.425,0,0,1-2.725-2.7V9.354h-1.389V7.49h1.389V5.152Zm8.385,4.72a6.9,6.9,0,0,0-.914-.07,1.86,1.86,0,0,0-1.89.976V17h-2.54V7.49h2.4l.07,1.134a2.354,2.354,0,0,1,2.118-1.31,2.662,2.662,0,0,1,.791.114ZM426.268,17a2.821,2.821,0,0,1-.255-.853,3.073,3.073,0,0,1-2.4,1.028,3.376,3.376,0,0,1-2.316-.809,2.6,2.6,0,0,1-.918-2.039,2.687,2.687,0,0,1,1.121-2.32,5.529,5.529,0,0,1,3.239-.817h1.169v-.545a1.567,1.567,0,0,0-.338-1.055,1.331,1.331,0,0,0-1.068-.4,1.513,1.513,0,0,0-1.006.308,1.045,1.045,0,0,0-.365.844h-2.54a2.551,2.551,0,0,1,.51-1.529,3.37,3.37,0,0,1,1.441-1.1,5.253,5.253,0,0,1,2.092-.4,4.15,4.15,0,0,1,2.791.883,3.09,3.09,0,0,1,1.033,2.483V14.8a4.546,4.546,0,0,0,.378,2.048V17Zm-2.1-1.767a2.188,2.188,0,0,0,1.037-.25,1.645,1.645,0,0,0,.7-.672V12.676h-.949q-1.907,0-2.03,1.318l-.009.149a1.017,1.017,0,0,0,.334.782A1.3,1.3,0,0,0,424.167,15.233Zm9.668-1.336L435.6,7.49h2.654L435.048,17h-2.426l-3.208-9.51h2.654Zm9.8,3.278a4.668,4.668,0,0,1-3.406-1.283,4.561,4.561,0,0,1-1.314-3.419v-.246a5.745,5.745,0,0,1,.554-2.562,4.064,4.064,0,0,1,1.569-1.74,4.4,4.4,0,0,1,2.316-.611,3.947,3.947,0,0,1,3.072,1.23,5,5,0,0,1,1.121,3.489v1.037H441.49a2.36,2.36,0,0,0,.743,1.494,2.245,2.245,0,0,0,1.569.563,2.742,2.742,0,0,0,2.294-1.063l1.248,1.4a3.813,3.813,0,0,1-1.547,1.261A5.075,5.075,0,0,1,443.635,17.176Zm-.29-7.813a1.587,1.587,0,0,0-1.226.512,2.651,2.651,0,0,0-.6,1.466h3.533v-.2a1.891,1.891,0,0,0-.457-1.311A1.638,1.638,0,0,0,443.345,9.362Zm.229-5.862h2.769l-2.435,2.725h-2.065Zm10.564,10.872a.818.818,0,0,0-.461-.734,5.241,5.241,0,0,0-1.481-.479q-3.393-.712-3.393-2.883a2.613,2.613,0,0,1,1.05-2.114,4.237,4.237,0,0,1,2.747-.848,4.56,4.56,0,0,1,2.9.853,2.687,2.687,0,0,1,1.085,2.215h-2.54a1.229,1.229,0,0,0-.352-.9,1.488,1.488,0,0,0-1.1-.356,1.52,1.52,0,0,0-.993.29.916.916,0,0,0-.352.738.783.783,0,0,0,.4.681,4.114,4.114,0,0,0,1.349.448,11.019,11.019,0,0,1,1.6.426,2.628,2.628,0,0,1,2.013,2.558,2.481,2.481,0,0,1-1.116,2.1,4.815,4.815,0,0,1-2.883.8,5.029,5.029,0,0,1-2.123-.426,3.561,3.561,0,0,1-1.455-1.169,2.716,2.716,0,0,1-.527-1.6h2.408a1.326,1.326,0,0,0,.5,1.037,1.987,1.987,0,0,0,1.248.36,1.839,1.839,0,0,0,1.1-.277A.861.861,0,0,0,454.138,14.372Zm8.191-2.2a5.731,5.731,0,0,1,1-3.542,3.237,3.237,0,0,1,2.729-1.318,2.913,2.913,0,0,1,2.294,1.037V3.5H470.9V17H468.6l-.123-1.011a2.989,2.989,0,0,1-2.443,1.187,3.228,3.228,0,0,1-2.694-1.323A5.916,5.916,0,0,1,462.329,12.175Zm2.54.189a3.754,3.754,0,0,0,.466,2.051,1.517,1.517,0,0,0,1.354.713,1.7,1.7,0,0,0,1.661-.995V10.375a1.675,1.675,0,0,0-1.644-.995Q464.869,9.38,464.869,12.364Zm12.375,4.812a4.668,4.668,0,0,1-3.406-1.283,4.561,4.561,0,0,1-1.314-3.419v-.246a5.745,5.745,0,0,1,.554-2.562,4.064,4.064,0,0,1,1.569-1.74,4.4,4.4,0,0,1,2.316-.611,3.947,3.947,0,0,1,3.072,1.23,5,5,0,0,1,1.121,3.489v1.037H475.1a2.36,2.36,0,0,0,.743,1.494,2.245,2.245,0,0,0,1.569.563,2.742,2.742,0,0,0,2.294-1.063l1.248,1.4a3.813,3.813,0,0,1-1.547,1.261A5.075,5.075,0,0,1,477.244,17.176Zm-.29-7.813a1.587,1.587,0,0,0-1.226.512,2.651,2.651,0,0,0-.6,1.466h3.533v-.2a1.891,1.891,0,0,0-.457-1.311A1.638,1.638,0,0,0,476.954,9.362ZM485.277,17h-2.549V3.5h2.549Zm15.135-4.667a5.7,5.7,0,0,1-1,3.52,3.2,3.2,0,0,1-2.694,1.323,2.963,2.963,0,0,1-2.329-1v4.482h-2.54V7.49h2.355l.088.932A2.985,2.985,0,0,1,496.7,7.314a3.22,3.22,0,0,1,2.733,1.3,5.858,5.858,0,0,1,.976,3.586Zm-2.54-.185a3.743,3.743,0,0,0-.47-2.048,1.532,1.532,0,0,0-1.367-.721,1.663,1.663,0,0,0-1.644.914v3.894a1.692,1.692,0,0,0,1.661.94Q497.872,15.128,497.872,12.148ZM504.666,17h-2.549V3.5h2.549Zm7.6,0a2.821,2.821,0,0,1-.255-.853,3.073,3.073,0,0,1-2.4,1.028,3.376,3.376,0,0,1-2.316-.809,2.6,2.6,0,0,1-.918-2.039,2.687,2.687,0,0,1,1.121-2.32,5.529,5.529,0,0,1,3.239-.817h1.169v-.545a1.567,1.567,0,0,0-.338-1.055,1.331,1.331,0,0,0-1.068-.4A1.513,1.513,0,0,0,509.5,9.5a1.045,1.045,0,0,0-.365.844h-2.54a2.551,2.551,0,0,1,.51-1.529,3.37,3.37,0,0,1,1.441-1.1,5.253,5.253,0,0,1,2.092-.4,4.15,4.15,0,0,1,2.791.883,3.09,3.09,0,0,1,1.033,2.483V14.8a4.546,4.546,0,0,0,.378,2.048V17Zm-2.1-1.767a2.188,2.188,0,0,0,1.037-.25,1.645,1.645,0,0,0,.7-.672V12.676h-.949q-1.907,0-2.03,1.318l-.009.149a1.017,1.017,0,0,0,.334.782A1.3,1.3,0,0,0,510.168,15.233Zm8.578-7.743.079,1.1a3.32,3.32,0,0,1,2.733-1.274,2.759,2.759,0,0,1,2.25.888,4.142,4.142,0,0,1,.756,2.654V17h-2.54V10.918a1.648,1.648,0,0,0-.352-1.173A1.574,1.574,0,0,0,520.5,9.38a1.747,1.747,0,0,0-1.608.914V17h-2.54V7.49Zm11.83,4.685a5.731,5.731,0,0,1,1-3.542A3.237,3.237,0,0,1,534.3,7.314,2.913,2.913,0,0,1,536.6,8.352V3.5h2.549V17h-2.294l-.123-1.011a2.989,2.989,0,0,1-2.443,1.187,3.228,3.228,0,0,1-2.694-1.323A5.916,5.916,0,0,1,530.576,12.175Zm2.54.189a3.754,3.754,0,0,0,.466,2.051,1.517,1.517,0,0,0,1.354.713,1.7,1.7,0,0,0,1.661-.995V10.375a1.675,1.675,0,0,0-1.644-.995Q533.116,9.38,533.116,12.364Zm12.375,4.812a4.668,4.668,0,0,1-3.406-1.283,4.561,4.561,0,0,1-1.314-3.419v-.246a5.745,5.745,0,0,1,.554-2.562,4.064,4.064,0,0,1,1.569-1.74,4.4,4.4,0,0,1,2.316-.611,3.947,3.947,0,0,1,3.072,1.23,5,5,0,0,1,1.121,3.489v1.037h-6.056a2.36,2.36,0,0,0,.743,1.494,2.245,2.245,0,0,0,1.569.563,2.742,2.742,0,0,0,2.294-1.063l1.248,1.4a3.813,3.813,0,0,1-1.547,1.261A5.075,5.075,0,0,1,545.491,17.176Zm-.29-7.813a1.587,1.587,0,0,0-1.226.512,2.651,2.651,0,0,0-.6,1.466h3.533v-.2a1.891,1.891,0,0,0-.457-1.311A1.638,1.638,0,0,0,545.2,9.362ZM557.708,7.49l.079,1.063a3.342,3.342,0,0,1,2.733-1.239,2.536,2.536,0,0,1,2.522,1.45,3.265,3.265,0,0,1,2.856-1.45,2.836,2.836,0,0,1,2.3.9,4.141,4.141,0,0,1,.756,2.711V17h-2.549V10.936a1.811,1.811,0,0,0-.316-1.182,1.4,1.4,0,0,0-1.116-.374,1.585,1.585,0,0,0-1.582,1.09L563.4,17h-2.54V10.944a1.789,1.789,0,0,0-.325-1.2,1.416,1.416,0,0,0-1.107-.369,1.646,1.646,0,0,0-1.564.9V17h-2.54V7.49Zm17.578,9.686a4.668,4.668,0,0,1-3.406-1.283,4.561,4.561,0,0,1-1.314-3.419v-.246a5.745,5.745,0,0,1,.554-2.562,4.064,4.064,0,0,1,1.569-1.74A4.4,4.4,0,0,1,575,7.314a3.947,3.947,0,0,1,3.072,1.23,5,5,0,0,1,1.121,3.489v1.037h-6.056a2.36,2.36,0,0,0,.743,1.494,2.245,2.245,0,0,0,1.569.563,2.742,2.742,0,0,0,2.294-1.063l1.248,1.4a3.813,3.813,0,0,1-1.547,1.261A5.075,5.075,0,0,1,575.286,17.176ZM575,9.362a1.587,1.587,0,0,0-1.226.512,2.651,2.651,0,0,0-.6,1.466H576.7v-.2a1.891,1.891,0,0,0-.457-1.311A1.638,1.638,0,0,0,575,9.362Zm10.986.51a6.9,6.9,0,0,0-.914-.07,1.86,1.86,0,0,0-1.89.976V17h-2.54V7.49h2.4l.07,1.134a2.354,2.354,0,0,1,2.118-1.31,2.662,2.662,0,0,1,.791.114Zm5.01,5.256a1.666,1.666,0,0,0,1.143-.387,1.355,1.355,0,0,0,.457-1.028h2.382a3.258,3.258,0,0,1-.527,1.771,3.48,3.48,0,0,1-1.419,1.248,4.442,4.442,0,0,1-1.991.444,4.129,4.129,0,0,1-3.217-1.3,5.13,5.13,0,0,1-1.178-3.582v-.167a5.071,5.071,0,0,1,1.169-3.507,4.08,4.08,0,0,1,3.208-1.31,4,4,0,0,1,2.861,1.015,3.594,3.594,0,0,1,1.094,2.7h-2.382a1.745,1.745,0,0,0-.457-1.206,1.7,1.7,0,0,0-2.5.183,3.749,3.749,0,0,0-.453,2.1v.264a3.8,3.8,0,0,0,.448,2.113A1.549,1.549,0,0,0,590.992,15.128ZM601.935,17a2.821,2.821,0,0,1-.255-.853,3.073,3.073,0,0,1-2.4,1.028,3.376,3.376,0,0,1-2.316-.809,2.6,2.6,0,0,1-.918-2.039,2.687,2.687,0,0,1,1.121-2.32,5.529,5.529,0,0,1,3.239-.817h1.169v-.545a1.567,1.567,0,0,0-.338-1.055,1.331,1.331,0,0,0-1.068-.4,1.513,1.513,0,0,0-1.006.308,1.045,1.045,0,0,0-.365.844h-2.54a2.551,2.551,0,0,1,.51-1.529,3.37,3.37,0,0,1,1.441-1.1,5.253,5.253,0,0,1,2.092-.4,4.15,4.15,0,0,1,2.791.883,3.09,3.09,0,0,1,1.033,2.483V14.8a4.546,4.546,0,0,0,.378,2.048V17Zm-2.1-1.767a2.188,2.188,0,0,0,1.037-.25,1.645,1.645,0,0,0,.7-.672V12.676h-.949q-1.907,0-2.03,1.318l-.009.149a1.017,1.017,0,0,0,.334.782A1.3,1.3,0,0,0,599.834,15.233Zm5.845-3.059a5.731,5.731,0,0,1,1-3.542,3.237,3.237,0,0,1,2.729-1.318A2.913,2.913,0,0,1,611.7,8.352V3.5h2.549V17h-2.294l-.123-1.011a2.989,2.989,0,0,1-2.443,1.187,3.228,3.228,0,0,1-2.694-1.323A5.916,5.916,0,0,1,605.679,12.175Zm2.54.189a3.754,3.754,0,0,0,.466,2.051,1.517,1.517,0,0,0,1.354.713,1.7,1.7,0,0,0,1.661-.995V10.375a1.675,1.675,0,0,0-1.644-.995Q608.219,9.38,608.219,12.364Zm12.375,4.812a4.668,4.668,0,0,1-3.406-1.283,4.561,4.561,0,0,1-1.314-3.419v-.246a5.745,5.745,0,0,1,.554-2.562A4.064,4.064,0,0,1,618,7.925a4.4,4.4,0,0,1,2.316-.611,3.947,3.947,0,0,1,3.072,1.23,5,5,0,0,1,1.121,3.489v1.037h-6.056a2.36,2.36,0,0,0,.743,1.494,2.245,2.245,0,0,0,1.569.563,2.742,2.742,0,0,0,2.294-1.063l1.248,1.4a3.813,3.813,0,0,1-1.547,1.261A5.075,5.075,0,0,1,620.594,17.176Zm-.29-7.813a1.587,1.587,0,0,0-1.226.512,2.651,2.651,0,0,0-.6,1.466h3.533v-.2a1.891,1.891,0,0,0-.457-1.311A1.638,1.638,0,0,0,620.3,9.362Zm5.247,2.795a5.64,5.64,0,0,1,.545-2.522,3.989,3.989,0,0,1,1.569-1.714,4.577,4.577,0,0,1,2.377-.606,4.33,4.33,0,0,1,3.142,1.178,4.727,4.727,0,0,1,1.358,3.2l.018.65a4.97,4.97,0,0,1-1.222,3.511,4.735,4.735,0,0,1-6.561,0,5.058,5.058,0,0,1-1.226-3.586Zm2.54.18a3.555,3.555,0,0,0,.51,2.073,1.831,1.831,0,0,0,2.9.009,3.89,3.89,0,0,0,.519-2.267,3.519,3.519,0,0,0-.519-2.06,1.686,1.686,0,0,0-1.459-.731,1.658,1.658,0,0,0-1.441.726A3.955,3.955,0,0,0,628.091,12.338Z" transform="translate(254 1679)" fill="#fff"/>
  </g>
</svg>
