<svg id="img3" xmlns="http://www.w3.org/2000/svg" xmlns:xlink="http://www.w3.org/1999/xlink" width="505" height="301.909" viewBox="0 0 505 301.909">
  <defs>
    <clipPath id="clip-path">
      <rect id="Rectángulo_401031" data-name="Rectángulo 401031" width="505" height="301.909" fill="none"/>
    </clipPath>
    <clipPath id="clip-path-3">
      <rect id="Rectángulo_401024" data-name="Rectángulo 401024" width="78.392" height="78.391" transform="translate(312.707 2.372)" fill="none"/>
    </clipPath>
    <clipPath id="clip-path-4">
      <path id="Trazado_873609" data-name="Trazado 873609" d="M313.364,34.462A39.189,39.189,0,1,0,359.009,3.028a39.188,39.188,0,0,0-45.645,31.434" fill="none"/>
    </clipPath>
    <linearGradient id="linear-gradient" x1="-3.644" y1="3.565" x2="-3.632" y2="3.565" gradientUnits="objectBoundingBox">
      <stop offset="0" stop-color="#939598"/>
      <stop offset="1" stop-color="#231f20"/>
    </linearGradient>
    <clipPath id="clip-path-5">
      <rect id="Rectángulo_401026" data-name="Rectángulo 401026" width="66.339" height="66.338" transform="translate(224.158 10.519)" fill="none"/>
    </clipPath>
    <clipPath id="clip-path-6">
      <path id="Trazado_873620" data-name="Trazado 873620" d="M270.715,13.316,289.9,50.05a5.208,5.208,0,0,1-2.2,7.026L250.966,76.264a5.206,5.206,0,0,1-7.026-2.2L224.751,37.326a5.208,5.208,0,0,1,2.2-7.026l36.733-19.189a5.207,5.207,0,0,1,7.026,2.2" fill="none"/>
    </clipPath>
    <linearGradient id="linear-gradient-2" x1="-3.295" y1="4.308" x2="-3.28" y2="4.308" xlink:href="#linear-gradient"/>
    <clipPath id="clip-path-7">
      <rect id="Rectángulo_401029" data-name="Rectángulo 401029" width="138.438" height="108.676" transform="translate(253.221 169.331)" fill="none"/>
    </clipPath>
    <clipPath id="clip-path-8">
      <path id="Trazado_873631" data-name="Trazado 873631" d="M391.458,196.2l-5.727-22.334a5.922,5.922,0,0,0-5.683-4.534H264.831a5.921,5.921,0,0,0-5.682,4.534L253.422,196.2a6.058,6.058,0,0,0,5.683,7.672h2.673v62.937a11.2,11.2,0,0,0,11.2,11.2H371.9a11.2,11.2,0,0,0,11.2-11.2V203.871h2.673a6.058,6.058,0,0,0,5.683-7.672" fill="none"/>
    </clipPath>
    <linearGradient id="linear-gradient-3" x1="-1.803" y1="1.22" x2="-1.796" y2="1.22" xlink:href="#linear-gradient"/>
  </defs>
  <g id="Grupo_1099748" data-name="Grupo 1099748" clip-path="url(#clip-path)">
    <g id="Grupo_1099747" data-name="Grupo 1099747">
      <g id="Grupo_1099746" data-name="Grupo 1099746" clip-path="url(#clip-path)">
        <path id="Trazado_873600" data-name="Trazado 873600" d="M46.827,208.254H458.173A46.827,46.827,0,0,1,505,255.081h0a46.827,46.827,0,0,1-46.827,46.827H46.827A46.827,46.827,0,0,1,0,255.082H0a46.827,46.827,0,0,1,46.827-46.827" fill="#8ce2e5"/>
        <path id="Trazado_873601" data-name="Trazado 873601" d="M451.761,272.961H57.391a1.153,1.153,0,1,1,0-2.227h394.37a1.153,1.153,0,1,1,0,2.227" fill="#1a1a1a"/>
        <path id="Trazado_873602" data-name="Trazado 873602" d="M267.273,37.337c47.423-2.292,73.558,12.448,81.359,33.554,0,0,52.883,14.891,62.43,71.831s-31.019,86.764-31.019,86.764-17.99,33.292-82.854,31.7S182.5,257.242,182.5,181.347c0-109.745,37.35-141.718,84.773-144.01" fill="#cbf4e1"/>
        <path id="Trazado_873603" data-name="Trazado 873603" d="M333.4,101.732c0-.01-.1-6.75-.2-12.283-.14-7.734,2.752-13.668,11.7-17.007s10.789-14.274,16.457-13.654,2.755,7.929-.414,13.559c0,0,5.2-9.025,7.033-10.827s5.087-4.376,7-2.051c0,0,2.842-4.349,6.645-2.647s1.233,6.085,1.233,6.085,5.231-3.76,8.292,1.656-5.972,9.793-5.972,9.793,5.133,1.977-1.141,8.247S370.04,95.939,370.04,95.939l.328,3.752Z" fill="#ffa194"/>
        <path id="Trazado_873604" data-name="Trazado 873604" d="M358.088,187.115c-15.179,22.017-41.452,32.322-67.971,30.976-31.062-1.576-43.75-12.218-70.656-36.436l36.469-38.772c12.059,12.842,35.182,16.4,52.158,11.305,17.056-5.12,27.073-28.58,25.308-52.457l36.973-2.041c8.677,43.306,5.339,61.867-12.281,87.425" fill="#315884"/>
        <path id="Trazado_873605" data-name="Trazado 873605" d="M255.93,142.883l-36.469,38.773c20.382,18.346,32.608,28.9,50.842,33.625l.25-16.454s6.568-7.917,6.86-22.918c.184-9.474-1.328-16.681-3.811-22.35a41.786,41.786,0,0,1-17.672-10.676" fill="#85b6ec"/>
        <path id="Trazado_873606" data-name="Trazado 873606" d="M364.44,79.5a1.036,1.036,0,0,1-.67-1.827l18.409-15.556a1.036,1.036,0,1,1,1.337,1.583L365.108,79.255a1.034,1.034,0,0,1-.668.244" fill="#db5349"/>
        <path id="Trazado_873607" data-name="Trazado 873607" d="M313.364,34.462A39.189,39.189,0,1,0,359.009,3.028a39.189,39.189,0,0,0-45.645,31.434" fill="#0dba98"/>
        <path id="Trazado_873608" data-name="Trazado 873608" d="M354.5,17.069,345.453,29.2a2.108,2.108,0,0,1-1.769.846l-15.121-.575a2.107,2.107,0,0,0-1.8,3.322L335.5,45.144a2.1,2.1,0,0,1,.258,1.943l-5.22,14.2a2.106,2.106,0,0,0,2.6,2.737l14.449-4.5a2.105,2.105,0,0,1,1.928.356l11.895,9.353a2.106,2.106,0,0,0,3.408-1.63l.189-15.131a2.1,2.1,0,0,1,.934-1.724l12.571-8.422a2.106,2.106,0,0,0-.5-3.745L363.69,33.734a2.108,2.108,0,0,1-1.35-1.421l-4.126-14.559a2.106,2.106,0,0,0-3.715-.685" fill="#fffeeb"/>
        <g id="Grupo_1099735" data-name="Grupo 1099735" opacity="0.5" style="mix-blend-mode: soft-light;isolation: isolate">
          <g id="Grupo_1099734" data-name="Grupo 1099734">
            <g id="Grupo_1099733" data-name="Grupo 1099733" clip-path="url(#clip-path-3)">
              <g id="Grupo_1099732" data-name="Grupo 1099732">
                <g id="Grupo_1099731" data-name="Grupo 1099731" clip-path="url(#clip-path-4)">
                  <rect id="Rectángulo_401023" data-name="Rectángulo 401023" width="84.928" height="84.927" transform="translate(309.439 -0.896)" fill="url(#linear-gradient)"/>
                </g>
              </g>
            </g>
          </g>
        </g>
        <path id="Trazado_873610" data-name="Trazado 873610" d="M345.454,92.207A1.068,1.068,0,0,1,344.43,91a13.9,13.9,0,0,1,5.924-9.692c7-4.772,17.581-3.2,20.066-2.737,10.1-8.729,15.148-5.212,15.361-5.056l-1.226,1.671c-.023-.016-4.19-2.645-13.15,5.276a1.036,1.036,0,0,1-.9.236c-.118-.025-11.923-2.5-18.984,2.325a11.909,11.909,0,0,0-5.041,8.308,1.036,1.036,0,0,1-1.021.871" fill="#db5349"/>
        <path id="Trazado_873611" data-name="Trazado 873611" d="M193.055,94.969a18,18,0,1,0,18-18,18,18,0,0,0-18,18" fill="#28121f"/>
        <path id="Trazado_873612" data-name="Trazado 873612" d="M200.926,146.34a26.452,26.452,0,1,1-26.452-26.452,26.452,26.452,0,0,1,26.452,26.452" fill="#28121f"/>
        <path id="Trazado_873613" data-name="Trazado 873613" d="M209.052,118.624a17.429,17.429,0,1,1-17.429-17.429,17.429,17.429,0,0,1,17.429,17.429" fill="#28121f"/>
        <path id="Trazado_873614" data-name="Trazado 873614" d="M189.683,135.325a18.465,18.465,0,1,1,18.465-18.465,18.487,18.487,0,0,1-18.465,18.465m0-34.858a16.393,16.393,0,1,0,16.393,16.393,16.412,16.412,0,0,0-16.393-16.393" fill="#28121f"/>
        <path id="Trazado_873615" data-name="Trazado 873615" d="M211.672,123.2a14.434,14.434,0,1,0,14.434-14.434A14.434,14.434,0,0,0,211.672,123.2" fill="#28121f"/>
        <path id="Trazado_873616" data-name="Trazado 873616" d="M386.059,113.154a1.037,1.037,0,0,1-.845-1.634l8.824-12.51a1.037,1.037,0,0,1,1.444-.249l6.282,4.431,7.626-10.811a1.036,1.036,0,1,1,1.693,1.194l-8.223,11.658a1.035,1.035,0,0,1-1.444.249l-6.281-4.431-8.228,11.664a1.035,1.035,0,0,1-.848.439" fill="#3180b5"/>
        <path id="Trazado_873617" data-name="Trazado 873617" d="M270.715,13.316,289.9,50.05a5.207,5.207,0,0,1-2.2,7.026L250.965,76.265a5.208,5.208,0,0,1-7.026-2.205L224.751,37.326a5.2,5.2,0,0,1,2.2-7.025l36.734-19.189a5.207,5.207,0,0,1,7.026,2.2" fill="#ffb14c"/>
        <path id="Trazado_873618" data-name="Trazado 873618" d="M271.324,23.785a8.639,8.639,0,1,1-11.657-3.657,8.64,8.64,0,0,1,11.657,3.657" fill="#fffeeb"/>
        <path id="Trazado_873619" data-name="Trazado 873619" d="M281.943,34.809q-.209.1-.416.2a20.828,20.828,0,0,0-7.63,6.445,8.495,8.495,0,0,1-11.115,2.456,20.871,20.871,0,0,0-29.572,9.608l10.73,20.54a5.207,5.207,0,0,0,7.026,2.205L287.7,57.075a5.207,5.207,0,0,0,2.2-7.026Z" fill="#3180b5"/>
        <g id="Grupo_1099740" data-name="Grupo 1099740" opacity="0.5" style="mix-blend-mode: soft-light;isolation: isolate">
          <g id="Grupo_1099739" data-name="Grupo 1099739">
            <g id="Grupo_1099738" data-name="Grupo 1099738" clip-path="url(#clip-path-5)">
              <g id="Grupo_1099737" data-name="Grupo 1099737">
                <g id="Grupo_1099736" data-name="Grupo 1099736" clip-path="url(#clip-path-6)">
                  <rect id="Rectángulo_401025" data-name="Rectángulo 401025" width="67.815" height="67.816" transform="translate(223.42 9.78)" fill="url(#linear-gradient-2)"/>
                </g>
              </g>
            </g>
          </g>
        </g>
        <path id="Trazado_873621" data-name="Trazado 873621" d="M162.749,272.571H268.616l-8.9-34.1H162.748Z" fill="#28121f"/>
        <path id="Trazado_873622" data-name="Trazado 873622" d="M259.375,235.168l.553-36.342s6.5-7.918,6.86-22.918c.612-25.748-11.015-34.366-20.9-41.172-12.838-8.839-46.411-12.177-65.8,2.767C150.528,160.285,138,200.216,139.5,228.528c1.468,27.642,24.293,45.994,50.18,47.553,28.449,1.712,45.169-11.618,71.094-27.295Z" fill="#315884"/>
        <path id="Trazado_873623" data-name="Trazado 873623" d="M285.807,86.034l33.369,16.935a3.073,3.073,0,0,1,1.349,4.13L303.59,140.466a3.072,3.072,0,0,1-4.13,1.349l-33.369-16.934a3.072,3.072,0,0,1-1.349-4.13l16.935-33.368a3.072,3.072,0,0,1,4.13-1.349" fill="#28121f"/>
        <path id="Trazado_873624" data-name="Trazado 873624" d="M259.819,97.271l5.124-10.1a2.115,2.115,0,0,1,3.659-.2l6.182,9.485,6.182,9.486a2.116,2.116,0,0,1-1.659,3.268L268,109.827l-11.306.61a2.115,2.115,0,0,1-2-3.07Z" fill="#70529e"/>
        <path id="Trazado_873625" data-name="Trazado 873625" d="M313.384,111.777a7.578,7.578,0,1,1-3.328-10.187,7.578,7.578,0,0,1,3.328,10.187" fill="#c9c9c9"/>
        <path id="Trazado_873626" data-name="Trazado 873626" d="M304.59,24.835a1.063,1.063,0,0,1-.344-.059,1.037,1.037,0,0,1-.634-1.321l3.252-9.25a1.036,1.036,0,1,1,1.955.687l-3.252,9.25a1.037,1.037,0,0,1-.977.693" fill="#3180b5"/>
        <path id="Trazado_873627" data-name="Trazado 873627" d="M290.5,23a1.036,1.036,0,0,1-.995-.748L284.774,5.895a1.036,1.036,0,1,1,1.99-.575l4.728,16.353a1.037,1.037,0,0,1-1,1.324" fill="#3180b5"/>
        <path id="Trazado_873628" data-name="Trazado 873628" d="M164.447,237.147a29.744,29.744,0,0,0-20.912,8.556c7.871,17.881,26.09,29.171,46.148,30.378q1.6.1,3.155.127a29.86,29.86,0,0,0-28.391-39.061" fill="#0dba98"/>
        <path id="Trazado_873629" data-name="Trazado 873629" d="M261.778,175.469v94.672a7.866,7.866,0,0,0,7.866,7.866H375.236a7.866,7.866,0,0,0,7.866-7.866V175.469Z" fill="#ffb14c"/>
        <rect id="Rectángulo_401027" data-name="Rectángulo 401027" width="121.324" height="33.282" transform="translate(261.778 181.146)" fill="#e87323"/>
        <path id="Trazado_873630" data-name="Trazado 873630" d="M264.831,169.331H380.048a5.922,5.922,0,0,1,5.683,4.534l5.726,22.334a6.058,6.058,0,0,1-5.682,7.672H259.1a6.058,6.058,0,0,1-5.682-7.672l5.726-22.334a5.923,5.923,0,0,1,5.683-4.534" fill="#ffb14c"/>
        <g id="Grupo_1099745" data-name="Grupo 1099745" opacity="0.5" style="mix-blend-mode: soft-light;isolation: isolate">
          <g id="Grupo_1099744" data-name="Grupo 1099744">
            <g id="Grupo_1099743" data-name="Grupo 1099743" clip-path="url(#clip-path-7)">
              <g id="Grupo_1099742" data-name="Grupo 1099742">
                <g id="Grupo_1099741" data-name="Grupo 1099741" clip-path="url(#clip-path-8)">
                  <rect id="Rectángulo_401028" data-name="Rectángulo 401028" width="140.022" height="108.676" transform="translate(252.429 169.331)" fill="url(#linear-gradient-3)"/>
                </g>
              </g>
            </g>
          </g>
        </g>
        <path id="Trazado_873632" data-name="Trazado 873632" d="M352.866,270.875h17.071a1.4,1.4,0,0,0,1.4-1.4V252.4a1.4,1.4,0,0,0-1.4-1.4H352.866a1.4,1.4,0,0,0-1.4,1.4v17.07a1.4,1.4,0,0,0,1.4,1.4" fill="#e87323"/>
        <path id="Trazado_873633" data-name="Trazado 873633" d="M345.476,271.911H329.593a3.035,3.035,0,0,1-3.031-3.032V253a3.035,3.035,0,0,1,3.031-3.031h15.883A3.034,3.034,0,0,1,348.507,253v15.883a3.034,3.034,0,0,1-3.031,3.032m-15.883-19.874a.96.96,0,0,0-.959.959v15.883a.961.961,0,0,0,.959.96h15.883a.961.961,0,0,0,.96-.96V253a.96.96,0,0,0-.96-.959Z" fill="#e87323"/>
        <path id="Trazado_873634" data-name="Trazado 873634" d="M313.689,200.081v21.4a.475.475,0,0,0,.811.334l3.155-3.173a.475.475,0,0,1,.663-.01L322.2,222.3a.474.474,0,0,0,.678-.027l3.438-3.818a.474.474,0,0,1,.682-.025l3.389,3.262a.474.474,0,0,0,.8-.342V200.081a.475.475,0,0,0-.474-.475H314.164a.475.475,0,0,0-.475.475" fill="#fffeeb"/>
        <path id="Trazado_873635" data-name="Trazado 873635" d="M224.069,152.586c-15.159,0-30.892-7.261-41.42-13.353l-2.366-1.369a1.036,1.036,0,1,1,1.038-1.793l2.365,1.368c10.31,5.965,25.684,13.075,40.383,13.075.819,0,1.638-.023,2.434-.067a26.837,26.837,0,0,0,22.447-13.406,1.036,1.036,0,0,1,1.777,1.065c-5.3,8.842-13.639,13.825-24.109,14.409-.834.048-1.691.071-2.549.071" fill="#85b6ec"/>
        <path id="Trazado_873636" data-name="Trazado 873636" d="M245.593,134.536c-11.842-7.883-40.279-11.226-59.82-.7,9.672,5.6,25.821,13.274,40.5,12.454,10.108-.565,15.949-5.937,19.321-11.753" fill="#ffa194"/>
        <path id="Trazado_873637" data-name="Trazado 873637" d="M226.492,128.263l-.9-9.631c14.5-1.363,14.952-4.4,12.748-20.1-.683-4.862-1.217-10.036-8.294-14.386-9.46-5.814-22.475-.768-25.018,10.041-.032.133-.062.267-.092.4-1.492,6.9-1.6,13.091,2.875,16.959l1.72,18.311Z" fill="#ffa194"/>
        <path id="Trazado_873638" data-name="Trazado 873638" d="M218.069,121.1a15.325,15.325,0,0,0,8.211,4.9l-.693-7.371-6.7.532a1.182,1.182,0,0,0-.814,1.938" fill="#db5349"/>
        <path id="Trazado_873639" data-name="Trazado 873639" d="M224.9,97.949c.009-.018-1.862-.909-1.862-.909a3.249,3.249,0,0,1,5.382-.572l-1.645,1.26a1.184,1.184,0,0,0-1.875.221" fill="#28121f"/>
        <path id="Trazado_873640" data-name="Trazado 873640" d="M214.993,104.27l.179-.374c-.065.122-.124.247-.179.374" fill="#3180b5"/>
        <path id="Trazado_873641" data-name="Trazado 873641" d="M217.867,123.01A14.912,14.912,0,1,1,206,105.575a14.912,14.912,0,0,1,11.865,17.435" fill="#28121f"/>
        <path id="Trazado_873642" data-name="Trazado 873642" d="M241.816,218.087a1.048,1.048,0,0,1-1.035-1.1c.93-15.578,1.572-30.53-.761-42.225a74.877,74.877,0,0,0-8.87-23.481,1.036,1.036,0,0,1,1.741-1.123,75.489,75.489,0,0,1,9.161,24.2c2.381,11.937,1.735,27.035.8,42.754a1.036,1.036,0,0,1-1.033.974" fill="#85b6ec"/>
        <path id="Trazado_873643" data-name="Trazado 873643" d="M221.582,180.537a7.49,7.49,0,1,1-7.489-7.49,7.489,7.489,0,0,1,7.489,7.49" fill="#fffeeb"/>
        <path id="Trazado_873644" data-name="Trazado 873644" d="M254.556,208.63s6.794-15.214,9.2-19.344c3.3-5.662,10.081-1.973,9.049,3.494-.466,2.472-.985,5.558-1.636,8.952,0,0,5.8-3.474,10.1-5.694,12.162-6.284,14.7-4.537,16.119-2.209,1.328,2.179,1.4,5.013-3.19,7.618-1.27.721-3.065,1.73-5.666,3.367,10.151-6.008,13.457-3.468,14.754-1.649,1.4,1.967,2.47,5.546-2.043,8.3-.541.329-1.158.607-1.771.923,3.094-.493,4.559.749,5.481,2.221,1.58,2.521,1.131,5.564-3.518,8.651-.784.521-1.667,1.078-2.592,1.644,1.9-.063,3.3.616,3.847,2.521,1.447,5.019-4.694,6.772-12.38,10.065s-29.527,11.3-29.527,11.3l-17.025-33.072Z" fill="#ffa194"/>
        <path id="Trazado_873645" data-name="Trazado 873645" d="M272.4,213.938a1.036,1.036,0,0,1-.489-1.95l17.949-9.577a1.036,1.036,0,0,1,.975,1.829l-17.948,9.575a1.03,1.03,0,0,1-.487.123" fill="#db5349"/>
        <path id="Trazado_873646" data-name="Trazado 873646" d="M277.208,224.705a1.036,1.036,0,0,1-.468-1.961L299,211.46a1.036,1.036,0,0,1,.936,1.849l-22.259,11.284a1.033,1.033,0,0,1-.468.112" fill="#db5349"/>
        <path id="Trazado_873647" data-name="Trazado 873647" d="M281.6,233.581a1.036,1.036,0,0,1-.425-1.981l17.877-8.035a1.036,1.036,0,0,1,.85,1.89l-17.878,8.034a1.033,1.033,0,0,1-.424.092" fill="#db5349"/>
        <path id="Trazado_873648" data-name="Trazado 873648" d="M271.168,201.732c.651-3.394,1.17-6.479,1.636-8.952l-6.28,10.346a.611.611,0,0,0,.832.844Z" fill="#db5349"/>
        <path id="Trazado_873649" data-name="Trazado 873649" d="M260.778,249.822a1.035,1.035,0,0,1-.921-.56l-16.5-31.931c-1.871.715-4.064,1.665-6.367,2.664-6.436,2.79-14.447,6.262-22.094,7.57a28.3,28.3,0,0,1-11.188-.027,17.279,17.279,0,0,1-9.416-5.622c-2.847-3.292-4.148-8.206-3.867-14.6a70.772,70.772,0,0,1,3.5-17.611,149.522,149.522,0,0,1,8.676-21.248,1.036,1.036,0,0,1,1.839.955,147.123,147.123,0,0,0-8.546,20.939c-3.175,10.127-5.758,23.59-.032,30.213,3.165,3.661,7.489,5.47,13.128,5.471a33.03,33.03,0,0,0,5.56-.509c7.4-1.266,15.285-4.683,21.619-7.429,2.693-1.168,5.237-2.27,7.339-3.028a1.037,1.037,0,0,1,1.272.5L261.7,248.31a1.036,1.036,0,0,1-.919,1.512" fill="#85b6ec"/>
        <path id="Trazado_873650" data-name="Trazado 873650" d="M237.043,106.509l-6.318.711a.779.779,0,0,0-.606,1.135,4.157,4.157,0,0,0,4.023,2.156,3.743,3.743,0,0,0,3.743-3.029.779.779,0,0,0-.842-.973" fill="#fffeeb"/>
        <path id="Trazado_873651" data-name="Trazado 873651" d="M227.464,100.962a1.04,1.04,0,1,1-1.04-1.04,1.04,1.04,0,0,1,1.04,1.04" fill="#28121f"/>
        <path id="Trazado_873652" data-name="Trazado 873652" d="M237.23,99.8a1.04,1.04,0,1,1-1.04-1.04,1.041,1.041,0,0,1,1.04,1.04" fill="#28121f"/>
        <path id="Trazado_873653" data-name="Trazado 873653" d="M234.868,106.163a1.036,1.036,0,0,1-.842-1.638l1.37-1.919-1.392.13a1.035,1.035,0,0,1-1.051-.628c-.173-.409-1.644-4.063-.075-6.369a1.036,1.036,0,0,1,1.713,1.167c-.623.915-.3,2.625.023,3.692l1.49-.14a1.658,1.658,0,0,1,1.5,2.614l-1.9,2.657a1.035,1.035,0,0,1-.844.434" fill="#db5349"/>
        <path id="Trazado_873654" data-name="Trazado 873654" d="M233.734,97.359a1.036,1.036,0,0,1-.934-1.482,3.248,3.248,0,0,1,5.381-.571l-1.646,1.259a1.186,1.186,0,0,0-1.865.2,1.036,1.036,0,0,1-.936.591" fill="#28121f"/>
        <path id="Trazado_873655" data-name="Trazado 873655" d="M237.242,89.227c-1.133-8.068-9.139-14.372-20.264-11.26,0,0-16.42,5.817-16.836,16.582-.336,8.666,7.806,18.513,7.806,18.513,6.527-2.79,4.274-8.313,4.274-8.313,9.146-1.608,5.845-18.733,5.845-18.733a9.226,9.226,0,0,1,3.426,5.465,1.188,1.188,0,0,0,1.322.922l13.41-1.828a1.192,1.192,0,0,0,1.017-1.348" fill="#28121f"/>
        <path id="Trazado_873656" data-name="Trazado 873656" d="M207.41,106.141a5.01,5.01,0,1,0,3.419-6.2,5.008,5.008,0,0,0-3.419,6.2" fill="#ffa194"/>
        <path id="Trazado_873657" data-name="Trazado 873657" d="M209.273,105.6a3.071,3.071,0,1,0,2.1-3.8,3.071,3.071,0,0,0-2.1,3.8" fill="#db5349"/>
        <path id="Trazado_873658" data-name="Trazado 873658" d="M216.963,111.75a3.259,3.259,0,1,1-2.938-3.552,3.26,3.26,0,0,1,2.938,3.552" fill="#fffeeb"/>
        <path id="Trazado_873659" data-name="Trazado 873659" d="M216.6,79.592a1.036,1.036,0,0,1-.659-1.836,15.813,15.813,0,0,1,5.35-2.664A12.955,12.955,0,0,1,233.22,77.58a1.036,1.036,0,1,1-1.284,1.626c-7.313-5.776-14.607.09-14.68.15a1.036,1.036,0,0,1-.658.236" fill="#28121f"/>
        <path id="Trazado_873660" data-name="Trazado 873660" d="M210.02,97.942a1.036,1.036,0,0,1-.691-1.808c3.907-3.5,2.9-9.884,2.886-9.948a1.036,1.036,0,0,1,2.044-.34c.051.307,1.2,7.583-3.548,11.832a1.033,1.033,0,0,1-.691.264" fill="#70529e"/>
        <path id="Trazado_873661" data-name="Trazado 873661" d="M228.4,106.808a3.071,3.071,0,1,1-2.443-3.59,3.07,3.07,0,0,1,2.443,3.59" fill="#f4756e"/>
        <path id="Trazado_873662" data-name="Trazado 873662" d="M333.395,102.768a1.036,1.036,0,0,1-.056-2.07l36.973-2.042a1.036,1.036,0,0,1,.114,2.069l-36.973,2.041-.058,0" fill="#85b6ec"/>
        <path id="Trazado_873663" data-name="Trazado 873663" d="M232.577,89.9a1.037,1.037,0,0,1-1.021-.864,7.059,7.059,0,0,0-1.742-3.643,1.036,1.036,0,0,1,1.426-1.5,9.013,9.013,0,0,1,2.36,4.8,1.036,1.036,0,0,1-.85,1.193,1.02,1.02,0,0,1-.173.015" fill="#70529e"/>
        <path id="Trazado_873664" data-name="Trazado 873664" d="M450.859,50.67a.631.631,0,0,0-.514-.708c-1.107-.381-2.21-.777-3.292-1.221a1.306,1.306,0,0,1-.618-.647c-.453-1.051-.865-2.121-1.262-3.2a1.052,1.052,0,0,1,0-.713c.535-1.188,1.121-2.353,1.653-3.542a.75.75,0,0,0-.088-.66c-.892-.953-1.83-1.861-2.733-2.8a.537.537,0,0,0-.742-.12q-1.692.839-3.411,1.618a1.144,1.144,0,0,1-.778.036q-1.648-.593-3.261-1.276a1.21,1.21,0,0,1-.616-.568c-.446-1.1-.847-2.229-1.232-3.356-.124-.362-.27-.537-.692-.527-1.26.032-2.522.029-3.783,0a.629.629,0,0,0-.7.519c-.38,1.106-.808,2.2-1.186,3.3a.972.972,0,0,1-.706.675c-1.04.361-2.069.769-3.069,1.228a.983.983,0,0,1-.975-.008c-1.1-.556-2.232-1.069-3.337-1.622a.58.58,0,0,0-.8.139c-.871.91-1.76,1.806-2.676,2.674a.612.612,0,0,0-.117.856h0c.55,1.109,1.087,2.224,1.582,3.356a1.142,1.142,0,0,1-.021.82q-.689,1.61-1.474,3.178a1.347,1.347,0,0,1-.638.631c-1.175.447-2.369.846-3.566,1.236a.619.619,0,0,0-.525.7c.029,1.26.024,2.522,0,3.783a.573.573,0,0,0,.47.658c1.219.393,2.435.8,3.632,1.254a1.328,1.328,0,0,1,.622.65c.483,1.015.882,2.07,1.387,3.072a1.084,1.084,0,0,1,.023,1.1c-.522,1.047-1,2.117-1.518,3.166a.618.618,0,0,0,.134.856q1.371,1.3,2.675,2.675a.61.61,0,0,0,.853.123c1.088-.539,2.2-1.039,3.283-1.579a.968.968,0,0,1,.976.025c1.045.516,2.136.943,3.192,1.442a1.14,1.14,0,0,1,.537.563c.449,1.2.863,2.411,1.264,3.627a.586.586,0,0,0,.664.476c1.261-.021,2.522-.025,3.783,0a.606.606,0,0,0,.691-.507v-.009c.384-1.2.8-2.388,1.244-3.564a1.229,1.229,0,0,1,.6-.6q1.617-.75,3.275-1.421a1.1,1.1,0,0,1,.771-.015c1.287.572,2.557,1.188,3.88,1.812,1.036-1.05,2.071-2.078,3.071-3.14a.755.755,0,0,0,.06-.67c-.513-1.149-1.082-2.274-1.6-3.42a1.089,1.089,0,0,1-.051-.727c.39-1.123.8-2.239,1.255-3.339a1.2,1.2,0,0,1,.59-.6c1.1-.446,2.229-.851,3.354-1.242a.59.59,0,0,0,.465-.671c-.023-1.26-.026-2.522,0-3.782M431.37,59.927a7.357,7.357,0,1,1,.048,0h-.048" fill="#3656b3"/>
        <path id="Trazado_873665" data-name="Trazado 873665" d="M55.631,64.475a.421.421,0,0,1-.1-.012.438.438,0,0,1-.323-.528v0c.487-2.013,1.054-4.018,1.685-5.959a.439.439,0,0,1,.835.271c-.625,1.92-1.185,3.9-1.668,5.894a.439.439,0,0,1-.426.335m3.815-11.7a.439.439,0,0,1-.405-.608c.8-1.922,1.688-3.81,2.629-5.611a.439.439,0,1,1,.778.407c-.931,1.779-1.8,3.644-2.6,5.542a.438.438,0,0,1-.4.27m87.7-5.444a5.552,5.552,0,0,1-3.412-1.36.439.439,0,0,1,.554-.68c1.746,1.422,3.777,1.551,4.889.208a.439.439,0,0,1,.676.56,3.414,3.414,0,0,1-2.707,1.273M65.16,41.876a.439.439,0,0,1-.369-.676c1.129-1.751,2.343-3.448,3.607-5.042a.439.439,0,1,1,.689.545c-1.248,1.571-2.444,3.244-3.557,4.972a.439.439,0,0,1-.369.2m75.979-1.087a.439.439,0,0,1-.435-.381,8.865,8.865,0,0,1-.076-1.185,9.826,9.826,0,0,1,.474-2.976c.217-.688.465-1.374.733-2.038a.439.439,0,0,1,.813.329c-.259.643-.5,1.308-.711,1.975a8.983,8.983,0,0,0-.431,2.712,8.115,8.115,0,0,0,.068,1.068.439.439,0,0,1-.375.493h-.059m9.483-.479a.439.439,0,0,1-.436-.39,13.834,13.834,0,0,0-2.017-5.565.439.439,0,0,1,.753-.452,14.728,14.728,0,0,1,2.136,5.92.439.439,0,0,1-.388.484h-.049m72.51-2.485a.439.439,0,0,1-.4-.257,17.1,17.1,0,0,0-2.153-3.4.438.438,0,0,1,.688-.543,17.867,17.867,0,0,1,2.263,3.583.439.439,0,0,1-.4.62M72.8,32.247a.438.438,0,0,1-.313-.745,56.59,56.59,0,0,1,4.568-4.19.439.439,0,0,1,.557.678,55.933,55.933,0,0,0-4.5,4.125.438.438,0,0,1-.313.132m143.906-2.4a.435.435,0,0,1-.3-.12c-1.241-1.17-2.53-2.3-3.668-3.3l-.908-.8a.439.439,0,0,1,.582-.658l.906.8c1.143,1,2.437,2.141,3.69,3.321a.439.439,0,0,1-.3.758m-71.971-.1a.439.439,0,0,1-.315-.133,42.3,42.3,0,0,0-4.57-4.026.44.44,0,0,1,.534-.7,43.71,43.71,0,0,1,4.409,3.849,28.524,28.524,0,0,1,4.129-4.691.438.438,0,1,1,.591.647,27.608,27.608,0,0,0-3.993,4.535.4.4,0,0,1-.362.187.425.425,0,0,1-.118.2.436.436,0,0,1-.3.124M82.3,24.47a.439.439,0,0,1-.238-.807,53.111,53.111,0,0,1,5.4-3.044.439.439,0,0,1,.385.788A51.985,51.985,0,0,0,82.538,24.4a.435.435,0,0,1-.237.07m52.711-2.235a.437.437,0,0,1-.22-.059,43.294,43.294,0,0,0-5.472-2.67.439.439,0,0,1,.328-.814,44.187,44.187,0,0,1,5.584,2.725.439.439,0,0,1-.22.818m72.164-.15a.44.44,0,0,1-.229-.064,42.826,42.826,0,0,0-5.415-2.784.439.439,0,0,1,.346-.806,43.411,43.411,0,0,1,5.527,2.842.438.438,0,0,1-.229.813m-53.036-.958a.439.439,0,0,1-.229-.813,38.608,38.608,0,0,1,5.56-2.787.439.439,0,1,1,.348.806l-.017.007a37.627,37.627,0,0,0-5.434,2.723.44.44,0,0,1-.229.064m-60.8-2.039a.439.439,0,0,1-.144-.853,53.821,53.821,0,0,1,5.963-1.7.439.439,0,0,1,.191.856,53.05,53.05,0,0,0-5.866,1.67.441.441,0,0,1-.144.025m30.3-1.47a.446.446,0,0,1-.109-.014,48.773,48.773,0,0,0-5.989-1.147.439.439,0,0,1,.112-.87,49.563,49.563,0,0,1,6.1,1.167.439.439,0,0,1-.109.863m72.27-.42a.426.426,0,0,1-.123-.018,57.109,57.109,0,0,0-5.944-1.4.438.438,0,0,1-.353-.509h0a.43.43,0,0,1,.49-.358l.02,0a58.072,58.072,0,0,1,6.034,1.421.439.439,0,0,1-.123.86m-30.426-.735a.439.439,0,0,1-.108-.864,52.8,52.8,0,0,1,6.094-1.163.434.434,0,0,1,.491.369v.009a.44.44,0,0,1-.378.492,51.658,51.658,0,0,0-5.991,1.144.438.438,0,0,1-.108.014M105.323,16.4a.439.439,0,0,1-.049-.875c1.08-.119,2.182-.209,3.277-.268.9-.049,1.813-.073,2.717-.073h.2a.439.439,0,0,1,0,.877h-.2c-.889,0-1.787.024-2.67.072-1.079.058-2.164.147-3.227.265h-.048M183.823,15a61.1,61.1,0,0,0-6.142-.166.449.449,0,0,1-.448-.428.439.439,0,0,1,.429-.449,61.374,61.374,0,0,1,6.2.167.438.438,0,1,1-.034.876" fill="#1a1a1a"/>
        <path id="Trazado_873666" data-name="Trazado 873666" d="M209.789,5.4A5.273,5.273,0,1,0,214.933,0a5.274,5.274,0,0,0-5.144,5.4h0" transform="translate(-124.787 56.534)" fill="#ffd7b8"/>
        <path id="Trazado_873667" data-name="Trazado 873667" d="M187.651,40.434a5.273,5.273,0,1,0,5.143-5.4h0a5.273,5.273,0,0,0-5.145,5.4v0" fill="#1a1a1a"/>
        <path id="Trazado_873668" data-name="Trazado 873668" d="M175.994,56.427l4.5-4.5a1.273,1.273,0,0,0-1.8-1.8l-4.5,4.5-4.5-4.5a1.273,1.273,0,0,0-1.8,1.8l4.5,4.5-4.5,4.5a1.273,1.273,0,0,0,1.8,1.8l4.5-4.5,4.5,4.5a1.273,1.273,0,1,0,1.8-1.8Z" transform="translate(-54.204 -14.722)" fill="#ff7c48"/>
        <path id="Trazado_873669" data-name="Trazado 873669" d="M140.256,15.637,146.774,5.4l6.515,10.237Z" transform="translate(-3.238 0.584)" fill="#ffb850"/>
        <path id="Trazado_873670" data-name="Trazado 873670" d="M57.318,89.229h96.235a9.879,9.879,0,0,1,9.878,9.878V120.19a9.879,9.879,0,0,1-9.878,9.878H142.572c-.831.931-2.087,3.246.532,7.3,0,0-6.516.178-10.949-7.3H57.318a9.878,9.878,0,0,1-9.878-9.877V99.107a9.88,9.88,0,0,1,9.878-9.878" fill="#d2e1f1"/>
        <path id="Trazado_873671" data-name="Trazado 873671" d="M112.148,109.09a6.712,6.712,0,1,1-6.712-6.712,6.712,6.712,0,0,1,6.712,6.712" fill="#ffb850"/>
        <path id="Trazado_873672" data-name="Trazado 873672" d="M84.207,109.09a6.712,6.712,0,1,1-6.712-6.712,6.712,6.712,0,0,1,6.712,6.712" fill="#3656b3"/>
        <path id="Trazado_873673" data-name="Trazado 873673" d="M140.087,109.09a6.712,6.712,0,1,1-6.712-6.712,6.712,6.712,0,0,1,6.712,6.712" fill="#29c7cc"/>
        <path id="Trazado_873674" data-name="Trazado 873674" d="M95.592,172.345a.457.457,0,0,0-.373-.513c-.8-.277-1.6-.563-2.387-.886a.953.953,0,0,1-.449-.469c-.329-.762-.628-1.538-.914-2.318a.753.753,0,0,1,0-.517c.387-.861.813-1.706,1.2-2.569a.54.54,0,0,0-.064-.479c-.647-.691-1.327-1.35-1.982-2.033a.39.39,0,0,0-.538-.087c-.818.406-1.641.8-2.474,1.174a.823.823,0,0,1-.564.026q-1.2-.431-2.366-.926a.878.878,0,0,1-.446-.412c-.323-.8-.614-1.617-.894-2.434-.09-.263-.2-.39-.5-.382-.914.023-1.829.021-2.744,0a.457.457,0,0,0-.51.376c-.275.8-.586,1.592-.859,2.4a.709.709,0,0,1-.512.49c-.755.262-1.5.558-2.227.891a.713.713,0,0,1-.707-.006c-.8-.4-1.618-.775-2.42-1.176a.419.419,0,0,0-.579.1c-.633.66-1.278,1.31-1.941,1.939a.443.443,0,0,0-.086.621h0c.4.8.788,1.613,1.147,2.434a.828.828,0,0,1-.015.6q-.5,1.167-1.07,2.3a.973.973,0,0,1-.462.458c-.852.324-1.719.614-2.587.9a.45.45,0,0,0-.381.505c.021.914.018,1.829,0,2.744a.415.415,0,0,0,.341.478c.884.285,1.766.579,2.634.91a.969.969,0,0,1,.451.471c.35.736.639,1.5,1,2.228a.79.79,0,0,1,.017.8c-.379.759-.725,1.535-1.1,2.3a.449.449,0,0,0,.1.621q.993.946,1.94,1.94a.442.442,0,0,0,.618.089c.789-.391,1.593-.753,2.382-1.145a.7.7,0,0,1,.707.018c.758.375,1.549.684,2.315,1.046a.828.828,0,0,1,.39.408c.325.87.626,1.749.917,2.631a.426.426,0,0,0,.482.345c.914-.015,1.83-.018,2.744,0a.44.44,0,0,0,.5-.371v0c.279-.869.577-1.732.9-2.585a.9.9,0,0,1,.432-.435c.782-.366,1.575-.707,2.375-1.031a.8.8,0,0,1,.559-.011c.934.415,1.854.862,2.815,1.314.751-.762,1.5-1.507,2.227-2.277a.545.545,0,0,0,.043-.486c-.372-.834-.784-1.649-1.16-2.481a.783.783,0,0,1-.037-.527c.283-.815.584-1.624.911-2.422a.87.87,0,0,1,.428-.436c.8-.324,1.615-.617,2.432-.9a.427.427,0,0,0,.336-.486c-.016-.914-.018-1.829,0-2.743m-14.133,6.7a5.336,5.336,0,1,1,.035,0H81.46" fill="#29c7cc"/>
      </g>
    </g>
  </g>
</svg>
