<svg xmlns="http://www.w3.org/2000/svg" width="121" height="121" viewBox="0 0 121 121">
  <g id="img4" transform="translate(-590 -1427)">
    <g id="Grupo_1074477" data-name="Grupo 1074477" transform="translate(316 -3852.582)">
      <g id="Grupo_1074472" data-name="Grupo 1074472" transform="translate(274 5279.582)">
        <rect id="Rectángulo_378651" data-name="Rectángulo 378651" width="121" height="26" rx="13" transform="translate(0 95)" fill="#315884"/>
        <g id="Grupo_1074381" data-name="Grupo 1074381" transform="translate(2.628 0)">
          <g id="Grupo_1073526" data-name="Grupo 1073526" transform="translate(0 0)">
            <g id="Grupo_1072785" data-name="Grupo 1072785" transform="translate(0)">
              <path id="Trazado_608385" data-name="Trazado 608385" d="M57.17,0A57.17,57.17,0,1,1,0,57.17,57.17,57.17,0,0,1,57.17,0Z" transform="translate(0 0)" fill="none"/>
            </g>
            <g id="Grupo_1073383" data-name="Grupo 1073383" transform="translate(0)">
              <g id="Trazado_608385-2" data-name="Trazado 608385" transform="translate(0 0)" fill="#fff">
                <path d="M 57.16980743408203 113.3396224975586 C 49.58648300170898 113.3396224975586 42.23054504394531 111.8546371459961 35.3062858581543 108.9259338378906 C 31.97820663452148 107.5182723999023 28.76820755004883 105.7759323120117 25.76543807983398 103.7472991943359 C 22.79092979431152 101.7377624511719 19.99380683898926 99.42991638183594 17.45176124572754 96.88787078857422 C 14.9097146987915 94.3458251953125 12.60186862945557 91.54869842529297 10.59233093261719 88.57419586181641 C 8.563699722290039 85.57142639160156 6.821361064910889 82.36140441894531 5.413699626922607 79.03333282470703 C 2.484992027282715 72.10908508300781 1.000007390975952 64.75312805175781 1.000007390975952 57.16980743408203 C 1.000007390975952 49.58648300170898 2.484992027282715 42.23054504394531 5.413699626922607 35.3062858581543 C 6.821361064910889 31.97820663452148 8.563699722290039 28.76820755004883 10.59233093261719 25.76543807983398 C 12.60186862945557 22.79092979431152 14.9097146987915 19.99380683898926 17.45176124572754 17.45176124572754 C 19.99380683898926 14.9097146987915 22.79092979431152 12.60186862945557 25.76543807983398 10.59233093261719 C 28.76820755004883 8.563699722290039 31.97820663452148 6.821361064910889 35.3062858581543 5.413699626922607 C 42.23054504394531 2.484992027282715 49.58648300170898 1.000007390975952 57.16980743408203 1.000007390975952 C 64.75312805175781 1.000007390975952 72.10908508300781 2.484992027282715 79.03333282470703 5.413699626922607 C 82.36140441894531 6.821361064910889 85.57142639160156 8.563699722290039 88.57419586181641 10.59233093261719 C 91.54869842529297 12.60186862945557 94.3458251953125 14.9097146987915 96.88787078857422 17.45176124572754 C 99.42991638183594 19.99380683898926 101.7377624511719 22.79092979431152 103.7472991943359 25.76543807983398 C 105.7759323120117 28.76820755004883 107.5182723999023 31.97820663452148 108.9259338378906 35.3062858581543 C 111.8546371459961 42.23054504394531 113.3396224975586 49.58648300170898 113.3396224975586 57.16980743408203 C 113.3396224975586 64.75312805175781 111.8546371459961 72.10908508300781 108.9259338378906 79.03333282470703 C 107.5182723999023 82.36140441894531 105.7759323120117 85.57142639160156 103.7472991943359 88.57419586181641 C 101.7377624511719 91.54869842529297 99.42991638183594 94.3458251953125 96.88787078857422 96.88787078857422 C 94.3458251953125 99.42991638183594 91.54869842529297 101.7377624511719 88.57419586181641 103.7472991943359 C 85.57142639160156 105.7759323120117 82.36140441894531 107.5182723999023 79.03333282470703 108.9259338378906 C 72.10908508300781 111.8546371459961 64.75312805175781 113.3396224975586 57.16980743408203 113.3396224975586 Z" stroke="none"/>
                <path d="M 57.16980743408203 1.999992370605469 C 49.72103881835938 1.999992370605469 42.49615478515625 3.458389282226562 35.69583892822266 6.334693908691406 C 32.42722320556641 7.717193603515625 29.27450561523438 9.428459167480469 26.32524108886719 11.42094421386719 C 23.40347290039062 13.39485931396484 20.65590667724609 15.66180419921875 18.15885925292969 18.15885925292969 C 15.66180419921875 20.65590667724609 13.39485931396484 23.40347290039062 11.42094421386719 26.32524108886719 C 9.428459167480469 29.27450561523438 7.717193603515625 32.42722320556641 6.334693908691406 35.69583892822266 C 3.458389282226562 42.49615478515625 1.999992370605469 49.72103881835938 1.999992370605469 57.16980743408203 C 1.999992370605469 64.61857604980469 3.458389282226562 71.84346008300781 6.334693908691406 78.64377593994141 C 7.717193603515625 81.91239166259766 9.428459167480469 85.06510925292969 11.42094421386719 88.01438903808594 C 13.39485931396484 90.93614196777344 15.66180419921875 93.68370819091797 18.15885925292969 96.18075561523438 C 20.65590667724609 98.67778778076172 23.40347290039062 100.9447555541992 26.32524108886719 102.9186553955078 C 29.27450561523438 104.9111557006836 32.42722320556641 106.6224060058594 35.69583892822266 108.0049057006836 C 42.49615478515625 110.8812103271484 49.72103881835938 112.3396072387695 57.16980743408203 112.3396072387695 C 64.61857604980469 112.3396072387695 71.84346008300781 110.8812103271484 78.64377593994141 108.0049057006836 C 81.91239166259766 106.6224060058594 85.06510925292969 104.9111557006836 88.01438903808594 102.9186553955078 C 90.93614196777344 100.9447555541992 93.68370819091797 98.67778778076172 96.18075561523438 96.18075561523438 C 98.67778778076172 93.68370819091797 100.9447555541992 90.93614196777344 102.9186553955078 88.01438903808594 C 104.9111557006836 85.06510925292969 106.6224060058594 81.91239166259766 108.0049057006836 78.64377593994141 C 110.8812103271484 71.84346008300781 112.3396072387695 64.61857604980469 112.3396072387695 57.16980743408203 C 112.3396072387695 49.72103881835938 110.8812103271484 42.49615478515625 108.0049057006836 35.69583892822266 C 106.6224060058594 32.42722320556641 104.9111557006836 29.27450561523438 102.9186553955078 26.32524108886719 C 100.9447555541992 23.40347290039062 98.67778778076172 20.65590667724609 96.18075561523438 18.15885925292969 C 93.68370819091797 15.66180419921875 90.93614196777344 13.39485931396484 88.01438903808594 11.42094421386719 C 85.06510925292969 9.428459167480469 81.91239166259766 7.717193603515625 78.64377593994141 6.334693908691406 C 71.84346008300781 3.458389282226562 64.61857604980469 1.999992370605469 57.16980743408203 1.999992370605469 M 57.16980743408203 -7.62939453125e-06 C 88.74384307861328 -7.62939453125e-06 114.3396072387695 25.59578704833984 114.3396072387695 57.16980743408203 C 114.3396072387695 88.74384307861328 88.74384307861328 114.3396072387695 57.16980743408203 114.3396072387695 C 25.59578704833984 114.3396072387695 -7.62939453125e-06 88.74384307861328 -7.62939453125e-06 57.16980743408203 C -7.62939453125e-06 25.59578704833984 25.59578704833984 -7.62939453125e-06 57.16980743408203 -7.62939453125e-06 Z" stroke="none" fill="#85b6ec"/>
              </g>
            </g>
          </g>
        </g>
        <path id="Trazado_615556" data-name="Trazado 615556" d="M751.571,142.1l4.414-4.414a1.248,1.248,0,0,0-1.765-1.765l-4.414,4.414-4.414-4.414a1.248,1.248,0,0,0-1.765,1.765l4.415,4.414-4.415,4.414a1.248,1.248,0,1,0,1.765,1.765l4.414-4.414,4.414,4.414a1.248,1.248,0,0,0,1.765-1.765Z" transform="translate(-643.607 -125.574)" fill="#ff7c48"/>
        <path id="Trazado_615557" data-name="Trazado 615557" d="M0,13.9,8.852,0,17.7,13.9Z" transform="translate(15.274 75.974) rotate(90)" fill="#ffb850"/>
        <path id="Trazado_615559" data-name="Trazado 615559" d="M158.251,311.652a3.638,3.638,0,1,1-3.638-3.638,3.638,3.638,0,0,1,3.638,3.638" transform="translate(-63.06 -206.003)" fill="#ffb850"/>
        <path id="Trazado_615560" data-name="Trazado 615560" d="M76,311.652a3.638,3.638,0,1,1-3.638-3.638A3.638,3.638,0,0,1,76,311.652" transform="translate(4.052 -206.003)" fill="#3656b3"/>
        <path id="Trazado_615561" data-name="Trazado 615561" d="M240.505,311.652a3.638,3.638,0,1,1-3.638-3.638,3.638,3.638,0,0,1,3.638,3.638" transform="translate(-130.169 -206.003)" fill="#29c7cc"/>
      </g>
      <g id="Grupo_1100154" data-name="Grupo 1100154" transform="translate(298.5 5284.764)">
        <path id="Trazado_874304" data-name="Trazado 874304" d="M67.3,64.931H3.2a3.214,3.214,0,0,1-3.2-3.2V26.477a3.214,3.214,0,0,1,3.2-3.2H67.3a3.214,3.214,0,0,1,3.2,3.2v35.25A3.214,3.214,0,0,1,67.3,64.931Z" fill="#0e9347"/>
        <path id="Trazado_874305" data-name="Trazado 874305" d="M271,232.727a10.724,10.724,0,0,0-8.973,4.647,11.951,11.951,0,0,0-5.448-1.442,11.211,11.211,0,0,0-11.056,9.614h33.487a3.259,3.259,0,0,0,3.2-2.724A11.413,11.413,0,0,0,271,232.727Z" transform="translate(-211.719 -180.614)" fill="#0d8944"/>
        <path id="Trazado_874306" data-name="Trazado 874306" d="M80.955,81.8H29.682a6.428,6.428,0,0,0-6.409-6.409V52.955a6.428,6.428,0,0,0,6.409-6.409H80.955a6.428,6.428,0,0,0,6.409,6.409V75.387A6.428,6.428,0,0,0,80.955,81.8Z" transform="translate(-20.068 -20.069)" fill="#3bb54a"/>
        <g id="Grupo_1100150" data-name="Grupo 1100150" transform="translate(12.818 29.681)">
          <path id="Trazado_874307" data-name="Trazado 874307" d="M277.024,232.727a10.724,10.724,0,0,0-8.973,4.647,11.951,11.951,0,0,0-5.448-1.442,11.007,11.007,0,0,0-10.094,6.409h26.117a6.4,6.4,0,0,1,6.249-6.409A11.583,11.583,0,0,0,277.024,232.727Z" transform="translate(-230.558 -210.295)" fill="#0e9347"/>
          <ellipse id="Elipse_11507" data-name="Elipse 11507" cx="12.818" cy="14.42" rx="12.818" ry="14.42" transform="translate(9.614)" fill="#0e9347"/>
          <circle id="Elipse_11508" data-name="Elipse 11508" cx="3.205" cy="3.205" r="3.205" transform="translate(0 11.216)" fill="#0e9347"/>
          <circle id="Elipse_11509" data-name="Elipse 11509" cx="3.205" cy="3.205" r="3.205" transform="translate(38.454 11.216)" fill="#0e9347"/>
        </g>
        <path id="Trazado_874308" data-name="Trazado 874308" d="M217.466,112.74h-3.2a1.6,1.6,0,0,1,0-3.2h4.807a1.6,1.6,0,0,0,0-3.2h-1.6a1.6,1.6,0,0,0-3.2,0,4.807,4.807,0,1,0,0,9.614h3.2a1.6,1.6,0,1,1,0,3.2H212.66a1.6,1.6,0,1,0,0,3.2h1.6a1.6,1.6,0,0,0,3.2,0,4.807,4.807,0,1,0,0-9.614Z" transform="translate(-180.614 -70.241)" fill="#89c763"/>
        <circle id="Elipse_11510" data-name="Elipse 11510" cx="11.216" cy="11.216" r="11.216" transform="translate(30.443 55.318)" fill="#ffca5d"/>
        <circle id="Elipse_11511" data-name="Elipse 11511" cx="11.216" cy="11.216" r="11.216" transform="translate(44.864 52.113)" fill="#f6b545"/>
        <path id="Trazado_874309" data-name="Trazado 874309" d="M337.034,232.727a11.216,11.216,0,1,0,11.216,11.216A11.147,11.147,0,0,0,337.034,232.727Zm0,19.227a8.011,8.011,0,1,1,8.011-8.011A7.934,7.934,0,0,1,337.034,251.954Z" transform="translate(-280.954 -180.614)" fill="#ffcb5b"/>
        <path id="Trazado_874310" data-name="Trazado 874310" d="M407.273,325.238h0a11.012,11.012,0,0,0,11.216-11.056h-.16a1.7,1.7,0,0,0-1.6,1.442,9.687,9.687,0,0,1-3.044,5.768,9.078,9.078,0,0,1-4.967,2.4A1.436,1.436,0,0,0,407.273,325.238Z" transform="translate(-351.194 -250.853)" fill="#f6b545"/>
        <path id="Trazado_874311" data-name="Trazado 874311" d="M337.034,233.868h0a11.012,11.012,0,0,0-11.216,11.056h.16a1.7,1.7,0,0,0,1.6-1.442,9.687,9.687,0,0,1,3.044-5.768,9.079,9.079,0,0,1,4.967-2.4A1.436,1.436,0,0,0,337.034,233.868Z" transform="translate(-280.954 -181.595)" fill="#ffe27a"/>
        <path id="Trazado_874312" data-name="Trazado 874312" d="M350.213,265.133a7.934,7.934,0,0,1,8.011-8.011,7.558,7.558,0,0,1,5.127,1.923,7.986,7.986,0,0,0-14.26,4.967,7.682,7.682,0,0,0,2.884,6.089A7.515,7.515,0,0,1,350.213,265.133Z" transform="translate(-301.023 -200.682)" fill="#f19920"/>
        <path id="Trazado_874313" data-name="Trazado 874313" d="M437.667,314.132a.589.589,0,0,1-.481-.16.774.774,0,0,1,0-1.122,5.347,5.347,0,0,0,1.442-3.685.8.8,0,0,1,1.6,0,7.4,7.4,0,0,1-1.762,4.807A1.742,1.742,0,0,1,437.667,314.132Z" transform="translate(-376.78 -245.836)" fill="#ffcb5b"/>
        <g id="Grupo_1100151" data-name="Grupo 1100151" transform="translate(45.024 55.318)">
          <path id="Trazado_874314" data-name="Trazado 874314" d="M397.239,288.888a1.514,1.514,0,0,1-1.6-1.6v-6.409a1.6,1.6,0,1,1,3.2,0v6.409A1.514,1.514,0,0,1,397.239,288.888Z" transform="translate(-386.183 -276.069)" fill="#f19920"/>
          <path id="Trazado_874315" data-name="Trazado 874315" d="M343.965,273.465a13.019,13.019,0,0,0-7.691-8.652A13.4,13.4,0,0,0,330.186,256a11.582,11.582,0,0,0-3.2,7.851A11.147,11.147,0,0,0,338.2,275.067,9.292,9.292,0,0,0,343.965,273.465Z" transform="translate(-326.981 -256)" fill="#f19920"/>
        </g>
        <g id="Grupo_1100152" data-name="Grupo 1100152" transform="translate(48.068 57.401)">
          <path id="Trazado_874316" data-name="Trazado 874316" d="M351.974,283.145a8.428,8.428,0,0,1-1.923-5.127,7.757,7.757,0,0,1,2.564-5.768,6.964,6.964,0,0,0-.961-1.122,7.85,7.85,0,0,0-2.564,5.928A7.682,7.682,0,0,0,351.974,283.145Z" transform="translate(-349.09 -271.128)" fill="#e78825"/>
          <path id="Trazado_874317" data-name="Trazado 874317" d="M395.636,321.164v2.243a1.6,1.6,0,0,0,3.2,0v-.32A13.091,13.091,0,0,0,395.636,321.164Z" transform="translate(-389.227 -314.274)" fill="#e78825"/>
        </g>
        <path id="Trazado_874318" data-name="Trazado 874318" d="M342.962,274.467a10.242,10.242,0,0,0-1.282-3.044,7.753,7.753,0,0,1-4.647,1.6,7.934,7.934,0,0,1-8.011-8.011,7.85,7.85,0,0,1,2.564-5.928,9.776,9.776,0,0,0-2.564-1.923,11.582,11.582,0,0,0-3.2,7.851,11.147,11.147,0,0,0,11.216,11.216A10.742,10.742,0,0,0,342.962,274.467Z" transform="translate(-280.954 -201.684)" fill="#f6b545"/>
        <path id="Trazado_874319" data-name="Trazado 874319" d="M412.72,372.364a11.075,11.075,0,0,1-4.006,1.6,1.7,1.7,0,0,0-1.442,1.6h0a10.745,10.745,0,0,0,5.928-1.762Z" transform="translate(-351.193 -301.024)" fill="#f19920"/>
        <path id="Trazado_874320" data-name="Trazado 874320" d="M329.023,257.164a11.582,11.582,0,0,0-3.2,7.851h.16a1.7,1.7,0,0,0,1.6-1.442,9.97,9.97,0,0,1,2.884-5.608A6.5,6.5,0,0,1,329.023,257.164Z" transform="translate(-280.954 -201.686)" fill="#ffcb5b"/>
        <circle id="Elipse_11512" data-name="Elipse 11512" cx="11.216" cy="11.216" r="11.216" transform="translate(30.443 55.318)" fill="#f6b545"/>
        <path id="Trazado_874321" data-name="Trazado 874321" d="M290.909,325.4a11.105,11.105,0,0,0,.481,3.2h1.122a11.178,11.178,0,0,0,10.735-14.421h-1.122A11.147,11.147,0,0,0,290.909,325.4Z" transform="translate(-250.852 -250.852)" fill="#f19920"/>
        <path id="Trazado_874322" data-name="Trazado 874322" d="M232.306,256a11.216,11.216,0,1,0,11.216,11.216A11.147,11.147,0,0,0,232.306,256Zm0,19.227a8.011,8.011,0,1,1,8.011-8.011A7.934,7.934,0,0,1,232.306,275.227Z" transform="translate(-190.647 -200.682)" fill="#ffcb5b"/>
        <path id="Trazado_874323" data-name="Trazado 874323" d="M302.545,348.511h0a11.012,11.012,0,0,0,11.216-11.056h-.16A1.7,1.7,0,0,0,312,338.9a9.687,9.687,0,0,1-3.044,5.768,9.079,9.079,0,0,1-4.967,2.4A1.436,1.436,0,0,0,302.545,348.511Z" transform="translate(-260.886 -270.922)" fill="#f6b545"/>
        <path id="Trazado_874324" data-name="Trazado 874324" d="M232.306,257.141h0A11.012,11.012,0,0,0,221.09,268.2h.16a1.7,1.7,0,0,0,1.6-1.442,9.687,9.687,0,0,1,3.044-5.768,9.079,9.079,0,0,1,4.967-2.4A1.436,1.436,0,0,0,232.306,257.141Z" transform="translate(-190.647 -201.663)" fill="#ffe27a"/>
        <path id="Trazado_874325" data-name="Trazado 874325" d="M245.485,288.406a7.934,7.934,0,0,1,8.011-8.011,7.558,7.558,0,0,1,5.127,1.923,7.987,7.987,0,0,0-14.26,4.967,7.682,7.682,0,0,0,2.884,6.089A7.515,7.515,0,0,1,245.485,288.406Z" transform="translate(-210.715 -220.751)" fill="#f19920"/>
        <path id="Trazado_874326" data-name="Trazado 874326" d="M332.94,337.4a.588.588,0,0,1-.481-.16.774.774,0,0,1,0-1.122,5.347,5.347,0,0,0,1.442-3.685.8.8,0,1,1,1.6,0,7.4,7.4,0,0,1-1.762,4.807A1.742,1.742,0,0,1,332.94,337.4Z" transform="translate(-286.474 -265.904)" fill="#ffcb5b"/>
        <path id="Trazado_874327" data-name="Trazado 874327" d="M292.511,312.16a1.514,1.514,0,0,1-1.6-1.6v-6.409a1.6,1.6,0,0,1,3.2,0v6.409A1.514,1.514,0,0,1,292.511,312.16Z" transform="translate(-250.852 -240.82)" fill="#f19920"/>
        <g id="Grupo_1100153" data-name="Grupo 1100153" transform="translate(38.454 63.329)">
          <path id="Trazado_874328" data-name="Trazado 874328" d="M299.883,314.341a9.371,9.371,0,0,1,.641,3.044,7.934,7.934,0,0,1-8.011,8.011,5.449,5.449,0,0,1-1.6-.16v.16a11.105,11.105,0,0,0,.481,3.2h1.122a11.178,11.178,0,0,0,10.735-14.421h-1.122A10.591,10.591,0,0,0,299.883,314.341Z" transform="translate(-289.307 -314.181)" fill="#f6b545"/>
          <circle id="Elipse_11513" data-name="Elipse 11513" cx="11.216" cy="11.216" r="11.216" transform="translate(0 1.602)" fill="#f6b545"/>
        </g>
        <path id="Trazado_874329" data-name="Trazado 874329" d="M290.488,325.818A11.216,11.216,0,1,0,301.7,337.034,11.147,11.147,0,0,0,290.488,325.818Zm0,19.227a8.011,8.011,0,1,1,8.011-8.011A7.934,7.934,0,0,1,290.488,345.045Z" transform="translate(-240.818 -260.887)" fill="#ffcb5b"/>
        <path id="Trazado_874330" data-name="Trazado 874330" d="M360.727,418.329h0a11.012,11.012,0,0,0,11.216-11.056h-.16a1.7,1.7,0,0,0-1.6,1.442,9.687,9.687,0,0,1-3.044,5.768,9.079,9.079,0,0,1-4.967,2.4A1.436,1.436,0,0,0,360.727,418.329Z" transform="translate(-311.057 -331.126)" fill="#f6b545"/>
        <path id="Trazado_874331" data-name="Trazado 874331" d="M290.488,326.959h0a11.012,11.012,0,0,0-11.216,11.056h.16a1.7,1.7,0,0,0,1.6-1.442,9.687,9.687,0,0,1,3.044-5.768,9.079,9.079,0,0,1,4.967-2.4A1.436,1.436,0,0,0,290.488,326.959Z" transform="translate(-240.818 -261.868)" fill="#ffe27a"/>
        <path id="Trazado_874332" data-name="Trazado 874332" d="M303.667,358.224a7.934,7.934,0,0,1,8.011-8.011,7.558,7.558,0,0,1,5.127,1.923,7.987,7.987,0,0,0-14.26,4.967,7.682,7.682,0,0,0,2.884,6.089A7.514,7.514,0,0,1,303.667,358.224Z" transform="translate(-260.886 -280.955)" fill="#f19920"/>
        <path id="Trazado_874333" data-name="Trazado 874333" d="M391.121,407.222a.589.589,0,0,1-.481-.16.774.774,0,0,1,0-1.122,5.348,5.348,0,0,0,1.442-3.685.8.8,0,1,1,1.6,0,7.4,7.4,0,0,1-1.762,4.807A1.741,1.741,0,0,1,391.121,407.222Z" transform="translate(-336.644 -326.108)" fill="#ffcb5b"/>
        <path id="Trazado_874334" data-name="Trazado 874334" d="M350.693,381.978a1.514,1.514,0,0,1-1.6-1.6v-6.409a1.6,1.6,0,1,1,3.2,0v6.409A1.514,1.514,0,0,1,350.693,381.978Z" transform="translate(-301.023 -301.024)" fill="#f19920"/>
      </g>
    </g>
  </g>
</svg>
