<svg xmlns="http://www.w3.org/2000/svg" width="121" height="121" viewBox="0 0 121 121">
  <g id="img4" transform="translate(-743 -1537.081)">
    <g id="Grupo_1074346" data-name="Grupo 1074346" transform="translate(357.332 -4475.919)">
      <rect id="Rectángulo_378643" data-name="Rectángulo 378643" width="121" height="26" rx="13" transform="translate(385.668 6108)" fill="#315884"/>
      <g id="Grupo_1073527" data-name="Grupo 1073527" transform="translate(-3 -36)">
        <g id="Grupo_1073526" data-name="Grupo 1073526" transform="translate(391.668 6049)">
          <g id="Grupo_1072785" data-name="Grupo 1072785" transform="translate(0 0)">
            <path id="Trazado_608385" data-name="Trazado 608385" d="M57.014,0A57.014,57.014,0,1,1,0,57.014,57.014,57.014,0,0,1,57.014,0Z" fill="none"/>
          </g>
          <g id="Grupo_1073383" data-name="Grupo 1073383" transform="translate(0 0)">
            <path id="Trazado_608385-2" data-name="Trazado 608385" d="M57.014,0A57.014,57.014,0,1,1,0,57.014,57.014,57.014,0,0,1,57.014,0Z" fill="#fff"/>
          </g>
        </g>
      </g>
    </g>
    <g id="Grupo_1100380" data-name="Grupo 1100380" transform="translate(773.494 1544.571)">
      <path id="Trazado_874548" data-name="Trazado 874548" d="M255.453,215.313a28.838,28.838,0,0,0-.89-7.132.328.328,0,0,0-.4-.234l-27.492,7.366,2.308,15.328,12.087,9.606a28.775,28.775,0,0,0,14.39-24.933Z" transform="translate(-197.881 -164.678)" fill="#fd6930"/>
      <path id="Trazado_874549" data-name="Trazado 874549" d="M204.8,43.052a28.655,28.655,0,0,0-14.109-3.689L185.46,56.715l5.233,11.433L204.923,43.5A.328.328,0,0,0,204.8,43.052Z" transform="translate(-161.907 -17.514)" fill="#ffc344"/>
      <path id="Trazado_874550" data-name="Trazado 874550" d="M28.786,39.363a28.786,28.786,0,1,0,14.4,53.719l-14.4-24.933Z" transform="translate(0 -17.514)" fill="#01c0fa"/>
      <path id="Trazado_874551" data-name="Trazado 874551" d="M325.1,208.18a.328.328,0,0,0-.4-.234l-4.167,1.117a29.07,29.07,0,0,1,.227,3.633,28.776,28.776,0,0,1-13.291,24.265l4.134,3.285a28.835,28.835,0,0,0,13.5-32.066Z" transform="translate(-268.423 -164.678)" fill="#fd5426"/>
      <path id="Trazado_874552" data-name="Trazado 874552" d="M115.517,433.44a28.721,28.721,0,0,1-10.175-1.85,28.815,28.815,0,0,0,29.8.614l-2.533-4.387A28.645,28.645,0,0,1,115.517,433.44Z" transform="translate(-91.964 -356.636)" fill="#08a9f1"/>
      <path id="Trazado_874553" data-name="Trazado 874553" d="M323.726,36.343a28.849,28.849,0,0,0-13.044-17,.328.328,0,0,0-.45.119L296.4,43.429a.327.327,0,0,0,.368.48l26.729-7.162A.328.328,0,0,0,323.726,36.343Z" transform="translate(-258.716)" fill="#e53950"/>
      <path id="Trazado_874554" data-name="Trazado 874554" d="M408.39,36.343a28.85,28.85,0,0,0-13.044-17,.328.328,0,0,0-.45.119l-1.564,2.708A28.828,28.828,0,0,1,404.2,37.74a.329.329,0,0,1,.011.065l3.948-1.058A.328.328,0,0,0,408.39,36.343Z" transform="translate(-343.381)" fill="#ca2e43"/>
      <circle id="Elipse_11528" data-name="Elipse 11528" cx="9.144" cy="9.144" r="9.144" transform="translate(0 21.849)" fill="#80d261"/>
      <path id="Trazado_874555" data-name="Trazado 874555" d="M41.453,87.865a.952.952,0,0,1-.673-1.626l6.1-6.1a.952.952,0,0,1,1.347,1.347l-6.1,6.1a.949.949,0,0,1-.673.279Z" transform="translate(-35.357 -52.871)" fill="#fff"/>
      <g id="Grupo_1100377" data-name="Grupo 1100377" transform="translate(5.28 26.993)">
        <g id="Grupo_1100376" data-name="Grupo 1100376" transform="translate(0 0)">
          <circle id="Elipse_11529" data-name="Elipse 11529" cx="0.952" cy="0.952" r="0.952" fill="#fff"/>
        </g>
      </g>
      <g id="Grupo_1100379" data-name="Grupo 1100379" transform="translate(11.307 33.02)">
        <g id="Grupo_1100378" data-name="Grupo 1100378">
          <circle id="Elipse_11530" data-name="Elipse 11530" cx="0.952" cy="0.952" r="0.952" fill="#fff"/>
        </g>
      </g>
    </g>
  </g>
</svg>
