<svg xmlns="http://www.w3.org/2000/svg" width="121" height="121" viewBox="0 0 121 121">
  <g id="img5" transform="translate(-274 -5279.582)">
    <g id="Grupo_1074472" data-name="Grupo 1074472" transform="translate(274 5279.582)">
      <rect id="Rectángulo_378651" data-name="Rectángulo 378651" width="121" height="26" rx="13" transform="translate(0 95)" fill="#315884"/>
      <g id="Grupo_1074381" data-name="Grupo 1074381" transform="translate(2.628 0)">
        <g id="Grupo_1073526" data-name="Grupo 1073526" transform="translate(0 0)">
          <g id="Grupo_1072785" data-name="Grupo 1072785" transform="translate(0)">
            <path id="Trazado_608385" data-name="Trazado 608385" d="M57.17,0A57.17,57.17,0,1,1,0,57.17,57.17,57.17,0,0,1,57.17,0Z" transform="translate(0 0)" fill="none"/>
          </g>
          <g id="Grupo_1073383" data-name="Grupo 1073383" transform="translate(0)">
            <g id="Trazado_608385-2" data-name="Trazado 608385" transform="translate(0 0)" fill="#fff">
              <path d="M 57.16980743408203 113.3396224975586 C 49.58648300170898 113.3396224975586 42.23054504394531 111.8546371459961 35.3062858581543 108.9259338378906 C 31.97820663452148 107.5182723999023 28.76820755004883 105.7759323120117 25.76543807983398 103.7472991943359 C 22.79092979431152 101.7377624511719 19.99380683898926 99.42991638183594 17.45176124572754 96.88787078857422 C 14.9097146987915 94.3458251953125 12.60186862945557 91.54869842529297 10.59233093261719 88.57419586181641 C 8.563699722290039 85.57142639160156 6.821361064910889 82.36140441894531 5.413699626922607 79.03333282470703 C 2.484992027282715 72.10908508300781 1.000007390975952 64.75312805175781 1.000007390975952 57.16980743408203 C 1.000007390975952 49.58648300170898 2.484992027282715 42.23054504394531 5.413699626922607 35.3062858581543 C 6.821361064910889 31.97820663452148 8.563699722290039 28.76820755004883 10.59233093261719 25.76543807983398 C 12.60186862945557 22.79092979431152 14.9097146987915 19.99380683898926 17.45176124572754 17.45176124572754 C 19.99380683898926 14.9097146987915 22.79092979431152 12.60186862945557 25.76543807983398 10.59233093261719 C 28.76820755004883 8.563699722290039 31.97820663452148 6.821361064910889 35.3062858581543 5.413699626922607 C 42.23054504394531 2.484992027282715 49.58648300170898 1.000007390975952 57.16980743408203 1.000007390975952 C 64.75312805175781 1.000007390975952 72.10908508300781 2.484992027282715 79.03333282470703 5.413699626922607 C 82.36140441894531 6.821361064910889 85.57142639160156 8.563699722290039 88.57419586181641 10.59233093261719 C 91.54869842529297 12.60186862945557 94.3458251953125 14.9097146987915 96.88787078857422 17.45176124572754 C 99.42991638183594 19.99380683898926 101.7377624511719 22.79092979431152 103.7472991943359 25.76543807983398 C 105.7759323120117 28.76820755004883 107.5182723999023 31.97820663452148 108.9259338378906 35.3062858581543 C 111.8546371459961 42.23054504394531 113.3396224975586 49.58648300170898 113.3396224975586 57.16980743408203 C 113.3396224975586 64.75312805175781 111.8546371459961 72.10908508300781 108.9259338378906 79.03333282470703 C 107.5182723999023 82.36140441894531 105.7759323120117 85.57142639160156 103.7472991943359 88.57419586181641 C 101.7377624511719 91.54869842529297 99.42991638183594 94.3458251953125 96.88787078857422 96.88787078857422 C 94.3458251953125 99.42991638183594 91.54869842529297 101.7377624511719 88.57419586181641 103.7472991943359 C 85.57142639160156 105.7759323120117 82.36140441894531 107.5182723999023 79.03333282470703 108.9259338378906 C 72.10908508300781 111.8546371459961 64.75312805175781 113.3396224975586 57.16980743408203 113.3396224975586 Z" stroke="none"/>
              <path d="M 57.16980743408203 1.999992370605469 C 49.72103881835938 1.999992370605469 42.49615478515625 3.458389282226562 35.69583892822266 6.334693908691406 C 32.42722320556641 7.717193603515625 29.27450561523438 9.428459167480469 26.32524108886719 11.42094421386719 C 23.40347290039062 13.39485931396484 20.65590667724609 15.66180419921875 18.15885925292969 18.15885925292969 C 15.66180419921875 20.65590667724609 13.39485931396484 23.40347290039062 11.42094421386719 26.32524108886719 C 9.428459167480469 29.27450561523438 7.717193603515625 32.42722320556641 6.334693908691406 35.69583892822266 C 3.458389282226562 42.49615478515625 1.999992370605469 49.72103881835938 1.999992370605469 57.16980743408203 C 1.999992370605469 64.61857604980469 3.458389282226562 71.84346008300781 6.334693908691406 78.64377593994141 C 7.717193603515625 81.91239166259766 9.428459167480469 85.06510925292969 11.42094421386719 88.01438903808594 C 13.39485931396484 90.93614196777344 15.66180419921875 93.68370819091797 18.15885925292969 96.18075561523438 C 20.65590667724609 98.67778778076172 23.40347290039062 100.9447555541992 26.32524108886719 102.9186553955078 C 29.27450561523438 104.9111557006836 32.42722320556641 106.6224060058594 35.69583892822266 108.0049057006836 C 42.49615478515625 110.8812103271484 49.72103881835938 112.3396072387695 57.16980743408203 112.3396072387695 C 64.61857604980469 112.3396072387695 71.84346008300781 110.8812103271484 78.64377593994141 108.0049057006836 C 81.91239166259766 106.6224060058594 85.06510925292969 104.9111557006836 88.01438903808594 102.9186553955078 C 90.93614196777344 100.9447555541992 93.68370819091797 98.67778778076172 96.18075561523438 96.18075561523438 C 98.67778778076172 93.68370819091797 100.9447555541992 90.93614196777344 102.9186553955078 88.01438903808594 C 104.9111557006836 85.06510925292969 106.6224060058594 81.91239166259766 108.0049057006836 78.64377593994141 C 110.8812103271484 71.84346008300781 112.3396072387695 64.61857604980469 112.3396072387695 57.16980743408203 C 112.3396072387695 49.72103881835938 110.8812103271484 42.49615478515625 108.0049057006836 35.69583892822266 C 106.6224060058594 32.42722320556641 104.9111557006836 29.27450561523438 102.9186553955078 26.32524108886719 C 100.9447555541992 23.40347290039062 98.67778778076172 20.65590667724609 96.18075561523438 18.15885925292969 C 93.68370819091797 15.66180419921875 90.93614196777344 13.39485931396484 88.01438903808594 11.42094421386719 C 85.06510925292969 9.428459167480469 81.91239166259766 7.717193603515625 78.64377593994141 6.334693908691406 C 71.84346008300781 3.458389282226562 64.61857604980469 1.999992370605469 57.16980743408203 1.999992370605469 M 57.16980743408203 -7.62939453125e-06 C 88.74384307861328 -7.62939453125e-06 114.3396072387695 25.59578704833984 114.3396072387695 57.16980743408203 C 114.3396072387695 88.74384307861328 88.74384307861328 114.3396072387695 57.16980743408203 114.3396072387695 C 25.59578704833984 114.3396072387695 -7.62939453125e-06 88.74384307861328 -7.62939453125e-06 57.16980743408203 C -7.62939453125e-06 25.59578704833984 25.59578704833984 -7.62939453125e-06 57.16980743408203 -7.62939453125e-06 Z" stroke="none" fill="#85b6ec"/>
            </g>
          </g>
        </g>
      </g>
      <path id="Trazado_615556" data-name="Trazado 615556" d="M751.571,142.1l4.414-4.414a1.248,1.248,0,0,0-1.765-1.765l-4.414,4.414-4.414-4.414a1.248,1.248,0,0,0-1.765,1.765l4.415,4.414-4.415,4.414a1.248,1.248,0,1,0,1.765,1.765l4.414-4.414,4.414,4.414a1.248,1.248,0,0,0,1.765-1.765Z" transform="translate(-643.607 -125.574)" fill="#ff7c48"/>
      <path id="Trazado_615557" data-name="Trazado 615557" d="M0,13.9,8.852,0,17.7,13.9Z" transform="translate(15.274 75.974) rotate(90)" fill="#ffb850"/>
      <path id="Trazado_615559" data-name="Trazado 615559" d="M158.251,311.652a3.638,3.638,0,1,1-3.638-3.638,3.638,3.638,0,0,1,3.638,3.638" transform="translate(-63.06 -206.003)" fill="#ffb850"/>
      <path id="Trazado_615560" data-name="Trazado 615560" d="M76,311.652a3.638,3.638,0,1,1-3.638-3.638A3.638,3.638,0,0,1,76,311.652" transform="translate(4.052 -206.003)" fill="#3656b3"/>
      <path id="Trazado_615561" data-name="Trazado 615561" d="M240.505,311.652a3.638,3.638,0,1,1-3.638-3.638,3.638,3.638,0,0,1,3.638,3.638" transform="translate(-130.169 -206.003)" fill="#29c7cc"/>
    </g>
    <g id="Grupo_1099788" data-name="Grupo 1099788" transform="translate(300.769 5299.351)">
      <path id="Trazado_873717" data-name="Trazado 873717" d="M25.737,169.6a18.937,18.937,0,0,0-2.088.078h-.118C10.61,170.9,0,183.166,0,196.835c0,15.876,14.746,17.727,25.737,17.727,10.912,0,23.636-1.654,25.409-14.694C53,184.584,40.864,169.6,25.737,169.6Zm0,0" transform="translate(0 -147.331)" fill="#ff637b"/>
      <path id="Trazado_873718" data-name="Trazado 873718" d="M221.409,199.869c-1.773,13.039-14.5,14.694-25.409,14.694V169.6C211.127,169.6,223.26,184.584,221.409,199.869Zm0,0" transform="translate(-170.263 -147.331)" fill="#e63950"/>
      <path id="Trazado_873719" data-name="Trazado 873719" d="M118.425,6.539l-3.939,11.949H95.026L91.086,6.539a1.9,1.9,0,0,1,.236-1.773,2.054,2.054,0,0,1,1.615-.827H99.2a5.886,5.886,0,0,1,11.109,0h6.263a2.054,2.054,0,0,1,1.615.827A1.9,1.9,0,0,1,118.425,6.539Zm0,0" transform="translate(-79.019)" fill="#ff637b"/>
      <path id="Trazado_873720" data-name="Trazado 873720" d="M209.669,6.539,205.73,18.489H196V0a5.929,5.929,0,0,1,5.555,3.939h6.263a2.054,2.054,0,0,1,1.615.827A1.9,1.9,0,0,1,209.669,6.539Zm0,0" transform="translate(-170.263)" fill="#e63950"/>
      <path id="Trazado_873721" data-name="Trazado 873721" d="M162.517,260.318a5.843,5.843,0,0,1-3.9,5.515v1.773a1.97,1.97,0,0,1-3.939,0v-1.733a5.965,5.965,0,0,1-3.979-5.555,1.975,1.975,0,0,1,1.97-1.97,1.95,1.95,0,0,1,1.97,1.97,2,2,0,0,0,1.97,1.97h.039a1.966,1.966,0,0,0,1.93-1.97,1.942,1.942,0,0,0-1.93-1.97h-.039a5.952,5.952,0,0,1-5.909-5.909,5.888,5.888,0,0,1,3.979-5.555V243.97a1.97,1.97,0,0,1,3.939,0v2.915a5.894,5.894,0,0,1,3.9,5.555,1.975,1.975,0,0,1-1.97,1.97,2,2,0,0,1-1.97-1.97,1.942,1.942,0,0,0-1.93-1.97h-.039a1.975,1.975,0,0,0-1.97,1.97,2,2,0,0,0,1.97,1.97h.039A5.893,5.893,0,0,1,162.517,260.318Zm0,0" transform="translate(-130.911 -210.223)" fill="#ffda2d"/>
      <path id="Trazado_873722" data-name="Trazado 873722" d="M328.707,275.939a3.951,3.951,0,0,1-3.939,3.939l-9.98,3.939-9.848-3.939a3.939,3.939,0,0,1,0-7.879h19.828A3.951,3.951,0,0,1,328.707,275.939Zm0,0" transform="translate(-261.475 -236.283)" fill="#ffda2d"/>
      <path id="Trazado_873723" data-name="Trazado 873723" d="M419.919,275.939a3.951,3.951,0,0,1-3.939,3.939L406,283.818V272h9.98A3.951,3.951,0,0,1,419.919,275.939Zm0,0" transform="translate(-352.688 -236.283)" fill="#fdbf00"/>
      <path id="Trazado_873724" data-name="Trazado 873724" d="M328.707,335.939a3.951,3.951,0,0,1-3.939,3.939l-9.98,3.939-9.848-3.939a3.939,3.939,0,0,1,0-7.879h19.828A3.951,3.951,0,0,1,328.707,335.939Zm0,0" transform="translate(-261.475 -288.405)" fill="#fdbf00"/>
      <path id="Trazado_873725" data-name="Trazado 873725" d="M419.919,335.939a3.951,3.951,0,0,1-3.939,3.939L406,343.818V332h9.98A3.951,3.951,0,0,1,419.919,335.939Zm0,0" transform="translate(-352.688 -288.405)" fill="#ff9100"/>
      <path id="Trazado_873726" data-name="Trazado 873726" d="M328.707,395.939a3.951,3.951,0,0,1-3.939,3.939l-9.98,3.939-9.848-3.939a3.939,3.939,0,0,1,0-7.879h19.828A3.951,3.951,0,0,1,328.707,395.939Zm0,0" transform="translate(-261.475 -340.526)" fill="#ffda2d"/>
      <path id="Trazado_873727" data-name="Trazado 873727" d="M419.919,395.939a3.951,3.951,0,0,1-3.939,3.939L406,403.818V392h9.98A3.951,3.951,0,0,1,419.919,395.939Zm0,0" transform="translate(-352.688 -340.526)" fill="#fdbf00"/>
      <path id="Trazado_873728" data-name="Trazado 873728" d="M328.707,455.939a3.951,3.951,0,0,1-3.939,3.939H304.939a3.939,3.939,0,0,1,0-7.879h19.828A3.951,3.951,0,0,1,328.707,455.939Zm0,0" transform="translate(-261.475 -392.647)" fill="#fdbf00"/>
      <path id="Trazado_873729" data-name="Trazado 873729" d="M419.919,455.939a3.951,3.951,0,0,1-3.939,3.939H406V452h9.98A3.951,3.951,0,0,1,419.919,455.939Zm0,0" transform="translate(-352.688 -392.647)" fill="#ff9100"/>
      <path id="Trazado_873730" data-name="Trazado 873730" d="M118.575,124.939a3.951,3.951,0,0,1-3.939,3.939h-19.7a3.939,3.939,0,1,1,0-7.879h19.7A3.951,3.951,0,0,1,118.575,124.939Zm0,0" transform="translate(-79.051 -105.111)" fill="#ffda2d"/>
      <g id="Grupo_1099787" data-name="Grupo 1099787" transform="translate(25.737 15.889)">
        <path id="Trazado_873731" data-name="Trazado 873731" d="M201.87,342.409a5.843,5.843,0,0,1-3.9,5.515V349.7a1.95,1.95,0,0,1-1.97,1.97v-7.288a1.967,1.967,0,0,0,1.93-1.97,1.942,1.942,0,0,0-1.93-1.97V336.5A5.893,5.893,0,0,1,201.87,342.409Zm0,0" transform="translate(-196 -308.202)" fill="#fdbf00"/>
        <path id="Trazado_873732" data-name="Trazado 873732" d="M201.87,252.439a1.975,1.975,0,0,1-1.97,1.97,2,2,0,0,1-1.97-1.97,1.942,1.942,0,0,0-1.93-1.97V242a1.95,1.95,0,0,1,1.97,1.97v2.915A5.894,5.894,0,0,1,201.87,252.439Zm0,0" transform="translate(-196 -226.111)" fill="#fdbf00"/>
        <path id="Trazado_873733" data-name="Trazado 873733" d="M209.788,124.939a3.951,3.951,0,0,1-3.939,3.939H196V121h9.848A3.951,3.951,0,0,1,209.788,124.939Zm0,0" transform="translate(-196 -121)" fill="#fdbf00"/>
      </g>
    </g>
  </g>
</svg>
