<svg xmlns="http://www.w3.org/2000/svg" width="121" height="121" viewBox="0 0 121 121">
  <g id="img6" transform="translate(-274 -5279.582)">
    <g id="Grupo_1074472" data-name="Grupo 1074472" transform="translate(274 5279.582)">
      <rect id="Rectángulo_378651" data-name="Rectángulo 378651" width="121" height="26" rx="13" transform="translate(0 95)" fill="#315884"/>
      <g id="Grupo_1074381" data-name="Grupo 1074381" transform="translate(2.628 0)">
        <g id="Grupo_1073526" data-name="Grupo 1073526" transform="translate(0 0)">
          <g id="Grupo_1072785" data-name="Grupo 1072785" transform="translate(0)">
            <path id="Trazado_608385" data-name="Trazado 608385" d="M57.17,0A57.17,57.17,0,1,1,0,57.17,57.17,57.17,0,0,1,57.17,0Z" transform="translate(0 0)" fill="none"/>
          </g>
          <g id="Grupo_1073383" data-name="Grupo 1073383" transform="translate(0)">
            <g id="Trazado_608385-2" data-name="Trazado 608385" transform="translate(0 0)" fill="#fff">
              <path d="M 57.16980743408203 113.3396224975586 C 49.58648300170898 113.3396224975586 42.23054504394531 111.8546371459961 35.3062858581543 108.9259338378906 C 31.97820663452148 107.5182723999023 28.76820755004883 105.7759323120117 25.76543807983398 103.7472991943359 C 22.79092979431152 101.7377624511719 19.99380683898926 99.42991638183594 17.45176124572754 96.88787078857422 C 14.9097146987915 94.3458251953125 12.60186862945557 91.54869842529297 10.59233093261719 88.57419586181641 C 8.563699722290039 85.57142639160156 6.821361064910889 82.36140441894531 5.413699626922607 79.03333282470703 C 2.484992027282715 72.10908508300781 1.000007390975952 64.75312805175781 1.000007390975952 57.16980743408203 C 1.000007390975952 49.58648300170898 2.484992027282715 42.23054504394531 5.413699626922607 35.3062858581543 C 6.821361064910889 31.97820663452148 8.563699722290039 28.76820755004883 10.59233093261719 25.76543807983398 C 12.60186862945557 22.79092979431152 14.9097146987915 19.99380683898926 17.45176124572754 17.45176124572754 C 19.99380683898926 14.9097146987915 22.79092979431152 12.60186862945557 25.76543807983398 10.59233093261719 C 28.76820755004883 8.563699722290039 31.97820663452148 6.821361064910889 35.3062858581543 5.413699626922607 C 42.23054504394531 2.484992027282715 49.58648300170898 1.000007390975952 57.16980743408203 1.000007390975952 C 64.75312805175781 1.000007390975952 72.10908508300781 2.484992027282715 79.03333282470703 5.413699626922607 C 82.36140441894531 6.821361064910889 85.57142639160156 8.563699722290039 88.57419586181641 10.59233093261719 C 91.54869842529297 12.60186862945557 94.3458251953125 14.9097146987915 96.88787078857422 17.45176124572754 C 99.42991638183594 19.99380683898926 101.7377624511719 22.79092979431152 103.7472991943359 25.76543807983398 C 105.7759323120117 28.76820755004883 107.5182723999023 31.97820663452148 108.9259338378906 35.3062858581543 C 111.8546371459961 42.23054504394531 113.3396224975586 49.58648300170898 113.3396224975586 57.16980743408203 C 113.3396224975586 64.75312805175781 111.8546371459961 72.10908508300781 108.9259338378906 79.03333282470703 C 107.5182723999023 82.36140441894531 105.7759323120117 85.57142639160156 103.7472991943359 88.57419586181641 C 101.7377624511719 91.54869842529297 99.42991638183594 94.3458251953125 96.88787078857422 96.88787078857422 C 94.3458251953125 99.42991638183594 91.54869842529297 101.7377624511719 88.57419586181641 103.7472991943359 C 85.57142639160156 105.7759323120117 82.36140441894531 107.5182723999023 79.03333282470703 108.9259338378906 C 72.10908508300781 111.8546371459961 64.75312805175781 113.3396224975586 57.16980743408203 113.3396224975586 Z" stroke="none"/>
              <path d="M 57.16980743408203 1.999992370605469 C 49.72103881835938 1.999992370605469 42.49615478515625 3.458389282226562 35.69583892822266 6.334693908691406 C 32.42722320556641 7.717193603515625 29.27450561523438 9.428459167480469 26.32524108886719 11.42094421386719 C 23.40347290039062 13.39485931396484 20.65590667724609 15.66180419921875 18.15885925292969 18.15885925292969 C 15.66180419921875 20.65590667724609 13.39485931396484 23.40347290039062 11.42094421386719 26.32524108886719 C 9.428459167480469 29.27450561523438 7.717193603515625 32.42722320556641 6.334693908691406 35.69583892822266 C 3.458389282226562 42.49615478515625 1.999992370605469 49.72103881835938 1.999992370605469 57.16980743408203 C 1.999992370605469 64.61857604980469 3.458389282226562 71.84346008300781 6.334693908691406 78.64377593994141 C 7.717193603515625 81.91239166259766 9.428459167480469 85.06510925292969 11.42094421386719 88.01438903808594 C 13.39485931396484 90.93614196777344 15.66180419921875 93.68370819091797 18.15885925292969 96.18075561523438 C 20.65590667724609 98.67778778076172 23.40347290039062 100.9447555541992 26.32524108886719 102.9186553955078 C 29.27450561523438 104.9111557006836 32.42722320556641 106.6224060058594 35.69583892822266 108.0049057006836 C 42.49615478515625 110.8812103271484 49.72103881835938 112.3396072387695 57.16980743408203 112.3396072387695 C 64.61857604980469 112.3396072387695 71.84346008300781 110.8812103271484 78.64377593994141 108.0049057006836 C 81.91239166259766 106.6224060058594 85.06510925292969 104.9111557006836 88.01438903808594 102.9186553955078 C 90.93614196777344 100.9447555541992 93.68370819091797 98.67778778076172 96.18075561523438 96.18075561523438 C 98.67778778076172 93.68370819091797 100.9447555541992 90.93614196777344 102.9186553955078 88.01438903808594 C 104.9111557006836 85.06510925292969 106.6224060058594 81.91239166259766 108.0049057006836 78.64377593994141 C 110.8812103271484 71.84346008300781 112.3396072387695 64.61857604980469 112.3396072387695 57.16980743408203 C 112.3396072387695 49.72103881835938 110.8812103271484 42.49615478515625 108.0049057006836 35.69583892822266 C 106.6224060058594 32.42722320556641 104.9111557006836 29.27450561523438 102.9186553955078 26.32524108886719 C 100.9447555541992 23.40347290039062 98.67778778076172 20.65590667724609 96.18075561523438 18.15885925292969 C 93.68370819091797 15.66180419921875 90.93614196777344 13.39485931396484 88.01438903808594 11.42094421386719 C 85.06510925292969 9.428459167480469 81.91239166259766 7.717193603515625 78.64377593994141 6.334693908691406 C 71.84346008300781 3.458389282226562 64.61857604980469 1.999992370605469 57.16980743408203 1.999992370605469 M 57.16980743408203 -7.62939453125e-06 C 88.74384307861328 -7.62939453125e-06 114.3396072387695 25.59578704833984 114.3396072387695 57.16980743408203 C 114.3396072387695 88.74384307861328 88.74384307861328 114.3396072387695 57.16980743408203 114.3396072387695 C 25.59578704833984 114.3396072387695 -7.62939453125e-06 88.74384307861328 -7.62939453125e-06 57.16980743408203 C -7.62939453125e-06 25.59578704833984 25.59578704833984 -7.62939453125e-06 57.16980743408203 -7.62939453125e-06 Z" stroke="none" fill="#85b6ec"/>
            </g>
          </g>
        </g>
      </g>
      <path id="Trazado_615556" data-name="Trazado 615556" d="M751.571,142.1l4.414-4.414a1.248,1.248,0,0,0-1.765-1.765l-4.414,4.414-4.414-4.414a1.248,1.248,0,0,0-1.765,1.765l4.415,4.414-4.415,4.414a1.248,1.248,0,1,0,1.765,1.765l4.414-4.414,4.414,4.414a1.248,1.248,0,0,0,1.765-1.765Z" transform="translate(-643.607 -125.574)" fill="#ff7c48"/>
      <path id="Trazado_615557" data-name="Trazado 615557" d="M0,13.9,8.852,0,17.7,13.9Z" transform="translate(15.274 75.974) rotate(90)" fill="#ffb850"/>
      <path id="Trazado_615559" data-name="Trazado 615559" d="M158.251,311.652a3.638,3.638,0,1,1-3.638-3.638,3.638,3.638,0,0,1,3.638,3.638" transform="translate(-63.06 -206.003)" fill="#ffb850"/>
      <path id="Trazado_615560" data-name="Trazado 615560" d="M76,311.652a3.638,3.638,0,1,1-3.638-3.638A3.638,3.638,0,0,1,76,311.652" transform="translate(4.052 -206.003)" fill="#3656b3"/>
      <path id="Trazado_615561" data-name="Trazado 615561" d="M240.505,311.652a3.638,3.638,0,1,1-3.638-3.638,3.638,3.638,0,0,1,3.638,3.638" transform="translate(-130.169 -206.003)" fill="#29c7cc"/>
    </g>
    <g id="Grupo_1099785" data-name="Grupo 1099785" transform="translate(261.501 5290.706)">
      <g id="Grupo_1099780" data-name="Grupo 1099780" transform="translate(72.964 34.682)">
        <circle id="Elipse_11489" data-name="Elipse 11489" cx="11.69" cy="11.69" r="11.69" transform="translate(0 22.959) rotate(-79.275)" fill="#f9ac00"/>
        <path id="Trazado_873692" data-name="Trazado 873692" d="M281.271,234.889A11.689,11.689,0,1,1,292.6,223.206,11.69,11.69,0,0,1,281.271,234.889Z" transform="translate(-267.946 -209.564)" fill="#fcdb35" fill-rule="evenodd"/>
        <circle id="Elipse_11490" data-name="Elipse 11490" cx="9.327" cy="9.327" r="9.327" transform="translate(2.777 21.082) rotate(-79.218)" fill="#f19a00"/>
        <path id="Trazado_873693" data-name="Trazado 873693" d="M303.97,228.4a9.326,9.326,0,1,1-8.727,9.307A9.327,9.327,0,0,1,303.97,228.4Z" transform="translate(-289.68 -224.062)" fill="#f9ac00" fill-rule="evenodd"/>
      </g>
      <g id="Grupo_1099782" data-name="Grupo 1099782" transform="translate(43 55.929)">
        <g id="Grupo_1099781" data-name="Grupo 1099781">
          <path id="Trazado_873694" data-name="Trazado 873694" d="M134.391,370.408a3.087,3.087,0,0,0-2.767-4.656c-3.848,0-4.854.2-8.419-1.925l-3.879-2.311a11.276,11.276,0,0,0-7.287-1.746l-10.678.988v15.78c10.283,0,21.537,5.189,32.434,2.932,3.829-.793,16.29-7.922,18.606-10.967,2.094-2.753-.609-5.345-3.8-3.5-4.3,2.483-13.838,6.8-17.838,7.2,1.671-.206,3.014-.753,3.63-1.789Z" transform="translate(-93.141 -358.13)" fill="#fdb0a0" fill-rule="evenodd"/>
          <path id="Trazado_873695" data-name="Trazado 873695" d="M134.391,370.408a3.087,3.087,0,0,0-2.767-4.656c-3.848,0-4.854.2-8.419-1.925l-3.879-2.311a11.276,11.276,0,0,0-7.287-1.746l-10.678.988v13.1c10.191.121,21.668,5.159,32.434,2.929,3.829-.793,16.29-7.922,18.606-10.967a4.3,4.3,0,0,0,.335-.509c-.729-.989-2.357-1.341-4.138-.313-4.3,2.483-13.838,6.8-17.838,7.2,1.671-.206,3.014-.753,3.63-1.789Z" transform="translate(-93.141 -358.13)" fill="#ffcec0" fill-rule="evenodd"/>
          <path id="Trazado_873696" data-name="Trazado 873696" d="M210.692,406.883a22.378,22.378,0,0,0,7.771,2.136,15.823,15.823,0,0,0,4.275-.029c4-.729,3.81-2.47,2.685-3.582a3.091,3.091,0,0,1,1.129,4.259,4.048,4.048,0,0,1-2.773,1.646c-.258.048-.542.1-.857.143a18.59,18.59,0,0,1-4.714.057,25.116,25.116,0,0,1-8.792-2.47A1.27,1.27,0,1,1,210.692,406.883Z" transform="translate(-185.302 -397.389)" fill="#fdb0a0" fill-rule="evenodd"/>
          <path id="Trazado_873697" data-name="Trazado 873697" d="M43,348.471h6.484a2.321,2.321,0,0,1,2.314,2.314v16.408a2.321,2.321,0,0,1-2.314,2.314H43Z" transform="translate(-43 -348.471)" fill="#2a93fc" fill-rule="evenodd"/>
          <path id="Trazado_873698" data-name="Trazado 873698" d="M43,348.471h6.484a2.3,2.3,0,0,1,.363,1.24v16.183a1.8,1.8,0,0,1-1.8,1.8H43Z" transform="translate(-43 -348.471)" fill="#4eb1fc" fill-rule="evenodd"/>
        </g>
        <circle id="Elipse_11491" data-name="Elipse 11491" cx="1.733" cy="1.733" r="1.733" transform="translate(2.667 14.689)" fill="#0062d9"/>
      </g>
      <g id="Grupo_1099784" data-name="Grupo 1099784" transform="translate(43.022 7.972)">
        <path id="Trazado_873699" data-name="Trazado 873699" d="M191.742,8.817a.845.845,0,0,1,1.69,0v2.09a.845.845,0,0,1-1.69,0Zm-5.774,1.244a.842.842,0,0,1,1.5-.766l.953,1.861a.842.842,0,0,1-1.5.766Zm11.738-.766a.841.841,0,1,1,1.5.766l-.953,1.861a.841.841,0,1,1-1.5-.766Z" transform="translate(-165.774 -7.972)" fill="#43f043" fill-rule="evenodd"/>
        <path id="Trazado_873700" data-name="Trazado 873700" d="M85.016,127.8a.844.844,0,1,1-.244-1.67l3.193-.468a.845.845,0,0,1,.955.974l-.465,3.177a.844.844,0,1,1-1.67-.244l.1-.672-16.32,16.32a.845.845,0,0,1-1.195,0l-11-11L44.6,147.976a.845.845,0,0,1-1.195-1.195l14.365-14.365a.845.845,0,0,1,1.195,0l11,11L85.688,127.7l-.672.1Z" transform="translate(-43.153 -109.076)" fill="#7986bf" fill-rule="evenodd"/>
        <path id="Trazado_873701" data-name="Trazado 873701" d="M325.771,243.445a.845.845,0,1,1,1.69,0v.889q.18.024.356.058a4.482,4.482,0,0,1,2.249,1.084,2.845,2.845,0,0,1,.826,1.437.842.842,0,0,1-1.644.37,1.186,1.186,0,0,0-.35-.592,2.8,2.8,0,0,0-1.4-.642l-.039-.007V249.3a8.762,8.762,0,0,1,1.19.395,4.6,4.6,0,0,1,1.492.947,2.546,2.546,0,0,1,.785,1.59,2.7,2.7,0,0,1-1.034,2.387,4.269,4.269,0,0,1-1.664.757,5.937,5.937,0,0,1-.768.125v.867a.845.845,0,0,1-1.69,0v-.919a5.977,5.977,0,0,1-.723-.162,3.629,3.629,0,0,1-2.726-2.555.844.844,0,1,1,1.644-.383,2.027,2.027,0,0,0,1.551,1.32q.125.037.254.065v-3.11a5.779,5.779,0,0,1-2.125-.914,3.608,3.608,0,0,1-.286-.246,2.819,2.819,0,0,1-.9-1.849,2.734,2.734,0,0,1,.592-1.874,3.193,3.193,0,0,1,.218-.253,4.031,4.031,0,0,1,2.027-1.063c.155-.035.314-.064.475-.087v-.894Zm1.69,7.607V253.8c.131-.018.26-.042.385-.071a2.743,2.743,0,0,0,.963-.4.967.967,0,0,0,.139-1.5A3.691,3.691,0,0,0,327.462,251.052Zm-1.69-2.178v-2.827l-.106.023c-.675.153-1.582.6-1.524,1.434C324.2,248.3,325.13,248.682,325.771,248.874Z" transform="translate(-282.985 -209.555)" fill="#ffeb87" fill-rule="evenodd"/>
        <g id="Grupo_1099783" data-name="Grupo 1099783" transform="translate(14.559 5.715)">
          <path id="Trazado_873702" data-name="Trazado 873702" d="M146.525,55.623l12.253,16.3,12.253-16.3-4.084-7.074H150.609Z" transform="translate(-146.525 -48.549)" fill="#43f043" fill-rule="evenodd"/>
          <path id="Trazado_873703" data-name="Trazado 873703" d="M262.524,55.623l4.084-7.074,4.084,7.074Z" transform="translate(-246.186 -48.549)" fill="#43f043" fill-rule="evenodd"/>
          <path id="Trazado_873704" data-name="Trazado 873704" d="M283.411,50.528l1.143-1.979,4.084,7.074h-2.285Z" transform="translate(-264.132 -48.549)" fill="#2dd62d" fill-rule="evenodd"/>
          <path id="Trazado_873705" data-name="Trazado 873705" d="M146.525,55.623l4.084-7.074,4.084,7.074Z" transform="translate(-146.525 -48.549)" fill="#43f043" fill-rule="evenodd"/>
          <path id="Trazado_873706" data-name="Trazado 873706" d="M175.525,48.549l4.084,7.074,4.085-7.074Z" transform="translate(-171.441 -48.549)" fill="#96ff96" fill-rule="evenodd"/>
          <path id="Trazado_873707" data-name="Trazado 873707" d="M175.525,48.549l1.143,1.979h5.883l1.143-1.979Z" transform="translate(-171.441 -48.549)" fill="#43f043" fill-rule="evenodd"/>
          <path id="Trazado_873708" data-name="Trazado 873708" d="M204.525,55.623l4.084-7.074,4.084,7.074Z" transform="translate(-196.356 -48.549)" fill="#2dd62d" fill-rule="evenodd"/>
          <path id="Trazado_873709" data-name="Trazado 873709" d="M233.525,48.549l4.084,7.074,4.084-7.074Z" transform="translate(-221.272 -48.549)" fill="#96ff96" fill-rule="evenodd"/>
          <path id="Trazado_873710" data-name="Trazado 873710" d="M233.525,48.549l1.143,1.979h5.883l1.143-1.979Z" transform="translate(-221.272 -48.549)" fill="#43f043" fill-rule="evenodd"/>
          <path id="Trazado_873711" data-name="Trazado 873711" d="M237.609,98.778h8.169l-12.253,16.3Z" transform="translate(-221.272 -91.704)" fill="#96ff96" fill-rule="evenodd"/>
          <path id="Trazado_873712" data-name="Trazado 873712" d="M154.694,98.778h-8.169l12.253,16.3Z" transform="translate(-146.525 -91.704)" fill="#96ff96" fill-rule="evenodd"/>
          <path id="Trazado_873713" data-name="Trazado 873713" d="M204.525,98.778h8.169l-4.084,16.3Z" transform="translate(-196.356 -91.704)" fill="#43f043" fill-rule="evenodd"/>
          <path id="Trazado_873714" data-name="Trazado 873714" d="M233.525,115.08l9.968-16.3h2.285Z" transform="translate(-221.272 -91.704)" fill="#43f043" fill-rule="evenodd"/>
          <path id="Trazado_873715" data-name="Trazado 873715" d="M151.752,50.528l-1.143-1.979-4.084,7.074h2.285Z" transform="translate(-146.525 -48.549)" fill="#2dd62d" fill-rule="evenodd"/>
          <path id="Trazado_873716" data-name="Trazado 873716" d="M158.778,115.08l-9.968-16.3h-2.285Z" transform="translate(-146.525 -91.704)" fill="#43f043" fill-rule="evenodd"/>
        </g>
      </g>
    </g>
  </g>
</svg>
