<svg xmlns="http://www.w3.org/2000/svg" width="121" height="121" viewBox="0 0 121 121">
  <g id="img8" transform="translate(-18818 10162.919)">
    <g id="Grupo_1100357" data-name="Grupo 1100357" transform="translate(18432.332 -16175.919)">
      <rect id="Rectángulo_378643" data-name="Rectángulo 378643" width="121" height="26" rx="13" transform="translate(385.668 6108)" fill="#315884"/>
      <g id="Grupo_1073527" data-name="Grupo 1073527" transform="translate(-3 -36)">
        <g id="Grupo_1073526" data-name="Grupo 1073526" transform="translate(391.668 6049)">
          <g id="Grupo_1072785" data-name="Grupo 1072785" transform="translate(0 0)">
            <path id="Trazado_608385" data-name="Trazado 608385" d="M57.014,0A57.014,57.014,0,1,1,0,57.014,57.014,57.014,0,0,1,57.014,0Z" fill="none"/>
          </g>
          <g id="Grupo_1073383" data-name="Grupo 1073383" transform="translate(0 0)">
            <path id="Trazado_608385-2" data-name="Trazado 608385" d="M57.014,0A57.014,57.014,0,1,1,0,57.014,57.014,57.014,0,0,1,57.014,0Z" fill="#fff"/>
          </g>
        </g>
      </g>
    </g>
    <g id="Grupo_1100410" data-name="Grupo 1100410" transform="translate(18833.352 -10177.761)">
      <g id="Grupo_1100391" data-name="Grupo 1100391" transform="translate(11.253 84.906)">
        <g id="Grupo_1100387" data-name="Grupo 1100387" transform="translate(0 0)">
          <circle id="Elipse_11533" data-name="Elipse 11533" cx="8.767" cy="8.767" r="8.767" fill="#98ca69"/>
        </g>
        <g id="Grupo_1100388" data-name="Grupo 1100388" transform="translate(2.748 8.961)">
          <path id="Trazado_874576" data-name="Trazado 874576" d="M49.431,411A5.715,5.715,0,0,1,38,411Z" transform="translate(-38 -411)" fill="#75aa40"/>
        </g>
        <g id="Grupo_1100389" data-name="Grupo 1100389" transform="translate(11.273 5.009)">
          <circle id="Elipse_11534" data-name="Elipse 11534" cx="1.252" cy="1.252" r="1.252" transform="translate(0 0)" fill="#75aa40"/>
        </g>
        <g id="Grupo_1100390" data-name="Grupo 1100390" transform="translate(3.757 5.009)">
          <circle id="Elipse_11535" data-name="Elipse 11535" cx="1.252" cy="1.252" r="1.252" transform="translate(0 0)" fill="#75aa40"/>
        </g>
      </g>
      <g id="Grupo_1100392" data-name="Grupo 1100392" transform="translate(10 51.295)">
        <path id="Trazado_874577" data-name="Trazado 874577" d="M10,137.905H29.432a15.668,15.668,0,0,1,4.6-11.114L20.295,113.051A35.04,35.04,0,0,0,10,137.905Z" transform="translate(-10 -113.051)" fill="#98ca69"/>
      </g>
      <g id="Grupo_1100393" data-name="Grupo 1100393" transform="translate(20.295 41)">
        <path id="Trazado_874578" data-name="Trazado 874578" d="M106.906,60.432V41A35.039,35.039,0,0,0,82.052,51.3L95.793,65.036A15.667,15.667,0,0,1,106.906,60.432Z" transform="translate(-82.052 -41)" fill="#ffe352"/>
      </g>
      <g id="Grupo_1100394" data-name="Grupo 1100394" transform="translate(45.149 41)">
        <path id="Trazado_874579" data-name="Trazado 874579" d="M256,41V60.432a15.668,15.668,0,0,1,11.114,4.6l13.741-13.741A35.04,35.04,0,0,0,256,41Z" transform="translate(-256 -41)" fill="#ffb236"/>
      </g>
      <g id="Grupo_1100395" data-name="Grupo 1100395" transform="translate(56.263 51.295)">
        <path id="Trazado_874580" data-name="Trazado 874580" d="M333.782,126.793a15.668,15.668,0,0,1,4.6,11.114h19.432a35.039,35.039,0,0,0-10.3-24.854Z" transform="translate(-333.782 -113.052)" fill="#ff7b7b"/>
      </g>
      <g id="Grupo_1100396" data-name="Grupo 1100396" transform="translate(41.434 49.859)">
        <path id="Trazado_874581" data-name="Trazado 874581" d="M233.715,103,230,130.719h7.43Z" transform="translate(-230 -103)" fill="#466089"/>
      </g>
      <g id="Grupo_1100397" data-name="Grupo 1100397" transform="translate(41.311 73.634)">
        <ellipse id="Elipse_11536" data-name="Elipse 11536" cx="3.757" cy="4.384" rx="3.757" ry="4.384" transform="translate(0 0)" fill="#6e83b7"/>
      </g>
      <g id="Grupo_1100398" data-name="Grupo 1100398" transform="translate(10 76.149)">
        <path id="Trazado_874582" data-name="Trazado 874582" d="M10,287H29.432v5.715H10Z" transform="translate(-10 -287)" fill="#466089"/>
      </g>
      <g id="Grupo_1100403" data-name="Grupo 1100403" transform="translate(62.604 84.906)">
        <g id="Grupo_1100399" data-name="Grupo 1100399" transform="translate(0 0)">
          <ellipse id="Elipse_11537" data-name="Elipse 11537" cx="8.141" cy="8.767" rx="8.141" ry="8.767" fill="#ffb0aa"/>
        </g>
        <g id="Grupo_1100400" data-name="Grupo 1100400" transform="translate(2.194 9.104)">
          <path id="Trazado_874583" data-name="Trazado 874583" d="M403.575,416.266a4.86,4.86,0,0,0-8.553,0l-1.508-.816a6.575,6.575,0,0,1,11.57,0Z" transform="translate(-393.514 -412)" fill="#ff7b7b"/>
        </g>
        <g id="Grupo_1100401" data-name="Grupo 1100401" transform="translate(2.505 5.009)">
          <ellipse id="Elipse_11538" data-name="Elipse 11538" cx="1.879" cy="1.252" rx="1.879" ry="1.252" transform="translate(0 0)" fill="#ff7b7b"/>
        </g>
        <g id="Grupo_1100402" data-name="Grupo 1100402" transform="translate(10.018 5.009)">
          <circle id="Elipse_11539" data-name="Elipse 11539" cx="1.252" cy="1.252" r="1.252" transform="translate(0 0)" fill="#ff7b7b"/>
        </g>
      </g>
      <g id="Grupo_1100408" data-name="Grupo 1100408" transform="translate(36.302 84.906)">
        <g id="Grupo_1100404" data-name="Grupo 1100404" transform="translate(0 0)">
          <circle id="Elipse_11540" data-name="Elipse 11540" cx="8.767" cy="8.767" r="8.767" transform="translate(0)" fill="#ffe352"/>
        </g>
        <g id="Grupo_1100405" data-name="Grupo 1100405" transform="translate(3.816 10.961)">
          <path id="Trazado_874584" data-name="Trazado 874584" d="M220.792,425h10.061v1.715H220.792Z" transform="translate(-220.792 -425)" fill="#ffb236"/>
        </g>
        <g id="Grupo_1100406" data-name="Grupo 1100406" transform="translate(3.757 5.009)">
          <circle id="Elipse_11541" data-name="Elipse 11541" cx="1.252" cy="1.252" r="1.252" transform="translate(0 0)" fill="#ffb236"/>
        </g>
        <g id="Grupo_1100407" data-name="Grupo 1100407" transform="translate(11.27 5.009)">
          <circle id="Elipse_11542" data-name="Elipse 11542" cx="1.252" cy="1.252" r="1.252" transform="translate(0 0)" fill="#ffb236"/>
        </g>
      </g>
      <g id="Grupo_1100409" data-name="Grupo 1100409" transform="translate(60.867 76.149)">
        <path id="Trazado_874585" data-name="Trazado 874585" d="M0,0H19.432V5.715H0Z" transform="translate(19.432 5.715) rotate(180)" fill="#466089"/>
      </g>
    </g>
  </g>
</svg>
